<?xml version="1.0" encoding="UTF-8" standalone="no"?>
<!DOCTYPE svg PUBLIC "-//W3C//DTD SVG 1.1//EN"
 "http://www.w3.org/Graphics/SVG/1.1/DTD/svg11.dtd">
<!-- Generated by graphviz version 2.36.0 (20140111.2315)
 -->
<!-- Title: src/ScenarioAnalysation/analyser.h Pages: 1 -->
<svg width="292pt" height="344pt"
 viewBox="0.00 0.00 292.00 344.00" xmlns="http://www.w3.org/2000/svg" xmlns:xlink="http://www.w3.org/1999/xlink">
<g id="graph0" class="graph" transform="scale(1 1) rotate(0) translate(4 340)">
<title>src/ScenarioAnalysation/analyser.h</title>
<!-- Node1 -->
<g id="node1" class="node"><title>Node1</title>
<polygon fill="#bfbfbf" stroke="black" points="51,-305 51,-335 173,-335 173,-305 51,-305"/>
<text text-anchor="start" x="59" y="-323" font-family="Helvetica,sans-Serif" font-size="10.00">src/ScenarioAnalysation</text>
<text text-anchor="middle" x="112" y="-312" font-family="Helvetica,sans-Serif" font-size="10.00">/analyser.h</text>
</g>
<!-- Node2 -->
<g id="node2" class="node"><title>Node2</title>
<polygon fill="none" stroke="#bfbfbf" points="16,-0.5 16,-19.5 60,-19.5 60,-0.5 16,-0.5"/>
<text text-anchor="middle" x="38" y="-7.5" font-family="Helvetica,sans-Serif" font-size="10.00">vector</text>
</g>
<!-- Node1&#45;&gt;Node2 -->
<g id="edge1" class="edge"><title>Node1&#45;&gt;Node2</title>
<path fill="none" stroke="midnightblue" d="M86.5855,-304.886C53.5408,-284.447 0,-243.265 0,-191 0,-191 0,-191 0,-127 0,-90.6128 17.0946,-50.8528 28.3527,-28.6136"/>
<polygon fill="midnightblue" stroke="midnightblue" points="31.4811,-30.1842 33.0322,-19.7035 25.2838,-26.9294 31.4811,-30.1842"/>
</g>
<!-- Node3 -->
<g id="node3" class="node"><title>Node3</title>
<g id="a_node3"><a xlink:href="frame__detection__data_8h.html" target="_top" xlink:title="../ObjectDetection\l/frame_detection_data.h">
<polygon fill="none" stroke="black" points="70,-113 70,-143 192,-143 192,-113 70,-113"/>
<text text-anchor="start" x="78" y="-131" font-family="Helvetica,sans-Serif" font-size="10.00">../ObjectDetection</text>
<text text-anchor="middle" x="131" y="-120" font-family="Helvetica,sans-Serif" font-size="10.00">/frame_detection_data.h</text>
</a>
</g>
</g>
<!-- Node1&#45;&gt;Node3 -->
<g id="edge2" class="edge"><title>Node1&#45;&gt;Node3</title>
<path fill="none" stroke="midnightblue" d="M113.428,-304.719C116.661,-272.386 124.572,-193.284 128.583,-153.171"/>
<polygon fill="midnightblue" stroke="midnightblue" points="132.069,-153.486 129.581,-143.187 125.104,-152.789 132.069,-153.486"/>
</g>
<!-- Node8 -->
<g id="node8" class="node"><title>Node8</title>
<g id="a_node8"><a xlink:href="scenario_8h.html" target="_top" xlink:title="scenario.h">
<polygon fill="none" stroke="black" points="138,-180.5 138,-199.5 200,-199.5 200,-180.5 138,-180.5"/>
<text text-anchor="middle" x="169" y="-187.5" font-family="Helvetica,sans-Serif" font-size="10.00">scenario.h</text>
</a>
</g>
</g>
<!-- Node1&#45;&gt;Node8 -->
<g id="edge9" class="edge"><title>Node1&#45;&gt;Node8</title>
<path fill="none" stroke="midnightblue" d="M118.318,-304.813C128.763,-281.357 149.611,-234.541 161.044,-208.866"/>
<polygon fill="midnightblue" stroke="midnightblue" points="164.311,-210.133 165.182,-199.574 157.917,-207.285 164.311,-210.133"/>
</g>
<!-- Node9 -->
<g id="node9" class="node"><title>Node9</title>
<g id="a_node9"><a xlink:href="humans__in__front__of__bus__scenario_8h.html" target="_top" xlink:title="humans_in_front_of\l_bus_scenario.h">
<polygon fill="none" stroke="black" points="159,-237 159,-267 261,-267 261,-237 159,-237"/>
<text text-anchor="start" x="167" y="-255" font-family="Helvetica,sans-Serif" font-size="10.00">humans_in_front_of</text>
<text text-anchor="middle" x="210" y="-244" font-family="Helvetica,sans-Serif" font-size="10.00">_bus_scenario.h</text>
</a>
</g>
</g>
<!-- Node1&#45;&gt;Node9 -->
<g id="edge12" class="edge"><title>Node1&#45;&gt;Node9</title>
<path fill="none" stroke="midnightblue" d="M133.265,-304.679C147.1,-295.361 165.333,-283.082 180.555,-272.83"/>
<polygon fill="midnightblue" stroke="midnightblue" points="182.774,-275.555 189.114,-267.066 178.864,-269.749 182.774,-275.555"/>
</g>
<!-- Node3&#45;&gt;Node2 -->
<g id="edge4" class="edge"><title>Node3&#45;&gt;Node2</title>
<path fill="none" stroke="midnightblue" d="M101.306,-112.812C86.0499,-104.136 68.3339,-91.6802 57,-76 47.2071,-62.4518 42.4312,-43.9015 40.1203,-30.0852"/>
<polygon fill="midnightblue" stroke="midnightblue" points="43.5362,-29.2347 38.7028,-19.8066 36.6018,-30.1911 43.5362,-29.2347"/>
</g>
<!-- Node4 -->
<g id="node4" class="node"><title>Node4</title>
<polygon fill="none" stroke="#bfbfbf" points="66.5,-56.5 66.5,-75.5 95.5,-75.5 95.5,-56.5 66.5,-56.5"/>
<text text-anchor="middle" x="81" y="-63.5" font-family="Helvetica,sans-Serif" font-size="10.00">list</text>
</g>
<!-- Node3&#45;&gt;Node4 -->
<g id="edge3" class="edge"><title>Node3&#45;&gt;Node4</title>
<path fill="none" stroke="midnightblue" d="M119.151,-112.781C111.81,-103.972 102.355,-92.6262 94.6943,-83.4332"/>
<polygon fill="midnightblue" stroke="midnightblue" points="97.3661,-81.1721 88.2754,-75.7305 91.9885,-85.6534 97.3661,-81.1721"/>
</g>
<!-- Node5 -->
<g id="node5" class="node"><title>Node5</title>
<polygon fill="none" stroke="#bfbfbf" points="113.5,-56.5 113.5,-75.5 148.5,-75.5 148.5,-56.5 113.5,-56.5"/>
<text text-anchor="middle" x="131" y="-63.5" font-family="Helvetica,sans-Serif" font-size="10.00">map</text>
</g>
<!-- Node3&#45;&gt;Node5 -->
<g id="edge5" class="edge"><title>Node3&#45;&gt;Node5</title>
<path fill="none" stroke="midnightblue" d="M131,-112.781C131,-104.781 131,-94.6887 131,-86.0168"/>
<polygon fill="midnightblue" stroke="midnightblue" points="134.5,-85.7305 131,-75.7305 127.5,-85.7306 134.5,-85.7305"/>
</g>
<!-- Node6 -->
<g id="node6" class="node"><title>Node6</title>
<polygon fill="none" stroke="#bfbfbf" points="166.5,-56.5 166.5,-75.5 207.5,-75.5 207.5,-56.5 166.5,-56.5"/>
<text text-anchor="middle" x="187" y="-63.5" font-family="Helvetica,sans-Serif" font-size="10.00">string</text>
</g>
<!-- Node3&#45;&gt;Node6 -->
<g id="edge6" class="edge"><title>Node3&#45;&gt;Node6</title>
<path fill="none" stroke="midnightblue" d="M144.271,-112.781C152.576,-103.882 163.299,-92.3943 171.924,-83.1524"/>
<polygon fill="midnightblue" stroke="midnightblue" points="174.587,-85.4292 178.852,-75.7305 169.47,-80.653 174.587,-85.4292"/>
</g>
<!-- Node7 -->
<g id="node7" class="node"><title>Node7</title>
<g id="a_node7"><a xlink:href="element_8h.html" target="_top" xlink:title="element.h">
<polygon fill="none" stroke="black" points="225.5,-56.5 225.5,-75.5 284.5,-75.5 284.5,-56.5 225.5,-56.5"/>
<text text-anchor="middle" x="255" y="-63.5" font-family="Helvetica,sans-Serif" font-size="10.00">element.h</text>
</a>
</g>
</g>
<!-- Node3&#45;&gt;Node7 -->
<g id="edge7" class="edge"><title>Node3&#45;&gt;Node7</title>
<path fill="none" stroke="midnightblue" d="M160.072,-112.933C180.619,-102.991 207.963,-89.7601 228.025,-80.0526"/>
<polygon fill="midnightblue" stroke="midnightblue" points="229.749,-83.1063 237.227,-75.6 226.701,-76.8051 229.749,-83.1063"/>
</g>
<!-- Node7&#45;&gt;Node2 -->
<g id="edge8" class="edge"><title>Node7&#45;&gt;Node2</title>
<path fill="none" stroke="midnightblue" d="M225.282,-57.6048C184.619,-47.4859 111.926,-29.3964 70.0694,-18.9804"/>
<polygon fill="midnightblue" stroke="midnightblue" points="70.6797,-15.5256 60.1304,-16.5071 68.9893,-22.3184 70.6797,-15.5256"/>
</g>
<!-- Node8&#45;&gt;Node3 -->
<g id="edge10" class="edge"><title>Node8&#45;&gt;Node3</title>
<path fill="none" stroke="midnightblue" d="M163.556,-180.403C158.842,-172.961 151.806,-161.851 145.479,-151.862"/>
<polygon fill="midnightblue" stroke="midnightblue" points="148.263,-149.716 139.956,-143.141 142.35,-153.462 148.263,-149.716"/>
</g>
<!-- Node8&#45;&gt;Node7 -->
<g id="edge11" class="edge"><title>Node8&#45;&gt;Node7</title>
<path fill="none" stroke="midnightblue" d="M175.151,-180.385C181.607,-171.336 192.041,-156.686 201,-144 215.508,-123.456 232.107,-99.7585 243.028,-84.1393"/>
<polygon fill="midnightblue" stroke="midnightblue" points="246.165,-85.7602 249.025,-75.5586 240.428,-81.7502 246.165,-85.7602"/>
</g>
<!-- Node9&#45;&gt;Node8 -->
<g id="edge13" class="edge"><title>Node9&#45;&gt;Node8</title>
<path fill="none" stroke="midnightblue" d="M200.284,-236.781C194.387,-228.152 186.827,-217.088 180.616,-207.999"/>
<polygon fill="midnightblue" stroke="midnightblue" points="183.498,-206.012 174.966,-199.731 177.718,-209.962 183.498,-206.012"/>
</g>
</g>
</svg>
