<?xml version="1.0" encoding="UTF-8" standalone="no"?>
<!DOCTYPE svg PUBLIC "-//W3C//DTD SVG 1.1//EN"
 "http://www.w3.org/Graphics/SVG/1.1/DTD/svg11.dtd">
<!-- Generated by graphviz version 2.36.0 (20140111.2315)
 -->
<!-- Title: src/ScenarioAnalysation/analyser.cpp Pages: 1 -->
<svg width="381pt" height="400pt"
 viewBox="0.00 0.00 381.00 400.00" xmlns="http://www.w3.org/2000/svg" xmlns:xlink="http://www.w3.org/1999/xlink">
<g id="graph0" class="graph" transform="scale(1 1) rotate(0) translate(4 396)">
<title>src/ScenarioAnalysation/analyser.cpp</title>
<!-- Node1 -->
<g id="node1" class="node"><title>Node1</title>
<polygon fill="#bfbfbf" stroke="black" points="79,-361 79,-391 201,-391 201,-361 79,-361"/>
<text text-anchor="start" x="87" y="-379" font-family="Helvetica,sans-Serif" font-size="10.00">src/ScenarioAnalysation</text>
<text text-anchor="middle" x="140" y="-368" font-family="Helvetica,sans-Serif" font-size="10.00">/analyser.cpp</text>
</g>
<!-- Node2 -->
<g id="node2" class="node"><title>Node2</title>
<polygon fill="none" stroke="#bfbfbf" points="0,-304.5 0,-323.5 54,-323.5 54,-304.5 0,-304.5"/>
<text text-anchor="middle" x="27" y="-311.5" font-family="Helvetica,sans-Serif" font-size="10.00">iostream</text>
</g>
<!-- Node1&#45;&gt;Node2 -->
<g id="edge1" class="edge"><title>Node1&#45;&gt;Node2</title>
<path fill="none" stroke="midnightblue" d="M113.507,-360.933C94.9528,-351.081 70.3174,-338 52.0827,-328.318"/>
<polygon fill="midnightblue" stroke="midnightblue" points="53.6703,-325.198 43.1967,-323.6 50.3875,-331.381 53.6703,-325.198"/>
</g>
<!-- Node3 -->
<g id="node3" class="node"><title>Node3</title>
<g id="a_node3"><a xlink:href="analyser_8h.html" target="_top" xlink:title="analyser.h">
<polygon fill="none" stroke="black" points="168,-304.5 168,-323.5 230,-323.5 230,-304.5 168,-304.5"/>
<text text-anchor="middle" x="199" y="-311.5" font-family="Helvetica,sans-Serif" font-size="10.00">analyser.h</text>
</a>
</g>
</g>
<!-- Node1&#45;&gt;Node3 -->
<g id="edge2" class="edge"><title>Node1&#45;&gt;Node3</title>
<path fill="none" stroke="midnightblue" d="M153.982,-360.781C162.821,-351.792 174.257,-340.162 183.391,-330.873"/>
<polygon fill="midnightblue" stroke="midnightblue" points="185.899,-333.315 190.415,-323.731 180.908,-328.407 185.899,-333.315"/>
</g>
<!-- Node6 -->
<g id="node6" class="node"><title>Node6</title>
<polygon fill="none" stroke="#bfbfbf" points="344.5,-56.5 344.5,-75.5 373.5,-75.5 373.5,-56.5 344.5,-56.5"/>
<text text-anchor="middle" x="359" y="-63.5" font-family="Helvetica,sans-Serif" font-size="10.00">list</text>
</g>
<!-- Node1&#45;&gt;Node6 -->
<g id="edge17" class="edge"><title>Node1&#45;&gt;Node6</title>
<path fill="none" stroke="midnightblue" d="M201.031,-366.93C264.904,-354.657 356,-324.601 356,-253 356,-253 356,-253 356,-189 356,-152.403 357.366,-109.649 358.254,-85.7088"/>
<polygon fill="midnightblue" stroke="midnightblue" points="361.757,-85.7043 358.644,-75.5771 354.762,-85.4351 361.757,-85.7043"/>
</g>
<!-- Node9 -->
<g id="node9" class="node"><title>Node9</title>
<g id="a_node9"><a xlink:href="element_8h.html" target="_top" xlink:title="element.h">
<polygon fill="none" stroke="black" points="77.5,-56.5 77.5,-75.5 136.5,-75.5 136.5,-56.5 77.5,-56.5"/>
<text text-anchor="middle" x="107" y="-63.5" font-family="Helvetica,sans-Serif" font-size="10.00">element.h</text>
</a>
</g>
</g>
<!-- Node1&#45;&gt;Node9 -->
<g id="edge16" class="edge"><title>Node1&#45;&gt;Node9</title>
<path fill="none" stroke="midnightblue" d="M127.982,-360.652C110.994,-338.859 82,-295.449 82,-253 82,-253 82,-253 82,-189 82,-151.671 93.3717,-109.2 100.776,-85.5032"/>
<polygon fill="midnightblue" stroke="midnightblue" points="104.183,-86.344 103.935,-75.7521 97.5233,-84.187 104.183,-86.344"/>
</g>
<!-- Node4 -->
<g id="node4" class="node"><title>Node4</title>
<polygon fill="none" stroke="#bfbfbf" points="143,-0.5 143,-19.5 187,-19.5 187,-0.5 143,-0.5"/>
<text text-anchor="middle" x="165" y="-7.5" font-family="Helvetica,sans-Serif" font-size="10.00">vector</text>
</g>
<!-- Node3&#45;&gt;Node4 -->
<g id="edge3" class="edge"><title>Node3&#45;&gt;Node4</title>
<path fill="none" stroke="midnightblue" d="M220.458,-304.441C237.251,-296.88 260.311,-284.49 276,-268 302.582,-240.061 316,-229.564 316,-191 316,-191 316,-191 316,-127 316,-94.2164 318.52,-79.8249 296,-56 270.18,-28.6841 227.054,-17.9489 197.381,-13.7303"/>
<polygon fill="midnightblue" stroke="midnightblue" points="197.47,-10.2145 187.114,-12.4523 196.605,-17.1609 197.47,-10.2145"/>
</g>
<!-- Node5 -->
<g id="node5" class="node"><title>Node5</title>
<g id="a_node5"><a xlink:href="frame__detection__data_8h.html" target="_top" xlink:title="../ObjectDetection\l/frame_detection_data.h">
<polygon fill="none" stroke="black" points="150,-113 150,-143 272,-143 272,-113 150,-113"/>
<text text-anchor="start" x="158" y="-131" font-family="Helvetica,sans-Serif" font-size="10.00">../ObjectDetection</text>
<text text-anchor="middle" x="211" y="-120" font-family="Helvetica,sans-Serif" font-size="10.00">/frame_detection_data.h</text>
</a>
</g>
</g>
<!-- Node3&#45;&gt;Node5 -->
<g id="edge4" class="edge"><title>Node3&#45;&gt;Node5</title>
<path fill="none" stroke="midnightblue" d="M217.984,-304.398C231.886,-296.954 249.714,-284.741 258,-268 277.457,-228.688 249.478,-179.376 229.071,-151.3"/>
<polygon fill="midnightblue" stroke="midnightblue" points="231.857,-149.181 223.042,-143.303 226.268,-153.395 231.857,-149.181"/>
</g>
<!-- Node10 -->
<g id="node10" class="node"><title>Node10</title>
<g id="a_node10"><a xlink:href="scenario_8h.html" target="_top" xlink:title="scenario.h">
<polygon fill="none" stroke="black" points="139,-180.5 139,-199.5 201,-199.5 201,-180.5 139,-180.5"/>
<text text-anchor="middle" x="170" y="-187.5" font-family="Helvetica,sans-Serif" font-size="10.00">scenario.h</text>
</a>
</g>
</g>
<!-- Node3&#45;&gt;Node10 -->
<g id="edge11" class="edge"><title>Node3&#45;&gt;Node10</title>
<path fill="none" stroke="midnightblue" d="M179.704,-304.48C165.571,-297.081 147.443,-284.887 139,-268 128.886,-247.772 142.823,-223.407 155.123,-207.58"/>
<polygon fill="midnightblue" stroke="midnightblue" points="157.932,-209.676 161.625,-199.745 152.546,-205.205 157.932,-209.676"/>
</g>
<!-- Node11 -->
<g id="node11" class="node"><title>Node11</title>
<g id="a_node11"><a xlink:href="humans__in__front__of__bus__scenario_8h.html" target="_top" xlink:title="humans_in_front_of\l_bus_scenario.h">
<polygon fill="none" stroke="black" points="148,-237 148,-267 250,-267 250,-237 148,-237"/>
<text text-anchor="start" x="156" y="-255" font-family="Helvetica,sans-Serif" font-size="10.00">humans_in_front_of</text>
<text text-anchor="middle" x="199" y="-244" font-family="Helvetica,sans-Serif" font-size="10.00">_bus_scenario.h</text>
</a>
</g>
</g>
<!-- Node3&#45;&gt;Node11 -->
<g id="edge14" class="edge"><title>Node3&#45;&gt;Node11</title>
<path fill="none" stroke="midnightblue" d="M199,-304.403C199,-297.341 199,-286.975 199,-277.399"/>
<polygon fill="midnightblue" stroke="midnightblue" points="202.5,-277.141 199,-267.141 195.5,-277.141 202.5,-277.141"/>
</g>
<!-- Node5&#45;&gt;Node4 -->
<g id="edge6" class="edge"><title>Node5&#45;&gt;Node4</title>
<path fill="none" stroke="midnightblue" d="M202.394,-112.647C196.64,-102.629 189.2,-88.8101 184,-76 177.781,-60.681 172.661,-42.5783 169.309,-29.3727"/>
<polygon fill="midnightblue" stroke="midnightblue" points="172.696,-28.4854 166.925,-19.6003 165.895,-30.145 172.696,-28.4854"/>
</g>
<!-- Node5&#45;&gt;Node6 -->
<g id="edge5" class="edge"><title>Node5&#45;&gt;Node6</title>
<path fill="none" stroke="midnightblue" d="M245.699,-112.933C273.061,-101.84 310.521,-86.6536 334.742,-76.8344"/>
<polygon fill="midnightblue" stroke="midnightblue" points="336.291,-79.983 344.244,-72.9823 333.661,-73.4958 336.291,-79.983"/>
</g>
<!-- Node7 -->
<g id="node7" class="node"><title>Node7</title>
<polygon fill="none" stroke="#bfbfbf" points="193.5,-56.5 193.5,-75.5 228.5,-75.5 228.5,-56.5 193.5,-56.5"/>
<text text-anchor="middle" x="211" y="-63.5" font-family="Helvetica,sans-Serif" font-size="10.00">map</text>
</g>
<!-- Node5&#45;&gt;Node7 -->
<g id="edge7" class="edge"><title>Node5&#45;&gt;Node7</title>
<path fill="none" stroke="midnightblue" d="M211,-112.781C211,-104.781 211,-94.6887 211,-86.0168"/>
<polygon fill="midnightblue" stroke="midnightblue" points="214.5,-85.7305 211,-75.7305 207.5,-85.7306 214.5,-85.7305"/>
</g>
<!-- Node8 -->
<g id="node8" class="node"><title>Node8</title>
<polygon fill="none" stroke="#bfbfbf" points="246.5,-56.5 246.5,-75.5 287.5,-75.5 287.5,-56.5 246.5,-56.5"/>
<text text-anchor="middle" x="267" y="-63.5" font-family="Helvetica,sans-Serif" font-size="10.00">string</text>
</g>
<!-- Node5&#45;&gt;Node8 -->
<g id="edge8" class="edge"><title>Node5&#45;&gt;Node8</title>
<path fill="none" stroke="midnightblue" d="M224.271,-112.781C232.576,-103.882 243.299,-92.3943 251.924,-83.1524"/>
<polygon fill="midnightblue" stroke="midnightblue" points="254.587,-85.4292 258.852,-75.7305 249.47,-80.653 254.587,-85.4292"/>
</g>
<!-- Node5&#45;&gt;Node9 -->
<g id="edge9" class="edge"><title>Node5&#45;&gt;Node9</title>
<path fill="none" stroke="midnightblue" d="M186.617,-112.933C169.854,-103.262 147.697,-90.4793 131.015,-80.8546"/>
<polygon fill="midnightblue" stroke="midnightblue" points="132.318,-77.5656 121.907,-75.6 128.82,-83.629 132.318,-77.5656"/>
</g>
<!-- Node9&#45;&gt;Node4 -->
<g id="edge10" class="edge"><title>Node9&#45;&gt;Node4</title>
<path fill="none" stroke="midnightblue" d="M116.319,-56.324C124.893,-48.3414 137.812,-36.3128 148.188,-26.6529"/>
<polygon fill="midnightblue" stroke="midnightblue" points="150.578,-29.2098 155.512,-19.8339 145.808,-24.0865 150.578,-29.2098"/>
</g>
<!-- Node10&#45;&gt;Node5 -->
<g id="edge12" class="edge"><title>Node10&#45;&gt;Node5</title>
<path fill="none" stroke="midnightblue" d="M175.874,-180.403C181.012,-172.885 188.707,-161.624 195.586,-151.556"/>
<polygon fill="midnightblue" stroke="midnightblue" points="198.585,-153.372 201.337,-143.141 192.805,-149.423 198.585,-153.372"/>
</g>
<!-- Node10&#45;&gt;Node9 -->
<g id="edge13" class="edge"><title>Node10&#45;&gt;Node9</title>
<path fill="none" stroke="midnightblue" d="M163.8,-180.285C157.618,-171.397 148.053,-157.092 141,-144 130.526,-124.557 120.57,-101.236 114.17,-85.3912"/>
<polygon fill="midnightblue" stroke="midnightblue" points="117.287,-83.7586 110.345,-75.7555 110.781,-86.3414 117.287,-83.7586"/>
</g>
<!-- Node11&#45;&gt;Node10 -->
<g id="edge15" class="edge"><title>Node11&#45;&gt;Node10</title>
<path fill="none" stroke="midnightblue" d="M192.127,-236.781C188.087,-228.422 182.942,-217.777 178.631,-208.856"/>
<polygon fill="midnightblue" stroke="midnightblue" points="181.723,-207.211 174.22,-199.731 175.42,-210.257 181.723,-207.211"/>
</g>
</g>
</svg>
