<?xml version="1.0" encoding="UTF-8" standalone="no"?>
<!DOCTYPE svg PUBLIC "-//W3C//DTD SVG 1.1//EN"
 "http://www.w3.org/Graphics/SVG/1.1/DTD/svg11.dtd">
<!-- Generated by graphviz version 2.36.0 (20140111.2315)
 -->
<!-- Title: src/ScenarioAnalysation/analyser.h Pages: 1 -->
<svg width="270pt" height="108pt"
 viewBox="0.00 0.00 270.00 108.00" xmlns="http://www.w3.org/2000/svg" xmlns:xlink="http://www.w3.org/1999/xlink">
<g id="graph0" class="graph" transform="scale(1 1) rotate(0) translate(4 104)">
<title>src/ScenarioAnalysation/analyser.h</title>
<!-- Node1 -->
<g id="node1" class="node"><title>Node1</title>
<polygon fill="#bfbfbf" stroke="black" points="70,-69 70,-99 192,-99 192,-69 70,-69"/>
<text text-anchor="start" x="78" y="-87" font-family="Helvetica,sans-Serif" font-size="10.00">src/ScenarioAnalysation</text>
<text text-anchor="middle" x="131" y="-76" font-family="Helvetica,sans-Serif" font-size="10.00">/analyser.h</text>
</g>
<!-- Node2 -->
<g id="node2" class="node"><title>Node2</title>
<g id="a_node2"><a xlink:href="analyser_8cpp.html" target="_top" xlink:title="src/ScenarioAnalysation\l/analyser.cpp">
<polygon fill="none" stroke="black" points="0,-1 0,-31 122,-31 122,-1 0,-1"/>
<text text-anchor="start" x="8" y="-19" font-family="Helvetica,sans-Serif" font-size="10.00">src/ScenarioAnalysation</text>
<text text-anchor="middle" x="61" y="-8" font-family="Helvetica,sans-Serif" font-size="10.00">/analyser.cpp</text>
</a>
</g>
</g>
<!-- Node1&#45;&gt;Node2 -->
<g id="edge1" class="edge"><title>Node1&#45;&gt;Node2</title>
<path fill="none" stroke="midnightblue" d="M108.49,-61.7762C97.9202,-51.8105 85.6014,-40.1956 76.1593,-31.2931"/>
<polygon fill="midnightblue" stroke="midnightblue" points="106.134,-64.3654 115.811,-68.679 110.936,-59.2723 106.134,-64.3654"/>
</g>
<!-- Node3 -->
<g id="node3" class="node"><title>Node3</title>
<g id="a_node3"><a xlink:href="ScenarioAnalysation_2main_8cpp.html" target="_top" xlink:title="src/ScenarioAnalysation\l/main.cpp">
<polygon fill="none" stroke="black" points="140,-1 140,-31 262,-31 262,-1 140,-1"/>
<text text-anchor="start" x="148" y="-19" font-family="Helvetica,sans-Serif" font-size="10.00">src/ScenarioAnalysation</text>
<text text-anchor="middle" x="201" y="-8" font-family="Helvetica,sans-Serif" font-size="10.00">/main.cpp</text>
</a>
</g>
</g>
<!-- Node1&#45;&gt;Node3 -->
<g id="edge2" class="edge"><title>Node1&#45;&gt;Node3</title>
<path fill="none" stroke="midnightblue" d="M153.51,-61.7762C164.08,-51.8105 176.399,-40.1956 185.841,-31.2931"/>
<polygon fill="midnightblue" stroke="midnightblue" points="151.064,-59.2723 146.189,-68.679 155.866,-64.3654 151.064,-59.2723"/>
</g>
</g>
</svg>
