<?xml version="1.0" encoding="UTF-8" standalone="no"?>
<!DOCTYPE svg PUBLIC "-//W3C//DTD SVG 1.1//EN"
 "http://www.w3.org/Graphics/SVG/1.1/DTD/svg11.dtd">
<!-- Generated by graphviz version 2.36.0 (20140111.2315)
 -->
<!-- Title: src/StreamDecoder/protofiles/CameraImage.pb.cc Pages: 1 -->
<!--zoomable 232 -->
<svg id="main" version="1.1" xmlns="http://www.w3.org/2000/svg" xmlns:xlink="http://www.w3.org/1999/xlink" xml:space="preserve" onload="init(evt)">
<style type="text/css"><![CDATA[
.edge:hover path { stroke: red; }
.edge:hover polygon { stroke: red; fill: red; }
]]></style>
<script type="text/javascript"><![CDATA[
var edges = document.getElementsByTagName('g');
if (edges && edges.length) {
  for (var i=0;i<edges.length;i++) {
    if (edges[i].id.substr(0,4)=='edge') {
      edges[i].setAttribute('class','edge');
    }
  }
}
]]></script>
        <defs>
                <circle id="rim" cx="0" cy="0" r="7"/>
                <circle id="rim2" cx="0" cy="0" r="3.5"/>
                <g id="zoomPlus">
                        <use xlink:href="#rim" fill="#404040">
                                <set attributeName="fill" to="#808080" begin="zoomplus.mouseover" end="zoomplus.mouseout"/>
                        </use>
                        <path d="M-4,0h8M0,-4v8" fill="none" stroke="white" stroke-width="1.5" pointer-events="none"/>
                </g>
                <g id="zoomMin">
                        <use xlink:href="#rim" fill="#404040">
                                <set attributeName="fill" to="#808080" begin="zoomminus.mouseover" end="zoomminus.mouseout"/>
                        </use>
                        <path d="M-4,0h8" fill="none" stroke="white" stroke-width="1.5" pointer-events="none"/>
                </g>
                <g id="dirArrow">
                        <path fill="none" stroke="white" stroke-width="1.5" d="M0,-3.0v7 M-2.5,-0.5L0,-3.0L2.5,-0.5"/>
                </g>
               <g id="resetDef">
                       <use xlink:href="#rim2" fill="#404040">
                               <set attributeName="fill" to="#808080" begin="reset.mouseover" end="reset.mouseout"/>
                       </use>
               </g>
        </defs>

<script type="text/javascript">
var viewWidth = 1487;
var viewHeight = 232;
var sectionId = 'dynsection-0';
</script>
<script xlink:href="svgpan.js"/>
<svg id="graph" class="graph">
<g id="viewport">
<title>src/StreamDecoder/protofiles/CameraImage.pb.cc</title>
<!-- Node1 -->
<g id="node1" class="node"><title>Node1</title>
<polygon fill="#bfbfbf" stroke="black" points="727,-193 727,-223 871,-223 871,-193 727,-193"/>
<text text-anchor="start" x="735" y="-211" font-family="Helvetica,sans-Serif" font-size="10.00">src/StreamDecoder/protofiles</text>
<text text-anchor="middle" x="799" y="-200" font-family="Helvetica,sans-Serif" font-size="10.00">/CameraImage.pb.cc</text>
</g>
<!-- Node2 -->
<g id="node2" class="node"><title>Node2</title>
<g id="a_node2"><a xlink:href="CameraImage_8pb_8h.html" target="_top" xlink:title="CameraImage.pb.h">
<polygon fill="none" stroke="black" points="374,-130.5 374,-149.5 474,-149.5 474,-130.5 374,-130.5"/>
<text text-anchor="middle" x="424" y="-137.5" font-family="Helvetica,sans-Serif" font-size="10.00">CameraImage.pb.h</text>
</a>
</g>
</g>
<!-- Node1&#45;&gt;Node2 -->
<g id="edge1" class="edge"><title>Node1&#45;&gt;Node2</title>
<path fill="none" stroke="midnightblue" d="M726.816,-197.216C662.549,-188.062 566.116,-173.237 483,-156 477.232,-154.804 471.179,-153.418 465.239,-151.981"/>
<polygon fill="midnightblue" stroke="midnightblue" points="465.967,-148.555 455.418,-149.539 464.278,-155.348 465.967,-148.555"/>
</g>
<!-- Node4 -->
<g id="node4" class="node"><title>Node4</title>
<polygon fill="none" stroke="#bfbfbf" points="0,-1 0,-31 110,-31 110,-1 0,-1"/>
<text text-anchor="start" x="8" y="-19" font-family="Helvetica,sans-Serif" font-size="10.00">google/protobuf/stubs</text>
<text text-anchor="middle" x="55" y="-8" font-family="Helvetica,sans-Serif" font-size="10.00">/common.h</text>
</g>
<!-- Node1&#45;&gt;Node4 -->
<g id="edge18" class="edge"><title>Node1&#45;&gt;Node4</title>
<path fill="none" stroke="midnightblue" d="M726.678,-205.199C639.473,-201.507 489.142,-190.256 365,-156 259.386,-126.856 143.825,-66.823 88.3578,-36.0711"/>
<polygon fill="midnightblue" stroke="midnightblue" points="89.7855,-32.8597 79.3482,-31.0397 86.3725,-38.9713 89.7855,-32.8597"/>
</g>
<!-- Node11 -->
<g id="node11" class="node"><title>Node11</title>
<polygon fill="none" stroke="#bfbfbf" points="492,-130.5 492,-149.5 548,-149.5 548,-130.5 492,-130.5"/>
<text text-anchor="middle" x="520" y="-137.5" font-family="Helvetica,sans-Serif" font-size="10.00">algorithm</text>
</g>
<!-- Node1&#45;&gt;Node11 -->
<g id="edge17" class="edge"><title>Node1&#45;&gt;Node11</title>
<path fill="none" stroke="midnightblue" d="M726.943,-195.276C678.371,-186.532 613.155,-173.151 557,-156 554.357,-155.193 551.639,-154.273 548.935,-153.295"/>
<polygon fill="midnightblue" stroke="midnightblue" points="549.942,-149.933 539.353,-149.599 547.423,-156.464 549.942,-149.933"/>
</g>
<!-- Node12 -->
<g id="node12" class="node"><title>Node12</title>
<polygon fill="none" stroke="#bfbfbf" points="566,-125 566,-155 676,-155 676,-125 566,-125"/>
<text text-anchor="start" x="574" y="-143" font-family="Helvetica,sans-Serif" font-size="10.00">google/protobuf/stubs</text>
<text text-anchor="middle" x="621" y="-132" font-family="Helvetica,sans-Serif" font-size="10.00">/once.h</text>
</g>
<!-- Node1&#45;&gt;Node12 -->
<g id="edge19" class="edge"><title>Node1&#45;&gt;Node12</title>
<path fill="none" stroke="midnightblue" d="M760.815,-192.841C733.74,-182.802 697.23,-169.265 668.309,-158.542"/>
<polygon fill="midnightblue" stroke="midnightblue" points="669.409,-155.217 658.816,-155.022 666.976,-161.78 669.409,-155.217"/>
</g>
<!-- Node13 -->
<g id="node13" class="node"><title>Node13</title>
<polygon fill="none" stroke="#bfbfbf" points="694,-125 694,-155 788,-155 788,-125 694,-125"/>
<text text-anchor="start" x="702" y="-143" font-family="Helvetica,sans-Serif" font-size="10.00">google/protobuf/io</text>
<text text-anchor="middle" x="741" y="-132" font-family="Helvetica,sans-Serif" font-size="10.00">/coded_stream.h</text>
</g>
<!-- Node1&#45;&gt;Node13 -->
<g id="edge20" class="edge"><title>Node1&#45;&gt;Node13</title>
<path fill="none" stroke="midnightblue" d="M786.415,-192.679C778.814,-184.03 768.971,-172.829 760.392,-163.067"/>
<polygon fill="midnightblue" stroke="midnightblue" points="762.791,-160.494 753.561,-155.293 757.533,-165.115 762.791,-160.494"/>
</g>
<!-- Node14 -->
<g id="node14" class="node"><title>Node14</title>
<polygon fill="none" stroke="#bfbfbf" points="806,-125 806,-155 910,-155 910,-125 806,-125"/>
<text text-anchor="start" x="814" y="-143" font-family="Helvetica,sans-Serif" font-size="10.00">google/protobuf/wire</text>
<text text-anchor="middle" x="858" y="-132" font-family="Helvetica,sans-Serif" font-size="10.00">_format_lite_inl.h</text>
</g>
<!-- Node1&#45;&gt;Node14 -->
<g id="edge21" class="edge"><title>Node1&#45;&gt;Node14</title>
<path fill="none" stroke="midnightblue" d="M811.802,-192.679C819.611,-183.944 829.747,-172.605 838.535,-162.775"/>
<polygon fill="midnightblue" stroke="midnightblue" points="841.168,-165.081 845.223,-155.293 835.949,-160.416 841.168,-165.081"/>
</g>
<!-- Node15 -->
<g id="node15" class="node"><title>Node15</title>
<polygon fill="none" stroke="#bfbfbf" points="928.5,-130.5 928.5,-149.5 1065.5,-149.5 1065.5,-130.5 928.5,-130.5"/>
<text text-anchor="middle" x="997" y="-137.5" font-family="Helvetica,sans-Serif" font-size="10.00">google/protobuf/descriptor.h</text>
</g>
<!-- Node1&#45;&gt;Node15 -->
<g id="edge22" class="edge"><title>Node1&#45;&gt;Node15</title>
<path fill="none" stroke="midnightblue" d="M841.476,-192.841C877.209,-180.93 927.718,-164.094 961.371,-152.876"/>
<polygon fill="midnightblue" stroke="midnightblue" points="962.86,-156.07 971.24,-149.587 960.646,-149.429 962.86,-156.07"/>
</g>
<!-- Node16 -->
<g id="node16" class="node"><title>Node16</title>
<polygon fill="none" stroke="#bfbfbf" points="1083.5,-125 1083.5,-155 1212.5,-155 1212.5,-125 1083.5,-125"/>
<text text-anchor="start" x="1091.5" y="-143" font-family="Helvetica,sans-Serif" font-size="10.00">google/protobuf/generated</text>
<text text-anchor="middle" x="1148" y="-132" font-family="Helvetica,sans-Serif" font-size="10.00">_message_reflection.h</text>
</g>
<!-- Node1&#45;&gt;Node16 -->
<g id="edge23" class="edge"><title>Node1&#45;&gt;Node16</title>
<path fill="none" stroke="midnightblue" d="M871.149,-193.958C924.269,-184.277 998.528,-170.582 1073.36,-156.107"/>
<polygon fill="midnightblue" stroke="midnightblue" points="1074.29,-159.492 1083.44,-154.152 1072.96,-152.62 1074.29,-159.492"/>
</g>
<!-- Node17 -->
<g id="node17" class="node"><title>Node17</title>
<polygon fill="none" stroke="#bfbfbf" points="1231,-125 1231,-155 1357,-155 1357,-125 1231,-125"/>
<text text-anchor="start" x="1239" y="-143" font-family="Helvetica,sans-Serif" font-size="10.00">google/protobuf/reflection</text>
<text text-anchor="middle" x="1294" y="-132" font-family="Helvetica,sans-Serif" font-size="10.00">_ops.h</text>
</g>
<!-- Node1&#45;&gt;Node17 -->
<g id="edge24" class="edge"><title>Node1&#45;&gt;Node17</title>
<path fill="none" stroke="midnightblue" d="M871.312,-200.092C953.421,-191.835 1091.58,-176.695 1220.68,-155.96"/>
<polygon fill="midnightblue" stroke="midnightblue" points="1221.44,-159.383 1230.75,-154.329 1220.32,-152.473 1221.44,-159.383"/>
</g>
<!-- Node18 -->
<g id="node18" class="node"><title>Node18</title>
<polygon fill="none" stroke="#bfbfbf" points="1375,-125 1375,-155 1479,-155 1479,-125 1375,-125"/>
<text text-anchor="start" x="1383" y="-143" font-family="Helvetica,sans-Serif" font-size="10.00">google/protobuf/wire</text>
<text text-anchor="middle" x="1427" y="-132" font-family="Helvetica,sans-Serif" font-size="10.00">_format.h</text>
</g>
<!-- Node1&#45;&gt;Node18 -->
<g id="edge25" class="edge"><title>Node1&#45;&gt;Node18</title>
<path fill="none" stroke="midnightblue" d="M871.048,-204.017C977.219,-198.849 1181.98,-185.934 1364.8,-156.038"/>
<polygon fill="midnightblue" stroke="midnightblue" points="1365.57,-159.458 1374.86,-154.371 1364.43,-152.552 1365.57,-159.458"/>
</g>
<!-- Node3 -->
<g id="node3" class="node"><title>Node3</title>
<polygon fill="none" stroke="#bfbfbf" points="711.5,-6.5 711.5,-25.5 752.5,-25.5 752.5,-6.5 711.5,-6.5"/>
<text text-anchor="middle" x="732" y="-13.5" font-family="Helvetica,sans-Serif" font-size="10.00">string</text>
</g>
<!-- Node2&#45;&gt;Node3 -->
<g id="edge2" class="edge"><title>Node2&#45;&gt;Node3</title>
<path fill="none" stroke="midnightblue" d="M448.503,-130.499C497.344,-113.351 610.044,-72.7643 702,-32 703.397,-31.3805 704.824,-30.7304 706.258,-30.0624"/>
<polygon fill="midnightblue" stroke="midnightblue" points="708.148,-33.036 715.626,-25.5303 705.1,-26.7347 708.148,-33.036"/>
</g>
<!-- Node2&#45;&gt;Node4 -->
<g id="edge3" class="edge"><title>Node2&#45;&gt;Node4</title>
<path fill="none" stroke="midnightblue" d="M398.053,-130.421C337.8,-110.5 187.454,-60.7924 107.282,-34.2855"/>
<polygon fill="midnightblue" stroke="midnightblue" points="107.986,-30.832 97.3923,-31.0159 105.788,-37.4781 107.986,-30.832"/>
</g>
<!-- Node5 -->
<g id="node5" class="node"><title>Node5</title>
<polygon fill="none" stroke="#bfbfbf" points="770.5,-1 770.5,-31 899.5,-31 899.5,-1 770.5,-1"/>
<text text-anchor="start" x="778.5" y="-19" font-family="Helvetica,sans-Serif" font-size="10.00">google/protobuf/generated</text>
<text text-anchor="middle" x="835" y="-8" font-family="Helvetica,sans-Serif" font-size="10.00">_message_util.h</text>
</g>
<!-- Node2&#45;&gt;Node5 -->
<g id="edge4" class="edge"><title>Node2&#45;&gt;Node5</title>
<path fill="none" stroke="midnightblue" d="M454.776,-130.427C490.481,-120.436 551.094,-103.336 603,-88 663.907,-70.0054 733.546,-48.5787 780.504,-34.0046"/>
<polygon fill="midnightblue" stroke="midnightblue" points="781.657,-37.3114 790.169,-31.0024 779.58,-30.6265 781.657,-37.3114"/>
</g>
<!-- Node6 -->
<g id="node6" class="node"><title>Node6</title>
<polygon fill="none" stroke="#bfbfbf" points="128,-6.5 128,-25.5 262,-25.5 262,-6.5 128,-6.5"/>
<text text-anchor="middle" x="195" y="-13.5" font-family="Helvetica,sans-Serif" font-size="10.00">google/protobuf/message.h</text>
</g>
<!-- Node2&#45;&gt;Node6 -->
<g id="edge5" class="edge"><title>Node2&#45;&gt;Node6</title>
<path fill="none" stroke="midnightblue" d="M407.897,-130.421C368.561,-109.465 267.351,-55.5449 220.055,-30.3479"/>
<polygon fill="midnightblue" stroke="midnightblue" points="221.556,-27.1823 211.085,-25.5693 218.265,-33.3602 221.556,-27.1823"/>
</g>
<!-- Node7 -->
<g id="node7" class="node"><title>Node7</title>
<polygon fill="none" stroke="#bfbfbf" points="280,-1 280,-31 404,-31 404,-1 280,-1"/>
<text text-anchor="start" x="288" y="-19" font-family="Helvetica,sans-Serif" font-size="10.00">google/protobuf/repeated</text>
<text text-anchor="middle" x="342" y="-8" font-family="Helvetica,sans-Serif" font-size="10.00">_field.h</text>
</g>
<!-- Node2&#45;&gt;Node7 -->
<g id="edge6" class="edge"><title>Node2&#45;&gt;Node7</title>
<path fill="none" stroke="midnightblue" d="M418.103,-130.226C405.5,-111.475 375.598,-66.9867 357.251,-39.6909"/>
<polygon fill="midnightblue" stroke="midnightblue" points="359.997,-37.5023 351.514,-31.1552 354.188,-41.4072 359.997,-37.5023"/>
</g>
<!-- Node8 -->
<g id="node8" class="node"><title>Node8</title>
<polygon fill="none" stroke="#bfbfbf" points="422,-1 422,-31 550,-31 550,-1 422,-1"/>
<text text-anchor="start" x="430" y="-19" font-family="Helvetica,sans-Serif" font-size="10.00">google/protobuf/extension</text>
<text text-anchor="middle" x="486" y="-8" font-family="Helvetica,sans-Serif" font-size="10.00">_set.h</text>
</g>
<!-- Node2&#45;&gt;Node8 -->
<g id="edge7" class="edge"><title>Node2&#45;&gt;Node8</title>
<path fill="none" stroke="midnightblue" d="M425.086,-130.25C427.074,-116.387 432.137,-88.8147 443,-68 448.441,-57.5739 456.331,-47.3946 463.872,-38.9068"/>
<polygon fill="midnightblue" stroke="midnightblue" points="466.663,-41.0442 470.903,-31.3344 461.533,-36.2812 466.663,-41.0442"/>
</g>
<!-- Node9 -->
<g id="node9" class="node"><title>Node9</title>
<polygon fill="none" stroke="#bfbfbf" points="568.5,-1 568.5,-31 693.5,-31 693.5,-1 568.5,-1"/>
<text text-anchor="start" x="576.5" y="-19" font-family="Helvetica,sans-Serif" font-size="10.00">google/protobuf/unknown</text>
<text text-anchor="middle" x="631" y="-8" font-family="Helvetica,sans-Serif" font-size="10.00">_field_set.h</text>
</g>
<!-- Node2&#45;&gt;Node9 -->
<g id="edge8" class="edge"><title>Node2&#45;&gt;Node9</title>
<path fill="none" stroke="midnightblue" d="M443.826,-130.485C465.299,-121.009 500.326,-104.805 529,-88 555.549,-72.4401 584.176,-52.1801 604.324,-37.2867"/>
<polygon fill="midnightblue" stroke="midnightblue" points="606.482,-40.0435 612.41,-31.2618 602.3,-34.4305 606.482,-40.0435"/>
</g>
<!-- Node10 -->
<g id="node10" class="node"><title>Node10</title>
<g id="a_node10"><a xlink:href="header_8pb_8h.html" target="_top" xlink:title="header.pb.h">
<polygon fill="none" stroke="black" points="452,-68.5 452,-87.5 520,-87.5 520,-68.5 452,-68.5"/>
<text text-anchor="middle" x="486" y="-75.5" font-family="Helvetica,sans-Serif" font-size="10.00">header.pb.h</text>
</a>
</g>
</g>
<!-- Node2&#45;&gt;Node10 -->
<g id="edge9" class="edge"><title>Node2&#45;&gt;Node10</title>
<path fill="none" stroke="midnightblue" d="M432.883,-130.403C442.459,-121.136 457.911,-106.183 469.686,-94.7876"/>
<polygon fill="midnightblue" stroke="midnightblue" points="472.381,-97.05 477.133,-87.5806 467.513,-92.0197 472.381,-97.05"/>
</g>
<!-- Node10&#45;&gt;Node3 -->
<g id="edge10" class="edge"><title>Node10&#45;&gt;Node3</title>
<path fill="none" stroke="midnightblue" d="M520.029,-72.6846C563.211,-66.584 639.586,-53.694 702,-32 703.856,-31.3548 705.745,-30.6189 707.624,-29.8276"/>
<polygon fill="midnightblue" stroke="midnightblue" points="709.174,-32.9668 716.761,-25.5713 706.218,-26.6215 709.174,-32.9668"/>
</g>
<!-- Node10&#45;&gt;Node4 -->
<g id="edge11" class="edge"><title>Node10&#45;&gt;Node4</title>
<path fill="none" stroke="midnightblue" d="M451.917,-74.0636C388.52,-68.3342 248.031,-54.3826 120.055,-32.0693"/>
<polygon fill="midnightblue" stroke="midnightblue" points="120.536,-28.6002 110.08,-30.3084 119.319,-35.4936 120.536,-28.6002"/>
</g>
<!-- Node10&#45;&gt;Node5 -->
<g id="edge12" class="edge"><title>Node10&#45;&gt;Node5</title>
<path fill="none" stroke="midnightblue" d="M520.37,-71.803C570.717,-64.0969 667.707,-48.8996 760.608,-32.0301"/>
<polygon fill="midnightblue" stroke="midnightblue" points="761.245,-35.4719 770.454,-30.2331 759.988,-28.5856 761.245,-35.4719"/>
</g>
<!-- Node10&#45;&gt;Node6 -->
<g id="edge13" class="edge"><title>Node10&#45;&gt;Node6</title>
<path fill="none" stroke="midnightblue" d="M451.763,-69.9408C401.06,-59.4866 305.645,-39.8133 246.488,-27.6161"/>
<polygon fill="midnightblue" stroke="midnightblue" points="247.102,-24.169 236.601,-25.5775 245.688,-31.0248 247.102,-24.169"/>
</g>
<!-- Node10&#45;&gt;Node7 -->
<g id="edge14" class="edge"><title>Node10&#45;&gt;Node7</title>
<path fill="none" stroke="midnightblue" d="M465.368,-68.4035C444.52,-59.7168 411.683,-46.0346 385.127,-34.9694"/>
<polygon fill="midnightblue" stroke="midnightblue" points="386.238,-31.6408 375.661,-31.0253 383.545,-38.1023 386.238,-31.6408"/>
</g>
<!-- Node10&#45;&gt;Node8 -->
<g id="edge15" class="edge"><title>Node10&#45;&gt;Node8</title>
<path fill="none" stroke="midnightblue" d="M486,-68.4035C486,-61.3405 486,-50.975 486,-41.399"/>
<polygon fill="midnightblue" stroke="midnightblue" points="489.5,-41.1408 486,-31.1408 482.5,-41.1408 489.5,-41.1408"/>
</g>
<!-- Node10&#45;&gt;Node9 -->
<g id="edge16" class="edge"><title>Node10&#45;&gt;Node9</title>
<path fill="none" stroke="midnightblue" d="M506.775,-68.4035C527.768,-59.7168 560.833,-46.0346 587.574,-34.9694"/>
<polygon fill="midnightblue" stroke="midnightblue" points="589.204,-38.083 597.105,-31.0253 586.527,-31.6148 589.204,-38.083"/>
</g>
</g>
</svg>
        <g id="navigator" transform="translate(0 0)" fill="#404254">
                <rect fill="#f2f5e9" fill-opacity="0.5" stroke="#606060" stroke-width=".5" x="0" y="0" width="60" height="60"/>
                <use id="zoomplus" xlink:href="#zoomPlus" x="17" y="9" onmousedown="handleZoom(evt,'in')"/>
                <use id="zoomminus" xlink:href="#zoomMin" x="42" y="9" onmousedown="handleZoom(evt,'out')"/>
                <use id="reset" xlink:href="#resetDef" x="30" y="36" onmousedown="handleReset()"/>
                <g id="arrowUp" xlink:href="#dirArrow" transform="translate(30 24)" onmousedown="handlePan(0,-1)">
                  <use xlink:href="#rim" fill="#404040">
                        <set attributeName="fill" to="#808080" begin="arrowUp.mouseover" end="arrowUp.mouseout"/>
                  </use>
                  <path fill="none" stroke="white" stroke-width="1.5" d="M0,-3.0v7 M-2.5,-0.5L0,-3.0L2.5,-0.5"/>
                </g>
                <g id="arrowRight" xlink:href="#dirArrow" transform="rotate(90) translate(36 -43)" onmousedown="handlePan(1,0)">
                  <use xlink:href="#rim" fill="#404040">
                        <set attributeName="fill" to="#808080" begin="arrowRight.mouseover" end="arrowRight.mouseout"/>
                  </use>
                  <path fill="none" stroke="white" stroke-width="1.5" d="M0,-3.0v7 M-2.5,-0.5L0,-3.0L2.5,-0.5"/>
                </g>
                <g id="arrowDown" xlink:href="#dirArrow" transform="rotate(180) translate(-30 -48)" onmousedown="handlePan(0,1)">
                  <use xlink:href="#rim" fill="#404040">
                        <set attributeName="fill" to="#808080" begin="arrowDown.mouseover" end="arrowDown.mouseout"/>
                  </use>
                  <path fill="none" stroke="white" stroke-width="1.5" d="M0,-3.0v7 M-2.5,-0.5L0,-3.0L2.5,-0.5"/>
                </g>
                <g id="arrowLeft" xlink:href="#dirArrow" transform="rotate(270) translate(-36 17)" onmousedown="handlePan(-1,0)">
                  <use xlink:href="#rim" fill="#404040">
                        <set attributeName="fill" to="#808080" begin="arrowLeft.mouseover" end="arrowLeft.mouseout"/>
                  </use>
                  <path fill="none" stroke="white" stroke-width="1.5" d="M0,-3.0v7 M-2.5,-0.5L0,-3.0L2.5,-0.5"/>
                </g>
        </g>
        <svg viewBox="0 0 15 15" width="100%" height="30px" preserveAspectRatio="xMaxYMin meet">
         <g id="arrow_out" transform="scale(0.3 0.3)">
          <a xlink:href="CameraImage_8pb_8cc__incl_org.svg" target="_base">
           <rect id="button" ry="5" rx="5" y="6" x="6" height="38" width="38"
                fill="#f2f5e9" fill-opacity="0.5" stroke="#606060" stroke-width="1.0"/>
           <path id="arrow"
             d="M 11.500037,31.436501 C 11.940474,20.09759 22.043105,11.32322 32.158766,21.979434 L 37.068811,17.246167 C 37.068811,17.246167 37.088388,32 37.088388,32 L 22.160133,31.978069 C 22.160133,31.978069 26.997745,27.140456 26.997745,27.140456 C 18.528582,18.264221 13.291696,25.230495 11.500037,31.436501 z"
             style="fill:#404040;"/>
          </a>
         </g>
        </svg>
</svg>
