<?xml version="1.0" encoding="UTF-8" standalone="no"?>
<!DOCTYPE svg PUBLIC "-//W3C//DTD SVG 1.1//EN"
 "http://www.w3.org/Graphics/SVG/1.1/DTD/svg11.dtd">
<!-- Generated by graphviz version 2.36.0 (20140111.2315)
 -->
<!-- Title: src/StreamDecoder/protofiles/CameraImage.pb.h Pages: 1 -->
<svg width="908pt" height="164pt"
 viewBox="0.00 0.00 908.00 164.00" xmlns="http://www.w3.org/2000/svg" xmlns:xlink="http://www.w3.org/1999/xlink">
<g id="graph0" class="graph" transform="scale(1 1) rotate(0) translate(4 160)">
<title>src/StreamDecoder/protofiles/CameraImage.pb.h</title>
<!-- Node1 -->
<g id="node1" class="node"><title>Node1</title>
<polygon fill="#bfbfbf" stroke="black" points="319,-125 319,-155 463,-155 463,-125 319,-125"/>
<text text-anchor="start" x="327" y="-143" font-family="Helvetica,sans-Serif" font-size="10.00">src/StreamDecoder/protofiles</text>
<text text-anchor="middle" x="391" y="-132" font-family="Helvetica,sans-Serif" font-size="10.00">/CameraImage.pb.h</text>
</g>
<!-- Node2 -->
<g id="node2" class="node"><title>Node2</title>
<polygon fill="none" stroke="#bfbfbf" points="-0.5,-6.5 -0.5,-25.5 40.5,-25.5 40.5,-6.5 -0.5,-6.5"/>
<text text-anchor="middle" x="20" y="-13.5" font-family="Helvetica,sans-Serif" font-size="10.00">string</text>
</g>
<!-- Node1&#45;&gt;Node2 -->
<g id="edge1" class="edge"><title>Node1&#45;&gt;Node2</title>
<path fill="none" stroke="midnightblue" d="M337.21,-124.989C269.221,-106.63 149.099,-72.0246 50,-32 48.4038,-31.3553 46.7762,-30.6595 45.1458,-29.933"/>
<polygon fill="midnightblue" stroke="midnightblue" points="46.5095,-26.706 35.9749,-25.5779 43.5067,-33.0293 46.5095,-26.706"/>
</g>
<!-- Node3 -->
<g id="node3" class="node"><title>Node3</title>
<polygon fill="none" stroke="#bfbfbf" points="59,-1 59,-31 169,-31 169,-1 59,-1"/>
<text text-anchor="start" x="67" y="-19" font-family="Helvetica,sans-Serif" font-size="10.00">google/protobuf/stubs</text>
<text text-anchor="middle" x="114" y="-8" font-family="Helvetica,sans-Serif" font-size="10.00">/common.h</text>
</g>
<!-- Node1&#45;&gt;Node3 -->
<g id="edge2" class="edge"><title>Node1&#45;&gt;Node3</title>
<path fill="none" stroke="midnightblue" d="M358.954,-124.886C308.605,-102.71 210.991,-59.7181 155.395,-35.2316"/>
<polygon fill="midnightblue" stroke="midnightblue" points="156.747,-32.0029 146.185,-31.1753 153.926,-38.4091 156.747,-32.0029"/>
</g>
<!-- Node4 -->
<g id="node4" class="node"><title>Node4</title>
<polygon fill="none" stroke="#bfbfbf" points="187.5,-1 187.5,-31 316.5,-31 316.5,-1 187.5,-1"/>
<text text-anchor="start" x="195.5" y="-19" font-family="Helvetica,sans-Serif" font-size="10.00">google/protobuf/generated</text>
<text text-anchor="middle" x="252" y="-8" font-family="Helvetica,sans-Serif" font-size="10.00">_message_util.h</text>
</g>
<!-- Node1&#45;&gt;Node4 -->
<g id="edge3" class="edge"><title>Node1&#45;&gt;Node4</title>
<path fill="none" stroke="midnightblue" d="M367.678,-124.861C352.595,-115.259 332.885,-101.833 317,-88 299.827,-73.0457 282.521,-53.8964 270.088,-39.2542"/>
<polygon fill="midnightblue" stroke="midnightblue" points="272.469,-36.6453 263.369,-31.2196 267.099,-41.136 272.469,-36.6453"/>
</g>
<!-- Node5 -->
<g id="node5" class="node"><title>Node5</title>
<polygon fill="none" stroke="#bfbfbf" points="335,-6.5 335,-25.5 469,-25.5 469,-6.5 335,-6.5"/>
<text text-anchor="middle" x="402" y="-13.5" font-family="Helvetica,sans-Serif" font-size="10.00">google/protobuf/message.h</text>
</g>
<!-- Node1&#45;&gt;Node5 -->
<g id="edge4" class="edge"><title>Node1&#45;&gt;Node5</title>
<path fill="none" stroke="midnightblue" d="M395.254,-124.867C398.081,-114.716 401.532,-100.649 403,-88 405.041,-70.4144 404.477,-50.2158 403.589,-35.8699"/>
<polygon fill="midnightblue" stroke="midnightblue" points="407.071,-35.4991 402.851,-25.7813 400.09,-36.0101 407.071,-35.4991"/>
</g>
<!-- Node6 -->
<g id="node6" class="node"><title>Node6</title>
<polygon fill="none" stroke="#bfbfbf" points="487,-1 487,-31 611,-31 611,-1 487,-1"/>
<text text-anchor="start" x="495" y="-19" font-family="Helvetica,sans-Serif" font-size="10.00">google/protobuf/repeated</text>
<text text-anchor="middle" x="549" y="-8" font-family="Helvetica,sans-Serif" font-size="10.00">_field.h</text>
</g>
<!-- Node1&#45;&gt;Node6 -->
<g id="edge5" class="edge"><title>Node1&#45;&gt;Node6</title>
<path fill="none" stroke="midnightblue" d="M409.434,-124.766C437.381,-103.187 490.602,-62.0919 522.636,-37.3567"/>
<polygon fill="midnightblue" stroke="midnightblue" points="524.908,-40.025 530.684,-31.1431 520.629,-34.4844 524.908,-40.025"/>
</g>
<!-- Node7 -->
<g id="node7" class="node"><title>Node7</title>
<polygon fill="none" stroke="#bfbfbf" points="629,-1 629,-31 757,-31 757,-1 629,-1"/>
<text text-anchor="start" x="637" y="-19" font-family="Helvetica,sans-Serif" font-size="10.00">google/protobuf/extension</text>
<text text-anchor="middle" x="693" y="-8" font-family="Helvetica,sans-Serif" font-size="10.00">_set.h</text>
</g>
<!-- Node1&#45;&gt;Node7 -->
<g id="edge6" class="edge"><title>Node1&#45;&gt;Node7</title>
<path fill="none" stroke="midnightblue" d="M425.938,-124.886C481.059,-102.619 588.136,-59.3624 648.618,-34.929"/>
<polygon fill="midnightblue" stroke="midnightblue" points="649.949,-38.1662 657.91,-31.1753 647.327,-31.6758 649.949,-38.1662"/>
</g>
<!-- Node8 -->
<g id="node8" class="node"><title>Node8</title>
<polygon fill="none" stroke="#bfbfbf" points="775.5,-1 775.5,-31 900.5,-31 900.5,-1 775.5,-1"/>
<text text-anchor="start" x="783.5" y="-19" font-family="Helvetica,sans-Serif" font-size="10.00">google/protobuf/unknown</text>
<text text-anchor="middle" x="838" y="-8" font-family="Helvetica,sans-Serif" font-size="10.00">_field_set.h</text>
</g>
<!-- Node1&#45;&gt;Node8 -->
<g id="edge7" class="edge"><title>Node1&#45;&gt;Node8</title>
<path fill="none" stroke="midnightblue" d="M442.713,-124.886C525.668,-102.245 688.131,-57.904 776.76,-33.7144"/>
<polygon fill="midnightblue" stroke="midnightblue" points="777.682,-37.0907 786.408,-31.0812 775.839,-30.3377 777.682,-37.0907"/>
</g>
<!-- Node9 -->
<g id="node9" class="node"><title>Node9</title>
<g id="a_node9"><a xlink:href="header_8pb_8h.html" target="_top" xlink:title="header.pb.h">
<polygon fill="none" stroke="black" points="326,-68.5 326,-87.5 394,-87.5 394,-68.5 326,-68.5"/>
<text text-anchor="middle" x="360" y="-75.5" font-family="Helvetica,sans-Serif" font-size="10.00">header.pb.h</text>
</a>
</g>
</g>
<!-- Node1&#45;&gt;Node9 -->
<g id="edge8" class="edge"><title>Node1&#45;&gt;Node9</title>
<path fill="none" stroke="midnightblue" d="M383.653,-124.781C379.335,-116.422 373.835,-105.777 369.226,-96.8565"/>
<polygon fill="midnightblue" stroke="midnightblue" points="372.211,-95.0082 364.511,-87.7305 365.992,-98.2214 372.211,-95.0082"/>
</g>
<!-- Node9&#45;&gt;Node2 -->
<g id="edge9" class="edge"><title>Node9&#45;&gt;Node2</title>
<path fill="none" stroke="midnightblue" d="M325.727,-75.5874C267.72,-72.4162 147.037,-62.4323 50,-32 48.0831,-31.3988 46.138,-30.6873 44.2071,-29.906"/>
<polygon fill="midnightblue" stroke="midnightblue" points="45.415,-26.609 34.8677,-25.6069 42.488,-32.9677 45.415,-26.609"/>
</g>
<!-- Node9&#45;&gt;Node3 -->
<g id="edge10" class="edge"><title>Node9&#45;&gt;Node3</title>
<path fill="none" stroke="midnightblue" d="M325.795,-68.6573C287.956,-59.4283 226.112,-44.3443 178.995,-32.8525"/>
<polygon fill="midnightblue" stroke="midnightblue" points="179.723,-29.4275 169.178,-30.4582 178.064,-36.2281 179.723,-29.4275"/>
</g>
<!-- Node9&#45;&gt;Node4 -->
<g id="edge11" class="edge"><title>Node9&#45;&gt;Node4</title>
<path fill="none" stroke="midnightblue" d="M344.526,-68.4035C329.421,-60.0115 305.923,-46.9571 286.388,-36.1042"/>
<polygon fill="midnightblue" stroke="midnightblue" points="287.895,-32.9377 277.453,-31.1408 284.495,-39.0568 287.895,-32.9377"/>
</g>
<!-- Node9&#45;&gt;Node5 -->
<g id="edge12" class="edge"><title>Node9&#45;&gt;Node5</title>
<path fill="none" stroke="midnightblue" d="M366.018,-68.4035C372.318,-59.4034 382.371,-45.0408 390.252,-33.7824"/>
<polygon fill="midnightblue" stroke="midnightblue" points="393.126,-35.7801 395.994,-25.5806 387.392,-31.7658 393.126,-35.7801"/>
</g>
<!-- Node9&#45;&gt;Node6 -->
<g id="edge13" class="edge"><title>Node9&#45;&gt;Node6</title>
<path fill="none" stroke="midnightblue" d="M387.079,-68.4035C415.162,-59.4882 459.82,-45.311 495.13,-34.1014"/>
<polygon fill="midnightblue" stroke="midnightblue" points="496.348,-37.3871 504.82,-31.0253 494.23,-30.7152 496.348,-37.3871"/>
</g>
<!-- Node9&#45;&gt;Node7 -->
<g id="edge14" class="edge"><title>Node9&#45;&gt;Node7</title>
<path fill="none" stroke="midnightblue" d="M394.409,-71.3362C444.077,-63.0895 538.716,-47.1084 619,-32 619.101,-31.9811 619.201,-31.9621 619.302,-31.9431"/>
<polygon fill="midnightblue" stroke="midnightblue" points="619.681,-35.4341 628.846,-30.1184 618.367,-28.5586 619.681,-35.4341"/>
</g>
<!-- Node9&#45;&gt;Node8 -->
<g id="edge15" class="edge"><title>Node9&#45;&gt;Node8</title>
<path fill="none" stroke="midnightblue" d="M394.099,-74.3227C462.514,-68.7142 621.549,-54.4861 765.349,-32.0048"/>
<polygon fill="midnightblue" stroke="midnightblue" points="765.905,-35.4604 775.236,-30.442 764.812,-28.5463 765.905,-35.4604"/>
</g>
</g>
</svg>
