<?xml version="1.0" encoding="UTF-8" standalone="no"?>
<!DOCTYPE svg PUBLIC "-//W3C//DTD SVG 1.1//EN"
 "http://www.w3.org/Graphics/SVG/1.1/DTD/svg11.dtd">
<!-- Generated by graphviz version 2.36.0 (20140111.2315)
 -->
<!-- Title: src/StreamDecoder/protofiles/CameraImage.pb.h Pages: 1 -->
<!--zoomable 312 -->
<svg id="main" version="1.1" xmlns="http://www.w3.org/2000/svg" xmlns:xlink="http://www.w3.org/1999/xlink" xml:space="preserve" onload="init(evt)">
<style type="text/css"><![CDATA[
.edge:hover path { stroke: red; }
.edge:hover polygon { stroke: red; fill: red; }
]]></style>
<script type="text/javascript"><![CDATA[
var edges = document.getElementsByTagName('g');
if (edges && edges.length) {
  for (var i=0;i<edges.length;i++) {
    if (edges[i].id.substr(0,4)=='edge') {
      edges[i].setAttribute('class','edge');
    }
  }
}
]]></script>
        <defs>
                <circle id="rim" cx="0" cy="0" r="7"/>
                <circle id="rim2" cx="0" cy="0" r="3.5"/>
                <g id="zoomPlus">
                        <use xlink:href="#rim" fill="#404040">
                                <set attributeName="fill" to="#808080" begin="zoomplus.mouseover" end="zoomplus.mouseout"/>
                        </use>
                        <path d="M-4,0h8M0,-4v8" fill="none" stroke="white" stroke-width="1.5" pointer-events="none"/>
                </g>
                <g id="zoomMin">
                        <use xlink:href="#rim" fill="#404040">
                                <set attributeName="fill" to="#808080" begin="zoomminus.mouseover" end="zoomminus.mouseout"/>
                        </use>
                        <path d="M-4,0h8" fill="none" stroke="white" stroke-width="1.5" pointer-events="none"/>
                </g>
                <g id="dirArrow">
                        <path fill="none" stroke="white" stroke-width="1.5" d="M0,-3.0v7 M-2.5,-0.5L0,-3.0L2.5,-0.5"/>
                </g>
               <g id="resetDef">
                       <use xlink:href="#rim2" fill="#404040">
                               <set attributeName="fill" to="#808080" begin="reset.mouseover" end="reset.mouseout"/>
                       </use>
               </g>
        </defs>

<script type="text/javascript">
var viewWidth = 507;
var viewHeight = 312;
var sectionId = 'dynsection-1';
</script>
<script xlink:href="svgpan.js"/>
<svg id="graph" class="graph">
<g id="viewport">
<title>src/StreamDecoder/protofiles/CameraImage.pb.h</title>
<!-- Node1 -->
<g id="node1" class="node"><title>Node1</title>
<polygon fill="#bfbfbf" stroke="black" points="275,-273 275,-303 419,-303 419,-273 275,-273"/>
<text text-anchor="start" x="283" y="-291" font-family="Helvetica,sans-Serif" font-size="10.00">src/StreamDecoder/protofiles</text>
<text text-anchor="middle" x="347" y="-280" font-family="Helvetica,sans-Serif" font-size="10.00">/CameraImage.pb.h</text>
</g>
<!-- Node2 -->
<g id="node2" class="node"><title>Node2</title>
<g id="a_node2"><a xlink:href="protobuf__image__wrapper_8h.html" target="_top" xlink:title="src/StreamDecoder/protobuf\l_image_wrapper.h">
<polygon fill="none" stroke="black" points="197,-205 197,-235 337,-235 337,-205 197,-205"/>
<text text-anchor="start" x="205" y="-223" font-family="Helvetica,sans-Serif" font-size="10.00">src/StreamDecoder/protobuf</text>
<text text-anchor="middle" x="267" y="-212" font-family="Helvetica,sans-Serif" font-size="10.00">_image_wrapper.h</text>
</a>
</g>
</g>
<!-- Node1&#45;&gt;Node2 -->
<g id="edge1" class="edge"><title>Node1&#45;&gt;Node2</title>
<path fill="none" stroke="midnightblue" d="M321.92,-266.309C309.597,-256.143 295.068,-244.156 284.05,-235.066"/>
<polygon fill="midnightblue" stroke="midnightblue" points="319.7,-269.015 329.641,-272.679 324.155,-263.615 319.7,-269.015"/>
</g>
<!-- Node9 -->
<g id="node9" class="node"><title>Node9</title>
<g id="a_node9"><a xlink:href="CameraImage_8pb_8cc.html" target="_top" xlink:title="src/StreamDecoder/protofiles\l/CameraImage.pb.cc">
<polygon fill="none" stroke="black" points="355,-205 355,-235 499,-235 499,-205 355,-205"/>
<text text-anchor="start" x="363" y="-223" font-family="Helvetica,sans-Serif" font-size="10.00">src/StreamDecoder/protofiles</text>
<text text-anchor="middle" x="427" y="-212" font-family="Helvetica,sans-Serif" font-size="10.00">/CameraImage.pb.cc</text>
</a>
</g>
</g>
<!-- Node1&#45;&gt;Node9 -->
<g id="edge9" class="edge"><title>Node1&#45;&gt;Node9</title>
<path fill="none" stroke="midnightblue" d="M372.08,-266.309C384.403,-256.143 398.932,-244.156 409.95,-235.066"/>
<polygon fill="midnightblue" stroke="midnightblue" points="369.845,-263.615 364.359,-272.679 374.3,-269.015 369.845,-263.615"/>
</g>
<!-- Node3 -->
<g id="node3" class="node"><title>Node3</title>
<g id="a_node3"><a xlink:href="frame__selector_8h.html" target="_top" xlink:title="src/StreamDecoder/frame\l_selector.h">
<polygon fill="none" stroke="black" points="126.5,-137 126.5,-167 255.5,-167 255.5,-137 126.5,-137"/>
<text text-anchor="start" x="134.5" y="-155" font-family="Helvetica,sans-Serif" font-size="10.00">src/StreamDecoder/frame</text>
<text text-anchor="middle" x="191" y="-144" font-family="Helvetica,sans-Serif" font-size="10.00">_selector.h</text>
</a>
</g>
</g>
<!-- Node2&#45;&gt;Node3 -->
<g id="edge2" class="edge"><title>Node2&#45;&gt;Node3</title>
<path fill="none" stroke="midnightblue" d="M242.839,-198.018C231.205,-187.915 217.565,-176.07 207.198,-167.066"/>
<polygon fill="midnightblue" stroke="midnightblue" points="240.664,-200.765 250.509,-204.679 245.254,-195.479 240.664,-200.765"/>
</g>
<!-- Node8 -->
<g id="node8" class="node"><title>Node8</title>
<g id="a_node8"><a xlink:href="protobuf__image__wrapper_8cpp.html" target="_top" xlink:title="src/StreamDecoder/protobuf\l_image_wrapper.cpp">
<polygon fill="none" stroke="black" points="274,-137 274,-167 414,-167 414,-137 274,-137"/>
<text text-anchor="start" x="282" y="-155" font-family="Helvetica,sans-Serif" font-size="10.00">src/StreamDecoder/protobuf</text>
<text text-anchor="middle" x="344" y="-144" font-family="Helvetica,sans-Serif" font-size="10.00">_image_wrapper.cpp</text>
</a>
</g>
</g>
<!-- Node2&#45;&gt;Node8 -->
<g id="edge8" class="edge"><title>Node2&#45;&gt;Node8</title>
<path fill="none" stroke="midnightblue" d="M291.478,-198.018C303.266,-187.915 317.085,-176.07 327.589,-167.066"/>
<polygon fill="midnightblue" stroke="midnightblue" points="289.023,-195.514 283.708,-204.679 293.578,-200.828 289.023,-195.514"/>
</g>
<!-- Node4 -->
<g id="node4" class="node"><title>Node4</title>
<g id="a_node4"><a xlink:href="controller_8h.html" target="_top" xlink:title="src/ProcessControl\l/controller.h">
<polygon fill="none" stroke="black" points="61.5,-69 61.5,-99 162.5,-99 162.5,-69 61.5,-69"/>
<text text-anchor="start" x="69.5" y="-87" font-family="Helvetica,sans-Serif" font-size="10.00">src/ProcessControl</text>
<text text-anchor="middle" x="112" y="-76" font-family="Helvetica,sans-Serif" font-size="10.00">/controller.h</text>
</a>
</g>
</g>
<!-- Node3&#45;&gt;Node4 -->
<g id="edge3" class="edge"><title>Node3&#45;&gt;Node4</title>
<path fill="none" stroke="midnightblue" d="M165.886,-130.018C153.792,-119.915 139.614,-108.07 128.837,-99.0663"/>
<polygon fill="midnightblue" stroke="midnightblue" points="163.94,-132.954 173.858,-136.679 168.428,-127.582 163.94,-132.954"/>
</g>
<!-- Node6 -->
<g id="node6" class="node"><title>Node6</title>
<g id="a_node6"><a xlink:href="StreamDecoder_2main_8cpp.html" target="_top" xlink:title="src/StreamDecoder/main.cpp">
<polygon fill="none" stroke="black" points="119,-6.5 119,-25.5 263,-25.5 263,-6.5 119,-6.5"/>
<text text-anchor="middle" x="191" y="-13.5" font-family="Helvetica,sans-Serif" font-size="10.00">src/StreamDecoder/main.cpp</text>
</a>
</g>
</g>
<!-- Node3&#45;&gt;Node6 -->
<g id="edge7" class="edge"><title>Node3&#45;&gt;Node6</title>
<path fill="none" stroke="midnightblue" d="M191,-126.451C191,-96.0556 191,-45.8414 191,-25.7275"/>
<polygon fill="midnightblue" stroke="midnightblue" points="187.5,-126.66 191,-136.66 194.5,-126.66 187.5,-126.66"/>
</g>
<!-- Node7 -->
<g id="node7" class="node"><title>Node7</title>
<g id="a_node7"><a xlink:href="frame__selector_8cpp.html" target="_top" xlink:title="src/StreamDecoder/frame\l_selector.cpp">
<polygon fill="none" stroke="black" points="219.5,-69 219.5,-99 348.5,-99 348.5,-69 219.5,-69"/>
<text text-anchor="start" x="227.5" y="-87" font-family="Helvetica,sans-Serif" font-size="10.00">src/StreamDecoder/frame</text>
<text text-anchor="middle" x="284" y="-76" font-family="Helvetica,sans-Serif" font-size="10.00">_selector.cpp</text>
</a>
</g>
</g>
<!-- Node3&#45;&gt;Node7 -->
<g id="edge6" class="edge"><title>Node3&#45;&gt;Node7</title>
<path fill="none" stroke="midnightblue" d="M219.339,-130.888C233.836,-120.6 251.127,-108.329 264.179,-99.0663"/>
<polygon fill="midnightblue" stroke="midnightblue" points="217.309,-128.037 211.18,-136.679 221.36,-133.746 217.309,-128.037"/>
</g>
<!-- Node5 -->
<g id="node5" class="node"><title>Node5</title>
<g id="a_node5"><a xlink:href="controller_8cpp.html" target="_top" xlink:title="src/ProcessControl\l/controller.cpp">
<polygon fill="none" stroke="black" points="-0.5,-1 -0.5,-31 100.5,-31 100.5,-1 -0.5,-1"/>
<text text-anchor="start" x="7.5" y="-19" font-family="Helvetica,sans-Serif" font-size="10.00">src/ProcessControl</text>
<text text-anchor="middle" x="50" y="-8" font-family="Helvetica,sans-Serif" font-size="10.00">/controller.cpp</text>
</a>
</g>
</g>
<!-- Node4&#45;&gt;Node5 -->
<g id="edge4" class="edge"><title>Node4&#45;&gt;Node5</title>
<path fill="none" stroke="midnightblue" d="M91.5154,-61.1939C82.278,-51.3605 71.6274,-40.0228 63.4268,-31.2931"/>
<polygon fill="midnightblue" stroke="midnightblue" points="89.1492,-63.7869 98.5469,-68.679 94.2511,-58.9941 89.1492,-63.7869"/>
</g>
<!-- Node4&#45;&gt;Node6 -->
<g id="edge5" class="edge"><title>Node4&#45;&gt;Node6</title>
<path fill="none" stroke="midnightblue" d="M136.906,-62.1927C151.571,-49.9403 169.361,-35.0785 180.433,-25.8283"/>
<polygon fill="midnightblue" stroke="midnightblue" points="134.572,-59.5816 129.142,-68.679 139.06,-64.9535 134.572,-59.5816"/>
</g>
</g>
</svg>
        <g id="navigator" transform="translate(0 0)" fill="#404254">
                <rect fill="#f2f5e9" fill-opacity="0.5" stroke="#606060" stroke-width=".5" x="0" y="0" width="60" height="60"/>
                <use id="zoomplus" xlink:href="#zoomPlus" x="17" y="9" onmousedown="handleZoom(evt,'in')"/>
                <use id="zoomminus" xlink:href="#zoomMin" x="42" y="9" onmousedown="handleZoom(evt,'out')"/>
                <use id="reset" xlink:href="#resetDef" x="30" y="36" onmousedown="handleReset()"/>
                <g id="arrowUp" xlink:href="#dirArrow" transform="translate(30 24)" onmousedown="handlePan(0,-1)">
                  <use xlink:href="#rim" fill="#404040">
                        <set attributeName="fill" to="#808080" begin="arrowUp.mouseover" end="arrowUp.mouseout"/>
                  </use>
                  <path fill="none" stroke="white" stroke-width="1.5" d="M0,-3.0v7 M-2.5,-0.5L0,-3.0L2.5,-0.5"/>
                </g>
                <g id="arrowRight" xlink:href="#dirArrow" transform="rotate(90) translate(36 -43)" onmousedown="handlePan(1,0)">
                  <use xlink:href="#rim" fill="#404040">
                        <set attributeName="fill" to="#808080" begin="arrowRight.mouseover" end="arrowRight.mouseout"/>
                  </use>
                  <path fill="none" stroke="white" stroke-width="1.5" d="M0,-3.0v7 M-2.5,-0.5L0,-3.0L2.5,-0.5"/>
                </g>
                <g id="arrowDown" xlink:href="#dirArrow" transform="rotate(180) translate(-30 -48)" onmousedown="handlePan(0,1)">
                  <use xlink:href="#rim" fill="#404040">
                        <set attributeName="fill" to="#808080" begin="arrowDown.mouseover" end="arrowDown.mouseout"/>
                  </use>
                  <path fill="none" stroke="white" stroke-width="1.5" d="M0,-3.0v7 M-2.5,-0.5L0,-3.0L2.5,-0.5"/>
                </g>
                <g id="arrowLeft" xlink:href="#dirArrow" transform="rotate(270) translate(-36 17)" onmousedown="handlePan(-1,0)">
                  <use xlink:href="#rim" fill="#404040">
                        <set attributeName="fill" to="#808080" begin="arrowLeft.mouseover" end="arrowLeft.mouseout"/>
                  </use>
                  <path fill="none" stroke="white" stroke-width="1.5" d="M0,-3.0v7 M-2.5,-0.5L0,-3.0L2.5,-0.5"/>
                </g>
        </g>
        <svg viewBox="0 0 15 15" width="100%" height="30px" preserveAspectRatio="xMaxYMin meet">
         <g id="arrow_out" transform="scale(0.3 0.3)">
          <a xlink:href="CameraImage_8pb_8h__dep__incl_org.svg" target="_base">
           <rect id="button" ry="5" rx="5" y="6" x="6" height="38" width="38"
                fill="#f2f5e9" fill-opacity="0.5" stroke="#606060" stroke-width="1.0"/>
           <path id="arrow"
             d="M 11.500037,31.436501 C 11.940474,20.09759 22.043105,11.32322 32.158766,21.979434 L 37.068811,17.246167 C 37.068811,17.246167 37.088388,32 37.088388,32 L 22.160133,31.978069 C 22.160133,31.978069 26.997745,27.140456 26.997745,27.140456 C 18.528582,18.264221 13.291696,25.230495 11.500037,31.436501 z"
             style="fill:#404040;"/>
          </a>
         </g>
        </svg>
</svg>
