<?xml version="1.0" encoding="UTF-8" standalone="no"?>
<!DOCTYPE svg PUBLIC "-//W3C//DTD SVG 1.1//EN"
 "http://www.w3.org/Graphics/SVG/1.1/DTD/svg11.dtd">
<!-- Generated by graphviz version 2.36.0 (20140111.2315)
 -->
<!-- Title: org::libcppa::WarnOrAck::New Pages: 1 -->
<svg width="478pt" height="38pt"
 viewBox="0.00 0.00 478.00 38.00" xmlns="http://www.w3.org/2000/svg" xmlns:xlink="http://www.w3.org/1999/xlink">
<g id="graph0" class="graph" transform="scale(1 1) rotate(0) translate(4 34)">
<title>org::libcppa::WarnOrAck::New</title>
<!-- Node1 -->
<g id="node1" class="node"><title>Node1</title>
<polygon fill="#bfbfbf" stroke="black" points="0,-5.5 0,-24.5 150,-24.5 150,-5.5 0,-5.5"/>
<text text-anchor="middle" x="75" y="-12.5" font-family="Helvetica,sans-Serif" font-size="10.00">org::libcppa::WarnOrAck::New</text>
</g>
<!-- Node2 -->
<g id="node2" class="node"><title>Node2</title>
<g id="a_node2"><a xlink:href="classorg_1_1libcppa_1_1WarnOrAck.html#a70ab0a117d89b0ab1a131e2ffa617b34" target="_top" xlink:title="org::libcppa::WarnOrAck\l::WarnOrAck">
<polygon fill="none" stroke="black" points="186,-0 186,-30 310,-30 310,-0 186,-0"/>
<text text-anchor="start" x="194" y="-18" font-family="Helvetica,sans-Serif" font-size="10.00">org::libcppa::WarnOrAck</text>
<text text-anchor="middle" x="248" y="-7" font-family="Helvetica,sans-Serif" font-size="10.00">::WarnOrAck</text>
</a>
</g>
</g>
<!-- Node1&#45;&gt;Node2 -->
<g id="edge1" class="edge"><title>Node1&#45;&gt;Node2</title>
<path fill="none" stroke="midnightblue" d="M150.009,-15C158.543,-15 167.234,-15 175.731,-15"/>
<polygon fill="midnightblue" stroke="midnightblue" points="175.977,-18.5001 185.977,-15 175.977,-11.5001 175.977,-18.5001"/>
</g>
<!-- Node3 -->
<g id="node3" class="node"><title>Node3</title>
<g id="a_node3"><a xlink:href="classorg_1_1libcppa_1_1WarnOrAck.html#a0f021b3a7e3b073e5c2e748d64a6e34b" target="_top" xlink:title="org::libcppa::WarnOrAck\l::SharedCtor">
<polygon fill="none" stroke="black" points="346,-0 346,-30 470,-30 470,-0 346,-0"/>
<text text-anchor="start" x="354" y="-18" font-family="Helvetica,sans-Serif" font-size="10.00">org::libcppa::WarnOrAck</text>
<text text-anchor="middle" x="408" y="-7" font-family="Helvetica,sans-Serif" font-size="10.00">::SharedCtor</text>
</a>
</g>
</g>
<!-- Node2&#45;&gt;Node3 -->
<g id="edge2" class="edge"><title>Node2&#45;&gt;Node3</title>
<path fill="none" stroke="midnightblue" d="M310.087,-15C318.513,-15 327.226,-15 335.815,-15"/>
<polygon fill="midnightblue" stroke="midnightblue" points="335.815,-18.5001 345.815,-15 335.815,-11.5001 335.815,-18.5001"/>
</g>
</g>
</svg>
