<?xml version="1.0" encoding="UTF-8" standalone="no"?>
<!DOCTYPE svg PUBLIC "-//W3C//DTD SVG 1.1//EN"
 "http://www.w3.org/Graphics/SVG/1.1/DTD/svg11.dtd">
<!-- Generated by graphviz version 2.36.0 (20140111.2315)
 -->
<!-- Title: FrameSelector::ConvertProtobufFileToArray Pages: 1 -->
<svg width="608pt" height="115pt"
 viewBox="0.00 0.00 608.00 115.00" xmlns="http://www.w3.org/2000/svg" xmlns:xlink="http://www.w3.org/1999/xlink">
<g id="graph0" class="graph" transform="scale(1 1) rotate(0) translate(4 111)">
<title>FrameSelector::ConvertProtobufFileToArray</title>
<!-- Node1 -->
<g id="node1" class="node"><title>Node1</title>
<polygon fill="#bfbfbf" stroke="black" points="0,-25 0,-55 158,-55 158,-25 0,-25"/>
<text text-anchor="start" x="8" y="-43" font-family="Helvetica,sans-Serif" font-size="10.00">FrameSelector::ConvertProtobuf</text>
<text text-anchor="middle" x="79" y="-32" font-family="Helvetica,sans-Serif" font-size="10.00">FileToArray</text>
</g>
<!-- Node2 -->
<g id="node2" class="node"><title>Node2</title>
<g id="a_node2"><a xlink:href="classFrameSelector.html#a1065c609443efd72a3236cc98f168caa" target="_top" xlink:title="FrameSelector::ReadImage">
<polygon fill="none" stroke="black" points="202.5,-49.5 202.5,-68.5 339.5,-68.5 339.5,-49.5 202.5,-49.5"/>
<text text-anchor="middle" x="271" y="-56.5" font-family="Helvetica,sans-Serif" font-size="10.00">FrameSelector::ReadImage</text>
</a>
</g>
</g>
<!-- Node1&#45;&gt;Node2 -->
<g id="edge1" class="edge"><title>Node1&#45;&gt;Node2</title>
<path fill="none" stroke="midnightblue" d="M168.119,-48.8119C179.576,-49.9576 191.167,-51.1167 202.22,-52.222"/>
<polygon fill="midnightblue" stroke="midnightblue" points="168.401,-45.3228 158.103,-47.8103 167.705,-52.288 168.401,-45.3228"/>
</g>
<!-- Node6 -->
<g id="node6" class="node"><title>Node6</title>
<g id="a_node6"><a xlink:href="classFrameSelector.html#af202012c3f91b5aba8ee74d116b24390" target="_top" xlink:title="FrameSelector::ReadAllImages">
<polygon fill="none" stroke="black" points="194.5,-11.5 194.5,-30.5 347.5,-30.5 347.5,-11.5 194.5,-11.5"/>
<text text-anchor="middle" x="271" y="-18.5" font-family="Helvetica,sans-Serif" font-size="10.00">FrameSelector::ReadAllImages</text>
</a>
</g>
</g>
<!-- Node1&#45;&gt;Node6 -->
<g id="edge6" class="edge"><title>Node1&#45;&gt;Node6</title>
<path fill="none" stroke="midnightblue" d="M168.277,-31.1723C176.989,-30.3011 185.776,-29.4224 194.344,-28.5656"/>
<polygon fill="midnightblue" stroke="midnightblue" points="167.705,-27.712 158.103,-32.1897 168.401,-34.6772 167.705,-27.712"/>
</g>
<!-- Node3 -->
<g id="node3" class="node"><title>Node3</title>
<g id="a_node3"><a xlink:href="classController.html#aee012beb2309ae88b7278fa3dad06d80" target="_top" xlink:title="Controller::PlayHDFAsVideo">
<polygon fill="none" stroke="black" points="384,-87.5 384,-106.5 526,-106.5 526,-87.5 384,-87.5"/>
<text text-anchor="middle" x="455" y="-94.5" font-family="Helvetica,sans-Serif" font-size="10.00">Controller::PlayHDFAsVideo</text>
</a>
</g>
</g>
<!-- Node2&#45;&gt;Node3 -->
<g id="edge2" class="edge"><title>Node2&#45;&gt;Node3</title>
<path fill="none" stroke="midnightblue" d="M327.946,-70.681C353.756,-76.0699 384.007,-82.3861 408.404,-87.4799"/>
<polygon fill="midnightblue" stroke="midnightblue" points="328.431,-67.2068 317.926,-68.589 327,-74.059 328.431,-67.2068"/>
</g>
<!-- Node4 -->
<g id="node4" class="node"><title>Node4</title>
<g id="a_node4"><a xlink:href="StreamDecoder_2main_8cpp.html#ac0f2228420376f4db7e1274f2b41667c" target="_top" xlink:title="main">
<polygon fill="none" stroke="black" points="562,-68.5 562,-87.5 600,-87.5 600,-68.5 562,-68.5"/>
<text text-anchor="middle" x="581" y="-75.5" font-family="Helvetica,sans-Serif" font-size="10.00">main</text>
</a>
</g>
</g>
<!-- Node2&#45;&gt;Node4 -->
<g id="edge5" class="edge"><title>Node2&#45;&gt;Node4</title>
<path fill="none" stroke="midnightblue" d="M349.884,-63.8045C421.143,-68.2004 521.449,-74.3881 561.972,-76.8879"/>
<polygon fill="midnightblue" stroke="midnightblue" points="349.788,-60.2921 339.592,-63.1696 349.357,-67.2788 349.788,-60.2921"/>
</g>
<!-- Node5 -->
<g id="node5" class="node"><title>Node5</title>
<g id="a_node5"><a xlink:href="classController.html#afd6375744f4f31dd254d1e5f1316ff4b" target="_top" xlink:title="Controller::SaveAllImages\lAsJPEG">
<polygon fill="none" stroke="black" points="389.5,-0 389.5,-30 520.5,-30 520.5,-0 389.5,-0"/>
<text text-anchor="start" x="397.5" y="-18" font-family="Helvetica,sans-Serif" font-size="10.00">Controller::SaveAllImages</text>
<text text-anchor="middle" x="455" y="-7" font-family="Helvetica,sans-Serif" font-size="10.00">AsJPEG</text>
</a>
</g>
</g>
<!-- Node2&#45;&gt;Node5 -->
<g id="edge4" class="edge"><title>Node2&#45;&gt;Node5</title>
<path fill="none" stroke="midnightblue" d="M321.45,-47.045C343.101,-41.8108 368.747,-35.6107 391.684,-30.0654"/>
<polygon fill="midnightblue" stroke="midnightblue" points="320.389,-43.7007 311.491,-49.4527 322.034,-50.5047 320.389,-43.7007"/>
</g>
<!-- Node3&#45;&gt;Node4 -->
<g id="edge3" class="edge"><title>Node3&#45;&gt;Node4</title>
<path fill="none" stroke="midnightblue" d="M528.395,-85.9072C540.8,-84.0064 552.634,-82.1932 561.832,-80.7837"/>
<polygon fill="midnightblue" stroke="midnightblue" points="527.718,-82.47 518.363,-87.4443 528.778,-89.3893 527.718,-82.47"/>
</g>
</g>
</svg>
