<?xml version="1.0" encoding="UTF-8" standalone="no"?>
<!DOCTYPE svg PUBLIC "-//W3C//DTD SVG 1.1//EN"
 "http://www.w3.org/Graphics/SVG/1.1/DTD/svg11.dtd">
<!-- Generated by graphviz version 2.36.0 (20140111.2315)
 -->
<!-- Title: ProtobufImageWrapper::ParseFromArray Pages: 1 -->
<svg width="568pt" height="115pt"
 viewBox="0.00 0.00 568.00 115.00" xmlns="http://www.w3.org/2000/svg" xmlns:xlink="http://www.w3.org/1999/xlink">
<g id="graph0" class="graph" transform="scale(1 1) rotate(0) translate(4 111)">
<title>ProtobufImageWrapper::ParseFromArray</title>
<!-- Node1 -->
<g id="node1" class="node"><title>Node1</title>
<polygon fill="#bfbfbf" stroke="black" points="0.5,-25 0.5,-55 117.5,-55 117.5,-25 0.5,-25"/>
<text text-anchor="start" x="8.5" y="-43" font-family="Helvetica,sans-Serif" font-size="10.00">ProtobufImageWrapper</text>
<text text-anchor="middle" x="59" y="-32" font-family="Helvetica,sans-Serif" font-size="10.00">::ParseFromArray</text>
</g>
<!-- Node2 -->
<g id="node2" class="node"><title>Node2</title>
<g id="a_node2"><a xlink:href="classFrameSelector.html#a1065c609443efd72a3236cc98f168caa" target="_top" xlink:title="FrameSelector::ReadImage">
<polygon fill="none" stroke="black" points="162.5,-49.5 162.5,-68.5 299.5,-68.5 299.5,-49.5 162.5,-49.5"/>
<text text-anchor="middle" x="231" y="-56.5" font-family="Helvetica,sans-Serif" font-size="10.00">FrameSelector::ReadImage</text>
</a>
</g>
</g>
<!-- Node1&#45;&gt;Node2 -->
<g id="edge1" class="edge"><title>Node1&#45;&gt;Node2</title>
<path fill="none" stroke="midnightblue" d="M127.814,-47.5792C139.143,-48.8454 150.896,-50.159 162.224,-51.425"/>
<polygon fill="midnightblue" stroke="midnightblue" points="127.881,-44.065 117.554,-46.4325 127.104,-51.0217 127.881,-44.065"/>
</g>
<!-- Node6 -->
<g id="node6" class="node"><title>Node6</title>
<g id="a_node6"><a xlink:href="classFrameSelector.html#af202012c3f91b5aba8ee74d116b24390" target="_top" xlink:title="FrameSelector::ReadAllImages">
<polygon fill="none" stroke="black" points="154.5,-11.5 154.5,-30.5 307.5,-30.5 307.5,-11.5 154.5,-11.5"/>
<text text-anchor="middle" x="231" y="-18.5" font-family="Helvetica,sans-Serif" font-size="10.00">FrameSelector::ReadAllImages</text>
</a>
</g>
</g>
<!-- Node1&#45;&gt;Node6 -->
<g id="edge6" class="edge"><title>Node1&#45;&gt;Node6</title>
<path fill="none" stroke="midnightblue" d="M127.716,-32.4317C136.494,-31.4507 145.528,-30.441 154.422,-29.4469"/>
<polygon fill="midnightblue" stroke="midnightblue" points="127.104,-28.9783 117.554,-33.5675 127.881,-35.935 127.104,-28.9783"/>
</g>
<!-- Node3 -->
<g id="node3" class="node"><title>Node3</title>
<g id="a_node3"><a xlink:href="classController.html#aee012beb2309ae88b7278fa3dad06d80" target="_top" xlink:title="Controller::PlayHDFAsVideo">
<polygon fill="none" stroke="black" points="344,-87.5 344,-106.5 486,-106.5 486,-87.5 344,-87.5"/>
<text text-anchor="middle" x="415" y="-94.5" font-family="Helvetica,sans-Serif" font-size="10.00">Controller::PlayHDFAsVideo</text>
</a>
</g>
</g>
<!-- Node2&#45;&gt;Node3 -->
<g id="edge2" class="edge"><title>Node2&#45;&gt;Node3</title>
<path fill="none" stroke="midnightblue" d="M287.946,-70.681C313.756,-76.0699 344.007,-82.3861 368.404,-87.4799"/>
<polygon fill="midnightblue" stroke="midnightblue" points="288.431,-67.2068 277.926,-68.589 287,-74.059 288.431,-67.2068"/>
</g>
<!-- Node4 -->
<g id="node4" class="node"><title>Node4</title>
<g id="a_node4"><a xlink:href="StreamDecoder_2main_8cpp.html#ac0f2228420376f4db7e1274f2b41667c" target="_top" xlink:title="main">
<polygon fill="none" stroke="black" points="522,-68.5 522,-87.5 560,-87.5 560,-68.5 522,-68.5"/>
<text text-anchor="middle" x="541" y="-75.5" font-family="Helvetica,sans-Serif" font-size="10.00">main</text>
</a>
</g>
</g>
<!-- Node2&#45;&gt;Node4 -->
<g id="edge5" class="edge"><title>Node2&#45;&gt;Node4</title>
<path fill="none" stroke="midnightblue" d="M309.884,-63.8045C381.143,-68.2004 481.449,-74.3881 521.972,-76.8879"/>
<polygon fill="midnightblue" stroke="midnightblue" points="309.788,-60.2921 299.592,-63.1696 309.357,-67.2788 309.788,-60.2921"/>
</g>
<!-- Node5 -->
<g id="node5" class="node"><title>Node5</title>
<g id="a_node5"><a xlink:href="classController.html#afd6375744f4f31dd254d1e5f1316ff4b" target="_top" xlink:title="Controller::SaveAllImages\lAsJPEG">
<polygon fill="none" stroke="black" points="349.5,-0 349.5,-30 480.5,-30 480.5,-0 349.5,-0"/>
<text text-anchor="start" x="357.5" y="-18" font-family="Helvetica,sans-Serif" font-size="10.00">Controller::SaveAllImages</text>
<text text-anchor="middle" x="415" y="-7" font-family="Helvetica,sans-Serif" font-size="10.00">AsJPEG</text>
</a>
</g>
</g>
<!-- Node2&#45;&gt;Node5 -->
<g id="edge4" class="edge"><title>Node2&#45;&gt;Node5</title>
<path fill="none" stroke="midnightblue" d="M281.45,-47.045C303.101,-41.8108 328.747,-35.6107 351.684,-30.0654"/>
<polygon fill="midnightblue" stroke="midnightblue" points="280.389,-43.7007 271.491,-49.4527 282.034,-50.5047 280.389,-43.7007"/>
</g>
<!-- Node3&#45;&gt;Node4 -->
<g id="edge3" class="edge"><title>Node3&#45;&gt;Node4</title>
<path fill="none" stroke="midnightblue" d="M488.395,-85.9072C500.8,-84.0064 512.634,-82.1932 521.832,-80.7837"/>
<polygon fill="midnightblue" stroke="midnightblue" points="487.718,-82.47 478.363,-87.4443 488.778,-89.3893 487.718,-82.47"/>
</g>
</g>
</svg>
