<?xml version="1.0" encoding="UTF-8" standalone="no"?>
<!DOCTYPE svg PUBLIC "-//W3C//DTD SVG 1.1//EN"
 "http://www.w3.org/Graphics/SVG/1.1/DTD/svg11.dtd">
<!-- Generated by graphviz version 2.36.0 (20140111.2315)
 -->
<!-- Title: org::libcppa::warning::MergeFrom Pages: 1 -->
<svg width="426pt" height="224pt"
 viewBox="0.00 0.00 426.00 224.00" xmlns="http://www.w3.org/2000/svg" xmlns:xlink="http://www.w3.org/1999/xlink">
<g id="graph0" class="graph" transform="scale(1 1) rotate(0) translate(4 220)">
<title>org::libcppa::warning::MergeFrom</title>
<!-- Node1 -->
<g id="node1" class="node"><title>Node1</title>
<polygon fill="#bfbfbf" stroke="black" points="0.5,-93 0.5,-123 107.5,-123 107.5,-93 0.5,-93"/>
<text text-anchor="start" x="8.5" y="-111" font-family="Helvetica,sans-Serif" font-size="10.00">org::libcppa::warning</text>
<text text-anchor="middle" x="54" y="-100" font-family="Helvetica,sans-Serif" font-size="10.00">::MergeFrom</text>
</g>
<!-- Node2 -->
<g id="node2" class="node"><title>Node2</title>
<g id="a_node2"><a xlink:href="classorg_1_1libcppa_1_1warning.html#a2be6277565759fee3d17238d3b6ed27e" target="_top" xlink:title="org::libcppa::warning\l::has_id">
<polygon fill="none" stroke="black" points="155.5,-186 155.5,-216 262.5,-216 262.5,-186 155.5,-186"/>
<text text-anchor="start" x="163.5" y="-204" font-family="Helvetica,sans-Serif" font-size="10.00">org::libcppa::warning</text>
<text text-anchor="middle" x="209" y="-193" font-family="Helvetica,sans-Serif" font-size="10.00">::has_id</text>
</a>
</g>
</g>
<!-- Node1&#45;&gt;Node2 -->
<g id="edge1" class="edge"><title>Node1&#45;&gt;Node2</title>
<path fill="none" stroke="midnightblue" d="M71.7204,-123.08C88.8971,-137.997 116.884,-160.746 144,-176 147.626,-178.04 151.452,-179.988 155.355,-181.831"/>
<polygon fill="midnightblue" stroke="midnightblue" points="153.991,-185.054 164.549,-185.936 156.845,-178.663 153.991,-185.054"/>
</g>
<!-- Node3 -->
<g id="node3" class="node"><title>Node3</title>
<g id="a_node3"><a xlink:href="classorg_1_1libcppa_1_1warning.html#a58db5f0facbd3e856c06207115655596" target="_top" xlink:title="org::libcppa::warning\l::set_id">
<polygon fill="none" stroke="black" points="155.5,-137 155.5,-167 262.5,-167 262.5,-137 155.5,-137"/>
<text text-anchor="start" x="163.5" y="-155" font-family="Helvetica,sans-Serif" font-size="10.00">org::libcppa::warning</text>
<text text-anchor="middle" x="209" y="-144" font-family="Helvetica,sans-Serif" font-size="10.00">::set_id</text>
</a>
</g>
</g>
<!-- Node1&#45;&gt;Node3 -->
<g id="edge2" class="edge"><title>Node1&#45;&gt;Node3</title>
<path fill="none" stroke="midnightblue" d="M107.226,-123.019C119.712,-126.61 133.161,-130.478 146.039,-134.181"/>
<polygon fill="midnightblue" stroke="midnightblue" points="145.172,-137.574 155.75,-136.974 147.107,-130.846 145.172,-137.574"/>
</g>
<!-- Node5 -->
<g id="node5" class="node"><title>Node5</title>
<g id="a_node5"><a xlink:href="classorg_1_1libcppa_1_1warning.html#adf0bdf099abd08b438f55cbad69f9d2e" target="_top" xlink:title="org::libcppa::warning::id">
<polygon fill="none" stroke="black" points="149,-98.5 149,-117.5 269,-117.5 269,-98.5 149,-98.5"/>
<text text-anchor="middle" x="209" y="-105.5" font-family="Helvetica,sans-Serif" font-size="10.00">org::libcppa::warning::id</text>
</a>
</g>
</g>
<!-- Node1&#45;&gt;Node5 -->
<g id="edge4" class="edge"><title>Node1&#45;&gt;Node5</title>
<path fill="none" stroke="midnightblue" d="M107.654,-108C117.638,-108 128.224,-108 138.632,-108"/>
<polygon fill="midnightblue" stroke="midnightblue" points="138.952,-111.5 148.952,-108 138.952,-104.5 138.952,-111.5"/>
</g>
<!-- Node6 -->
<g id="node6" class="node"><title>Node6</title>
<g id="a_node6"><a xlink:href="classorg_1_1libcppa_1_1warning.html#a3ab18605034c18f997223800aaf46084" target="_top" xlink:title="org::libcppa::warning\l::mutable_unknown_fields">
<polygon fill="none" stroke="black" points="144,-49 144,-79 274,-79 274,-49 144,-49"/>
<text text-anchor="start" x="152" y="-67" font-family="Helvetica,sans-Serif" font-size="10.00">org::libcppa::warning</text>
<text text-anchor="middle" x="209" y="-56" font-family="Helvetica,sans-Serif" font-size="10.00">::mutable_unknown_fields</text>
</a>
</g>
</g>
<!-- Node1&#45;&gt;Node6 -->
<g id="edge5" class="edge"><title>Node1&#45;&gt;Node6</title>
<path fill="none" stroke="midnightblue" d="M107.226,-92.9808C119.712,-89.39 133.161,-85.5224 146.039,-81.819"/>
<polygon fill="midnightblue" stroke="midnightblue" points="147.107,-85.1537 155.75,-79.0262 145.172,-78.4264 147.107,-85.1537"/>
</g>
<!-- Node7 -->
<g id="node7" class="node"><title>Node7</title>
<g id="a_node7"><a xlink:href="classorg_1_1libcppa_1_1warning.html#ab37f72c0bd01c8dc4d419818c83a7e1d" target="_top" xlink:title="org::libcppa::warning\l::unknown_fields">
<polygon fill="none" stroke="black" points="155.5,-0 155.5,-30 262.5,-30 262.5,-0 155.5,-0"/>
<text text-anchor="start" x="163.5" y="-18" font-family="Helvetica,sans-Serif" font-size="10.00">org::libcppa::warning</text>
<text text-anchor="middle" x="209" y="-7" font-family="Helvetica,sans-Serif" font-size="10.00">::unknown_fields</text>
</a>
</g>
</g>
<!-- Node1&#45;&gt;Node7 -->
<g id="edge6" class="edge"><title>Node1&#45;&gt;Node7</title>
<path fill="none" stroke="midnightblue" d="M71.7204,-92.9196C88.8971,-78.0029 116.884,-55.2538 144,-40 147.626,-37.9604 151.452,-36.0125 155.355,-34.1692"/>
<polygon fill="midnightblue" stroke="midnightblue" points="156.845,-37.3373 164.549,-30.0641 153.991,-30.9455 156.845,-37.3373"/>
</g>
<!-- Node4 -->
<g id="node4" class="node"><title>Node4</title>
<g id="a_node4"><a xlink:href="classorg_1_1libcppa_1_1warning.html#ae15cfc9b3507c76d332681beee0b1f5a" target="_top" xlink:title="org::libcppa::warning\l::set_has_id">
<polygon fill="none" stroke="black" points="310.5,-137 310.5,-167 417.5,-167 417.5,-137 310.5,-137"/>
<text text-anchor="start" x="318.5" y="-155" font-family="Helvetica,sans-Serif" font-size="10.00">org::libcppa::warning</text>
<text text-anchor="middle" x="364" y="-144" font-family="Helvetica,sans-Serif" font-size="10.00">::set_has_id</text>
</a>
</g>
</g>
<!-- Node3&#45;&gt;Node4 -->
<g id="edge3" class="edge"><title>Node3&#45;&gt;Node4</title>
<path fill="none" stroke="midnightblue" d="M262.654,-152C274.675,-152 287.568,-152 299.973,-152"/>
<polygon fill="midnightblue" stroke="midnightblue" points="300.249,-155.5 310.249,-152 300.249,-148.5 300.249,-155.5"/>
</g>
</g>
</svg>
