<?xml version="1.0" encoding="UTF-8" standalone="no"?>
<!DOCTYPE svg PUBLIC "-//W3C//DTD SVG 1.1//EN"
 "http://www.w3.org/Graphics/SVG/1.1/DTD/svg11.dtd">
<!-- Generated by graphviz version 2.36.0 (20140111.2315)
 -->
<!-- Title: csCommunication::Warning::SerializeWithCachedSizes Pages: 1 -->
<svg width="322pt" height="136pt"
 viewBox="0.00 0.00 322.00 136.00" xmlns="http://www.w3.org/2000/svg" xmlns:xlink="http://www.w3.org/1999/xlink">
<g id="graph0" class="graph" transform="scale(1 1) rotate(0) translate(4 132)">
<title>csCommunication::Warning::SerializeWithCachedSizes</title>
<!-- Node1 -->
<g id="node1" class="node"><title>Node1</title>
<polygon fill="#bfbfbf" stroke="black" points="0.5,-49 0.5,-79 139.5,-79 139.5,-49 0.5,-49"/>
<text text-anchor="start" x="8.5" y="-67" font-family="Helvetica,sans-Serif" font-size="10.00">csCommunication::Warning</text>
<text text-anchor="middle" x="70" y="-56" font-family="Helvetica,sans-Serif" font-size="10.00">::SerializeWithCachedSizes</text>
</g>
<!-- Node2 -->
<g id="node2" class="node"><title>Node2</title>
<g id="a_node2"><a xlink:href="classcsCommunication_1_1Warning.html#a8f4e300281a8b6e710d0464a53611a9c" target="_top" xlink:title="csCommunication::Warning\l::has_mess">
<polygon fill="none" stroke="black" points="176.5,-98 176.5,-128 313.5,-128 313.5,-98 176.5,-98"/>
<text text-anchor="start" x="184.5" y="-116" font-family="Helvetica,sans-Serif" font-size="10.00">csCommunication::Warning</text>
<text text-anchor="middle" x="245" y="-105" font-family="Helvetica,sans-Serif" font-size="10.00">::has_mess</text>
</a>
</g>
</g>
<!-- Node1&#45;&gt;Node2 -->
<g id="edge1" class="edge"><title>Node1&#45;&gt;Node2</title>
<path fill="none" stroke="midnightblue" d="M124.317,-79.1014C142.242,-84.1785 162.408,-89.8902 181.006,-95.1577"/>
<polygon fill="midnightblue" stroke="midnightblue" points="180.283,-98.5907 190.859,-97.9484 182.191,-91.8557 180.283,-98.5907"/>
</g>
<!-- Node3 -->
<g id="node3" class="node"><title>Node3</title>
<g id="a_node3"><a xlink:href="classcsCommunication_1_1Warning.html#ae89197b403010afcc5471ba841397296" target="_top" xlink:title="csCommunication::Warning\l::mess">
<polygon fill="none" stroke="black" points="176.5,-49 176.5,-79 313.5,-79 313.5,-49 176.5,-49"/>
<text text-anchor="start" x="184.5" y="-67" font-family="Helvetica,sans-Serif" font-size="10.00">csCommunication::Warning</text>
<text text-anchor="middle" x="245" y="-56" font-family="Helvetica,sans-Serif" font-size="10.00">::mess</text>
</a>
</g>
</g>
<!-- Node1&#45;&gt;Node3 -->
<g id="edge2" class="edge"><title>Node1&#45;&gt;Node3</title>
<path fill="none" stroke="midnightblue" d="M139.871,-64C148.54,-64 157.456,-64 166.249,-64"/>
<polygon fill="midnightblue" stroke="midnightblue" points="166.494,-67.5001 176.494,-64 166.494,-60.5001 166.494,-67.5001"/>
</g>
<!-- Node4 -->
<g id="node4" class="node"><title>Node4</title>
<g id="a_node4"><a xlink:href="classcsCommunication_1_1Warning.html#ae4c33f8577043bf5ca98e4c56186ecdc" target="_top" xlink:title="csCommunication::Warning\l::unknown_fields">
<polygon fill="none" stroke="black" points="176.5,-0 176.5,-30 313.5,-30 313.5,-0 176.5,-0"/>
<text text-anchor="start" x="184.5" y="-18" font-family="Helvetica,sans-Serif" font-size="10.00">csCommunication::Warning</text>
<text text-anchor="middle" x="245" y="-7" font-family="Helvetica,sans-Serif" font-size="10.00">::unknown_fields</text>
</a>
</g>
</g>
<!-- Node1&#45;&gt;Node4 -->
<g id="edge3" class="edge"><title>Node1&#45;&gt;Node4</title>
<path fill="none" stroke="midnightblue" d="M124.317,-48.8986C142.242,-43.8215 162.408,-38.1098 181.006,-32.8423"/>
<polygon fill="midnightblue" stroke="midnightblue" points="182.191,-36.1443 190.859,-30.0516 180.283,-29.4093 182.191,-36.1443"/>
</g>
</g>
</svg>
