<?xml version="1.0" encoding="UTF-8" standalone="no"?>
<!DOCTYPE svg PUBLIC "-//W3C//DTD SVG 1.1//EN"
 "http://www.w3.org/Graphics/SVG/1.1/DTD/svg11.dtd">
<!-- Generated by graphviz version 2.36.0 (20140111.2315)
 -->
<!-- Title: org::libcppa::WarnOrAck::has_ack Pages: 1 -->
<!--zoomable 322 -->
<svg id="main" version="1.1" xmlns="http://www.w3.org/2000/svg" xmlns:xlink="http://www.w3.org/1999/xlink" xml:space="preserve" onload="init(evt)">
<style type="text/css"><![CDATA[
.edge:hover path { stroke: red; }
.edge:hover polygon { stroke: red; fill: red; }
]]></style>
<script type="text/javascript"><![CDATA[
var edges = document.getElementsByTagName('g');
if (edges && edges.length) {
  for (var i=0;i<edges.length;i++) {
    if (edges[i].id.substr(0,4)=='edge') {
      edges[i].setAttribute('class','edge');
    }
  }
}
]]></script>
        <defs>
                <circle id="rim" cx="0" cy="0" r="7"/>
                <circle id="rim2" cx="0" cy="0" r="3.5"/>
                <g id="zoomPlus">
                        <use xlink:href="#rim" fill="#404040">
                                <set attributeName="fill" to="#808080" begin="zoomplus.mouseover" end="zoomplus.mouseout"/>
                        </use>
                        <path d="M-4,0h8M0,-4v8" fill="none" stroke="white" stroke-width="1.5" pointer-events="none"/>
                </g>
                <g id="zoomMin">
                        <use xlink:href="#rim" fill="#404040">
                                <set attributeName="fill" to="#808080" begin="zoomminus.mouseover" end="zoomminus.mouseout"/>
                        </use>
                        <path d="M-4,0h8" fill="none" stroke="white" stroke-width="1.5" pointer-events="none"/>
                </g>
                <g id="dirArrow">
                        <path fill="none" stroke="white" stroke-width="1.5" d="M0,-3.0v7 M-2.5,-0.5L0,-3.0L2.5,-0.5"/>
                </g>
               <g id="resetDef">
                       <use xlink:href="#rim2" fill="#404040">
                               <set attributeName="fill" to="#808080" begin="reset.mouseover" end="reset.mouseout"/>
                       </use>
               </g>
        </defs>

<script type="text/javascript">
var viewWidth = 662;
var viewHeight = 322;
var sectionId = 'dynsection-11';
</script>
<script xlink:href="svgpan.js"/>
<svg id="graph" class="graph">
<g id="viewport">
<title>org::libcppa::WarnOrAck::has_ack</title>
<!-- Node1 -->
<g id="node1" class="node"><title>Node1</title>
<polygon fill="#bfbfbf" stroke="black" points="0,-137 0,-167 124,-167 124,-137 0,-137"/>
<text text-anchor="start" x="8" y="-155" font-family="Helvetica,sans-Serif" font-size="10.00">org::libcppa::WarnOrAck</text>
<text text-anchor="middle" x="62" y="-144" font-family="Helvetica,sans-Serif" font-size="10.00">::has_ack</text>
</g>
<!-- Node2 -->
<g id="node2" class="node"><title>Node2</title>
<g id="a_node2"><a xlink:href="classorg_1_1libcppa_1_1WarnOrAck.html#adaff598693cba3d1a9a4ff77408115e7" target="_top" xlink:title="org::libcppa::WarnOrAck\l::Clear">
<polygon fill="none" stroke="black" points="185,-284 185,-314 309,-314 309,-284 185,-284"/>
<text text-anchor="start" x="193" y="-302" font-family="Helvetica,sans-Serif" font-size="10.00">org::libcppa::WarnOrAck</text>
<text text-anchor="middle" x="247" y="-291" font-family="Helvetica,sans-Serif" font-size="10.00">::Clear</text>
</a>
</g>
</g>
<!-- Node1&#45;&gt;Node2 -->
<g id="edge1" class="edge"><title>Node1&#45;&gt;Node2</title>
<path fill="none" stroke="midnightblue" d="M76.0742,-176.273C92.2114,-203.954 122.212,-248.645 160,-274 167.489,-279.025 175.998,-283.056 184.682,-286.286"/>
<polygon fill="midnightblue" stroke="midnightblue" points="78.934,-174.221 70.9544,-167.251 72.8459,-177.676 78.934,-174.221"/>
</g>
<!-- Node5 -->
<g id="node5" class="node"><title>Node5</title>
<g id="a_node5"><a xlink:href="classorg_1_1libcppa_1_1WarnOrAck.html#a86189dec84eb3746f08520a85150a1e8" target="_top" xlink:title="org::libcppa::WarnOrAck\l::SerializeWithCachedSizes">
<polygon fill="none" stroke="black" points="177.5,-235 177.5,-265 316.5,-265 316.5,-235 177.5,-235"/>
<text text-anchor="start" x="185.5" y="-253" font-family="Helvetica,sans-Serif" font-size="10.00">org::libcppa::WarnOrAck</text>
<text text-anchor="middle" x="247" y="-242" font-family="Helvetica,sans-Serif" font-size="10.00">::SerializeWithCachedSizes</text>
</a>
</g>
</g>
<!-- Node1&#45;&gt;Node5 -->
<g id="edge4" class="edge"><title>Node1&#45;&gt;Node5</title>
<path fill="none" stroke="midnightblue" d="M86.9739,-173.983C105.663,-190.097 132.91,-211.442 160,-225 167.508,-228.758 175.676,-232.043 183.89,-234.887"/>
<polygon fill="midnightblue" stroke="midnightblue" points="89.0909,-171.184 79.2677,-167.215 84.4717,-176.443 89.0909,-171.184"/>
</g>
<!-- Node6 -->
<g id="node6" class="node"><title>Node6</title>
<g id="a_node6"><a xlink:href="classorg_1_1libcppa_1_1WarnOrAck.html#a3962cb0ae219a08acb9f28821b47a300" target="_top" xlink:title="org::libcppa::WarnOrAck\l::SerializeWithCachedSizesToArray">
<polygon fill="none" stroke="black" points="160.5,-186 160.5,-216 333.5,-216 333.5,-186 160.5,-186"/>
<text text-anchor="start" x="168.5" y="-204" font-family="Helvetica,sans-Serif" font-size="10.00">org::libcppa::WarnOrAck</text>
<text text-anchor="middle" x="247" y="-193" font-family="Helvetica,sans-Serif" font-size="10.00">::SerializeWithCachedSizesToArray</text>
</a>
</g>
</g>
<!-- Node1&#45;&gt;Node6 -->
<g id="edge5" class="edge"><title>Node1&#45;&gt;Node6</title>
<path fill="none" stroke="midnightblue" d="M129.285,-169.748C149.119,-175.059 170.667,-180.829 189.787,-185.948"/>
<polygon fill="midnightblue" stroke="midnightblue" points="129.964,-166.307 119.399,-167.101 128.154,-173.069 129.964,-166.307"/>
</g>
<!-- Node7 -->
<g id="node7" class="node"><title>Node7</title>
<g id="a_node7"><a xlink:href="classorg_1_1libcppa_1_1WarnOrAck.html#aeb55f2d7aef4fa3f8ba06b88d6ca17d2" target="_top" xlink:title="org::libcppa::WarnOrAck\l::ByteSize">
<polygon fill="none" stroke="black" points="185,-137 185,-167 309,-167 309,-137 185,-137"/>
<text text-anchor="start" x="193" y="-155" font-family="Helvetica,sans-Serif" font-size="10.00">org::libcppa::WarnOrAck</text>
<text text-anchor="middle" x="247" y="-144" font-family="Helvetica,sans-Serif" font-size="10.00">::ByteSize</text>
</a>
</g>
</g>
<!-- Node1&#45;&gt;Node7 -->
<g id="edge6" class="edge"><title>Node1&#45;&gt;Node7</title>
<path fill="none" stroke="midnightblue" d="M134.426,-152C151.093,-152 168.694,-152 184.867,-152"/>
<polygon fill="midnightblue" stroke="midnightblue" points="134.191,-148.5 124.191,-152 134.191,-155.5 134.191,-148.5"/>
</g>
<!-- Node8 -->
<g id="node8" class="node"><title>Node8</title>
<g id="a_node8"><a xlink:href="classorg_1_1libcppa_1_1WarnOrAck.html#a12501cbd6672b9d2ebfc69b4b6b88f65" target="_top" xlink:title="org::libcppa::WarnOrAck\l::MergeFrom">
<polygon fill="none" stroke="black" points="185,-88 185,-118 309,-118 309,-88 185,-88"/>
<text text-anchor="start" x="193" y="-106" font-family="Helvetica,sans-Serif" font-size="10.00">org::libcppa::WarnOrAck</text>
<text text-anchor="middle" x="247" y="-95" font-family="Helvetica,sans-Serif" font-size="10.00">::MergeFrom</text>
</a>
</g>
</g>
<!-- Node1&#45;&gt;Node8 -->
<g id="edge7" class="edge"><title>Node1&#45;&gt;Node8</title>
<path fill="none" stroke="midnightblue" d="M129.285,-134.252C149.119,-128.941 170.667,-123.171 189.787,-118.052"/>
<polygon fill="midnightblue" stroke="midnightblue" points="128.154,-130.931 119.399,-136.899 129.964,-137.693 128.154,-130.931"/>
</g>
<!-- Node9 -->
<g id="node9" class="node"><title>Node9</title>
<g id="a_node9"><a xlink:href="classorg_1_1libcppa_1_1WarnOrAck.html#a9c2a6a4a891b6a3ead4f7208e86c3d43" target="_top" xlink:title="org::libcppa::WarnOrAck\l::IsInitialized">
<polygon fill="none" stroke="black" points="185,-39 185,-69 309,-69 309,-39 185,-39"/>
<text text-anchor="start" x="193" y="-57" font-family="Helvetica,sans-Serif" font-size="10.00">org::libcppa::WarnOrAck</text>
<text text-anchor="middle" x="247" y="-46" font-family="Helvetica,sans-Serif" font-size="10.00">::IsInitialized</text>
</a>
</g>
</g>
<!-- Node1&#45;&gt;Node9 -->
<g id="edge8" class="edge"><title>Node1&#45;&gt;Node9</title>
<path fill="none" stroke="midnightblue" d="M86.9739,-130.017C105.663,-113.903 132.91,-92.5578 160,-79 167.787,-75.1031 176.282,-71.7148 184.803,-68.799"/>
<polygon fill="midnightblue" stroke="midnightblue" points="84.4717,-127.557 79.2677,-136.785 89.0909,-132.816 84.4717,-127.557"/>
</g>
<!-- Node10 -->
<g id="node10" class="node"><title>Node10</title>
<g id="a_node10"><a xlink:href="protobuf__broker_8cpp.html#ae10b5d14d3ad78f811d25de1d8429746" target="_top" xlink:title="protobuf_io">
<polygon fill="none" stroke="black" points="214.5,-0.5 214.5,-19.5 279.5,-19.5 279.5,-0.5 214.5,-0.5"/>
<text text-anchor="middle" x="247" y="-7.5" font-family="Helvetica,sans-Serif" font-size="10.00">protobuf_io</text>
</a>
</g>
</g>
<!-- Node1&#45;&gt;Node10 -->
<g id="edge9" class="edge"><title>Node1&#45;&gt;Node10</title>
<path fill="none" stroke="midnightblue" d="M75.28,-127.903C90.98,-99.6404 120.88,-53.539 160,-29 176.191,-18.8435 197.075,-14.0755 214.208,-11.8553"/>
<polygon fill="midnightblue" stroke="midnightblue" points="72.1764,-126.285 70.5073,-136.747 78.3366,-129.609 72.1764,-126.285"/>
</g>
<!-- Node3 -->
<g id="node3" class="node"><title>Node3</title>
<g id="a_node3"><a xlink:href="classorg_1_1libcppa_1_1WarnOrAck.html#a5f1c82001c1c60ac5b053c707ecb624e" target="_top" xlink:title="org::libcppa::WarnOrAck\l::CopyFrom">
<polygon fill="none" stroke="black" points="370,-284 370,-314 494,-314 494,-284 370,-284"/>
<text text-anchor="start" x="378" y="-302" font-family="Helvetica,sans-Serif" font-size="10.00">org::libcppa::WarnOrAck</text>
<text text-anchor="middle" x="432" y="-291" font-family="Helvetica,sans-Serif" font-size="10.00">::CopyFrom</text>
</a>
</g>
</g>
<!-- Node2&#45;&gt;Node3 -->
<g id="edge2" class="edge"><title>Node2&#45;&gt;Node3</title>
<path fill="none" stroke="midnightblue" d="M319.426,-299C336.093,-299 353.694,-299 369.867,-299"/>
<polygon fill="midnightblue" stroke="midnightblue" points="319.191,-295.5 309.191,-299 319.191,-302.5 319.191,-295.5"/>
</g>
<!-- Node4 -->
<g id="node4" class="node"><title>Node4</title>
<g id="a_node4"><a xlink:href="classorg_1_1libcppa_1_1WarnOrAck.html#abbd2ac52a3df89dfecedd118717562eb" target="_top" xlink:title="org::libcppa::WarnOrAck\l::operator=">
<polygon fill="none" stroke="black" points="530,-284 530,-314 654,-314 654,-284 530,-284"/>
<text text-anchor="start" x="538" y="-302" font-family="Helvetica,sans-Serif" font-size="10.00">org::libcppa::WarnOrAck</text>
<text text-anchor="middle" x="592" y="-291" font-family="Helvetica,sans-Serif" font-size="10.00">::operator=</text>
</a>
</g>
</g>
<!-- Node3&#45;&gt;Node4 -->
<g id="edge3" class="edge"><title>Node3&#45;&gt;Node4</title>
<path fill="none" stroke="midnightblue" d="M504.366,-299C512.863,-299 521.478,-299 529.815,-299"/>
<polygon fill="midnightblue" stroke="midnightblue" points="504.087,-295.5 494.087,-299 504.087,-302.5 504.087,-295.5"/>
</g>
<!-- Node11 -->
<g id="node11" class="node"><title>Node11</title>
<g id="a_node11"><a xlink:href="protobuf__broker_8cpp.html#ab3afbb104c5cd2d77878dca0def53691" target="_top" xlink:title="server">
<polygon fill="none" stroke="black" points="410,-19.5 410,-38.5 454,-38.5 454,-19.5 410,-19.5"/>
<text text-anchor="middle" x="432" y="-26.5" font-family="Helvetica,sans-Serif" font-size="10.00">server</text>
</a>
</g>
</g>
<!-- Node10&#45;&gt;Node11 -->
<g id="edge10" class="edge"><title>Node10&#45;&gt;Node11</title>
<path fill="none" stroke="midnightblue" d="M289.971,-14.3577C327.365,-18.24 380.555,-23.7625 409.762,-26.7949"/>
<polygon fill="midnightblue" stroke="midnightblue" points="290.184,-10.861 279.876,-13.3095 289.461,-17.8236 290.184,-10.861"/>
</g>
<!-- Node12 -->
<g id="node12" class="node"><title>Node12</title>
<g id="a_node12"><a xlink:href="protobuf__broker_8cpp.html#a3c04138a5bfe5d72780bb7e82a18e627" target="_top" xlink:title="main">
<polygon fill="none" stroke="black" points="573,-0.5 573,-19.5 611,-19.5 611,-0.5 573,-0.5"/>
<text text-anchor="middle" x="592" y="-7.5" font-family="Helvetica,sans-Serif" font-size="10.00">main</text>
</a>
</g>
</g>
<!-- Node10&#45;&gt;Node12 -->
<g id="edge12" class="edge"><title>Node10&#45;&gt;Node12</title>
<path fill="none" stroke="midnightblue" d="M289.699,-10C364.784,-10 519.835,-10 572.801,-10"/>
<polygon fill="midnightblue" stroke="midnightblue" points="289.654,-6.5001 279.654,-10 289.654,-13.5001 289.654,-6.5001"/>
</g>
<!-- Node11&#45;&gt;Node12 -->
<g id="edge11" class="edge"><title>Node11&#45;&gt;Node12</title>
<path fill="none" stroke="midnightblue" d="M464.622,-25.1974C497.121,-21.2892 546.584,-15.3411 572.957,-12.1697"/>
<polygon fill="midnightblue" stroke="midnightblue" points="463.819,-21.7686 454.309,-26.4376 464.655,-28.7185 463.819,-21.7686"/>
</g>
</g>
</svg>
        <g id="navigator" transform="translate(0 0)" fill="#404254">
                <rect fill="#f2f5e9" fill-opacity="0.5" stroke="#606060" stroke-width=".5" x="0" y="0" width="60" height="60"/>
                <use id="zoomplus" xlink:href="#zoomPlus" x="17" y="9" onmousedown="handleZoom(evt,'in')"/>
                <use id="zoomminus" xlink:href="#zoomMin" x="42" y="9" onmousedown="handleZoom(evt,'out')"/>
                <use id="reset" xlink:href="#resetDef" x="30" y="36" onmousedown="handleReset()"/>
                <g id="arrowUp" xlink:href="#dirArrow" transform="translate(30 24)" onmousedown="handlePan(0,-1)">
                  <use xlink:href="#rim" fill="#404040">
                        <set attributeName="fill" to="#808080" begin="arrowUp.mouseover" end="arrowUp.mouseout"/>
                  </use>
                  <path fill="none" stroke="white" stroke-width="1.5" d="M0,-3.0v7 M-2.5,-0.5L0,-3.0L2.5,-0.5"/>
                </g>
                <g id="arrowRight" xlink:href="#dirArrow" transform="rotate(90) translate(36 -43)" onmousedown="handlePan(1,0)">
                  <use xlink:href="#rim" fill="#404040">
                        <set attributeName="fill" to="#808080" begin="arrowRight.mouseover" end="arrowRight.mouseout"/>
                  </use>
                  <path fill="none" stroke="white" stroke-width="1.5" d="M0,-3.0v7 M-2.5,-0.5L0,-3.0L2.5,-0.5"/>
                </g>
                <g id="arrowDown" xlink:href="#dirArrow" transform="rotate(180) translate(-30 -48)" onmousedown="handlePan(0,1)">
                  <use xlink:href="#rim" fill="#404040">
                        <set attributeName="fill" to="#808080" begin="arrowDown.mouseover" end="arrowDown.mouseout"/>
                  </use>
                  <path fill="none" stroke="white" stroke-width="1.5" d="M0,-3.0v7 M-2.5,-0.5L0,-3.0L2.5,-0.5"/>
                </g>
                <g id="arrowLeft" xlink:href="#dirArrow" transform="rotate(270) translate(-36 17)" onmousedown="handlePan(-1,0)">
                  <use xlink:href="#rim" fill="#404040">
                        <set attributeName="fill" to="#808080" begin="arrowLeft.mouseover" end="arrowLeft.mouseout"/>
                  </use>
                  <path fill="none" stroke="white" stroke-width="1.5" d="M0,-3.0v7 M-2.5,-0.5L0,-3.0L2.5,-0.5"/>
                </g>
        </g>
        <svg viewBox="0 0 15 15" width="100%" height="30px" preserveAspectRatio="xMaxYMin meet">
         <g id="arrow_out" transform="scale(0.3 0.3)">
          <a xlink:href="classorg_1_1libcppa_1_1WarnOrAck_a8eeec6df03e93704ac596a78d269eb3c_icgraph_org.svg" target="_base">
           <rect id="button" ry="5" rx="5" y="6" x="6" height="38" width="38"
                fill="#f2f5e9" fill-opacity="0.5" stroke="#606060" stroke-width="1.0"/>
           <path id="arrow"
             d="M 11.500037,31.436501 C 11.940474,20.09759 22.043105,11.32322 32.158766,21.979434 L 37.068811,17.246167 C 37.068811,17.246167 37.088388,32 37.088388,32 L 22.160133,31.978069 C 22.160133,31.978069 26.997745,27.140456 26.997745,27.140456 C 18.528582,18.264221 13.291696,25.230495 11.500037,31.436501 z"
             style="fill:#404040;"/>
          </a>
         </g>
        </svg>
</svg>
