<?xml version="1.0" encoding="UTF-8" standalone="no"?>
<!DOCTYPE svg PUBLIC "-//W3C//DTD SVG 1.1//EN"
 "http://www.w3.org/Graphics/SVG/1.1/DTD/svg11.dtd">
<!-- Generated by graphviz version 2.36.0 (20140111.2315)
 -->
<!-- Title: pb::Header::New Pages: 1 -->
<svg width="394pt" height="28pt"
 viewBox="0.00 0.00 394.00 28.00" xmlns="http://www.w3.org/2000/svg" xmlns:xlink="http://www.w3.org/1999/xlink">
<g id="graph0" class="graph" transform="scale(1 1) rotate(0) translate(4 24)">
<title>pb::Header::New</title>
<!-- Node1 -->
<g id="node1" class="node"><title>Node1</title>
<polygon fill="#bfbfbf" stroke="black" points="0.5,-0.5 0.5,-19.5 91.5,-19.5 91.5,-0.5 0.5,-0.5"/>
<text text-anchor="middle" x="46" y="-7.5" font-family="Helvetica,sans-Serif" font-size="10.00">pb::Header::New</text>
</g>
<!-- Node2 -->
<g id="node2" class="node"><title>Node2</title>
<g id="a_node2"><a xlink:href="classpb_1_1Header.html#a92c6c1fc9b1635d2b28e0e7f4beea6fb" target="_top" xlink:title="pb::Header::Header">
<polygon fill="none" stroke="black" points="128,-0.5 128,-19.5 230,-19.5 230,-0.5 128,-0.5"/>
<text text-anchor="middle" x="179" y="-7.5" font-family="Helvetica,sans-Serif" font-size="10.00">pb::Header::Header</text>
</a>
</g>
</g>
<!-- Node1&#45;&gt;Node2 -->
<g id="edge1" class="edge"><title>Node1&#45;&gt;Node2</title>
<path fill="none" stroke="midnightblue" d="M91.7164,-10C100.027,-10 108.836,-10 117.526,-10"/>
<polygon fill="midnightblue" stroke="midnightblue" points="117.636,-13.5001 127.636,-10 117.636,-6.5001 117.636,-13.5001"/>
</g>
<!-- Node3 -->
<g id="node3" class="node"><title>Node3</title>
<g id="a_node3"><a xlink:href="classpb_1_1Header.html#aa11f894acf637345dabd538d9600c3d1" target="_top" xlink:title="pb::Header::SharedCtor">
<polygon fill="none" stroke="black" points="266,-0.5 266,-19.5 386,-19.5 386,-0.5 266,-0.5"/>
<text text-anchor="middle" x="326" y="-7.5" font-family="Helvetica,sans-Serif" font-size="10.00">pb::Header::SharedCtor</text>
</a>
</g>
</g>
<!-- Node2&#45;&gt;Node3 -->
<g id="edge2" class="edge"><title>Node2&#45;&gt;Node3</title>
<path fill="none" stroke="midnightblue" d="M230.307,-10C238.538,-10 247.191,-10 255.782,-10"/>
<polygon fill="midnightblue" stroke="midnightblue" points="255.811,-13.5001 265.811,-10 255.811,-6.5001 255.811,-13.5001"/>
</g>
</g>
</svg>
