<?xml version="1.0" encoding="UTF-8" standalone="no"?>
<!DOCTYPE svg PUBLIC "-//W3C//DTD SVG 1.1//EN"
 "http://www.w3.org/Graphics/SVG/1.1/DTD/svg11.dtd">
<!-- Generated by graphviz version 2.36.0 (20140111.2315)
 -->
<!-- Title: B Pages: 1 -->
<svg width="36pt" height="140pt"
 viewBox="0.00 0.00 36.00 140.00" xmlns="http://www.w3.org/2000/svg" xmlns:xlink="http://www.w3.org/1999/xlink">
<g id="graph0" class="graph" transform="scale(1 1) rotate(0) translate(4 136)">
<title>B</title>
<!-- Node1 -->
<g id="node1" class="node"><title>Node1</title>
<polygon fill="#bfbfbf" stroke="black" points="-0.5,-112.5 -0.5,-131.5 28.5,-131.5 28.5,-112.5 -0.5,-112.5"/>
<text text-anchor="middle" x="14" y="-119.5" font-family="Helvetica,sans-Serif" font-size="10.00">B</text>
</g>
<!-- Node2 -->
<g id="node2" class="node"><title>Node2</title>
<g id="a_node2"><a xlink:href="classD.html" target="_top" xlink:title="D">
<polygon fill="none" stroke="black" points="-0.5,-56.5 -0.5,-75.5 28.5,-75.5 28.5,-56.5 -0.5,-56.5"/>
<text text-anchor="middle" x="14" y="-63.5" font-family="Helvetica,sans-Serif" font-size="10.00">D</text>
</a>
</g>
</g>
<!-- Node1&#45;&gt;Node2 -->
<g id="edge1" class="edge"><title>Node1&#45;&gt;Node2</title>
<path fill="none" stroke="#8b1a1a" d="M14,-101.805C14,-92.9102 14,-82.7798 14,-75.7511"/>
<polygon fill="#8b1a1a" stroke="#8b1a1a" points="10.5001,-102.083 14,-112.083 17.5001,-102.083 10.5001,-102.083"/>
</g>
<!-- Node3 -->
<g id="node3" class="node"><title>Node3</title>
<g id="a_node3"><a xlink:href="classE.html" target="_top" xlink:title="E">
<polygon fill="none" stroke="black" points="-0.5,-0.5 -0.5,-19.5 28.5,-19.5 28.5,-0.5 -0.5,-0.5"/>
<text text-anchor="middle" x="14" y="-7.5" font-family="Helvetica,sans-Serif" font-size="10.00">E</text>
</a>
</g>
</g>
<!-- Node2&#45;&gt;Node3 -->
<g id="edge2" class="edge"><title>Node2&#45;&gt;Node3</title>
<path fill="none" stroke="midnightblue" d="M14,-45.8045C14,-36.9102 14,-26.7798 14,-19.7511"/>
<polygon fill="midnightblue" stroke="midnightblue" points="10.5001,-46.083 14,-56.083 17.5001,-46.083 10.5001,-46.083"/>
</g>
</g>
</svg>
