<?xml version="1.0" encoding="UTF-8" standalone="no"?>
<!DOCTYPE svg PUBLIC "-//W3C//DTD SVG 1.1//EN"
 "http://www.w3.org/Graphics/SVG/1.1/DTD/svg11.dtd">
<!-- Generated by graphviz version 2.36.0 (20140111.2315)
 -->
<!-- Title: csCommunication::Warning::InitAsDefaultInstance Pages: 1 -->
<svg width="536pt" height="121pt"
 viewBox="0.00 0.00 536.00 121.00" xmlns="http://www.w3.org/2000/svg" xmlns:xlink="http://www.w3.org/1999/xlink">
<g id="graph0" class="graph" transform="scale(1 1) rotate(0) translate(4 117)">
<title>csCommunication::Warning::InitAsDefaultInstance</title>
<!-- Node1 -->
<g id="node1" class="node"><title>Node1</title>
<polygon fill="#bfbfbf" stroke="black" points="0.5,-44 0.5,-74 137.5,-74 137.5,-44 0.5,-44"/>
<text text-anchor="start" x="8.5" y="-62" font-family="Helvetica,sans-Serif" font-size="10.00">csCommunication::Warning</text>
<text text-anchor="middle" x="69" y="-51" font-family="Helvetica,sans-Serif" font-size="10.00">::InitAsDefaultInstance</text>
</g>
<!-- Node2 -->
<g id="node2" class="node"><title>Node2</title>
<g id="a_node2"><a xlink:href="namespacecsCommunication.html#a471b86a61dea94fd37e946769fe44656" target="_top" xlink:title="csCommunication::protobuf\l_AddDesc_csCommunication\l_2eproto">
<polygon fill="none" stroke="black" points="174,-38.5 174,-79.5 320,-79.5 320,-38.5 174,-38.5"/>
<text text-anchor="start" x="182" y="-67.5" font-family="Helvetica,sans-Serif" font-size="10.00">csCommunication::protobuf</text>
<text text-anchor="start" x="182" y="-56.5" font-family="Helvetica,sans-Serif" font-size="10.00">_AddDesc_csCommunication</text>
<text text-anchor="middle" x="247" y="-45.5" font-family="Helvetica,sans-Serif" font-size="10.00">_2eproto</text>
</a>
</g>
</g>
<!-- Node1&#45;&gt;Node2 -->
<g id="edge1" class="edge"><title>Node1&#45;&gt;Node2</title>
<path fill="none" stroke="midnightblue" d="M147.708,-59C156.439,-59 165.307,-59 173.962,-59"/>
<polygon fill="midnightblue" stroke="midnightblue" points="147.543,-55.5001 137.543,-59 147.543,-62.5001 147.543,-55.5001"/>
</g>
<!-- Node3 -->
<g id="node3" class="node"><title>Node3</title>
<g id="a_node3"><a xlink:href="namespacecsCommunication.html#ab524cfc3c7620943f3cdb034dda20b35" target="_top" xlink:title="csCommunication::protobuf\l_AssignDesc_csCommunication\l_2eproto">
<polygon fill="none" stroke="black" points="362.5,-71.5 362.5,-112.5 521.5,-112.5 521.5,-71.5 362.5,-71.5"/>
<text text-anchor="start" x="370.5" y="-100.5" font-family="Helvetica,sans-Serif" font-size="10.00">csCommunication::protobuf</text>
<text text-anchor="start" x="370.5" y="-89.5" font-family="Helvetica,sans-Serif" font-size="10.00">_AssignDesc_csCommunication</text>
<text text-anchor="middle" x="442" y="-78.5" font-family="Helvetica,sans-Serif" font-size="10.00">_2eproto</text>
</a>
</g>
</g>
<!-- Node2&#45;&gt;Node3 -->
<g id="edge2" class="edge"><title>Node2&#45;&gt;Node3</title>
<path fill="none" stroke="midnightblue" d="M330.283,-73.0692C340.957,-74.8942 351.867,-76.7597 362.477,-78.5738"/>
<polygon fill="midnightblue" stroke="midnightblue" points="330.587,-69.5704 320.141,-71.3349 329.408,-76.4703 330.587,-69.5704"/>
</g>
<!-- Node4 -->
<g id="node4" class="node"><title>Node4</title>
<g id="a_node4"><a xlink:href="structcsCommunication_1_1StaticDescriptorInitializer__csCommunication__2eproto.html#a1467f463493d9d9cafb69d302fa3f71d" target="_top" xlink:title="csCommunication::StaticDescriptor\lInitializer_csCommunication\l_2eproto::StaticDescriptorInitializer\l_csCommunication_2eproto">
<polygon fill="none" stroke="black" points="356,-0 356,-52 528,-52 528,-0 356,-0"/>
<text text-anchor="start" x="364" y="-40" font-family="Helvetica,sans-Serif" font-size="10.00">csCommunication::StaticDescriptor</text>
<text text-anchor="start" x="364" y="-29" font-family="Helvetica,sans-Serif" font-size="10.00">Initializer_csCommunication</text>
<text text-anchor="start" x="364" y="-18" font-family="Helvetica,sans-Serif" font-size="10.00">_2eproto::StaticDescriptorInitializer</text>
<text text-anchor="middle" x="442" y="-7" font-family="Helvetica,sans-Serif" font-size="10.00">_csCommunication_2eproto</text>
</a>
</g>
</g>
<!-- Node2&#45;&gt;Node4 -->
<g id="edge3" class="edge"><title>Node2&#45;&gt;Node4</title>
<path fill="none" stroke="midnightblue" d="M330.092,-44.9636C338.643,-43.5015 347.349,-42.0129 355.932,-40.5453"/>
<polygon fill="midnightblue" stroke="midnightblue" points="329.408,-41.5297 320.141,-46.6651 330.587,-48.4296 329.408,-41.5297"/>
</g>
</g>
</svg>
