<?xml version="1.0" encoding="UTF-8" standalone="no"?>
<!DOCTYPE svg PUBLIC "-//W3C//DTD SVG 1.1//EN"
 "http://www.w3.org/Graphics/SVG/1.1/DTD/svg11.dtd">
<!-- Generated by graphviz version 2.36.0 (20140111.2315)
 -->
<!-- Title: org::libcppa::ack::MergeFrom Pages: 1 -->
<svg width="382pt" height="77pt"
 viewBox="0.00 0.00 382.00 77.00" xmlns="http://www.w3.org/2000/svg" xmlns:xlink="http://www.w3.org/1999/xlink">
<g id="graph0" class="graph" transform="scale(1 1) rotate(0) translate(4 73)">
<title>org::libcppa::ack::MergeFrom</title>
<!-- Node1 -->
<g id="node1" class="node"><title>Node1</title>
<polygon fill="#bfbfbf" stroke="black" points="0.5,-22 0.5,-52 95.5,-52 95.5,-22 0.5,-22"/>
<text text-anchor="start" x="8.5" y="-40" font-family="Helvetica,sans-Serif" font-size="10.00">org::libcppa::ack::</text>
<text text-anchor="middle" x="48" y="-29" font-family="Helvetica,sans-Serif" font-size="10.00">MergeFrom</text>
</g>
<!-- Node2 -->
<g id="node2" class="node"><title>Node2</title>
<g id="a_node2"><a xlink:href="classorg_1_1libcppa_1_1ack.html#af5efc2651ce9e41bdc22ff5cb55e8098" target="_top" xlink:title="org::libcppa::ack::ack">
<polygon fill="none" stroke="black" points="132,-49.5 132,-68.5 242,-68.5 242,-49.5 132,-49.5"/>
<text text-anchor="middle" x="187" y="-56.5" font-family="Helvetica,sans-Serif" font-size="10.00">org::libcppa::ack::ack</text>
</a>
</g>
</g>
<!-- Node1&#45;&gt;Node2 -->
<g id="edge1" class="edge"><title>Node1&#45;&gt;Node2</title>
<path fill="none" stroke="midnightblue" d="M105.762,-46.115C114.408,-47.5035 123.311,-48.9332 131.899,-50.3122"/>
<polygon fill="midnightblue" stroke="midnightblue" points="106.193,-42.6395 95.7645,-44.5096 105.083,-49.551 106.193,-42.6395"/>
</g>
<!-- Node3 -->
<g id="node3" class="node"><title>Node3</title>
<g id="a_node3"><a xlink:href="classorg_1_1libcppa_1_1ack.html#a4ab15a61e96f2fda4e3bf2fed03f3af7" target="_top" xlink:title="org::libcppa::ack::\lCopyFrom">
<polygon fill="none" stroke="black" points="139.5,-0 139.5,-30 234.5,-30 234.5,-0 139.5,-0"/>
<text text-anchor="start" x="147.5" y="-18" font-family="Helvetica,sans-Serif" font-size="10.00">org::libcppa::ack::</text>
<text text-anchor="middle" x="187" y="-7" font-family="Helvetica,sans-Serif" font-size="10.00">CopyFrom</text>
</a>
</g>
</g>
<!-- Node1&#45;&gt;Node3 -->
<g id="edge2" class="edge"><title>Node1&#45;&gt;Node3</title>
<path fill="none" stroke="midnightblue" d="M105.875,-27.8668C117.052,-26.0719 128.656,-24.2086 139.446,-22.4758"/>
<polygon fill="midnightblue" stroke="midnightblue" points="105.083,-24.449 95.7645,-29.4904 106.193,-31.3605 105.083,-24.449"/>
</g>
<!-- Node4 -->
<g id="node4" class="node"><title>Node4</title>
<g id="a_node4"><a xlink:href="classorg_1_1libcppa_1_1ack.html#a7fb746274a8bb4c448946589cf6ce3d1" target="_top" xlink:title="org::libcppa::ack::\loperator=">
<polygon fill="none" stroke="black" points="278.5,-0 278.5,-30 373.5,-30 373.5,-0 278.5,-0"/>
<text text-anchor="start" x="286.5" y="-18" font-family="Helvetica,sans-Serif" font-size="10.00">org::libcppa::ack::</text>
<text text-anchor="middle" x="326" y="-7" font-family="Helvetica,sans-Serif" font-size="10.00">operator=</text>
</a>
</g>
</g>
<!-- Node3&#45;&gt;Node4 -->
<g id="edge3" class="edge"><title>Node3&#45;&gt;Node4</title>
<path fill="none" stroke="midnightblue" d="M244.875,-15C256.052,-15 267.656,-15 278.446,-15"/>
<polygon fill="midnightblue" stroke="midnightblue" points="244.764,-11.5001 234.764,-15 244.764,-18.5001 244.764,-11.5001"/>
</g>
</g>
</svg>
