<?xml version="1.0" encoding="UTF-8" standalone="no"?>
<!DOCTYPE svg PUBLIC "-//W3C//DTD SVG 1.1//EN"
 "http://www.w3.org/Graphics/SVG/1.1/DTD/svg11.dtd">
<!-- Generated by graphviz version 2.36.0 (20140111.2315)
 -->
<!-- Title: Image::GetImagePayload Pages: 1 -->
<svg width="632pt" height="77pt"
 viewBox="0.00 0.00 632.00 77.00" xmlns="http://www.w3.org/2000/svg" xmlns:xlink="http://www.w3.org/1999/xlink">
<g id="graph0" class="graph" transform="scale(1 1) rotate(0) translate(4 73)">
<title>Image::GetImagePayload</title>
<!-- Node1 -->
<g id="node1" class="node"><title>Node1</title>
<polygon fill="#bfbfbf" stroke="black" points="0,-22.5 0,-41.5 128,-41.5 128,-22.5 0,-22.5"/>
<text text-anchor="middle" x="64" y="-29.5" font-family="Helvetica,sans-Serif" font-size="10.00">Image::GetImagePayload</text>
</g>
<!-- Node2 -->
<g id="node2" class="node"><title>Node2</title>
<g id="a_node2"><a xlink:href="classImage.html#a7377f0e785df116fbdb53651006fcb67" target="_top" xlink:title="Image::GetRGBImage">
<polygon fill="none" stroke="black" points="164,-22.5 164,-41.5 278,-41.5 278,-22.5 164,-22.5"/>
<text text-anchor="middle" x="221" y="-29.5" font-family="Helvetica,sans-Serif" font-size="10.00">Image::GetRGBImage</text>
</a>
</g>
</g>
<!-- Node1&#45;&gt;Node2 -->
<g id="edge1" class="edge"><title>Node1&#45;&gt;Node2</title>
<path fill="none" stroke="midnightblue" d="M138.172,-32C146.85,-32 155.601,-32 163.987,-32"/>
<polygon fill="midnightblue" stroke="midnightblue" points="138.044,-28.5001 128.044,-32 138.044,-35.5001 138.044,-28.5001"/>
</g>
<!-- Node3 -->
<g id="node3" class="node"><title>Node3</title>
<g id="a_node3"><a xlink:href="classController.html#afd6375744f4f31dd254d1e5f1316ff4b" target="_top" xlink:title="Controller::SaveAllImages\lAsJPEG">
<polygon fill="none" stroke="black" points="314.5,-39 314.5,-69 445.5,-69 445.5,-39 314.5,-39"/>
<text text-anchor="start" x="322.5" y="-57" font-family="Helvetica,sans-Serif" font-size="10.00">Controller::SaveAllImages</text>
<text text-anchor="middle" x="380" y="-46" font-family="Helvetica,sans-Serif" font-size="10.00">AsJPEG</text>
</a>
</g>
</g>
<!-- Node2&#45;&gt;Node3 -->
<g id="edge2" class="edge"><title>Node2&#45;&gt;Node3</title>
<path fill="none" stroke="midnightblue" d="M288.256,-41.2843C296.892,-42.4944 305.73,-43.7329 314.339,-44.9393"/>
<polygon fill="midnightblue" stroke="midnightblue" points="288.626,-37.802 278.237,-39.8804 287.655,-44.7343 288.626,-37.802"/>
</g>
<!-- Node4 -->
<g id="node4" class="node"><title>Node4</title>
<g id="a_node4"><a xlink:href="classImageView.html#a837a13b1002126beb39dc9425151123c" target="_top" xlink:title="ImageView::ShowImage">
<polygon fill="none" stroke="black" points="318.5,-0.5 318.5,-19.5 441.5,-19.5 441.5,-0.5 318.5,-0.5"/>
<text text-anchor="middle" x="380" y="-7.5" font-family="Helvetica,sans-Serif" font-size="10.00">ImageView::ShowImage</text>
</a>
</g>
</g>
<!-- Node2&#45;&gt;Node4 -->
<g id="edge3" class="edge"><title>Node2&#45;&gt;Node4</title>
<path fill="none" stroke="midnightblue" d="M288.146,-22.7312C298.171,-21.3263 308.473,-19.8828 318.373,-18.4954"/>
<polygon fill="midnightblue" stroke="midnightblue" points="287.655,-19.2657 278.237,-24.1196 288.626,-26.198 287.655,-19.2657"/>
</g>
<!-- Node5 -->
<g id="node5" class="node"><title>Node5</title>
<g id="a_node5"><a xlink:href="classController.html#aee012beb2309ae88b7278fa3dad06d80" target="_top" xlink:title="Controller::PlayHDFAsVideo">
<polygon fill="none" stroke="black" points="482,-0.5 482,-19.5 624,-19.5 624,-0.5 482,-0.5"/>
<text text-anchor="middle" x="553" y="-7.5" font-family="Helvetica,sans-Serif" font-size="10.00">Controller::PlayHDFAsVideo</text>
</a>
</g>
</g>
<!-- Node4&#45;&gt;Node5 -->
<g id="edge4" class="edge"><title>Node4&#45;&gt;Node5</title>
<path fill="none" stroke="midnightblue" d="M451.936,-10C461.805,-10 471.942,-10 481.798,-10"/>
<polygon fill="midnightblue" stroke="midnightblue" points="451.77,-6.5001 441.77,-10 451.77,-13.5001 451.77,-6.5001"/>
</g>
</g>
</svg>
