<?xml version="1.0" encoding="UTF-8" standalone="no"?>
<!DOCTYPE svg PUBLIC "-//W3C//DTD SVG 1.1//EN"
 "http://www.w3.org/Graphics/SVG/1.1/DTD/svg11.dtd">
<!-- Generated by graphviz version 2.36.0 (20140111.2315)
 -->
<!-- Title: org::libcppa::WarnOrAck::InitAsDefaultInstance Pages: 1 -->
<svg width="276pt" height="87pt"
 viewBox="0.00 0.00 276.00 87.00" xmlns="http://www.w3.org/2000/svg" xmlns:xlink="http://www.w3.org/1999/xlink">
<g id="graph0" class="graph" transform="scale(1 1) rotate(0) translate(4 83)">
<title>org::libcppa::WarnOrAck::InitAsDefaultInstance</title>
<!-- Node1 -->
<g id="node1" class="node"><title>Node1</title>
<polygon fill="#bfbfbf" stroke="black" points="0,-24 0,-54 124,-54 124,-24 0,-24"/>
<text text-anchor="start" x="8" y="-42" font-family="Helvetica,sans-Serif" font-size="10.00">org::libcppa::WarnOrAck</text>
<text text-anchor="middle" x="62" y="-31" font-family="Helvetica,sans-Serif" font-size="10.00">::InitAsDefaultInstance</text>
</g>
<!-- Node2 -->
<g id="node2" class="node"><title>Node2</title>
<g id="a_node2"><a xlink:href="classorg_1_1libcppa_1_1warning.html#a520ebddd2bddd7c612e65024f09aa947" target="_top" xlink:title="org::libcppa::warning\l::default_instance">
<polygon fill="none" stroke="black" points="160.5,-49 160.5,-79 267.5,-79 267.5,-49 160.5,-49"/>
<text text-anchor="start" x="168.5" y="-67" font-family="Helvetica,sans-Serif" font-size="10.00">org::libcppa::warning</text>
<text text-anchor="middle" x="214" y="-56" font-family="Helvetica,sans-Serif" font-size="10.00">::default_instance</text>
</a>
</g>
</g>
<!-- Node1&#45;&gt;Node2 -->
<g id="edge1" class="edge"><title>Node1&#45;&gt;Node2</title>
<path fill="none" stroke="midnightblue" d="M124.011,-49.1685C132.639,-50.6065 141.523,-52.0872 150.184,-53.5307"/>
<polygon fill="midnightblue" stroke="midnightblue" points="149.782,-57.0118 160.221,-55.2035 150.933,-50.1071 149.782,-57.0118"/>
</g>
<!-- Node3 -->
<g id="node3" class="node"><title>Node3</title>
<g id="a_node3"><a xlink:href="classorg_1_1libcppa_1_1ack.html#a916412f45f069dc3462757e2d1b86e1c" target="_top" xlink:title="org::libcppa::ack::\ldefault_instance">
<polygon fill="none" stroke="black" points="166.5,-0 166.5,-30 261.5,-30 261.5,-0 166.5,-0"/>
<text text-anchor="start" x="174.5" y="-18" font-family="Helvetica,sans-Serif" font-size="10.00">org::libcppa::ack::</text>
<text text-anchor="middle" x="214" y="-7" font-family="Helvetica,sans-Serif" font-size="10.00">default_instance</text>
</a>
</g>
</g>
<!-- Node1&#45;&gt;Node3 -->
<g id="edge2" class="edge"><title>Node1&#45;&gt;Node3</title>
<path fill="none" stroke="midnightblue" d="M124.011,-29.2383C134.706,-27.5271 145.794,-25.7529 156.365,-24.0617"/>
<polygon fill="midnightblue" stroke="midnightblue" points="156.989,-27.5064 166.31,-22.4704 155.883,-20.5943 156.989,-27.5064"/>
</g>
</g>
</svg>
