<?xml version="1.0" encoding="UTF-8" standalone="no"?>
<!DOCTYPE svg PUBLIC "-//W3C//DTD SVG 1.1//EN"
 "http://www.w3.org/Graphics/SVG/1.1/DTD/svg11.dtd">
<!-- Generated by graphviz version 2.36.0 (20140111.2315)
 -->
<!-- Title: org::libcppa::ack::Clear Pages: 1 -->
<svg width="368pt" height="38pt"
 viewBox="0.00 0.00 368.00 38.00" xmlns="http://www.w3.org/2000/svg" xmlns:xlink="http://www.w3.org/1999/xlink">
<g id="graph0" class="graph" transform="scale(1 1) rotate(0) translate(4 34)">
<title>org::libcppa::ack::Clear</title>
<!-- Node1 -->
<g id="node1" class="node"><title>Node1</title>
<polygon fill="#bfbfbf" stroke="black" points="0.5,-0 0.5,-30 95.5,-30 95.5,-0 0.5,-0"/>
<text text-anchor="start" x="8.5" y="-18" font-family="Helvetica,sans-Serif" font-size="10.00">org::libcppa::ack::</text>
<text text-anchor="middle" x="48" y="-7" font-family="Helvetica,sans-Serif" font-size="10.00">Clear</text>
</g>
<!-- Node2 -->
<g id="node2" class="node"><title>Node2</title>
<g id="a_node2"><a xlink:href="classorg_1_1libcppa_1_1ack.html#a4ab15a61e96f2fda4e3bf2fed03f3af7" target="_top" xlink:title="org::libcppa::ack::\lCopyFrom">
<polygon fill="none" stroke="black" points="132.5,-0 132.5,-30 227.5,-30 227.5,-0 132.5,-0"/>
<text text-anchor="start" x="140.5" y="-18" font-family="Helvetica,sans-Serif" font-size="10.00">org::libcppa::ack::</text>
<text text-anchor="middle" x="180" y="-7" font-family="Helvetica,sans-Serif" font-size="10.00">CopyFrom</text>
</a>
</g>
</g>
<!-- Node1&#45;&gt;Node2 -->
<g id="edge1" class="edge"><title>Node1&#45;&gt;Node2</title>
<path fill="none" stroke="midnightblue" d="M105.822,-15C114.673,-15 123.73,-15 132.322,-15"/>
<polygon fill="midnightblue" stroke="midnightblue" points="105.566,-11.5001 95.5658,-15 105.566,-18.5001 105.566,-11.5001"/>
</g>
<!-- Node3 -->
<g id="node3" class="node"><title>Node3</title>
<g id="a_node3"><a xlink:href="classorg_1_1libcppa_1_1ack.html#a7fb746274a8bb4c448946589cf6ce3d1" target="_top" xlink:title="org::libcppa::ack::\loperator=">
<polygon fill="none" stroke="black" points="264.5,-0 264.5,-30 359.5,-30 359.5,-0 264.5,-0"/>
<text text-anchor="start" x="272.5" y="-18" font-family="Helvetica,sans-Serif" font-size="10.00">org::libcppa::ack::</text>
<text text-anchor="middle" x="312" y="-7" font-family="Helvetica,sans-Serif" font-size="10.00">operator=</text>
</a>
</g>
</g>
<!-- Node2&#45;&gt;Node3 -->
<g id="edge2" class="edge"><title>Node2&#45;&gt;Node3</title>
<path fill="none" stroke="midnightblue" d="M237.822,-15C246.673,-15 255.73,-15 264.322,-15"/>
<polygon fill="midnightblue" stroke="midnightblue" points="237.566,-11.5001 227.566,-15 237.566,-18.5001 237.566,-11.5001"/>
</g>
</g>
</svg>
