<?xml version="1.0" encoding="UTF-8" standalone="no"?>
<!DOCTYPE svg PUBLIC "-//W3C//DTD SVG 1.1//EN"
 "http://www.w3.org/Graphics/SVG/1.1/DTD/svg11.dtd">
<!-- Generated by graphviz version 2.36.0 (20140111.2315)
 -->
<!-- Title: pb::SensorNearData::MFC::CameraImage::Clear Pages: 1 -->
<svg width="310pt" height="229pt"
 viewBox="0.00 0.00 310.00 229.00" xmlns="http://www.w3.org/2000/svg" xmlns:xlink="http://www.w3.org/1999/xlink">
<g id="graph0" class="graph" transform="scale(1 1) rotate(0) translate(4 225)">
<title>pb::SensorNearData::MFC::CameraImage::Clear</title>
<!-- Node1 -->
<g id="node1" class="node"><title>Node1</title>
<polygon fill="#bfbfbf" stroke="black" points="0.5,-95 0.5,-125 141.5,-125 141.5,-95 0.5,-95"/>
<text text-anchor="start" x="8.5" y="-113" font-family="Helvetica,sans-Serif" font-size="10.00">pb::SensorNearData</text>
<text text-anchor="middle" x="71" y="-102" font-family="Helvetica,sans-Serif" font-size="10.00">::MFC::CameraImage::Clear</text>
</g>
<!-- Node2 -->
<g id="node2" class="node"><title>Node2</title>
<g id="a_node2"><a xlink:href="classpb_1_1SensorNearData_1_1MFC_1_1CameraImage.html#a0d5dce7ebc7c3620d52b36c5cc20f0f7" target="_top" xlink:title="pb::SensorNearData\l::MFC::CameraImage::\lhas_header">
<polygon fill="none" stroke="black" points="181,-179.5 181,-220.5 299,-220.5 299,-179.5 181,-179.5"/>
<text text-anchor="start" x="189" y="-208.5" font-family="Helvetica,sans-Serif" font-size="10.00">pb::SensorNearData</text>
<text text-anchor="start" x="189" y="-197.5" font-family="Helvetica,sans-Serif" font-size="10.00">::MFC::CameraImage::</text>
<text text-anchor="middle" x="240" y="-186.5" font-family="Helvetica,sans-Serif" font-size="10.00">has_header</text>
</a>
</g>
</g>
<!-- Node1&#45;&gt;Node2 -->
<g id="edge1" class="edge"><title>Node1&#45;&gt;Node2</title>
<path fill="none" stroke="midnightblue" d="M98.4213,-125.07C119.775,-137.161 150.669,-154.455 178,-169 181.498,-170.862 185.121,-172.765 188.776,-174.666"/>
<polygon fill="midnightblue" stroke="midnightblue" points="187.384,-177.887 197.875,-179.367 190.597,-171.668 187.384,-177.887"/>
</g>
<!-- Node3 -->
<g id="node3" class="node"><title>Node3</title>
<g id="a_node3"><a xlink:href="classpb_1_1SensorNearData_1_1MFC_1_1CameraImage.html#a560c780e9167af2f055e5e46bb66ea83" target="_top" xlink:title="pb::SensorNearData\l::MFC::CameraImage::\lhas_image_payload">
<polygon fill="none" stroke="black" points="181,-119.5 181,-160.5 299,-160.5 299,-119.5 181,-119.5"/>
<text text-anchor="start" x="189" y="-148.5" font-family="Helvetica,sans-Serif" font-size="10.00">pb::SensorNearData</text>
<text text-anchor="start" x="189" y="-137.5" font-family="Helvetica,sans-Serif" font-size="10.00">::MFC::CameraImage::</text>
<text text-anchor="middle" x="240" y="-126.5" font-family="Helvetica,sans-Serif" font-size="10.00">has_image_payload</text>
</a>
</g>
</g>
<!-- Node1&#45;&gt;Node3 -->
<g id="edge2" class="edge"><title>Node1&#45;&gt;Node3</title>
<path fill="none" stroke="midnightblue" d="M141.855,-122.549C151.474,-124.277 161.341,-126.049 170.927,-127.771"/>
<polygon fill="midnightblue" stroke="midnightblue" points="170.332,-131.22 180.793,-129.544 171.569,-124.331 170.332,-131.22"/>
</g>
<!-- Node4 -->
<g id="node4" class="node"><title>Node4</title>
<g id="a_node4"><a xlink:href="classpb_1_1SensorNearData_1_1MFC_1_1CameraImage.html#a9d590baab4806ea1ee3b3598c3f2d813" target="_top" xlink:title="pb::SensorNearData\l::MFC::CameraImage::\lhas_bmp_image">
<polygon fill="none" stroke="black" points="181,-59.5 181,-100.5 299,-100.5 299,-59.5 181,-59.5"/>
<text text-anchor="start" x="189" y="-88.5" font-family="Helvetica,sans-Serif" font-size="10.00">pb::SensorNearData</text>
<text text-anchor="start" x="189" y="-77.5" font-family="Helvetica,sans-Serif" font-size="10.00">::MFC::CameraImage::</text>
<text text-anchor="middle" x="240" y="-66.5" font-family="Helvetica,sans-Serif" font-size="10.00">has_bmp_image</text>
</a>
</g>
</g>
<!-- Node1&#45;&gt;Node4 -->
<g id="edge3" class="edge"><title>Node1&#45;&gt;Node4</title>
<path fill="none" stroke="midnightblue" d="M141.855,-97.4511C151.474,-95.7232 161.341,-93.9507 170.927,-92.2286"/>
<polygon fill="midnightblue" stroke="midnightblue" points="171.569,-95.6694 180.793,-90.4563 170.332,-88.7797 171.569,-95.6694"/>
</g>
<!-- Node5 -->
<g id="node5" class="node"><title>Node5</title>
<g id="a_node5"><a xlink:href="classpb_1_1SensorNearData_1_1MFC_1_1CameraImage.html#af96b3cfe11bf7100c887c641f494bc0b" target="_top" xlink:title="pb::SensorNearData\l::MFC::CameraImage::\lmutable_unknown_fields">
<polygon fill="none" stroke="black" points="178,0.5 178,-40.5 302,-40.5 302,0.5 178,0.5"/>
<text text-anchor="start" x="186" y="-28.5" font-family="Helvetica,sans-Serif" font-size="10.00">pb::SensorNearData</text>
<text text-anchor="start" x="186" y="-17.5" font-family="Helvetica,sans-Serif" font-size="10.00">::MFC::CameraImage::</text>
<text text-anchor="middle" x="240" y="-6.5" font-family="Helvetica,sans-Serif" font-size="10.00">mutable_unknown_fields</text>
</a>
</g>
</g>
<!-- Node1&#45;&gt;Node5 -->
<g id="edge4" class="edge"><title>Node1&#45;&gt;Node5</title>
<path fill="none" stroke="midnightblue" d="M97.9043,-94.7804C119.224,-82.3897 150.328,-64.6204 178,-50 181.067,-48.3796 184.234,-46.7359 187.437,-45.0955"/>
<polygon fill="midnightblue" stroke="midnightblue" points="189.167,-48.1428 196.508,-40.5037 186.005,-41.8974 189.167,-48.1428"/>
</g>
</g>
</svg>
