<?xml version="1.0" encoding="UTF-8" standalone="no"?>
<!DOCTYPE svg PUBLIC "-//W3C//DTD SVG 1.1//EN"
 "http://www.w3.org/Graphics/SVG/1.1/DTD/svg11.dtd">
<!-- Generated by graphviz version 2.36.0 (20140111.2315)
 -->
<!-- Title: csCommunication::Warning::CopyFrom Pages: 1 -->
<svg width="494pt" height="111pt"
 viewBox="0.00 0.00 494.00 111.00" xmlns="http://www.w3.org/2000/svg" xmlns:xlink="http://www.w3.org/1999/xlink">
<g id="graph0" class="graph" transform="scale(1 1) rotate(0) translate(4 107)">
<title>csCommunication::Warning::CopyFrom</title>
<!-- Node1 -->
<g id="node1" class="node"><title>Node1</title>
<polygon fill="#bfbfbf" stroke="black" points="0.5,-24 0.5,-54 137.5,-54 137.5,-24 0.5,-24"/>
<text text-anchor="start" x="8.5" y="-42" font-family="Helvetica,sans-Serif" font-size="10.00">csCommunication::Warning</text>
<text text-anchor="middle" x="69" y="-31" font-family="Helvetica,sans-Serif" font-size="10.00">::CopyFrom</text>
</g>
<!-- Node2 -->
<g id="node2" class="node"><title>Node2</title>
<g id="a_node2"><a xlink:href="classcsCommunication_1_1Warning.html#addb3a7c1a7886e53738ae92de96d00d3" target="_top" xlink:title="csCommunication::Warning\l::Clear">
<polygon fill="none" stroke="black" points="174.5,-49 174.5,-79 311.5,-79 311.5,-49 174.5,-49"/>
<text text-anchor="start" x="182.5" y="-67" font-family="Helvetica,sans-Serif" font-size="10.00">csCommunication::Warning</text>
<text text-anchor="middle" x="243" y="-56" font-family="Helvetica,sans-Serif" font-size="10.00">::Clear</text>
</a>
</g>
</g>
<!-- Node1&#45;&gt;Node2 -->
<g id="edge1" class="edge"><title>Node1&#45;&gt;Node2</title>
<path fill="none" stroke="midnightblue" d="M137.979,-48.8807C146.55,-50.1265 155.372,-51.4087 164.082,-52.6746"/>
<polygon fill="midnightblue" stroke="midnightblue" points="163.834,-56.1753 174.233,-54.1502 164.841,-49.2481 163.834,-56.1753"/>
</g>
<!-- Node5 -->
<g id="node5" class="node"><title>Node5</title>
<g id="a_node5"><a xlink:href="classcsCommunication_1_1Warning.html#ac88882748f21db5edda9b3d7492118a0" target="_top" xlink:title="csCommunication::Warning\l::MergeFrom">
<polygon fill="none" stroke="black" points="174.5,-0 174.5,-30 311.5,-30 311.5,-0 174.5,-0"/>
<text text-anchor="start" x="182.5" y="-18" font-family="Helvetica,sans-Serif" font-size="10.00">csCommunication::Warning</text>
<text text-anchor="middle" x="243" y="-7" font-family="Helvetica,sans-Serif" font-size="10.00">::MergeFrom</text>
</a>
</g>
</g>
<!-- Node1&#45;&gt;Node5 -->
<g id="edge4" class="edge"><title>Node1&#45;&gt;Node5</title>
<path fill="none" stroke="midnightblue" d="M137.979,-29.5146C146.55,-28.3186 155.372,-27.0877 164.082,-25.8723"/>
<polygon fill="midnightblue" stroke="midnightblue" points="164.813,-29.3043 174.233,-24.4558 163.845,-22.3715 164.813,-29.3043"/>
</g>
<!-- Node3 -->
<g id="node3" class="node"><title>Node3</title>
<g id="a_node3"><a xlink:href="classcsCommunication_1_1Warning.html#a8f4e300281a8b6e710d0464a53611a9c" target="_top" xlink:title="csCommunication::Warning\l::has_mess">
<polygon fill="none" stroke="black" points="348.5,-73 348.5,-103 485.5,-103 485.5,-73 348.5,-73"/>
<text text-anchor="start" x="356.5" y="-91" font-family="Helvetica,sans-Serif" font-size="10.00">csCommunication::Warning</text>
<text text-anchor="middle" x="417" y="-80" font-family="Helvetica,sans-Serif" font-size="10.00">::has_mess</text>
</a>
</g>
</g>
<!-- Node2&#45;&gt;Node3 -->
<g id="edge2" class="edge"><title>Node2&#45;&gt;Node3</title>
<path fill="none" stroke="midnightblue" d="M311.979,-73.4854C320.55,-74.6814 329.372,-75.9123 338.082,-77.1277"/>
<polygon fill="midnightblue" stroke="midnightblue" points="337.845,-80.6285 348.233,-78.5442 338.813,-73.6957 337.845,-80.6285"/>
</g>
<!-- Node4 -->
<g id="node4" class="node"><title>Node4</title>
<g id="a_node4"><a xlink:href="classcsCommunication_1_1Warning.html#a2b51b0429a3808e552b73ceb8d918003" target="_top" xlink:title="csCommunication::Warning\l::mutable_unknown_fields">
<polygon fill="none" stroke="black" points="348.5,-24 348.5,-54 485.5,-54 485.5,-24 348.5,-24"/>
<text text-anchor="start" x="356.5" y="-42" font-family="Helvetica,sans-Serif" font-size="10.00">csCommunication::Warning</text>
<text text-anchor="middle" x="417" y="-31" font-family="Helvetica,sans-Serif" font-size="10.00">::mutable_unknown_fields</text>
</a>
</g>
</g>
<!-- Node2&#45;&gt;Node4 -->
<g id="edge3" class="edge"><title>Node2&#45;&gt;Node4</title>
<path fill="none" stroke="midnightblue" d="M311.979,-54.1193C320.55,-52.8735 329.372,-51.5913 338.082,-50.3254"/>
<polygon fill="midnightblue" stroke="midnightblue" points="338.841,-53.7519 348.233,-48.8498 337.834,-46.8247 338.841,-53.7519"/>
</g>
</g>
</svg>
