<?xml version="1.0" encoding="UTF-8" standalone="no"?>
<!DOCTYPE svg PUBLIC "-//W3C//DTD SVG 1.1//EN"
 "http://www.w3.org/Graphics/SVG/1.1/DTD/svg11.dtd">
<!-- Generated by graphviz version 2.36.0 (20140111.2315)
 -->
<!-- Title: org::libcppa::WarnOrAck::mutable_unknown_fields Pages: 1 -->
<svg width="654pt" height="136pt"
 viewBox="0.00 0.00 654.00 136.00" xmlns="http://www.w3.org/2000/svg" xmlns:xlink="http://www.w3.org/1999/xlink">
<g id="graph0" class="graph" transform="scale(1 1) rotate(0) translate(4 132)">
<title>org::libcppa::WarnOrAck::mutable_unknown_fields</title>
<!-- Node1 -->
<g id="node1" class="node"><title>Node1</title>
<polygon fill="#bfbfbf" stroke="black" points="0,-49 0,-79 130,-79 130,-49 0,-49"/>
<text text-anchor="start" x="8" y="-67" font-family="Helvetica,sans-Serif" font-size="10.00">org::libcppa::WarnOrAck</text>
<text text-anchor="middle" x="65" y="-56" font-family="Helvetica,sans-Serif" font-size="10.00">::mutable_unknown_fields</text>
</g>
<!-- Node2 -->
<g id="node2" class="node"><title>Node2</title>
<g id="a_node2"><a xlink:href="classorg_1_1libcppa_1_1WarnOrAck.html#adaff598693cba3d1a9a4ff77408115e7" target="_top" xlink:title="org::libcppa::WarnOrAck\l::Clear">
<polygon fill="none" stroke="black" points="184,-98 184,-128 308,-128 308,-98 184,-98"/>
<text text-anchor="start" x="192" y="-116" font-family="Helvetica,sans-Serif" font-size="10.00">org::libcppa::WarnOrAck</text>
<text text-anchor="middle" x="246" y="-105" font-family="Helvetica,sans-Serif" font-size="10.00">::Clear</text>
</a>
</g>
</g>
<!-- Node1&#45;&gt;Node2 -->
<g id="edge1" class="edge"><title>Node1&#45;&gt;Node2</title>
<path fill="none" stroke="midnightblue" d="M130.836,-81.7485C150.236,-87.0591 171.313,-92.8288 190.016,-97.9484"/>
<polygon fill="midnightblue" stroke="midnightblue" points="131.736,-78.366 121.166,-79.1014 129.888,-85.1176 131.736,-78.366"/>
</g>
<!-- Node5 -->
<g id="node5" class="node"><title>Node5</title>
<g id="a_node5"><a xlink:href="classorg_1_1libcppa_1_1WarnOrAck.html#a9af6e7c8e23b82e6428133f562766398" target="_top" xlink:title="org::libcppa::WarnOrAck\l::MergePartialFromCodedStream">
<polygon fill="none" stroke="black" points="166,-49 166,-79 326,-79 326,-49 166,-49"/>
<text text-anchor="start" x="174" y="-67" font-family="Helvetica,sans-Serif" font-size="10.00">org::libcppa::WarnOrAck</text>
<text text-anchor="middle" x="246" y="-56" font-family="Helvetica,sans-Serif" font-size="10.00">::MergePartialFromCodedStream</text>
</a>
</g>
</g>
<!-- Node1&#45;&gt;Node5 -->
<g id="edge4" class="edge"><title>Node1&#45;&gt;Node5</title>
<path fill="none" stroke="midnightblue" d="M140.255,-64C148.658,-64 157.245,-64 165.709,-64"/>
<polygon fill="midnightblue" stroke="midnightblue" points="140.118,-60.5001 130.118,-64 140.117,-67.5001 140.118,-60.5001"/>
</g>
<!-- Node6 -->
<g id="node6" class="node"><title>Node6</title>
<g id="a_node6"><a xlink:href="classorg_1_1libcppa_1_1WarnOrAck.html#a12501cbd6672b9d2ebfc69b4b6b88f65" target="_top" xlink:title="org::libcppa::WarnOrAck\l::MergeFrom">
<polygon fill="none" stroke="black" points="184,-0 184,-30 308,-30 308,-0 184,-0"/>
<text text-anchor="start" x="192" y="-18" font-family="Helvetica,sans-Serif" font-size="10.00">org::libcppa::WarnOrAck</text>
<text text-anchor="middle" x="246" y="-7" font-family="Helvetica,sans-Serif" font-size="10.00">::MergeFrom</text>
</a>
</g>
</g>
<!-- Node1&#45;&gt;Node6 -->
<g id="edge5" class="edge"><title>Node1&#45;&gt;Node6</title>
<path fill="none" stroke="midnightblue" d="M130.836,-46.2515C150.236,-40.9409 171.313,-35.1712 190.016,-30.0516"/>
<polygon fill="midnightblue" stroke="midnightblue" points="129.888,-42.8824 121.166,-48.8986 131.736,-49.634 129.888,-42.8824"/>
</g>
<!-- Node3 -->
<g id="node3" class="node"><title>Node3</title>
<g id="a_node3"><a xlink:href="classorg_1_1libcppa_1_1WarnOrAck.html#a5f1c82001c1c60ac5b053c707ecb624e" target="_top" xlink:title="org::libcppa::WarnOrAck\l::CopyFrom">
<polygon fill="none" stroke="black" points="362,-98 362,-128 486,-128 486,-98 362,-98"/>
<text text-anchor="start" x="370" y="-116" font-family="Helvetica,sans-Serif" font-size="10.00">org::libcppa::WarnOrAck</text>
<text text-anchor="middle" x="424" y="-105" font-family="Helvetica,sans-Serif" font-size="10.00">::CopyFrom</text>
</a>
</g>
</g>
<!-- Node2&#45;&gt;Node3 -->
<g id="edge2" class="edge"><title>Node2&#45;&gt;Node3</title>
<path fill="none" stroke="midnightblue" d="M318.397,-113C332.771,-113 347.758,-113 361.748,-113"/>
<polygon fill="midnightblue" stroke="midnightblue" points="318.062,-109.5 308.062,-113 318.062,-116.5 318.062,-109.5"/>
</g>
<!-- Node4 -->
<g id="node4" class="node"><title>Node4</title>
<g id="a_node4"><a xlink:href="classorg_1_1libcppa_1_1WarnOrAck.html#abbd2ac52a3df89dfecedd118717562eb" target="_top" xlink:title="org::libcppa::WarnOrAck\l::operator=">
<polygon fill="none" stroke="black" points="522,-98 522,-128 646,-128 646,-98 522,-98"/>
<text text-anchor="start" x="530" y="-116" font-family="Helvetica,sans-Serif" font-size="10.00">org::libcppa::WarnOrAck</text>
<text text-anchor="middle" x="584" y="-105" font-family="Helvetica,sans-Serif" font-size="10.00">::operator=</text>
</a>
</g>
</g>
<!-- Node3&#45;&gt;Node4 -->
<g id="edge3" class="edge"><title>Node3&#45;&gt;Node4</title>
<path fill="none" stroke="midnightblue" d="M496.366,-113C504.863,-113 513.478,-113 521.815,-113"/>
<polygon fill="midnightblue" stroke="midnightblue" points="496.087,-109.5 486.087,-113 496.087,-116.5 496.087,-109.5"/>
</g>
</g>
</svg>
