<?xml version="1.0" encoding="UTF-8" standalone="no"?>
<!DOCTYPE svg PUBLIC "-//W3C//DTD SVG 1.1//EN"
 "http://www.w3.org/Graphics/SVG/1.1/DTD/svg11.dtd">
<!-- Generated by graphviz version 2.36.0 (20140111.2315)
 -->
<!-- Title: org::libcppa::WarnOrAck::set_has_ack Pages: 1 -->
<svg width="642pt" height="136pt"
 viewBox="0.00 0.00 642.00 136.00" xmlns="http://www.w3.org/2000/svg" xmlns:xlink="http://www.w3.org/1999/xlink">
<g id="graph0" class="graph" transform="scale(1 1) rotate(0) translate(4 132)">
<title>org::libcppa::WarnOrAck::set_has_ack</title>
<!-- Node1 -->
<g id="node1" class="node"><title>Node1</title>
<polygon fill="#bfbfbf" stroke="black" points="0,-24 0,-54 124,-54 124,-24 0,-24"/>
<text text-anchor="start" x="8" y="-42" font-family="Helvetica,sans-Serif" font-size="10.00">org::libcppa::WarnOrAck</text>
<text text-anchor="middle" x="62" y="-31" font-family="Helvetica,sans-Serif" font-size="10.00">::set_has_ack</text>
</g>
<!-- Node2 -->
<g id="node2" class="node"><title>Node2</title>
<g id="a_node2"><a xlink:href="classorg_1_1libcppa_1_1WarnOrAck.html#a6bb4f027211410b8dd68aad3407586fb" target="_top" xlink:title="org::libcppa::WarnOrAck\l::mutable_ack">
<polygon fill="none" stroke="black" points="160,-49 160,-79 284,-79 284,-49 160,-49"/>
<text text-anchor="start" x="168" y="-67" font-family="Helvetica,sans-Serif" font-size="10.00">org::libcppa::WarnOrAck</text>
<text text-anchor="middle" x="222" y="-56" font-family="Helvetica,sans-Serif" font-size="10.00">::mutable_ack</text>
</a>
</g>
</g>
<!-- Node1&#45;&gt;Node2 -->
<g id="edge1" class="edge"><title>Node1&#45;&gt;Node2</title>
<path fill="none" stroke="midnightblue" d="M134.086,-50.2477C142.673,-51.6065 151.387,-52.9853 159.815,-54.3188"/>
<polygon fill="midnightblue" stroke="midnightblue" points="134.511,-46.7716 124.087,-48.6657 133.417,-53.6856 134.511,-46.7716"/>
</g>
<!-- Node8 -->
<g id="node8" class="node"><title>Node8</title>
<g id="a_node8"><a xlink:href="classorg_1_1libcppa_1_1WarnOrAck.html#a70e921d08dc767609f5a99784b1e9c59" target="_top" xlink:title="org::libcppa::WarnOrAck\l::set_allocated_ack">
<polygon fill="none" stroke="black" points="160,-0 160,-30 284,-30 284,-0 160,-0"/>
<text text-anchor="start" x="168" y="-18" font-family="Helvetica,sans-Serif" font-size="10.00">org::libcppa::WarnOrAck</text>
<text text-anchor="middle" x="222" y="-7" font-family="Helvetica,sans-Serif" font-size="10.00">::set_allocated_ack</text>
</a>
</g>
</g>
<!-- Node1&#45;&gt;Node8 -->
<g id="edge8" class="edge"><title>Node1&#45;&gt;Node8</title>
<path fill="none" stroke="midnightblue" d="M134.086,-28.2022C142.673,-26.8977 151.387,-25.5742 159.815,-24.2939"/>
<polygon fill="midnightblue" stroke="midnightblue" points="133.448,-24.7588 124.087,-29.721 134.499,-31.6794 133.448,-24.7588"/>
</g>
<!-- Node3 -->
<g id="node3" class="node"><title>Node3</title>
<g id="a_node3"><a xlink:href="classorg_1_1libcppa_1_1WarnOrAck.html#a9af6e7c8e23b82e6428133f562766398" target="_top" xlink:title="org::libcppa::WarnOrAck\l::MergePartialFromCodedStream">
<polygon fill="none" stroke="black" points="320,-98 320,-128 480,-128 480,-98 320,-98"/>
<text text-anchor="start" x="328" y="-116" font-family="Helvetica,sans-Serif" font-size="10.00">org::libcppa::WarnOrAck</text>
<text text-anchor="middle" x="400" y="-105" font-family="Helvetica,sans-Serif" font-size="10.00">::MergePartialFromCodedStream</text>
</a>
</g>
</g>
<!-- Node2&#45;&gt;Node3 -->
<g id="edge2" class="edge"><title>Node2&#45;&gt;Node3</title>
<path fill="none" stroke="midnightblue" d="M287.011,-81.8212C306.014,-87.1118 326.632,-92.8522 344.937,-97.9484"/>
<polygon fill="midnightblue" stroke="midnightblue" points="287.814,-78.4118 277.242,-79.1014 285.937,-85.1554 287.814,-78.4118"/>
</g>
<!-- Node4 -->
<g id="node4" class="node"><title>Node4</title>
<g id="a_node4"><a xlink:href="classorg_1_1libcppa_1_1WarnOrAck.html#a12501cbd6672b9d2ebfc69b4b6b88f65" target="_top" xlink:title="org::libcppa::WarnOrAck\l::MergeFrom">
<polygon fill="none" stroke="black" points="338,-49 338,-79 462,-79 462,-49 338,-49"/>
<text text-anchor="start" x="346" y="-67" font-family="Helvetica,sans-Serif" font-size="10.00">org::libcppa::WarnOrAck</text>
<text text-anchor="middle" x="400" y="-56" font-family="Helvetica,sans-Serif" font-size="10.00">::MergeFrom</text>
</a>
</g>
</g>
<!-- Node2&#45;&gt;Node4 -->
<g id="edge3" class="edge"><title>Node2&#45;&gt;Node4</title>
<path fill="none" stroke="midnightblue" d="M294.397,-64C308.771,-64 323.758,-64 337.748,-64"/>
<polygon fill="midnightblue" stroke="midnightblue" points="294.062,-60.5001 284.062,-64 294.062,-67.5001 294.062,-60.5001"/>
</g>
<!-- Node5 -->
<g id="node5" class="node"><title>Node5</title>
<g id="a_node5"><a xlink:href="protobuf__broker_8cpp.html#ae10b5d14d3ad78f811d25de1d8429746" target="_top" xlink:title="protobuf_io">
<polygon fill="none" stroke="black" points="367.5,-10.5 367.5,-29.5 432.5,-29.5 432.5,-10.5 367.5,-10.5"/>
<text text-anchor="middle" x="400" y="-17.5" font-family="Helvetica,sans-Serif" font-size="10.00">protobuf_io</text>
</a>
</g>
</g>
<!-- Node2&#45;&gt;Node5 -->
<g id="edge4" class="edge"><title>Node2&#45;&gt;Node5</title>
<path fill="none" stroke="midnightblue" d="M292.834,-46.5415C318.62,-40.0949 346.583,-33.1043 367.335,-27.9163"/>
<polygon fill="midnightblue" stroke="midnightblue" points="291.929,-43.1598 283.077,-48.9808 293.627,-49.9508 291.929,-43.1598"/>
</g>
<!-- Node6 -->
<g id="node6" class="node"><title>Node6</title>
<g id="a_node6"><a xlink:href="protobuf__broker_8cpp.html#ab3afbb104c5cd2d77878dca0def53691" target="_top" xlink:title="server">
<polygon fill="none" stroke="black" points="516,-29.5 516,-48.5 560,-48.5 560,-29.5 516,-29.5"/>
<text text-anchor="middle" x="538" y="-36.5" font-family="Helvetica,sans-Serif" font-size="10.00">server</text>
</a>
</g>
</g>
<!-- Node5&#45;&gt;Node6 -->
<g id="edge5" class="edge"><title>Node5&#45;&gt;Node6</title>
<path fill="none" stroke="midnightblue" d="M442.549,-25.8047C466.758,-29.1868 496.266,-33.3092 515.787,-36.0365"/>
<polygon fill="midnightblue" stroke="midnightblue" points="442.931,-22.3241 432.543,-24.4067 441.962,-29.2568 442.931,-22.3241"/>
</g>
<!-- Node7 -->
<g id="node7" class="node"><title>Node7</title>
<g id="a_node7"><a xlink:href="protobuf__broker_8cpp.html#a3c04138a5bfe5d72780bb7e82a18e627" target="_top" xlink:title="main">
<polygon fill="none" stroke="black" points="596,-10.5 596,-29.5 634,-29.5 634,-10.5 596,-10.5"/>
<text text-anchor="middle" x="615" y="-17.5" font-family="Helvetica,sans-Serif" font-size="10.00">main</text>
</a>
</g>
</g>
<!-- Node5&#45;&gt;Node7 -->
<g id="edge7" class="edge"><title>Node5&#45;&gt;Node7</title>
<path fill="none" stroke="midnightblue" d="M442.943,-20C489.372,-20 562.089,-20 595.761,-20"/>
<polygon fill="midnightblue" stroke="midnightblue" points="442.888,-16.5001 432.888,-20 442.888,-23.5001 442.888,-16.5001"/>
</g>
<!-- Node6&#45;&gt;Node7 -->
<g id="edge6" class="edge"><title>Node6&#45;&gt;Node7</title>
<path fill="none" stroke="midnightblue" d="M570.246,-31.0844C579.01,-28.8641 588.244,-26.5249 595.958,-24.5706"/>
<polygon fill="midnightblue" stroke="midnightblue" points="569.126,-27.7575 560.291,-33.6062 570.845,-34.5432 569.126,-27.7575"/>
</g>
</g>
</svg>
