<?xml version="1.0" encoding="UTF-8" standalone="no"?>
<!DOCTYPE svg PUBLIC "-//W3C//DTD SVG 1.1//EN"
 "http://www.w3.org/Graphics/SVG/1.1/DTD/svg11.dtd">
<!-- Generated by graphviz version 2.36.0 (20140111.2315)
 -->
<!-- Title: org::libcppa::WarnOrAck::clear_has_warn Pages: 1 -->
<svg width="292pt" height="136pt"
 viewBox="0.00 0.00 292.00 136.00" xmlns="http://www.w3.org/2000/svg" xmlns:xlink="http://www.w3.org/1999/xlink">
<g id="graph0" class="graph" transform="scale(1 1) rotate(0) translate(4 132)">
<title>org::libcppa::WarnOrAck::clear_has_warn</title>
<!-- Node1 -->
<g id="node1" class="node"><title>Node1</title>
<polygon fill="#bfbfbf" stroke="black" points="0,-49 0,-79 124,-79 124,-49 0,-49"/>
<text text-anchor="start" x="8" y="-67" font-family="Helvetica,sans-Serif" font-size="10.00">org::libcppa::WarnOrAck</text>
<text text-anchor="middle" x="62" y="-56" font-family="Helvetica,sans-Serif" font-size="10.00">::clear_has_warn</text>
</g>
<!-- Node2 -->
<g id="node2" class="node"><title>Node2</title>
<g id="a_node2"><a xlink:href="classorg_1_1libcppa_1_1WarnOrAck.html#a17daf1a6b4eb7b751897b05b49c6dc68" target="_top" xlink:title="org::libcppa::WarnOrAck\l::clear_warn">
<polygon fill="none" stroke="black" points="160,-98 160,-128 284,-128 284,-98 160,-98"/>
<text text-anchor="start" x="168" y="-116" font-family="Helvetica,sans-Serif" font-size="10.00">org::libcppa::WarnOrAck</text>
<text text-anchor="middle" x="222" y="-105" font-family="Helvetica,sans-Serif" font-size="10.00">::clear_warn</text>
</a>
</g>
</g>
<!-- Node1&#45;&gt;Node2 -->
<g id="edge1" class="edge"><title>Node1&#45;&gt;Node2</title>
<path fill="none" stroke="midnightblue" d="M121.405,-82.1129C138.202,-87.3222 156.335,-92.9457 172.466,-97.9484"/>
<polygon fill="midnightblue" stroke="midnightblue" points="122.282,-78.7207 111.694,-79.1014 120.209,-85.4065 122.282,-78.7207"/>
</g>
<!-- Node3 -->
<g id="node3" class="node"><title>Node3</title>
<g id="a_node3"><a xlink:href="classorg_1_1libcppa_1_1WarnOrAck.html#aa47be7d927d274e68665a2b4e86db917" target="_top" xlink:title="org::libcppa::WarnOrAck\l::release_warn">
<polygon fill="none" stroke="black" points="160,-49 160,-79 284,-79 284,-49 160,-49"/>
<text text-anchor="start" x="168" y="-67" font-family="Helvetica,sans-Serif" font-size="10.00">org::libcppa::WarnOrAck</text>
<text text-anchor="middle" x="222" y="-56" font-family="Helvetica,sans-Serif" font-size="10.00">::release_warn</text>
</a>
</g>
</g>
<!-- Node1&#45;&gt;Node3 -->
<g id="edge2" class="edge"><title>Node1&#45;&gt;Node3</title>
<path fill="none" stroke="midnightblue" d="M134.366,-64C142.863,-64 151.478,-64 159.815,-64"/>
<polygon fill="midnightblue" stroke="midnightblue" points="134.087,-60.5001 124.087,-64 134.087,-67.5001 134.087,-60.5001"/>
</g>
<!-- Node4 -->
<g id="node4" class="node"><title>Node4</title>
<g id="a_node4"><a xlink:href="classorg_1_1libcppa_1_1WarnOrAck.html#acbf07d46fd5453c4c55a74820b73dfd0" target="_top" xlink:title="org::libcppa::WarnOrAck\l::set_allocated_warn">
<polygon fill="none" stroke="black" points="160,-0 160,-30 284,-30 284,-0 160,-0"/>
<text text-anchor="start" x="168" y="-18" font-family="Helvetica,sans-Serif" font-size="10.00">org::libcppa::WarnOrAck</text>
<text text-anchor="middle" x="222" y="-7" font-family="Helvetica,sans-Serif" font-size="10.00">::set_allocated_warn</text>
</a>
</g>
</g>
<!-- Node1&#45;&gt;Node4 -->
<g id="edge3" class="edge"><title>Node1&#45;&gt;Node4</title>
<path fill="none" stroke="midnightblue" d="M121.405,-45.8871C138.202,-40.6778 156.335,-35.0543 172.466,-30.0516"/>
<polygon fill="midnightblue" stroke="midnightblue" points="120.209,-42.5935 111.694,-48.8986 122.282,-49.2793 120.209,-42.5935"/>
</g>
</g>
</svg>
