<?xml version="1.0" encoding="UTF-8" standalone="no"?>
<!DOCTYPE svg PUBLIC "-//W3C//DTD SVG 1.1//EN"
 "http://www.w3.org/Graphics/SVG/1.1/DTD/svg11.dtd">
<!-- Generated by graphviz version 2.36.0 (20140111.2315)
 -->
<!-- Title: pb::SensorNearData::MFC::CameraImage::SharedCtor Pages: 1 -->
<svg width="454pt" height="48pt"
 viewBox="0.00 0.00 454.00 48.00" xmlns="http://www.w3.org/2000/svg" xmlns:xlink="http://www.w3.org/1999/xlink">
<g id="graph0" class="graph" transform="scale(1 1) rotate(0) translate(4 44)">
<title>pb::SensorNearData::MFC::CameraImage::SharedCtor</title>
<!-- Node1 -->
<g id="node1" class="node"><title>Node1</title>
<polygon fill="#bfbfbf" stroke="black" points="0,0.5 0,-40.5 118,-40.5 118,0.5 0,0.5"/>
<text text-anchor="start" x="8" y="-28.5" font-family="Helvetica,sans-Serif" font-size="10.00">pb::SensorNearData</text>
<text text-anchor="start" x="8" y="-17.5" font-family="Helvetica,sans-Serif" font-size="10.00">::MFC::CameraImage::</text>
<text text-anchor="middle" x="59" y="-6.5" font-family="Helvetica,sans-Serif" font-size="10.00">SharedCtor</text>
</g>
<!-- Node2 -->
<g id="node2" class="node"><title>Node2</title>
<g id="a_node2"><a xlink:href="classpb_1_1SensorNearData_1_1MFC_1_1CameraImage.html#ad19408103cdab94b0541584c644d770a" target="_top" xlink:title="pb::SensorNearData\l::MFC::CameraImage::\lCameraImage">
<polygon fill="none" stroke="black" points="154,0.5 154,-40.5 272,-40.5 272,0.5 154,0.5"/>
<text text-anchor="start" x="162" y="-28.5" font-family="Helvetica,sans-Serif" font-size="10.00">pb::SensorNearData</text>
<text text-anchor="start" x="162" y="-17.5" font-family="Helvetica,sans-Serif" font-size="10.00">::MFC::CameraImage::</text>
<text text-anchor="middle" x="213" y="-6.5" font-family="Helvetica,sans-Serif" font-size="10.00">CameraImage</text>
</a>
</g>
</g>
<!-- Node1&#45;&gt;Node2 -->
<g id="edge1" class="edge"><title>Node1&#45;&gt;Node2</title>
<path fill="none" stroke="midnightblue" d="M128.542,-20C136.986,-20 145.554,-20 153.824,-20"/>
<polygon fill="midnightblue" stroke="midnightblue" points="128.332,-16.5001 118.332,-20 128.332,-23.5001 128.332,-16.5001"/>
</g>
<!-- Node3 -->
<g id="node3" class="node"><title>Node3</title>
<g id="a_node3"><a xlink:href="classpb_1_1SensorNearData_1_1MFC_1_1CameraImage.html#a86431dae0f670dd644891c4df519daa2" target="_top" xlink:title="pb::SensorNearData\l::MFC::CameraImage::New">
<polygon fill="none" stroke="black" points="308,-5 308,-35 446,-35 446,-5 308,-5"/>
<text text-anchor="start" x="316" y="-23" font-family="Helvetica,sans-Serif" font-size="10.00">pb::SensorNearData</text>
<text text-anchor="middle" x="377" y="-12" font-family="Helvetica,sans-Serif" font-size="10.00">::MFC::CameraImage::New</text>
</a>
</g>
</g>
<!-- Node2&#45;&gt;Node3 -->
<g id="edge2" class="edge"><title>Node2&#45;&gt;Node3</title>
<path fill="none" stroke="midnightblue" d="M282.252,-20C290.733,-20 299.405,-20 307.884,-20"/>
<polygon fill="midnightblue" stroke="midnightblue" points="282.028,-16.5001 272.028,-20 282.028,-23.5001 282.028,-16.5001"/>
</g>
</g>
</svg>
