<?xml version="1.0" encoding="UTF-8" standalone="no"?>
<!DOCTYPE svg PUBLIC "-//W3C//DTD SVG 1.1//EN"
 "http://www.w3.org/Graphics/SVG/1.1/DTD/svg11.dtd">
<!-- Generated by graphviz version 2.36.0 (20140111.2315)
 -->
<!-- Title: B Pages: 1 -->
<svg width="87pt" height="96pt"
 viewBox="0.00 0.00 87.00 96.00" xmlns="http://www.w3.org/2000/svg" xmlns:xlink="http://www.w3.org/1999/xlink">
<g id="graph0" class="graph" transform="scale(1 1) rotate(0) translate(4 92)">
<title>B</title>
<!-- Node1 -->
<g id="node1" class="node"><title>Node1</title>
<polygon fill="#bfbfbf" stroke="black" points="-0.5,-0.5 -0.5,-19.5 28.5,-19.5 28.5,-0.5 -0.5,-0.5"/>
<text text-anchor="middle" x="14" y="-7.5" font-family="Helvetica,sans-Serif" font-size="10.00">B</text>
</g>
<!-- Node2 -->
<g id="node2" class="node"><title>Node2</title>
<g id="a_node2"><a xlink:href="classA.html" target="_top" xlink:title="A">
<polygon fill="none" stroke="black" points="-0.5,-68.5 -0.5,-87.5 28.5,-87.5 28.5,-68.5 -0.5,-68.5"/>
<text text-anchor="middle" x="14" y="-75.5" font-family="Helvetica,sans-Serif" font-size="10.00">A</text>
</a>
</g>
</g>
<!-- Node2&#45;&gt;Node1 -->
<g id="edge1" class="edge"><title>Node2&#45;&gt;Node1</title>
<path fill="none" stroke="#9a32cd" stroke-dasharray="5,2" d="M14,-58.0413C14,-45.4724 14,-29.5631 14,-19.8411"/>
<polygon fill="#9a32cd" stroke="#9a32cd" points="10.5001,-58.3716 14,-68.3717 17.5001,-58.3717 10.5001,-58.3716"/>
<text text-anchor="middle" x="25" y="-41.5" font-family="Helvetica,sans-Serif" font-size="10.00"> m_a</text>
</g>
<!-- Node2&#45;&gt;Node2 -->
<g id="edge2" class="edge"><title>Node2&#45;&gt;Node2</title>
<path fill="none" stroke="#9a32cd" stroke-dasharray="5,2" d="M38.8218,-83.9513C43.0622,-83.1381 46,-81.1543 46,-78 46,-72.6875 37.6667,-70.6953 28.8125,-72.0234"/>
<polygon fill="#9a32cd" stroke="#9a32cd" points="38.8036,-80.4512 28.8125,-83.9766 38.8213,-87.4512 38.8036,-80.4512"/>
<text text-anchor="middle" x="62.5" y="-75.5" font-family="Helvetica,sans-Serif" font-size="10.00"> m_self</text>
</g>
</g>
</svg>
