<?xml version="1.0" encoding="UTF-8" standalone="no"?>
<!DOCTYPE svg PUBLIC "-//W3C//DTD SVG 1.1//EN"
 "http://www.w3.org/Graphics/SVG/1.1/DTD/svg11.dtd">
<!-- Generated by graphviz version 2.36.0 (20140111.2315)
 -->
<!-- Title: pb::Header::has_timestamp Pages: 1 -->
<svg width="310pt" height="164pt"
 viewBox="0.00 0.00 310.00 164.00" xmlns="http://www.w3.org/2000/svg" xmlns:xlink="http://www.w3.org/1999/xlink">
<g id="graph0" class="graph" transform="scale(1 1) rotate(0) translate(4 160)">
<title>pb::Header::has_timestamp</title>
<!-- Node1 -->
<g id="node1" class="node"><title>Node1</title>
<polygon fill="#bfbfbf" stroke="black" points="0.5,-60.5 0.5,-79.5 137.5,-79.5 137.5,-60.5 0.5,-60.5"/>
<text text-anchor="middle" x="69" y="-67.5" font-family="Helvetica,sans-Serif" font-size="10.00">pb::Header::has_timestamp</text>
</g>
<!-- Node2 -->
<g id="node2" class="node"><title>Node2</title>
<g id="a_node2"><a xlink:href="classpb_1_1Header.html#acac6cd0c5a9ff5d4414957ad64474680" target="_top" xlink:title="pb::Header::SerializeWith\lCachedSizes">
<polygon fill="none" stroke="black" points="174,-126 174,-156 302,-156 302,-126 174,-126"/>
<text text-anchor="start" x="182" y="-144" font-family="Helvetica,sans-Serif" font-size="10.00">pb::Header::SerializeWith</text>
<text text-anchor="middle" x="238" y="-133" font-family="Helvetica,sans-Serif" font-size="10.00">CachedSizes</text>
</a>
</g>
</g>
<!-- Node1&#45;&gt;Node2 -->
<g id="edge1" class="edge"><title>Node1&#45;&gt;Node2</title>
<path fill="none" stroke="midnightblue" d="M100.237,-83.7439C120.919,-93.0533 149.009,-105.519 174,-116 181.813,-119.277 190.215,-122.688 198.256,-125.898"/>
<polygon fill="midnightblue" stroke="midnightblue" points="101.565,-80.5032 91.0103,-79.5789 98.6847,-86.8833 101.565,-80.5032"/>
</g>
<!-- Node3 -->
<g id="node3" class="node"><title>Node3</title>
<g id="a_node3"><a xlink:href="classpb_1_1Header.html#a833d0211a301a1675eb67fd806bd219c" target="_top" xlink:title="pb::Header::SerializeWith\lCachedSizesToArray">
<polygon fill="none" stroke="black" points="174,-77 174,-107 302,-107 302,-77 174,-77"/>
<text text-anchor="start" x="182" y="-95" font-family="Helvetica,sans-Serif" font-size="10.00">pb::Header::SerializeWith</text>
<text text-anchor="middle" x="238" y="-84" font-family="Helvetica,sans-Serif" font-size="10.00">CachedSizesToArray</text>
</a>
</g>
</g>
<!-- Node1&#45;&gt;Node3 -->
<g id="edge2" class="edge"><title>Node1&#45;&gt;Node3</title>
<path fill="none" stroke="midnightblue" d="M148.064,-80.2839C156.751,-81.4283 165.517,-82.5831 173.983,-83.6984"/>
<polygon fill="midnightblue" stroke="midnightblue" points="148.297,-76.7844 137.925,-78.9482 147.382,-83.7244 148.297,-76.7844"/>
</g>
<!-- Node4 -->
<g id="node4" class="node"><title>Node4</title>
<g id="a_node4"><a xlink:href="classpb_1_1Header.html#a76e62e81439c9b78c95ff60d3094bc16" target="_top" xlink:title="pb::Header::ByteSize">
<polygon fill="none" stroke="black" points="183,-38.5 183,-57.5 293,-57.5 293,-38.5 183,-38.5"/>
<text text-anchor="middle" x="238" y="-45.5" font-family="Helvetica,sans-Serif" font-size="10.00">pb::Header::ByteSize</text>
</a>
</g>
</g>
<!-- Node1&#45;&gt;Node4 -->
<g id="edge3" class="edge"><title>Node1&#45;&gt;Node4</title>
<path fill="none" stroke="midnightblue" d="M147.841,-59.7455C159.714,-58.1814 171.74,-56.5972 182.953,-55.12"/>
<polygon fill="midnightblue" stroke="midnightblue" points="147.382,-56.2756 137.925,-61.0518 148.297,-63.2156 147.382,-56.2756"/>
</g>
<!-- Node5 -->
<g id="node5" class="node"><title>Node5</title>
<g id="a_node5"><a xlink:href="classpb_1_1Header.html#a073fe3c4b73376382b2f3d422cdc13e1" target="_top" xlink:title="pb::Header::MergeFrom">
<polygon fill="none" stroke="black" points="178,-0.5 178,-19.5 298,-19.5 298,-0.5 178,-0.5"/>
<text text-anchor="middle" x="238" y="-7.5" font-family="Helvetica,sans-Serif" font-size="10.00">pb::Header::MergeFrom</text>
</a>
</g>
</g>
<!-- Node1&#45;&gt;Node5 -->
<g id="edge4" class="edge"><title>Node1&#45;&gt;Node5</title>
<path fill="none" stroke="midnightblue" d="M101.974,-56.6029C122.414,-48.2358 149.578,-37.4803 174,-29 183.497,-25.7022 193.909,-22.4266 203.485,-19.5475"/>
<polygon fill="midnightblue" stroke="midnightblue" points="100.433,-53.4522 92.5208,-60.4981 103.1,-59.9242 100.433,-53.4522"/>
</g>
</g>
</svg>
