<?xml version="1.0" encoding="UTF-8" standalone="no"?>
<!DOCTYPE svg PUBLIC "-//W3C//DTD SVG 1.1//EN"
 "http://www.w3.org/Graphics/SVG/1.1/DTD/svg11.dtd">
<!-- Generated by graphviz version 2.36.0 (20140111.2315)
 -->
<!-- Title: pb::Header::Header Pages: 1 -->
<svg width="266pt" height="66pt"
 viewBox="0.00 0.00 266.00 66.00" xmlns="http://www.w3.org/2000/svg" xmlns:xlink="http://www.w3.org/1999/xlink">
<g id="graph0" class="graph" transform="scale(1 1) rotate(0) translate(4 62)">
<title>pb::Header::Header</title>
<!-- Node1 -->
<g id="node1" class="node"><title>Node1</title>
<polygon fill="#bfbfbf" stroke="black" points="0,-19.5 0,-38.5 102,-38.5 102,-19.5 0,-19.5"/>
<text text-anchor="middle" x="51" y="-26.5" font-family="Helvetica,sans-Serif" font-size="10.00">pb::Header::Header</text>
</g>
<!-- Node2 -->
<g id="node2" class="node"><title>Node2</title>
<g id="a_node2"><a xlink:href="classpb_1_1Header.html#aa11f894acf637345dabd538d9600c3d1" target="_top" xlink:title="pb::Header::SharedCtor">
<polygon fill="none" stroke="black" points="138,-38.5 138,-57.5 258,-57.5 258,-38.5 138,-38.5"/>
<text text-anchor="middle" x="198" y="-45.5" font-family="Helvetica,sans-Serif" font-size="10.00">pb::Header::SharedCtor</text>
</a>
</g>
</g>
<!-- Node1&#45;&gt;Node2 -->
<g id="edge1" class="edge"><title>Node1&#45;&gt;Node2</title>
<path fill="none" stroke="midnightblue" d="M102.307,-35.592C110.538,-36.6705 119.191,-37.8043 127.782,-38.9301"/>
<polygon fill="midnightblue" stroke="midnightblue" points="127.441,-42.4152 137.811,-40.2441 128.35,-35.4745 127.441,-42.4152"/>
</g>
<!-- Node3 -->
<g id="node3" class="node"><title>Node3</title>
<g id="a_node3"><a xlink:href="classpb_1_1Header.html#a8527d789155301b443c2109e3c4ec2eb" target="_top" xlink:title="pb::Header::MergeFrom">
<polygon fill="none" stroke="black" points="138,-0.5 138,-19.5 258,-19.5 258,-0.5 138,-0.5"/>
<text text-anchor="middle" x="198" y="-7.5" font-family="Helvetica,sans-Serif" font-size="10.00">pb::Header::MergeFrom</text>
</a>
</g>
</g>
<!-- Node1&#45;&gt;Node3 -->
<g id="edge2" class="edge"><title>Node1&#45;&gt;Node3</title>
<path fill="none" stroke="midnightblue" d="M102.307,-22.408C110.538,-21.3295 119.191,-20.1957 127.782,-19.0699"/>
<polygon fill="midnightblue" stroke="midnightblue" points="128.35,-22.5255 137.811,-17.7559 127.441,-15.5848 128.35,-22.5255"/>
</g>
</g>
</svg>
