<?xml version="1.0" encoding="UTF-8" standalone="no"?>
<!DOCTYPE svg PUBLIC "-//W3C//DTD SVG 1.1//EN"
 "http://www.w3.org/Graphics/SVG/1.1/DTD/svg11.dtd">
<!-- Generated by graphviz version 2.36.0 (20140111.2315)
 -->
<!-- Title: ProtobufImageWrapper::GetImagePayload Pages: 1 -->
<svg width="478pt" height="77pt"
 viewBox="0.00 0.00 478.00 77.00" xmlns="http://www.w3.org/2000/svg" xmlns:xlink="http://www.w3.org/1999/xlink">
<g id="graph0" class="graph" transform="scale(1 1) rotate(0) translate(4 73)">
<title>ProtobufImageWrapper::GetImagePayload</title>
<!-- Node1 -->
<g id="node1" class="node"><title>Node1</title>
<polygon fill="#bfbfbf" stroke="black" points="0.5,-22 0.5,-52 117.5,-52 117.5,-22 0.5,-22"/>
<text text-anchor="start" x="8.5" y="-40" font-family="Helvetica,sans-Serif" font-size="10.00">ProtobufImageWrapper</text>
<text text-anchor="middle" x="59" y="-29" font-family="Helvetica,sans-Serif" font-size="10.00">::GetImagePayload</text>
</g>
<!-- Node2 -->
<g id="node2" class="node"><title>Node2</title>
<g id="a_node2"><a xlink:href="classFrameSelector.html#a1065c609443efd72a3236cc98f168caa" target="_top" xlink:title="FrameSelector::ReadImage">
<polygon fill="none" stroke="black" points="154.5,-27.5 154.5,-46.5 291.5,-46.5 291.5,-27.5 154.5,-27.5"/>
<text text-anchor="middle" x="223" y="-34.5" font-family="Helvetica,sans-Serif" font-size="10.00">FrameSelector::ReadImage</text>
</a>
</g>
</g>
<!-- Node1&#45;&gt;Node2 -->
<g id="edge1" class="edge"><title>Node1&#45;&gt;Node2</title>
<path fill="none" stroke="midnightblue" d="M127.773,-37C136.569,-37 145.58,-37 154.373,-37"/>
<polygon fill="midnightblue" stroke="midnightblue" points="127.571,-33.5001 117.571,-37 127.571,-40.5001 127.571,-33.5001"/>
</g>
<!-- Node3 -->
<g id="node3" class="node"><title>Node3</title>
<g id="a_node3"><a xlink:href="classController.html#aee012beb2309ae88b7278fa3dad06d80" target="_top" xlink:title="Controller::PlayHDFAsVideo">
<polygon fill="none" stroke="black" points="328,-49.5 328,-68.5 470,-68.5 470,-49.5 328,-49.5"/>
<text text-anchor="middle" x="399" y="-56.5" font-family="Helvetica,sans-Serif" font-size="10.00">Controller::PlayHDFAsVideo</text>
</a>
</g>
</g>
<!-- Node2&#45;&gt;Node3 -->
<g id="edge2" class="edge"><title>Node2&#45;&gt;Node3</title>
<path fill="none" stroke="midnightblue" d="M301.852,-46.8434C310.506,-47.9375 319.281,-49.047 327.831,-50.128"/>
<polygon fill="midnightblue" stroke="midnightblue" points="302.131,-43.3509 291.771,-45.5688 301.253,-50.2956 302.131,-43.3509"/>
</g>
<!-- Node4 -->
<g id="node4" class="node"><title>Node4</title>
<g id="a_node4"><a xlink:href="classController.html#afd6375744f4f31dd254d1e5f1316ff4b" target="_top" xlink:title="Controller::SaveAllImages\lAsJPEG">
<polygon fill="none" stroke="black" points="333.5,-0 333.5,-30 464.5,-30 464.5,-0 333.5,-0"/>
<text text-anchor="start" x="341.5" y="-18" font-family="Helvetica,sans-Serif" font-size="10.00">Controller::SaveAllImages</text>
<text text-anchor="middle" x="399" y="-7" font-family="Helvetica,sans-Serif" font-size="10.00">AsJPEG</text>
</a>
</g>
</g>
<!-- Node2&#45;&gt;Node4 -->
<g id="edge3" class="edge"><title>Node2&#45;&gt;Node4</title>
<path fill="none" stroke="midnightblue" d="M301.782,-27.1655C312.303,-25.8353 323.005,-24.4821 333.265,-23.1849"/>
<polygon fill="midnightblue" stroke="midnightblue" points="301.253,-23.7044 291.771,-28.4312 302.131,-30.6491 301.253,-23.7044"/>
</g>
</g>
</svg>
