<?xml version="1.0" encoding="UTF-8" standalone="no"?>
<!DOCTYPE svg PUBLIC "-//W3C//DTD SVG 1.1//EN"
 "http://www.w3.org/Graphics/SVG/1.1/DTD/svg11.dtd">
<!-- Generated by graphviz version 2.36.0 (20140111.2315)
 -->
<!-- Title: org::libcppa::ack::MergePartialFromCodedStream Pages: 1 -->
<svg width="322pt" height="87pt"
 viewBox="0.00 0.00 322.00 87.00" xmlns="http://www.w3.org/2000/svg" xmlns:xlink="http://www.w3.org/1999/xlink">
<g id="graph0" class="graph" transform="scale(1 1) rotate(0) translate(4 83)">
<title>org::libcppa::ack::MergePartialFromCodedStream</title>
<!-- Node1 -->
<g id="node1" class="node"><title>Node1</title>
<polygon fill="#bfbfbf" stroke="black" points="0,-24 0,-54 154,-54 154,-24 0,-24"/>
<text text-anchor="start" x="8" y="-42" font-family="Helvetica,sans-Serif" font-size="10.00">org::libcppa::ack::</text>
<text text-anchor="middle" x="77" y="-31" font-family="Helvetica,sans-Serif" font-size="10.00">MergePartialFromCodedStream</text>
</g>
<!-- Node2 -->
<g id="node2" class="node"><title>Node2</title>
<g id="a_node2"><a xlink:href="classorg_1_1libcppa_1_1ack.html#a7ed55dee2ebec75774cb9a7ccd0f7511" target="_top" xlink:title="org::libcppa::ack::\lset_has_id">
<polygon fill="none" stroke="black" points="204.5,-49 204.5,-79 299.5,-79 299.5,-49 204.5,-49"/>
<text text-anchor="start" x="212.5" y="-67" font-family="Helvetica,sans-Serif" font-size="10.00">org::libcppa::ack::</text>
<text text-anchor="middle" x="252" y="-56" font-family="Helvetica,sans-Serif" font-size="10.00">set_has_id</text>
</a>
</g>
</g>
<!-- Node1&#45;&gt;Node2 -->
<g id="edge1" class="edge"><title>Node1&#45;&gt;Node2</title>
<path fill="none" stroke="midnightblue" d="M154.132,-50.0017C167.58,-51.945 181.367,-53.9374 194.167,-55.7872"/>
<polygon fill="midnightblue" stroke="midnightblue" points="193.798,-59.2701 204.196,-57.2364 194.8,-52.3421 193.798,-59.2701"/>
</g>
<!-- Node3 -->
<g id="node3" class="node"><title>Node3</title>
<g id="a_node3"><a xlink:href="classorg_1_1libcppa_1_1ack.html#a7cb8a6f49fecbefd3bfeea877e2c055c" target="_top" xlink:title="org::libcppa::ack::\lmutable_unknown_fields">
<polygon fill="none" stroke="black" points="190,-0 190,-30 314,-30 314,-0 190,-0"/>
<text text-anchor="start" x="198" y="-18" font-family="Helvetica,sans-Serif" font-size="10.00">org::libcppa::ack::</text>
<text text-anchor="middle" x="252" y="-7" font-family="Helvetica,sans-Serif" font-size="10.00">mutable_unknown_fields</text>
</a>
</g>
</g>
<!-- Node1&#45;&gt;Node3 -->
<g id="edge2" class="edge"><title>Node1&#45;&gt;Node3</title>
<path fill="none" stroke="midnightblue" d="M154.132,-28.4383C162.639,-27.2581 171.282,-26.0591 179.725,-24.8878"/>
<polygon fill="midnightblue" stroke="midnightblue" points="180.478,-28.317 189.902,-23.476 179.516,-21.3834 180.478,-28.317"/>
</g>
</g>
</svg>
