<?xml version="1.0" encoding="UTF-8" standalone="no"?>
<!DOCTYPE svg PUBLIC "-//W3C//DTD SVG 1.1//EN"
 "http://www.w3.org/Graphics/SVG/1.1/DTD/svg11.dtd">
<!-- Generated by graphviz version 2.36.0 (20140111.2315)
 -->
<!-- Title: pb::SensorNearData::MFC::CameraImage::set_has_o_image_height Pages: 1 -->
<svg width="478pt" height="109pt"
 viewBox="0.00 0.00 478.00 109.00" xmlns="http://www.w3.org/2000/svg" xmlns:xlink="http://www.w3.org/1999/xlink">
<g id="graph0" class="graph" transform="scale(1 1) rotate(0) translate(4 105)">
<title>pb::SensorNearData::MFC::CameraImage::set_has_o_image_height</title>
<!-- Node1 -->
<g id="node1" class="node"><title>Node1</title>
<polygon fill="#bfbfbf" stroke="black" points="0.5,-29.5 0.5,-70.5 125.5,-70.5 125.5,-29.5 0.5,-29.5"/>
<text text-anchor="start" x="8.5" y="-58.5" font-family="Helvetica,sans-Serif" font-size="10.00">pb::SensorNearData</text>
<text text-anchor="start" x="8.5" y="-47.5" font-family="Helvetica,sans-Serif" font-size="10.00">::MFC::CameraImage::</text>
<text text-anchor="middle" x="63" y="-36.5" font-family="Helvetica,sans-Serif" font-size="10.00">set_has_o_image_height</text>
</g>
<!-- Node2 -->
<g id="node2" class="node"><title>Node2</title>
<g id="a_node2"><a xlink:href="classpb_1_1SensorNearData_1_1MFC_1_1CameraImage.html#ab5a9863ea1ea849627b3662d0b2d6c44" target="_top" xlink:title="pb::SensorNearData\l::MFC::CameraImage::\lMergePartialFromCodedStream">
<polygon fill="none" stroke="black" points="162,-59.5 162,-100.5 316,-100.5 316,-59.5 162,-59.5"/>
<text text-anchor="start" x="170" y="-88.5" font-family="Helvetica,sans-Serif" font-size="10.00">pb::SensorNearData</text>
<text text-anchor="start" x="170" y="-77.5" font-family="Helvetica,sans-Serif" font-size="10.00">::MFC::CameraImage::</text>
<text text-anchor="middle" x="239" y="-66.5" font-family="Helvetica,sans-Serif" font-size="10.00">MergePartialFromCodedStream</text>
</a>
</g>
</g>
<!-- Node1&#45;&gt;Node2 -->
<g id="edge1" class="edge"><title>Node1&#45;&gt;Node2</title>
<path fill="none" stroke="midnightblue" d="M135.778,-62.3756C144.345,-63.8526 153.115,-65.3647 161.742,-66.8521"/>
<polygon fill="midnightblue" stroke="midnightblue" points="136.285,-58.9114 125.836,-60.6613 135.096,-65.8096 136.285,-58.9114"/>
</g>
<!-- Node3 -->
<g id="node3" class="node"><title>Node3</title>
<g id="a_node3"><a xlink:href="classpb_1_1SensorNearData_1_1MFC_1_1CameraImage.html#afe2fa9c0a9460da8550e84ce4ca479ca" target="_top" xlink:title="pb::SensorNearData\l::MFC::CameraImage::\lset_o_image_height">
<polygon fill="none" stroke="black" points="180,0.5 180,-40.5 298,-40.5 298,0.5 180,0.5"/>
<text text-anchor="start" x="188" y="-28.5" font-family="Helvetica,sans-Serif" font-size="10.00">pb::SensorNearData</text>
<text text-anchor="start" x="188" y="-17.5" font-family="Helvetica,sans-Serif" font-size="10.00">::MFC::CameraImage::</text>
<text text-anchor="middle" x="239" y="-6.5" font-family="Helvetica,sans-Serif" font-size="10.00">set_o_image_height</text>
</a>
</g>
</g>
<!-- Node1&#45;&gt;Node3 -->
<g id="edge2" class="edge"><title>Node1&#45;&gt;Node3</title>
<path fill="none" stroke="midnightblue" d="M135.863,-37.6098C150.514,-35.0838 165.755,-32.456 179.856,-30.0248"/>
<polygon fill="midnightblue" stroke="midnightblue" points="135.096,-34.1904 125.836,-39.3387 136.285,-41.0886 135.096,-34.1904"/>
</g>
<!-- Node4 -->
<g id="node4" class="node"><title>Node4</title>
<g id="a_node4"><a xlink:href="classpb_1_1SensorNearData_1_1MFC_1_1CameraImage.html#ae45cc783bc05ce863660a29a98b65e6e" target="_top" xlink:title="pb::SensorNearData\l::MFC::CameraImage::\lMergeFrom">
<polygon fill="none" stroke="black" points="352,0.5 352,-40.5 470,-40.5 470,0.5 352,0.5"/>
<text text-anchor="start" x="360" y="-28.5" font-family="Helvetica,sans-Serif" font-size="10.00">pb::SensorNearData</text>
<text text-anchor="start" x="360" y="-17.5" font-family="Helvetica,sans-Serif" font-size="10.00">::MFC::CameraImage::</text>
<text text-anchor="middle" x="411" y="-6.5" font-family="Helvetica,sans-Serif" font-size="10.00">MergeFrom</text>
</a>
</g>
</g>
<!-- Node3&#45;&gt;Node4 -->
<g id="edge3" class="edge"><title>Node3&#45;&gt;Node4</title>
<path fill="none" stroke="midnightblue" d="M308.398,-20C322.833,-20 337.933,-20 351.944,-20"/>
<polygon fill="midnightblue" stroke="midnightblue" points="308.029,-16.5001 298.029,-20 308.029,-23.5001 308.029,-16.5001"/>
</g>
</g>
</svg>
