<?xml version="1.0" encoding="UTF-8" standalone="no"?>
<!DOCTYPE svg PUBLIC "-//W3C//DTD SVG 1.1//EN"
 "http://www.w3.org/Graphics/SVG/1.1/DTD/svg11.dtd">
<!-- Generated by graphviz version 2.36.0 (20140111.2315)
 -->
<!-- Title: org::libcppa::warning::SerializeWithCachedSizesToArray Pages: 1 -->
<svg width="302pt" height="87pt"
 viewBox="0.00 0.00 302.00 87.00" xmlns="http://www.w3.org/2000/svg" xmlns:xlink="http://www.w3.org/1999/xlink">
<g id="graph0" class="graph" transform="scale(1 1) rotate(0) translate(4 83)">
<title>org::libcppa::warning::SerializeWithCachedSizesToArray</title>
<!-- Node1 -->
<g id="node1" class="node"><title>Node1</title>
<polygon fill="#bfbfbf" stroke="black" points="0,-18.5 0,-59.5 150,-59.5 150,-18.5 0,-18.5"/>
<text text-anchor="start" x="8" y="-47.5" font-family="Helvetica,sans-Serif" font-size="10.00">org::libcppa::warning</text>
<text text-anchor="start" x="8" y="-36.5" font-family="Helvetica,sans-Serif" font-size="10.00">::SerializeWithCachedSizesTo</text>
<text text-anchor="middle" x="75" y="-25.5" font-family="Helvetica,sans-Serif" font-size="10.00">Array</text>
</g>
<!-- Node2 -->
<g id="node2" class="node"><title>Node2</title>
<g id="a_node2"><a xlink:href="classorg_1_1libcppa_1_1warning.html#a2be6277565759fee3d17238d3b6ed27e" target="_top" xlink:title="org::libcppa::warning\l::has_id">
<polygon fill="none" stroke="black" points="186.5,-49 186.5,-79 293.5,-79 293.5,-49 186.5,-49"/>
<text text-anchor="start" x="194.5" y="-67" font-family="Helvetica,sans-Serif" font-size="10.00">org::libcppa::warning</text>
<text text-anchor="middle" x="240" y="-56" font-family="Helvetica,sans-Serif" font-size="10.00">::has_id</text>
</a>
</g>
</g>
<!-- Node1&#45;&gt;Node2 -->
<g id="edge1" class="edge"><title>Node1&#45;&gt;Node2</title>
<path fill="none" stroke="midnightblue" d="M150.345,-50.4026C158.941,-51.721 167.644,-53.0558 176.067,-54.3477"/>
<polygon fill="midnightblue" stroke="midnightblue" points="175.762,-57.8418 186.177,-55.8983 176.823,-50.9227 175.762,-57.8418"/>
</g>
<!-- Node3 -->
<g id="node3" class="node"><title>Node3</title>
<g id="a_node3"><a xlink:href="classorg_1_1libcppa_1_1warning.html#ab37f72c0bd01c8dc4d419818c83a7e1d" target="_top" xlink:title="org::libcppa::warning\l::unknown_fields">
<polygon fill="none" stroke="black" points="186.5,-0 186.5,-30 293.5,-30 293.5,-0 186.5,-0"/>
<text text-anchor="start" x="194.5" y="-18" font-family="Helvetica,sans-Serif" font-size="10.00">org::libcppa::warning</text>
<text text-anchor="middle" x="240" y="-7" font-family="Helvetica,sans-Serif" font-size="10.00">::unknown_fields</text>
</a>
</g>
</g>
<!-- Node1&#45;&gt;Node3 -->
<g id="edge2" class="edge"><title>Node1&#45;&gt;Node3</title>
<path fill="none" stroke="midnightblue" d="M150.345,-28.0535C158.941,-26.7878 167.644,-25.5064 176.067,-24.2662"/>
<polygon fill="midnightblue" stroke="midnightblue" points="176.794,-27.697 186.177,-22.7776 175.774,-20.7717 176.794,-27.697"/>
</g>
</g>
</svg>
