<?xml version="1.0" encoding="UTF-8" standalone="no"?>
<!DOCTYPE svg PUBLIC "-//W3C//DTD SVG 1.1//EN"
 "http://www.w3.org/Graphics/SVG/1.1/DTD/svg11.dtd">
<!-- Generated by graphviz version 2.36.0 (20140111.2315)
 -->
<!-- Title: org::libcppa::ack::operator= Pages: 1 -->
<svg width="528pt" height="87pt"
 viewBox="0.00 0.00 528.00 87.00" xmlns="http://www.w3.org/2000/svg" xmlns:xlink="http://www.w3.org/1999/xlink">
<g id="graph0" class="graph" transform="scale(1 1) rotate(0) translate(4 83)">
<title>org::libcppa::ack::operator=</title>
<!-- Node1 -->
<g id="node1" class="node"><title>Node1</title>
<polygon fill="#bfbfbf" stroke="black" points="0.5,-24 0.5,-54 95.5,-54 95.5,-24 0.5,-24"/>
<text text-anchor="start" x="8.5" y="-42" font-family="Helvetica,sans-Serif" font-size="10.00">org::libcppa::ack::</text>
<text text-anchor="middle" x="48" y="-31" font-family="Helvetica,sans-Serif" font-size="10.00">operator=</text>
</g>
<!-- Node2 -->
<g id="node2" class="node"><title>Node2</title>
<g id="a_node2"><a xlink:href="classorg_1_1libcppa_1_1ack.html#a4ab15a61e96f2fda4e3bf2fed03f3af7" target="_top" xlink:title="org::libcppa::ack::\lCopyFrom">
<polygon fill="none" stroke="black" points="132.5,-24 132.5,-54 227.5,-54 227.5,-24 132.5,-24"/>
<text text-anchor="start" x="140.5" y="-42" font-family="Helvetica,sans-Serif" font-size="10.00">org::libcppa::ack::</text>
<text text-anchor="middle" x="180" y="-31" font-family="Helvetica,sans-Serif" font-size="10.00">CopyFrom</text>
</a>
</g>
</g>
<!-- Node1&#45;&gt;Node2 -->
<g id="edge1" class="edge"><title>Node1&#45;&gt;Node2</title>
<path fill="none" stroke="midnightblue" d="M95.5658,-39C104.154,-39 113.21,-39 122.063,-39"/>
<polygon fill="midnightblue" stroke="midnightblue" points="122.322,-42.5001 132.322,-39 122.322,-35.5001 122.322,-42.5001"/>
</g>
<!-- Node3 -->
<g id="node3" class="node"><title>Node3</title>
<g id="a_node3"><a xlink:href="classorg_1_1libcppa_1_1ack.html#a47c9bf1f78b70a9571a68ae73f2c9c07" target="_top" xlink:title="org::libcppa::ack::\lClear">
<polygon fill="none" stroke="black" points="264.5,-49 264.5,-79 359.5,-79 359.5,-49 264.5,-49"/>
<text text-anchor="start" x="272.5" y="-67" font-family="Helvetica,sans-Serif" font-size="10.00">org::libcppa::ack::</text>
<text text-anchor="middle" x="312" y="-56" font-family="Helvetica,sans-Serif" font-size="10.00">Clear</text>
</a>
</g>
</g>
<!-- Node2&#45;&gt;Node3 -->
<g id="edge2" class="edge"><title>Node2&#45;&gt;Node3</title>
<path fill="none" stroke="midnightblue" d="M227.566,-47.955C236.247,-49.6244 245.406,-51.3859 254.351,-53.106"/>
<polygon fill="midnightblue" stroke="midnightblue" points="253.841,-56.572 264.322,-55.0235 255.163,-49.698 253.841,-56.572"/>
</g>
<!-- Node5 -->
<g id="node5" class="node"><title>Node5</title>
<g id="a_node5"><a xlink:href="classorg_1_1libcppa_1_1ack.html#af72558fdffa369bee8163dab0c72313b" target="_top" xlink:title="org::libcppa::ack::\lMergeFrom">
<polygon fill="none" stroke="black" points="264.5,-0 264.5,-30 359.5,-30 359.5,-0 264.5,-0"/>
<text text-anchor="start" x="272.5" y="-18" font-family="Helvetica,sans-Serif" font-size="10.00">org::libcppa::ack::</text>
<text text-anchor="middle" x="312" y="-7" font-family="Helvetica,sans-Serif" font-size="10.00">MergeFrom</text>
</a>
</g>
</g>
<!-- Node2&#45;&gt;Node5 -->
<g id="edge4" class="edge"><title>Node2&#45;&gt;Node5</title>
<path fill="none" stroke="midnightblue" d="M227.566,-30.4032C236.247,-28.8006 245.406,-27.1096 254.351,-25.4582"/>
<polygon fill="midnightblue" stroke="midnightblue" points="255.124,-28.8748 264.322,-23.6174 253.853,-21.9911 255.124,-28.8748"/>
</g>
<!-- Node4 -->
<g id="node4" class="node"><title>Node4</title>
<g id="a_node4"><a xlink:href="classorg_1_1libcppa_1_1ack.html#a7cb8a6f49fecbefd3bfeea877e2c055c" target="_top" xlink:title="org::libcppa::ack::\lmutable_unknown_fields">
<polygon fill="none" stroke="black" points="396,-49 396,-79 520,-79 520,-49 396,-49"/>
<text text-anchor="start" x="404" y="-67" font-family="Helvetica,sans-Serif" font-size="10.00">org::libcppa::ack::</text>
<text text-anchor="middle" x="458" y="-56" font-family="Helvetica,sans-Serif" font-size="10.00">mutable_unknown_fields</text>
</a>
</g>
</g>
<!-- Node3&#45;&gt;Node4 -->
<g id="edge3" class="edge"><title>Node3&#45;&gt;Node4</title>
<path fill="none" stroke="midnightblue" d="M359.753,-64C368.016,-64 376.788,-64 385.549,-64"/>
<polygon fill="midnightblue" stroke="midnightblue" points="385.797,-67.5001 395.797,-64 385.797,-60.5001 385.797,-67.5001"/>
</g>
</g>
</svg>
