<?xml version="1.0" encoding="UTF-8" standalone="no"?>
<!DOCTYPE svg PUBLIC "-//W3C//DTD SVG 1.1//EN"
 "http://www.w3.org/Graphics/SVG/1.1/DTD/svg11.dtd">
<!-- Generated by graphviz version 2.36.0 (20140111.2315)
 -->
<!-- Title: csCommunication::Warning::unknown_fields Pages: 1 -->
<svg width="430pt" height="185pt"
 viewBox="0.00 0.00 430.00 185.00" xmlns="http://www.w3.org/2000/svg" xmlns:xlink="http://www.w3.org/1999/xlink">
<g id="graph0" class="graph" transform="scale(1 1) rotate(0) translate(4 181)">
<title>csCommunication::Warning::unknown_fields</title>
<!-- Node1 -->
<g id="node1" class="node"><title>Node1</title>
<polygon fill="#bfbfbf" stroke="black" points="0.5,-73 0.5,-103 137.5,-103 137.5,-73 0.5,-73"/>
<text text-anchor="start" x="8.5" y="-91" font-family="Helvetica,sans-Serif" font-size="10.00">csCommunication::Warning</text>
<text text-anchor="middle" x="69" y="-80" font-family="Helvetica,sans-Serif" font-size="10.00">::unknown_fields</text>
</g>
<!-- Node2 -->
<g id="node2" class="node"><title>Node2</title>
<g id="a_node2"><a xlink:href="classcsCommunication_1_1Warning.html#a7216a898f594c8c5befd38d59e3ea8ab" target="_top" xlink:title="csCommunication::Warning\l::SerializeWithCachedSizes">
<polygon fill="none" stroke="black" points="191.5,-147 191.5,-177 330.5,-177 330.5,-147 191.5,-147"/>
<text text-anchor="start" x="199.5" y="-165" font-family="Helvetica,sans-Serif" font-size="10.00">csCommunication::Warning</text>
<text text-anchor="middle" x="261" y="-154" font-family="Helvetica,sans-Serif" font-size="10.00">::SerializeWithCachedSizes</text>
</a>
</g>
</g>
<!-- Node1&#45;&gt;Node2 -->
<g id="edge1" class="edge"><title>Node1&#45;&gt;Node2</title>
<path fill="none" stroke="midnightblue" d="M108.167,-107.751C127.567,-117.333 151.7,-128.565 174,-137 183.453,-140.575 193.65,-143.947 203.604,-146.988"/>
<polygon fill="midnightblue" stroke="midnightblue" points="109.563,-104.536 99.0528,-103.199 106.435,-110.799 109.563,-104.536"/>
</g>
<!-- Node3 -->
<g id="node3" class="node"><title>Node3</title>
<g id="a_node3"><a xlink:href="classcsCommunication_1_1Warning.html#a4caa98438e16b840fe6bacc3d7430692" target="_top" xlink:title="csCommunication::Warning\l::SerializeWithCachedSizesToArray">
<polygon fill="none" stroke="black" points="174.5,-98 174.5,-128 347.5,-128 347.5,-98 174.5,-98"/>
<text text-anchor="start" x="182.5" y="-116" font-family="Helvetica,sans-Serif" font-size="10.00">csCommunication::Warning</text>
<text text-anchor="middle" x="261" y="-105" font-family="Helvetica,sans-Serif" font-size="10.00">::SerializeWithCachedSizesToArray</text>
</a>
</g>
</g>
<!-- Node1&#45;&gt;Node3 -->
<g id="edge2" class="edge"><title>Node1&#45;&gt;Node3</title>
<path fill="none" stroke="midnightblue" d="M147.446,-98.1903C156.332,-99.3595 165.43,-100.557 174.414,-101.739"/>
<polygon fill="midnightblue" stroke="midnightblue" points="147.893,-94.719 137.522,-96.8845 146.98,-101.659 147.893,-94.719"/>
</g>
<!-- Node4 -->
<g id="node4" class="node"><title>Node4</title>
<g id="a_node4"><a xlink:href="classcsCommunication_1_1Warning.html#a5ed92e6e526c5217ded8bd90eb3652ec" target="_top" xlink:title="csCommunication::Warning\l::ByteSize">
<polygon fill="none" stroke="black" points="192.5,-49 192.5,-79 329.5,-79 329.5,-49 192.5,-49"/>
<text text-anchor="start" x="200.5" y="-67" font-family="Helvetica,sans-Serif" font-size="10.00">csCommunication::Warning</text>
<text text-anchor="middle" x="261" y="-56" font-family="Helvetica,sans-Serif" font-size="10.00">::ByteSize</text>
</a>
</g>
</g>
<!-- Node1&#45;&gt;Node4 -->
<g id="edge3" class="edge"><title>Node1&#45;&gt;Node4</title>
<path fill="none" stroke="midnightblue" d="M147.672,-78.1888C162.494,-76.3166 177.898,-74.3707 192.376,-72.542"/>
<polygon fill="midnightblue" stroke="midnightblue" points="147.004,-74.7452 137.522,-79.4709 147.882,-81.69 147.004,-74.7452"/>
</g>
<!-- Node6 -->
<g id="node6" class="node"><title>Node6</title>
<g id="a_node6"><a xlink:href="classcsCommunication_1_1Warning.html#af1c1761ea058cbf3898652f6c5741c36" target="_top" xlink:title="csCommunication::Warning\l::MergeFrom">
<polygon fill="none" stroke="black" points="192.5,-0 192.5,-30 329.5,-30 329.5,-0 192.5,-0"/>
<text text-anchor="start" x="200.5" y="-18" font-family="Helvetica,sans-Serif" font-size="10.00">csCommunication::Warning</text>
<text text-anchor="middle" x="261" y="-7" font-family="Helvetica,sans-Serif" font-size="10.00">::MergeFrom</text>
</a>
</g>
</g>
<!-- Node1&#45;&gt;Node6 -->
<g id="edge5" class="edge"><title>Node1&#45;&gt;Node6</title>
<path fill="none" stroke="midnightblue" d="M108.629,-68.4948C127.966,-59.1639 151.909,-48.256 174,-40 183.467,-36.4619 193.671,-33.1088 203.627,-30.0748"/>
<polygon fill="midnightblue" stroke="midnightblue" points="106.988,-65.4009 99.5339,-72.9302 110.056,-71.6926 106.988,-65.4009"/>
</g>
<!-- Node5 -->
<g id="node5" class="node"><title>Node5</title>
<g id="a_node5"><a xlink:href="client_8cpp.html#a0ddf1224851353fc92bfbff6f499fa97" target="_top" xlink:title="main">
<polygon fill="none" stroke="black" points="384,-54.5 384,-73.5 422,-73.5 422,-54.5 384,-54.5"/>
<text text-anchor="middle" x="403" y="-61.5" font-family="Helvetica,sans-Serif" font-size="10.00">main</text>
</a>
</g>
</g>
<!-- Node4&#45;&gt;Node5 -->
<g id="edge4" class="edge"><title>Node4&#45;&gt;Node5</title>
<path fill="none" stroke="midnightblue" d="M339.842,-64C356.319,-64 372.209,-64 383.798,-64"/>
<polygon fill="midnightblue" stroke="midnightblue" points="339.54,-60.5001 329.54,-64 339.539,-67.5001 339.54,-60.5001"/>
</g>
</g>
</svg>
