<?xml version="1.0" encoding="UTF-8" standalone="no"?>
<!DOCTYPE svg PUBLIC "-//W3C//DTD SVG 1.1//EN"
 "http://www.w3.org/Graphics/SVG/1.1/DTD/svg11.dtd">
<!-- Generated by graphviz version 2.36.0 (20140111.2315)
 -->
<!-- Title: pb::SensorNearData::MFC::CameraImage::Clear Pages: 1 -->
<svg width="458pt" height="48pt"
 viewBox="0.00 0.00 458.00 48.00" xmlns="http://www.w3.org/2000/svg" xmlns:xlink="http://www.w3.org/1999/xlink">
<g id="graph0" class="graph" transform="scale(1 1) rotate(0) translate(4 44)">
<title>pb::SensorNearData::MFC::CameraImage::Clear</title>
<!-- Node1 -->
<g id="node1" class="node"><title>Node1</title>
<polygon fill="#bfbfbf" stroke="black" points="0.5,-5 0.5,-35 141.5,-35 141.5,-5 0.5,-5"/>
<text text-anchor="start" x="8.5" y="-23" font-family="Helvetica,sans-Serif" font-size="10.00">pb::SensorNearData</text>
<text text-anchor="middle" x="71" y="-12" font-family="Helvetica,sans-Serif" font-size="10.00">::MFC::CameraImage::Clear</text>
</g>
<!-- Node2 -->
<g id="node2" class="node"><title>Node2</title>
<g id="a_node2"><a xlink:href="classpb_1_1SensorNearData_1_1MFC_1_1CameraImage.html#add0ff05587656030ad17fdff5027c5c9" target="_top" xlink:title="pb::SensorNearData\l::MFC::CameraImage::\lCopyFrom">
<polygon fill="none" stroke="black" points="178,0.5 178,-40.5 296,-40.5 296,0.5 178,0.5"/>
<text text-anchor="start" x="186" y="-28.5" font-family="Helvetica,sans-Serif" font-size="10.00">pb::SensorNearData</text>
<text text-anchor="start" x="186" y="-17.5" font-family="Helvetica,sans-Serif" font-size="10.00">::MFC::CameraImage::</text>
<text text-anchor="middle" x="237" y="-6.5" font-family="Helvetica,sans-Serif" font-size="10.00">CopyFrom</text>
</a>
</g>
</g>
<!-- Node1&#45;&gt;Node2 -->
<g id="edge1" class="edge"><title>Node1&#45;&gt;Node2</title>
<path fill="none" stroke="midnightblue" d="M151.566,-20C160.471,-20 169.415,-20 177.976,-20"/>
<polygon fill="midnightblue" stroke="midnightblue" points="151.551,-16.5001 141.551,-20 151.551,-23.5001 151.551,-16.5001"/>
</g>
<!-- Node3 -->
<g id="node3" class="node"><title>Node3</title>
<g id="a_node3"><a xlink:href="classpb_1_1SensorNearData_1_1MFC_1_1CameraImage.html#ad8e4e46206209cef042ed288fb3de5aa" target="_top" xlink:title="pb::SensorNearData\l::MFC::CameraImage::\loperator=">
<polygon fill="none" stroke="black" points="332,0.5 332,-40.5 450,-40.5 450,0.5 332,0.5"/>
<text text-anchor="start" x="340" y="-28.5" font-family="Helvetica,sans-Serif" font-size="10.00">pb::SensorNearData</text>
<text text-anchor="start" x="340" y="-17.5" font-family="Helvetica,sans-Serif" font-size="10.00">::MFC::CameraImage::</text>
<text text-anchor="middle" x="391" y="-6.5" font-family="Helvetica,sans-Serif" font-size="10.00">operator=</text>
</a>
</g>
</g>
<!-- Node2&#45;&gt;Node3 -->
<g id="edge2" class="edge"><title>Node2&#45;&gt;Node3</title>
<path fill="none" stroke="midnightblue" d="M306.542,-20C314.986,-20 323.554,-20 331.824,-20"/>
<polygon fill="midnightblue" stroke="midnightblue" points="306.332,-16.5001 296.332,-20 306.332,-23.5001 306.332,-16.5001"/>
</g>
</g>
</svg>
