<?xml version="1.0" encoding="UTF-8" standalone="no"?>
<!DOCTYPE svg PUBLIC "-//W3C//DTD SVG 1.1//EN"
 "http://www.w3.org/Graphics/SVG/1.1/DTD/svg11.dtd">
<!-- Generated by graphviz version 2.36.0 (20140111.2315)
 -->
<!-- Title: pb::Header::operator= Pages: 1 -->
<svg width="570pt" height="71pt"
 viewBox="0.00 0.00 570.00 71.00" xmlns="http://www.w3.org/2000/svg" xmlns:xlink="http://www.w3.org/1999/xlink">
<g id="graph0" class="graph" transform="scale(1 1) rotate(0) translate(4 67)">
<title>pb::Header::operator=</title>
<!-- Node1 -->
<g id="node1" class="node"><title>Node1</title>
<polygon fill="#bfbfbf" stroke="black" points="0,-19.5 0,-38.5 112,-38.5 112,-19.5 0,-19.5"/>
<text text-anchor="middle" x="56" y="-26.5" font-family="Helvetica,sans-Serif" font-size="10.00">pb::Header::operator=</text>
</g>
<!-- Node2 -->
<g id="node2" class="node"><title>Node2</title>
<g id="a_node2"><a xlink:href="classpb_1_1Header.html#afe6059f174b3fad7ce772df32d877647" target="_top" xlink:title="pb::Header::CopyFrom">
<polygon fill="none" stroke="black" points="148,-19.5 148,-38.5 264,-38.5 264,-19.5 148,-19.5"/>
<text text-anchor="middle" x="206" y="-26.5" font-family="Helvetica,sans-Serif" font-size="10.00">pb::Header::CopyFrom</text>
</a>
</g>
</g>
<!-- Node1&#45;&gt;Node2 -->
<g id="edge1" class="edge"><title>Node1&#45;&gt;Node2</title>
<path fill="none" stroke="midnightblue" d="M112.11,-29C120.498,-29 129.233,-29 137.843,-29"/>
<polygon fill="midnightblue" stroke="midnightblue" points="137.865,-32.5001 147.865,-29 137.865,-25.5001 137.865,-32.5001"/>
</g>
<!-- Node3 -->
<g id="node3" class="node"><title>Node3</title>
<g id="a_node3"><a xlink:href="classpb_1_1Header.html#a72d192cdc297400a506267bc3159dfa9" target="_top" xlink:title="pb::Header::Clear">
<polygon fill="none" stroke="black" points="313,-38.5 313,-57.5 407,-57.5 407,-38.5 313,-38.5"/>
<text text-anchor="middle" x="360" y="-45.5" font-family="Helvetica,sans-Serif" font-size="10.00">pb::Header::Clear</text>
</a>
</g>
</g>
<!-- Node2&#45;&gt;Node3 -->
<g id="edge2" class="edge"><title>Node2&#45;&gt;Node3</title>
<path fill="none" stroke="midnightblue" d="M264.032,-36.129C276.536,-37.692 289.772,-39.3465 302.265,-40.9081"/>
<polygon fill="midnightblue" stroke="midnightblue" points="302.194,-44.4265 312.551,-42.1939 303.063,-37.4805 302.194,-44.4265"/>
</g>
<!-- Node5 -->
<g id="node5" class="node"><title>Node5</title>
<g id="a_node5"><a xlink:href="classpb_1_1Header.html#a8527d789155301b443c2109e3c4ec2eb" target="_top" xlink:title="pb::Header::MergeFrom">
<polygon fill="none" stroke="black" points="300,-0.5 300,-19.5 420,-19.5 420,-0.5 300,-0.5"/>
<text text-anchor="middle" x="360" y="-7.5" font-family="Helvetica,sans-Serif" font-size="10.00">pb::Header::MergeFrom</text>
</a>
</g>
</g>
<!-- Node2&#45;&gt;Node5 -->
<g id="edge4" class="edge"><title>Node2&#45;&gt;Node5</title>
<path fill="none" stroke="midnightblue" d="M264.032,-21.871C272.448,-20.819 281.195,-19.7256 289.825,-18.6469"/>
<polygon fill="midnightblue" stroke="midnightblue" points="290.385,-22.1042 299.873,-17.3908 289.516,-15.1583 290.385,-22.1042"/>
</g>
<!-- Node4 -->
<g id="node4" class="node"><title>Node4</title>
<g id="a_node4"><a xlink:href="classpb_1_1Header.html#ac30ec316fb9d61d433e00e74fee92da1" target="_top" xlink:title="pb::Header::mutable\l_unknown_fields">
<polygon fill="none" stroke="black" points="456.5,-33 456.5,-63 561.5,-63 561.5,-33 456.5,-33"/>
<text text-anchor="start" x="464.5" y="-51" font-family="Helvetica,sans-Serif" font-size="10.00">pb::Header::mutable</text>
<text text-anchor="middle" x="509" y="-40" font-family="Helvetica,sans-Serif" font-size="10.00">_unknown_fields</text>
</a>
</g>
</g>
<!-- Node3&#45;&gt;Node4 -->
<g id="edge3" class="edge"><title>Node3&#45;&gt;Node4</title>
<path fill="none" stroke="midnightblue" d="M407.108,-48C419.466,-48 433.029,-48 446.091,-48"/>
<polygon fill="midnightblue" stroke="midnightblue" points="446.427,-51.5001 456.427,-48 446.427,-44.5001 446.427,-51.5001"/>
</g>
</g>
</svg>
