<?xml version="1.0" encoding="UTF-8" standalone="no"?>
<!DOCTYPE svg PUBLIC "-//W3C//DTD SVG 1.1//EN"
 "http://www.w3.org/Graphics/SVG/1.1/DTD/svg11.dtd">
<!-- Generated by graphviz version 2.36.0 (20140111.2315)
 -->
<!-- Title: pb::SensorNearData::MFC::CameraImage::set_has_bmp_image Pages: 1 -->
<svg width="482pt" height="169pt"
 viewBox="0.00 0.00 482.00 169.00" xmlns="http://www.w3.org/2000/svg" xmlns:xlink="http://www.w3.org/1999/xlink">
<g id="graph0" class="graph" transform="scale(1 1) rotate(0) translate(4 165)">
<title>pb::SensorNearData::MFC::CameraImage::set_has_bmp_image</title>
<!-- Node1 -->
<g id="node1" class="node"><title>Node1</title>
<polygon fill="#bfbfbf" stroke="black" points="0,-60.5 0,-101.5 118,-101.5 118,-60.5 0,-60.5"/>
<text text-anchor="start" x="8" y="-89.5" font-family="Helvetica,sans-Serif" font-size="10.00">pb::SensorNearData</text>
<text text-anchor="start" x="8" y="-78.5" font-family="Helvetica,sans-Serif" font-size="10.00">::MFC::CameraImage::</text>
<text text-anchor="middle" x="59" y="-67.5" font-family="Helvetica,sans-Serif" font-size="10.00">set_has_bmp_image</text>
</g>
<!-- Node2 -->
<g id="node2" class="node"><title>Node2</title>
<g id="a_node2"><a xlink:href="classpb_1_1SensorNearData_1_1MFC_1_1CameraImage.html#a989ade6ffe5f862403744d4a8e1918d5" target="_top" xlink:title="pb::SensorNearData\l::MFC::CameraImage::\lset_bmp_image">
<polygon fill="none" stroke="black" points="160,-120.5 160,-161.5 278,-161.5 278,-120.5 160,-120.5"/>
<text text-anchor="start" x="168" y="-149.5" font-family="Helvetica,sans-Serif" font-size="10.00">pb::SensorNearData</text>
<text text-anchor="start" x="168" y="-138.5" font-family="Helvetica,sans-Serif" font-size="10.00">::MFC::CameraImage::</text>
<text text-anchor="middle" x="219" y="-127.5" font-family="Helvetica,sans-Serif" font-size="10.00">set_bmp_image</text>
</a>
</g>
</g>
<!-- Node1&#45;&gt;Node2 -->
<g id="edge1" class="edge"><title>Node1&#45;&gt;Node2</title>
<path fill="none" stroke="midnightblue" d="M123.886,-105.26C137.121,-110.286 150.944,-115.536 163.793,-120.415"/>
<polygon fill="midnightblue" stroke="midnightblue" points="124.966,-101.927 114.375,-101.649 122.481,-108.471 124.966,-101.927"/>
</g>
<!-- Node4 -->
<g id="node4" class="node"><title>Node4</title>
<g id="a_node4"><a xlink:href="classpb_1_1SensorNearData_1_1MFC_1_1CameraImage.html#a1971c53fd613f32f04bd670fececa520" target="_top" xlink:title="pb::SensorNearData\l::MFC::CameraImage::\lmutable_bmp_image">
<polygon fill="none" stroke="black" points="160,-60.5 160,-101.5 278,-101.5 278,-60.5 160,-60.5"/>
<text text-anchor="start" x="168" y="-89.5" font-family="Helvetica,sans-Serif" font-size="10.00">pb::SensorNearData</text>
<text text-anchor="start" x="168" y="-78.5" font-family="Helvetica,sans-Serif" font-size="10.00">::MFC::CameraImage::</text>
<text text-anchor="middle" x="219" y="-67.5" font-family="Helvetica,sans-Serif" font-size="10.00">mutable_bmp_image</text>
</a>
</g>
</g>
<!-- Node1&#45;&gt;Node4 -->
<g id="edge3" class="edge"><title>Node1&#45;&gt;Node4</title>
<path fill="none" stroke="midnightblue" d="M128.673,-81C139.07,-81 149.71,-81 159.856,-81"/>
<polygon fill="midnightblue" stroke="midnightblue" points="128.384,-77.5001 118.384,-81 128.384,-84.5001 128.384,-77.5001"/>
</g>
<!-- Node6 -->
<g id="node6" class="node"><title>Node6</title>
<g id="a_node6"><a xlink:href="classpb_1_1SensorNearData_1_1MFC_1_1CameraImage.html#af81ee29cf1ff983c0191bdcf50aca3c9" target="_top" xlink:title="pb::SensorNearData\l::MFC::CameraImage::\lset_allocated_bmp_image">
<polygon fill="none" stroke="black" points="154,-0.5 154,-41.5 284,-41.5 284,-0.5 154,-0.5"/>
<text text-anchor="start" x="162" y="-29.5" font-family="Helvetica,sans-Serif" font-size="10.00">pb::SensorNearData</text>
<text text-anchor="start" x="162" y="-18.5" font-family="Helvetica,sans-Serif" font-size="10.00">::MFC::CameraImage::</text>
<text text-anchor="middle" x="219" y="-7.5" font-family="Helvetica,sans-Serif" font-size="10.00">set_allocated_bmp_image</text>
</a>
</g>
</g>
<!-- Node1&#45;&gt;Node6 -->
<g id="edge5" class="edge"><title>Node1&#45;&gt;Node6</title>
<path fill="none" stroke="midnightblue" d="M123.886,-56.7397C137.121,-51.7137 150.944,-46.4644 163.793,-41.585"/>
<polygon fill="midnightblue" stroke="midnightblue" points="122.481,-53.5292 114.375,-60.3514 124.966,-60.0733 122.481,-53.5292"/>
</g>
<!-- Node3 -->
<g id="node3" class="node"><title>Node3</title>
<g id="a_node3"><a xlink:href="classpb_1_1SensorNearData_1_1MFC_1_1CameraImage.html#ae45cc783bc05ce863660a29a98b65e6e" target="_top" xlink:title="pb::SensorNearData\l::MFC::CameraImage::\lMergeFrom">
<polygon fill="none" stroke="black" points="338,-120.5 338,-161.5 456,-161.5 456,-120.5 338,-120.5"/>
<text text-anchor="start" x="346" y="-149.5" font-family="Helvetica,sans-Serif" font-size="10.00">pb::SensorNearData</text>
<text text-anchor="start" x="346" y="-138.5" font-family="Helvetica,sans-Serif" font-size="10.00">::MFC::CameraImage::</text>
<text text-anchor="middle" x="397" y="-127.5" font-family="Helvetica,sans-Serif" font-size="10.00">MergeFrom</text>
</a>
</g>
</g>
<!-- Node2&#45;&gt;Node3 -->
<g id="edge2" class="edge"><title>Node2&#45;&gt;Node3</title>
<path fill="none" stroke="midnightblue" d="M288.199,-141C304.628,-141 322.028,-141 337.944,-141"/>
<polygon fill="midnightblue" stroke="midnightblue" points="288.117,-137.5 278.117,-141 288.117,-144.5 288.117,-137.5"/>
</g>
<!-- Node5 -->
<g id="node5" class="node"><title>Node5</title>
<g id="a_node5"><a xlink:href="classpb_1_1SensorNearData_1_1MFC_1_1CameraImage.html#ab5a9863ea1ea849627b3662d0b2d6c44" target="_top" xlink:title="pb::SensorNearData\l::MFC::CameraImage::\lMergePartialFromCodedStream">
<polygon fill="none" stroke="black" points="320,-60.5 320,-101.5 474,-101.5 474,-60.5 320,-60.5"/>
<text text-anchor="start" x="328" y="-89.5" font-family="Helvetica,sans-Serif" font-size="10.00">pb::SensorNearData</text>
<text text-anchor="start" x="328" y="-78.5" font-family="Helvetica,sans-Serif" font-size="10.00">::MFC::CameraImage::</text>
<text text-anchor="middle" x="397" y="-67.5" font-family="Helvetica,sans-Serif" font-size="10.00">MergePartialFromCodedStream</text>
</a>
</g>
</g>
<!-- Node4&#45;&gt;Node5 -->
<g id="edge4" class="edge"><title>Node4&#45;&gt;Node5</title>
<path fill="none" stroke="midnightblue" d="M288.276,-81C298.585,-81 309.275,-81 319.739,-81"/>
<polygon fill="midnightblue" stroke="midnightblue" points="288.117,-77.5001 278.117,-81 288.117,-84.5001 288.117,-77.5001"/>
</g>
</g>
</svg>
