<?xml version="1.0" encoding="UTF-8" standalone="no"?>
<!DOCTYPE svg PUBLIC "-//W3C//DTD SVG 1.1//EN"
 "http://www.w3.org/Graphics/SVG/1.1/DTD/svg11.dtd">
<!-- Generated by graphviz version 2.36.0 (20140111.2315)
 -->
<!-- Title: org::libcppa::ack::has_id Pages: 1 -->
<svg width="284pt" height="195pt"
 viewBox="0.00 0.00 284.00 195.00" xmlns="http://www.w3.org/2000/svg" xmlns:xlink="http://www.w3.org/1999/xlink">
<g id="graph0" class="graph" transform="scale(1 1) rotate(0) translate(4 191)">
<title>org::libcppa::ack::has_id</title>
<!-- Node1 -->
<g id="node1" class="node"><title>Node1</title>
<polygon fill="#bfbfbf" stroke="black" points="0.5,-76 0.5,-106 95.5,-106 95.5,-76 0.5,-76"/>
<text text-anchor="start" x="8.5" y="-94" font-family="Helvetica,sans-Serif" font-size="10.00">org::libcppa::ack::</text>
<text text-anchor="middle" x="48" y="-83" font-family="Helvetica,sans-Serif" font-size="10.00">has_id</text>
</g>
<!-- Node2 -->
<g id="node2" class="node"><title>Node2</title>
<g id="a_node2"><a xlink:href="classorg_1_1libcppa_1_1ack.html#a1167d67604c3b9d98f095662f3253897" target="_top" xlink:title="org::libcppa::ack::\lSerializeWithCachedSizes">
<polygon fill="none" stroke="black" points="137.5,-157 137.5,-187 270.5,-187 270.5,-157 137.5,-157"/>
<text text-anchor="start" x="145.5" y="-175" font-family="Helvetica,sans-Serif" font-size="10.00">org::libcppa::ack::</text>
<text text-anchor="middle" x="204" y="-164" font-family="Helvetica,sans-Serif" font-size="10.00">SerializeWithCachedSizes</text>
</a>
</g>
</g>
<!-- Node1&#45;&gt;Node2 -->
<g id="edge1" class="edge"><title>Node1&#45;&gt;Node2</title>
<path fill="none" stroke="midnightblue" d="M76.4407,-112.119C92.1123,-123.499 112.477,-137.18 132,-147 139.238,-150.641 147.135,-153.985 154.947,-156.961"/>
<polygon fill="midnightblue" stroke="midnightblue" points="78.3757,-109.197 68.2522,-106.071 74.2173,-114.828 78.3757,-109.197"/>
</g>
<!-- Node3 -->
<g id="node3" class="node"><title>Node3</title>
<g id="a_node3"><a xlink:href="classorg_1_1libcppa_1_1ack.html#ab2939cc7300155fb33c1fb12d21f44c8" target="_top" xlink:title="org::libcppa::ack::\lSerializeWithCachedSizesTo\lArray">
<polygon fill="none" stroke="black" points="132,-97.5 132,-138.5 276,-138.5 276,-97.5 132,-97.5"/>
<text text-anchor="start" x="140" y="-126.5" font-family="Helvetica,sans-Serif" font-size="10.00">org::libcppa::ack::</text>
<text text-anchor="start" x="140" y="-115.5" font-family="Helvetica,sans-Serif" font-size="10.00">SerializeWithCachedSizesTo</text>
<text text-anchor="middle" x="204" y="-104.5" font-family="Helvetica,sans-Serif" font-size="10.00">Array</text>
</a>
</g>
</g>
<!-- Node1&#45;&gt;Node3 -->
<g id="edge2" class="edge"><title>Node1&#45;&gt;Node3</title>
<path fill="none" stroke="midnightblue" d="M105.483,-100.903C114.048,-102.405 122.98,-103.97 131.808,-105.518"/>
<polygon fill="midnightblue" stroke="midnightblue" points="106.077,-97.4537 95.623,-99.1742 104.868,-104.349 106.077,-97.4537"/>
</g>
<!-- Node4 -->
<g id="node4" class="node"><title>Node4</title>
<g id="a_node4"><a xlink:href="classorg_1_1libcppa_1_1ack.html#a5f28e686c25f4e4015e06c112bd41e9b" target="_top" xlink:title="org::libcppa::ack::\lByteSize">
<polygon fill="none" stroke="black" points="156.5,-49 156.5,-79 251.5,-79 251.5,-49 156.5,-49"/>
<text text-anchor="start" x="164.5" y="-67" font-family="Helvetica,sans-Serif" font-size="10.00">org::libcppa::ack::</text>
<text text-anchor="middle" x="204" y="-56" font-family="Helvetica,sans-Serif" font-size="10.00">ByteSize</text>
</a>
</g>
</g>
<!-- Node1&#45;&gt;Node4 -->
<g id="edge3" class="edge"><title>Node1&#45;&gt;Node4</title>
<path fill="none" stroke="midnightblue" d="M105.764,-81.0478C122.381,-78.1344 140.352,-74.9837 156.27,-72.1929"/>
<polygon fill="midnightblue" stroke="midnightblue" points="104.868,-77.6514 95.623,-82.8258 106.077,-84.5463 104.868,-77.6514"/>
</g>
<!-- Node5 -->
<g id="node5" class="node"><title>Node5</title>
<g id="a_node5"><a xlink:href="classorg_1_1libcppa_1_1ack.html#a17e5c7e26869657c335ff6f79be21abb" target="_top" xlink:title="org::libcppa::ack::\lMergeFrom">
<polygon fill="none" stroke="black" points="156.5,-0 156.5,-30 251.5,-30 251.5,-0 156.5,-0"/>
<text text-anchor="start" x="164.5" y="-18" font-family="Helvetica,sans-Serif" font-size="10.00">org::libcppa::ack::</text>
<text text-anchor="middle" x="204" y="-7" font-family="Helvetica,sans-Serif" font-size="10.00">MergeFrom</text>
</a>
</g>
</g>
<!-- Node1&#45;&gt;Node5 -->
<g id="edge4" class="edge"><title>Node1&#45;&gt;Node5</title>
<path fill="none" stroke="midnightblue" d="M79.3753,-70.1801C94.7159,-60.2301 113.877,-48.6376 132,-40 139.668,-36.3453 148.019,-32.9348 156.213,-29.8801"/>
<polygon fill="midnightblue" stroke="midnightblue" points="77.2475,-67.3906 70.8213,-75.814 81.0978,-73.2365 77.2475,-67.3906"/>
</g>
</g>
</svg>
