<?xml version="1.0" encoding="UTF-8" standalone="no"?>
<!DOCTYPE svg PUBLIC "-//W3C//DTD SVG 1.1//EN"
 "http://www.w3.org/Graphics/SVG/1.1/DTD/svg11.dtd">
<!-- Generated by graphviz version 2.36.0 (20140111.2315)
 -->
<!-- Title: pb::Header::mutable_unknown_fields Pages: 1 -->
<svg width="576pt" height="116pt"
 viewBox="0.00 0.00 576.00 116.00" xmlns="http://www.w3.org/2000/svg" xmlns:xlink="http://www.w3.org/1999/xlink">
<g id="graph0" class="graph" transform="scale(1 1) rotate(0) translate(4 112)">
<title>pb::Header::mutable_unknown_fields</title>
<!-- Node1 -->
<g id="node1" class="node"><title>Node1</title>
<polygon fill="#bfbfbf" stroke="black" points="0.5,-39 0.5,-69 105.5,-69 105.5,-39 0.5,-39"/>
<text text-anchor="start" x="8.5" y="-57" font-family="Helvetica,sans-Serif" font-size="10.00">pb::Header::mutable</text>
<text text-anchor="middle" x="53" y="-46" font-family="Helvetica,sans-Serif" font-size="10.00">_unknown_fields</text>
</g>
<!-- Node2 -->
<g id="node2" class="node"><title>Node2</title>
<g id="a_node2"><a xlink:href="classpb_1_1Header.html#a72d192cdc297400a506267bc3159dfa9" target="_top" xlink:title="pb::Header::Clear">
<polygon fill="none" stroke="black" points="158,-88.5 158,-107.5 252,-107.5 252,-88.5 158,-88.5"/>
<text text-anchor="middle" x="205" y="-95.5" font-family="Helvetica,sans-Serif" font-size="10.00">pb::Header::Clear</text>
</a>
</g>
</g>
<!-- Node1&#45;&gt;Node2 -->
<g id="edge1" class="edge"><title>Node1&#45;&gt;Node2</title>
<path fill="none" stroke="midnightblue" d="M114.859,-71.8521C134.184,-77.5207 154.809,-83.5705 171.347,-88.4217"/>
<polygon fill="midnightblue" stroke="midnightblue" points="115.783,-68.4756 105.202,-69.0192 113.812,-75.1925 115.783,-68.4756"/>
</g>
<!-- Node5 -->
<g id="node5" class="node"><title>Node5</title>
<g id="a_node5"><a xlink:href="classpb_1_1Header.html#a0c3e9aa9d285e190d25893408f94adf0" target="_top" xlink:title="pb::Header::MergePartial\lFromCodedStream">
<polygon fill="none" stroke="black" points="142.5,-39 142.5,-69 267.5,-69 267.5,-39 142.5,-39"/>
<text text-anchor="start" x="150.5" y="-57" font-family="Helvetica,sans-Serif" font-size="10.00">pb::Header::MergePartial</text>
<text text-anchor="middle" x="205" y="-46" font-family="Helvetica,sans-Serif" font-size="10.00">FromCodedStream</text>
</a>
</g>
</g>
<!-- Node1&#45;&gt;Node5 -->
<g id="edge4" class="edge"><title>Node1&#45;&gt;Node5</title>
<path fill="none" stroke="midnightblue" d="M115.808,-54C124.608,-54 133.659,-54 142.455,-54"/>
<polygon fill="midnightblue" stroke="midnightblue" points="115.622,-50.5001 105.621,-54 115.621,-57.5001 115.622,-50.5001"/>
</g>
<!-- Node6 -->
<g id="node6" class="node"><title>Node6</title>
<g id="a_node6"><a xlink:href="classpb_1_1Header.html#a073fe3c4b73376382b2f3d422cdc13e1" target="_top" xlink:title="pb::Header::MergeFrom">
<polygon fill="none" stroke="black" points="145,-0.5 145,-19.5 265,-19.5 265,-0.5 145,-0.5"/>
<text text-anchor="middle" x="205" y="-7.5" font-family="Helvetica,sans-Serif" font-size="10.00">pb::Header::MergeFrom</text>
</a>
</g>
</g>
<!-- Node1&#45;&gt;Node6 -->
<g id="edge5" class="edge"><title>Node1&#45;&gt;Node6</title>
<path fill="none" stroke="midnightblue" d="M114.859,-36.1479C134.184,-30.4793 154.809,-24.4295 171.347,-19.5783"/>
<polygon fill="midnightblue" stroke="midnightblue" points="113.812,-32.8075 105.202,-38.9808 115.783,-39.5244 113.812,-32.8075"/>
</g>
<!-- Node3 -->
<g id="node3" class="node"><title>Node3</title>
<g id="a_node3"><a xlink:href="classpb_1_1Header.html#afe6059f174b3fad7ce772df32d877647" target="_top" xlink:title="pb::Header::CopyFrom">
<polygon fill="none" stroke="black" points="304,-88.5 304,-107.5 420,-107.5 420,-88.5 304,-88.5"/>
<text text-anchor="middle" x="362" y="-95.5" font-family="Helvetica,sans-Serif" font-size="10.00">pb::Header::CopyFrom</text>
</a>
</g>
</g>
<!-- Node2&#45;&gt;Node3 -->
<g id="edge2" class="edge"><title>Node2&#45;&gt;Node3</title>
<path fill="none" stroke="midnightblue" d="M262.226,-98C275.767,-98 290.246,-98 303.829,-98"/>
<polygon fill="midnightblue" stroke="midnightblue" points="262.085,-94.5001 252.085,-98 262.085,-101.5 262.085,-94.5001"/>
</g>
<!-- Node4 -->
<g id="node4" class="node"><title>Node4</title>
<g id="a_node4"><a xlink:href="classpb_1_1Header.html#a30af6b12daec382f6659bad8ccad3b1d" target="_top" xlink:title="pb::Header::operator=">
<polygon fill="none" stroke="black" points="456,-88.5 456,-107.5 568,-107.5 568,-88.5 456,-88.5"/>
<text text-anchor="middle" x="512" y="-95.5" font-family="Helvetica,sans-Serif" font-size="10.00">pb::Header::operator=</text>
</a>
</g>
</g>
<!-- Node3&#45;&gt;Node4 -->
<g id="edge3" class="edge"><title>Node3&#45;&gt;Node4</title>
<path fill="none" stroke="midnightblue" d="M430.496,-98C438.992,-98 447.603,-98 455.877,-98"/>
<polygon fill="midnightblue" stroke="midnightblue" points="430.221,-94.5001 420.221,-98 430.221,-101.5 430.221,-94.5001"/>
</g>
</g>
</svg>
