<?xml version="1.0" encoding="UTF-8" standalone="no"?>
<!DOCTYPE svg PUBLIC "-//W3C//DTD SVG 1.1//EN"
 "http://www.w3.org/Graphics/SVG/1.1/DTD/svg11.dtd">
<!-- Generated by graphviz version 2.36.0 (20140111.2315)
 -->
<!-- Title: csCommunication::Warning::SerializeWithCachedSizesToArray Pages: 1 -->
<svg width="356pt" height="136pt"
 viewBox="0.00 0.00 356.00 136.00" xmlns="http://www.w3.org/2000/svg" xmlns:xlink="http://www.w3.org/1999/xlink">
<g id="graph0" class="graph" transform="scale(1 1) rotate(0) translate(4 132)">
<title>csCommunication::Warning::SerializeWithCachedSizesToArray</title>
<!-- Node1 -->
<g id="node1" class="node"><title>Node1</title>
<polygon fill="#bfbfbf" stroke="black" points="0.5,-49 0.5,-79 173.5,-79 173.5,-49 0.5,-49"/>
<text text-anchor="start" x="8.5" y="-67" font-family="Helvetica,sans-Serif" font-size="10.00">csCommunication::Warning</text>
<text text-anchor="middle" x="87" y="-56" font-family="Helvetica,sans-Serif" font-size="10.00">::SerializeWithCachedSizesToArray</text>
</g>
<!-- Node2 -->
<g id="node2" class="node"><title>Node2</title>
<g id="a_node2"><a xlink:href="classcsCommunication_1_1Warning.html#a8f4e300281a8b6e710d0464a53611a9c" target="_top" xlink:title="csCommunication::Warning\l::has_mess">
<polygon fill="none" stroke="black" points="210.5,-98 210.5,-128 347.5,-128 347.5,-98 210.5,-98"/>
<text text-anchor="start" x="218.5" y="-116" font-family="Helvetica,sans-Serif" font-size="10.00">csCommunication::Warning</text>
<text text-anchor="middle" x="279" y="-105" font-family="Helvetica,sans-Serif" font-size="10.00">::has_mess</text>
</a>
</g>
</g>
<!-- Node1&#45;&gt;Node2 -->
<g id="edge1" class="edge"><title>Node1&#45;&gt;Node2</title>
<path fill="none" stroke="midnightblue" d="M146.297,-79.0346C166.45,-84.2318 189.206,-90.1006 210.064,-95.4796"/>
<polygon fill="midnightblue" stroke="midnightblue" points="209.256,-98.8856 219.813,-97.9938 211.004,-92.1074 209.256,-98.8856"/>
</g>
<!-- Node3 -->
<g id="node3" class="node"><title>Node3</title>
<g id="a_node3"><a xlink:href="classcsCommunication_1_1Warning.html#ae89197b403010afcc5471ba841397296" target="_top" xlink:title="csCommunication::Warning\l::mess">
<polygon fill="none" stroke="black" points="210.5,-49 210.5,-79 347.5,-79 347.5,-49 210.5,-49"/>
<text text-anchor="start" x="218.5" y="-67" font-family="Helvetica,sans-Serif" font-size="10.00">csCommunication::Warning</text>
<text text-anchor="middle" x="279" y="-56" font-family="Helvetica,sans-Serif" font-size="10.00">::mess</text>
</a>
</g>
</g>
<!-- Node1&#45;&gt;Node3 -->
<g id="edge2" class="edge"><title>Node1&#45;&gt;Node3</title>
<path fill="none" stroke="midnightblue" d="M173.551,-64C182.4,-64 191.36,-64 200.119,-64"/>
<polygon fill="midnightblue" stroke="midnightblue" points="200.291,-67.5001 210.291,-64 200.291,-60.5001 200.291,-67.5001"/>
</g>
<!-- Node4 -->
<g id="node4" class="node"><title>Node4</title>
<g id="a_node4"><a xlink:href="classcsCommunication_1_1Warning.html#ae4c33f8577043bf5ca98e4c56186ecdc" target="_top" xlink:title="csCommunication::Warning\l::unknown_fields">
<polygon fill="none" stroke="black" points="210.5,-0 210.5,-30 347.5,-30 347.5,-0 210.5,-0"/>
<text text-anchor="start" x="218.5" y="-18" font-family="Helvetica,sans-Serif" font-size="10.00">csCommunication::Warning</text>
<text text-anchor="middle" x="279" y="-7" font-family="Helvetica,sans-Serif" font-size="10.00">::unknown_fields</text>
</a>
</g>
</g>
<!-- Node1&#45;&gt;Node4 -->
<g id="edge3" class="edge"><title>Node1&#45;&gt;Node4</title>
<path fill="none" stroke="midnightblue" d="M146.297,-48.9654C166.45,-43.7682 189.206,-37.8994 210.064,-32.5204"/>
<polygon fill="midnightblue" stroke="midnightblue" points="211.004,-35.8926 219.813,-30.0062 209.256,-29.1144 211.004,-35.8926"/>
</g>
</g>
</svg>
