<?xml version="1.0" encoding="UTF-8" standalone="no"?>
<!DOCTYPE svg PUBLIC "-//W3C//DTD SVG 1.1//EN"
 "http://www.w3.org/Graphics/SVG/1.1/DTD/svg11.dtd">
<!-- Generated by graphviz version 2.36.0 (20140111.2315)
 -->
<!-- Title: Image::GetBGRImage Pages: 1 -->
<svg width="438pt" height="75pt"
 viewBox="0.00 0.00 438.00 75.00" xmlns="http://www.w3.org/2000/svg" xmlns:xlink="http://www.w3.org/1999/xlink">
<g id="graph0" class="graph" transform="scale(1 1) rotate(0) translate(4 71)">
<title>Image::GetBGRImage</title>
<!-- Node1 -->
<g id="node1" class="node"><title>Node1</title>
<polygon fill="#bfbfbf" stroke="black" points="0,-28.5 0,-47.5 114,-47.5 114,-28.5 0,-28.5"/>
<text text-anchor="middle" x="57" y="-35.5" font-family="Helvetica,sans-Serif" font-size="10.00">Image::GetBGRImage</text>
</g>
<!-- Node2 -->
<g id="node2" class="node"><title>Node2</title>
<g id="a_node2"><a xlink:href="classImage.html#a5cd8edfc3b0fd518d7734ec8836b1896" target="_top" xlink:title="Image::GetBGGRImage">
<polygon fill="none" stroke="black" points="150,-28.5 150,-47.5 272,-47.5 272,-28.5 150,-28.5"/>
<text text-anchor="middle" x="211" y="-35.5" font-family="Helvetica,sans-Serif" font-size="10.00">Image::GetBGGRImage</text>
</a>
</g>
</g>
<!-- Node1&#45;&gt;Node2 -->
<g id="edge1" class="edge"><title>Node1&#45;&gt;Node2</title>
<path fill="none" stroke="midnightblue" d="M114.167,-38C122.555,-38 131.29,-38 139.922,-38"/>
<polygon fill="midnightblue" stroke="midnightblue" points="139.982,-41.5001 149.982,-38 139.982,-34.5001 139.982,-41.5001"/>
</g>
<!-- Node3 -->
<g id="node3" class="node"><title>Node3</title>
<g id="a_node3"><a xlink:href="classImage.html#a141671a32d6e069211abd2211f0d8849" target="_top" xlink:title="Image::GetImageHeight">
<polygon fill="none" stroke="black" points="308.5,-47.5 308.5,-66.5 429.5,-66.5 429.5,-47.5 308.5,-47.5"/>
<text text-anchor="middle" x="369" y="-54.5" font-family="Helvetica,sans-Serif" font-size="10.00">Image::GetImageHeight</text>
</a>
</g>
</g>
<!-- Node1&#45;&gt;Node3 -->
<g id="edge4" class="edge"><title>Node1&#45;&gt;Node3</title>
<path fill="none" stroke="midnightblue" d="M95.3311,-47.5094C111.947,-51.2743 131.828,-55.1432 150,-57 199.322,-62.0399 255.25,-61.9218 298.108,-60.6049"/>
<polygon fill="midnightblue" stroke="midnightblue" points="298.277,-64.1013 308.153,-60.2671 298.041,-57.1053 298.277,-64.1013"/>
</g>
<!-- Node4 -->
<g id="node4" class="node"><title>Node4</title>
<g id="a_node4"><a xlink:href="classImage.html#adc25a467233718f37ae881cdebffa5c2" target="_top" xlink:title="Image::GetImageWidth">
<polygon fill="none" stroke="black" points="310,-0.5 310,-19.5 428,-19.5 428,-0.5 310,-0.5"/>
<text text-anchor="middle" x="369" y="-7.5" font-family="Helvetica,sans-Serif" font-size="10.00">Image::GetImageWidth</text>
</a>
</g>
</g>
<!-- Node1&#45;&gt;Node4 -->
<g id="edge5" class="edge"><title>Node1&#45;&gt;Node4</title>
<path fill="none" stroke="midnightblue" d="M97.1644,-28.449C113.412,-24.8694 132.518,-21.1516 150,-19 199.946,-12.8529 256.762,-10.6621 299.866,-9.97677"/>
<polygon fill="midnightblue" stroke="midnightblue" points="300.007,-13.4753 309.958,-9.83973 299.912,-6.47593 300.007,-13.4753"/>
</g>
<!-- Node2&#45;&gt;Node3 -->
<g id="edge2" class="edge"><title>Node2&#45;&gt;Node3</title>
<path fill="none" stroke="midnightblue" d="M272.314,-45.3459C280.818,-46.3817 289.618,-47.4535 298.281,-48.5086"/>
<polygon fill="midnightblue" stroke="midnightblue" points="298.011,-52.0014 308.361,-49.7362 298.857,-45.0528 298.011,-52.0014"/>
</g>
<!-- Node2&#45;&gt;Node4 -->
<g id="edge3" class="edge"><title>Node2&#45;&gt;Node4</title>
<path fill="none" stroke="midnightblue" d="M265.25,-28.4423C278.051,-26.1446 291.845,-23.6689 305.041,-21.3003"/>
<polygon fill="midnightblue" stroke="midnightblue" points="305.766,-24.7263 314.99,-19.5146 304.529,-17.8364 305.766,-24.7263"/>
</g>
</g>
</svg>
