<?xml version="1.0" encoding="UTF-8" standalone="no"?>
<!DOCTYPE svg PUBLIC "-//W3C//DTD SVG 1.1//EN"
 "http://www.w3.org/Graphics/SVG/1.1/DTD/svg11.dtd">
<!-- Generated by graphviz version 2.36.0 (20140111.2315)
 -->
<!-- Title: pb::SensorNearData::MFC::CameraImage::has_image_compressed Pages: 1 -->
<svg width="334pt" height="229pt"
 viewBox="0.00 0.00 334.00 229.00" xmlns="http://www.w3.org/2000/svg" xmlns:xlink="http://www.w3.org/1999/xlink">
<g id="graph0" class="graph" transform="scale(1 1) rotate(0) translate(4 225)">
<title>pb::SensorNearData::MFC::CameraImage::has_image_compressed</title>
<!-- Node1 -->
<g id="node1" class="node"><title>Node1</title>
<polygon fill="#bfbfbf" stroke="black" points="0,-89.5 0,-130.5 122,-130.5 122,-89.5 0,-89.5"/>
<text text-anchor="start" x="8" y="-118.5" font-family="Helvetica,sans-Serif" font-size="10.00">pb::SensorNearData</text>
<text text-anchor="start" x="8" y="-107.5" font-family="Helvetica,sans-Serif" font-size="10.00">::MFC::CameraImage::</text>
<text text-anchor="middle" x="61" y="-96.5" font-family="Helvetica,sans-Serif" font-size="10.00">has_image_compressed</text>
</g>
<!-- Node2 -->
<g id="node2" class="node"><title>Node2</title>
<g id="a_node2"><a xlink:href="classpb_1_1SensorNearData_1_1MFC_1_1CameraImage.html#a68f2cde68b12b74681079603151d932a" target="_top" xlink:title="pb::SensorNearData\l::MFC::CameraImage::\lSerializeWithCachedSizes">
<polygon fill="none" stroke="black" points="175.5,-179.5 175.5,-220.5 308.5,-220.5 308.5,-179.5 175.5,-179.5"/>
<text text-anchor="start" x="183.5" y="-208.5" font-family="Helvetica,sans-Serif" font-size="10.00">pb::SensorNearData</text>
<text text-anchor="start" x="183.5" y="-197.5" font-family="Helvetica,sans-Serif" font-size="10.00">::MFC::CameraImage::</text>
<text text-anchor="middle" x="242" y="-186.5" font-family="Helvetica,sans-Serif" font-size="10.00">SerializeWithCachedSizes</text>
</a>
</g>
</g>
<!-- Node1&#45;&gt;Node2 -->
<g id="edge1" class="edge"><title>Node1&#45;&gt;Node2</title>
<path fill="none" stroke="midnightblue" d="M100.864,-136.26C117.958,-147.18 138.54,-159.497 158,-169 165.464,-172.645 173.472,-176.131 181.463,-179.364"/>
<polygon fill="midnightblue" stroke="midnightblue" points="102.565,-133.191 92.2673,-130.699 98.7627,-139.069 102.565,-133.191"/>
</g>
<!-- Node3 -->
<g id="node3" class="node"><title>Node3</title>
<g id="a_node3"><a xlink:href="classpb_1_1SensorNearData_1_1MFC_1_1CameraImage.html#a17e6ca2c29a49d34f990b3660db648b0" target="_top" xlink:title="pb::SensorNearData\l::MFC::CameraImage::\lSerializeWithCachedSizesToArray">
<polygon fill="none" stroke="black" points="158.5,-119.5 158.5,-160.5 325.5,-160.5 325.5,-119.5 158.5,-119.5"/>
<text text-anchor="start" x="166.5" y="-148.5" font-family="Helvetica,sans-Serif" font-size="10.00">pb::SensorNearData</text>
<text text-anchor="start" x="166.5" y="-137.5" font-family="Helvetica,sans-Serif" font-size="10.00">::MFC::CameraImage::</text>
<text text-anchor="middle" x="242" y="-126.5" font-family="Helvetica,sans-Serif" font-size="10.00">SerializeWithCachedSizesToArray</text>
</a>
</g>
</g>
<!-- Node1&#45;&gt;Node3 -->
<g id="edge2" class="edge"><title>Node1&#45;&gt;Node3</title>
<path fill="none" stroke="midnightblue" d="M132.115,-121.751C140.761,-123.2 149.661,-124.692 158.47,-126.168"/>
<polygon fill="midnightblue" stroke="midnightblue" points="132.543,-118.274 122.102,-120.073 131.386,-125.178 132.543,-118.274"/>
</g>
<!-- Node4 -->
<g id="node4" class="node"><title>Node4</title>
<g id="a_node4"><a xlink:href="classpb_1_1SensorNearData_1_1MFC_1_1CameraImage.html#a0e5f591b6faf941ca8056f413e4603f9" target="_top" xlink:title="pb::SensorNearData\l::MFC::CameraImage::\lByteSize">
<polygon fill="none" stroke="black" points="183,-59.5 183,-100.5 301,-100.5 301,-59.5 183,-59.5"/>
<text text-anchor="start" x="191" y="-88.5" font-family="Helvetica,sans-Serif" font-size="10.00">pb::SensorNearData</text>
<text text-anchor="start" x="191" y="-77.5" font-family="Helvetica,sans-Serif" font-size="10.00">::MFC::CameraImage::</text>
<text text-anchor="middle" x="242" y="-66.5" font-family="Helvetica,sans-Serif" font-size="10.00">ByteSize</text>
</a>
</g>
</g>
<!-- Node1&#45;&gt;Node4 -->
<g id="edge3" class="edge"><title>Node1&#45;&gt;Node4</title>
<path fill="none" stroke="midnightblue" d="M132.375,-98.2053C149.103,-95.4017 166.767,-92.4413 182.877,-89.7413"/>
<polygon fill="midnightblue" stroke="midnightblue" points="131.386,-94.8221 122.102,-99.927 132.543,-101.726 131.386,-94.8221"/>
</g>
<!-- Node5 -->
<g id="node5" class="node"><title>Node5</title>
<g id="a_node5"><a xlink:href="classpb_1_1SensorNearData_1_1MFC_1_1CameraImage.html#ae45cc783bc05ce863660a29a98b65e6e" target="_top" xlink:title="pb::SensorNearData\l::MFC::CameraImage::\lMergeFrom">
<polygon fill="none" stroke="black" points="183,0.5 183,-40.5 301,-40.5 301,0.5 183,0.5"/>
<text text-anchor="start" x="191" y="-28.5" font-family="Helvetica,sans-Serif" font-size="10.00">pb::SensorNearData</text>
<text text-anchor="start" x="191" y="-17.5" font-family="Helvetica,sans-Serif" font-size="10.00">::MFC::CameraImage::</text>
<text text-anchor="middle" x="242" y="-6.5" font-family="Helvetica,sans-Serif" font-size="10.00">MergeFrom</text>
</a>
</g>
</g>
<!-- Node1&#45;&gt;Node5 -->
<g id="edge4" class="edge"><title>Node1&#45;&gt;Node5</title>
<path fill="none" stroke="midnightblue" d="M99.9763,-83.666C117.204,-72.4086 138.133,-59.6635 158,-50 165.854,-46.1798 174.325,-42.5736 182.749,-39.2753"/>
<polygon fill="midnightblue" stroke="midnightblue" points="97.7341,-80.953 91.3298,-89.3931 101.6,-86.7889 97.7341,-80.953"/>
</g>
</g>
</svg>
