<?xml version="1.0" encoding="UTF-8" standalone="no"?>
<!DOCTYPE svg PUBLIC "-//W3C//DTD SVG 1.1//EN"
 "http://www.w3.org/Graphics/SVG/1.1/DTD/svg11.dtd">
<!-- Generated by graphviz version 2.36.0 (20140111.2315)
 -->
<!-- Title: pb::Header::CopyFrom Pages: 1 -->
<svg width="422pt" height="71pt"
 viewBox="0.00 0.00 422.00 71.00" xmlns="http://www.w3.org/2000/svg" xmlns:xlink="http://www.w3.org/1999/xlink">
<g id="graph0" class="graph" transform="scale(1 1) rotate(0) translate(4 67)">
<title>pb::Header::CopyFrom</title>
<!-- Node1 -->
<g id="node1" class="node"><title>Node1</title>
<polygon fill="#bfbfbf" stroke="black" points="0,-19.5 0,-38.5 116,-38.5 116,-19.5 0,-19.5"/>
<text text-anchor="middle" x="58" y="-26.5" font-family="Helvetica,sans-Serif" font-size="10.00">pb::Header::CopyFrom</text>
</g>
<!-- Node2 -->
<g id="node2" class="node"><title>Node2</title>
<g id="a_node2"><a xlink:href="classpb_1_1Header.html#a72d192cdc297400a506267bc3159dfa9" target="_top" xlink:title="pb::Header::Clear">
<polygon fill="none" stroke="black" points="165,-38.5 165,-57.5 259,-57.5 259,-38.5 165,-38.5"/>
<text text-anchor="middle" x="212" y="-45.5" font-family="Helvetica,sans-Serif" font-size="10.00">pb::Header::Clear</text>
</a>
</g>
</g>
<!-- Node1&#45;&gt;Node2 -->
<g id="edge1" class="edge"><title>Node1&#45;&gt;Node2</title>
<path fill="none" stroke="midnightblue" d="M116.032,-36.129C128.536,-37.692 141.772,-39.3465 154.265,-40.9081"/>
<polygon fill="midnightblue" stroke="midnightblue" points="154.194,-44.4265 164.551,-42.1939 155.063,-37.4805 154.194,-44.4265"/>
</g>
<!-- Node4 -->
<g id="node4" class="node"><title>Node4</title>
<g id="a_node4"><a xlink:href="classpb_1_1Header.html#a8527d789155301b443c2109e3c4ec2eb" target="_top" xlink:title="pb::Header::MergeFrom">
<polygon fill="none" stroke="black" points="152,-0.5 152,-19.5 272,-19.5 272,-0.5 152,-0.5"/>
<text text-anchor="middle" x="212" y="-7.5" font-family="Helvetica,sans-Serif" font-size="10.00">pb::Header::MergeFrom</text>
</a>
</g>
</g>
<!-- Node1&#45;&gt;Node4 -->
<g id="edge3" class="edge"><title>Node1&#45;&gt;Node4</title>
<path fill="none" stroke="midnightblue" d="M116.032,-21.871C124.448,-20.819 133.195,-19.7256 141.825,-18.6469"/>
<polygon fill="midnightblue" stroke="midnightblue" points="142.385,-22.1042 151.873,-17.3908 141.516,-15.1583 142.385,-22.1042"/>
</g>
<!-- Node3 -->
<g id="node3" class="node"><title>Node3</title>
<g id="a_node3"><a xlink:href="classpb_1_1Header.html#ac30ec316fb9d61d433e00e74fee92da1" target="_top" xlink:title="pb::Header::mutable\l_unknown_fields">
<polygon fill="none" stroke="black" points="308.5,-33 308.5,-63 413.5,-63 413.5,-33 308.5,-33"/>
<text text-anchor="start" x="316.5" y="-51" font-family="Helvetica,sans-Serif" font-size="10.00">pb::Header::mutable</text>
<text text-anchor="middle" x="361" y="-40" font-family="Helvetica,sans-Serif" font-size="10.00">_unknown_fields</text>
</a>
</g>
</g>
<!-- Node2&#45;&gt;Node3 -->
<g id="edge2" class="edge"><title>Node2&#45;&gt;Node3</title>
<path fill="none" stroke="midnightblue" d="M259.108,-48C271.466,-48 285.029,-48 298.091,-48"/>
<polygon fill="midnightblue" stroke="midnightblue" points="298.427,-51.5001 308.427,-48 298.427,-44.5001 298.427,-51.5001"/>
</g>
</g>
</svg>
