<?xml version="1.0" encoding="UTF-8" standalone="no"?>
<!DOCTYPE svg PUBLIC "-//W3C//DTD SVG 1.1//EN"
 "http://www.w3.org/Graphics/SVG/1.1/DTD/svg11.dtd">
<!-- Generated by graphviz version 2.36.0 (20140111.2315)
 -->
<!-- Title: pb::SensorNearData::MFC::CameraImage::CopyFrom Pages: 1 -->
<svg width="464pt" height="229pt"
 viewBox="0.00 0.00 464.00 229.00" xmlns="http://www.w3.org/2000/svg" xmlns:xlink="http://www.w3.org/1999/xlink">
<g id="graph0" class="graph" transform="scale(1 1) rotate(0) translate(4 225)">
<title>pb::SensorNearData::MFC::CameraImage::CopyFrom</title>
<!-- Node1 -->
<g id="node1" class="node"><title>Node1</title>
<polygon fill="#bfbfbf" stroke="black" points="0,-62.5 0,-103.5 118,-103.5 118,-62.5 0,-62.5"/>
<text text-anchor="start" x="8" y="-91.5" font-family="Helvetica,sans-Serif" font-size="10.00">pb::SensorNearData</text>
<text text-anchor="start" x="8" y="-80.5" font-family="Helvetica,sans-Serif" font-size="10.00">::MFC::CameraImage::</text>
<text text-anchor="middle" x="59" y="-69.5" font-family="Helvetica,sans-Serif" font-size="10.00">CopyFrom</text>
</g>
<!-- Node2 -->
<g id="node2" class="node"><title>Node2</title>
<g id="a_node2"><a xlink:href="classpb_1_1SensorNearData_1_1MFC_1_1CameraImage.html#a49a7a12c728ccf2bd6a6da9a526dafb3" target="_top" xlink:title="pb::SensorNearData\l::MFC::CameraImage::Clear">
<polygon fill="none" stroke="black" points="154.5,-95 154.5,-125 295.5,-125 295.5,-95 154.5,-95"/>
<text text-anchor="start" x="162.5" y="-113" font-family="Helvetica,sans-Serif" font-size="10.00">pb::SensorNearData</text>
<text text-anchor="middle" x="225" y="-102" font-family="Helvetica,sans-Serif" font-size="10.00">::MFC::CameraImage::Clear</text>
</a>
</g>
</g>
<!-- Node1&#45;&gt;Node2 -->
<g id="edge1" class="edge"><title>Node1&#45;&gt;Node2</title>
<path fill="none" stroke="midnightblue" d="M118.282,-92.5952C126.777,-93.9938 135.644,-95.4536 144.473,-96.9071"/>
<polygon fill="midnightblue" stroke="midnightblue" points="143.967,-100.371 154.403,-98.5419 145.104,-93.4639 143.967,-100.371"/>
</g>
<!-- Node7 -->
<g id="node7" class="node"><title>Node7</title>
<g id="a_node7"><a xlink:href="classpb_1_1SensorNearData_1_1MFC_1_1CameraImage.html#aae8b9de1aa65e56d68941a34fb73f202" target="_top" xlink:title="pb::SensorNearData\l::MFC::CameraImage::\lMergeFrom">
<polygon fill="none" stroke="black" points="166,-35.5 166,-76.5 284,-76.5 284,-35.5 166,-35.5"/>
<text text-anchor="start" x="174" y="-64.5" font-family="Helvetica,sans-Serif" font-size="10.00">pb::SensorNearData</text>
<text text-anchor="start" x="174" y="-53.5" font-family="Helvetica,sans-Serif" font-size="10.00">::MFC::CameraImage::</text>
<text text-anchor="middle" x="225" y="-42.5" font-family="Helvetica,sans-Serif" font-size="10.00">MergeFrom</text>
</a>
</g>
</g>
<!-- Node1&#45;&gt;Node7 -->
<g id="edge6" class="edge"><title>Node1&#45;&gt;Node7</title>
<path fill="none" stroke="midnightblue" d="M118.282,-73.4048C130.487,-71.3955 143.458,-69.2599 155.982,-67.1982"/>
<polygon fill="midnightblue" stroke="midnightblue" points="156.607,-70.6424 165.906,-65.5643 155.47,-63.7354 156.607,-70.6424"/>
</g>
<!-- Node3 -->
<g id="node3" class="node"><title>Node3</title>
<g id="a_node3"><a xlink:href="classpb_1_1SensorNearData_1_1MFC_1_1CameraImage.html#a0d5dce7ebc7c3620d52b36c5cc20f0f7" target="_top" xlink:title="pb::SensorNearData\l::MFC::CameraImage::\lhas_header">
<polygon fill="none" stroke="black" points="335,-179.5 335,-220.5 453,-220.5 453,-179.5 335,-179.5"/>
<text text-anchor="start" x="343" y="-208.5" font-family="Helvetica,sans-Serif" font-size="10.00">pb::SensorNearData</text>
<text text-anchor="start" x="343" y="-197.5" font-family="Helvetica,sans-Serif" font-size="10.00">::MFC::CameraImage::</text>
<text text-anchor="middle" x="394" y="-186.5" font-family="Helvetica,sans-Serif" font-size="10.00">has_header</text>
</a>
</g>
</g>
<!-- Node2&#45;&gt;Node3 -->
<g id="edge2" class="edge"><title>Node2&#45;&gt;Node3</title>
<path fill="none" stroke="midnightblue" d="M252.421,-125.07C273.775,-137.161 304.669,-154.455 332,-169 335.498,-170.862 339.121,-172.765 342.776,-174.666"/>
<polygon fill="midnightblue" stroke="midnightblue" points="341.384,-177.887 351.875,-179.367 344.597,-171.668 341.384,-177.887"/>
</g>
<!-- Node4 -->
<g id="node4" class="node"><title>Node4</title>
<g id="a_node4"><a xlink:href="classpb_1_1SensorNearData_1_1MFC_1_1CameraImage.html#a560c780e9167af2f055e5e46bb66ea83" target="_top" xlink:title="pb::SensorNearData\l::MFC::CameraImage::\lhas_image_payload">
<polygon fill="none" stroke="black" points="335,-119.5 335,-160.5 453,-160.5 453,-119.5 335,-119.5"/>
<text text-anchor="start" x="343" y="-148.5" font-family="Helvetica,sans-Serif" font-size="10.00">pb::SensorNearData</text>
<text text-anchor="start" x="343" y="-137.5" font-family="Helvetica,sans-Serif" font-size="10.00">::MFC::CameraImage::</text>
<text text-anchor="middle" x="394" y="-126.5" font-family="Helvetica,sans-Serif" font-size="10.00">has_image_payload</text>
</a>
</g>
</g>
<!-- Node2&#45;&gt;Node4 -->
<g id="edge3" class="edge"><title>Node2&#45;&gt;Node4</title>
<path fill="none" stroke="midnightblue" d="M295.855,-122.549C305.474,-124.277 315.341,-126.049 324.927,-127.771"/>
<polygon fill="midnightblue" stroke="midnightblue" points="324.332,-131.22 334.793,-129.544 325.569,-124.331 324.332,-131.22"/>
</g>
<!-- Node5 -->
<g id="node5" class="node"><title>Node5</title>
<g id="a_node5"><a xlink:href="classpb_1_1SensorNearData_1_1MFC_1_1CameraImage.html#a9d590baab4806ea1ee3b3598c3f2d813" target="_top" xlink:title="pb::SensorNearData\l::MFC::CameraImage::\lhas_bmp_image">
<polygon fill="none" stroke="black" points="335,-59.5 335,-100.5 453,-100.5 453,-59.5 335,-59.5"/>
<text text-anchor="start" x="343" y="-88.5" font-family="Helvetica,sans-Serif" font-size="10.00">pb::SensorNearData</text>
<text text-anchor="start" x="343" y="-77.5" font-family="Helvetica,sans-Serif" font-size="10.00">::MFC::CameraImage::</text>
<text text-anchor="middle" x="394" y="-66.5" font-family="Helvetica,sans-Serif" font-size="10.00">has_bmp_image</text>
</a>
</g>
</g>
<!-- Node2&#45;&gt;Node5 -->
<g id="edge4" class="edge"><title>Node2&#45;&gt;Node5</title>
<path fill="none" stroke="midnightblue" d="M295.855,-97.4511C305.474,-95.7232 315.341,-93.9507 324.927,-92.2286"/>
<polygon fill="midnightblue" stroke="midnightblue" points="325.569,-95.6694 334.793,-90.4563 324.332,-88.7797 325.569,-95.6694"/>
</g>
<!-- Node6 -->
<g id="node6" class="node"><title>Node6</title>
<g id="a_node6"><a xlink:href="classpb_1_1SensorNearData_1_1MFC_1_1CameraImage.html#af96b3cfe11bf7100c887c641f494bc0b" target="_top" xlink:title="pb::SensorNearData\l::MFC::CameraImage::\lmutable_unknown_fields">
<polygon fill="none" stroke="black" points="332,0.5 332,-40.5 456,-40.5 456,0.5 332,0.5"/>
<text text-anchor="start" x="340" y="-28.5" font-family="Helvetica,sans-Serif" font-size="10.00">pb::SensorNearData</text>
<text text-anchor="start" x="340" y="-17.5" font-family="Helvetica,sans-Serif" font-size="10.00">::MFC::CameraImage::</text>
<text text-anchor="middle" x="394" y="-6.5" font-family="Helvetica,sans-Serif" font-size="10.00">mutable_unknown_fields</text>
</a>
</g>
</g>
<!-- Node2&#45;&gt;Node6 -->
<g id="edge5" class="edge"><title>Node2&#45;&gt;Node6</title>
<path fill="none" stroke="midnightblue" d="M276.554,-94.907C283.309,-92.0474 289.976,-88.7531 296,-85 314.94,-73.2 313.763,-62.8603 332,-50 334.068,-48.542 336.217,-47.1178 338.419,-45.7319"/>
<polygon fill="midnightblue" stroke="midnightblue" points="340.293,-48.6899 347.119,-40.5866 336.73,-42.6648 340.293,-48.6899"/>
</g>
</g>
</svg>
