<?xml version="1.0" encoding="UTF-8" standalone="no"?>
<!DOCTYPE svg PUBLIC "-//W3C//DTD SVG 1.1//EN"
 "http://www.w3.org/Graphics/SVG/1.1/DTD/svg11.dtd">
<!-- Generated by graphviz version 2.36.0 (20140111.2315)
 -->
<!-- Title: Scenario::Overlap Pages: 1 -->
<svg width="252pt" height="66pt"
 viewBox="0.00 0.00 252.00 66.00" xmlns="http://www.w3.org/2000/svg" xmlns:xlink="http://www.w3.org/1999/xlink">
<g id="graph0" class="graph" transform="scale(1 1) rotate(0) translate(4 62)">
<title>Scenario::Overlap</title>
<!-- Node1 -->
<g id="node1" class="node"><title>Node1</title>
<polygon fill="#bfbfbf" stroke="black" points="0.5,-19.5 0.5,-38.5 95.5,-38.5 95.5,-19.5 0.5,-19.5"/>
<text text-anchor="middle" x="48" y="-26.5" font-family="Helvetica,sans-Serif" font-size="10.00">Scenario::Overlap</text>
</g>
<!-- Node2 -->
<g id="node2" class="node"><title>Node2</title>
<g id="a_node2"><a xlink:href="classElement.html#a7f88fb876554262930c712a85eda5439" target="_top" xlink:title="Element::GetPosition">
<polygon fill="none" stroke="black" points="133,-38.5 133,-57.5 243,-57.5 243,-38.5 133,-38.5"/>
<text text-anchor="middle" x="188" y="-45.5" font-family="Helvetica,sans-Serif" font-size="10.00">Element::GetPosition</text>
</a>
</g>
</g>
<!-- Node1&#45;&gt;Node2 -->
<g id="edge1" class="edge"><title>Node1&#45;&gt;Node2</title>
<path fill="none" stroke="midnightblue" d="M95.7205,-35.4325C104.356,-36.6215 113.513,-37.8822 122.565,-39.1285"/>
<polygon fill="midnightblue" stroke="midnightblue" points="122.322,-42.628 132.706,-40.5248 123.277,-35.6935 122.322,-42.628"/>
</g>
<!-- Node3 -->
<g id="node3" class="node"><title>Node3</title>
<g id="a_node3"><a xlink:href="classElement.html#ad336322888d50e9fd23ea05cadb5be46" target="_top" xlink:title="Element::GetBoxSize">
<polygon fill="none" stroke="black" points="132.5,-0.5 132.5,-19.5 243.5,-19.5 243.5,-0.5 132.5,-0.5"/>
<text text-anchor="middle" x="188" y="-7.5" font-family="Helvetica,sans-Serif" font-size="10.00">Element::GetBoxSize</text>
</a>
</g>
</g>
<!-- Node1&#45;&gt;Node3 -->
<g id="edge2" class="edge"><title>Node1&#45;&gt;Node3</title>
<path fill="none" stroke="midnightblue" d="M95.7205,-22.5675C104.242,-21.3942 113.272,-20.1509 122.207,-18.9207"/>
<polygon fill="midnightblue" stroke="midnightblue" points="122.794,-22.373 132.223,-17.5417 121.839,-15.4384 122.794,-22.373"/>
</g>
</g>
</svg>
