<?xml version="1.0" encoding="UTF-8" standalone="no"?>
<!DOCTYPE svg PUBLIC "-//W3C//DTD SVG 1.1//EN"
 "http://www.w3.org/Graphics/SVG/1.1/DTD/svg11.dtd">
<!-- Generated by graphviz version 2.36.0 (20140111.2315)
 -->
<!-- Title: org::libcppa::warning::operator= Pages: 1 -->
<svg width="570pt" height="87pt"
 viewBox="0.00 0.00 570.00 87.00" xmlns="http://www.w3.org/2000/svg" xmlns:xlink="http://www.w3.org/1999/xlink">
<g id="graph0" class="graph" transform="scale(1 1) rotate(0) translate(4 83)">
<title>org::libcppa::warning::operator=</title>
<!-- Node1 -->
<g id="node1" class="node"><title>Node1</title>
<polygon fill="#bfbfbf" stroke="black" points="0.5,-24 0.5,-54 107.5,-54 107.5,-24 0.5,-24"/>
<text text-anchor="start" x="8.5" y="-42" font-family="Helvetica,sans-Serif" font-size="10.00">org::libcppa::warning</text>
<text text-anchor="middle" x="54" y="-31" font-family="Helvetica,sans-Serif" font-size="10.00">::operator=</text>
</g>
<!-- Node2 -->
<g id="node2" class="node"><title>Node2</title>
<g id="a_node2"><a xlink:href="classorg_1_1libcppa_1_1warning.html#a34aaa717620bfc7f621bacc452d2962e" target="_top" xlink:title="org::libcppa::warning\l::CopyFrom">
<polygon fill="none" stroke="black" points="144.5,-24 144.5,-54 251.5,-54 251.5,-24 144.5,-24"/>
<text text-anchor="start" x="152.5" y="-42" font-family="Helvetica,sans-Serif" font-size="10.00">org::libcppa::warning</text>
<text text-anchor="middle" x="198" y="-31" font-family="Helvetica,sans-Serif" font-size="10.00">::CopyFrom</text>
</a>
</g>
</g>
<!-- Node1&#45;&gt;Node2 -->
<g id="edge1" class="edge"><title>Node1&#45;&gt;Node2</title>
<path fill="none" stroke="midnightblue" d="M107.876,-39C116.377,-39 125.25,-39 133.961,-39"/>
<polygon fill="midnightblue" stroke="midnightblue" points="134.08,-42.5001 144.08,-39 134.08,-35.5001 134.08,-42.5001"/>
</g>
<!-- Node3 -->
<g id="node3" class="node"><title>Node3</title>
<g id="a_node3"><a xlink:href="classorg_1_1libcppa_1_1warning.html#ab18e43b27b16b8f89f4a82bac997dd1e" target="_top" xlink:title="org::libcppa::warning\l::Clear">
<polygon fill="none" stroke="black" points="288.5,-49 288.5,-79 395.5,-79 395.5,-49 288.5,-49"/>
<text text-anchor="start" x="296.5" y="-67" font-family="Helvetica,sans-Serif" font-size="10.00">org::libcppa::warning</text>
<text text-anchor="middle" x="342" y="-56" font-family="Helvetica,sans-Serif" font-size="10.00">::Clear</text>
</a>
</g>
</g>
<!-- Node2&#45;&gt;Node3 -->
<g id="edge2" class="edge"><title>Node2&#45;&gt;Node3</title>
<path fill="none" stroke="midnightblue" d="M251.876,-48.3091C260.377,-49.8058 269.25,-51.3679 277.961,-52.9015"/>
<polygon fill="midnightblue" stroke="midnightblue" points="277.625,-56.3962 288.08,-54.6831 278.839,-49.5022 277.625,-56.3962"/>
</g>
<!-- Node5 -->
<g id="node5" class="node"><title>Node5</title>
<g id="a_node5"><a xlink:href="classorg_1_1libcppa_1_1warning.html#a0a2fd2c7f1f56fa7034dc328d1a7712e" target="_top" xlink:title="org::libcppa::warning\l::MergeFrom">
<polygon fill="none" stroke="black" points="288.5,-0 288.5,-30 395.5,-30 395.5,-0 288.5,-0"/>
<text text-anchor="start" x="296.5" y="-18" font-family="Helvetica,sans-Serif" font-size="10.00">org::libcppa::warning</text>
<text text-anchor="middle" x="342" y="-7" font-family="Helvetica,sans-Serif" font-size="10.00">::MergeFrom</text>
</a>
</g>
</g>
<!-- Node2&#45;&gt;Node5 -->
<g id="edge4" class="edge"><title>Node2&#45;&gt;Node5</title>
<path fill="none" stroke="midnightblue" d="M251.876,-30.0633C260.377,-28.6264 269.25,-27.1268 277.961,-25.6545"/>
<polygon fill="midnightblue" stroke="midnightblue" points="278.803,-29.0618 288.08,-23.9442 277.637,-22.1597 278.803,-29.0618"/>
</g>
<!-- Node4 -->
<g id="node4" class="node"><title>Node4</title>
<g id="a_node4"><a xlink:href="classorg_1_1libcppa_1_1warning.html#a3ab18605034c18f997223800aaf46084" target="_top" xlink:title="org::libcppa::warning\l::mutable_unknown_fields">
<polygon fill="none" stroke="black" points="432,-49 432,-79 562,-79 562,-49 432,-49"/>
<text text-anchor="start" x="440" y="-67" font-family="Helvetica,sans-Serif" font-size="10.00">org::libcppa::warning</text>
<text text-anchor="middle" x="497" y="-56" font-family="Helvetica,sans-Serif" font-size="10.00">::mutable_unknown_fields</text>
</a>
</g>
</g>
<!-- Node3&#45;&gt;Node4 -->
<g id="edge3" class="edge"><title>Node3&#45;&gt;Node4</title>
<path fill="none" stroke="midnightblue" d="M395.654,-64C404.041,-64 412.854,-64 421.629,-64"/>
<polygon fill="midnightblue" stroke="midnightblue" points="421.885,-67.5001 431.885,-64 421.885,-60.5001 421.885,-67.5001"/>
</g>
</g>
</svg>
