<?xml version="1.0" encoding="UTF-8" standalone="no"?>
<!DOCTYPE svg PUBLIC "-//W3C//DTD SVG 1.1//EN"
 "http://www.w3.org/Graphics/SVG/1.1/DTD/svg11.dtd">
<!-- Generated by graphviz version 2.36.0 (20140111.2315)
 -->
<!-- Title: org::libcppa::warning::set_has_id Pages: 1 -->
<svg width="456pt" height="87pt"
 viewBox="0.00 0.00 456.00 87.00" xmlns="http://www.w3.org/2000/svg" xmlns:xlink="http://www.w3.org/1999/xlink">
<g id="graph0" class="graph" transform="scale(1 1) rotate(0) translate(4 83)">
<title>org::libcppa::warning::set_has_id</title>
<!-- Node1 -->
<g id="node1" class="node"><title>Node1</title>
<polygon fill="#bfbfbf" stroke="black" points="0.5,-24 0.5,-54 107.5,-54 107.5,-24 0.5,-24"/>
<text text-anchor="start" x="8.5" y="-42" font-family="Helvetica,sans-Serif" font-size="10.00">org::libcppa::warning</text>
<text text-anchor="middle" x="54" y="-31" font-family="Helvetica,sans-Serif" font-size="10.00">::set_has_id</text>
</g>
<!-- Node2 -->
<g id="node2" class="node"><title>Node2</title>
<g id="a_node2"><a xlink:href="classorg_1_1libcppa_1_1warning.html#ae10b25c463d10eea53e16ff4948ba9dd" target="_top" xlink:title="org::libcppa::warning\l::MergePartialFromCodedStream">
<polygon fill="none" stroke="black" points="144,-49 144,-79 304,-79 304,-49 144,-49"/>
<text text-anchor="start" x="152" y="-67" font-family="Helvetica,sans-Serif" font-size="10.00">org::libcppa::warning</text>
<text text-anchor="middle" x="224" y="-56" font-family="Helvetica,sans-Serif" font-size="10.00">::MergePartialFromCodedStream</text>
</a>
</g>
</g>
<!-- Node1&#45;&gt;Node2 -->
<g id="edge1" class="edge"><title>Node1&#45;&gt;Node2</title>
<path fill="none" stroke="midnightblue" d="M117.828,-48.3493C126.279,-49.607 135.037,-50.9102 143.726,-52.2033"/>
<polygon fill="midnightblue" stroke="midnightblue" points="118.102,-44.8517 107.695,-46.8416 117.071,-51.7754 118.102,-44.8517"/>
</g>
<!-- Node3 -->
<g id="node3" class="node"><title>Node3</title>
<g id="a_node3"><a xlink:href="classorg_1_1libcppa_1_1warning.html#a58db5f0facbd3e856c06207115655596" target="_top" xlink:title="org::libcppa::warning\l::set_id">
<polygon fill="none" stroke="black" points="170.5,-0 170.5,-30 277.5,-30 277.5,-0 170.5,-0"/>
<text text-anchor="start" x="178.5" y="-18" font-family="Helvetica,sans-Serif" font-size="10.00">org::libcppa::warning</text>
<text text-anchor="middle" x="224" y="-7" font-family="Helvetica,sans-Serif" font-size="10.00">::set_id</text>
</a>
</g>
</g>
<!-- Node1&#45;&gt;Node3 -->
<g id="edge2" class="edge"><title>Node1&#45;&gt;Node3</title>
<path fill="none" stroke="midnightblue" d="M117.746,-30.0363C135.111,-27.5555 153.774,-24.8894 170.492,-22.5012"/>
<polygon fill="midnightblue" stroke="midnightblue" points="117.1,-26.593 107.695,-31.4721 118.09,-33.5226 117.1,-26.593"/>
</g>
<!-- Node4 -->
<g id="node4" class="node"><title>Node4</title>
<g id="a_node4"><a xlink:href="classorg_1_1libcppa_1_1warning.html#a6a97a1d89ce4e288261a5c275281090d" target="_top" xlink:title="org::libcppa::warning\l::MergeFrom">
<polygon fill="none" stroke="black" points="340.5,-0 340.5,-30 447.5,-30 447.5,-0 340.5,-0"/>
<text text-anchor="start" x="348.5" y="-18" font-family="Helvetica,sans-Serif" font-size="10.00">org::libcppa::warning</text>
<text text-anchor="middle" x="394" y="-7" font-family="Helvetica,sans-Serif" font-size="10.00">::MergeFrom</text>
</a>
</g>
</g>
<!-- Node3&#45;&gt;Node4 -->
<g id="edge3" class="edge"><title>Node3&#45;&gt;Node4</title>
<path fill="none" stroke="midnightblue" d="M287.746,-15C305.111,-15 323.774,-15 340.492,-15"/>
<polygon fill="midnightblue" stroke="midnightblue" points="287.695,-11.5001 277.695,-15 287.695,-18.5001 287.695,-11.5001"/>
</g>
</g>
</svg>
