<?xml version="1.0" encoding="UTF-8" standalone="no"?>
<!DOCTYPE svg PUBLIC "-//W3C//DTD SVG 1.1//EN"
 "http://www.w3.org/Graphics/SVG/1.1/DTD/svg11.dtd">
<!-- Generated by graphviz version 2.36.0 (20140111.2315)
 -->
<!-- Title: pb::SensorNearData::MFC::CameraImage::ByteSize Pages: 1 -->
<svg width="312pt" height="2149pt"
 viewBox="0.00 0.00 312.00 2149.00" xmlns="http://www.w3.org/2000/svg" xmlns:xlink="http://www.w3.org/1999/xlink">
<g id="graph0" class="graph" transform="scale(1 1) rotate(0) translate(4 2145)">
<title>pb::SensorNearData::MFC::CameraImage::ByteSize</title>
<!-- Node1 -->
<g id="node1" class="node"><title>Node1</title>
<polygon fill="#bfbfbf" stroke="black" points="0,-1049.5 0,-1090.5 118,-1090.5 118,-1049.5 0,-1049.5"/>
<text text-anchor="start" x="8" y="-1078.5" font-family="Helvetica,sans-Serif" font-size="10.00">pb::SensorNearData</text>
<text text-anchor="start" x="8" y="-1067.5" font-family="Helvetica,sans-Serif" font-size="10.00">::MFC::CameraImage::</text>
<text text-anchor="middle" x="59" y="-1056.5" font-family="Helvetica,sans-Serif" font-size="10.00">ByteSize</text>
</g>
<!-- Node2 -->
<g id="node2" class="node"><title>Node2</title>
<g id="a_node2"><a xlink:href="classpb_1_1SensorNearData_1_1MFC_1_1CameraImage.html#a0d5dce7ebc7c3620d52b36c5cc20f0f7" target="_top" xlink:title="pb::SensorNearData\l::MFC::CameraImage::\lhas_header">
<polygon fill="none" stroke="black" points="170,-2099.5 170,-2140.5 288,-2140.5 288,-2099.5 170,-2099.5"/>
<text text-anchor="start" x="178" y="-2128.5" font-family="Helvetica,sans-Serif" font-size="10.00">pb::SensorNearData</text>
<text text-anchor="start" x="178" y="-2117.5" font-family="Helvetica,sans-Serif" font-size="10.00">::MFC::CameraImage::</text>
<text text-anchor="middle" x="229" y="-2106.5" font-family="Helvetica,sans-Serif" font-size="10.00">has_header</text>
</a>
</g>
</g>
<!-- Node1&#45;&gt;Node2 -->
<g id="edge1" class="edge"><title>Node1&#45;&gt;Node2</title>
<path fill="none" stroke="midnightblue" d="M60.6431,-1090.73C65.0716,-1228.22 92.7115,-2005.48 154,-2089 156.233,-2092.04 158.822,-2094.79 161.666,-2097.27"/>
<polygon fill="midnightblue" stroke="midnightblue" points="159.602,-2100.09 169.725,-2103.22 163.761,-2094.46 159.602,-2100.09"/>
</g>
<!-- Node3 -->
<g id="node3" class="node"><title>Node3</title>
<g id="a_node3"><a xlink:href="classpb_1_1SensorNearData_1_1MFC_1_1CameraImage.html#aa744416e8e2a2b9e5c6c3dd24e54868e" target="_top" xlink:title="pb::SensorNearData\l::MFC::CameraImage::\lheader">
<polygon fill="none" stroke="black" points="170,-2039.5 170,-2080.5 288,-2080.5 288,-2039.5 170,-2039.5"/>
<text text-anchor="start" x="178" y="-2068.5" font-family="Helvetica,sans-Serif" font-size="10.00">pb::SensorNearData</text>
<text text-anchor="start" x="178" y="-2057.5" font-family="Helvetica,sans-Serif" font-size="10.00">::MFC::CameraImage::</text>
<text text-anchor="middle" x="229" y="-2046.5" font-family="Helvetica,sans-Serif" font-size="10.00">header</text>
</a>
</g>
</g>
<!-- Node1&#45;&gt;Node3 -->
<g id="edge2" class="edge"><title>Node1&#45;&gt;Node3</title>
<path fill="none" stroke="midnightblue" d="M60.771,-1090.78C65.8633,-1223.62 96.2505,-1950.77 154,-2029 156.241,-2032.04 158.837,-2034.78 161.687,-2037.25"/>
<polygon fill="midnightblue" stroke="midnightblue" points="159.63,-2040.08 169.757,-2043.2 163.781,-2034.45 159.63,-2040.08"/>
</g>
<!-- Node4 -->
<g id="node4" class="node"><title>Node4</title>
<g id="a_node4"><a xlink:href="classpb_1_1SensorNearData_1_1MFC_1_1CameraImage.html#a00a22309b55d4187058a9eb1c4786dd5" target="_top" xlink:title="pb::SensorNearData\l::MFC::CameraImage::\lhas_image_counter">
<polygon fill="none" stroke="black" points="170,-1979.5 170,-2020.5 288,-2020.5 288,-1979.5 170,-1979.5"/>
<text text-anchor="start" x="178" y="-2008.5" font-family="Helvetica,sans-Serif" font-size="10.00">pb::SensorNearData</text>
<text text-anchor="start" x="178" y="-1997.5" font-family="Helvetica,sans-Serif" font-size="10.00">::MFC::CameraImage::</text>
<text text-anchor="middle" x="229" y="-1986.5" font-family="Helvetica,sans-Serif" font-size="10.00">has_image_counter</text>
</a>
</g>
</g>
<!-- Node1&#45;&gt;Node4 -->
<g id="edge3" class="edge"><title>Node1&#45;&gt;Node4</title>
<path fill="none" stroke="midnightblue" d="M60.9107,-1090.71C66.6904,-1218.43 99.7663,-1896.03 154,-1969 156.251,-1972.03 158.855,-1974.76 161.711,-1977.23"/>
<polygon fill="midnightblue" stroke="midnightblue" points="159.661,-1980.07 169.792,-1983.17 163.805,-1974.43 159.661,-1980.07"/>
</g>
<!-- Node5 -->
<g id="node5" class="node"><title>Node5</title>
<g id="a_node5"><a xlink:href="classpb_1_1SensorNearData_1_1MFC_1_1CameraImage.html#a5b35b9651ff42a3a5eed159355c45f10" target="_top" xlink:title="pb::SensorNearData\l::MFC::CameraImage::\limage_counter">
<polygon fill="none" stroke="black" points="170,-1919.5 170,-1960.5 288,-1960.5 288,-1919.5 170,-1919.5"/>
<text text-anchor="start" x="178" y="-1948.5" font-family="Helvetica,sans-Serif" font-size="10.00">pb::SensorNearData</text>
<text text-anchor="start" x="178" y="-1937.5" font-family="Helvetica,sans-Serif" font-size="10.00">::MFC::CameraImage::</text>
<text text-anchor="middle" x="229" y="-1926.5" font-family="Helvetica,sans-Serif" font-size="10.00">image_counter</text>
</a>
</g>
</g>
<!-- Node1&#45;&gt;Node5 -->
<g id="edge4" class="edge"><title>Node1&#45;&gt;Node5</title>
<path fill="none" stroke="midnightblue" d="M61.0625,-1090.5C67.5525,-1212.63 103.259,-1841.25 154,-1909 156.262,-1912.02 158.875,-1914.75 161.738,-1917.21"/>
<polygon fill="midnightblue" stroke="midnightblue" points="159.696,-1920.06 169.833,-1923.14 163.831,-1914.41 159.696,-1920.06"/>
</g>
<!-- Node6 -->
<g id="node6" class="node"><title>Node6</title>
<g id="a_node6"><a xlink:href="classpb_1_1SensorNearData_1_1MFC_1_1CameraImage.html#a013374a7320eaf297cb86cc491d3604b" target="_top" xlink:title="pb::SensorNearData\l::MFC::CameraImage::\lhas_image_width">
<polygon fill="none" stroke="black" points="170,-1859.5 170,-1900.5 288,-1900.5 288,-1859.5 170,-1859.5"/>
<text text-anchor="start" x="178" y="-1888.5" font-family="Helvetica,sans-Serif" font-size="10.00">pb::SensorNearData</text>
<text text-anchor="start" x="178" y="-1877.5" font-family="Helvetica,sans-Serif" font-size="10.00">::MFC::CameraImage::</text>
<text text-anchor="middle" x="229" y="-1866.5" font-family="Helvetica,sans-Serif" font-size="10.00">has_image_width</text>
</a>
</g>
</g>
<!-- Node1&#45;&gt;Node6 -->
<g id="edge5" class="edge"><title>Node1&#45;&gt;Node6</title>
<path fill="none" stroke="midnightblue" d="M59.7729,-1090.74C58.9523,-1201.7 60.1725,-1724.83 154,-1849 156.275,-1852.01 158.898,-1854.73 161.768,-1857.19"/>
<polygon fill="midnightblue" stroke="midnightblue" points="159.737,-1860.04 169.879,-1863.1 163.861,-1854.38 159.737,-1860.04"/>
</g>
<!-- Node7 -->
<g id="node7" class="node"><title>Node7</title>
<g id="a_node7"><a xlink:href="classpb_1_1SensorNearData_1_1MFC_1_1CameraImage.html#a094b9c34c186698c13638d66d376e75c" target="_top" xlink:title="pb::SensorNearData\l::MFC::CameraImage::\limage_width">
<polygon fill="none" stroke="black" points="170,-1799.5 170,-1840.5 288,-1840.5 288,-1799.5 170,-1799.5"/>
<text text-anchor="start" x="178" y="-1828.5" font-family="Helvetica,sans-Serif" font-size="10.00">pb::SensorNearData</text>
<text text-anchor="start" x="178" y="-1817.5" font-family="Helvetica,sans-Serif" font-size="10.00">::MFC::CameraImage::</text>
<text text-anchor="middle" x="229" y="-1806.5" font-family="Helvetica,sans-Serif" font-size="10.00">image_width</text>
</a>
</g>
</g>
<!-- Node1&#45;&gt;Node7 -->
<g id="edge6" class="edge"><title>Node1&#45;&gt;Node7</title>
<path fill="none" stroke="midnightblue" d="M60.0048,-1090.52C60.4171,-1195.84 67.1055,-1675.18 154,-1789 156.29,-1792 158.924,-1794.71 161.804,-1797.16"/>
<polygon fill="midnightblue" stroke="midnightblue" points="159.784,-1800.02 169.933,-1803.06 163.896,-1794.36 159.784,-1800.02"/>
</g>
<!-- Node8 -->
<g id="node8" class="node"><title>Node8</title>
<g id="a_node8"><a xlink:href="classpb_1_1SensorNearData_1_1MFC_1_1CameraImage.html#a8eb2949c4a1836b925c8d409572350ca" target="_top" xlink:title="pb::SensorNearData\l::MFC::CameraImage::\lhas_image_height">
<polygon fill="none" stroke="black" points="170,-1739.5 170,-1780.5 288,-1780.5 288,-1739.5 170,-1739.5"/>
<text text-anchor="start" x="178" y="-1768.5" font-family="Helvetica,sans-Serif" font-size="10.00">pb::SensorNearData</text>
<text text-anchor="start" x="178" y="-1757.5" font-family="Helvetica,sans-Serif" font-size="10.00">::MFC::CameraImage::</text>
<text text-anchor="middle" x="229" y="-1746.5" font-family="Helvetica,sans-Serif" font-size="10.00">has_image_height</text>
</a>
</g>
</g>
<!-- Node1&#45;&gt;Node8 -->
<g id="edge7" class="edge"><title>Node1&#45;&gt;Node8</title>
<path fill="none" stroke="midnightblue" d="M60.2804,-1090.77C62.0256,-1191.18 74.1504,-1625.66 154,-1729 156.308,-1731.99 158.955,-1734.69 161.846,-1737.13"/>
<polygon fill="midnightblue" stroke="midnightblue" points="159.84,-1740 169.997,-1743.01 163.937,-1734.32 159.84,-1740"/>
</g>
<!-- Node9 -->
<g id="node9" class="node"><title>Node9</title>
<g id="a_node9"><a xlink:href="classpb_1_1SensorNearData_1_1MFC_1_1CameraImage.html#aa103619cccc6310931c87d03fcefbed6" target="_top" xlink:title="pb::SensorNearData\l::MFC::CameraImage::\limage_height">
<polygon fill="none" stroke="black" points="170,-1679.5 170,-1720.5 288,-1720.5 288,-1679.5 170,-1679.5"/>
<text text-anchor="start" x="178" y="-1708.5" font-family="Helvetica,sans-Serif" font-size="10.00">pb::SensorNearData</text>
<text text-anchor="start" x="178" y="-1697.5" font-family="Helvetica,sans-Serif" font-size="10.00">::MFC::CameraImage::</text>
<text text-anchor="middle" x="229" y="-1686.5" font-family="Helvetica,sans-Serif" font-size="10.00">image_height</text>
</a>
</g>
</g>
<!-- Node1&#45;&gt;Node9 -->
<g id="edge8" class="edge"><title>Node1&#45;&gt;Node9</title>
<path fill="none" stroke="midnightblue" d="M60.6081,-1090.75C63.7693,-1185.46 81.0996,-1576.01 154,-1669 156.216,-1671.83 158.735,-1674.4 161.476,-1676.74"/>
<polygon fill="midnightblue" stroke="midnightblue" points="159.568,-1679.68 169.713,-1682.73 163.688,-1674.02 159.568,-1679.68"/>
</g>
<!-- Node10 -->
<g id="node10" class="node"><title>Node10</title>
<g id="a_node10"><a xlink:href="classpb_1_1SensorNearData_1_1MFC_1_1CameraImage.html#a7752fff4312aaaeefe8aa401149fe96d" target="_top" xlink:title="pb::SensorNearData\l::MFC::CameraImage::\lhas_image_shift_u">
<polygon fill="none" stroke="black" points="170,-1619.5 170,-1660.5 288,-1660.5 288,-1619.5 170,-1619.5"/>
<text text-anchor="start" x="178" y="-1648.5" font-family="Helvetica,sans-Serif" font-size="10.00">pb::SensorNearData</text>
<text text-anchor="start" x="178" y="-1637.5" font-family="Helvetica,sans-Serif" font-size="10.00">::MFC::CameraImage::</text>
<text text-anchor="middle" x="229" y="-1626.5" font-family="Helvetica,sans-Serif" font-size="10.00">has_image_shift_u</text>
</a>
</g>
</g>
<!-- Node1&#45;&gt;Node10 -->
<g id="edge9" class="edge"><title>Node1&#45;&gt;Node10</title>
<path fill="none" stroke="midnightblue" d="M61.0063,-1090.73C65.694,-1179.44 88.0242,-1526.3 154,-1609 156.239,-1611.81 158.778,-1614.36 161.534,-1616.69"/>
<polygon fill="midnightblue" stroke="midnightblue" points="159.647,-1619.65 169.803,-1622.66 163.745,-1613.97 159.647,-1619.65"/>
</g>
<!-- Node11 -->
<g id="node11" class="node"><title>Node11</title>
<g id="a_node11"><a xlink:href="classpb_1_1SensorNearData_1_1MFC_1_1CameraImage.html#a6584c7c2223d8b9417c538dbc66667a9" target="_top" xlink:title="pb::SensorNearData\l::MFC::CameraImage::\limage_shift_u">
<polygon fill="none" stroke="black" points="170,-1559.5 170,-1600.5 288,-1600.5 288,-1559.5 170,-1559.5"/>
<text text-anchor="start" x="178" y="-1588.5" font-family="Helvetica,sans-Serif" font-size="10.00">pb::SensorNearData</text>
<text text-anchor="start" x="178" y="-1577.5" font-family="Helvetica,sans-Serif" font-size="10.00">::MFC::CameraImage::</text>
<text text-anchor="middle" x="229" y="-1566.5" font-family="Helvetica,sans-Serif" font-size="10.00">image_shift_u</text>
</a>
</g>
</g>
<!-- Node1&#45;&gt;Node11 -->
<g id="edge10" class="edge"><title>Node1&#45;&gt;Node11</title>
<path fill="none" stroke="midnightblue" d="M61.4942,-1090.62C67.8284,-1172.86 94.8981,-1476.5 154,-1549 156.269,-1551.78 158.832,-1554.32 161.605,-1556.63"/>
<polygon fill="midnightblue" stroke="midnightblue" points="159.743,-1559.6 169.914,-1562.57 163.814,-1553.91 159.743,-1559.6"/>
</g>
<!-- Node12 -->
<g id="node12" class="node"><title>Node12</title>
<g id="a_node12"><a xlink:href="classpb_1_1SensorNearData_1_1MFC_1_1CameraImage.html#a773feed9504368b849db39f2c916db21" target="_top" xlink:title="pb::SensorNearData\l::MFC::CameraImage::\lhas_image_shift_v">
<polygon fill="none" stroke="black" points="170,-1499.5 170,-1540.5 288,-1540.5 288,-1499.5 170,-1499.5"/>
<text text-anchor="start" x="178" y="-1528.5" font-family="Helvetica,sans-Serif" font-size="10.00">pb::SensorNearData</text>
<text text-anchor="start" x="178" y="-1517.5" font-family="Helvetica,sans-Serif" font-size="10.00">::MFC::CameraImage::</text>
<text text-anchor="middle" x="229" y="-1506.5" font-family="Helvetica,sans-Serif" font-size="10.00">has_image_shift_v</text>
</a>
</g>
</g>
<!-- Node1&#45;&gt;Node12 -->
<g id="edge11" class="edge"><title>Node1&#45;&gt;Node12</title>
<path fill="none" stroke="midnightblue" d="M62.1209,-1090.58C70.2699,-1166.07 101.753,-1426.64 154,-1489 156.26,-1491.7 158.795,-1494.16 161.528,-1496.42"/>
<polygon fill="midnightblue" stroke="midnightblue" points="159.517,-1499.28 169.693,-1502.23 163.577,-1493.58 159.517,-1499.28"/>
</g>
<!-- Node13 -->
<g id="node13" class="node"><title>Node13</title>
<g id="a_node13"><a xlink:href="classpb_1_1SensorNearData_1_1MFC_1_1CameraImage.html#aa64da64f1bdcc6e12132710d9bc8aab0" target="_top" xlink:title="pb::SensorNearData\l::MFC::CameraImage::\limage_shift_v">
<polygon fill="none" stroke="black" points="170,-1439.5 170,-1480.5 288,-1480.5 288,-1439.5 170,-1439.5"/>
<text text-anchor="start" x="178" y="-1468.5" font-family="Helvetica,sans-Serif" font-size="10.00">pb::SensorNearData</text>
<text text-anchor="start" x="178" y="-1457.5" font-family="Helvetica,sans-Serif" font-size="10.00">::MFC::CameraImage::</text>
<text text-anchor="middle" x="229" y="-1446.5" font-family="Helvetica,sans-Serif" font-size="10.00">image_shift_v</text>
</a>
</g>
</g>
<!-- Node1&#45;&gt;Node13 -->
<g id="edge12" class="edge"><title>Node1&#45;&gt;Node13</title>
<path fill="none" stroke="midnightblue" d="M59.4214,-1090.71C58.8651,-1150.71 65.2874,-1326.85 154,-1429 156.308,-1431.66 158.88,-1434.09 161.644,-1436.32"/>
<polygon fill="midnightblue" stroke="midnightblue" points="159.673,-1439.21 169.873,-1442.08 163.687,-1433.48 159.673,-1439.21"/>
</g>
<!-- Node14 -->
<g id="node14" class="node"><title>Node14</title>
<g id="a_node14"><a xlink:href="classpb_1_1SensorNearData_1_1MFC_1_1CameraImage.html#af1eb7f1934a4fb1cc45097877bb12ee9" target="_top" xlink:title="pb::SensorNearData\l::MFC::CameraImage::\lhas_o_image_width">
<polygon fill="none" stroke="black" points="170,-1379.5 170,-1420.5 288,-1420.5 288,-1379.5 170,-1379.5"/>
<text text-anchor="start" x="178" y="-1408.5" font-family="Helvetica,sans-Serif" font-size="10.00">pb::SensorNearData</text>
<text text-anchor="start" x="178" y="-1397.5" font-family="Helvetica,sans-Serif" font-size="10.00">::MFC::CameraImage::</text>
<text text-anchor="middle" x="229" y="-1386.5" font-family="Helvetica,sans-Serif" font-size="10.00">has_o_image_width</text>
</a>
</g>
</g>
<!-- Node1&#45;&gt;Node14 -->
<g id="edge13" class="edge"><title>Node1&#45;&gt;Node14</title>
<path fill="none" stroke="midnightblue" d="M60.7346,-1090.67C63.7017,-1143.73 78.6541,-1286.37 154,-1369 156.252,-1371.47 158.733,-1373.75 161.379,-1375.85"/>
<polygon fill="midnightblue" stroke="midnightblue" points="159.536,-1378.83 169.751,-1381.64 163.519,-1373.08 159.536,-1378.83"/>
</g>
<!-- Node15 -->
<g id="node15" class="node"><title>Node15</title>
<g id="a_node15"><a xlink:href="classpb_1_1SensorNearData_1_1MFC_1_1CameraImage.html#acb62cc3e178142d1a553e2dee6703386" target="_top" xlink:title="pb::SensorNearData\l::MFC::CameraImage::\lo_image_width">
<polygon fill="none" stroke="black" points="170,-1319.5 170,-1360.5 288,-1360.5 288,-1319.5 170,-1319.5"/>
<text text-anchor="start" x="178" y="-1348.5" font-family="Helvetica,sans-Serif" font-size="10.00">pb::SensorNearData</text>
<text text-anchor="start" x="178" y="-1337.5" font-family="Helvetica,sans-Serif" font-size="10.00">::MFC::CameraImage::</text>
<text text-anchor="middle" x="229" y="-1326.5" font-family="Helvetica,sans-Serif" font-size="10.00">o_image_width</text>
</a>
</g>
</g>
<!-- Node1&#45;&gt;Node15 -->
<g id="edge14" class="edge"><title>Node1&#45;&gt;Node15</title>
<path fill="none" stroke="midnightblue" d="M62.6771,-1090.84C69.5691,-1136.34 91.9533,-1245.57 154,-1309 156.289,-1311.34 158.781,-1313.51 161.42,-1315.53"/>
<polygon fill="midnightblue" stroke="midnightblue" points="159.47,-1318.43 169.721,-1321.11 163.376,-1312.62 159.47,-1318.43"/>
</g>
<!-- Node16 -->
<g id="node16" class="node"><title>Node16</title>
<g id="a_node16"><a xlink:href="classpb_1_1SensorNearData_1_1MFC_1_1CameraImage.html#a7a6ca73b20db747b3c42fe8fd8bcec38" target="_top" xlink:title="pb::SensorNearData\l::MFC::CameraImage::\lhas_o_image_height">
<polygon fill="none" stroke="black" points="170,-1259.5 170,-1300.5 288,-1300.5 288,-1259.5 170,-1259.5"/>
<text text-anchor="start" x="178" y="-1288.5" font-family="Helvetica,sans-Serif" font-size="10.00">pb::SensorNearData</text>
<text text-anchor="start" x="178" y="-1277.5" font-family="Helvetica,sans-Serif" font-size="10.00">::MFC::CameraImage::</text>
<text text-anchor="middle" x="229" y="-1266.5" font-family="Helvetica,sans-Serif" font-size="10.00">has_o_image_height</text>
</a>
</g>
</g>
<!-- Node1&#45;&gt;Node16 -->
<g id="edge15" class="edge"><title>Node1&#45;&gt;Node16</title>
<path fill="none" stroke="midnightblue" d="M65.7195,-1090.57C76.8723,-1127.16 104.839,-1203.93 154,-1249 156.214,-1251.03 158.58,-1252.94 161.057,-1254.73"/>
<polygon fill="midnightblue" stroke="midnightblue" points="159.541,-1257.92 169.844,-1260.38 163.329,-1252.03 159.541,-1257.92"/>
</g>
<!-- Node17 -->
<g id="node17" class="node"><title>Node17</title>
<g id="a_node17"><a xlink:href="classpb_1_1SensorNearData_1_1MFC_1_1CameraImage.html#a583847832e6bac67c6994530de643673" target="_top" xlink:title="pb::SensorNearData\l::MFC::CameraImage::\lo_image_height">
<polygon fill="none" stroke="black" points="170,-1199.5 170,-1240.5 288,-1240.5 288,-1199.5 170,-1199.5"/>
<text text-anchor="start" x="178" y="-1228.5" font-family="Helvetica,sans-Serif" font-size="10.00">pb::SensorNearData</text>
<text text-anchor="start" x="178" y="-1217.5" font-family="Helvetica,sans-Serif" font-size="10.00">::MFC::CameraImage::</text>
<text text-anchor="middle" x="229" y="-1206.5" font-family="Helvetica,sans-Serif" font-size="10.00">o_image_height</text>
</a>
</g>
</g>
<!-- Node1&#45;&gt;Node17 -->
<g id="edge16" class="edge"><title>Node1&#45;&gt;Node17</title>
<path fill="none" stroke="midnightblue" d="M71.7969,-1090.73C87.5508,-1116.79 117.726,-1161.45 154,-1189 156.472,-1190.88 159.074,-1192.66 161.765,-1194.36"/>
<polygon fill="midnightblue" stroke="midnightblue" points="160.2,-1197.5 170.61,-1199.47 163.701,-1191.43 160.2,-1197.5"/>
</g>
<!-- Node18 -->
<g id="node18" class="node"><title>Node18</title>
<g id="a_node18"><a xlink:href="classpb_1_1SensorNearData_1_1MFC_1_1CameraImage.html#ab7d8089509a4744a809b34ef4a5e6168" target="_top" xlink:title="pb::SensorNearData\l::MFC::CameraImage::\lhas_imager_size_u">
<polygon fill="none" stroke="black" points="170,-1139.5 170,-1180.5 288,-1180.5 288,-1139.5 170,-1139.5"/>
<text text-anchor="start" x="178" y="-1168.5" font-family="Helvetica,sans-Serif" font-size="10.00">pb::SensorNearData</text>
<text text-anchor="start" x="178" y="-1157.5" font-family="Helvetica,sans-Serif" font-size="10.00">::MFC::CameraImage::</text>
<text text-anchor="middle" x="229" y="-1146.5" font-family="Helvetica,sans-Serif" font-size="10.00">has_imager_size_u</text>
</a>
</g>
</g>
<!-- Node1&#45;&gt;Node18 -->
<g id="edge17" class="edge"><title>Node1&#45;&gt;Node18</title>
<path fill="none" stroke="midnightblue" d="M90.1599,-1090.7C108.241,-1102.66 131.937,-1117.55 154,-1129 158.003,-1131.08 162.177,-1133.12 166.414,-1135.12"/>
<polygon fill="midnightblue" stroke="midnightblue" points="165.201,-1138.41 175.752,-1139.38 168.108,-1132.04 165.201,-1138.41"/>
</g>
<!-- Node19 -->
<g id="node19" class="node"><title>Node19</title>
<g id="a_node19"><a xlink:href="classpb_1_1SensorNearData_1_1MFC_1_1CameraImage.html#adcd74af7097d7e0d3e0c6252b8212eb8" target="_top" xlink:title="pb::SensorNearData\l::MFC::CameraImage::\limager_size_u">
<polygon fill="none" stroke="black" points="170,-1079.5 170,-1120.5 288,-1120.5 288,-1079.5 170,-1079.5"/>
<text text-anchor="start" x="178" y="-1108.5" font-family="Helvetica,sans-Serif" font-size="10.00">pb::SensorNearData</text>
<text text-anchor="start" x="178" y="-1097.5" font-family="Helvetica,sans-Serif" font-size="10.00">::MFC::CameraImage::</text>
<text text-anchor="middle" x="229" y="-1086.5" font-family="Helvetica,sans-Serif" font-size="10.00">imager_size_u</text>
</a>
</g>
</g>
<!-- Node1&#45;&gt;Node19 -->
<g id="edge18" class="edge"><title>Node1&#45;&gt;Node19</title>
<path fill="none" stroke="midnightblue" d="M118.287,-1080.41C131.709,-1082.81 146.1,-1085.37 159.897,-1087.84"/>
<polygon fill="midnightblue" stroke="midnightblue" points="159.357,-1091.3 169.816,-1089.61 160.587,-1084.41 159.357,-1091.3"/>
</g>
<!-- Node20 -->
<g id="node20" class="node"><title>Node20</title>
<g id="a_node20"><a xlink:href="classpb_1_1SensorNearData_1_1MFC_1_1CameraImage.html#acd15f3b5ee6ae2ab2b1bfc0f46951dc0" target="_top" xlink:title="pb::SensorNearData\l::MFC::CameraImage::\lhas_imager_size_v">
<polygon fill="none" stroke="black" points="170,-1019.5 170,-1060.5 288,-1060.5 288,-1019.5 170,-1019.5"/>
<text text-anchor="start" x="178" y="-1048.5" font-family="Helvetica,sans-Serif" font-size="10.00">pb::SensorNearData</text>
<text text-anchor="start" x="178" y="-1037.5" font-family="Helvetica,sans-Serif" font-size="10.00">::MFC::CameraImage::</text>
<text text-anchor="middle" x="229" y="-1026.5" font-family="Helvetica,sans-Serif" font-size="10.00">has_imager_size_v</text>
</a>
</g>
</g>
<!-- Node1&#45;&gt;Node20 -->
<g id="edge19" class="edge"><title>Node1&#45;&gt;Node20</title>
<path fill="none" stroke="midnightblue" d="M118.287,-1059.59C131.709,-1057.19 146.1,-1054.63 159.897,-1052.16"/>
<polygon fill="midnightblue" stroke="midnightblue" points="160.587,-1055.59 169.816,-1050.39 159.357,-1048.7 160.587,-1055.59"/>
</g>
<!-- Node21 -->
<g id="node21" class="node"><title>Node21</title>
<g id="a_node21"><a xlink:href="classpb_1_1SensorNearData_1_1MFC_1_1CameraImage.html#a0abb7bfa0d756392556d88b1be28c38b" target="_top" xlink:title="pb::SensorNearData\l::MFC::CameraImage::\limager_size_v">
<polygon fill="none" stroke="black" points="170,-959.5 170,-1000.5 288,-1000.5 288,-959.5 170,-959.5"/>
<text text-anchor="start" x="178" y="-988.5" font-family="Helvetica,sans-Serif" font-size="10.00">pb::SensorNearData</text>
<text text-anchor="start" x="178" y="-977.5" font-family="Helvetica,sans-Serif" font-size="10.00">::MFC::CameraImage::</text>
<text text-anchor="middle" x="229" y="-966.5" font-family="Helvetica,sans-Serif" font-size="10.00">imager_size_v</text>
</a>
</g>
</g>
<!-- Node1&#45;&gt;Node21 -->
<g id="edge20" class="edge"><title>Node1&#45;&gt;Node21</title>
<path fill="none" stroke="midnightblue" d="M89.2293,-1049.38C107.378,-1037.07 131.464,-1021.64 154,-1010 157.337,-1008.28 160.797,-1006.58 164.316,-1004.93"/>
<polygon fill="midnightblue" stroke="midnightblue" points="166.064,-1007.98 173.726,-1000.66 163.173,-1001.61 166.064,-1007.98"/>
</g>
<!-- Node22 -->
<g id="node22" class="node"><title>Node22</title>
<g id="a_node22"><a xlink:href="classpb_1_1SensorNearData_1_1MFC_1_1CameraImage.html#a7ce3f4bae45b3eed14d94973d71ddf08" target="_top" xlink:title="pb::SensorNearData\l::MFC::CameraImage::\lhas_o_image_pattern">
<polygon fill="none" stroke="black" points="170,-899.5 170,-940.5 288,-940.5 288,-899.5 170,-899.5"/>
<text text-anchor="start" x="178" y="-928.5" font-family="Helvetica,sans-Serif" font-size="10.00">pb::SensorNearData</text>
<text text-anchor="start" x="178" y="-917.5" font-family="Helvetica,sans-Serif" font-size="10.00">::MFC::CameraImage::</text>
<text text-anchor="middle" x="229" y="-906.5" font-family="Helvetica,sans-Serif" font-size="10.00">has_o_image_pattern</text>
</a>
</g>
</g>
<!-- Node1&#45;&gt;Node22 -->
<g id="edge21" class="edge"><title>Node1&#45;&gt;Node22</title>
<path fill="none" stroke="midnightblue" d="M71.435,-1049.48C87.0144,-1023.19 117.224,-977.711 154,-950 156.284,-948.279 158.679,-946.641 161.155,-945.084"/>
<polygon fill="midnightblue" stroke="midnightblue" points="162.906,-948.114 169.829,-940.094 159.416,-942.046 162.906,-948.114"/>
</g>
<!-- Node23 -->
<g id="node23" class="node"><title>Node23</title>
<g id="a_node23"><a xlink:href="classpb_1_1SensorNearData_1_1MFC_1_1CameraImage.html#a2f8b4aafd92b4531613082b48ff2fa00" target="_top" xlink:title="pb::SensorNearData\l::MFC::CameraImage::\lo_image_pattern">
<polygon fill="none" stroke="black" points="170,-839.5 170,-880.5 288,-880.5 288,-839.5 170,-839.5"/>
<text text-anchor="start" x="178" y="-868.5" font-family="Helvetica,sans-Serif" font-size="10.00">pb::SensorNearData</text>
<text text-anchor="start" x="178" y="-857.5" font-family="Helvetica,sans-Serif" font-size="10.00">::MFC::CameraImage::</text>
<text text-anchor="middle" x="229" y="-846.5" font-family="Helvetica,sans-Serif" font-size="10.00">o_image_pattern</text>
</a>
</g>
</g>
<!-- Node1&#45;&gt;Node23 -->
<g id="edge22" class="edge"><title>Node1&#45;&gt;Node23</title>
<path fill="none" stroke="midnightblue" d="M65.6348,-1049.26C76.6535,-1012.37 104.415,-935.035 154,-890 156.213,-887.99 158.578,-886.106 161.054,-884.341"/>
<polygon fill="midnightblue" stroke="midnightblue" points="163.257,-887.089 169.839,-878.787 159.516,-881.173 163.257,-887.089"/>
</g>
<!-- Node24 -->
<g id="node24" class="node"><title>Node24</title>
<g id="a_node24"><a xlink:href="classpb_1_1SensorNearData_1_1MFC_1_1CameraImage.html#a80e0379d8727f22b32daa1590998ef8f" target="_top" xlink:title="pb::SensorNearData\l::MFC::CameraImage::\lhas_image_compressed">
<polygon fill="none" stroke="black" points="168,-779.5 168,-820.5 290,-820.5 290,-779.5 168,-779.5"/>
<text text-anchor="start" x="176" y="-808.5" font-family="Helvetica,sans-Serif" font-size="10.00">pb::SensorNearData</text>
<text text-anchor="start" x="176" y="-797.5" font-family="Helvetica,sans-Serif" font-size="10.00">::MFC::CameraImage::</text>
<text text-anchor="middle" x="229" y="-786.5" font-family="Helvetica,sans-Serif" font-size="10.00">has_image_compressed</text>
</a>
</g>
</g>
<!-- Node1&#45;&gt;Node24 -->
<g id="edge23" class="edge"><title>Node1&#45;&gt;Node24</title>
<path fill="none" stroke="midnightblue" d="M62.5454,-1049.37C69.215,-1003.78 91.2495,-893.499 154,-830 155.663,-828.318 157.432,-826.726 159.287,-825.221"/>
<polygon fill="midnightblue" stroke="midnightblue" points="161.737,-827.777 167.901,-819.161 157.709,-822.052 161.737,-827.777"/>
</g>
<!-- Node25 -->
<g id="node25" class="node"><title>Node25</title>
<g id="a_node25"><a xlink:href="classpb_1_1SensorNearData_1_1MFC_1_1CameraImage.html#a084c333e6e949edeac5b1103ba1f00cd" target="_top" xlink:title="pb::SensorNearData\l::MFC::CameraImage::\lhas_image_compression_type">
<polygon fill="none" stroke="black" points="154.5,-719.5 154.5,-760.5 303.5,-760.5 303.5,-719.5 154.5,-719.5"/>
<text text-anchor="start" x="162.5" y="-748.5" font-family="Helvetica,sans-Serif" font-size="10.00">pb::SensorNearData</text>
<text text-anchor="start" x="162.5" y="-737.5" font-family="Helvetica,sans-Serif" font-size="10.00">::MFC::CameraImage::</text>
<text text-anchor="middle" x="229" y="-726.5" font-family="Helvetica,sans-Serif" font-size="10.00">has_image_compression_type</text>
</a>
</g>
</g>
<!-- Node1&#45;&gt;Node25 -->
<g id="edge24" class="edge"><title>Node1&#45;&gt;Node25</title>
<path fill="none" stroke="midnightblue" d="M60.6566,-1049.21C63.4384,-995.854 77.9867,-852.476 154,-770 154.898,-769.025 155.833,-768.081 156.8,-767.168"/>
<polygon fill="midnightblue" stroke="midnightblue" points="159.19,-769.737 164.776,-760.734 154.795,-764.288 159.19,-769.737"/>
</g>
<!-- Node26 -->
<g id="node26" class="node"><title>Node26</title>
<g id="a_node26"><a xlink:href="classpb_1_1SensorNearData_1_1MFC_1_1CameraImage.html#a41058a696e1b317e33e3152505317d32" target="_top" xlink:title="pb::SensorNearData\l::MFC::CameraImage::\limage_compression_type">
<polygon fill="none" stroke="black" points="165,-659.5 165,-700.5 293,-700.5 293,-659.5 165,-659.5"/>
<text text-anchor="start" x="173" y="-688.5" font-family="Helvetica,sans-Serif" font-size="10.00">pb::SensorNearData</text>
<text text-anchor="start" x="173" y="-677.5" font-family="Helvetica,sans-Serif" font-size="10.00">::MFC::CameraImage::</text>
<text text-anchor="middle" x="229" y="-666.5" font-family="Helvetica,sans-Serif" font-size="10.00">image_compression_type</text>
</a>
</g>
</g>
<!-- Node1&#45;&gt;Node26 -->
<g id="edge25" class="edge"><title>Node1&#45;&gt;Node26</title>
<path fill="none" stroke="midnightblue" d="M59.3452,-1049.18C58.5824,-988.882 64.5008,-811.936 154,-710 155,-708.861 156.05,-707.764 157.144,-706.708"/>
<polygon fill="midnightblue" stroke="midnightblue" points="159.419,-709.369 164.929,-700.319 154.978,-703.958 159.419,-709.369"/>
</g>
<!-- Node27 -->
<g id="node27" class="node"><title>Node27</title>
<g id="a_node27"><a xlink:href="classpb_1_1SensorNearData_1_1MFC_1_1CameraImage.html#a2788abc7cf87d6d740ab3979af7ae776" target="_top" xlink:title="pb::SensorNearData\l::MFC::CameraImage::\lhas_image_type">
<polygon fill="none" stroke="black" points="170,-599.5 170,-640.5 288,-640.5 288,-599.5 170,-599.5"/>
<text text-anchor="start" x="178" y="-628.5" font-family="Helvetica,sans-Serif" font-size="10.00">pb::SensorNearData</text>
<text text-anchor="start" x="178" y="-617.5" font-family="Helvetica,sans-Serif" font-size="10.00">::MFC::CameraImage::</text>
<text text-anchor="middle" x="229" y="-606.5" font-family="Helvetica,sans-Serif" font-size="10.00">has_image_type</text>
</a>
</g>
</g>
<!-- Node1&#45;&gt;Node27 -->
<g id="edge26" class="edge"><title>Node1&#45;&gt;Node27</title>
<path fill="none" stroke="midnightblue" d="M62.0907,-1049.35C70.1333,-973.613 101.29,-712.211 154,-650 156.196,-647.409 158.649,-645.039 161.29,-642.871"/>
<polygon fill="midnightblue" stroke="midnightblue" points="163.537,-645.57 169.709,-636.958 159.514,-639.842 163.537,-645.57"/>
</g>
<!-- Node28 -->
<g id="node28" class="node"><title>Node28</title>
<g id="a_node28"><a xlink:href="classpb_1_1SensorNearData_1_1MFC_1_1CameraImage.html#a519e600f0c631d0abea3ae0961ad5727" target="_top" xlink:title="pb::SensorNearData\l::MFC::CameraImage::\limage_type">
<polygon fill="none" stroke="black" points="170,-539.5 170,-580.5 288,-580.5 288,-539.5 170,-539.5"/>
<text text-anchor="start" x="178" y="-568.5" font-family="Helvetica,sans-Serif" font-size="10.00">pb::SensorNearData</text>
<text text-anchor="start" x="178" y="-557.5" font-family="Helvetica,sans-Serif" font-size="10.00">::MFC::CameraImage::</text>
<text text-anchor="middle" x="229" y="-546.5" font-family="Helvetica,sans-Serif" font-size="10.00">image_type</text>
</a>
</g>
</g>
<!-- Node1&#45;&gt;Node28 -->
<g id="edge27" class="edge"><title>Node1&#45;&gt;Node28</title>
<path fill="none" stroke="midnightblue" d="M61.4644,-1049.32C67.6843,-966.828 94.375,-662.315 154,-590 156.274,-587.242 158.84,-584.736 161.617,-582.458"/>
<polygon fill="midnightblue" stroke="midnightblue" points="163.755,-585.233 169.932,-576.625 159.735,-579.503 163.755,-585.233"/>
</g>
<!-- Node29 -->
<g id="node29" class="node"><title>Node29</title>
<g id="a_node29"><a xlink:href="classpb_1_1SensorNearData_1_1MFC_1_1CameraImage.html#afbdcb6651a4e1e6cb5624082efd1a280" target="_top" xlink:title="pb::SensorNearData\l::MFC::CameraImage::\lhas_byte_per_pixel">
<polygon fill="none" stroke="black" points="170,-479.5 170,-520.5 288,-520.5 288,-479.5 170,-479.5"/>
<text text-anchor="start" x="178" y="-508.5" font-family="Helvetica,sans-Serif" font-size="10.00">pb::SensorNearData</text>
<text text-anchor="start" x="178" y="-497.5" font-family="Helvetica,sans-Serif" font-size="10.00">::MFC::CameraImage::</text>
<text text-anchor="middle" x="229" y="-486.5" font-family="Helvetica,sans-Serif" font-size="10.00">has_byte_per_pixel</text>
</a>
</g>
</g>
<!-- Node1&#45;&gt;Node29 -->
<g id="edge28" class="edge"><title>Node1&#45;&gt;Node29</title>
<path fill="none" stroke="midnightblue" d="M60.9768,-1049.21C65.5425,-960.261 87.4409,-612.478 154,-530 156.245,-527.219 158.787,-524.693 161.546,-522.401"/>
<polygon fill="midnightblue" stroke="midnightblue" points="163.687,-525.173 169.822,-516.535 159.639,-519.462 163.687,-525.173"/>
</g>
<!-- Node30 -->
<g id="node30" class="node"><title>Node30</title>
<g id="a_node30"><a xlink:href="classpb_1_1SensorNearData_1_1MFC_1_1CameraImage.html#acce045e2efd5ea9de14953bdfa2c6c27" target="_top" xlink:title="pb::SensorNearData\l::MFC::CameraImage::\lbyte_per_pixel">
<polygon fill="none" stroke="black" points="170,-419.5 170,-460.5 288,-460.5 288,-419.5 170,-419.5"/>
<text text-anchor="start" x="178" y="-448.5" font-family="Helvetica,sans-Serif" font-size="10.00">pb::SensorNearData</text>
<text text-anchor="start" x="178" y="-437.5" font-family="Helvetica,sans-Serif" font-size="10.00">::MFC::CameraImage::</text>
<text text-anchor="middle" x="229" y="-426.5" font-family="Helvetica,sans-Serif" font-size="10.00">byte_per_pixel</text>
</a>
</g>
</g>
<!-- Node1&#45;&gt;Node30 -->
<g id="edge29" class="edge"><title>Node1&#45;&gt;Node30</title>
<path fill="none" stroke="midnightblue" d="M60.5789,-1049.19C63.6109,-954.248 80.4559,-562.73 154,-470 156.221,-467.2 158.745,-464.659 161.489,-462.355"/>
<polygon fill="midnightblue" stroke="midnightblue" points="163.631,-465.126 169.733,-456.464 159.562,-459.43 163.631,-465.126"/>
</g>
<!-- Node31 -->
<g id="node31" class="node"><title>Node31</title>
<g id="a_node31"><a xlink:href="classpb_1_1SensorNearData_1_1MFC_1_1CameraImage.html#a07c445617ccc1e69267366055ba8640f" target="_top" xlink:title="pb::SensorNearData\l::MFC::CameraImage::\lhas_bit_per_pixel">
<polygon fill="none" stroke="black" points="170,-359.5 170,-400.5 288,-400.5 288,-359.5 170,-359.5"/>
<text text-anchor="start" x="178" y="-388.5" font-family="Helvetica,sans-Serif" font-size="10.00">pb::SensorNearData</text>
<text text-anchor="start" x="178" y="-377.5" font-family="Helvetica,sans-Serif" font-size="10.00">::MFC::CameraImage::</text>
<text text-anchor="middle" x="229" y="-366.5" font-family="Helvetica,sans-Serif" font-size="10.00">has_bit_per_pixel</text>
</a>
</g>
</g>
<!-- Node1&#45;&gt;Node31 -->
<g id="edge30" class="edge"><title>Node1&#45;&gt;Node31</title>
<path fill="none" stroke="midnightblue" d="M60.2514,-1049.18C61.8605,-948.525 73.4461,-513.034 154,-410 156.201,-407.184 158.71,-404.632 161.441,-402.317"/>
<polygon fill="midnightblue" stroke="midnightblue" points="163.585,-405.087 169.659,-396.406 159.497,-399.404 163.585,-405.087"/>
</g>
<!-- Node32 -->
<g id="node32" class="node"><title>Node32</title>
<g id="a_node32"><a xlink:href="classpb_1_1SensorNearData_1_1MFC_1_1CameraImage.html#ada7958847303eafbe361cc7e8a2fe7d4" target="_top" xlink:title="pb::SensorNearData\l::MFC::CameraImage::\lbit_per_pixel">
<polygon fill="none" stroke="black" points="170,-299.5 170,-340.5 288,-340.5 288,-299.5 170,-299.5"/>
<text text-anchor="start" x="178" y="-328.5" font-family="Helvetica,sans-Serif" font-size="10.00">pb::SensorNearData</text>
<text text-anchor="start" x="178" y="-317.5" font-family="Helvetica,sans-Serif" font-size="10.00">::MFC::CameraImage::</text>
<text text-anchor="middle" x="229" y="-306.5" font-family="Helvetica,sans-Serif" font-size="10.00">bit_per_pixel</text>
</a>
</g>
</g>
<!-- Node1&#45;&gt;Node32 -->
<g id="edge31" class="edge"><title>Node1&#45;&gt;Node32</title>
<path fill="none" stroke="midnightblue" d="M59.9763,-1049.44C60.2466,-943.878 66.34,-463.48 154,-350 156.229,-347.115 158.78,-344.506 161.565,-342.147"/>
<polygon fill="midnightblue" stroke="midnightblue" points="163.863,-344.807 169.955,-336.139 159.787,-339.115 163.863,-344.807"/>
</g>
<!-- Node33 -->
<g id="node33" class="node"><title>Node33</title>
<g id="a_node33"><a xlink:href="classpb_1_1SensorNearData_1_1MFC_1_1CameraImage.html#a560c780e9167af2f055e5e46bb66ea83" target="_top" xlink:title="pb::SensorNearData\l::MFC::CameraImage::\lhas_image_payload">
<polygon fill="none" stroke="black" points="170,-239.5 170,-280.5 288,-280.5 288,-239.5 170,-239.5"/>
<text text-anchor="start" x="178" y="-268.5" font-family="Helvetica,sans-Serif" font-size="10.00">pb::SensorNearData</text>
<text text-anchor="start" x="178" y="-257.5" font-family="Helvetica,sans-Serif" font-size="10.00">::MFC::CameraImage::</text>
<text text-anchor="middle" x="229" y="-246.5" font-family="Helvetica,sans-Serif" font-size="10.00">has_image_payload</text>
</a>
</g>
</g>
<!-- Node1&#45;&gt;Node33 -->
<g id="edge32" class="edge"><title>Node1&#45;&gt;Node33</title>
<path fill="none" stroke="midnightblue" d="M59.7443,-1049.22C58.7749,-938.019 59.3467,-413.793 154,-290 156.214,-287.104 158.754,-284.486 161.53,-282.121"/>
<polygon fill="midnightblue" stroke="midnightblue" points="163.828,-284.779 169.902,-276.098 159.74,-279.097 163.828,-284.779"/>
</g>
<!-- Node34 -->
<g id="node34" class="node"><title>Node34</title>
<g id="a_node34"><a xlink:href="classpb_1_1SensorNearData_1_1MFC_1_1CameraImage.html#a5a0eb509d1d0626ebcd7af2605cf9593" target="_top" xlink:title="pb::SensorNearData\l::MFC::CameraImage::\limage_payload">
<polygon fill="none" stroke="black" points="170,-179.5 170,-220.5 288,-220.5 288,-179.5 170,-179.5"/>
<text text-anchor="start" x="178" y="-208.5" font-family="Helvetica,sans-Serif" font-size="10.00">pb::SensorNearData</text>
<text text-anchor="start" x="178" y="-197.5" font-family="Helvetica,sans-Serif" font-size="10.00">::MFC::CameraImage::</text>
<text text-anchor="middle" x="229" y="-186.5" font-family="Helvetica,sans-Serif" font-size="10.00">image_payload</text>
</a>
</g>
</g>
<!-- Node1&#45;&gt;Node34 -->
<g id="edge33" class="edge"><title>Node1&#45;&gt;Node34</title>
<path fill="none" stroke="midnightblue" d="M61.0498,-1049.46C67.4653,-927.139 102.812,-297.538 154,-230 156.202,-227.095 158.732,-224.47 161.501,-222.098"/>
<polygon fill="midnightblue" stroke="midnightblue" points="163.799,-224.756 169.856,-216.063 159.7,-219.081 163.799,-224.756"/>
</g>
<!-- Node35 -->
<g id="node35" class="node"><title>Node35</title>
<g id="a_node35"><a xlink:href="classpb_1_1SensorNearData_1_1MFC_1_1CameraImage.html#a9d590baab4806ea1ee3b3598c3f2d813" target="_top" xlink:title="pb::SensorNearData\l::MFC::CameraImage::\lhas_bmp_image">
<polygon fill="none" stroke="black" points="170,-119.5 170,-160.5 288,-160.5 288,-119.5 170,-119.5"/>
<text text-anchor="start" x="178" y="-148.5" font-family="Helvetica,sans-Serif" font-size="10.00">pb::SensorNearData</text>
<text text-anchor="start" x="178" y="-137.5" font-family="Helvetica,sans-Serif" font-size="10.00">::MFC::CameraImage::</text>
<text text-anchor="middle" x="229" y="-126.5" font-family="Helvetica,sans-Serif" font-size="10.00">has_bmp_image</text>
</a>
</g>
</g>
<!-- Node1&#45;&gt;Node35 -->
<g id="edge34" class="edge"><title>Node1&#45;&gt;Node35</title>
<path fill="none" stroke="midnightblue" d="M60.8979,-1049.26C66.6001,-921.349 99.2898,-242.742 154,-170 156.191,-167.087 158.713,-164.455 161.475,-162.078"/>
<polygon fill="midnightblue" stroke="midnightblue" points="163.773,-164.735 169.816,-156.033 159.665,-159.067 163.773,-164.735"/>
</g>
<!-- Node36 -->
<g id="node36" class="node"><title>Node36</title>
<g id="a_node36"><a xlink:href="classpb_1_1SensorNearData_1_1MFC_1_1CameraImage.html#a73855ae6202719e8dcee3926393b9497" target="_top" xlink:title="pb::SensorNearData\l::MFC::CameraImage::\lbmp_image">
<polygon fill="none" stroke="black" points="170,-59.5 170,-100.5 288,-100.5 288,-59.5 170,-59.5"/>
<text text-anchor="start" x="178" y="-88.5" font-family="Helvetica,sans-Serif" font-size="10.00">pb::SensorNearData</text>
<text text-anchor="start" x="178" y="-77.5" font-family="Helvetica,sans-Serif" font-size="10.00">::MFC::CameraImage::</text>
<text text-anchor="middle" x="229" y="-66.5" font-family="Helvetica,sans-Serif" font-size="10.00">bmp_image</text>
</a>
</g>
</g>
<!-- Node1&#45;&gt;Node36 -->
<g id="edge35" class="edge"><title>Node1&#45;&gt;Node36</title>
<path fill="none" stroke="midnightblue" d="M60.7582,-1049.19C65.7702,-916.156 95.7434,-187.98 154,-110 156.182,-107.08 158.696,-104.442 161.452,-102.061"/>
<polygon fill="midnightblue" stroke="midnightblue" points="163.75,-104.718 169.781,-96.0064 159.634,-99.0557 163.75,-104.718"/>
</g>
<!-- Node37 -->
<g id="node37" class="node"><title>Node37</title>
<g id="a_node37"><a xlink:href="classpb_1_1SensorNearData_1_1MFC_1_1CameraImage.html#a852004498c4e556e29fabcdddcd7db4e" target="_top" xlink:title="pb::SensorNearData\l::MFC::CameraImage::\lunknown_fields">
<polygon fill="none" stroke="black" points="170,0.5 170,-40.5 288,-40.5 288,0.5 170,0.5"/>
<text text-anchor="start" x="178" y="-28.5" font-family="Helvetica,sans-Serif" font-size="10.00">pb::SensorNearData</text>
<text text-anchor="start" x="178" y="-17.5" font-family="Helvetica,sans-Serif" font-size="10.00">::MFC::CameraImage::</text>
<text text-anchor="middle" x="229" y="-6.5" font-family="Helvetica,sans-Serif" font-size="10.00">unknown_fields</text>
</a>
</g>
</g>
<!-- Node1&#45;&gt;Node37 -->
<g id="edge36" class="edge"><title>Node1&#45;&gt;Node37</title>
<path fill="none" stroke="midnightblue" d="M60.6303,-1049.24C64.976,-911.563 92.1738,-133.253 154,-50 156.173,-47.0733 158.681,-44.4313 161.432,-42.0464"/>
<polygon fill="midnightblue" stroke="midnightblue" points="163.73,-44.7021 169.75,-35.9832 159.607,-39.0454 163.73,-44.7021"/>
</g>
</g>
</svg>
