<?xml version="1.0" encoding="UTF-8" standalone="no"?>
<!DOCTYPE svg PUBLIC "-//W3C//DTD SVG 1.1//EN"
 "http://www.w3.org/Graphics/SVG/1.1/DTD/svg11.dtd">
<!-- Generated by graphviz version 2.36.0 (20140111.2315)
 -->
<!-- Title: csCommunication::Warning::MergeFrom Pages: 1 -->
<svg width="494pt" height="87pt"
 viewBox="0.00 0.00 494.00 87.00" xmlns="http://www.w3.org/2000/svg" xmlns:xlink="http://www.w3.org/1999/xlink">
<g id="graph0" class="graph" transform="scale(1 1) rotate(0) translate(4 83)">
<title>csCommunication::Warning::MergeFrom</title>
<!-- Node1 -->
<g id="node1" class="node"><title>Node1</title>
<polygon fill="#bfbfbf" stroke="black" points="0.5,-24 0.5,-54 137.5,-54 137.5,-24 0.5,-24"/>
<text text-anchor="start" x="8.5" y="-42" font-family="Helvetica,sans-Serif" font-size="10.00">csCommunication::Warning</text>
<text text-anchor="middle" x="69" y="-31" font-family="Helvetica,sans-Serif" font-size="10.00">::MergeFrom</text>
</g>
<!-- Node2 -->
<g id="node2" class="node"><title>Node2</title>
<g id="a_node2"><a xlink:href="classcsCommunication_1_1Warning.html#a3d8c4e75203d7ecc0a4c63021dacde47" target="_top" xlink:title="csCommunication::Warning\l::Warning">
<polygon fill="none" stroke="black" points="174.5,-49 174.5,-79 311.5,-79 311.5,-49 174.5,-49"/>
<text text-anchor="start" x="182.5" y="-67" font-family="Helvetica,sans-Serif" font-size="10.00">csCommunication::Warning</text>
<text text-anchor="middle" x="243" y="-56" font-family="Helvetica,sans-Serif" font-size="10.00">::Warning</text>
</a>
</g>
</g>
<!-- Node1&#45;&gt;Node2 -->
<g id="edge1" class="edge"><title>Node1&#45;&gt;Node2</title>
<path fill="none" stroke="midnightblue" d="M148.134,-50.3567C156.846,-51.6229 165.666,-52.9049 174.233,-54.1502"/>
<polygon fill="midnightblue" stroke="midnightblue" points="148.378,-46.8555 137.979,-48.8807 147.372,-53.7827 148.378,-46.8555"/>
</g>
<!-- Node3 -->
<g id="node3" class="node"><title>Node3</title>
<g id="a_node3"><a xlink:href="classcsCommunication_1_1Warning.html#a44212518144909b9a671a5a165824ccb" target="_top" xlink:title="csCommunication::Warning\l::CopyFrom">
<polygon fill="none" stroke="black" points="174.5,-0 174.5,-30 311.5,-30 311.5,-0 174.5,-0"/>
<text text-anchor="start" x="182.5" y="-18" font-family="Helvetica,sans-Serif" font-size="10.00">csCommunication::Warning</text>
<text text-anchor="middle" x="243" y="-7" font-family="Helvetica,sans-Serif" font-size="10.00">::CopyFrom</text>
</a>
</g>
</g>
<!-- Node1&#45;&gt;Node3 -->
<g id="edge2" class="edge"><title>Node1&#45;&gt;Node3</title>
<path fill="none" stroke="midnightblue" d="M148.134,-28.0976C156.846,-26.882 165.666,-25.6512 174.233,-24.4558"/>
<polygon fill="midnightblue" stroke="midnightblue" points="147.399,-24.6661 137.979,-29.5146 148.367,-31.5989 147.399,-24.6661"/>
</g>
<!-- Node4 -->
<g id="node4" class="node"><title>Node4</title>
<g id="a_node4"><a xlink:href="classcsCommunication_1_1Warning.html#a97bbbb3eb2f186494f01c75765788842" target="_top" xlink:title="csCommunication::Warning\l::operator=">
<polygon fill="none" stroke="black" points="348.5,-0 348.5,-30 485.5,-30 485.5,-0 348.5,-0"/>
<text text-anchor="start" x="356.5" y="-18" font-family="Helvetica,sans-Serif" font-size="10.00">csCommunication::Warning</text>
<text text-anchor="middle" x="417" y="-7" font-family="Helvetica,sans-Serif" font-size="10.00">::operator=</text>
</a>
</g>
</g>
<!-- Node3&#45;&gt;Node4 -->
<g id="edge3" class="edge"><title>Node3&#45;&gt;Node4</title>
<path fill="none" stroke="midnightblue" d="M322.134,-15C330.846,-15 339.666,-15 348.233,-15"/>
<polygon fill="midnightblue" stroke="midnightblue" points="321.979,-11.5001 311.979,-15 321.979,-18.5001 321.979,-11.5001"/>
</g>
</g>
</svg>
