<?xml version="1.0" encoding="UTF-8" standalone="no"?>
<!DOCTYPE svg PUBLIC "-//W3C//DTD SVG 1.1//EN"
 "http://www.w3.org/Graphics/SVG/1.1/DTD/svg11.dtd">
<!-- Generated by graphviz version 2.36.0 (20140111.2315)
 -->
<!-- Title: FrameSelector::ReadImage Pages: 1 -->
<svg width="506pt" height="312pt"
 viewBox="0.00 0.00 506.00 312.00" xmlns="http://www.w3.org/2000/svg" xmlns:xlink="http://www.w3.org/1999/xlink">
<g id="graph0" class="graph" transform="scale(1 1) rotate(0) translate(4 308)">
<title>FrameSelector::ReadImage</title>
<!-- Node1 -->
<g id="node1" class="node"><title>Node1</title>
<polygon fill="#bfbfbf" stroke="black" points="0.5,-142.5 0.5,-161.5 137.5,-161.5 137.5,-142.5 0.5,-142.5"/>
<text text-anchor="middle" x="69" y="-149.5" font-family="Helvetica,sans-Serif" font-size="10.00">FrameSelector::ReadImage</text>
</g>
<!-- Node2 -->
<g id="node2" class="node"><title>Node2</title>
<g id="a_node2"><a xlink:href="classHDFReader.html#a8be8f7b773c8547b5ace39960541fd33" target="_top" xlink:title="HDFReader::ReadOneProtobufFile">
<polygon fill="none" stroke="black" points="174.5,-284.5 174.5,-303.5 343.5,-303.5 343.5,-284.5 174.5,-284.5"/>
<text text-anchor="middle" x="259" y="-291.5" font-family="Helvetica,sans-Serif" font-size="10.00">HDFReader::ReadOneProtobufFile</text>
</a>
</g>
</g>
<!-- Node1&#45;&gt;Node2 -->
<g id="edge1" class="edge"><title>Node1&#45;&gt;Node2</title>
<path fill="none" stroke="midnightblue" d="M75.331,-161.729C88.6524,-185.072 125.813,-244.502 174,-274 178.363,-276.671 183.056,-278.985 187.912,-280.99"/>
<polygon fill="midnightblue" stroke="midnightblue" points="186.817,-284.316 197.41,-284.478 189.23,-277.745 186.817,-284.316"/>
</g>
<!-- Node4 -->
<g id="node4" class="node"><title>Node4</title>
<g id="a_node4"><a xlink:href="classFrameSelector.html#ae72491ab70eb61111b1cebfb637a53a2" target="_top" xlink:title="FrameSelector::ConvertProtobuf\lFileToArray">
<polygon fill="none" stroke="black" points="180,-235 180,-265 338,-265 338,-235 180,-235"/>
<text text-anchor="start" x="188" y="-253" font-family="Helvetica,sans-Serif" font-size="10.00">FrameSelector::ConvertProtobuf</text>
<text text-anchor="middle" x="259" y="-242" font-family="Helvetica,sans-Serif" font-size="10.00">FileToArray</text>
</a>
</g>
</g>
<!-- Node1&#45;&gt;Node4 -->
<g id="edge3" class="edge"><title>Node1&#45;&gt;Node4</title>
<path fill="none" stroke="midnightblue" d="M81.0845,-161.629C99.3109,-177.018 137.264,-207.225 174,-225 178.674,-227.261 183.594,-229.364 188.613,-231.31"/>
<polygon fill="midnightblue" stroke="midnightblue" points="187.75,-234.722 198.344,-234.861 190.149,-228.145 187.75,-234.722"/>
</g>
<!-- Node5 -->
<g id="node5" class="node"><title>Node5</title>
<g id="a_node5"><a xlink:href="classProtobufImageWrapper.html#aba70c98783a278dd1b62771c244cf3f9" target="_top" xlink:title="ProtobufImageWrapper\l::ParseFromArray">
<polygon fill="none" stroke="black" points="200.5,-186 200.5,-216 317.5,-216 317.5,-186 200.5,-186"/>
<text text-anchor="start" x="208.5" y="-204" font-family="Helvetica,sans-Serif" font-size="10.00">ProtobufImageWrapper</text>
<text text-anchor="middle" x="259" y="-193" font-family="Helvetica,sans-Serif" font-size="10.00">::ParseFromArray</text>
</a>
</g>
</g>
<!-- Node1&#45;&gt;Node5 -->
<g id="edge4" class="edge"><title>Node1&#45;&gt;Node5</title>
<path fill="none" stroke="midnightblue" d="M106.695,-161.564C130.496,-167.768 162.224,-176.037 190.477,-183.401"/>
<polygon fill="midnightblue" stroke="midnightblue" points="189.748,-186.828 200.307,-185.963 191.513,-180.054 189.748,-186.828"/>
</g>
<!-- Node6 -->
<g id="node6" class="node"><title>Node6</title>
<g id="a_node6"><a xlink:href="classProtobufImageWrapper.html#a444790ea96785a92ab17a8be689f9872" target="_top" xlink:title="ProtobufImageWrapper\l::GetImagePayload">
<polygon fill="none" stroke="black" points="200.5,-137 200.5,-167 317.5,-167 317.5,-137 200.5,-137"/>
<text text-anchor="start" x="208.5" y="-155" font-family="Helvetica,sans-Serif" font-size="10.00">ProtobufImageWrapper</text>
<text text-anchor="middle" x="259" y="-144" font-family="Helvetica,sans-Serif" font-size="10.00">::GetImagePayload</text>
</a>
</g>
</g>
<!-- Node1&#45;&gt;Node6 -->
<g id="edge5" class="edge"><title>Node1&#45;&gt;Node6</title>
<path fill="none" stroke="midnightblue" d="M137.607,-152C154.606,-152 172.859,-152 189.883,-152"/>
<polygon fill="midnightblue" stroke="midnightblue" points="190.302,-155.5 200.302,-152 190.302,-148.5 190.302,-155.5"/>
</g>
<!-- Node8 -->
<g id="node8" class="node"><title>Node8</title>
<g id="a_node8"><a xlink:href="classProtobufImageWrapper.html#aabff426d3c841dad57cbd0f16f5382cd" target="_top" xlink:title="ProtobufImageWrapper\l::GetImageWidth">
<polygon fill="none" stroke="black" points="200.5,-88 200.5,-118 317.5,-118 317.5,-88 200.5,-88"/>
<text text-anchor="start" x="208.5" y="-106" font-family="Helvetica,sans-Serif" font-size="10.00">ProtobufImageWrapper</text>
<text text-anchor="middle" x="259" y="-95" font-family="Helvetica,sans-Serif" font-size="10.00">::GetImageWidth</text>
</a>
</g>
</g>
<!-- Node1&#45;&gt;Node8 -->
<g id="edge7" class="edge"><title>Node1&#45;&gt;Node8</title>
<path fill="none" stroke="midnightblue" d="M106.695,-142.436C130.496,-136.232 162.224,-127.963 190.477,-120.599"/>
<polygon fill="midnightblue" stroke="midnightblue" points="191.513,-123.946 200.307,-118.037 189.748,-117.172 191.513,-123.946"/>
</g>
<!-- Node10 -->
<g id="node10" class="node"><title>Node10</title>
<g id="a_node10"><a xlink:href="classProtobufImageWrapper.html#a7c01e9c1075bc30378996282e17d10a6" target="_top" xlink:title="ProtobufImageWrapper\l::GetImageHeight">
<polygon fill="none" stroke="black" points="200.5,-39 200.5,-69 317.5,-69 317.5,-39 200.5,-39"/>
<text text-anchor="start" x="208.5" y="-57" font-family="Helvetica,sans-Serif" font-size="10.00">ProtobufImageWrapper</text>
<text text-anchor="middle" x="259" y="-46" font-family="Helvetica,sans-Serif" font-size="10.00">::GetImageHeight</text>
</a>
</g>
</g>
<!-- Node1&#45;&gt;Node10 -->
<g id="edge9" class="edge"><title>Node1&#45;&gt;Node10</title>
<path fill="none" stroke="midnightblue" d="M80.7438,-142.435C98.7865,-126.835 136.857,-95.8673 174,-78 179.254,-75.4728 184.823,-73.1635 190.496,-71.0636"/>
<polygon fill="midnightblue" stroke="midnightblue" points="191.804,-74.3143 200.101,-67.7257 189.506,-67.7021 191.804,-74.3143"/>
</g>
<!-- Node12 -->
<g id="node12" class="node"><title>Node12</title>
<g id="a_node12"><a xlink:href="classImage.html#adc25a467233718f37ae881cdebffa5c2" target="_top" xlink:title="Image::GetImageWidth">
<polygon fill="none" stroke="black" points="200,-0.5 200,-19.5 318,-19.5 318,-0.5 200,-0.5"/>
<text text-anchor="middle" x="259" y="-7.5" font-family="Helvetica,sans-Serif" font-size="10.00">Image::GetImageWidth</text>
</a>
</g>
</g>
<!-- Node1&#45;&gt;Node12 -->
<g id="edge11" class="edge"><title>Node1&#45;&gt;Node12</title>
<path fill="none" stroke="midnightblue" d="M75.2877,-142.155C88.513,-118.541 125.476,-58.4621 174,-29 178.994,-25.9676 184.421,-23.4182 190.032,-21.2751"/>
<polygon fill="midnightblue" stroke="midnightblue" points="191.253,-24.557 199.605,-18.0384 189.011,-17.9258 191.253,-24.557"/>
</g>
<!-- Node3 -->
<g id="node3" class="node"><title>Node3</title>
<g id="a_node3"><a xlink:href="namespacepatch.html#a54d2400c78aef13e3748a87cd7c86ede" target="_top" xlink:title="patch::to_string">
<polygon fill="none" stroke="black" points="397,-284.5 397,-303.5 481,-303.5 481,-284.5 397,-284.5"/>
<text text-anchor="middle" x="439" y="-291.5" font-family="Helvetica,sans-Serif" font-size="10.00">patch::to_string</text>
</a>
</g>
</g>
<!-- Node2&#45;&gt;Node3 -->
<g id="edge2" class="edge"><title>Node2&#45;&gt;Node3</title>
<path fill="none" stroke="midnightblue" d="M343.527,-294C358.211,-294 373.094,-294 386.57,-294"/>
<polygon fill="midnightblue" stroke="midnightblue" points="386.574,-297.5 396.574,-294 386.574,-290.5 386.574,-297.5"/>
</g>
<!-- Node7 -->
<g id="node7" class="node"><title>Node7</title>
<g id="a_node7"><a xlink:href="classpb_1_1SensorNearData_1_1MFC_1_1CameraImage.html#a5a0eb509d1d0626ebcd7af2605cf9593" target="_top" xlink:title="pb::SensorNearData\l::MFC::CameraImage::\limage_payload">
<polygon fill="none" stroke="black" points="380,-142.5 380,-183.5 498,-183.5 498,-142.5 380,-142.5"/>
<text text-anchor="start" x="388" y="-171.5" font-family="Helvetica,sans-Serif" font-size="10.00">pb::SensorNearData</text>
<text text-anchor="start" x="388" y="-160.5" font-family="Helvetica,sans-Serif" font-size="10.00">::MFC::CameraImage::</text>
<text text-anchor="middle" x="439" y="-149.5" font-family="Helvetica,sans-Serif" font-size="10.00">image_payload</text>
</a>
</g>
</g>
<!-- Node6&#45;&gt;Node7 -->
<g id="edge6" class="edge"><title>Node6&#45;&gt;Node7</title>
<path fill="none" stroke="midnightblue" d="M317.791,-155.571C334.268,-156.59 352.379,-157.709 369.432,-158.763"/>
<polygon fill="midnightblue" stroke="midnightblue" points="369.692,-162.285 379.889,-159.409 370.124,-155.299 369.692,-162.285"/>
</g>
<!-- Node9 -->
<g id="node9" class="node"><title>Node9</title>
<g id="a_node9"><a xlink:href="classpb_1_1SensorNearData_1_1MFC_1_1CameraImage.html#a094b9c34c186698c13638d66d376e75c" target="_top" xlink:title="pb::SensorNearData\l::MFC::CameraImage::\limage_width">
<polygon fill="none" stroke="black" points="380,-82.5 380,-123.5 498,-123.5 498,-82.5 380,-82.5"/>
<text text-anchor="start" x="388" y="-111.5" font-family="Helvetica,sans-Serif" font-size="10.00">pb::SensorNearData</text>
<text text-anchor="start" x="388" y="-100.5" font-family="Helvetica,sans-Serif" font-size="10.00">::MFC::CameraImage::</text>
<text text-anchor="middle" x="439" y="-89.5" font-family="Helvetica,sans-Serif" font-size="10.00">image_width</text>
</a>
</g>
</g>
<!-- Node8&#45;&gt;Node9 -->
<g id="edge8" class="edge"><title>Node8&#45;&gt;Node9</title>
<path fill="none" stroke="midnightblue" d="M317.791,-103C334.268,-103 352.379,-103 369.432,-103"/>
<polygon fill="midnightblue" stroke="midnightblue" points="369.889,-106.5 379.889,-103 369.889,-99.5001 369.889,-106.5"/>
</g>
<!-- Node11 -->
<g id="node11" class="node"><title>Node11</title>
<g id="a_node11"><a xlink:href="classpb_1_1SensorNearData_1_1MFC_1_1CameraImage.html#aa103619cccc6310931c87d03fcefbed6" target="_top" xlink:title="pb::SensorNearData\l::MFC::CameraImage::\limage_height">
<polygon fill="none" stroke="black" points="380,-22.5 380,-63.5 498,-63.5 498,-22.5 380,-22.5"/>
<text text-anchor="start" x="388" y="-51.5" font-family="Helvetica,sans-Serif" font-size="10.00">pb::SensorNearData</text>
<text text-anchor="start" x="388" y="-40.5" font-family="Helvetica,sans-Serif" font-size="10.00">::MFC::CameraImage::</text>
<text text-anchor="middle" x="439" y="-29.5" font-family="Helvetica,sans-Serif" font-size="10.00">image_height</text>
</a>
</g>
</g>
<!-- Node10&#45;&gt;Node11 -->
<g id="edge10" class="edge"><title>Node10&#45;&gt;Node11</title>
<path fill="none" stroke="midnightblue" d="M317.791,-50.4286C334.268,-49.4104 352.379,-48.2912 369.432,-47.2373"/>
<polygon fill="midnightblue" stroke="midnightblue" points="370.124,-50.7013 379.889,-46.5911 369.692,-43.7147 370.124,-50.7013"/>
</g>
</g>
</svg>
