<?xml version="1.0" encoding="UTF-8" standalone="no"?>
<!DOCTYPE svg PUBLIC "-//W3C//DTD SVG 1.1//EN"
 "http://www.w3.org/Graphics/SVG/1.1/DTD/svg11.dtd">
<!-- Generated by graphviz version 2.36.0 (20140111.2315)
 -->
<!-- Title: pb::Header::unknown_fields Pages: 1 -->
<svg width="282pt" height="164pt"
 viewBox="0.00 0.00 282.00 164.00" xmlns="http://www.w3.org/2000/svg" xmlns:xlink="http://www.w3.org/1999/xlink">
<g id="graph0" class="graph" transform="scale(1 1) rotate(0) translate(4 160)">
<title>pb::Header::unknown_fields</title>
<!-- Node1 -->
<g id="node1" class="node"><title>Node1</title>
<polygon fill="#bfbfbf" stroke="black" points="0,-55 0,-85 110,-85 110,-55 0,-55"/>
<text text-anchor="start" x="8" y="-73" font-family="Helvetica,sans-Serif" font-size="10.00">pb::Header::unknown</text>
<text text-anchor="middle" x="55" y="-62" font-family="Helvetica,sans-Serif" font-size="10.00">_fields</text>
</g>
<!-- Node2 -->
<g id="node2" class="node"><title>Node2</title>
<g id="a_node2"><a xlink:href="classpb_1_1Header.html#acac6cd0c5a9ff5d4414957ad64474680" target="_top" xlink:title="pb::Header::SerializeWith\lCachedSizes">
<polygon fill="none" stroke="black" points="146,-126 146,-156 274,-156 274,-126 146,-126"/>
<text text-anchor="start" x="154" y="-144" font-family="Helvetica,sans-Serif" font-size="10.00">pb::Header::SerializeWith</text>
<text text-anchor="middle" x="210" y="-133" font-family="Helvetica,sans-Serif" font-size="10.00">CachedSizes</text>
</a>
</g>
</g>
<!-- Node1&#45;&gt;Node2 -->
<g id="edge1" class="edge"><title>Node1&#45;&gt;Node2</title>
<path fill="none" stroke="midnightblue" d="M93.1211,-89.9729C109.207,-98.3662 128.361,-108.014 146,-116 153.504,-119.397 161.614,-122.806 169.439,-125.966"/>
<polygon fill="midnightblue" stroke="midnightblue" points="94.5192,-86.7538 84.0392,-85.1981 91.2617,-92.9496 94.5192,-86.7538"/>
</g>
<!-- Node3 -->
<g id="node3" class="node"><title>Node3</title>
<g id="a_node3"><a xlink:href="classpb_1_1Header.html#a833d0211a301a1675eb67fd806bd219c" target="_top" xlink:title="pb::Header::SerializeWith\lCachedSizesToArray">
<polygon fill="none" stroke="black" points="146,-77 146,-107 274,-107 274,-77 146,-77"/>
<text text-anchor="start" x="154" y="-95" font-family="Helvetica,sans-Serif" font-size="10.00">pb::Header::SerializeWith</text>
<text text-anchor="middle" x="210" y="-84" font-family="Helvetica,sans-Serif" font-size="10.00">CachedSizesToArray</text>
</a>
</g>
</g>
<!-- Node1&#45;&gt;Node3 -->
<g id="edge2" class="edge"><title>Node1&#45;&gt;Node3</title>
<path fill="none" stroke="midnightblue" d="M120.509,-79.2758C128.922,-80.4855 137.534,-81.7239 145.924,-82.9302"/>
<polygon fill="midnightblue" stroke="midnightblue" points="120.769,-75.7773 110.373,-77.8183 119.773,-82.706 120.769,-75.7773"/>
</g>
<!-- Node4 -->
<g id="node4" class="node"><title>Node4</title>
<g id="a_node4"><a xlink:href="classpb_1_1Header.html#a76e62e81439c9b78c95ff60d3094bc16" target="_top" xlink:title="pb::Header::ByteSize">
<polygon fill="none" stroke="black" points="155,-38.5 155,-57.5 265,-57.5 265,-38.5 155,-38.5"/>
<text text-anchor="middle" x="210" y="-45.5" font-family="Helvetica,sans-Serif" font-size="10.00">pb::Header::ByteSize</text>
</a>
</g>
</g>
<!-- Node1&#45;&gt;Node4 -->
<g id="edge3" class="edge"><title>Node1&#45;&gt;Node4</title>
<path fill="none" stroke="midnightblue" d="M120.331,-60.7498C131.802,-59.1003 143.649,-57.3969 154.802,-55.7931"/>
<polygon fill="midnightblue" stroke="midnightblue" points="119.773,-57.294 110.373,-62.1817 120.769,-64.2227 119.773,-57.294"/>
</g>
<!-- Node5 -->
<g id="node5" class="node"><title>Node5</title>
<g id="a_node5"><a xlink:href="classpb_1_1Header.html#a073fe3c4b73376382b2f3d422cdc13e1" target="_top" xlink:title="pb::Header::MergeFrom">
<polygon fill="none" stroke="black" points="150,-0.5 150,-19.5 270,-19.5 270,-0.5 150,-0.5"/>
<text text-anchor="middle" x="210" y="-7.5" font-family="Helvetica,sans-Serif" font-size="10.00">pb::Header::MergeFrom</text>
</a>
</g>
</g>
<!-- Node1&#45;&gt;Node5 -->
<g id="edge4" class="edge"><title>Node1&#45;&gt;Node5</title>
<path fill="none" stroke="midnightblue" d="M95.6809,-50.5297C111.183,-43.2928 129.234,-35.3144 146,-29 155.087,-25.5775 165.086,-22.3332 174.388,-19.5259"/>
<polygon fill="midnightblue" stroke="midnightblue" points="93.9385,-47.4819 86.392,-54.9184 96.9288,-53.8111 93.9385,-47.4819"/>
</g>
</g>
</svg>
