<?xml version="1.0" encoding="UTF-8" standalone="no"?>
<!DOCTYPE svg PUBLIC "-//W3C//DTD SVG 1.1//EN"
 "http://www.w3.org/Graphics/SVG/1.1/DTD/svg11.dtd">
<!-- Generated by graphviz version 2.36.0 (20140111.2315)
 -->
<!-- Title: pb::SensorNearData::MFC::CameraImage::set_allocated_bmp_image Pages: 1 -->
<svg width="292pt" height="169pt"
 viewBox="0.00 0.00 292.00 169.00" xmlns="http://www.w3.org/2000/svg" xmlns:xlink="http://www.w3.org/1999/xlink">
<g id="graph0" class="graph" transform="scale(1 1) rotate(0) translate(4 165)">
<title>pb::SensorNearData::MFC::CameraImage::set_allocated_bmp_image</title>
<!-- Node1 -->
<g id="node1" class="node"><title>Node1</title>
<polygon fill="#bfbfbf" stroke="black" points="0,-59.5 0,-100.5 130,-100.5 130,-59.5 0,-59.5"/>
<text text-anchor="start" x="8" y="-88.5" font-family="Helvetica,sans-Serif" font-size="10.00">pb::SensorNearData</text>
<text text-anchor="start" x="8" y="-77.5" font-family="Helvetica,sans-Serif" font-size="10.00">::MFC::CameraImage::</text>
<text text-anchor="middle" x="65" y="-66.5" font-family="Helvetica,sans-Serif" font-size="10.00">set_allocated_bmp_image</text>
</g>
<!-- Node2 -->
<g id="node2" class="node"><title>Node2</title>
<g id="a_node2"><a xlink:href="classpb_1_1SensorNearData_1_1MFC_1_1CameraImage.html#a4218e71cafb38df97e4ff7071284ee7f" target="_top" xlink:title="pb::SensorNearData\l::MFC::CameraImage::\lset_has_bmp_image">
<polygon fill="none" stroke="black" points="166,-119.5 166,-160.5 284,-160.5 284,-119.5 166,-119.5"/>
<text text-anchor="start" x="174" y="-148.5" font-family="Helvetica,sans-Serif" font-size="10.00">pb::SensorNearData</text>
<text text-anchor="start" x="174" y="-137.5" font-family="Helvetica,sans-Serif" font-size="10.00">::MFC::CameraImage::</text>
<text text-anchor="middle" x="225" y="-126.5" font-family="Helvetica,sans-Serif" font-size="10.00">set_has_bmp_image</text>
</a>
</g>
</g>
<!-- Node1&#45;&gt;Node2 -->
<g id="edge1" class="edge"><title>Node1&#45;&gt;Node2</title>
<path fill="none" stroke="midnightblue" d="M120.375,-100.649C133.232,-105.531 147.057,-110.781 160.287,-115.805"/>
<polygon fill="midnightblue" stroke="midnightblue" points="159.202,-119.137 169.793,-119.415 161.687,-112.593 159.202,-119.137"/>
</g>
<!-- Node3 -->
<g id="node3" class="node"><title>Node3</title>
<g id="a_node3"><a xlink:href="classpb_1_1SensorNearData_1_1MFC_1_1CameraImage.html#a73855ae6202719e8dcee3926393b9497" target="_top" xlink:title="pb::SensorNearData\l::MFC::CameraImage::\lbmp_image">
<polygon fill="none" stroke="black" points="166,-59.5 166,-100.5 284,-100.5 284,-59.5 166,-59.5"/>
<text text-anchor="start" x="174" y="-88.5" font-family="Helvetica,sans-Serif" font-size="10.00">pb::SensorNearData</text>
<text text-anchor="start" x="174" y="-77.5" font-family="Helvetica,sans-Serif" font-size="10.00">::MFC::CameraImage::</text>
<text text-anchor="middle" x="225" y="-66.5" font-family="Helvetica,sans-Serif" font-size="10.00">bmp_image</text>
</a>
</g>
</g>
<!-- Node1&#45;&gt;Node3 -->
<g id="edge2" class="edge"><title>Node1&#45;&gt;Node3</title>
<path fill="none" stroke="midnightblue" d="M130.265,-80C138.647,-80 147.258,-80 155.703,-80"/>
<polygon fill="midnightblue" stroke="midnightblue" points="155.896,-83.5001 165.896,-80 155.896,-76.5001 155.896,-83.5001"/>
</g>
<!-- Node4 -->
<g id="node4" class="node"><title>Node4</title>
<g id="a_node4"><a xlink:href="classpb_1_1SensorNearData_1_1MFC_1_1CameraImage.html#ae5f4d339fbfcd9af016084b882c1030b" target="_top" xlink:title="pb::SensorNearData\l::MFC::CameraImage::\lclear_has_bmp_image">
<polygon fill="none" stroke="black" points="166,0.5 166,-40.5 284,-40.5 284,0.5 166,0.5"/>
<text text-anchor="start" x="174" y="-28.5" font-family="Helvetica,sans-Serif" font-size="10.00">pb::SensorNearData</text>
<text text-anchor="start" x="174" y="-17.5" font-family="Helvetica,sans-Serif" font-size="10.00">::MFC::CameraImage::</text>
<text text-anchor="middle" x="225" y="-6.5" font-family="Helvetica,sans-Serif" font-size="10.00">clear_has_bmp_image</text>
</a>
</g>
</g>
<!-- Node1&#45;&gt;Node4 -->
<g id="edge3" class="edge"><title>Node1&#45;&gt;Node4</title>
<path fill="none" stroke="midnightblue" d="M120.375,-59.3514C133.232,-54.4687 147.057,-49.2189 160.287,-44.1949"/>
<polygon fill="midnightblue" stroke="midnightblue" points="161.687,-47.4072 169.793,-40.585 159.202,-40.8631 161.687,-47.4072"/>
</g>
</g>
</svg>
