<?xml version="1.0" encoding="UTF-8" standalone="no"?>
<!DOCTYPE svg PUBLIC "-//W3C//DTD SVG 1.1//EN"
 "http://www.w3.org/Graphics/SVG/1.1/DTD/svg11.dtd">
<!-- Generated by graphviz version 2.36.0 (20140111.2315)
 -->
<!-- Title: Scenario::PointDistance Pages: 1 -->
<svg width="296pt" height="66pt"
 viewBox="0.00 0.00 296.00 66.00" xmlns="http://www.w3.org/2000/svg" xmlns:xlink="http://www.w3.org/1999/xlink">
<g id="graph0" class="graph" transform="scale(1 1) rotate(0) translate(4 62)">
<title>Scenario::PointDistance</title>
<!-- Node1 -->
<g id="node1" class="node"><title>Node1</title>
<polygon fill="#bfbfbf" stroke="black" points="0,-19.5 0,-38.5 122,-38.5 122,-19.5 0,-19.5"/>
<text text-anchor="middle" x="61" y="-26.5" font-family="Helvetica,sans-Serif" font-size="10.00">Scenario::PointDistance</text>
</g>
<!-- Node2 -->
<g id="node2" class="node"><title>Node2</title>
<g id="a_node2"><a xlink:href="classScenario.html#a9d8ccfd2860fbbb55905e9da06ed4ac8" target="_top" xlink:title="Scenario::Distance">
<polygon fill="none" stroke="black" points="173,-38.5 173,-57.5 273,-57.5 273,-38.5 173,-38.5"/>
<text text-anchor="middle" x="223" y="-45.5" font-family="Helvetica,sans-Serif" font-size="10.00">Scenario::Distance</text>
</a>
</g>
</g>
<!-- Node1&#45;&gt;Node2 -->
<g id="edge1" class="edge"><title>Node1&#45;&gt;Node2</title>
<path fill="none" stroke="midnightblue" d="M131.972,-37.3092C145.752,-38.9456 159.936,-40.6299 172.852,-42.1637"/>
<polygon fill="midnightblue" stroke="midnightblue" points="132.376,-33.8327 122.033,-36.129 131.551,-40.7838 132.376,-33.8327"/>
</g>
<!-- Node3 -->
<g id="node3" class="node"><title>Node3</title>
<g id="a_node3"><a xlink:href="classScenario.html#a88eae880766123713d2202bcd4ffaa7c" target="_top" xlink:title="Scenario::CenterDistance">
<polygon fill="none" stroke="black" points="158.5,-0.5 158.5,-19.5 287.5,-19.5 287.5,-0.5 158.5,-0.5"/>
<text text-anchor="middle" x="223" y="-7.5" font-family="Helvetica,sans-Serif" font-size="10.00">Scenario::CenterDistance</text>
</a>
</g>
</g>
<!-- Node1&#45;&gt;Node3 -->
<g id="edge2" class="edge"><title>Node1&#45;&gt;Node3</title>
<path fill="none" stroke="midnightblue" d="M132.182,-20.6658C140.912,-19.6292 149.799,-18.5738 158.421,-17.55"/>
<polygon fill="midnightblue" stroke="midnightblue" points="131.551,-17.2162 122.033,-21.871 132.376,-24.1673 131.551,-17.2162"/>
</g>
</g>
</svg>
