<?xml version="1.0" encoding="UTF-8" standalone="no"?>
<!DOCTYPE svg PUBLIC "-//W3C//DTD SVG 1.1//EN"
 "http://www.w3.org/Graphics/SVG/1.1/DTD/svg11.dtd">
<!-- Generated by graphviz version 2.36.0 (20140111.2315)
 -->
<!-- Title: D Pages: 1 -->
<svg width="111pt" height="222pt"
 viewBox="0.00 0.00 111.26 222.00" xmlns="http://www.w3.org/2000/svg" xmlns:xlink="http://www.w3.org/1999/xlink">
<g id="graph0" class="graph" transform="scale(1 1) rotate(0) translate(4 218)">
<title>D</title>
<!-- Node1 -->
<g id="node1" class="node"><title>Node1</title>
<polygon fill="#bfbfbf" stroke="black" points="2.75931,-68.5 2.75931,-87.5 31.7593,-87.5 31.7593,-68.5 2.75931,-68.5"/>
<text text-anchor="middle" x="17.2593" y="-75.5" font-family="Helvetica,sans-Serif" font-size="10.00">D</text>
</g>
<!-- Node4 -->
<g id="node4" class="node"><title>Node4</title>
<g id="a_node4"><a xlink:href="classC.html" target="_top" xlink:title="C">
<polygon fill="none" stroke="black" points="28.7593,-0.5 28.7593,-19.5 57.7593,-19.5 57.7593,-0.5 28.7593,-0.5"/>
<text text-anchor="middle" x="43.2593" y="-7.5" font-family="Helvetica,sans-Serif" font-size="10.00">C</text>
</a>
</g>
</g>
<!-- Node1&#45;&gt;Node4 -->
<g id="edge7" class="edge"><title>Node1&#45;&gt;Node4</title>
<path fill="none" stroke="#9a32cd" stroke-dasharray="5,2" d="M4.21348,-59.7373C0.603198,-52.8047 -1.43125,-44.8493 2.25931,-38 7.83837,-27.6458 19.3166,-20.6089 28.7128,-16.3216"/>
<polygon fill="#9a32cd" stroke="#9a32cd" points="1.38855,-61.8165 9.72368,-68.3569 7.28643,-58.0462 1.38855,-61.8165"/>
<text text-anchor="middle" x="13.2593" y="-41.5" font-family="Helvetica,sans-Serif" font-size="10.00"> m_d</text>
</g>
<!-- Node2 -->
<g id="node2" class="node"><title>Node2</title>
<g id="a_node2"><a xlink:href="classA.html" target="_top" xlink:title="A">
<polygon fill="none" stroke="black" points="22.7593,-194.5 22.7593,-213.5 51.7593,-213.5 51.7593,-194.5 22.7593,-194.5"/>
<text text-anchor="middle" x="37.2593" y="-201.5" font-family="Helvetica,sans-Serif" font-size="10.00">A</text>
</a>
</g>
</g>
<!-- Node2&#45;&gt;Node1 -->
<g id="edge1" class="edge"><title>Node2&#45;&gt;Node1</title>
<path fill="none" stroke="darkgreen" d="M27.7577,-185.536C22.3282,-174.543 16.0582,-159.86 13.2593,-146 9.10745,-125.44 12.7717,-100.669 15.3132,-87.7729"/>
<polygon fill="darkgreen" stroke="darkgreen" points="24.6754,-187.195 32.3839,-194.464 30.8906,-183.975 24.6754,-187.195"/>
</g>
<!-- Node2&#45;&gt;Node2 -->
<g id="edge2" class="edge"><title>Node2&#45;&gt;Node2</title>
<path fill="none" stroke="#9a32cd" stroke-dasharray="5,2" d="M62.0811,-209.951C66.3215,-209.138 69.2593,-207.154 69.2593,-204 69.2593,-198.688 60.926,-196.695 52.0718,-198.023"/>
<polygon fill="#9a32cd" stroke="#9a32cd" points="62.0629,-206.451 52.0718,-209.977 62.0807,-213.451 62.0629,-206.451"/>
<text text-anchor="middle" x="85.7593" y="-201.5" font-family="Helvetica,sans-Serif" font-size="10.00"> m_self</text>
</g>
<!-- Node3 -->
<g id="node3" class="node"><title>Node3</title>
<g id="a_node3"><a xlink:href="classB.html" target="_top" xlink:title="B">
<polygon fill="none" stroke="black" points="22.7593,-126.5 22.7593,-145.5 51.7593,-145.5 51.7593,-126.5 22.7593,-126.5"/>
<text text-anchor="middle" x="37.2593" y="-133.5" font-family="Helvetica,sans-Serif" font-size="10.00">B</text>
</a>
</g>
</g>
<!-- Node2&#45;&gt;Node3 -->
<g id="edge4" class="edge"><title>Node2&#45;&gt;Node3</title>
<path fill="none" stroke="#9a32cd" stroke-dasharray="5,2" d="M37.2593,-184.041C37.2593,-171.472 37.2593,-155.563 37.2593,-145.841"/>
<polygon fill="#9a32cd" stroke="#9a32cd" points="33.7594,-184.372 37.2593,-194.372 40.7594,-184.372 33.7594,-184.372"/>
<text text-anchor="middle" x="48.2593" y="-167.5" font-family="Helvetica,sans-Serif" font-size="10.00"> m_a</text>
</g>
<!-- Node2&#45;&gt;Node4 -->
<g id="edge6" class="edge"><title>Node2&#45;&gt;Node4</title>
<path fill="none" stroke="midnightblue" d="M56.118,-187.268C59.0327,-183.877 61.6167,-180.074 63.2593,-176 65.2537,-171.054 63.3439,-169.333 63.2593,-164 62.3703,-107.979 74.9231,-91.7941 59.2593,-38 57.3704,-31.513 53.5575,-24.9755 50.1276,-19.9585"/>
<polygon fill="midnightblue" stroke="midnightblue" points="53.6094,-184.827 49.004,-194.368 58.5544,-189.781 53.6094,-184.827"/>
</g>
<!-- Node3&#45;&gt;Node1 -->
<g id="edge3" class="edge"><title>Node3&#45;&gt;Node1</title>
<path fill="none" stroke="#8b1a1a" d="M30.6811,-116.581C27.1803,-106.779 23.0432,-95.1948 20.2969,-87.5052"/>
<polygon fill="#8b1a1a" stroke="#8b1a1a" points="27.4748,-118.01 34.1343,-126.25 34.067,-115.655 27.4748,-118.01"/>
</g>
<!-- Node4&#45;&gt;Node1 -->
<g id="edge5" class="edge"><title>Node4&#45;&gt;Node1</title>
<path fill="none" stroke="#9a32cd" stroke-dasharray="5,2" d="M35.9843,-29.4673C30.9677,-42.2018 24.5297,-58.5443 20.6584,-68.3717"/>
<polygon fill="#9a32cd" stroke="#9a32cd" points="39.3676,-30.4281 39.7764,-19.8411 32.8547,-27.8624 39.3676,-30.4281"/>
<text text-anchor="middle" x="44.2593" y="-41.5" font-family="Helvetica,sans-Serif" font-size="10.00"> m_c</text>
</g>
</g>
</svg>
