<?xml version="1.0" encoding="UTF-8" standalone="no"?>
<!DOCTYPE svg PUBLIC "-//W3C//DTD SVG 1.1//EN"
 "http://www.w3.org/Graphics/SVG/1.1/DTD/svg11.dtd">
<!-- Generated by graphviz version 2.36.0 (20140111.2315)
 -->
<!-- Title: ImageView::ShowImage Pages: 1 -->
<svg width="446pt" height="104pt"
 viewBox="0.00 0.00 446.00 104.00" xmlns="http://www.w3.org/2000/svg" xmlns:xlink="http://www.w3.org/1999/xlink">
<g id="graph0" class="graph" transform="scale(1 1) rotate(0) translate(4 100)">
<title>ImageView::ShowImage</title>
<!-- Node1 -->
<g id="node1" class="node"><title>Node1</title>
<polygon fill="#bfbfbf" stroke="black" points="0.5,-38.5 0.5,-57.5 123.5,-57.5 123.5,-38.5 0.5,-38.5"/>
<text text-anchor="middle" x="62" y="-45.5" font-family="Helvetica,sans-Serif" font-size="10.00">ImageView::ShowImage</text>
</g>
<!-- Node2 -->
<g id="node2" class="node"><title>Node2</title>
<g id="a_node2"><a xlink:href="classImage.html#a7377f0e785df116fbdb53651006fcb67" target="_top" xlink:title="Image::GetRGBImage">
<polygon fill="none" stroke="black" points="160,-38.5 160,-57.5 274,-57.5 274,-38.5 160,-38.5"/>
<text text-anchor="middle" x="217" y="-45.5" font-family="Helvetica,sans-Serif" font-size="10.00">Image::GetRGBImage</text>
</a>
</g>
</g>
<!-- Node1&#45;&gt;Node2 -->
<g id="edge1" class="edge"><title>Node1&#45;&gt;Node2</title>
<path fill="none" stroke="midnightblue" d="M123.909,-48C132.322,-48 140.998,-48 149.505,-48"/>
<polygon fill="midnightblue" stroke="midnightblue" points="149.77,-51.5001 159.77,-48 149.77,-44.5001 149.77,-51.5001"/>
</g>
<!-- Node3 -->
<g id="node3" class="node"><title>Node3</title>
<g id="a_node3"><a xlink:href="classImage.html#adc25a467233718f37ae881cdebffa5c2" target="_top" xlink:title="Image::GetImageWidth">
<polygon fill="none" stroke="black" points="315,-76.5 315,-95.5 433,-95.5 433,-76.5 315,-76.5"/>
<text text-anchor="middle" x="374" y="-83.5" font-family="Helvetica,sans-Serif" font-size="10.00">Image::GetImageWidth</text>
</a>
</g>
</g>
<!-- Node2&#45;&gt;Node3 -->
<g id="edge2" class="edge"><title>Node2&#45;&gt;Node3</title>
<path fill="none" stroke="midnightblue" d="M257.113,-57.589C277.475,-62.5809 302.566,-68.7324 324.189,-74.0334"/>
<polygon fill="midnightblue" stroke="midnightblue" points="323.622,-77.4981 334.168,-76.4799 325.289,-70.6994 323.622,-77.4981"/>
</g>
<!-- Node4 -->
<g id="node4" class="node"><title>Node4</title>
<g id="a_node4"><a xlink:href="classImage.html#a141671a32d6e069211abd2211f0d8849" target="_top" xlink:title="Image::GetImageHeight">
<polygon fill="none" stroke="black" points="313.5,-38.5 313.5,-57.5 434.5,-57.5 434.5,-38.5 313.5,-38.5"/>
<text text-anchor="middle" x="374" y="-45.5" font-family="Helvetica,sans-Serif" font-size="10.00">Image::GetImageHeight</text>
</a>
</g>
</g>
<!-- Node2&#45;&gt;Node4 -->
<g id="edge3" class="edge"><title>Node2&#45;&gt;Node4</title>
<path fill="none" stroke="midnightblue" d="M274.397,-48C283.678,-48 293.396,-48 302.96,-48"/>
<polygon fill="midnightblue" stroke="midnightblue" points="303.251,-51.5001 313.251,-48 303.251,-44.5001 303.251,-51.5001"/>
</g>
<!-- Node5 -->
<g id="node5" class="node"><title>Node5</title>
<g id="a_node5"><a xlink:href="classImage.html#ad3f43e3ace90b4893eed677deb6a2631" target="_top" xlink:title="Image::GetImagePayload">
<polygon fill="none" stroke="black" points="310,-0.5 310,-19.5 438,-19.5 438,-0.5 310,-0.5"/>
<text text-anchor="middle" x="374" y="-7.5" font-family="Helvetica,sans-Serif" font-size="10.00">Image::GetImagePayload</text>
</a>
</g>
</g>
<!-- Node2&#45;&gt;Node5 -->
<g id="edge4" class="edge"><title>Node2&#45;&gt;Node5</title>
<path fill="none" stroke="midnightblue" d="M257.113,-38.411C277.475,-33.4191 302.566,-27.2676 324.189,-21.9666"/>
<polygon fill="midnightblue" stroke="midnightblue" points="325.289,-25.3006 334.168,-19.5201 323.622,-18.5019 325.289,-25.3006"/>
</g>
</g>
</svg>
