<?xml version="1.0" encoding="UTF-8" standalone="no"?>
<!DOCTYPE svg PUBLIC "-//W3C//DTD SVG 1.1//EN"
 "http://www.w3.org/Graphics/SVG/1.1/DTD/svg11.dtd">
<!-- Generated by graphviz version 2.36.0 (20140111.2315)
 -->
<!-- Title: org::libcppa::ack::mutable_unknown_fields Pages: 1 -->
<svg width="586pt" height="136pt"
 viewBox="0.00 0.00 586.00 136.00" xmlns="http://www.w3.org/2000/svg" xmlns:xlink="http://www.w3.org/1999/xlink">
<g id="graph0" class="graph" transform="scale(1 1) rotate(0) translate(4 132)">
<title>org::libcppa::ack::mutable_unknown_fields</title>
<!-- Node1 -->
<g id="node1" class="node"><title>Node1</title>
<polygon fill="#bfbfbf" stroke="black" points="0,-49 0,-79 124,-79 124,-49 0,-49"/>
<text text-anchor="start" x="8" y="-67" font-family="Helvetica,sans-Serif" font-size="10.00">org::libcppa::ack::</text>
<text text-anchor="middle" x="62" y="-56" font-family="Helvetica,sans-Serif" font-size="10.00">mutable_unknown_fields</text>
</g>
<!-- Node2 -->
<g id="node2" class="node"><title>Node2</title>
<g id="a_node2"><a xlink:href="classorg_1_1libcppa_1_1ack.html#a47c9bf1f78b70a9571a68ae73f2c9c07" target="_top" xlink:title="org::libcppa::ack::\lClear">
<polygon fill="none" stroke="black" points="189.5,-98 189.5,-128 284.5,-128 284.5,-98 189.5,-98"/>
<text text-anchor="start" x="197.5" y="-116" font-family="Helvetica,sans-Serif" font-size="10.00">org::libcppa::ack::</text>
<text text-anchor="middle" x="237" y="-105" font-family="Helvetica,sans-Serif" font-size="10.00">Clear</text>
</a>
</g>
</g>
<!-- Node1&#45;&gt;Node2 -->
<g id="edge1" class="edge"><title>Node1&#45;&gt;Node2</title>
<path fill="none" stroke="midnightblue" d="M126.078,-81.866C146.98,-87.7862 169.855,-94.2652 189.299,-99.7724"/>
<polygon fill="midnightblue" stroke="midnightblue" points="126.893,-78.4591 116.317,-79.1014 124.985,-85.1942 126.893,-78.4591"/>
</g>
<!-- Node5 -->
<g id="node5" class="node"><title>Node5</title>
<g id="a_node5"><a xlink:href="classorg_1_1libcppa_1_1ack.html#a7e2c28c7076b69335cda2bd8341520c9" target="_top" xlink:title="org::libcppa::ack::\lMergePartialFromCodedStream">
<polygon fill="none" stroke="black" points="160,-49 160,-79 314,-79 314,-49 160,-49"/>
<text text-anchor="start" x="168" y="-67" font-family="Helvetica,sans-Serif" font-size="10.00">org::libcppa::ack::</text>
<text text-anchor="middle" x="237" y="-56" font-family="Helvetica,sans-Serif" font-size="10.00">MergePartialFromCodedStream</text>
</a>
</g>
</g>
<!-- Node1&#45;&gt;Node5 -->
<g id="edge4" class="edge"><title>Node1&#45;&gt;Node5</title>
<path fill="none" stroke="midnightblue" d="M134.557,-64C142.915,-64 151.464,-64 159.88,-64"/>
<polygon fill="midnightblue" stroke="midnightblue" points="134.48,-60.5001 124.48,-64 134.48,-67.5001 134.48,-60.5001"/>
</g>
<!-- Node6 -->
<g id="node6" class="node"><title>Node6</title>
<g id="a_node6"><a xlink:href="classorg_1_1libcppa_1_1ack.html#a17e5c7e26869657c335ff6f79be21abb" target="_top" xlink:title="org::libcppa::ack::\lMergeFrom">
<polygon fill="none" stroke="black" points="189.5,-0 189.5,-30 284.5,-30 284.5,-0 189.5,-0"/>
<text text-anchor="start" x="197.5" y="-18" font-family="Helvetica,sans-Serif" font-size="10.00">org::libcppa::ack::</text>
<text text-anchor="middle" x="237" y="-7" font-family="Helvetica,sans-Serif" font-size="10.00">MergeFrom</text>
</a>
</g>
</g>
<!-- Node1&#45;&gt;Node6 -->
<g id="edge5" class="edge"><title>Node1&#45;&gt;Node6</title>
<path fill="none" stroke="midnightblue" d="M126.078,-46.134C146.98,-40.2138 169.855,-33.7348 189.299,-28.2276"/>
<polygon fill="midnightblue" stroke="midnightblue" points="124.985,-42.8058 116.317,-48.8986 126.893,-49.5409 124.985,-42.8058"/>
</g>
<!-- Node3 -->
<g id="node3" class="node"><title>Node3</title>
<g id="a_node3"><a xlink:href="classorg_1_1libcppa_1_1ack.html#a4ab15a61e96f2fda4e3bf2fed03f3af7" target="_top" xlink:title="org::libcppa::ack::\lCopyFrom">
<polygon fill="none" stroke="black" points="350.5,-98 350.5,-128 445.5,-128 445.5,-98 350.5,-98"/>
<text text-anchor="start" x="358.5" y="-116" font-family="Helvetica,sans-Serif" font-size="10.00">org::libcppa::ack::</text>
<text text-anchor="middle" x="398" y="-105" font-family="Helvetica,sans-Serif" font-size="10.00">CopyFrom</text>
</a>
</g>
</g>
<!-- Node2&#45;&gt;Node3 -->
<g id="edge2" class="edge"><title>Node2&#45;&gt;Node3</title>
<path fill="none" stroke="midnightblue" d="M295.038,-113C313.232,-113 333.135,-113 350.49,-113"/>
<polygon fill="midnightblue" stroke="midnightblue" points="294.845,-109.5 284.845,-113 294.845,-116.5 294.845,-109.5"/>
</g>
<!-- Node4 -->
<g id="node4" class="node"><title>Node4</title>
<g id="a_node4"><a xlink:href="classorg_1_1libcppa_1_1ack.html#a7fb746274a8bb4c448946589cf6ce3d1" target="_top" xlink:title="org::libcppa::ack::\loperator=">
<polygon fill="none" stroke="black" points="482.5,-98 482.5,-128 577.5,-128 577.5,-98 482.5,-98"/>
<text text-anchor="start" x="490.5" y="-116" font-family="Helvetica,sans-Serif" font-size="10.00">org::libcppa::ack::</text>
<text text-anchor="middle" x="530" y="-105" font-family="Helvetica,sans-Serif" font-size="10.00">operator=</text>
</a>
</g>
</g>
<!-- Node3&#45;&gt;Node4 -->
<g id="edge3" class="edge"><title>Node3&#45;&gt;Node4</title>
<path fill="none" stroke="midnightblue" d="M455.822,-113C464.673,-113 473.73,-113 482.322,-113"/>
<polygon fill="midnightblue" stroke="midnightblue" points="455.566,-109.5 445.566,-113 455.566,-116.5 455.566,-109.5"/>
</g>
</g>
</svg>
