<?xml version="1.0" encoding="UTF-8" standalone="no"?>
<!DOCTYPE svg PUBLIC "-//W3C//DTD SVG 1.1//EN"
 "http://www.w3.org/Graphics/SVG/1.1/DTD/svg11.dtd">
<!-- Generated by graphviz version 2.36.0 (20140111.2315)
 -->
<!-- Title: org::libcppa::warning::CopyFrom Pages: 1 -->
<svg width="426pt" height="87pt"
 viewBox="0.00 0.00 426.00 87.00" xmlns="http://www.w3.org/2000/svg" xmlns:xlink="http://www.w3.org/1999/xlink">
<g id="graph0" class="graph" transform="scale(1 1) rotate(0) translate(4 83)">
<title>org::libcppa::warning::CopyFrom</title>
<!-- Node1 -->
<g id="node1" class="node"><title>Node1</title>
<polygon fill="#bfbfbf" stroke="black" points="0.5,-24 0.5,-54 107.5,-54 107.5,-24 0.5,-24"/>
<text text-anchor="start" x="8.5" y="-42" font-family="Helvetica,sans-Serif" font-size="10.00">org::libcppa::warning</text>
<text text-anchor="middle" x="54" y="-31" font-family="Helvetica,sans-Serif" font-size="10.00">::CopyFrom</text>
</g>
<!-- Node2 -->
<g id="node2" class="node"><title>Node2</title>
<g id="a_node2"><a xlink:href="classorg_1_1libcppa_1_1warning.html#ab18e43b27b16b8f89f4a82bac997dd1e" target="_top" xlink:title="org::libcppa::warning\l::Clear">
<polygon fill="none" stroke="black" points="144.5,-49 144.5,-79 251.5,-79 251.5,-49 144.5,-49"/>
<text text-anchor="start" x="152.5" y="-67" font-family="Helvetica,sans-Serif" font-size="10.00">org::libcppa::warning</text>
<text text-anchor="middle" x="198" y="-56" font-family="Helvetica,sans-Serif" font-size="10.00">::Clear</text>
</a>
</g>
</g>
<!-- Node1&#45;&gt;Node2 -->
<g id="edge1" class="edge"><title>Node1&#45;&gt;Node2</title>
<path fill="none" stroke="midnightblue" d="M107.876,-48.3091C116.377,-49.8058 125.25,-51.3679 133.961,-52.9015"/>
<polygon fill="midnightblue" stroke="midnightblue" points="133.625,-56.3962 144.08,-54.6831 134.839,-49.5022 133.625,-56.3962"/>
</g>
<!-- Node4 -->
<g id="node4" class="node"><title>Node4</title>
<g id="a_node4"><a xlink:href="classorg_1_1libcppa_1_1warning.html#a0a2fd2c7f1f56fa7034dc328d1a7712e" target="_top" xlink:title="org::libcppa::warning\l::MergeFrom">
<polygon fill="none" stroke="black" points="144.5,-0 144.5,-30 251.5,-30 251.5,-0 144.5,-0"/>
<text text-anchor="start" x="152.5" y="-18" font-family="Helvetica,sans-Serif" font-size="10.00">org::libcppa::warning</text>
<text text-anchor="middle" x="198" y="-7" font-family="Helvetica,sans-Serif" font-size="10.00">::MergeFrom</text>
</a>
</g>
</g>
<!-- Node1&#45;&gt;Node4 -->
<g id="edge3" class="edge"><title>Node1&#45;&gt;Node4</title>
<path fill="none" stroke="midnightblue" d="M107.876,-30.0633C116.377,-28.6264 125.25,-27.1268 133.961,-25.6545"/>
<polygon fill="midnightblue" stroke="midnightblue" points="134.803,-29.0618 144.08,-23.9442 133.637,-22.1597 134.803,-29.0618"/>
</g>
<!-- Node3 -->
<g id="node3" class="node"><title>Node3</title>
<g id="a_node3"><a xlink:href="classorg_1_1libcppa_1_1warning.html#a3ab18605034c18f997223800aaf46084" target="_top" xlink:title="org::libcppa::warning\l::mutable_unknown_fields">
<polygon fill="none" stroke="black" points="288,-49 288,-79 418,-79 418,-49 288,-49"/>
<text text-anchor="start" x="296" y="-67" font-family="Helvetica,sans-Serif" font-size="10.00">org::libcppa::warning</text>
<text text-anchor="middle" x="353" y="-56" font-family="Helvetica,sans-Serif" font-size="10.00">::mutable_unknown_fields</text>
</a>
</g>
</g>
<!-- Node2&#45;&gt;Node3 -->
<g id="edge2" class="edge"><title>Node2&#45;&gt;Node3</title>
<path fill="none" stroke="midnightblue" d="M251.654,-64C260.041,-64 268.854,-64 277.629,-64"/>
<polygon fill="midnightblue" stroke="midnightblue" points="277.885,-67.5001 287.885,-64 277.885,-60.5001 277.885,-67.5001"/>
</g>
</g>
</svg>
