<?xml version="1.0" encoding="UTF-8" standalone="no"?>
<!DOCTYPE svg PUBLIC "-//W3C//DTD SVG 1.1//EN"
 "http://www.w3.org/Graphics/SVG/1.1/DTD/svg11.dtd">
<!-- Generated by graphviz version 2.36.0 (20140111.2315)
 -->
<!-- Title: pb::SensorNearData::MFC::CameraImage::set_allocated_image_payload Pages: 1 -->
<svg width="320pt" height="169pt"
 viewBox="0.00 0.00 320.00 169.00" xmlns="http://www.w3.org/2000/svg" xmlns:xlink="http://www.w3.org/1999/xlink">
<g id="graph0" class="graph" transform="scale(1 1) rotate(0) translate(4 165)">
<title>pb::SensorNearData::MFC::CameraImage::set_allocated_image_payload</title>
<!-- Node1 -->
<g id="node1" class="node"><title>Node1</title>
<polygon fill="#bfbfbf" stroke="black" points="0.5,-59.5 0.5,-100.5 145.5,-100.5 145.5,-59.5 0.5,-59.5"/>
<text text-anchor="start" x="8.5" y="-88.5" font-family="Helvetica,sans-Serif" font-size="10.00">pb::SensorNearData</text>
<text text-anchor="start" x="8.5" y="-77.5" font-family="Helvetica,sans-Serif" font-size="10.00">::MFC::CameraImage::</text>
<text text-anchor="middle" x="73" y="-66.5" font-family="Helvetica,sans-Serif" font-size="10.00">set_allocated_image_payload</text>
</g>
<!-- Node2 -->
<g id="node2" class="node"><title>Node2</title>
<g id="a_node2"><a xlink:href="classpb_1_1SensorNearData_1_1MFC_1_1CameraImage.html#a90b0cbf957629de21824c4939c2bc321" target="_top" xlink:title="pb::SensorNearData\l::MFC::CameraImage::\lset_has_image_payload">
<polygon fill="none" stroke="black" points="186,-119.5 186,-160.5 308,-160.5 308,-119.5 186,-119.5"/>
<text text-anchor="start" x="194" y="-148.5" font-family="Helvetica,sans-Serif" font-size="10.00">pb::SensorNearData</text>
<text text-anchor="start" x="194" y="-137.5" font-family="Helvetica,sans-Serif" font-size="10.00">::MFC::CameraImage::</text>
<text text-anchor="middle" x="247" y="-126.5" font-family="Helvetica,sans-Serif" font-size="10.00">set_has_image_payload</text>
</a>
</g>
</g>
<!-- Node1&#45;&gt;Node2 -->
<g id="edge1" class="edge"><title>Node1&#45;&gt;Node2</title>
<path fill="none" stroke="midnightblue" d="M133.193,-100.649C147.461,-105.626 162.824,-110.985 177.48,-116.098"/>
<polygon fill="midnightblue" stroke="midnightblue" points="176.395,-119.426 186.99,-119.415 178.701,-112.817 176.395,-119.426"/>
</g>
<!-- Node3 -->
<g id="node3" class="node"><title>Node3</title>
<g id="a_node3"><a xlink:href="classpb_1_1SensorNearData_1_1MFC_1_1CameraImage.html#a5a0eb509d1d0626ebcd7af2605cf9593" target="_top" xlink:title="pb::SensorNearData\l::MFC::CameraImage::\limage_payload">
<polygon fill="none" stroke="black" points="188,-59.5 188,-100.5 306,-100.5 306,-59.5 188,-59.5"/>
<text text-anchor="start" x="196" y="-88.5" font-family="Helvetica,sans-Serif" font-size="10.00">pb::SensorNearData</text>
<text text-anchor="start" x="196" y="-77.5" font-family="Helvetica,sans-Serif" font-size="10.00">::MFC::CameraImage::</text>
<text text-anchor="middle" x="247" y="-66.5" font-family="Helvetica,sans-Serif" font-size="10.00">image_payload</text>
</a>
</g>
</g>
<!-- Node1&#45;&gt;Node3 -->
<g id="edge2" class="edge"><title>Node1&#45;&gt;Node3</title>
<path fill="none" stroke="midnightblue" d="M145.947,-80C156.441,-80 167.223,-80 177.643,-80"/>
<polygon fill="midnightblue" stroke="midnightblue" points="177.919,-83.5001 187.919,-80 177.919,-76.5001 177.919,-83.5001"/>
</g>
<!-- Node4 -->
<g id="node4" class="node"><title>Node4</title>
<g id="a_node4"><a xlink:href="classpb_1_1SensorNearData_1_1MFC_1_1CameraImage.html#ab8865d07a1966c419d62cfb25b77b53d" target="_top" xlink:title="pb::SensorNearData\l::MFC::CameraImage::\lclear_has_image_payload">
<polygon fill="none" stroke="black" points="182.5,0.5 182.5,-40.5 311.5,-40.5 311.5,0.5 182.5,0.5"/>
<text text-anchor="start" x="190.5" y="-28.5" font-family="Helvetica,sans-Serif" font-size="10.00">pb::SensorNearData</text>
<text text-anchor="start" x="190.5" y="-17.5" font-family="Helvetica,sans-Serif" font-size="10.00">::MFC::CameraImage::</text>
<text text-anchor="middle" x="247" y="-6.5" font-family="Helvetica,sans-Serif" font-size="10.00">clear_has_image_payload</text>
</a>
</g>
</g>
<!-- Node1&#45;&gt;Node4 -->
<g id="edge3" class="edge"><title>Node1&#45;&gt;Node4</title>
<path fill="none" stroke="midnightblue" d="M133.193,-59.3514C147.461,-54.3739 162.824,-49.0149 177.48,-43.9025"/>
<polygon fill="midnightblue" stroke="midnightblue" points="178.701,-47.1835 186.99,-40.585 176.395,-40.5741 178.701,-47.1835"/>
</g>
</g>
</svg>
