<?xml version="1.0" encoding="UTF-8" standalone="no"?>
<!DOCTYPE svg PUBLIC "-//W3C//DTD SVG 1.1//EN"
 "http://www.w3.org/Graphics/SVG/1.1/DTD/svg11.dtd">
<!-- Generated by graphviz version 2.36.0 (20140111.2315)
 -->
<!-- Title: Controller::SaveAllImagesAsJPEG Pages: 1 -->
<svg width="542pt" height="388pt"
 viewBox="0.00 0.00 542.00 388.00" xmlns="http://www.w3.org/2000/svg" xmlns:xlink="http://www.w3.org/1999/xlink">
<g id="graph0" class="graph" transform="scale(1 1) rotate(0) translate(4 384)">
<title>Controller::SaveAllImagesAsJPEG</title>
<!-- Node1 -->
<g id="node1" class="node"><title>Node1</title>
<polygon fill="#bfbfbf" stroke="black" points="0.5,-188 0.5,-218 131.5,-218 131.5,-188 0.5,-188"/>
<text text-anchor="start" x="8.5" y="-206" font-family="Helvetica,sans-Serif" font-size="10.00">Controller::SaveAllImages</text>
<text text-anchor="middle" x="66" y="-195" font-family="Helvetica,sans-Serif" font-size="10.00">AsJPEG</text>
</g>
<!-- Node2 -->
<g id="node2" class="node"><title>Node2</title>
<g id="a_node2"><a xlink:href="classFrameSelector.html#a24b62c5e5e66b40cfc72cda4c8409212" target="_top" xlink:title="FrameSelector::GetImageCount">
<polygon fill="none" stroke="black" points="168.5,-305.5 168.5,-324.5 323.5,-324.5 323.5,-305.5 168.5,-305.5"/>
<text text-anchor="middle" x="246" y="-312.5" font-family="Helvetica,sans-Serif" font-size="10.00">FrameSelector::GetImageCount</text>
</a>
</g>
</g>
<!-- Node1&#45;&gt;Node2 -->
<g id="edge1" class="edge"><title>Node1&#45;&gt;Node2</title>
<path fill="none" stroke="midnightblue" d="M91.0059,-218.105C125.008,-239.499 186.839,-278.404 220.895,-299.833"/>
<polygon fill="midnightblue" stroke="midnightblue" points="219.39,-303.021 229.718,-305.384 223.118,-297.096 219.39,-303.021"/>
</g>
<!-- Node4 -->
<g id="node4" class="node"><title>Node4</title>
<g id="a_node4"><a xlink:href="classFrameSelector.html#a1065c609443efd72a3236cc98f168caa" target="_top" xlink:title="FrameSelector::ReadImage">
<polygon fill="none" stroke="black" points="177.5,-193.5 177.5,-212.5 314.5,-212.5 314.5,-193.5 177.5,-193.5"/>
<text text-anchor="middle" x="246" y="-200.5" font-family="Helvetica,sans-Serif" font-size="10.00">FrameSelector::ReadImage</text>
</a>
</g>
</g>
<!-- Node1&#45;&gt;Node4 -->
<g id="edge3" class="edge"><title>Node1&#45;&gt;Node4</title>
<path fill="none" stroke="midnightblue" d="M131.514,-203C143.057,-203 155.195,-203 167.067,-203"/>
<polygon fill="midnightblue" stroke="midnightblue" points="167.409,-206.5 177.409,-203 167.409,-199.5 167.409,-206.5"/>
</g>
<!-- Node11 -->
<g id="node11" class="node"><title>Node11</title>
<g id="a_node11"><a xlink:href="classImage.html#a7377f0e785df116fbdb53651006fcb67" target="_top" xlink:title="Image::GetRGBImage">
<polygon fill="none" stroke="black" points="189,-57.5 189,-76.5 303,-76.5 303,-57.5 189,-57.5"/>
<text text-anchor="middle" x="246" y="-64.5" font-family="Helvetica,sans-Serif" font-size="10.00">Image::GetRGBImage</text>
</a>
</g>
</g>
<!-- Node1&#45;&gt;Node11 -->
<g id="edge10" class="edge"><title>Node1&#45;&gt;Node11</title>
<path fill="none" stroke="midnightblue" d="M86.7292,-187.926C120.608,-162.041 189.533,-109.38 224.16,-82.9223"/>
<polygon fill="midnightblue" stroke="midnightblue" points="226.362,-85.6451 232.183,-76.7927 222.112,-80.0828 226.362,-85.6451"/>
</g>
<!-- Node3 -->
<g id="node3" class="node"><title>Node3</title>
<g id="a_node3"><a xlink:href="classHDFReader.html#a679c61f47dbc9077c1628aae6688f40d" target="_top" xlink:title="HDFReader::GetNumberOfProtobuf\lFiles">
<polygon fill="none" stroke="black" points="360.5,-350 360.5,-380 533.5,-380 533.5,-350 360.5,-350"/>
<text text-anchor="start" x="368.5" y="-368" font-family="Helvetica,sans-Serif" font-size="10.00">HDFReader::GetNumberOfProtobuf</text>
<text text-anchor="middle" x="447" y="-357" font-family="Helvetica,sans-Serif" font-size="10.00">Files</text>
</a>
</g>
</g>
<!-- Node2&#45;&gt;Node3 -->
<g id="edge2" class="edge"><title>Node2&#45;&gt;Node3</title>
<path fill="none" stroke="midnightblue" d="M284.899,-324.522C310.643,-330.991 345.459,-339.738 376.137,-347.447"/>
<polygon fill="midnightblue" stroke="midnightblue" points="375.385,-350.866 385.936,-349.909 377.09,-344.077 375.385,-350.866"/>
</g>
<!-- Node5 -->
<g id="node5" class="node"><title>Node5</title>
<g id="a_node5"><a xlink:href="classHDFReader.html#a8be8f7b773c8547b5ace39960541fd33" target="_top" xlink:title="HDFReader::ReadOneProtobufFile">
<polygon fill="none" stroke="black" points="362.5,-311.5 362.5,-330.5 531.5,-330.5 531.5,-311.5 362.5,-311.5"/>
<text text-anchor="middle" x="447" y="-318.5" font-family="Helvetica,sans-Serif" font-size="10.00">HDFReader::ReadOneProtobufFile</text>
</a>
</g>
</g>
<!-- Node4&#45;&gt;Node5 -->
<g id="edge4" class="edge"><title>Node4&#45;&gt;Node5</title>
<path fill="none" stroke="midnightblue" d="M254.977,-212.514C272.076,-232.257 314.424,-277.765 360,-301 365.557,-303.833 371.519,-306.27 377.619,-308.367"/>
<polygon fill="midnightblue" stroke="midnightblue" points="376.688,-311.743 387.277,-311.388 378.778,-305.062 376.688,-311.743"/>
</g>
<!-- Node6 -->
<g id="node6" class="node"><title>Node6</title>
<g id="a_node6"><a xlink:href="classProtobufImageWrapper.html#aba70c98783a278dd1b62771c244cf3f9" target="_top" xlink:title="ProtobufImageWrapper\l::ParseFromArray">
<polygon fill="none" stroke="black" points="388.5,-262 388.5,-292 505.5,-292 505.5,-262 388.5,-262"/>
<text text-anchor="start" x="396.5" y="-280" font-family="Helvetica,sans-Serif" font-size="10.00">ProtobufImageWrapper</text>
<text text-anchor="middle" x="447" y="-269" font-family="Helvetica,sans-Serif" font-size="10.00">::ParseFromArray</text>
</a>
</g>
</g>
<!-- Node4&#45;&gt;Node6 -->
<g id="edge5" class="edge"><title>Node4&#45;&gt;Node6</title>
<path fill="none" stroke="midnightblue" d="M267.103,-212.637C289.461,-223.137 326.809,-240.034 360,-252 366.486,-254.338 373.306,-256.617 380.148,-258.786"/>
<polygon fill="midnightblue" stroke="midnightblue" points="379.567,-262.27 390.154,-261.88 381.635,-255.582 379.567,-262.27"/>
</g>
<!-- Node7 -->
<g id="node7" class="node"><title>Node7</title>
<g id="a_node7"><a xlink:href="classProtobufImageWrapper.html#a444790ea96785a92ab17a8be689f9872" target="_top" xlink:title="ProtobufImageWrapper\l::GetImagePayload">
<polygon fill="none" stroke="black" points="388.5,-213 388.5,-243 505.5,-243 505.5,-213 388.5,-213"/>
<text text-anchor="start" x="396.5" y="-231" font-family="Helvetica,sans-Serif" font-size="10.00">ProtobufImageWrapper</text>
<text text-anchor="middle" x="447" y="-220" font-family="Helvetica,sans-Serif" font-size="10.00">::GetImagePayload</text>
</a>
</g>
</g>
<!-- Node4&#45;&gt;Node7 -->
<g id="edge6" class="edge"><title>Node4&#45;&gt;Node7</title>
<path fill="none" stroke="midnightblue" d="M314.65,-211.499C335.275,-214.09 357.941,-216.937 378.553,-219.527"/>
<polygon fill="midnightblue" stroke="midnightblue" points="378.13,-223.001 388.488,-220.775 379.003,-216.056 378.13,-223.001"/>
</g>
<!-- Node8 -->
<g id="node8" class="node"><title>Node8</title>
<g id="a_node8"><a xlink:href="classProtobufImageWrapper.html#aabff426d3c841dad57cbd0f16f5382cd" target="_top" xlink:title="ProtobufImageWrapper\l::GetImageWidth">
<polygon fill="none" stroke="black" points="388.5,-164 388.5,-194 505.5,-194 505.5,-164 388.5,-164"/>
<text text-anchor="start" x="396.5" y="-182" font-family="Helvetica,sans-Serif" font-size="10.00">ProtobufImageWrapper</text>
<text text-anchor="middle" x="447" y="-171" font-family="Helvetica,sans-Serif" font-size="10.00">::GetImageWidth</text>
</a>
</g>
</g>
<!-- Node4&#45;&gt;Node8 -->
<g id="edge7" class="edge"><title>Node4&#45;&gt;Node8</title>
<path fill="none" stroke="midnightblue" d="M314.65,-194.841C335.275,-192.354 357.941,-189.62 378.553,-187.134"/>
<polygon fill="midnightblue" stroke="midnightblue" points="378.979,-190.608 388.488,-185.936 378.141,-183.659 378.979,-190.608"/>
</g>
<!-- Node9 -->
<g id="node9" class="node"><title>Node9</title>
<g id="a_node9"><a xlink:href="classProtobufImageWrapper.html#a7c01e9c1075bc30378996282e17d10a6" target="_top" xlink:title="ProtobufImageWrapper\l::GetImageHeight">
<polygon fill="none" stroke="black" points="388.5,-115 388.5,-145 505.5,-145 505.5,-115 388.5,-115"/>
<text text-anchor="start" x="396.5" y="-133" font-family="Helvetica,sans-Serif" font-size="10.00">ProtobufImageWrapper</text>
<text text-anchor="middle" x="447" y="-122" font-family="Helvetica,sans-Serif" font-size="10.00">::GetImageHeight</text>
</a>
</g>
</g>
<!-- Node4&#45;&gt;Node9 -->
<g id="edge8" class="edge"><title>Node4&#45;&gt;Node9</title>
<path fill="none" stroke="midnightblue" d="M267.535,-193.404C289.958,-183.132 327.072,-166.733 360,-155 366.747,-152.596 373.85,-150.248 380.962,-148.013"/>
<polygon fill="midnightblue" stroke="midnightblue" points="382.104,-151.324 390.635,-145.041 380.048,-144.633 382.104,-151.324"/>
</g>
<!-- Node10 -->
<g id="node10" class="node"><title>Node10</title>
<g id="a_node10"><a xlink:href="classImage.html#adc25a467233718f37ae881cdebffa5c2" target="_top" xlink:title="Image::GetImageWidth">
<polygon fill="none" stroke="black" points="388,-76.5 388,-95.5 506,-95.5 506,-76.5 388,-76.5"/>
<text text-anchor="middle" x="447" y="-83.5" font-family="Helvetica,sans-Serif" font-size="10.00">Image::GetImageWidth</text>
</a>
</g>
</g>
<!-- Node4&#45;&gt;Node10 -->
<g id="edge9" class="edge"><title>Node4&#45;&gt;Node10</title>
<path fill="none" stroke="midnightblue" d="M255.263,-193.287C272.572,-173.595 314.795,-128.902 360,-106 365.653,-103.136 371.724,-100.675 377.929,-98.5624"/>
<polygon fill="midnightblue" stroke="midnightblue" points="379.234,-101.822 387.751,-95.5206 377.163,-95.1357 379.234,-101.822"/>
</g>
<!-- Node11&#45;&gt;Node10 -->
<g id="edge11" class="edge"><title>Node11&#45;&gt;Node10</title>
<path fill="none" stroke="midnightblue" d="M303.227,-72.3685C326.358,-74.5769 353.363,-77.1553 377.624,-79.4716"/>
<polygon fill="midnightblue" stroke="midnightblue" points="377.546,-82.9801 387.834,-80.4464 378.212,-76.0117 377.546,-82.9801"/>
</g>
<!-- Node12 -->
<g id="node12" class="node"><title>Node12</title>
<g id="a_node12"><a xlink:href="classImage.html#a141671a32d6e069211abd2211f0d8849" target="_top" xlink:title="Image::GetImageHeight">
<polygon fill="none" stroke="black" points="386.5,-38.5 386.5,-57.5 507.5,-57.5 507.5,-38.5 386.5,-38.5"/>
<text text-anchor="middle" x="447" y="-45.5" font-family="Helvetica,sans-Serif" font-size="10.00">Image::GetImageHeight</text>
</a>
</g>
</g>
<!-- Node11&#45;&gt;Node12 -->
<g id="edge12" class="edge"><title>Node11&#45;&gt;Node12</title>
<path fill="none" stroke="midnightblue" d="M303.227,-61.6315C325.956,-59.4615 352.425,-56.9343 376.356,-54.6495"/>
<polygon fill="midnightblue" stroke="midnightblue" points="376.816,-58.1215 386.438,-53.6868 376.15,-51.1532 376.816,-58.1215"/>
</g>
<!-- Node13 -->
<g id="node13" class="node"><title>Node13</title>
<g id="a_node13"><a xlink:href="classImage.html#ad3f43e3ace90b4893eed677deb6a2631" target="_top" xlink:title="Image::GetImagePayload">
<polygon fill="none" stroke="black" points="383,-0.5 383,-19.5 511,-19.5 511,-0.5 383,-0.5"/>
<text text-anchor="middle" x="447" y="-7.5" font-family="Helvetica,sans-Serif" font-size="10.00">Image::GetImagePayload</text>
</a>
</g>
</g>
<!-- Node11&#45;&gt;Node13 -->
<g id="edge13" class="edge"><title>Node11&#45;&gt;Node13</title>
<path fill="none" stroke="midnightblue" d="M272.787,-57.4497C295.534,-49.2372 329.687,-37.4194 360,-29 369.185,-26.4489 378.997,-24.0135 388.585,-21.7887"/>
<polygon fill="midnightblue" stroke="midnightblue" points="389.482,-25.1743 398.461,-19.5505 387.935,-18.3474 389.482,-25.1743"/>
</g>
</g>
</svg>
