<?xml version="1.0" encoding="UTF-8" standalone="no"?>
<!DOCTYPE svg PUBLIC "-//W3C//DTD SVG 1.1//EN"
 "http://www.w3.org/Graphics/SVG/1.1/DTD/svg11.dtd">
<!-- Generated by graphviz version 2.36.0 (20140111.2315)
 -->
<!-- Title: HumansInFrontOfBusScenario::Detect Pages: 1 -->
<svg width="454pt" height="96pt"
 viewBox="0.00 0.00 454.00 96.00" xmlns="http://www.w3.org/2000/svg" xmlns:xlink="http://www.w3.org/1999/xlink">
<g id="graph0" class="graph" transform="scale(1 1) rotate(0) translate(4 92)">
<title>HumansInFrontOfBusScenario::Detect</title>
<!-- Node1 -->
<g id="node1" class="node"><title>Node1</title>
<polygon fill="#bfbfbf" stroke="black" points="0,-36 0,-66 150,-66 150,-36 0,-36"/>
<text text-anchor="start" x="8" y="-54" font-family="Helvetica,sans-Serif" font-size="10.00">HumansInFrontOfBusScenario</text>
<text text-anchor="middle" x="75" y="-43" font-family="Helvetica,sans-Serif" font-size="10.00">::Detect</text>
</g>
<!-- Node2 -->
<g id="node2" class="node"><title>Node2</title>
<g id="a_node2"><a xlink:href="classFrameDetectionData.html#aa98d0d1d7f951308481f0cf6afa7dcc7" target="_top" xlink:title="FrameDetectionData\l::GetElementsOfType">
<polygon fill="none" stroke="black" points="186,-58 186,-88 298,-88 298,-58 186,-58"/>
<text text-anchor="start" x="194" y="-76" font-family="Helvetica,sans-Serif" font-size="10.00">FrameDetectionData</text>
<text text-anchor="middle" x="242" y="-65" font-family="Helvetica,sans-Serif" font-size="10.00">::GetElementsOfType</text>
</a>
</g>
</g>
<!-- Node1&#45;&gt;Node2 -->
<g id="edge1" class="edge"><title>Node1&#45;&gt;Node2</title>
<path fill="none" stroke="midnightblue" d="M150.294,-60.9059C158.808,-62.0411 167.439,-63.1919 175.821,-64.3095"/>
<polygon fill="midnightblue" stroke="midnightblue" points="175.521,-67.8004 185.896,-65.6528 176.446,-60.8618 175.521,-67.8004"/>
</g>
<!-- Node3 -->
<g id="node3" class="node"><title>Node3</title>
<g id="a_node3"><a xlink:href="classScenario.html#ad8a3632b73757283754695f92f51b2f5" target="_top" xlink:title="Scenario::Overlap">
<polygon fill="none" stroke="black" points="194.5,-19.5 194.5,-38.5 289.5,-38.5 289.5,-19.5 194.5,-19.5"/>
<text text-anchor="middle" x="242" y="-26.5" font-family="Helvetica,sans-Serif" font-size="10.00">Scenario::Overlap</text>
</a>
</g>
</g>
<!-- Node1&#45;&gt;Node3 -->
<g id="edge2" class="edge"><title>Node1&#45;&gt;Node3</title>
<path fill="none" stroke="midnightblue" d="M150.294,-41.0941C161.573,-39.5902 173.059,-38.0588 183.896,-36.6138"/>
<polygon fill="midnightblue" stroke="midnightblue" points="184.611,-40.0496 194.061,-35.2586 183.686,-33.111 184.611,-40.0496"/>
</g>
<!-- Node4 -->
<g id="node4" class="node"><title>Node4</title>
<g id="a_node4"><a xlink:href="classElement.html#a7f88fb876554262930c712a85eda5439" target="_top" xlink:title="Element::GetPosition">
<polygon fill="none" stroke="black" points="335,-38.5 335,-57.5 445,-57.5 445,-38.5 335,-38.5"/>
<text text-anchor="middle" x="390" y="-45.5" font-family="Helvetica,sans-Serif" font-size="10.00">Element::GetPosition</text>
</a>
</g>
</g>
<!-- Node3&#45;&gt;Node4 -->
<g id="edge3" class="edge"><title>Node3&#45;&gt;Node4</title>
<path fill="none" stroke="midnightblue" d="M289.597,-35.064C300.763,-36.5171 312.882,-38.0942 324.693,-39.6313"/>
<polygon fill="midnightblue" stroke="midnightblue" points="324.593,-43.1478 334.962,-40.9676 325.497,-36.2063 324.593,-43.1478"/>
</g>
<!-- Node5 -->
<g id="node5" class="node"><title>Node5</title>
<g id="a_node5"><a xlink:href="classElement.html#ad336322888d50e9fd23ea05cadb5be46" target="_top" xlink:title="Element::GetBoxSize">
<polygon fill="none" stroke="black" points="334.5,-0.5 334.5,-19.5 445.5,-19.5 445.5,-0.5 334.5,-0.5"/>
<text text-anchor="middle" x="390" y="-7.5" font-family="Helvetica,sans-Serif" font-size="10.00">Element::GetBoxSize</text>
</a>
</g>
</g>
<!-- Node3&#45;&gt;Node5 -->
<g id="edge4" class="edge"><title>Node3&#45;&gt;Node5</title>
<path fill="none" stroke="midnightblue" d="M289.597,-22.936C300.634,-21.4997 312.602,-19.9422 324.283,-18.422"/>
<polygon fill="midnightblue" stroke="midnightblue" points="324.98,-21.861 334.444,-17.0997 324.076,-14.9195 324.98,-21.861"/>
</g>
</g>
</svg>
