<?xml version="1.0" encoding="UTF-8" standalone="no"?>
<!DOCTYPE svg PUBLIC "-//W3C//DTD SVG 1.1//EN"
 "http://www.w3.org/Graphics/SVG/1.1/DTD/svg11.dtd">
<!-- Generated by graphviz version 2.36.0 (20140111.2315)
 -->
<!-- Title: org::libcppa::WarnOrAck::warn Pages: 1 -->
<svg width="496pt" height="322pt"
 viewBox="0.00 0.00 496.00 322.00" xmlns="http://www.w3.org/2000/svg" xmlns:xlink="http://www.w3.org/1999/xlink">
<g id="graph0" class="graph" transform="scale(1 1) rotate(0) translate(4 318)">
<title>org::libcppa::WarnOrAck::warn</title>
<!-- Node1 -->
<g id="node1" class="node"><title>Node1</title>
<polygon fill="#bfbfbf" stroke="black" points="0,-137 0,-167 124,-167 124,-137 0,-137"/>
<text text-anchor="start" x="8" y="-155" font-family="Helvetica,sans-Serif" font-size="10.00">org::libcppa::WarnOrAck</text>
<text text-anchor="middle" x="62" y="-144" font-family="Helvetica,sans-Serif" font-size="10.00">::warn</text>
</g>
<!-- Node2 -->
<g id="node2" class="node"><title>Node2</title>
<g id="a_node2"><a xlink:href="classorg_1_1libcppa_1_1WarnOrAck.html#a86189dec84eb3746f08520a85150a1e8" target="_top" xlink:title="org::libcppa::WarnOrAck\l::SerializeWithCachedSizes">
<polygon fill="none" stroke="black" points="177.5,-284 177.5,-314 316.5,-314 316.5,-284 177.5,-284"/>
<text text-anchor="start" x="185.5" y="-302" font-family="Helvetica,sans-Serif" font-size="10.00">org::libcppa::WarnOrAck</text>
<text text-anchor="middle" x="247" y="-291" font-family="Helvetica,sans-Serif" font-size="10.00">::SerializeWithCachedSizes</text>
</a>
</g>
</g>
<!-- Node1&#45;&gt;Node2 -->
<g id="edge1" class="edge"><title>Node1&#45;&gt;Node2</title>
<path fill="none" stroke="midnightblue" d="M76.0742,-176.273C92.2114,-203.954 122.212,-248.645 160,-274 165.81,-277.898 172.235,-281.199 178.879,-283.991"/>
<polygon fill="midnightblue" stroke="midnightblue" points="78.934,-174.221 70.9544,-167.251 72.8459,-177.676 78.934,-174.221"/>
</g>
<!-- Node3 -->
<g id="node3" class="node"><title>Node3</title>
<g id="a_node3"><a xlink:href="classorg_1_1libcppa_1_1WarnOrAck.html#a3962cb0ae219a08acb9f28821b47a300" target="_top" xlink:title="org::libcppa::WarnOrAck\l::SerializeWithCachedSizesToArray">
<polygon fill="none" stroke="black" points="160.5,-235 160.5,-265 333.5,-265 333.5,-235 160.5,-235"/>
<text text-anchor="start" x="168.5" y="-253" font-family="Helvetica,sans-Serif" font-size="10.00">org::libcppa::WarnOrAck</text>
<text text-anchor="middle" x="247" y="-242" font-family="Helvetica,sans-Serif" font-size="10.00">::SerializeWithCachedSizesToArray</text>
</a>
</g>
</g>
<!-- Node1&#45;&gt;Node3 -->
<g id="edge2" class="edge"><title>Node1&#45;&gt;Node3</title>
<path fill="none" stroke="midnightblue" d="M86.9739,-173.983C105.663,-190.097 132.91,-211.442 160,-225 167.508,-228.758 175.676,-232.043 183.89,-234.887"/>
<polygon fill="midnightblue" stroke="midnightblue" points="89.0909,-171.184 79.2677,-167.215 84.4717,-176.443 89.0909,-171.184"/>
</g>
<!-- Node4 -->
<g id="node4" class="node"><title>Node4</title>
<g id="a_node4"><a xlink:href="classorg_1_1libcppa_1_1WarnOrAck.html#aeb55f2d7aef4fa3f8ba06b88d6ca17d2" target="_top" xlink:title="org::libcppa::WarnOrAck\l::ByteSize">
<polygon fill="none" stroke="black" points="185,-186 185,-216 309,-216 309,-186 185,-186"/>
<text text-anchor="start" x="193" y="-204" font-family="Helvetica,sans-Serif" font-size="10.00">org::libcppa::WarnOrAck</text>
<text text-anchor="middle" x="247" y="-193" font-family="Helvetica,sans-Serif" font-size="10.00">::ByteSize</text>
</a>
</g>
</g>
<!-- Node1&#45;&gt;Node4 -->
<g id="edge3" class="edge"><title>Node1&#45;&gt;Node4</title>
<path fill="none" stroke="midnightblue" d="M129.285,-169.748C149.119,-175.059 170.667,-180.829 189.787,-185.948"/>
<polygon fill="midnightblue" stroke="midnightblue" points="129.964,-166.307 119.399,-167.101 128.154,-173.069 129.964,-166.307"/>
</g>
<!-- Node5 -->
<g id="node5" class="node"><title>Node5</title>
<g id="a_node5"><a xlink:href="classorg_1_1libcppa_1_1WarnOrAck.html#a12501cbd6672b9d2ebfc69b4b6b88f65" target="_top" xlink:title="org::libcppa::WarnOrAck\l::MergeFrom">
<polygon fill="none" stroke="black" points="185,-137 185,-167 309,-167 309,-137 185,-137"/>
<text text-anchor="start" x="193" y="-155" font-family="Helvetica,sans-Serif" font-size="10.00">org::libcppa::WarnOrAck</text>
<text text-anchor="middle" x="247" y="-144" font-family="Helvetica,sans-Serif" font-size="10.00">::MergeFrom</text>
</a>
</g>
</g>
<!-- Node1&#45;&gt;Node5 -->
<g id="edge4" class="edge"><title>Node1&#45;&gt;Node5</title>
<path fill="none" stroke="midnightblue" d="M134.426,-152C151.093,-152 168.694,-152 184.867,-152"/>
<polygon fill="midnightblue" stroke="midnightblue" points="134.191,-148.5 124.191,-152 134.191,-155.5 134.191,-148.5"/>
</g>
<!-- Node6 -->
<g id="node6" class="node"><title>Node6</title>
<g id="a_node6"><a xlink:href="classorg_1_1libcppa_1_1WarnOrAck.html#a9c2a6a4a891b6a3ead4f7208e86c3d43" target="_top" xlink:title="org::libcppa::WarnOrAck\l::IsInitialized">
<polygon fill="none" stroke="black" points="185,-88 185,-118 309,-118 309,-88 185,-88"/>
<text text-anchor="start" x="193" y="-106" font-family="Helvetica,sans-Serif" font-size="10.00">org::libcppa::WarnOrAck</text>
<text text-anchor="middle" x="247" y="-95" font-family="Helvetica,sans-Serif" font-size="10.00">::IsInitialized</text>
</a>
</g>
</g>
<!-- Node1&#45;&gt;Node6 -->
<g id="edge5" class="edge"><title>Node1&#45;&gt;Node6</title>
<path fill="none" stroke="midnightblue" d="M129.285,-134.252C149.119,-128.941 170.667,-123.171 189.787,-118.052"/>
<polygon fill="midnightblue" stroke="midnightblue" points="128.154,-130.931 119.399,-136.899 129.964,-137.693 128.154,-130.931"/>
</g>
<!-- Node7 -->
<g id="node7" class="node"><title>Node7</title>
<g id="a_node7"><a xlink:href="classorg_1_1libcppa_1_1WarnOrAck.html#acbf07d46fd5453c4c55a74820b73dfd0" target="_top" xlink:title="org::libcppa::WarnOrAck\l::set_allocated_warn">
<polygon fill="none" stroke="black" points="185,-39 185,-69 309,-69 309,-39 185,-39"/>
<text text-anchor="start" x="193" y="-57" font-family="Helvetica,sans-Serif" font-size="10.00">org::libcppa::WarnOrAck</text>
<text text-anchor="middle" x="247" y="-46" font-family="Helvetica,sans-Serif" font-size="10.00">::set_allocated_warn</text>
</a>
</g>
</g>
<!-- Node1&#45;&gt;Node7 -->
<g id="edge6" class="edge"><title>Node1&#45;&gt;Node7</title>
<path fill="none" stroke="midnightblue" d="M86.9739,-130.017C105.663,-113.903 132.91,-92.5578 160,-79 167.787,-75.1031 176.282,-71.7148 184.803,-68.799"/>
<polygon fill="midnightblue" stroke="midnightblue" points="84.4717,-127.557 79.2677,-136.785 89.0909,-132.816 84.4717,-127.557"/>
</g>
<!-- Node8 -->
<g id="node8" class="node"><title>Node8</title>
<g id="a_node8"><a xlink:href="protobuf__broker_8cpp.html#ae10b5d14d3ad78f811d25de1d8429746" target="_top" xlink:title="protobuf_io">
<polygon fill="none" stroke="black" points="214.5,-0.5 214.5,-19.5 279.5,-19.5 279.5,-0.5 214.5,-0.5"/>
<text text-anchor="middle" x="247" y="-7.5" font-family="Helvetica,sans-Serif" font-size="10.00">protobuf_io</text>
</a>
</g>
</g>
<!-- Node1&#45;&gt;Node8 -->
<g id="edge7" class="edge"><title>Node1&#45;&gt;Node8</title>
<path fill="none" stroke="midnightblue" d="M75.5829,-127.806C91.4312,-99.8139 121.332,-54.4472 160,-30 176.196,-19.7605 197.079,-14.7522 214.212,-12.3077"/>
<polygon fill="midnightblue" stroke="midnightblue" points="72.3229,-126.471 70.5719,-136.92 78.4569,-129.844 72.3229,-126.471"/>
</g>
<!-- Node9 -->
<g id="node9" class="node"><title>Node9</title>
<g id="a_node9"><a xlink:href="protobuf__broker_8cpp.html#ab3afbb104c5cd2d77878dca0def53691" target="_top" xlink:title="server">
<polygon fill="none" stroke="black" points="370,-19.5 370,-38.5 414,-38.5 414,-19.5 370,-19.5"/>
<text text-anchor="middle" x="392" y="-26.5" font-family="Helvetica,sans-Serif" font-size="10.00">server</text>
</a>
</g>
</g>
<!-- Node8&#45;&gt;Node9 -->
<g id="edge8" class="edge"><title>Node8&#45;&gt;Node9</title>
<path fill="none" stroke="midnightblue" d="M289.829,-15.5577C316.145,-19.0542 348.98,-23.417 369.972,-26.2061"/>
<polygon fill="midnightblue" stroke="midnightblue" points="290.11,-12.0644 279.736,-14.2167 289.188,-19.0034 290.11,-12.0644"/>
</g>
<!-- Node10 -->
<g id="node10" class="node"><title>Node10</title>
<g id="a_node10"><a xlink:href="protobuf__broker_8cpp.html#a3c04138a5bfe5d72780bb7e82a18e627" target="_top" xlink:title="main">
<polygon fill="none" stroke="black" points="450,-0.5 450,-19.5 488,-19.5 488,-0.5 450,-0.5"/>
<text text-anchor="middle" x="469" y="-7.5" font-family="Helvetica,sans-Serif" font-size="10.00">main</text>
</a>
</g>
</g>
<!-- Node8&#45;&gt;Node10 -->
<g id="edge10" class="edge"><title>Node8&#45;&gt;Node10</title>
<path fill="none" stroke="midnightblue" d="M289.62,-10C337.753,-10 414.836,-10 449.755,-10"/>
<polygon fill="midnightblue" stroke="midnightblue" points="289.521,-6.5001 279.521,-10 289.521,-13.5001 289.521,-6.5001"/>
</g>
<!-- Node9&#45;&gt;Node10 -->
<g id="edge9" class="edge"><title>Node9&#45;&gt;Node10</title>
<path fill="none" stroke="midnightblue" d="M424.246,-21.0844C433.01,-18.8641 442.244,-16.5249 449.958,-14.5706"/>
<polygon fill="midnightblue" stroke="midnightblue" points="423.126,-17.7575 414.291,-23.6062 424.845,-24.5432 423.126,-17.7575"/>
</g>
</g>
</svg>
