<?xml version="1.0" encoding="UTF-8" standalone="no"?>
<!DOCTYPE svg PUBLIC "-//W3C//DTD SVG 1.1//EN"
 "http://www.w3.org/Graphics/SVG/1.1/DTD/svg11.dtd">
<!-- Generated by graphviz version 2.36.0 (20140111.2315)
 -->
<!-- Title: org::libcppa::ack::MergeFrom Pages: 1 -->
<svg width="396pt" height="224pt"
 viewBox="0.00 0.00 396.00 224.00" xmlns="http://www.w3.org/2000/svg" xmlns:xlink="http://www.w3.org/1999/xlink">
<g id="graph0" class="graph" transform="scale(1 1) rotate(0) translate(4 220)">
<title>org::libcppa::ack::MergeFrom</title>
<!-- Node1 -->
<g id="node1" class="node"><title>Node1</title>
<polygon fill="#bfbfbf" stroke="black" points="0.5,-93 0.5,-123 95.5,-123 95.5,-93 0.5,-93"/>
<text text-anchor="start" x="8.5" y="-111" font-family="Helvetica,sans-Serif" font-size="10.00">org::libcppa::ack::</text>
<text text-anchor="middle" x="48" y="-100" font-family="Helvetica,sans-Serif" font-size="10.00">MergeFrom</text>
</g>
<!-- Node2 -->
<g id="node2" class="node"><title>Node2</title>
<g id="a_node2"><a xlink:href="classorg_1_1libcppa_1_1ack.html#a35bfb947a547ba04c92a09226309b7db" target="_top" xlink:title="org::libcppa::ack::\lhas_id">
<polygon fill="none" stroke="black" points="146.5,-186 146.5,-216 241.5,-216 241.5,-186 146.5,-186"/>
<text text-anchor="start" x="154.5" y="-204" font-family="Helvetica,sans-Serif" font-size="10.00">org::libcppa::ack::</text>
<text text-anchor="middle" x="194" y="-193" font-family="Helvetica,sans-Serif" font-size="10.00">has_id</text>
</a>
</g>
</g>
<!-- Node1&#45;&gt;Node2 -->
<g id="edge1" class="edge"><title>Node1&#45;&gt;Node2</title>
<path fill="none" stroke="midnightblue" d="M64.4618,-123.076C80.3783,-137.989 106.4,-160.736 132,-176 135.333,-177.987 138.853,-179.887 142.453,-181.687"/>
<polygon fill="midnightblue" stroke="midnightblue" points="140.963,-184.854 151.501,-185.95 143.946,-178.522 140.963,-184.854"/>
</g>
<!-- Node3 -->
<g id="node3" class="node"><title>Node3</title>
<g id="a_node3"><a xlink:href="classorg_1_1libcppa_1_1ack.html#ac7becb813f0b31dce74a9617dfdbd93e" target="_top" xlink:title="org::libcppa::ack::\lset_id">
<polygon fill="none" stroke="black" points="146.5,-137 146.5,-167 241.5,-167 241.5,-137 146.5,-137"/>
<text text-anchor="start" x="154.5" y="-155" font-family="Helvetica,sans-Serif" font-size="10.00">org::libcppa::ack::</text>
<text text-anchor="middle" x="194" y="-144" font-family="Helvetica,sans-Serif" font-size="10.00">set_id</text>
</a>
</g>
</g>
<!-- Node1&#45;&gt;Node3 -->
<g id="edge2" class="edge"><title>Node1&#45;&gt;Node3</title>
<path fill="none" stroke="midnightblue" d="M95.7527,-122.286C108.837,-126.284 123.195,-130.671 136.768,-134.818"/>
<polygon fill="midnightblue" stroke="midnightblue" points="135.896,-138.211 146.482,-137.786 137.941,-131.517 135.896,-138.211"/>
</g>
<!-- Node5 -->
<g id="node5" class="node"><title>Node5</title>
<g id="a_node5"><a xlink:href="classorg_1_1libcppa_1_1ack.html#ae85c4ba475311e2a7a6bda892fa8fed4" target="_top" xlink:title="org::libcppa::ack::id">
<polygon fill="none" stroke="black" points="143,-98.5 143,-117.5 245,-117.5 245,-98.5 143,-98.5"/>
<text text-anchor="middle" x="194" y="-105.5" font-family="Helvetica,sans-Serif" font-size="10.00">org::libcppa::ack::id</text>
</a>
</g>
</g>
<!-- Node1&#45;&gt;Node5 -->
<g id="edge4" class="edge"><title>Node1&#45;&gt;Node5</title>
<path fill="none" stroke="midnightblue" d="M95.7527,-108C107.494,-108 120.26,-108 132.564,-108"/>
<polygon fill="midnightblue" stroke="midnightblue" points="132.758,-111.5 142.758,-108 132.758,-104.5 132.758,-111.5"/>
</g>
<!-- Node6 -->
<g id="node6" class="node"><title>Node6</title>
<g id="a_node6"><a xlink:href="classorg_1_1libcppa_1_1ack.html#a7cb8a6f49fecbefd3bfeea877e2c055c" target="_top" xlink:title="org::libcppa::ack::\lmutable_unknown_fields">
<polygon fill="none" stroke="black" points="132,-49 132,-79 256,-79 256,-49 132,-49"/>
<text text-anchor="start" x="140" y="-67" font-family="Helvetica,sans-Serif" font-size="10.00">org::libcppa::ack::</text>
<text text-anchor="middle" x="194" y="-56" font-family="Helvetica,sans-Serif" font-size="10.00">mutable_unknown_fields</text>
</a>
</g>
</g>
<!-- Node1&#45;&gt;Node6 -->
<g id="edge5" class="edge"><title>Node1&#45;&gt;Node6</title>
<path fill="none" stroke="midnightblue" d="M95.7527,-93.7145C107.925,-89.9952 121.199,-85.9391 133.918,-82.0529"/>
<polygon fill="midnightblue" stroke="midnightblue" points="134.967,-85.3921 143.508,-79.1226 132.922,-78.6976 134.967,-85.3921"/>
</g>
<!-- Node7 -->
<g id="node7" class="node"><title>Node7</title>
<g id="a_node7"><a xlink:href="classorg_1_1libcppa_1_1ack.html#ac74fc52fa20a38de3fbc9977b5189630" target="_top" xlink:title="org::libcppa::ack::\lunknown_fields">
<polygon fill="none" stroke="black" points="146.5,-0 146.5,-30 241.5,-30 241.5,-0 146.5,-0"/>
<text text-anchor="start" x="154.5" y="-18" font-family="Helvetica,sans-Serif" font-size="10.00">org::libcppa::ack::</text>
<text text-anchor="middle" x="194" y="-7" font-family="Helvetica,sans-Serif" font-size="10.00">unknown_fields</text>
</a>
</g>
</g>
<!-- Node1&#45;&gt;Node7 -->
<g id="edge6" class="edge"><title>Node1&#45;&gt;Node7</title>
<path fill="none" stroke="midnightblue" d="M64.4618,-92.924C80.3783,-78.0108 106.4,-55.2643 132,-40 135.333,-38.0126 138.853,-36.1131 142.453,-34.313"/>
<polygon fill="midnightblue" stroke="midnightblue" points="143.946,-37.4783 151.501,-30.0501 140.963,-31.1459 143.946,-37.4783"/>
</g>
<!-- Node4 -->
<g id="node4" class="node"><title>Node4</title>
<g id="a_node4"><a xlink:href="classorg_1_1libcppa_1_1ack.html#a7ed55dee2ebec75774cb9a7ccd0f7511" target="_top" xlink:title="org::libcppa::ack::\lset_has_id">
<polygon fill="none" stroke="black" points="292.5,-137 292.5,-167 387.5,-167 387.5,-137 292.5,-137"/>
<text text-anchor="start" x="300.5" y="-155" font-family="Helvetica,sans-Serif" font-size="10.00">org::libcppa::ack::</text>
<text text-anchor="middle" x="340" y="-144" font-family="Helvetica,sans-Serif" font-size="10.00">set_has_id</text>
</a>
</g>
</g>
<!-- Node3&#45;&gt;Node4 -->
<g id="edge3" class="edge"><title>Node3&#45;&gt;Node4</title>
<path fill="none" stroke="midnightblue" d="M241.753,-152C254.71,-152 268.917,-152 282.372,-152"/>
<polygon fill="midnightblue" stroke="midnightblue" points="282.482,-155.5 292.482,-152 282.482,-148.5 282.482,-155.5"/>
</g>
</g>
</svg>
