<?xml version="1.0" encoding="UTF-8" standalone="no"?>
<!DOCTYPE svg PUBLIC "-//W3C//DTD SVG 1.1//EN"
 "http://www.w3.org/Graphics/SVG/1.1/DTD/svg11.dtd">
<!-- Generated by graphviz version 2.36.0 (20140111.2315)
 -->
<!-- Title: org::libcppa::WarnOrAck::MergeFrom Pages: 1 -->
<svg width="474pt" height="371pt"
 viewBox="0.00 0.00 474.00 371.00" xmlns="http://www.w3.org/2000/svg" xmlns:xlink="http://www.w3.org/1999/xlink">
<g id="graph0" class="graph" transform="scale(1 1) rotate(0) translate(4 367)">
<title>org::libcppa::WarnOrAck::MergeFrom</title>
<!-- Node1 -->
<g id="node1" class="node"><title>Node1</title>
<polygon fill="#bfbfbf" stroke="black" points="0,-161 0,-191 124,-191 124,-161 0,-161"/>
<text text-anchor="start" x="8" y="-179" font-family="Helvetica,sans-Serif" font-size="10.00">org::libcppa::WarnOrAck</text>
<text text-anchor="middle" x="62" y="-168" font-family="Helvetica,sans-Serif" font-size="10.00">::MergeFrom</text>
</g>
<!-- Node2 -->
<g id="node2" class="node"><title>Node2</title>
<g id="a_node2"><a xlink:href="classorg_1_1libcppa_1_1WarnOrAck.html#ac607e8a3448c09e0d96c5930d75c2f73" target="_top" xlink:title="org::libcppa::WarnOrAck\l::has_warn">
<polygon fill="none" stroke="black" points="171,-333 171,-363 295,-363 295,-333 171,-333"/>
<text text-anchor="start" x="179" y="-351" font-family="Helvetica,sans-Serif" font-size="10.00">org::libcppa::WarnOrAck</text>
<text text-anchor="middle" x="233" y="-340" font-family="Helvetica,sans-Serif" font-size="10.00">::has_warn</text>
</a>
</g>
</g>
<!-- Node1&#45;&gt;Node2 -->
<g id="edge1" class="edge"><title>Node1&#45;&gt;Node2</title>
<path fill="none" stroke="midnightblue" d="M69.0724,-191.284C81.6118,-220.945 113.171,-286.591 160,-323 162.301,-324.789 164.74,-326.456 167.275,-328.007"/>
<polygon fill="midnightblue" stroke="midnightblue" points="165.748,-331.161 176.207,-332.851 169.085,-325.007 165.748,-331.161"/>
</g>
<!-- Node3 -->
<g id="node3" class="node"><title>Node3</title>
<g id="a_node3"><a xlink:href="classorg_1_1libcppa_1_1WarnOrAck.html#ab90e30d2891e4ce6a37c50b2c9e49d4b" target="_top" xlink:title="org::libcppa::WarnOrAck\l::mutable_warn">
<polygon fill="none" stroke="black" points="171,-284 171,-314 295,-314 295,-284 171,-284"/>
<text text-anchor="start" x="179" y="-302" font-family="Helvetica,sans-Serif" font-size="10.00">org::libcppa::WarnOrAck</text>
<text text-anchor="middle" x="233" y="-291" font-family="Helvetica,sans-Serif" font-size="10.00">::mutable_warn</text>
</a>
</g>
</g>
<!-- Node1&#45;&gt;Node3 -->
<g id="edge2" class="edge"><title>Node1&#45;&gt;Node3</title>
<path fill="none" stroke="midnightblue" d="M74.2086,-191.064C90.7685,-212.343 123.749,-251.153 160,-274 163.306,-276.083 166.807,-278.019 170.415,-279.813"/>
<polygon fill="midnightblue" stroke="midnightblue" points="169,-283.014 179.55,-283.984 171.907,-276.647 169,-283.014"/>
</g>
<!-- Node5 -->
<g id="node5" class="node"><title>Node5</title>
<g id="a_node5"><a xlink:href="classorg_1_1libcppa_1_1WarnOrAck.html#ab669badf2c2a7b504ffde7d37c2b1a9f" target="_top" xlink:title="org::libcppa::WarnOrAck\l::warn">
<polygon fill="none" stroke="black" points="171,-235 171,-265 295,-265 295,-235 171,-235"/>
<text text-anchor="start" x="179" y="-253" font-family="Helvetica,sans-Serif" font-size="10.00">org::libcppa::WarnOrAck</text>
<text text-anchor="middle" x="233" y="-242" font-family="Helvetica,sans-Serif" font-size="10.00">::warn</text>
</a>
</g>
</g>
<!-- Node1&#45;&gt;Node5 -->
<g id="edge4" class="edge"><title>Node1&#45;&gt;Node5</title>
<path fill="none" stroke="midnightblue" d="M90.549,-191.157C109.714,-201.393 136.029,-214.837 160,-225 165.101,-227.163 170.46,-229.287 175.856,-231.327"/>
<polygon fill="midnightblue" stroke="midnightblue" points="174.967,-234.729 185.561,-234.899 177.385,-228.16 174.967,-234.729"/>
</g>
<!-- Node6 -->
<g id="node6" class="node"><title>Node6</title>
<g id="a_node6"><a xlink:href="classorg_1_1libcppa_1_1WarnOrAck.html#a8eeec6df03e93704ac596a78d269eb3c" target="_top" xlink:title="org::libcppa::WarnOrAck\l::has_ack">
<polygon fill="none" stroke="black" points="171,-186 171,-216 295,-216 295,-186 171,-186"/>
<text text-anchor="start" x="179" y="-204" font-family="Helvetica,sans-Serif" font-size="10.00">org::libcppa::WarnOrAck</text>
<text text-anchor="middle" x="233" y="-193" font-family="Helvetica,sans-Serif" font-size="10.00">::has_ack</text>
</a>
</g>
</g>
<!-- Node1&#45;&gt;Node6 -->
<g id="edge5" class="edge"><title>Node1&#45;&gt;Node6</title>
<path fill="none" stroke="midnightblue" d="M124.013,-185.026C135.905,-186.785 148.472,-188.644 160.663,-190.447"/>
<polygon fill="midnightblue" stroke="midnightblue" points="160.388,-193.945 170.793,-191.946 161.413,-187.02 160.388,-193.945"/>
</g>
<!-- Node7 -->
<g id="node7" class="node"><title>Node7</title>
<g id="a_node7"><a xlink:href="classorg_1_1libcppa_1_1WarnOrAck.html#a6bb4f027211410b8dd68aad3407586fb" target="_top" xlink:title="org::libcppa::WarnOrAck\l::mutable_ack">
<polygon fill="none" stroke="black" points="171,-137 171,-167 295,-167 295,-137 171,-137"/>
<text text-anchor="start" x="179" y="-155" font-family="Helvetica,sans-Serif" font-size="10.00">org::libcppa::WarnOrAck</text>
<text text-anchor="middle" x="233" y="-144" font-family="Helvetica,sans-Serif" font-size="10.00">::mutable_ack</text>
</a>
</g>
</g>
<!-- Node1&#45;&gt;Node7 -->
<g id="edge6" class="edge"><title>Node1&#45;&gt;Node7</title>
<path fill="none" stroke="midnightblue" d="M124.013,-167.335C135.905,-165.647 148.472,-163.862 160.663,-162.131"/>
<polygon fill="midnightblue" stroke="midnightblue" points="161.384,-165.563 170.793,-160.692 160.4,-158.633 161.384,-165.563"/>
</g>
<!-- Node9 -->
<g id="node9" class="node"><title>Node9</title>
<g id="a_node9"><a xlink:href="classorg_1_1libcppa_1_1WarnOrAck.html#adb01773cc3a768704172a72677e4641b" target="_top" xlink:title="org::libcppa::WarnOrAck::ack">
<polygon fill="none" stroke="black" points="160,-98.5 160,-117.5 306,-117.5 306,-98.5 160,-98.5"/>
<text text-anchor="middle" x="233" y="-105.5" font-family="Helvetica,sans-Serif" font-size="10.00">org::libcppa::WarnOrAck::ack</text>
</a>
</g>
</g>
<!-- Node1&#45;&gt;Node9 -->
<g id="edge8" class="edge"><title>Node1&#45;&gt;Node9</title>
<path fill="none" stroke="midnightblue" d="M89.977,-160.931C109.105,-150.678 135.605,-137.328 160,-128 167.242,-125.231 175.027,-122.664 182.707,-120.357"/>
<polygon fill="midnightblue" stroke="midnightblue" points="183.693,-123.715 192.329,-117.578 181.75,-116.99 183.693,-123.715"/>
</g>
<!-- Node10 -->
<g id="node10" class="node"><title>Node10</title>
<g id="a_node10"><a xlink:href="classorg_1_1libcppa_1_1WarnOrAck.html#a6dad49afab537e802bce04f339d61211" target="_top" xlink:title="org::libcppa::WarnOrAck\l::mutable_unknown_fields">
<polygon fill="none" stroke="black" points="168,-49 168,-79 298,-79 298,-49 168,-49"/>
<text text-anchor="start" x="176" y="-67" font-family="Helvetica,sans-Serif" font-size="10.00">org::libcppa::WarnOrAck</text>
<text text-anchor="middle" x="233" y="-56" font-family="Helvetica,sans-Serif" font-size="10.00">::mutable_unknown_fields</text>
</a>
</g>
</g>
<!-- Node1&#45;&gt;Node10 -->
<g id="edge9" class="edge"><title>Node1&#45;&gt;Node10</title>
<path fill="none" stroke="midnightblue" d="M76.3459,-160.762C93.8409,-141.618 126.286,-108.874 160,-89 163.591,-86.8834 167.388,-84.9091 171.286,-83.0742"/>
<polygon fill="midnightblue" stroke="midnightblue" points="172.753,-86.2531 180.517,-79.0444 169.952,-79.8378 172.753,-86.2531"/>
</g>
<!-- Node11 -->
<g id="node11" class="node"><title>Node11</title>
<g id="a_node11"><a xlink:href="classorg_1_1libcppa_1_1WarnOrAck.html#a5ff85dc1f8ecb4c1de1ae3094ba96216" target="_top" xlink:title="org::libcppa::WarnOrAck\l::unknown_fields">
<polygon fill="none" stroke="black" points="171,-0 171,-30 295,-30 295,-0 171,-0"/>
<text text-anchor="start" x="179" y="-18" font-family="Helvetica,sans-Serif" font-size="10.00">org::libcppa::WarnOrAck</text>
<text text-anchor="middle" x="233" y="-7" font-family="Helvetica,sans-Serif" font-size="10.00">::unknown_fields</text>
</a>
</g>
</g>
<!-- Node1&#45;&gt;Node11 -->
<g id="edge10" class="edge"><title>Node1&#45;&gt;Node11</title>
<path fill="none" stroke="midnightblue" d="M70.0091,-160.57C83.488,-132.565 115.66,-73.201 160,-40 162.463,-38.156 165.072,-36.4408 167.781,-34.8462"/>
<polygon fill="midnightblue" stroke="midnightblue" points="169.488,-37.9026 176.713,-30.1535 166.233,-31.7057 169.488,-37.9026"/>
</g>
<!-- Node4 -->
<g id="node4" class="node"><title>Node4</title>
<g id="a_node4"><a xlink:href="classorg_1_1libcppa_1_1WarnOrAck.html#aacbf55d28e497cd18168d32aba6b999c" target="_top" xlink:title="org::libcppa::WarnOrAck\l::set_has_warn">
<polygon fill="none" stroke="black" points="342,-284 342,-314 466,-314 466,-284 342,-284"/>
<text text-anchor="start" x="350" y="-302" font-family="Helvetica,sans-Serif" font-size="10.00">org::libcppa::WarnOrAck</text>
<text text-anchor="middle" x="404" y="-291" font-family="Helvetica,sans-Serif" font-size="10.00">::set_has_warn</text>
</a>
</g>
</g>
<!-- Node3&#45;&gt;Node4 -->
<g id="edge3" class="edge"><title>Node3&#45;&gt;Node4</title>
<path fill="none" stroke="midnightblue" d="M295.013,-299C306.905,-299 319.472,-299 331.663,-299"/>
<polygon fill="midnightblue" stroke="midnightblue" points="331.793,-302.5 341.793,-299 331.793,-295.5 331.793,-302.5"/>
</g>
<!-- Node8 -->
<g id="node8" class="node"><title>Node8</title>
<g id="a_node8"><a xlink:href="classorg_1_1libcppa_1_1WarnOrAck.html#a04e2259945cc6e97b6a600827f064f41" target="_top" xlink:title="org::libcppa::WarnOrAck\l::set_has_ack">
<polygon fill="none" stroke="black" points="342,-137 342,-167 466,-167 466,-137 342,-137"/>
<text text-anchor="start" x="350" y="-155" font-family="Helvetica,sans-Serif" font-size="10.00">org::libcppa::WarnOrAck</text>
<text text-anchor="middle" x="404" y="-144" font-family="Helvetica,sans-Serif" font-size="10.00">::set_has_ack</text>
</a>
</g>
</g>
<!-- Node7&#45;&gt;Node8 -->
<g id="edge7" class="edge"><title>Node7&#45;&gt;Node8</title>
<path fill="none" stroke="midnightblue" d="M295.013,-152C306.905,-152 319.472,-152 331.663,-152"/>
<polygon fill="midnightblue" stroke="midnightblue" points="331.793,-155.5 341.793,-152 331.793,-148.5 331.793,-155.5"/>
</g>
</g>
</svg>
