<?xml version="1.0" encoding="UTF-8" standalone="no"?>
<!DOCTYPE svg PUBLIC "-//W3C//DTD SVG 1.1//EN"
 "http://www.w3.org/Graphics/SVG/1.1/DTD/svg11.dtd">
<!-- Generated by graphviz version 2.36.0 (20140111.2315)
 -->
<!-- Title: pb::Header::mutable_unknown_fields Pages: 1 -->
<!--zoomable 116 -->
<svg id="main" version="1.1" xmlns="http://www.w3.org/2000/svg" xmlns:xlink="http://www.w3.org/1999/xlink" xml:space="preserve" onload="init(evt)">
<style type="text/css"><![CDATA[
.edge:hover path { stroke: red; }
.edge:hover polygon { stroke: red; fill: red; }
]]></style>
<script type="text/javascript"><![CDATA[
var edges = document.getElementsByTagName('g');
if (edges && edges.length) {
  for (var i=0;i<edges.length;i++) {
    if (edges[i].id.substr(0,4)=='edge') {
      edges[i].setAttribute('class','edge');
    }
  }
}
]]></script>
        <defs>
                <circle id="rim" cx="0" cy="0" r="7"/>
                <circle id="rim2" cx="0" cy="0" r="3.5"/>
                <g id="zoomPlus">
                        <use xlink:href="#rim" fill="#404040">
                                <set attributeName="fill" to="#808080" begin="zoomplus.mouseover" end="zoomplus.mouseout"/>
                        </use>
                        <path d="M-4,0h8M0,-4v8" fill="none" stroke="white" stroke-width="1.5" pointer-events="none"/>
                </g>
                <g id="zoomMin">
                        <use xlink:href="#rim" fill="#404040">
                                <set attributeName="fill" to="#808080" begin="zoomminus.mouseover" end="zoomminus.mouseout"/>
                        </use>
                        <path d="M-4,0h8" fill="none" stroke="white" stroke-width="1.5" pointer-events="none"/>
                </g>
                <g id="dirArrow">
                        <path fill="none" stroke="white" stroke-width="1.5" d="M0,-3.0v7 M-2.5,-0.5L0,-3.0L2.5,-0.5"/>
                </g>
               <g id="resetDef">
                       <use xlink:href="#rim2" fill="#404040">
                               <set attributeName="fill" to="#808080" begin="reset.mouseover" end="reset.mouseout"/>
                       </use>
               </g>
        </defs>

<script type="text/javascript">
var viewWidth = 576;
var viewHeight = 116;
var sectionId = 'dynsection-14';
</script>
<script xlink:href="svgpan.js"/>
<svg id="graph" class="graph">
<g id="viewport">
<title>pb::Header::mutable_unknown_fields</title>
<!-- Node1 -->
<g id="node1" class="node"><title>Node1</title>
<polygon fill="#bfbfbf" stroke="black" points="0.5,-39 0.5,-69 105.5,-69 105.5,-39 0.5,-39"/>
<text text-anchor="start" x="8.5" y="-57" font-family="Helvetica,sans-Serif" font-size="10.00">pb::Header::mutable</text>
<text text-anchor="middle" x="53" y="-46" font-family="Helvetica,sans-Serif" font-size="10.00">_unknown_fields</text>
</g>
<!-- Node2 -->
<g id="node2" class="node"><title>Node2</title>
<g id="a_node2"><a xlink:href="classpb_1_1Header.html#a72d192cdc297400a506267bc3159dfa9" target="_top" xlink:title="pb::Header::Clear">
<polygon fill="none" stroke="black" points="158,-88.5 158,-107.5 252,-107.5 252,-88.5 158,-88.5"/>
<text text-anchor="middle" x="205" y="-95.5" font-family="Helvetica,sans-Serif" font-size="10.00">pb::Header::Clear</text>
</a>
</g>
</g>
<!-- Node1&#45;&gt;Node2 -->
<g id="edge1" class="edge"><title>Node1&#45;&gt;Node2</title>
<path fill="none" stroke="midnightblue" d="M114.859,-71.8521C134.184,-77.5207 154.809,-83.5705 171.347,-88.4217"/>
<polygon fill="midnightblue" stroke="midnightblue" points="115.783,-68.4756 105.202,-69.0192 113.812,-75.1925 115.783,-68.4756"/>
</g>
<!-- Node5 -->
<g id="node5" class="node"><title>Node5</title>
<g id="a_node5"><a xlink:href="classpb_1_1Header.html#a0c3e9aa9d285e190d25893408f94adf0" target="_top" xlink:title="pb::Header::MergePartial\lFromCodedStream">
<polygon fill="none" stroke="black" points="142.5,-39 142.5,-69 267.5,-69 267.5,-39 142.5,-39"/>
<text text-anchor="start" x="150.5" y="-57" font-family="Helvetica,sans-Serif" font-size="10.00">pb::Header::MergePartial</text>
<text text-anchor="middle" x="205" y="-46" font-family="Helvetica,sans-Serif" font-size="10.00">FromCodedStream</text>
</a>
</g>
</g>
<!-- Node1&#45;&gt;Node5 -->
<g id="edge4" class="edge"><title>Node1&#45;&gt;Node5</title>
<path fill="none" stroke="midnightblue" d="M115.808,-54C124.608,-54 133.659,-54 142.455,-54"/>
<polygon fill="midnightblue" stroke="midnightblue" points="115.622,-50.5001 105.621,-54 115.621,-57.5001 115.622,-50.5001"/>
</g>
<!-- Node6 -->
<g id="node6" class="node"><title>Node6</title>
<g id="a_node6"><a xlink:href="classpb_1_1Header.html#a073fe3c4b73376382b2f3d422cdc13e1" target="_top" xlink:title="pb::Header::MergeFrom">
<polygon fill="none" stroke="black" points="145,-0.5 145,-19.5 265,-19.5 265,-0.5 145,-0.5"/>
<text text-anchor="middle" x="205" y="-7.5" font-family="Helvetica,sans-Serif" font-size="10.00">pb::Header::MergeFrom</text>
</a>
</g>
</g>
<!-- Node1&#45;&gt;Node6 -->
<g id="edge5" class="edge"><title>Node1&#45;&gt;Node6</title>
<path fill="none" stroke="midnightblue" d="M114.859,-36.1479C134.184,-30.4793 154.809,-24.4295 171.347,-19.5783"/>
<polygon fill="midnightblue" stroke="midnightblue" points="113.812,-32.8075 105.202,-38.9808 115.783,-39.5244 113.812,-32.8075"/>
</g>
<!-- Node3 -->
<g id="node3" class="node"><title>Node3</title>
<g id="a_node3"><a xlink:href="classpb_1_1Header.html#afe6059f174b3fad7ce772df32d877647" target="_top" xlink:title="pb::Header::CopyFrom">
<polygon fill="none" stroke="black" points="304,-88.5 304,-107.5 420,-107.5 420,-88.5 304,-88.5"/>
<text text-anchor="middle" x="362" y="-95.5" font-family="Helvetica,sans-Serif" font-size="10.00">pb::Header::CopyFrom</text>
</a>
</g>
</g>
<!-- Node2&#45;&gt;Node3 -->
<g id="edge2" class="edge"><title>Node2&#45;&gt;Node3</title>
<path fill="none" stroke="midnightblue" d="M262.226,-98C275.767,-98 290.246,-98 303.829,-98"/>
<polygon fill="midnightblue" stroke="midnightblue" points="262.085,-94.5001 252.085,-98 262.085,-101.5 262.085,-94.5001"/>
</g>
<!-- Node4 -->
<g id="node4" class="node"><title>Node4</title>
<g id="a_node4"><a xlink:href="classpb_1_1Header.html#a30af6b12daec382f6659bad8ccad3b1d" target="_top" xlink:title="pb::Header::operator=">
<polygon fill="none" stroke="black" points="456,-88.5 456,-107.5 568,-107.5 568,-88.5 456,-88.5"/>
<text text-anchor="middle" x="512" y="-95.5" font-family="Helvetica,sans-Serif" font-size="10.00">pb::Header::operator=</text>
</a>
</g>
</g>
<!-- Node3&#45;&gt;Node4 -->
<g id="edge3" class="edge"><title>Node3&#45;&gt;Node4</title>
<path fill="none" stroke="midnightblue" d="M430.496,-98C438.992,-98 447.603,-98 455.877,-98"/>
<polygon fill="midnightblue" stroke="midnightblue" points="430.221,-94.5001 420.221,-98 430.221,-101.5 430.221,-94.5001"/>
</g>
</g>
</svg>
        <g id="navigator" transform="translate(0 0)" fill="#404254">
                <rect fill="#f2f5e9" fill-opacity="0.5" stroke="#606060" stroke-width=".5" x="0" y="0" width="60" height="60"/>
                <use id="zoomplus" xlink:href="#zoomPlus" x="17" y="9" onmousedown="handleZoom(evt,'in')"/>
                <use id="zoomminus" xlink:href="#zoomMin" x="42" y="9" onmousedown="handleZoom(evt,'out')"/>
                <use id="reset" xlink:href="#resetDef" x="30" y="36" onmousedown="handleReset()"/>
                <g id="arrowUp" xlink:href="#dirArrow" transform="translate(30 24)" onmousedown="handlePan(0,-1)">
                  <use xlink:href="#rim" fill="#404040">
                        <set attributeName="fill" to="#808080" begin="arrowUp.mouseover" end="arrowUp.mouseout"/>
                  </use>
                  <path fill="none" stroke="white" stroke-width="1.5" d="M0,-3.0v7 M-2.5,-0.5L0,-3.0L2.5,-0.5"/>
                </g>
                <g id="arrowRight" xlink:href="#dirArrow" transform="rotate(90) translate(36 -43)" onmousedown="handlePan(1,0)">
                  <use xlink:href="#rim" fill="#404040">
                        <set attributeName="fill" to="#808080" begin="arrowRight.mouseover" end="arrowRight.mouseout"/>
                  </use>
                  <path fill="none" stroke="white" stroke-width="1.5" d="M0,-3.0v7 M-2.5,-0.5L0,-3.0L2.5,-0.5"/>
                </g>
                <g id="arrowDown" xlink:href="#dirArrow" transform="rotate(180) translate(-30 -48)" onmousedown="handlePan(0,1)">
                  <use xlink:href="#rim" fill="#404040">
                        <set attributeName="fill" to="#808080" begin="arrowDown.mouseover" end="arrowDown.mouseout"/>
                  </use>
                  <path fill="none" stroke="white" stroke-width="1.5" d="M0,-3.0v7 M-2.5,-0.5L0,-3.0L2.5,-0.5"/>
                </g>
                <g id="arrowLeft" xlink:href="#dirArrow" transform="rotate(270) translate(-36 17)" onmousedown="handlePan(-1,0)">
                  <use xlink:href="#rim" fill="#404040">
                        <set attributeName="fill" to="#808080" begin="arrowLeft.mouseover" end="arrowLeft.mouseout"/>
                  </use>
                  <path fill="none" stroke="white" stroke-width="1.5" d="M0,-3.0v7 M-2.5,-0.5L0,-3.0L2.5,-0.5"/>
                </g>
        </g>
        <svg viewBox="0 0 15 15" width="100%" height="30px" preserveAspectRatio="xMaxYMin meet">
         <g id="arrow_out" transform="scale(0.3 0.3)">
          <a xlink:href="classpb_1_1Header_ac30ec316fb9d61d433e00e74fee92da1_icgraph_org.svg" target="_base">
           <rect id="button" ry="5" rx="5" y="6" x="6" height="38" width="38"
                fill="#f2f5e9" fill-opacity="0.5" stroke="#606060" stroke-width="1.0"/>
           <path id="arrow"
             d="M 11.500037,31.436501 C 11.940474,20.09759 22.043105,11.32322 32.158766,21.979434 L 37.068811,17.246167 C 37.068811,17.246167 37.088388,32 37.088388,32 L 22.160133,31.978069 C 22.160133,31.978069 26.997745,27.140456 26.997745,27.140456 C 18.528582,18.264221 13.291696,25.230495 11.500037,31.436501 z"
             style="fill:#404040;"/>
          </a>
         </g>
        </svg>
</svg>
