<?xml version="1.0" encoding="UTF-8" standalone="no"?>
<!DOCTYPE svg PUBLIC "-//W3C//DTD SVG 1.1//EN"
 "http://www.w3.org/Graphics/SVG/1.1/DTD/svg11.dtd">
<!-- Generated by graphviz version 2.36.0 (20140111.2315)
 -->
<!-- Title: pb::SensorNearData::MFC::CameraImage::set_has_o_image_width Pages: 1 -->
<svg width="474pt" height="109pt"
 viewBox="0.00 0.00 474.00 109.00" xmlns="http://www.w3.org/2000/svg" xmlns:xlink="http://www.w3.org/1999/xlink">
<g id="graph0" class="graph" transform="scale(1 1) rotate(0) translate(4 105)">
<title>pb::SensorNearData::MFC::CameraImage::set_has_o_image_width</title>
<!-- Node1 -->
<g id="node1" class="node"><title>Node1</title>
<polygon fill="#bfbfbf" stroke="black" points="0,-29.5 0,-70.5 122,-70.5 122,-29.5 0,-29.5"/>
<text text-anchor="start" x="8" y="-58.5" font-family="Helvetica,sans-Serif" font-size="10.00">pb::SensorNearData</text>
<text text-anchor="start" x="8" y="-47.5" font-family="Helvetica,sans-Serif" font-size="10.00">::MFC::CameraImage::</text>
<text text-anchor="middle" x="61" y="-36.5" font-family="Helvetica,sans-Serif" font-size="10.00">set_has_o_image_width</text>
</g>
<!-- Node2 -->
<g id="node2" class="node"><title>Node2</title>
<g id="a_node2"><a xlink:href="classpb_1_1SensorNearData_1_1MFC_1_1CameraImage.html#ab5a9863ea1ea849627b3662d0b2d6c44" target="_top" xlink:title="pb::SensorNearData\l::MFC::CameraImage::\lMergePartialFromCodedStream">
<polygon fill="none" stroke="black" points="158,-59.5 158,-100.5 312,-100.5 312,-59.5 158,-59.5"/>
<text text-anchor="start" x="166" y="-88.5" font-family="Helvetica,sans-Serif" font-size="10.00">pb::SensorNearData</text>
<text text-anchor="start" x="166" y="-77.5" font-family="Helvetica,sans-Serif" font-size="10.00">::MFC::CameraImage::</text>
<text text-anchor="middle" x="235" y="-66.5" font-family="Helvetica,sans-Serif" font-size="10.00">MergePartialFromCodedStream</text>
</a>
</g>
</g>
<!-- Node1&#45;&gt;Node2 -->
<g id="edge1" class="edge"><title>Node1&#45;&gt;Node2</title>
<path fill="none" stroke="midnightblue" d="M132.025,-62.2137C140.534,-63.6977 149.258,-65.2195 157.85,-66.7181"/>
<polygon fill="midnightblue" stroke="midnightblue" points="132.61,-58.7629 122.157,-60.4925 131.407,-65.6588 132.61,-58.7629"/>
</g>
<!-- Node3 -->
<g id="node3" class="node"><title>Node3</title>
<g id="a_node3"><a xlink:href="classpb_1_1SensorNearData_1_1MFC_1_1CameraImage.html#a6661e884c96f0e7d5f63114eea0a5575" target="_top" xlink:title="pb::SensorNearData\l::MFC::CameraImage::\lset_o_image_width">
<polygon fill="none" stroke="black" points="176,0.5 176,-40.5 294,-40.5 294,0.5 176,0.5"/>
<text text-anchor="start" x="184" y="-28.5" font-family="Helvetica,sans-Serif" font-size="10.00">pb::SensorNearData</text>
<text text-anchor="start" x="184" y="-17.5" font-family="Helvetica,sans-Serif" font-size="10.00">::MFC::CameraImage::</text>
<text text-anchor="middle" x="235" y="-6.5" font-family="Helvetica,sans-Serif" font-size="10.00">set_o_image_width</text>
</a>
</g>
</g>
<!-- Node1&#45;&gt;Node3 -->
<g id="edge2" class="edge"><title>Node1&#45;&gt;Node3</title>
<path fill="none" stroke="midnightblue" d="M132.109,-37.7717C146.66,-35.2337 161.84,-32.586 175.904,-30.1331"/>
<polygon fill="midnightblue" stroke="midnightblue" points="131.407,-34.3412 122.157,-39.5075 132.61,-41.2371 131.407,-34.3412"/>
</g>
<!-- Node4 -->
<g id="node4" class="node"><title>Node4</title>
<g id="a_node4"><a xlink:href="classpb_1_1SensorNearData_1_1MFC_1_1CameraImage.html#ae45cc783bc05ce863660a29a98b65e6e" target="_top" xlink:title="pb::SensorNearData\l::MFC::CameraImage::\lMergeFrom">
<polygon fill="none" stroke="black" points="348,0.5 348,-40.5 466,-40.5 466,0.5 348,0.5"/>
<text text-anchor="start" x="356" y="-28.5" font-family="Helvetica,sans-Serif" font-size="10.00">pb::SensorNearData</text>
<text text-anchor="start" x="356" y="-17.5" font-family="Helvetica,sans-Serif" font-size="10.00">::MFC::CameraImage::</text>
<text text-anchor="middle" x="407" y="-6.5" font-family="Helvetica,sans-Serif" font-size="10.00">MergeFrom</text>
</a>
</g>
</g>
<!-- Node3&#45;&gt;Node4 -->
<g id="edge3" class="edge"><title>Node3&#45;&gt;Node4</title>
<path fill="none" stroke="midnightblue" d="M304.398,-20C318.833,-20 333.933,-20 347.944,-20"/>
<polygon fill="midnightblue" stroke="midnightblue" points="304.029,-16.5001 294.029,-20 304.029,-23.5001 304.029,-16.5001"/>
</g>
</g>
</svg>
