<?xml version="1.0" encoding="UTF-8" standalone="no"?>
<!DOCTYPE svg PUBLIC "-//W3C//DTD SVG 1.1//EN"
 "http://www.w3.org/Graphics/SVG/1.1/DTD/svg11.dtd">
<!-- Generated by graphviz version 2.36.0 (20140111.2315)
 -->
<!-- Title: org::libcppa::WarnOrAck::set_allocated_ack Pages: 1 -->
<svg width="314pt" height="126pt"
 viewBox="0.00 0.00 314.00 126.00" xmlns="http://www.w3.org/2000/svg" xmlns:xlink="http://www.w3.org/1999/xlink">
<g id="graph0" class="graph" transform="scale(1 1) rotate(0) translate(4 122)">
<title>org::libcppa::WarnOrAck::set_allocated_ack</title>
<!-- Node1 -->
<g id="node1" class="node"><title>Node1</title>
<polygon fill="#bfbfbf" stroke="black" points="0,-49 0,-79 124,-79 124,-49 0,-49"/>
<text text-anchor="start" x="8" y="-67" font-family="Helvetica,sans-Serif" font-size="10.00">org::libcppa::WarnOrAck</text>
<text text-anchor="middle" x="62" y="-56" font-family="Helvetica,sans-Serif" font-size="10.00">::set_allocated_ack</text>
</g>
<!-- Node2 -->
<g id="node2" class="node"><title>Node2</title>
<g id="a_node2"><a xlink:href="classorg_1_1libcppa_1_1WarnOrAck.html#adb01773cc3a768704172a72677e4641b" target="_top" xlink:title="org::libcppa::WarnOrAck::ack">
<polygon fill="none" stroke="black" points="160,-98.5 160,-117.5 306,-117.5 306,-98.5 160,-98.5"/>
<text text-anchor="middle" x="233" y="-105.5" font-family="Helvetica,sans-Serif" font-size="10.00">org::libcppa::WarnOrAck::ack</text>
</a>
</g>
</g>
<!-- Node1&#45;&gt;Node2 -->
<g id="edge1" class="edge"><title>Node1&#45;&gt;Node2</title>
<path fill="none" stroke="midnightblue" d="M120.688,-79.0192C141.874,-84.5352 165.569,-90.7044 185.634,-95.9284"/>
<polygon fill="midnightblue" stroke="midnightblue" points="184.904,-99.355 195.464,-98.4876 186.668,-92.5809 184.904,-99.355"/>
</g>
<!-- Node3 -->
<g id="node3" class="node"><title>Node3</title>
<g id="a_node3"><a xlink:href="classorg_1_1libcppa_1_1WarnOrAck.html#a04e2259945cc6e97b6a600827f064f41" target="_top" xlink:title="org::libcppa::WarnOrAck\l::set_has_ack">
<polygon fill="none" stroke="black" points="171,-49 171,-79 295,-79 295,-49 171,-49"/>
<text text-anchor="start" x="179" y="-67" font-family="Helvetica,sans-Serif" font-size="10.00">org::libcppa::WarnOrAck</text>
<text text-anchor="middle" x="233" y="-56" font-family="Helvetica,sans-Serif" font-size="10.00">::set_has_ack</text>
</a>
</g>
</g>
<!-- Node1&#45;&gt;Node3 -->
<g id="edge2" class="edge"><title>Node1&#45;&gt;Node3</title>
<path fill="none" stroke="midnightblue" d="M124.013,-64C135.905,-64 148.472,-64 160.663,-64"/>
<polygon fill="midnightblue" stroke="midnightblue" points="160.793,-67.5001 170.793,-64 160.793,-60.5001 160.793,-67.5001"/>
</g>
<!-- Node4 -->
<g id="node4" class="node"><title>Node4</title>
<g id="a_node4"><a xlink:href="classorg_1_1libcppa_1_1WarnOrAck.html#ac40b32c117785cc6c38a31f136870d00" target="_top" xlink:title="org::libcppa::WarnOrAck\l::clear_has_ack">
<polygon fill="none" stroke="black" points="171,-0 171,-30 295,-30 295,-0 171,-0"/>
<text text-anchor="start" x="179" y="-18" font-family="Helvetica,sans-Serif" font-size="10.00">org::libcppa::WarnOrAck</text>
<text text-anchor="middle" x="233" y="-7" font-family="Helvetica,sans-Serif" font-size="10.00">::clear_has_ack</text>
</a>
</g>
</g>
<!-- Node1&#45;&gt;Node4 -->
<g id="edge3" class="edge"><title>Node1&#45;&gt;Node4</title>
<path fill="none" stroke="midnightblue" d="M115.085,-48.8986C132.595,-43.8215 152.295,-38.1098 170.462,-32.8423"/>
<polygon fill="midnightblue" stroke="midnightblue" points="171.458,-36.1979 180.087,-30.0516 169.508,-29.4748 171.458,-36.1979"/>
</g>
</g>
</svg>
