<?xml version="1.0" encoding="UTF-8" standalone="no"?>
<!DOCTYPE svg PUBLIC "-//W3C//DTD SVG 1.1//EN"
 "http://www.w3.org/Graphics/SVG/1.1/DTD/svg11.dtd">
<!-- Generated by graphviz version 2.36.0 (20140111.2315)
 -->
<!-- Title: org::libcppa::warning::MergePartialFromCodedStream Pages: 1 -->
<svg width="334pt" height="87pt"
 viewBox="0.00 0.00 334.00 87.00" xmlns="http://www.w3.org/2000/svg" xmlns:xlink="http://www.w3.org/1999/xlink">
<g id="graph0" class="graph" transform="scale(1 1) rotate(0) translate(4 83)">
<title>org::libcppa::warning::MergePartialFromCodedStream</title>
<!-- Node1 -->
<g id="node1" class="node"><title>Node1</title>
<polygon fill="#bfbfbf" stroke="black" points="0,-24 0,-54 160,-54 160,-24 0,-24"/>
<text text-anchor="start" x="8" y="-42" font-family="Helvetica,sans-Serif" font-size="10.00">org::libcppa::warning</text>
<text text-anchor="middle" x="80" y="-31" font-family="Helvetica,sans-Serif" font-size="10.00">::MergePartialFromCodedStream</text>
</g>
<!-- Node2 -->
<g id="node2" class="node"><title>Node2</title>
<g id="a_node2"><a xlink:href="classorg_1_1libcppa_1_1warning.html#ae15cfc9b3507c76d332681beee0b1f5a" target="_top" xlink:title="org::libcppa::warning\l::set_has_id">
<polygon fill="none" stroke="black" points="207.5,-49 207.5,-79 314.5,-79 314.5,-49 207.5,-49"/>
<text text-anchor="start" x="215.5" y="-67" font-family="Helvetica,sans-Serif" font-size="10.00">org::libcppa::warning</text>
<text text-anchor="middle" x="261" y="-56" font-family="Helvetica,sans-Serif" font-size="10.00">::set_has_id</text>
</a>
</g>
</g>
<!-- Node1&#45;&gt;Node2 -->
<g id="edge1" class="edge"><title>Node1&#45;&gt;Node2</title>
<path fill="none" stroke="midnightblue" d="M160.033,-50.0381C172.545,-51.7856 185.333,-53.5717 197.402,-55.2573"/>
<polygon fill="midnightblue" stroke="midnightblue" points="196.961,-58.7296 207.349,-56.6465 197.929,-51.7968 196.961,-58.7296"/>
</g>
<!-- Node3 -->
<g id="node3" class="node"><title>Node3</title>
<g id="a_node3"><a xlink:href="classorg_1_1libcppa_1_1warning.html#a3ab18605034c18f997223800aaf46084" target="_top" xlink:title="org::libcppa::warning\l::mutable_unknown_fields">
<polygon fill="none" stroke="black" points="196,-0 196,-30 326,-30 326,-0 196,-0"/>
<text text-anchor="start" x="204" y="-18" font-family="Helvetica,sans-Serif" font-size="10.00">org::libcppa::warning</text>
<text text-anchor="middle" x="261" y="-7" font-family="Helvetica,sans-Serif" font-size="10.00">::mutable_unknown_fields</text>
</a>
</g>
</g>
<!-- Node1&#45;&gt;Node3 -->
<g id="edge2" class="edge"><title>Node1&#45;&gt;Node3</title>
<path fill="none" stroke="midnightblue" d="M160.033,-28.4034C168.649,-27.2481 177.397,-26.0753 185.95,-24.9285"/>
<polygon fill="midnightblue" stroke="midnightblue" points="186.436,-28.3947 195.882,-23.5968 185.506,-21.4568 186.436,-28.3947"/>
</g>
</g>
</svg>
