<?xml version="1.0" encoding="UTF-8" standalone="no"?>
<!DOCTYPE svg PUBLIC "-//W3C//DTD SVG 1.1//EN"
 "http://www.w3.org/Graphics/SVG/1.1/DTD/svg11.dtd">
<!-- Generated by graphviz version 2.36.0 (20140111.2315)
 -->
<!-- Title: pb::SensorNearData::MFC::CameraImage::operator= Pages: 1 -->
<svg width="618pt" height="229pt"
 viewBox="0.00 0.00 618.00 229.00" xmlns="http://www.w3.org/2000/svg" xmlns:xlink="http://www.w3.org/1999/xlink">
<g id="graph0" class="graph" transform="scale(1 1) rotate(0) translate(4 225)">
<title>pb::SensorNearData::MFC::CameraImage::operator=</title>
<!-- Node1 -->
<g id="node1" class="node"><title>Node1</title>
<polygon fill="#bfbfbf" stroke="black" points="0,-62.5 0,-103.5 118,-103.5 118,-62.5 0,-62.5"/>
<text text-anchor="start" x="8" y="-91.5" font-family="Helvetica,sans-Serif" font-size="10.00">pb::SensorNearData</text>
<text text-anchor="start" x="8" y="-80.5" font-family="Helvetica,sans-Serif" font-size="10.00">::MFC::CameraImage::</text>
<text text-anchor="middle" x="59" y="-69.5" font-family="Helvetica,sans-Serif" font-size="10.00">operator=</text>
</g>
<!-- Node2 -->
<g id="node2" class="node"><title>Node2</title>
<g id="a_node2"><a xlink:href="classpb_1_1SensorNearData_1_1MFC_1_1CameraImage.html#add0ff05587656030ad17fdff5027c5c9" target="_top" xlink:title="pb::SensorNearData\l::MFC::CameraImage::\lCopyFrom">
<polygon fill="none" stroke="black" points="154,-62.5 154,-103.5 272,-103.5 272,-62.5 154,-62.5"/>
<text text-anchor="start" x="162" y="-91.5" font-family="Helvetica,sans-Serif" font-size="10.00">pb::SensorNearData</text>
<text text-anchor="start" x="162" y="-80.5" font-family="Helvetica,sans-Serif" font-size="10.00">::MFC::CameraImage::</text>
<text text-anchor="middle" x="213" y="-69.5" font-family="Helvetica,sans-Serif" font-size="10.00">CopyFrom</text>
</a>
</g>
</g>
<!-- Node1&#45;&gt;Node2 -->
<g id="edge1" class="edge"><title>Node1&#45;&gt;Node2</title>
<path fill="none" stroke="midnightblue" d="M118.332,-83C126.606,-83 135.175,-83 143.617,-83"/>
<polygon fill="midnightblue" stroke="midnightblue" points="143.824,-86.5001 153.824,-83 143.824,-79.5001 143.824,-86.5001"/>
</g>
<!-- Node3 -->
<g id="node3" class="node"><title>Node3</title>
<g id="a_node3"><a xlink:href="classpb_1_1SensorNearData_1_1MFC_1_1CameraImage.html#a49a7a12c728ccf2bd6a6da9a526dafb3" target="_top" xlink:title="pb::SensorNearData\l::MFC::CameraImage::Clear">
<polygon fill="none" stroke="black" points="308.5,-95 308.5,-125 449.5,-125 449.5,-95 308.5,-95"/>
<text text-anchor="start" x="316.5" y="-113" font-family="Helvetica,sans-Serif" font-size="10.00">pb::SensorNearData</text>
<text text-anchor="middle" x="379" y="-102" font-family="Helvetica,sans-Serif" font-size="10.00">::MFC::CameraImage::Clear</text>
</a>
</g>
</g>
<!-- Node2&#45;&gt;Node3 -->
<g id="edge2" class="edge"><title>Node2&#45;&gt;Node3</title>
<path fill="none" stroke="midnightblue" d="M272.282,-92.5952C280.777,-93.9938 289.644,-95.4536 298.473,-96.9071"/>
<polygon fill="midnightblue" stroke="midnightblue" points="297.967,-100.371 308.403,-98.5419 299.104,-93.4639 297.967,-100.371"/>
</g>
<!-- Node8 -->
<g id="node8" class="node"><title>Node8</title>
<g id="a_node8"><a xlink:href="classpb_1_1SensorNearData_1_1MFC_1_1CameraImage.html#aae8b9de1aa65e56d68941a34fb73f202" target="_top" xlink:title="pb::SensorNearData\l::MFC::CameraImage::\lMergeFrom">
<polygon fill="none" stroke="black" points="320,-35.5 320,-76.5 438,-76.5 438,-35.5 320,-35.5"/>
<text text-anchor="start" x="328" y="-64.5" font-family="Helvetica,sans-Serif" font-size="10.00">pb::SensorNearData</text>
<text text-anchor="start" x="328" y="-53.5" font-family="Helvetica,sans-Serif" font-size="10.00">::MFC::CameraImage::</text>
<text text-anchor="middle" x="379" y="-42.5" font-family="Helvetica,sans-Serif" font-size="10.00">MergeFrom</text>
</a>
</g>
</g>
<!-- Node2&#45;&gt;Node8 -->
<g id="edge7" class="edge"><title>Node2&#45;&gt;Node8</title>
<path fill="none" stroke="midnightblue" d="M272.282,-73.4048C284.487,-71.3955 297.458,-69.2599 309.982,-67.1982"/>
<polygon fill="midnightblue" stroke="midnightblue" points="310.607,-70.6424 319.906,-65.5643 309.47,-63.7354 310.607,-70.6424"/>
</g>
<!-- Node4 -->
<g id="node4" class="node"><title>Node4</title>
<g id="a_node4"><a xlink:href="classpb_1_1SensorNearData_1_1MFC_1_1CameraImage.html#a0d5dce7ebc7c3620d52b36c5cc20f0f7" target="_top" xlink:title="pb::SensorNearData\l::MFC::CameraImage::\lhas_header">
<polygon fill="none" stroke="black" points="489,-179.5 489,-220.5 607,-220.5 607,-179.5 489,-179.5"/>
<text text-anchor="start" x="497" y="-208.5" font-family="Helvetica,sans-Serif" font-size="10.00">pb::SensorNearData</text>
<text text-anchor="start" x="497" y="-197.5" font-family="Helvetica,sans-Serif" font-size="10.00">::MFC::CameraImage::</text>
<text text-anchor="middle" x="548" y="-186.5" font-family="Helvetica,sans-Serif" font-size="10.00">has_header</text>
</a>
</g>
</g>
<!-- Node3&#45;&gt;Node4 -->
<g id="edge3" class="edge"><title>Node3&#45;&gt;Node4</title>
<path fill="none" stroke="midnightblue" d="M406.421,-125.07C427.775,-137.161 458.669,-154.455 486,-169 489.498,-170.862 493.121,-172.765 496.776,-174.666"/>
<polygon fill="midnightblue" stroke="midnightblue" points="495.384,-177.887 505.875,-179.367 498.597,-171.668 495.384,-177.887"/>
</g>
<!-- Node5 -->
<g id="node5" class="node"><title>Node5</title>
<g id="a_node5"><a xlink:href="classpb_1_1SensorNearData_1_1MFC_1_1CameraImage.html#a560c780e9167af2f055e5e46bb66ea83" target="_top" xlink:title="pb::SensorNearData\l::MFC::CameraImage::\lhas_image_payload">
<polygon fill="none" stroke="black" points="489,-119.5 489,-160.5 607,-160.5 607,-119.5 489,-119.5"/>
<text text-anchor="start" x="497" y="-148.5" font-family="Helvetica,sans-Serif" font-size="10.00">pb::SensorNearData</text>
<text text-anchor="start" x="497" y="-137.5" font-family="Helvetica,sans-Serif" font-size="10.00">::MFC::CameraImage::</text>
<text text-anchor="middle" x="548" y="-126.5" font-family="Helvetica,sans-Serif" font-size="10.00">has_image_payload</text>
</a>
</g>
</g>
<!-- Node3&#45;&gt;Node5 -->
<g id="edge4" class="edge"><title>Node3&#45;&gt;Node5</title>
<path fill="none" stroke="midnightblue" d="M449.855,-122.549C459.474,-124.277 469.341,-126.049 478.927,-127.771"/>
<polygon fill="midnightblue" stroke="midnightblue" points="478.332,-131.22 488.793,-129.544 479.569,-124.331 478.332,-131.22"/>
</g>
<!-- Node6 -->
<g id="node6" class="node"><title>Node6</title>
<g id="a_node6"><a xlink:href="classpb_1_1SensorNearData_1_1MFC_1_1CameraImage.html#a9d590baab4806ea1ee3b3598c3f2d813" target="_top" xlink:title="pb::SensorNearData\l::MFC::CameraImage::\lhas_bmp_image">
<polygon fill="none" stroke="black" points="489,-59.5 489,-100.5 607,-100.5 607,-59.5 489,-59.5"/>
<text text-anchor="start" x="497" y="-88.5" font-family="Helvetica,sans-Serif" font-size="10.00">pb::SensorNearData</text>
<text text-anchor="start" x="497" y="-77.5" font-family="Helvetica,sans-Serif" font-size="10.00">::MFC::CameraImage::</text>
<text text-anchor="middle" x="548" y="-66.5" font-family="Helvetica,sans-Serif" font-size="10.00">has_bmp_image</text>
</a>
</g>
</g>
<!-- Node3&#45;&gt;Node6 -->
<g id="edge5" class="edge"><title>Node3&#45;&gt;Node6</title>
<path fill="none" stroke="midnightblue" d="M449.855,-97.4511C459.474,-95.7232 469.341,-93.9507 478.927,-92.2286"/>
<polygon fill="midnightblue" stroke="midnightblue" points="479.569,-95.6694 488.793,-90.4563 478.332,-88.7797 479.569,-95.6694"/>
</g>
<!-- Node7 -->
<g id="node7" class="node"><title>Node7</title>
<g id="a_node7"><a xlink:href="classpb_1_1SensorNearData_1_1MFC_1_1CameraImage.html#af96b3cfe11bf7100c887c641f494bc0b" target="_top" xlink:title="pb::SensorNearData\l::MFC::CameraImage::\lmutable_unknown_fields">
<polygon fill="none" stroke="black" points="486,0.5 486,-40.5 610,-40.5 610,0.5 486,0.5"/>
<text text-anchor="start" x="494" y="-28.5" font-family="Helvetica,sans-Serif" font-size="10.00">pb::SensorNearData</text>
<text text-anchor="start" x="494" y="-17.5" font-family="Helvetica,sans-Serif" font-size="10.00">::MFC::CameraImage::</text>
<text text-anchor="middle" x="548" y="-6.5" font-family="Helvetica,sans-Serif" font-size="10.00">mutable_unknown_fields</text>
</a>
</g>
</g>
<!-- Node3&#45;&gt;Node7 -->
<g id="edge6" class="edge"><title>Node3&#45;&gt;Node7</title>
<path fill="none" stroke="midnightblue" d="M430.554,-94.907C437.309,-92.0474 443.976,-88.7531 450,-85 468.94,-73.2 467.763,-62.8603 486,-50 488.068,-48.542 490.217,-47.1178 492.419,-45.7319"/>
<polygon fill="midnightblue" stroke="midnightblue" points="494.293,-48.6899 501.119,-40.5866 490.73,-42.6648 494.293,-48.6899"/>
</g>
</g>
</svg>
