<?xml version="1.0" encoding="UTF-8" standalone="no"?>
<!DOCTYPE svg PUBLIC "-//W3C//DTD SVG 1.1//EN"
 "http://www.w3.org/Graphics/SVG/1.1/DTD/svg11.dtd">
<!-- Generated by graphviz version 2.36.0 (20140111.2315)
 -->
<!-- Title: ProtobufImageWrapper::ParseFromArray Pages: 1 -->
<svg width="494pt" height="88pt"
 viewBox="0.00 0.00 494.00 88.00" xmlns="http://www.w3.org/2000/svg" xmlns:xlink="http://www.w3.org/1999/xlink">
<g id="graph0" class="graph" transform="scale(1 1) rotate(0) translate(4 84)">
<title>ProtobufImageWrapper::ParseFromArray</title>
<!-- Node1 -->
<g id="node1" class="node"><title>Node1</title>
<polygon fill="#bfbfbf" stroke="black" points="0.5,-14 0.5,-44 117.5,-44 117.5,-14 0.5,-14"/>
<text text-anchor="start" x="8.5" y="-32" font-family="Helvetica,sans-Serif" font-size="10.00">ProtobufImageWrapper</text>
<text text-anchor="middle" x="59" y="-21" font-family="Helvetica,sans-Serif" font-size="10.00">::ParseFromArray</text>
</g>
<!-- Node2 -->
<g id="node2" class="node"><title>Node2</title>
<g id="a_node2"><a xlink:href="classFrameSelector.html#a1065c609443efd72a3236cc98f168caa" target="_top" xlink:title="FrameSelector::ReadImage">
<polygon fill="none" stroke="black" points="162.5,-38.5 162.5,-57.5 299.5,-57.5 299.5,-38.5 162.5,-38.5"/>
<text text-anchor="middle" x="231" y="-45.5" font-family="Helvetica,sans-Serif" font-size="10.00">FrameSelector::ReadImage</text>
</a>
</g>
</g>
<!-- Node1&#45;&gt;Node2 -->
<g id="edge1" class="edge"><title>Node1&#45;&gt;Node2</title>
<path fill="none" stroke="midnightblue" d="M127.814,-36.5792C139.143,-37.8454 150.896,-39.159 162.224,-40.425"/>
<polygon fill="midnightblue" stroke="midnightblue" points="127.881,-33.065 117.554,-35.4325 127.104,-40.0217 127.881,-33.065"/>
</g>
<!-- Node5 -->
<g id="node5" class="node"><title>Node5</title>
<g id="a_node5"><a xlink:href="classFrameSelector.html#af202012c3f91b5aba8ee74d116b24390" target="_top" xlink:title="FrameSelector::ReadAllImages">
<polygon fill="none" stroke="black" points="154.5,-0.5 154.5,-19.5 307.5,-19.5 307.5,-0.5 154.5,-0.5"/>
<text text-anchor="middle" x="231" y="-7.5" font-family="Helvetica,sans-Serif" font-size="10.00">FrameSelector::ReadAllImages</text>
</a>
</g>
</g>
<!-- Node1&#45;&gt;Node5 -->
<g id="edge4" class="edge"><title>Node1&#45;&gt;Node5</title>
<path fill="none" stroke="midnightblue" d="M127.716,-21.4317C136.494,-20.4507 145.528,-19.441 154.422,-18.4469"/>
<polygon fill="midnightblue" stroke="midnightblue" points="127.104,-17.9783 117.554,-22.5675 127.881,-24.935 127.104,-17.9783"/>
</g>
<!-- Node3 -->
<g id="node3" class="node"><title>Node3</title>
<g id="a_node3"><a xlink:href="classController.html#aee012beb2309ae88b7278fa3dad06d80" target="_top" xlink:title="Controller::PlayHDFAsVideo">
<polygon fill="none" stroke="black" points="344,-60.5 344,-79.5 486,-79.5 486,-60.5 344,-60.5"/>
<text text-anchor="middle" x="415" y="-67.5" font-family="Helvetica,sans-Serif" font-size="10.00">Controller::PlayHDFAsVideo</text>
</a>
</g>
</g>
<!-- Node2&#45;&gt;Node3 -->
<g id="edge2" class="edge"><title>Node2&#45;&gt;Node3</title>
<path fill="none" stroke="midnightblue" d="M309.456,-57.3628C320.879,-58.7437 332.594,-60.1597 343.857,-61.5212"/>
<polygon fill="midnightblue" stroke="midnightblue" points="309.859,-53.8862 299.511,-56.1607 309.019,-60.8356 309.859,-53.8862"/>
</g>
<!-- Node4 -->
<g id="node4" class="node"><title>Node4</title>
<g id="a_node4"><a xlink:href="classController.html#afd6375744f4f31dd254d1e5f1316ff4b" target="_top" xlink:title="Controller::SaveAllImages\lAsJPEG">
<polygon fill="none" stroke="black" points="349.5,-11 349.5,-41 480.5,-41 480.5,-11 349.5,-11"/>
<text text-anchor="start" x="357.5" y="-29" font-family="Helvetica,sans-Serif" font-size="10.00">Controller::SaveAllImages</text>
<text text-anchor="middle" x="415" y="-18" font-family="Helvetica,sans-Serif" font-size="10.00">AsJPEG</text>
</a>
</g>
</g>
<!-- Node2&#45;&gt;Node4 -->
<g id="edge3" class="edge"><title>Node2&#45;&gt;Node4</title>
<path fill="none" stroke="midnightblue" d="M309.551,-38.6257C322.803,-37.0238 336.445,-35.3748 349.318,-33.8187"/>
<polygon fill="midnightblue" stroke="midnightblue" points="309.019,-35.1644 299.511,-39.8393 309.859,-42.1138 309.019,-35.1644"/>
</g>
</g>
</svg>
