<?xml version="1.0" encoding="UTF-8" standalone="no"?>
<!DOCTYPE svg PUBLIC "-//W3C//DTD SVG 1.1//EN"
 "http://www.w3.org/Graphics/SVG/1.1/DTD/svg11.dtd">
<!-- Generated by graphviz version 2.36.0 (20140111.2315)
 -->
<!-- Title: org::libcppa::ack::SerializeWithCachedSizesToArray Pages: 1 -->
<svg width="284pt" height="87pt"
 viewBox="0.00 0.00 284.00 87.00" xmlns="http://www.w3.org/2000/svg" xmlns:xlink="http://www.w3.org/1999/xlink">
<g id="graph0" class="graph" transform="scale(1 1) rotate(0) translate(4 83)">
<title>org::libcppa::ack::SerializeWithCachedSizesToArray</title>
<!-- Node1 -->
<g id="node1" class="node"><title>Node1</title>
<polygon fill="#bfbfbf" stroke="black" points="0,-18.5 0,-59.5 144,-59.5 144,-18.5 0,-18.5"/>
<text text-anchor="start" x="8" y="-47.5" font-family="Helvetica,sans-Serif" font-size="10.00">org::libcppa::ack::</text>
<text text-anchor="start" x="8" y="-36.5" font-family="Helvetica,sans-Serif" font-size="10.00">SerializeWithCachedSizesTo</text>
<text text-anchor="middle" x="72" y="-25.5" font-family="Helvetica,sans-Serif" font-size="10.00">Array</text>
</g>
<!-- Node2 -->
<g id="node2" class="node"><title>Node2</title>
<g id="a_node2"><a xlink:href="classorg_1_1libcppa_1_1ack.html#a35bfb947a547ba04c92a09226309b7db" target="_top" xlink:title="org::libcppa::ack::\lhas_id">
<polygon fill="none" stroke="black" points="180.5,-49 180.5,-79 275.5,-79 275.5,-49 180.5,-49"/>
<text text-anchor="start" x="188.5" y="-67" font-family="Helvetica,sans-Serif" font-size="10.00">org::libcppa::ack::</text>
<text text-anchor="middle" x="228" y="-56" font-family="Helvetica,sans-Serif" font-size="10.00">has_id</text>
</a>
</g>
</g>
<!-- Node1&#45;&gt;Node2 -->
<g id="edge1" class="edge"><title>Node1&#45;&gt;Node2</title>
<path fill="none" stroke="midnightblue" d="M144.14,-50.5487C152.88,-51.9676 161.722,-53.4029 170.211,-54.781"/>
<polygon fill="midnightblue" stroke="midnightblue" points="169.929,-58.281 180.361,-56.4287 171.051,-51.3714 169.929,-58.281"/>
</g>
<!-- Node3 -->
<g id="node3" class="node"><title>Node3</title>
<g id="a_node3"><a xlink:href="classorg_1_1libcppa_1_1ack.html#ac74fc52fa20a38de3fbc9977b5189630" target="_top" xlink:title="org::libcppa::ack::\lunknown_fields">
<polygon fill="none" stroke="black" points="180.5,-0 180.5,-30 275.5,-30 275.5,-0 180.5,-0"/>
<text text-anchor="start" x="188.5" y="-18" font-family="Helvetica,sans-Serif" font-size="10.00">org::libcppa::ack::</text>
<text text-anchor="middle" x="228" y="-7" font-family="Helvetica,sans-Serif" font-size="10.00">unknown_fields</text>
</a>
</g>
</g>
<!-- Node1&#45;&gt;Node3 -->
<g id="edge2" class="edge"><title>Node1&#45;&gt;Node3</title>
<path fill="none" stroke="midnightblue" d="M144.14,-27.9133C152.88,-26.5511 161.722,-25.1732 170.211,-23.8502"/>
<polygon fill="midnightblue" stroke="midnightblue" points="171.019,-27.2667 180.361,-22.2685 169.941,-20.3501 171.019,-27.2667"/>
</g>
</g>
</svg>
