<?xml version="1.0" encoding="UTF-8" standalone="no"?>
<!DOCTYPE svg PUBLIC "-//W3C//DTD SVG 1.1//EN"
 "http://www.w3.org/Graphics/SVG/1.1/DTD/svg11.dtd">
<!-- Generated by graphviz version 2.36.0 (20140111.2315)
 -->
<!-- Title: E Pages: 1 -->
<svg width="159pt" height="222pt"
 viewBox="0.00 0.00 159.00 222.00" xmlns="http://www.w3.org/2000/svg" xmlns:xlink="http://www.w3.org/1999/xlink">
<g id="graph0" class="graph" transform="scale(1 1) rotate(0) translate(4 218)">
<title>E</title>
<!-- Node1 -->
<g id="node1" class="node"><title>Node1</title>
<polygon fill="#bfbfbf" stroke="black" points="-0.5,-0.5 -0.5,-19.5 28.5,-19.5 28.5,-0.5 -0.5,-0.5"/>
<text text-anchor="middle" x="14" y="-7.5" font-family="Helvetica,sans-Serif" font-size="10.00">E</text>
</g>
<!-- Node2 -->
<g id="node2" class="node"><title>Node2</title>
<g id="a_node2"><a xlink:href="classD.html" target="_top" xlink:title="D">
<polygon fill="none" stroke="black" points="32.5,-68.5 32.5,-87.5 61.5,-87.5 61.5,-68.5 32.5,-68.5"/>
<text text-anchor="middle" x="47" y="-75.5" font-family="Helvetica,sans-Serif" font-size="10.00">D</text>
</a>
</g>
</g>
<!-- Node2&#45;&gt;Node1 -->
<g id="edge1" class="edge"><title>Node2&#45;&gt;Node1</title>
<path fill="none" stroke="midnightblue" d="M34.0183,-60.0066C31.8506,-56.7782 29.7433,-53.3574 28,-50 22.8284,-40.0402 18.761,-27.7367 16.3724,-19.6444"/>
<polygon fill="midnightblue" stroke="midnightblue" points="31.3589,-62.3037 40.0357,-68.3834 37.0441,-58.2197 31.3589,-62.3037"/>
</g>
<!-- Node5 -->
<g id="node5" class="node"><title>Node5</title>
<g id="a_node5"><a xlink:href="classC.html" target="_top" xlink:title="C">
<polygon fill="none" stroke="black" points="77.5,-0.5 77.5,-19.5 106.5,-19.5 106.5,-0.5 77.5,-0.5"/>
<text text-anchor="middle" x="92" y="-7.5" font-family="Helvetica,sans-Serif" font-size="10.00">C</text>
</a>
</g>
</g>
<!-- Node2&#45;&gt;Node5 -->
<g id="edge8" class="edge"><title>Node2&#45;&gt;Node5</title>
<path fill="none" stroke="#9a32cd" stroke-dasharray="5,2" d="M41.3027,-58.4658C40.2622,-51.6305 40.4453,-44.0781 44,-38 51.1439,-25.7851 66.0706,-18.6695 77.3936,-14.8397"/>
<polygon fill="#9a32cd" stroke="#9a32cd" points="37.9224,-59.3798 43.6363,-68.3018 44.7333,-57.7639 37.9224,-59.3798"/>
<text text-anchor="middle" x="55" y="-41.5" font-family="Helvetica,sans-Serif" font-size="10.00"> m_d</text>
</g>
<!-- Node3 -->
<g id="node3" class="node"><title>Node3</title>
<g id="a_node3"><a xlink:href="classA.html" target="_top" xlink:title="A">
<polygon fill="none" stroke="black" points="71.5,-194.5 71.5,-213.5 100.5,-213.5 100.5,-194.5 71.5,-194.5"/>
<text text-anchor="middle" x="86" y="-201.5" font-family="Helvetica,sans-Serif" font-size="10.00">A</text>
</a>
</g>
</g>
<!-- Node3&#45;&gt;Node2 -->
<g id="edge2" class="edge"><title>Node3&#45;&gt;Node2</title>
<path fill="none" stroke="darkgreen" d="M77.4095,-184.918C72.4049,-173.863 66.2612,-159.331 62,-146 55.4673,-125.563 50.7054,-100.742 48.4538,-87.8053"/>
<polygon fill="darkgreen" stroke="darkgreen" points="74.3774,-186.699 81.76,-194.298 80.7277,-183.754 74.3774,-186.699"/>
</g>
<!-- Node3&#45;&gt;Node3 -->
<g id="edge3" class="edge"><title>Node3&#45;&gt;Node3</title>
<path fill="none" stroke="#9a32cd" stroke-dasharray="5,2" d="M110.822,-209.951C115.062,-209.138 118,-207.154 118,-204 118,-198.688 109.667,-196.695 100.812,-198.023"/>
<polygon fill="#9a32cd" stroke="#9a32cd" points="110.804,-206.451 100.812,-209.977 110.821,-213.451 110.804,-206.451"/>
<text text-anchor="middle" x="134.5" y="-201.5" font-family="Helvetica,sans-Serif" font-size="10.00"> m_self</text>
</g>
<!-- Node4 -->
<g id="node4" class="node"><title>Node4</title>
<g id="a_node4"><a xlink:href="classB.html" target="_top" xlink:title="B">
<polygon fill="none" stroke="black" points="71.5,-126.5 71.5,-145.5 100.5,-145.5 100.5,-126.5 71.5,-126.5"/>
<text text-anchor="middle" x="86" y="-133.5" font-family="Helvetica,sans-Serif" font-size="10.00">B</text>
</a>
</g>
</g>
<!-- Node3&#45;&gt;Node4 -->
<g id="edge5" class="edge"><title>Node3&#45;&gt;Node4</title>
<path fill="none" stroke="#9a32cd" stroke-dasharray="5,2" d="M86,-184.041C86,-171.472 86,-155.563 86,-145.841"/>
<polygon fill="#9a32cd" stroke="#9a32cd" points="82.5001,-184.372 86,-194.372 89.5001,-184.372 82.5001,-184.372"/>
<text text-anchor="middle" x="97" y="-167.5" font-family="Helvetica,sans-Serif" font-size="10.00"> m_a</text>
</g>
<!-- Node3&#45;&gt;Node5 -->
<g id="edge7" class="edge"><title>Node3&#45;&gt;Node5</title>
<path fill="none" stroke="midnightblue" d="M104.859,-187.268C107.773,-183.877 110.357,-180.074 112,-176 116.571,-164.664 146.589,-211.421 104,-38 102.434,-31.6236 99.4341,-24.8736 96.8255,-19.7177"/>
<polygon fill="midnightblue" stroke="midnightblue" points="102.35,-184.827 97.7447,-194.368 107.295,-189.781 102.35,-184.827"/>
</g>
<!-- Node4&#45;&gt;Node2 -->
<g id="edge4" class="edge"><title>Node4&#45;&gt;Node2</title>
<path fill="none" stroke="#8b1a1a" d="M74.037,-117.822C67.0373,-107.772 58.5064,-95.522 52.9233,-87.5052"/>
<polygon fill="#8b1a1a" stroke="#8b1a1a" points="71.3191,-120.044 79.9062,-126.25 77.0634,-116.044 71.3191,-120.044"/>
</g>
<!-- Node5&#45;&gt;Node2 -->
<g id="edge6" class="edge"><title>Node5&#45;&gt;Node2</title>
<path fill="none" stroke="#9a32cd" stroke-dasharray="5,2" d="M82.9248,-28.7508C79.1978,-35.572 74.6649,-43.3196 70,-50 65.4874,-56.4622 59.7374,-63.2122 55.1156,-68.3467"/>
<polygon fill="#9a32cd" stroke="#9a32cd" points="86.1549,-30.1292 87.7301,-19.6521 79.9651,-26.8601 86.1549,-30.1292"/>
<text text-anchor="middle" x="89" y="-41.5" font-family="Helvetica,sans-Serif" font-size="10.00"> m_c</text>
</g>
</g>
</svg>
