<?xml version="1.0" encoding="UTF-8" standalone="no"?>
<!DOCTYPE svg PUBLIC "-//W3C//DTD SVG 1.1//EN"
 "http://www.w3.org/Graphics/SVG/1.1/DTD/svg11.dtd">
<!-- Generated by graphviz version 2.36.0 (20140111.2315)
 -->
<!-- Title: pb::Header::set_has_timestamp Pages: 1 -->
<svg width="442pt" height="77pt"
 viewBox="0.00 0.00 442.00 77.00" xmlns="http://www.w3.org/2000/svg" xmlns:xlink="http://www.w3.org/1999/xlink">
<g id="graph0" class="graph" transform="scale(1 1) rotate(0) translate(4 73)">
<title>pb::Header::set_has_timestamp</title>
<!-- Node1 -->
<g id="node1" class="node"><title>Node1</title>
<polygon fill="#bfbfbf" stroke="black" points="0.5,-17 0.5,-47 105.5,-47 105.5,-17 0.5,-17"/>
<text text-anchor="start" x="8.5" y="-35" font-family="Helvetica,sans-Serif" font-size="10.00">pb::Header::set_has</text>
<text text-anchor="middle" x="53" y="-24" font-family="Helvetica,sans-Serif" font-size="10.00">_timestamp</text>
</g>
<!-- Node2 -->
<g id="node2" class="node"><title>Node2</title>
<g id="a_node2"><a xlink:href="classpb_1_1Header.html#a0c3e9aa9d285e190d25893408f94adf0" target="_top" xlink:title="pb::Header::MergePartial\lFromCodedStream">
<polygon fill="none" stroke="black" points="147.5,-39 147.5,-69 272.5,-69 272.5,-39 147.5,-39"/>
<text text-anchor="start" x="155.5" y="-57" font-family="Helvetica,sans-Serif" font-size="10.00">pb::Header::MergePartial</text>
<text text-anchor="middle" x="210" y="-46" font-family="Helvetica,sans-Serif" font-size="10.00">FromCodedStream</text>
</a>
</g>
</g>
<!-- Node1&#45;&gt;Node2 -->
<g id="edge1" class="edge"><title>Node1&#45;&gt;Node2</title>
<path fill="none" stroke="midnightblue" d="M115.517,-40.7314C126.005,-42.2201 136.901,-43.7667 147.392,-45.2556"/>
<polygon fill="midnightblue" stroke="midnightblue" points="116.005,-37.2658 105.613,-39.3257 115.022,-44.1963 116.005,-37.2658"/>
</g>
<!-- Node3 -->
<g id="node3" class="node"><title>Node3</title>
<g id="a_node3"><a xlink:href="classpb_1_1Header.html#ad91d65ce16a43e766780324daa839030" target="_top" xlink:title="pb::Header::set_timestamp">
<polygon fill="none" stroke="black" points="142.5,-0.5 142.5,-19.5 277.5,-19.5 277.5,-0.5 142.5,-0.5"/>
<text text-anchor="middle" x="210" y="-7.5" font-family="Helvetica,sans-Serif" font-size="10.00">pb::Header::set_timestamp</text>
</a>
</g>
</g>
<!-- Node1&#45;&gt;Node3 -->
<g id="edge2" class="edge"><title>Node1&#45;&gt;Node3</title>
<path fill="none" stroke="midnightblue" d="M115.756,-23.2347C124.531,-21.9892 133.586,-20.7039 142.447,-19.4462"/>
<polygon fill="midnightblue" stroke="midnightblue" points="115.022,-19.8037 105.613,-24.6743 116.005,-26.7342 115.022,-19.8037"/>
</g>
<!-- Node4 -->
<g id="node4" class="node"><title>Node4</title>
<g id="a_node4"><a xlink:href="classpb_1_1Header.html#a073fe3c4b73376382b2f3d422cdc13e1" target="_top" xlink:title="pb::Header::MergeFrom">
<polygon fill="none" stroke="black" points="314,-0.5 314,-19.5 434,-19.5 434,-0.5 314,-0.5"/>
<text text-anchor="middle" x="374" y="-7.5" font-family="Helvetica,sans-Serif" font-size="10.00">pb::Header::MergeFrom</text>
</a>
</g>
</g>
<!-- Node3&#45;&gt;Node4 -->
<g id="edge3" class="edge"><title>Node3&#45;&gt;Node4</title>
<path fill="none" stroke="midnightblue" d="M287.978,-10C296.671,-10 305.425,-10 313.839,-10"/>
<polygon fill="midnightblue" stroke="midnightblue" points="287.827,-6.5001 277.827,-10 287.827,-13.5001 287.827,-6.5001"/>
</g>
</g>
</svg>
