<?xml version="1.0" encoding="UTF-8" standalone="no"?>
<!DOCTYPE svg PUBLIC "-//W3C//DTD SVG 1.1//EN"
 "http://www.w3.org/Graphics/SVG/1.1/DTD/svg11.dtd">
<!-- Generated by graphviz version 2.36.0 (20140111.2315)
 -->
<!-- Title: csCommunication::Warning::clear_has_mess Pages: 1 -->
<svg width="320pt" height="136pt"
 viewBox="0.00 0.00 320.00 136.00" xmlns="http://www.w3.org/2000/svg" xmlns:xlink="http://www.w3.org/1999/xlink">
<g id="graph0" class="graph" transform="scale(1 1) rotate(0) translate(4 132)">
<title>csCommunication::Warning::clear_has_mess</title>
<!-- Node1 -->
<g id="node1" class="node"><title>Node1</title>
<polygon fill="#bfbfbf" stroke="black" points="0.5,-49 0.5,-79 137.5,-79 137.5,-49 0.5,-49"/>
<text text-anchor="start" x="8.5" y="-67" font-family="Helvetica,sans-Serif" font-size="10.00">csCommunication::Warning</text>
<text text-anchor="middle" x="69" y="-56" font-family="Helvetica,sans-Serif" font-size="10.00">::clear_has_mess</text>
</g>
<!-- Node2 -->
<g id="node2" class="node"><title>Node2</title>
<g id="a_node2"><a xlink:href="classcsCommunication_1_1Warning.html#afa9d8e467682b7b0deab4703bd23f5ca" target="_top" xlink:title="csCommunication::Warning\l::clear_mess">
<polygon fill="none" stroke="black" points="174.5,-98 174.5,-128 311.5,-128 311.5,-98 174.5,-98"/>
<text text-anchor="start" x="182.5" y="-116" font-family="Helvetica,sans-Serif" font-size="10.00">csCommunication::Warning</text>
<text text-anchor="middle" x="243" y="-105" font-family="Helvetica,sans-Serif" font-size="10.00">::clear_mess</text>
</a>
</g>
</g>
<!-- Node1&#45;&gt;Node2 -->
<g id="edge1" class="edge"><title>Node1&#45;&gt;Node2</title>
<path fill="none" stroke="midnightblue" d="M132.812,-81.8941C151.312,-87.1644 171.359,-92.8755 189.166,-97.9484"/>
<polygon fill="midnightblue" stroke="midnightblue" points="133.585,-78.4753 123.009,-79.1014 131.668,-85.2074 133.585,-78.4753"/>
</g>
<!-- Node3 -->
<g id="node3" class="node"><title>Node3</title>
<g id="a_node3"><a xlink:href="classcsCommunication_1_1Warning.html#a56e5000bca3739ed90df2ec68a9e7d91" target="_top" xlink:title="csCommunication::Warning\l::release_mess">
<polygon fill="none" stroke="black" points="174.5,-49 174.5,-79 311.5,-79 311.5,-49 174.5,-49"/>
<text text-anchor="start" x="182.5" y="-67" font-family="Helvetica,sans-Serif" font-size="10.00">csCommunication::Warning</text>
<text text-anchor="middle" x="243" y="-56" font-family="Helvetica,sans-Serif" font-size="10.00">::release_mess</text>
</a>
</g>
</g>
<!-- Node1&#45;&gt;Node3 -->
<g id="edge2" class="edge"><title>Node1&#45;&gt;Node3</title>
<path fill="none" stroke="midnightblue" d="M148.134,-64C156.846,-64 165.666,-64 174.233,-64"/>
<polygon fill="midnightblue" stroke="midnightblue" points="147.979,-60.5001 137.979,-64 147.979,-67.5001 147.979,-60.5001"/>
</g>
<!-- Node4 -->
<g id="node4" class="node"><title>Node4</title>
<g id="a_node4"><a xlink:href="classcsCommunication_1_1Warning.html#a19ee172b8a90a8aedb59c7334e431205" target="_top" xlink:title="csCommunication::Warning\l::set_allocated_mess">
<polygon fill="none" stroke="black" points="174.5,-0 174.5,-30 311.5,-30 311.5,-0 174.5,-0"/>
<text text-anchor="start" x="182.5" y="-18" font-family="Helvetica,sans-Serif" font-size="10.00">csCommunication::Warning</text>
<text text-anchor="middle" x="243" y="-7" font-family="Helvetica,sans-Serif" font-size="10.00">::set_allocated_mess</text>
</a>
</g>
</g>
<!-- Node1&#45;&gt;Node4 -->
<g id="edge3" class="edge"><title>Node1&#45;&gt;Node4</title>
<path fill="none" stroke="midnightblue" d="M132.812,-46.1059C151.312,-40.8356 171.359,-35.1245 189.166,-30.0516"/>
<polygon fill="midnightblue" stroke="midnightblue" points="131.668,-42.7926 123.009,-48.8986 133.585,-49.5247 131.668,-42.7926"/>
</g>
</g>
</svg>
