<?xml version="1.0" encoding="UTF-8" standalone="no"?>
<!DOCTYPE svg PUBLIC "-//W3C//DTD SVG 1.1//EN"
 "http://www.w3.org/Graphics/SVG/1.1/DTD/svg11.dtd">
<!-- Generated by graphviz version 2.36.0 (20140111.2315)
 -->
<!-- Title: org::libcppa::WarnOrAck::SerializeWithCachedSizesToArray Pages: 1 -->
<svg width="364pt" height="224pt"
 viewBox="0.00 0.00 364.00 224.00" xmlns="http://www.w3.org/2000/svg" xmlns:xlink="http://www.w3.org/1999/xlink">
<g id="graph0" class="graph" transform="scale(1 1) rotate(0) translate(4 220)">
<title>org::libcppa::WarnOrAck::SerializeWithCachedSizesToArray</title>
<!-- Node1 -->
<g id="node1" class="node"><title>Node1</title>
<polygon fill="#bfbfbf" stroke="black" points="0.5,-88 0.5,-118 173.5,-118 173.5,-88 0.5,-88"/>
<text text-anchor="start" x="8.5" y="-106" font-family="Helvetica,sans-Serif" font-size="10.00">org::libcppa::WarnOrAck</text>
<text text-anchor="middle" x="87" y="-95" font-family="Helvetica,sans-Serif" font-size="10.00">::SerializeWithCachedSizesToArray</text>
</g>
<!-- Node2 -->
<g id="node2" class="node"><title>Node2</title>
<g id="a_node2"><a xlink:href="classorg_1_1libcppa_1_1WarnOrAck.html#ac607e8a3448c09e0d96c5930d75c2f73" target="_top" xlink:title="org::libcppa::WarnOrAck\l::has_warn">
<polygon fill="none" stroke="black" points="221,-186 221,-216 345,-216 345,-186 221,-186"/>
<text text-anchor="start" x="229" y="-204" font-family="Helvetica,sans-Serif" font-size="10.00">org::libcppa::WarnOrAck</text>
<text text-anchor="middle" x="283" y="-193" font-family="Helvetica,sans-Serif" font-size="10.00">::has_warn</text>
</a>
</g>
</g>
<!-- Node1&#45;&gt;Node2 -->
<g id="edge1" class="edge"><title>Node1&#45;&gt;Node2</title>
<path fill="none" stroke="midnightblue" d="M110.17,-118.165C134.052,-134.041 173.543,-158.983 210,-176 214.676,-178.183 219.599,-180.281 224.584,-182.269"/>
<polygon fill="midnightblue" stroke="midnightblue" points="223.609,-185.643 234.199,-185.951 226.112,-179.106 223.609,-185.643"/>
</g>
<!-- Node3 -->
<g id="node3" class="node"><title>Node3</title>
<g id="a_node3"><a xlink:href="classorg_1_1libcppa_1_1WarnOrAck.html#ab669badf2c2a7b504ffde7d37c2b1a9f" target="_top" xlink:title="org::libcppa::WarnOrAck\l::warn">
<polygon fill="none" stroke="black" points="221,-137 221,-167 345,-167 345,-137 221,-137"/>
<text text-anchor="start" x="229" y="-155" font-family="Helvetica,sans-Serif" font-size="10.00">org::libcppa::WarnOrAck</text>
<text text-anchor="middle" x="283" y="-144" font-family="Helvetica,sans-Serif" font-size="10.00">::warn</text>
</a>
</g>
</g>
<!-- Node1&#45;&gt;Node3 -->
<g id="edge2" class="edge"><title>Node1&#45;&gt;Node3</title>
<path fill="none" stroke="midnightblue" d="M147.525,-118.035C168.102,-123.232 191.337,-129.101 212.634,-134.48"/>
<polygon fill="midnightblue" stroke="midnightblue" points="212.035,-137.938 222.588,-136.994 213.749,-131.151 212.035,-137.938"/>
</g>
<!-- Node4 -->
<g id="node4" class="node"><title>Node4</title>
<g id="a_node4"><a xlink:href="classorg_1_1libcppa_1_1WarnOrAck.html#a8eeec6df03e93704ac596a78d269eb3c" target="_top" xlink:title="org::libcppa::WarnOrAck\l::has_ack">
<polygon fill="none" stroke="black" points="221,-88 221,-118 345,-118 345,-88 221,-88"/>
<text text-anchor="start" x="229" y="-106" font-family="Helvetica,sans-Serif" font-size="10.00">org::libcppa::WarnOrAck</text>
<text text-anchor="middle" x="283" y="-95" font-family="Helvetica,sans-Serif" font-size="10.00">::has_ack</text>
</a>
</g>
</g>
<!-- Node1&#45;&gt;Node4 -->
<g id="edge3" class="edge"><title>Node1&#45;&gt;Node4</title>
<path fill="none" stroke="midnightblue" d="M173.656,-103C186.106,-103 198.809,-103 210.929,-103"/>
<polygon fill="midnightblue" stroke="midnightblue" points="210.954,-106.5 220.954,-103 210.954,-99.5001 210.954,-106.5"/>
</g>
<!-- Node5 -->
<g id="node5" class="node"><title>Node5</title>
<g id="a_node5"><a xlink:href="classorg_1_1libcppa_1_1WarnOrAck.html#adb01773cc3a768704172a72677e4641b" target="_top" xlink:title="org::libcppa::WarnOrAck::ack">
<polygon fill="none" stroke="black" points="210,-49.5 210,-68.5 356,-68.5 356,-49.5 210,-49.5"/>
<text text-anchor="middle" x="283" y="-56.5" font-family="Helvetica,sans-Serif" font-size="10.00">org::libcppa::WarnOrAck::ack</text>
</a>
</g>
</g>
<!-- Node1&#45;&gt;Node5 -->
<g id="edge4" class="edge"><title>Node1&#45;&gt;Node5</title>
<path fill="none" stroke="midnightblue" d="M154.221,-87.9808C178.986,-82.364 206.737,-76.07 230.033,-70.7863"/>
<polygon fill="midnightblue" stroke="midnightblue" points="231.081,-74.1377 240.059,-68.5124 229.532,-67.311 231.081,-74.1377"/>
</g>
<!-- Node6 -->
<g id="node6" class="node"><title>Node6</title>
<g id="a_node6"><a xlink:href="classorg_1_1libcppa_1_1WarnOrAck.html#a5ff85dc1f8ecb4c1de1ae3094ba96216" target="_top" xlink:title="org::libcppa::WarnOrAck\l::unknown_fields">
<polygon fill="none" stroke="black" points="221,-0 221,-30 345,-30 345,-0 221,-0"/>
<text text-anchor="start" x="229" y="-18" font-family="Helvetica,sans-Serif" font-size="10.00">org::libcppa::WarnOrAck</text>
<text text-anchor="middle" x="283" y="-7" font-family="Helvetica,sans-Serif" font-size="10.00">::unknown_fields</text>
</a>
</g>
</g>
<!-- Node1&#45;&gt;Node6 -->
<g id="edge5" class="edge"><title>Node1&#45;&gt;Node6</title>
<path fill="none" stroke="midnightblue" d="M114.604,-87.8615C138.969,-74.3365 176.266,-54.4793 210,-40 215.092,-37.8145 220.444,-35.6751 225.836,-33.6252"/>
<polygon fill="midnightblue" stroke="midnightblue" points="227.368,-36.7904 235.535,-30.0413 224.942,-30.2242 227.368,-36.7904"/>
</g>
</g>
</svg>
