<?xml version="1.0" encoding="UTF-8" standalone="no"?>
<!DOCTYPE svg PUBLIC "-//W3C//DTD SVG 1.1//EN"
 "http://www.w3.org/Graphics/SVG/1.1/DTD/svg11.dtd">
<!-- Generated by graphviz version 2.36.0 (20140111.2315)
 -->
<!-- Title: pb::SensorNearData::MFC::CameraImage::New Pages: 1 -->
<svg width="454pt" height="48pt"
 viewBox="0.00 0.00 454.00 48.00" xmlns="http://www.w3.org/2000/svg" xmlns:xlink="http://www.w3.org/1999/xlink">
<g id="graph0" class="graph" transform="scale(1 1) rotate(0) translate(4 44)">
<title>pb::SensorNearData::MFC::CameraImage::New</title>
<!-- Node1 -->
<g id="node1" class="node"><title>Node1</title>
<polygon fill="#bfbfbf" stroke="black" points="0,-5 0,-35 138,-35 138,-5 0,-5"/>
<text text-anchor="start" x="8" y="-23" font-family="Helvetica,sans-Serif" font-size="10.00">pb::SensorNearData</text>
<text text-anchor="middle" x="69" y="-12" font-family="Helvetica,sans-Serif" font-size="10.00">::MFC::CameraImage::New</text>
</g>
<!-- Node2 -->
<g id="node2" class="node"><title>Node2</title>
<g id="a_node2"><a xlink:href="classpb_1_1SensorNearData_1_1MFC_1_1CameraImage.html#ad19408103cdab94b0541584c644d770a" target="_top" xlink:title="pb::SensorNearData\l::MFC::CameraImage::\lCameraImage">
<polygon fill="none" stroke="black" points="174,0.5 174,-40.5 292,-40.5 292,0.5 174,0.5"/>
<text text-anchor="start" x="182" y="-28.5" font-family="Helvetica,sans-Serif" font-size="10.00">pb::SensorNearData</text>
<text text-anchor="start" x="182" y="-17.5" font-family="Helvetica,sans-Serif" font-size="10.00">::MFC::CameraImage::</text>
<text text-anchor="middle" x="233" y="-6.5" font-family="Helvetica,sans-Serif" font-size="10.00">CameraImage</text>
</a>
</g>
</g>
<!-- Node1&#45;&gt;Node2 -->
<g id="edge1" class="edge"><title>Node1&#45;&gt;Node2</title>
<path fill="none" stroke="midnightblue" d="M138.233,-20C146.655,-20 155.266,-20 163.69,-20"/>
<polygon fill="midnightblue" stroke="midnightblue" points="163.846,-23.5001 173.846,-20 163.846,-16.5001 163.846,-23.5001"/>
</g>
<!-- Node3 -->
<g id="node3" class="node"><title>Node3</title>
<g id="a_node3"><a xlink:href="classpb_1_1SensorNearData_1_1MFC_1_1CameraImage.html#a48bf8651d33e0a3ff26cef31c5703610" target="_top" xlink:title="pb::SensorNearData\l::MFC::CameraImage::\lSharedCtor">
<polygon fill="none" stroke="black" points="328,0.5 328,-40.5 446,-40.5 446,0.5 328,0.5"/>
<text text-anchor="start" x="336" y="-28.5" font-family="Helvetica,sans-Serif" font-size="10.00">pb::SensorNearData</text>
<text text-anchor="start" x="336" y="-17.5" font-family="Helvetica,sans-Serif" font-size="10.00">::MFC::CameraImage::</text>
<text text-anchor="middle" x="387" y="-6.5" font-family="Helvetica,sans-Serif" font-size="10.00">SharedCtor</text>
</a>
</g>
</g>
<!-- Node2&#45;&gt;Node3 -->
<g id="edge2" class="edge"><title>Node2&#45;&gt;Node3</title>
<path fill="none" stroke="midnightblue" d="M292.332,-20C300.606,-20 309.175,-20 317.617,-20"/>
<polygon fill="midnightblue" stroke="midnightblue" points="317.824,-23.5001 327.824,-20 317.824,-16.5001 317.824,-23.5001"/>
</g>
</g>
</svg>
