<?xml version="1.0" encoding="UTF-8" standalone="no"?>
<!DOCTYPE svg PUBLIC "-//W3C//DTD SVG 1.1//EN"
 "http://www.w3.org/Graphics/SVG/1.1/DTD/svg11.dtd">
<!-- Generated by graphviz version 2.36.0 (20140111.2315)
 -->
<!-- Title: org::libcppa::warning::mutable_unknown_fields Pages: 1 -->
<svg width="622pt" height="136pt"
 viewBox="0.00 0.00 622.00 136.00" xmlns="http://www.w3.org/2000/svg" xmlns:xlink="http://www.w3.org/1999/xlink">
<g id="graph0" class="graph" transform="scale(1 1) rotate(0) translate(4 132)">
<title>org::libcppa::warning::mutable_unknown_fields</title>
<!-- Node1 -->
<g id="node1" class="node"><title>Node1</title>
<polygon fill="#bfbfbf" stroke="black" points="0,-49 0,-79 130,-79 130,-49 0,-49"/>
<text text-anchor="start" x="8" y="-67" font-family="Helvetica,sans-Serif" font-size="10.00">org::libcppa::warning</text>
<text text-anchor="middle" x="65" y="-56" font-family="Helvetica,sans-Serif" font-size="10.00">::mutable_unknown_fields</text>
</g>
<!-- Node2 -->
<g id="node2" class="node"><title>Node2</title>
<g id="a_node2"><a xlink:href="classorg_1_1libcppa_1_1warning.html#ab18e43b27b16b8f89f4a82bac997dd1e" target="_top" xlink:title="org::libcppa::warning\l::Clear">
<polygon fill="none" stroke="black" points="192.5,-98 192.5,-128 299.5,-128 299.5,-98 192.5,-98"/>
<text text-anchor="start" x="200.5" y="-116" font-family="Helvetica,sans-Serif" font-size="10.00">org::libcppa::warning</text>
<text text-anchor="middle" x="246" y="-105" font-family="Helvetica,sans-Serif" font-size="10.00">::Clear</text>
</a>
</g>
</g>
<!-- Node1&#45;&gt;Node2 -->
<g id="edge1" class="edge"><title>Node1&#45;&gt;Node2</title>
<path fill="none" stroke="midnightblue" d="M130.93,-81.7741C151.156,-87.3109 173.197,-93.3444 192.465,-98.6189"/>
<polygon fill="midnightblue" stroke="midnightblue" points="131.736,-78.366 121.166,-79.1014 129.888,-85.1176 131.736,-78.366"/>
</g>
<!-- Node5 -->
<g id="node5" class="node"><title>Node5</title>
<g id="a_node5"><a xlink:href="classorg_1_1libcppa_1_1warning.html#ae10b25c463d10eea53e16ff4948ba9dd" target="_top" xlink:title="org::libcppa::warning\l::MergePartialFromCodedStream">
<polygon fill="none" stroke="black" points="166,-49 166,-79 326,-79 326,-49 166,-49"/>
<text text-anchor="start" x="174" y="-67" font-family="Helvetica,sans-Serif" font-size="10.00">org::libcppa::warning</text>
<text text-anchor="middle" x="246" y="-56" font-family="Helvetica,sans-Serif" font-size="10.00">::MergePartialFromCodedStream</text>
</a>
</g>
</g>
<!-- Node1&#45;&gt;Node5 -->
<g id="edge4" class="edge"><title>Node1&#45;&gt;Node5</title>
<path fill="none" stroke="midnightblue" d="M140.255,-64C148.658,-64 157.245,-64 165.709,-64"/>
<polygon fill="midnightblue" stroke="midnightblue" points="140.118,-60.5001 130.118,-64 140.117,-67.5001 140.118,-60.5001"/>
</g>
<!-- Node6 -->
<g id="node6" class="node"><title>Node6</title>
<g id="a_node6"><a xlink:href="classorg_1_1libcppa_1_1warning.html#a6a97a1d89ce4e288261a5c275281090d" target="_top" xlink:title="org::libcppa::warning\l::MergeFrom">
<polygon fill="none" stroke="black" points="192.5,-0 192.5,-30 299.5,-30 299.5,-0 192.5,-0"/>
<text text-anchor="start" x="200.5" y="-18" font-family="Helvetica,sans-Serif" font-size="10.00">org::libcppa::warning</text>
<text text-anchor="middle" x="246" y="-7" font-family="Helvetica,sans-Serif" font-size="10.00">::MergeFrom</text>
</a>
</g>
</g>
<!-- Node1&#45;&gt;Node6 -->
<g id="edge5" class="edge"><title>Node1&#45;&gt;Node6</title>
<path fill="none" stroke="midnightblue" d="M130.93,-46.2259C151.156,-40.6891 173.197,-34.6556 192.465,-29.3811"/>
<polygon fill="midnightblue" stroke="midnightblue" points="129.888,-42.8824 121.166,-48.8986 131.736,-49.634 129.888,-42.8824"/>
</g>
<!-- Node3 -->
<g id="node3" class="node"><title>Node3</title>
<g id="a_node3"><a xlink:href="classorg_1_1libcppa_1_1warning.html#a34aaa717620bfc7f621bacc452d2962e" target="_top" xlink:title="org::libcppa::warning\l::CopyFrom">
<polygon fill="none" stroke="black" points="362.5,-98 362.5,-128 469.5,-128 469.5,-98 362.5,-98"/>
<text text-anchor="start" x="370.5" y="-116" font-family="Helvetica,sans-Serif" font-size="10.00">org::libcppa::warning</text>
<text text-anchor="middle" x="416" y="-105" font-family="Helvetica,sans-Serif" font-size="10.00">::CopyFrom</text>
</a>
</g>
</g>
<!-- Node2&#45;&gt;Node3 -->
<g id="edge2" class="edge"><title>Node2&#45;&gt;Node3</title>
<path fill="none" stroke="midnightblue" d="M309.746,-113C327.111,-113 345.774,-113 362.492,-113"/>
<polygon fill="midnightblue" stroke="midnightblue" points="309.695,-109.5 299.695,-113 309.695,-116.5 309.695,-109.5"/>
</g>
<!-- Node4 -->
<g id="node4" class="node"><title>Node4</title>
<g id="a_node4"><a xlink:href="classorg_1_1libcppa_1_1warning.html#ad9b9180f962be79c99bf9811d65991b6" target="_top" xlink:title="org::libcppa::warning\l::operator=">
<polygon fill="none" stroke="black" points="506.5,-98 506.5,-128 613.5,-128 613.5,-98 506.5,-98"/>
<text text-anchor="start" x="514.5" y="-116" font-family="Helvetica,sans-Serif" font-size="10.00">org::libcppa::warning</text>
<text text-anchor="middle" x="560" y="-105" font-family="Helvetica,sans-Serif" font-size="10.00">::operator=</text>
</a>
</g>
</g>
<!-- Node3&#45;&gt;Node4 -->
<g id="edge3" class="edge"><title>Node3&#45;&gt;Node4</title>
<path fill="none" stroke="midnightblue" d="M479.994,-113C488.704,-113 497.578,-113 506.08,-113"/>
<polygon fill="midnightblue" stroke="midnightblue" points="479.876,-109.5 469.876,-113 479.876,-116.5 479.876,-109.5"/>
</g>
</g>
</svg>
