<?xml version="1.0" encoding="UTF-8" standalone="no"?>
<!DOCTYPE svg PUBLIC "-//W3C//DTD SVG 1.1//EN"
 "http://www.w3.org/Graphics/SVG/1.1/DTD/svg11.dtd">
<!-- Generated by graphviz version 2.36.0 (20140111.2315)
 -->
<!-- Title: csCommunication::Warning::has_mess Pages: 1 -->
<svg width="704pt" height="234pt"
 viewBox="0.00 0.00 704.00 234.00" xmlns="http://www.w3.org/2000/svg" xmlns:xlink="http://www.w3.org/1999/xlink">
<g id="graph0" class="graph" transform="scale(1 1) rotate(0) translate(4 230)">
<title>csCommunication::Warning::has_mess</title>
<!-- Node1 -->
<g id="node1" class="node"><title>Node1</title>
<polygon fill="#bfbfbf" stroke="black" points="0.5,-98 0.5,-128 137.5,-128 137.5,-98 0.5,-98"/>
<text text-anchor="start" x="8.5" y="-116" font-family="Helvetica,sans-Serif" font-size="10.00">csCommunication::Warning</text>
<text text-anchor="middle" x="69" y="-105" font-family="Helvetica,sans-Serif" font-size="10.00">::has_mess</text>
</g>
<!-- Node2 -->
<g id="node2" class="node"><title>Node2</title>
<g id="a_node2"><a xlink:href="classcsCommunication_1_1Warning.html#addb3a7c1a7886e53738ae92de96d00d3" target="_top" xlink:title="csCommunication::Warning\l::Clear">
<polygon fill="none" stroke="black" points="192.5,-196 192.5,-226 329.5,-226 329.5,-196 192.5,-196"/>
<text text-anchor="start" x="200.5" y="-214" font-family="Helvetica,sans-Serif" font-size="10.00">csCommunication::Warning</text>
<text text-anchor="middle" x="261" y="-203" font-family="Helvetica,sans-Serif" font-size="10.00">::Clear</text>
</a>
</g>
</g>
<!-- Node1&#45;&gt;Node2 -->
<g id="edge1" class="edge"><title>Node1&#45;&gt;Node2</title>
<path fill="none" stroke="midnightblue" d="M95.4288,-134.459C115.62,-150.573 145.159,-172.158 174,-186 181.85,-189.767 190.381,-193.083 198.919,-195.964"/>
<polygon fill="midnightblue" stroke="midnightblue" points="97.6136,-131.725 87.6419,-128.145 93.2048,-137.162 97.6136,-131.725"/>
</g>
<!-- Node5 -->
<g id="node5" class="node"><title>Node5</title>
<g id="a_node5"><a xlink:href="classcsCommunication_1_1Warning.html#a7216a898f594c8c5befd38d59e3ea8ab" target="_top" xlink:title="csCommunication::Warning\l::SerializeWithCachedSizes">
<polygon fill="none" stroke="black" points="191.5,-147 191.5,-177 330.5,-177 330.5,-147 191.5,-147"/>
<text text-anchor="start" x="199.5" y="-165" font-family="Helvetica,sans-Serif" font-size="10.00">csCommunication::Warning</text>
<text text-anchor="middle" x="261" y="-154" font-family="Helvetica,sans-Serif" font-size="10.00">::SerializeWithCachedSizes</text>
</a>
</g>
</g>
<!-- Node1&#45;&gt;Node5 -->
<g id="edge4" class="edge"><title>Node1&#45;&gt;Node5</title>
<path fill="none" stroke="midnightblue" d="M138.05,-130.55C158.915,-135.931 181.67,-141.799 201.813,-146.994"/>
<polygon fill="midnightblue" stroke="midnightblue" points="138.855,-127.143 128.297,-128.035 137.107,-133.921 138.855,-127.143"/>
</g>
<!-- Node6 -->
<g id="node6" class="node"><title>Node6</title>
<g id="a_node6"><a xlink:href="classcsCommunication_1_1Warning.html#a4caa98438e16b840fe6bacc3d7430692" target="_top" xlink:title="csCommunication::Warning\l::SerializeWithCachedSizesToArray">
<polygon fill="none" stroke="black" points="174.5,-98 174.5,-128 347.5,-128 347.5,-98 174.5,-98"/>
<text text-anchor="start" x="182.5" y="-116" font-family="Helvetica,sans-Serif" font-size="10.00">csCommunication::Warning</text>
<text text-anchor="middle" x="261" y="-105" font-family="Helvetica,sans-Serif" font-size="10.00">::SerializeWithCachedSizesToArray</text>
</a>
</g>
</g>
<!-- Node1&#45;&gt;Node6 -->
<g id="edge5" class="edge"><title>Node1&#45;&gt;Node6</title>
<path fill="none" stroke="midnightblue" d="M147.733,-113C156.528,-113 165.527,-113 174.414,-113"/>
<polygon fill="midnightblue" stroke="midnightblue" points="147.522,-109.5 137.522,-113 147.522,-116.5 147.522,-109.5"/>
</g>
<!-- Node7 -->
<g id="node7" class="node"><title>Node7</title>
<g id="a_node7"><a xlink:href="classcsCommunication_1_1Warning.html#a5ed92e6e526c5217ded8bd90eb3652ec" target="_top" xlink:title="csCommunication::Warning\l::ByteSize">
<polygon fill="none" stroke="black" points="192.5,-49 192.5,-79 329.5,-79 329.5,-49 192.5,-49"/>
<text text-anchor="start" x="200.5" y="-67" font-family="Helvetica,sans-Serif" font-size="10.00">csCommunication::Warning</text>
<text text-anchor="middle" x="261" y="-56" font-family="Helvetica,sans-Serif" font-size="10.00">::ByteSize</text>
</a>
</g>
</g>
<!-- Node1&#45;&gt;Node7 -->
<g id="edge6" class="edge"><title>Node1&#45;&gt;Node7</title>
<path fill="none" stroke="midnightblue" d="M138.05,-95.4502C158.915,-90.0694 181.67,-84.201 201.813,-79.0062"/>
<polygon fill="midnightblue" stroke="midnightblue" points="137.107,-92.079 128.297,-97.9654 138.855,-98.8572 137.107,-92.079"/>
</g>
<!-- Node9 -->
<g id="node9" class="node"><title>Node9</title>
<g id="a_node9"><a xlink:href="classcsCommunication_1_1Warning.html#af1c1761ea058cbf3898652f6c5741c36" target="_top" xlink:title="csCommunication::Warning\l::MergeFrom">
<polygon fill="none" stroke="black" points="192.5,-0 192.5,-30 329.5,-30 329.5,-0 192.5,-0"/>
<text text-anchor="start" x="200.5" y="-18" font-family="Helvetica,sans-Serif" font-size="10.00">csCommunication::Warning</text>
<text text-anchor="middle" x="261" y="-7" font-family="Helvetica,sans-Serif" font-size="10.00">::MergeFrom</text>
</a>
</g>
</g>
<!-- Node1&#45;&gt;Node9 -->
<g id="edge8" class="edge"><title>Node1&#45;&gt;Node9</title>
<path fill="none" stroke="midnightblue" d="M95.4288,-91.541C115.62,-75.427 145.159,-53.8416 174,-40 181.85,-36.2326 190.381,-32.9171 198.919,-30.0362"/>
<polygon fill="midnightblue" stroke="midnightblue" points="93.2048,-88.8383 87.6419,-97.8553 97.6136,-94.2755 93.2048,-88.8383"/>
</g>
<!-- Node3 -->
<g id="node3" class="node"><title>Node3</title>
<g id="a_node3"><a xlink:href="classcsCommunication_1_1Warning.html#a44212518144909b9a671a5a165824ccb" target="_top" xlink:title="csCommunication::Warning\l::CopyFrom">
<polygon fill="none" stroke="black" points="384.5,-196 384.5,-226 521.5,-226 521.5,-196 384.5,-196"/>
<text text-anchor="start" x="392.5" y="-214" font-family="Helvetica,sans-Serif" font-size="10.00">csCommunication::Warning</text>
<text text-anchor="middle" x="453" y="-203" font-family="Helvetica,sans-Serif" font-size="10.00">::CopyFrom</text>
</a>
</g>
</g>
<!-- Node2&#45;&gt;Node3 -->
<g id="edge2" class="edge"><title>Node2&#45;&gt;Node3</title>
<path fill="none" stroke="midnightblue" d="M339.672,-211C354.494,-211 369.898,-211 384.376,-211"/>
<polygon fill="midnightblue" stroke="midnightblue" points="339.522,-207.5 329.522,-211 339.522,-214.5 339.522,-207.5"/>
</g>
<!-- Node4 -->
<g id="node4" class="node"><title>Node4</title>
<g id="a_node4"><a xlink:href="classcsCommunication_1_1Warning.html#a97bbbb3eb2f186494f01c75765788842" target="_top" xlink:title="csCommunication::Warning\l::operator=">
<polygon fill="none" stroke="black" points="558.5,-196 558.5,-226 695.5,-226 695.5,-196 558.5,-196"/>
<text text-anchor="start" x="566.5" y="-214" font-family="Helvetica,sans-Serif" font-size="10.00">csCommunication::Warning</text>
<text text-anchor="middle" x="627" y="-203" font-family="Helvetica,sans-Serif" font-size="10.00">::operator=</text>
</a>
</g>
</g>
<!-- Node3&#45;&gt;Node4 -->
<g id="edge3" class="edge"><title>Node3&#45;&gt;Node4</title>
<path fill="none" stroke="midnightblue" d="M532.134,-211C540.846,-211 549.666,-211 558.233,-211"/>
<polygon fill="midnightblue" stroke="midnightblue" points="531.979,-207.5 521.979,-211 531.979,-214.5 531.979,-207.5"/>
</g>
<!-- Node8 -->
<g id="node8" class="node"><title>Node8</title>
<g id="a_node8"><a xlink:href="client_8cpp.html#a0ddf1224851353fc92bfbff6f499fa97" target="_top" xlink:title="main">
<polygon fill="none" stroke="black" points="434,-54.5 434,-73.5 472,-73.5 472,-54.5 434,-54.5"/>
<text text-anchor="middle" x="453" y="-61.5" font-family="Helvetica,sans-Serif" font-size="10.00">main</text>
</a>
</g>
</g>
<!-- Node7&#45;&gt;Node8 -->
<g id="edge7" class="edge"><title>Node7&#45;&gt;Node8</title>
<path fill="none" stroke="midnightblue" d="M339.656,-64C374.255,-64 412.03,-64 433.777,-64"/>
<polygon fill="midnightblue" stroke="midnightblue" points="339.522,-60.5001 329.522,-64 339.522,-67.5001 339.522,-60.5001"/>
</g>
</g>
</svg>
