<?xml version="1.0" encoding="UTF-8" standalone="no"?>
<!DOCTYPE svg PUBLIC "-//W3C//DTD SVG 1.1//EN"
 "http://www.w3.org/Graphics/SVG/1.1/DTD/svg11.dtd">
<!-- Generated by graphviz version 2.36.0 (20140111.2315)
 -->
<!-- Title: org::libcppa::ack::id Pages: 1 -->
<svg width="396pt" height="77pt"
 viewBox="0.00 0.00 396.00 77.00" xmlns="http://www.w3.org/2000/svg" xmlns:xlink="http://www.w3.org/1999/xlink">
<g id="graph0" class="graph" transform="scale(1 1) rotate(0) translate(4 73)">
<title>org::libcppa::ack::id</title>
<!-- Node1 -->
<g id="node1" class="node"><title>Node1</title>
<polygon fill="#bfbfbf" stroke="black" points="0,-22.5 0,-41.5 102,-41.5 102,-22.5 0,-22.5"/>
<text text-anchor="middle" x="51" y="-29.5" font-family="Helvetica,sans-Serif" font-size="10.00">org::libcppa::ack::id</text>
</g>
<!-- Node2 -->
<g id="node2" class="node"><title>Node2</title>
<g id="a_node2"><a xlink:href="classorg_1_1libcppa_1_1ack.html#a17e5c7e26869657c335ff6f79be21abb" target="_top" xlink:title="org::libcppa::ack::\lMergeFrom">
<polygon fill="none" stroke="black" points="138.5,-39 138.5,-69 233.5,-69 233.5,-39 138.5,-39"/>
<text text-anchor="start" x="146.5" y="-57" font-family="Helvetica,sans-Serif" font-size="10.00">org::libcppa::ack::</text>
<text text-anchor="middle" x="186" y="-46" font-family="Helvetica,sans-Serif" font-size="10.00">MergeFrom</text>
</a>
</g>
</g>
<!-- Node1&#45;&gt;Node2 -->
<g id="edge1" class="edge"><title>Node1&#45;&gt;Node2</title>
<path fill="none" stroke="midnightblue" d="M112.348,-41.9824C121.008,-43.4149 129.809,-44.8707 138.156,-46.2514"/>
<polygon fill="midnightblue" stroke="midnightblue" points="112.719,-38.4962 102.282,-40.3173 111.576,-45.4024 112.719,-38.4962"/>
</g>
<!-- Node3 -->
<g id="node3" class="node"><title>Node3</title>
<g id="a_node3"><a xlink:href="protobuf__broker_8cpp.html#ae10b5d14d3ad78f811d25de1d8429746" target="_top" xlink:title="protobuf_io">
<polygon fill="none" stroke="black" points="153.5,-0.5 153.5,-19.5 218.5,-19.5 218.5,-0.5 153.5,-0.5"/>
<text text-anchor="middle" x="186" y="-7.5" font-family="Helvetica,sans-Serif" font-size="10.00">protobuf_io</text>
</a>
</g>
</g>
<!-- Node1&#45;&gt;Node3 -->
<g id="edge2" class="edge"><title>Node1&#45;&gt;Node3</title>
<path fill="none" stroke="midnightblue" d="M112.419,-22.0059C126.479,-19.6802 140.905,-17.294 153.154,-15.2678"/>
<polygon fill="midnightblue" stroke="midnightblue" points="111.576,-18.5976 102.282,-23.6827 112.719,-25.5038 111.576,-18.5976"/>
</g>
<!-- Node4 -->
<g id="node4" class="node"><title>Node4</title>
<g id="a_node4"><a xlink:href="protobuf__broker_8cpp.html#ab3afbb104c5cd2d77878dca0def53691" target="_top" xlink:title="server">
<polygon fill="none" stroke="black" points="270,-19.5 270,-38.5 314,-38.5 314,-19.5 270,-19.5"/>
<text text-anchor="middle" x="292" y="-26.5" font-family="Helvetica,sans-Serif" font-size="10.00">server</text>
</a>
</g>
</g>
<!-- Node3&#45;&gt;Node4 -->
<g id="edge3" class="edge"><title>Node3&#45;&gt;Node4</title>
<path fill="none" stroke="midnightblue" d="M228.809,-17.6382C242.938,-20.2195 258.112,-22.9917 269.934,-25.1515"/>
<polygon fill="midnightblue" stroke="midnightblue" points="229.235,-14.1581 218.769,-15.8039 227.977,-21.0441 229.235,-14.1581"/>
</g>
<!-- Node5 -->
<g id="node5" class="node"><title>Node5</title>
<g id="a_node5"><a xlink:href="protobuf__broker_8cpp.html#a3c04138a5bfe5d72780bb7e82a18e627" target="_top" xlink:title="main">
<polygon fill="none" stroke="black" points="350,-0.5 350,-19.5 388,-19.5 388,-0.5 350,-0.5"/>
<text text-anchor="middle" x="369" y="-7.5" font-family="Helvetica,sans-Serif" font-size="10.00">main</text>
</a>
</g>
</g>
<!-- Node3&#45;&gt;Node5 -->
<g id="edge5" class="edge"><title>Node3&#45;&gt;Node5</title>
<path fill="none" stroke="midnightblue" d="M228.799,-10C266.883,-10 321.353,-10 349.533,-10"/>
<polygon fill="midnightblue" stroke="midnightblue" points="228.528,-6.5001 218.528,-10 228.528,-13.5001 228.528,-6.5001"/>
</g>
<!-- Node4&#45;&gt;Node5 -->
<g id="edge4" class="edge"><title>Node4&#45;&gt;Node5</title>
<path fill="none" stroke="midnightblue" d="M324.246,-21.0844C333.01,-18.8641 342.244,-16.5249 349.958,-14.5706"/>
<polygon fill="midnightblue" stroke="midnightblue" points="323.126,-17.7575 314.291,-23.6062 324.845,-24.5432 323.126,-17.7575"/>
</g>
</g>
</svg>
