<?xml version="1.0" encoding="UTF-8" standalone="no"?>
<!DOCTYPE svg PUBLIC "-//W3C//DTD SVG 1.1//EN"
 "http://www.w3.org/Graphics/SVG/1.1/DTD/svg11.dtd">
<!-- Generated by graphviz version 2.36.0 (20140111.2315)
 -->
<!-- Title: ProtobufImageWrapper Pages: 1 -->
<svg width="241pt" height="234pt"
 viewBox="0.00 0.00 241.00 234.00" xmlns="http://www.w3.org/2000/svg" xmlns:xlink="http://www.w3.org/1999/xlink">
<g id="graph0" class="graph" transform="scale(1 1) rotate(0) translate(4 230)">
<title>ProtobufImageWrapper</title>
<!-- Node1 -->
<g id="node1" class="node"><title>Node1</title>
<polygon fill="#bfbfbf" stroke="black" points="-0.5,-0.5 -0.5,-19.5 116.5,-19.5 116.5,-0.5 -0.5,-0.5"/>
<text text-anchor="middle" x="58" y="-7.5" font-family="Helvetica,sans-Serif" font-size="10.00">ProtobufImageWrapper</text>
</g>
<!-- Node2 -->
<g id="node2" class="node"><title>Node2</title>
<g id="a_node2"><a xlink:href="classpb_1_1SensorNearData_1_1MFC_1_1CameraImage.html" target="_top" xlink:title="pb::SensorNearData\l::MFC::CameraImage">
<polygon fill="none" stroke="black" points="2,-69 2,-99 114,-99 114,-69 2,-69"/>
<text text-anchor="start" x="10" y="-87" font-family="Helvetica,sans-Serif" font-size="10.00">pb::SensorNearData</text>
<text text-anchor="middle" x="58" y="-76" font-family="Helvetica,sans-Serif" font-size="10.00">::MFC::CameraImage</text>
</a>
</g>
</g>
<!-- Node2&#45;&gt;Node1 -->
<g id="edge1" class="edge"><title>Node2&#45;&gt;Node1</title>
<path fill="none" stroke="#9a32cd" stroke-dasharray="5,2" d="M58,-58.6883C58,-45.2526 58,-29.3805 58,-19.7589"/>
<polygon fill="#9a32cd" stroke="#9a32cd" points="54.5001,-58.7751 58,-68.7751 61.5001,-58.7752 54.5001,-58.7751"/>
<text text-anchor="middle" x="93" y="-41.5" font-family="Helvetica,sans-Serif" font-size="10.00"> protobuf_image</text>
</g>
<!-- Node2&#45;&gt;Node2 -->
<g id="edge3" class="edge"><title>Node2&#45;&gt;Node2</title>
<path fill="none" stroke="#9a32cd" stroke-dasharray="5,2" d="M124.115,-89.3275C128.405,-88.0848 131,-86.309 131,-84 131,-80.2109 124.013,-77.8576 114.01,-76.9399"/>
<polygon fill="#9a32cd" stroke="#9a32cd" points="123.275,-85.9204 114.01,-91.0601 124.458,-92.8197 123.275,-85.9204"/>
<text text-anchor="middle" x="171" y="-81.5" font-family="Helvetica,sans-Serif" font-size="10.00"> default_instance_</text>
</g>
<!-- Node3 -->
<g id="node3" class="node"><title>Node3</title>
<polygon fill="none" stroke="#bfbfbf" points="35,-206.5 35,-225.5 91,-225.5 91,-206.5 35,-206.5"/>
<text text-anchor="middle" x="63" y="-213.5" font-family="Helvetica,sans-Serif" font-size="10.00">Message</text>
</g>
<!-- Node3&#45;&gt;Node2 -->
<g id="edge2" class="edge"><title>Node3&#45;&gt;Node2</title>
<path fill="none" stroke="midnightblue" d="M62.1748,-196.254C61.803,-187.647 61.3662,-177.306 61,-168 60.0476,-143.795 59.0532,-115.614 58.4821,-99.0995"/>
<polygon fill="midnightblue" stroke="midnightblue" points="58.6821,-196.5 62.6148,-206.338 65.6754,-196.195 58.6821,-196.5"/>
</g>
<!-- Node4 -->
<g id="node4" class="node"><title>Node4</title>
<g id="a_node4"><a xlink:href="classpb_1_1Header.html" target="_top" xlink:title="pb::Header">
<polygon fill="none" stroke="black" points="70.5,-148.5 70.5,-167.5 135.5,-167.5 135.5,-148.5 70.5,-148.5"/>
<text text-anchor="middle" x="103" y="-155.5" font-family="Helvetica,sans-Serif" font-size="10.00">pb::Header</text>
</a>
</g>
</g>
<!-- Node3&#45;&gt;Node4 -->
<g id="edge5" class="edge"><title>Node3&#45;&gt;Node4</title>
<path fill="none" stroke="midnightblue" d="M75.2697,-197.822C82.4489,-187.772 91.1986,-175.522 96.9249,-167.505"/>
<polygon fill="midnightblue" stroke="midnightblue" points="72.2143,-196.078 69.25,-206.25 77.9105,-200.147 72.2143,-196.078"/>
</g>
<!-- Node4&#45;&gt;Node2 -->
<g id="edge4" class="edge"><title>Node4&#45;&gt;Node2</title>
<path fill="none" stroke="#9a32cd" stroke-dasharray="5,2" d="M92.3365,-139.938C84.5818,-127.531 74.2045,-110.927 66.8948,-99.2316"/>
<polygon fill="#9a32cd" stroke="#9a32cd" points="89.3932,-141.833 97.6612,-148.458 95.3292,-138.123 89.3932,-141.833"/>
<text text-anchor="middle" x="105" y="-121.5" font-family="Helvetica,sans-Serif" font-size="10.00"> header_</text>
</g>
<!-- Node4&#45;&gt;Node4 -->
<g id="edge6" class="edge"><title>Node4&#45;&gt;Node4</title>
<path fill="none" stroke="#9a32cd" stroke-dasharray="5,2" d="M145.791,-162.327C150.189,-161.475 153,-160.033 153,-158 153,-154.664 145.43,-152.918 135.7,-152.762"/>
<polygon fill="#9a32cd" stroke="#9a32cd" points="145.345,-158.853 135.7,-163.238 145.975,-165.825 145.345,-158.853"/>
<text text-anchor="middle" x="193" y="-155.5" font-family="Helvetica,sans-Serif" font-size="10.00"> default_instance_</text>
</g>
</g>
</svg>
