<?xml version="1.0" encoding="UTF-8" standalone="no"?>
<!DOCTYPE svg PUBLIC "-//W3C//DTD SVG 1.1//EN"
 "http://www.w3.org/Graphics/SVG/1.1/DTD/svg11.dtd">
<!-- Generated by graphviz version 2.36.0 (20140111.2315)
 -->
<!-- Title: Detection::ProcessFrame Pages: 1 -->
<svg width="294pt" height="66pt"
 viewBox="0.00 0.00 294.00 66.00" xmlns="http://www.w3.org/2000/svg" xmlns:xlink="http://www.w3.org/1999/xlink">
<g id="graph0" class="graph" transform="scale(1 1) rotate(0) translate(4 62)">
<title>Detection::ProcessFrame</title>
<!-- Node1 -->
<g id="node1" class="node"><title>Node1</title>
<polygon fill="#bfbfbf" stroke="black" points="0,-19.5 0,-38.5 128,-38.5 128,-19.5 0,-19.5"/>
<text text-anchor="middle" x="64" y="-26.5" font-family="Helvetica,sans-Serif" font-size="10.00">Detection::ProcessFrame</text>
</g>
<!-- Node2 -->
<g id="node2" class="node"><title>Node2</title>
<g id="a_node2"><a xlink:href="classPeopleDetector.html#a05fd62a7d7f388de37a4ce6eae6dbc8b" target="_top" xlink:title="PeopleDetector::Detect">
<polygon fill="none" stroke="black" points="165.5,-38.5 165.5,-57.5 284.5,-57.5 284.5,-38.5 165.5,-38.5"/>
<text text-anchor="middle" x="225" y="-45.5" font-family="Helvetica,sans-Serif" font-size="10.00">PeopleDetector::Detect</text>
</a>
</g>
</g>
<!-- Node1&#45;&gt;Node2 -->
<g id="edge1" class="edge"><title>Node1&#45;&gt;Node2</title>
<path fill="none" stroke="midnightblue" d="M128.298,-36.5639C137.17,-37.6241 146.323,-38.7178 155.289,-39.7893"/>
<polygon fill="midnightblue" stroke="midnightblue" points="154.964,-43.2752 165.309,-40.9866 155.795,-36.3247 154.964,-43.2752"/>
</g>
<!-- Node3 -->
<g id="node3" class="node"><title>Node3</title>
<g id="a_node3"><a xlink:href="classVehicleDetector.html#afedf9dcba45289285ef8f377b6439777" target="_top" xlink:title="VehicleDetector::Detect">
<polygon fill="none" stroke="black" points="164,-0.5 164,-19.5 286,-19.5 286,-0.5 164,-0.5"/>
<text text-anchor="middle" x="225" y="-7.5" font-family="Helvetica,sans-Serif" font-size="10.00">VehicleDetector::Detect</text>
</a>
</g>
</g>
<!-- Node1&#45;&gt;Node3 -->
<g id="edge2" class="edge"><title>Node1&#45;&gt;Node3</title>
<path fill="none" stroke="midnightblue" d="M128.298,-21.4361C136.61,-20.4429 145.168,-19.4202 153.589,-18.4139"/>
<polygon fill="midnightblue" stroke="midnightblue" points="154.252,-21.8597 163.766,-17.1978 153.421,-14.9091 154.252,-21.8597"/>
</g>
</g>
</svg>
