<?xml version="1.0" encoding="UTF-8" standalone="no"?>
<!DOCTYPE svg PUBLIC "-//W3C//DTD SVG 1.1//EN"
 "http://www.w3.org/Graphics/SVG/1.1/DTD/svg11.dtd">
<!-- Generated by graphviz version 2.36.0 (20140111.2315)
 -->
<!-- Title: pb::Header::ByteSize Pages: 1 -->
<svg width="292pt" height="115pt"
 viewBox="0.00 0.00 292.00 115.00" xmlns="http://www.w3.org/2000/svg" xmlns:xlink="http://www.w3.org/1999/xlink">
<g id="graph0" class="graph" transform="scale(1 1) rotate(0) translate(4 111)">
<title>pb::Header::ByteSize</title>
<!-- Node1 -->
<g id="node1" class="node"><title>Node1</title>
<polygon fill="#bfbfbf" stroke="black" points="0,-49.5 0,-68.5 110,-68.5 110,-49.5 0,-49.5"/>
<text text-anchor="middle" x="55" y="-56.5" font-family="Helvetica,sans-Serif" font-size="10.00">pb::Header::ByteSize</text>
</g>
<!-- Node2 -->
<g id="node2" class="node"><title>Node2</title>
<g id="a_node2"><a xlink:href="classpb_1_1Header.html#aea2e4fdd310328f847c4a85fb1ad720b" target="_top" xlink:title="pb::Header::has_timestamp">
<polygon fill="none" stroke="black" points="146.5,-87.5 146.5,-106.5 283.5,-106.5 283.5,-87.5 146.5,-87.5"/>
<text text-anchor="middle" x="215" y="-94.5" font-family="Helvetica,sans-Serif" font-size="10.00">pb::Header::has_timestamp</text>
</a>
</g>
</g>
<!-- Node1&#45;&gt;Node2 -->
<g id="edge1" class="edge"><title>Node1&#45;&gt;Node2</title>
<path fill="none" stroke="midnightblue" d="M95.8701,-68.589C116.72,-73.6035 142.435,-79.7881 164.543,-85.1053"/>
<polygon fill="midnightblue" stroke="midnightblue" points="163.875,-88.5445 174.417,-87.4799 165.512,-81.7385 163.875,-88.5445"/>
</g>
<!-- Node3 -->
<g id="node3" class="node"><title>Node3</title>
<g id="a_node3"><a xlink:href="classpb_1_1Header.html#a18cfcab637f48026948d0687663feb0f" target="_top" xlink:title="pb::Header::timestamp">
<polygon fill="none" stroke="black" points="157,-49.5 157,-68.5 273,-68.5 273,-49.5 157,-49.5"/>
<text text-anchor="middle" x="215" y="-56.5" font-family="Helvetica,sans-Serif" font-size="10.00">pb::Header::timestamp</text>
</a>
</g>
</g>
<!-- Node1&#45;&gt;Node3 -->
<g id="edge2" class="edge"><title>Node1&#45;&gt;Node3</title>
<path fill="none" stroke="midnightblue" d="M110.375,-59C122.091,-59 134.61,-59 146.75,-59"/>
<polygon fill="midnightblue" stroke="midnightblue" points="146.833,-62.5001 156.833,-59 146.833,-55.5001 146.833,-62.5001"/>
</g>
<!-- Node4 -->
<g id="node4" class="node"><title>Node4</title>
<g id="a_node4"><a xlink:href="classpb_1_1Header.html#a1f5f46d1fe8eda6701a7426373d819aa" target="_top" xlink:title="pb::Header::unknown\l_fields">
<polygon fill="none" stroke="black" points="160,-0 160,-30 270,-30 270,-0 160,-0"/>
<text text-anchor="start" x="168" y="-18" font-family="Helvetica,sans-Serif" font-size="10.00">pb::Header::unknown</text>
<text text-anchor="middle" x="215" y="-7" font-family="Helvetica,sans-Serif" font-size="10.00">_fields</text>
</a>
</g>
</g>
<!-- Node1&#45;&gt;Node4 -->
<g id="edge3" class="edge"><title>Node1&#45;&gt;Node4</title>
<path fill="none" stroke="midnightblue" d="M90.2836,-49.4527C107.755,-44.5872 129.577,-38.5102 150.008,-32.8204"/>
<polygon fill="midnightblue" stroke="midnightblue" points="151.207,-36.1199 159.902,-30.0654 149.329,-29.3765 151.207,-36.1199"/>
</g>
</g>
</svg>
