<?xml version="1.0" encoding="UTF-8" standalone="no"?>
<!DOCTYPE svg PUBLIC "-//W3C//DTD SVG 1.1//EN"
 "http://www.w3.org/Graphics/SVG/1.1/DTD/svg11.dtd">
<!-- Generated by graphviz version 2.36.0 (20140111.2315)
 -->
<!-- Title: HDFReader::ReadOneProtobufFile Pages: 1 -->
<svg width="550pt" height="121pt"
 viewBox="0.00 0.00 550.00 121.00" xmlns="http://www.w3.org/2000/svg" xmlns:xlink="http://www.w3.org/1999/xlink">
<g id="graph0" class="graph" transform="scale(1 1) rotate(0) translate(4 117)">
<title>HDFReader::ReadOneProtobufFile</title>
<!-- Node1 -->
<g id="node1" class="node"><title>Node1</title>
<polygon fill="#bfbfbf" stroke="black" points="0.5,-27.5 0.5,-46.5 169.5,-46.5 169.5,-27.5 0.5,-27.5"/>
<text text-anchor="middle" x="85" y="-34.5" font-family="Helvetica,sans-Serif" font-size="10.00">HDFReader::ReadOneProtobufFile</text>
</g>
<!-- Node2 -->
<g id="node2" class="node"><title>Node2</title>
<g id="a_node2"><a xlink:href="classFrameSelector.html#a1065c609443efd72a3236cc98f168caa" target="_top" xlink:title="FrameSelector::ReadImage">
<polygon fill="none" stroke="black" points="210.5,-49.5 210.5,-68.5 347.5,-68.5 347.5,-49.5 210.5,-49.5"/>
<text text-anchor="middle" x="279" y="-56.5" font-family="Helvetica,sans-Serif" font-size="10.00">FrameSelector::ReadImage</text>
</a>
</g>
</g>
<!-- Node1&#45;&gt;Node2 -->
<g id="edge1" class="edge"><title>Node1&#45;&gt;Node2</title>
<path fill="none" stroke="midnightblue" d="M179.159,-47.6744C189.685,-48.8806 200.257,-50.0919 210.367,-51.2504"/>
<polygon fill="midnightblue" stroke="midnightblue" points="179.431,-44.1828 169.097,-46.5216 178.634,-51.1373 179.431,-44.1828"/>
</g>
<!-- Node5 -->
<g id="node5" class="node"><title>Node5</title>
<g id="a_node5"><a xlink:href="classHDFReader.html#a5b9e493c8ec8cf001105dd262336e10b" target="_top" xlink:title="HDFReader::ReadAllProtobuf\lFiles">
<polygon fill="none" stroke="black" points="206,-0 206,-30 352,-30 352,-0 206,-0"/>
<text text-anchor="start" x="214" y="-18" font-family="Helvetica,sans-Serif" font-size="10.00">HDFReader::ReadAllProtobuf</text>
<text text-anchor="middle" x="279" y="-7" font-family="Helvetica,sans-Serif" font-size="10.00">Files</text>
</a>
</g>
</g>
<!-- Node1&#45;&gt;Node5 -->
<g id="edge4" class="edge"><title>Node1&#45;&gt;Node5</title>
<path fill="none" stroke="midnightblue" d="M179.204,-26.3203C188.183,-25.2915 197.195,-24.2589 205.925,-23.2586"/>
<polygon fill="midnightblue" stroke="midnightblue" points="178.634,-22.8627 169.097,-27.4784 179.431,-29.8172 178.634,-22.8627"/>
</g>
<!-- Node3 -->
<g id="node3" class="node"><title>Node3</title>
<g id="a_node3"><a xlink:href="classController.html#aee012beb2309ae88b7278fa3dad06d80" target="_top" xlink:title="Controller::PlayHDFAsVideo">
<polygon fill="none" stroke="black" points="394,-93.5 394,-112.5 536,-112.5 536,-93.5 394,-93.5"/>
<text text-anchor="middle" x="465" y="-100.5" font-family="Helvetica,sans-Serif" font-size="10.00">Controller::PlayHDFAsVideo</text>
</a>
</g>
</g>
<!-- Node2&#45;&gt;Node3 -->
<g id="edge2" class="edge"><title>Node2&#45;&gt;Node3</title>
<path fill="none" stroke="midnightblue" d="M329.665,-70.8764C359.305,-77.9642 396.442,-86.8448 424.153,-93.4713"/>
<polygon fill="midnightblue" stroke="midnightblue" points="330.465,-67.4691 319.925,-68.5473 328.837,-74.2772 330.465,-67.4691"/>
</g>
<!-- Node4 -->
<g id="node4" class="node"><title>Node4</title>
<g id="a_node4"><a xlink:href="classController.html#afd6375744f4f31dd254d1e5f1316ff4b" target="_top" xlink:title="Controller::SaveAllImages\lAsJPEG">
<polygon fill="none" stroke="black" points="399.5,-44 399.5,-74 530.5,-74 530.5,-44 399.5,-44"/>
<text text-anchor="start" x="407.5" y="-62" font-family="Helvetica,sans-Serif" font-size="10.00">Controller::SaveAllImages</text>
<text text-anchor="middle" x="465" y="-51" font-family="Helvetica,sans-Serif" font-size="10.00">AsJPEG</text>
</a>
</g>
</g>
<!-- Node2&#45;&gt;Node4 -->
<g id="edge3" class="edge"><title>Node2&#45;&gt;Node4</title>
<path fill="none" stroke="midnightblue" d="M357.754,-59C371.652,-59 385.995,-59 399.472,-59"/>
<polygon fill="midnightblue" stroke="midnightblue" points="357.731,-55.5001 347.731,-59 357.731,-62.5001 357.731,-55.5001"/>
</g>
<!-- Node6 -->
<g id="node6" class="node"><title>Node6</title>
<g id="a_node6"><a xlink:href="classFrameSelector.html#af202012c3f91b5aba8ee74d116b24390" target="_top" xlink:title="FrameSelector::ReadAllImages">
<polygon fill="none" stroke="black" points="388.5,-5.5 388.5,-24.5 541.5,-24.5 541.5,-5.5 388.5,-5.5"/>
<text text-anchor="middle" x="465" y="-12.5" font-family="Helvetica,sans-Serif" font-size="10.00">FrameSelector::ReadAllImages</text>
</a>
</g>
</g>
<!-- Node5&#45;&gt;Node6 -->
<g id="edge5" class="edge"><title>Node5&#45;&gt;Node6</title>
<path fill="none" stroke="midnightblue" d="M362.309,-15C370.987,-15 379.781,-15 388.378,-15"/>
<polygon fill="midnightblue" stroke="midnightblue" points="362.194,-11.5001 352.194,-15 362.194,-18.5001 362.194,-11.5001"/>
</g>
</g>
</svg>
