<?xml version="1.0" encoding="UTF-8" standalone="no"?>
<!DOCTYPE svg PUBLIC "-//W3C//DTD SVG 1.1//EN"
 "http://www.w3.org/Graphics/SVG/1.1/DTD/svg11.dtd">
<!-- Generated by graphviz version 2.36.0 (20140111.2315)
 -->
<!-- Title: org::libcppa::warning::has_id Pages: 1 -->
<svg width="302pt" height="195pt"
 viewBox="0.00 0.00 302.00 195.00" xmlns="http://www.w3.org/2000/svg" xmlns:xlink="http://www.w3.org/1999/xlink">
<g id="graph0" class="graph" transform="scale(1 1) rotate(0) translate(4 191)">
<title>org::libcppa::warning::has_id</title>
<!-- Node1 -->
<g id="node1" class="node"><title>Node1</title>
<polygon fill="#bfbfbf" stroke="black" points="0.5,-76 0.5,-106 107.5,-106 107.5,-76 0.5,-76"/>
<text text-anchor="start" x="8.5" y="-94" font-family="Helvetica,sans-Serif" font-size="10.00">org::libcppa::warning</text>
<text text-anchor="middle" x="54" y="-83" font-family="Helvetica,sans-Serif" font-size="10.00">::has_id</text>
</g>
<!-- Node2 -->
<g id="node2" class="node"><title>Node2</title>
<g id="a_node2"><a xlink:href="classorg_1_1libcppa_1_1warning.html#a6a93d4c7be553c9027e8a07bc0771e7d" target="_top" xlink:title="org::libcppa::warning\l::SerializeWithCachedSizes">
<polygon fill="none" stroke="black" points="149.5,-157 149.5,-187 288.5,-187 288.5,-157 149.5,-157"/>
<text text-anchor="start" x="157.5" y="-175" font-family="Helvetica,sans-Serif" font-size="10.00">org::libcppa::warning</text>
<text text-anchor="middle" x="219" y="-164" font-family="Helvetica,sans-Serif" font-size="10.00">::SerializeWithCachedSizes</text>
</a>
</g>
</g>
<!-- Node1&#45;&gt;Node2 -->
<g id="edge1" class="edge"><title>Node1&#45;&gt;Node2</title>
<path fill="none" stroke="midnightblue" d="M84.1173,-111.778C101.034,-123.213 123.08,-137.056 144,-147 151.593,-150.609 159.849,-153.937 168.001,-156.907"/>
<polygon fill="midnightblue" stroke="midnightblue" points="85.9975,-108.823 75.7718,-106.051 82.0369,-114.595 85.9975,-108.823"/>
</g>
<!-- Node3 -->
<g id="node3" class="node"><title>Node3</title>
<g id="a_node3"><a xlink:href="classorg_1_1libcppa_1_1warning.html#ab611f9e9e4c5c0e249e9a3a34eb850e4" target="_top" xlink:title="org::libcppa::warning\l::SerializeWithCachedSizesTo\lArray">
<polygon fill="none" stroke="black" points="144,-97.5 144,-138.5 294,-138.5 294,-97.5 144,-97.5"/>
<text text-anchor="start" x="152" y="-126.5" font-family="Helvetica,sans-Serif" font-size="10.00">org::libcppa::warning</text>
<text text-anchor="start" x="152" y="-115.5" font-family="Helvetica,sans-Serif" font-size="10.00">::SerializeWithCachedSizesTo</text>
<text text-anchor="middle" x="219" y="-104.5" font-family="Helvetica,sans-Serif" font-size="10.00">Array</text>
</a>
</g>
</g>
<!-- Node1&#45;&gt;Node3 -->
<g id="edge2" class="edge"><title>Node1&#45;&gt;Node3</title>
<path fill="none" stroke="midnightblue" d="M118.026,-101.44C126.445,-102.834 135.14,-104.275 143.728,-105.697"/>
<polygon fill="midnightblue" stroke="midnightblue" points="118.359,-97.9474 107.921,-99.7661 117.215,-104.853 118.359,-97.9474"/>
</g>
<!-- Node4 -->
<g id="node4" class="node"><title>Node4</title>
<g id="a_node4"><a xlink:href="classorg_1_1libcppa_1_1warning.html#aeefe1d8c34d9a23270842b51f09fa393" target="_top" xlink:title="org::libcppa::warning\l::ByteSize">
<polygon fill="none" stroke="black" points="165.5,-49 165.5,-79 272.5,-79 272.5,-49 165.5,-49"/>
<text text-anchor="start" x="173.5" y="-67" font-family="Helvetica,sans-Serif" font-size="10.00">org::libcppa::warning</text>
<text text-anchor="middle" x="219" y="-56" font-family="Helvetica,sans-Serif" font-size="10.00">::ByteSize</text>
</a>
</g>
</g>
<!-- Node1&#45;&gt;Node4 -->
<g id="edge3" class="edge"><title>Node1&#45;&gt;Node4</title>
<path fill="none" stroke="midnightblue" d="M118.033,-80.5589C133.669,-77.9689 150.263,-75.2202 165.344,-72.7221"/>
<polygon fill="midnightblue" stroke="midnightblue" points="117.215,-77.1467 107.921,-82.2339 118.359,-84.0526 117.215,-77.1467"/>
</g>
<!-- Node5 -->
<g id="node5" class="node"><title>Node5</title>
<g id="a_node5"><a xlink:href="classorg_1_1libcppa_1_1warning.html#a6a97a1d89ce4e288261a5c275281090d" target="_top" xlink:title="org::libcppa::warning\l::MergeFrom">
<polygon fill="none" stroke="black" points="165.5,-0 165.5,-30 272.5,-30 272.5,-0 165.5,-0"/>
<text text-anchor="start" x="173.5" y="-18" font-family="Helvetica,sans-Serif" font-size="10.00">org::libcppa::warning</text>
<text text-anchor="middle" x="219" y="-7" font-family="Helvetica,sans-Serif" font-size="10.00">::MergeFrom</text>
</a>
</g>
</g>
<!-- Node1&#45;&gt;Node5 -->
<g id="edge4" class="edge"><title>Node1&#45;&gt;Node5</title>
<path fill="none" stroke="midnightblue" d="M87.2458,-70.4942C103.805,-60.4916 124.544,-48.7602 144,-40 151.914,-36.4368 160.495,-33.0927 168.917,-30.0808"/>
<polygon fill="midnightblue" stroke="midnightblue" points="85.2108,-67.6363 78.5107,-75.8435 88.8665,-73.6058 85.2108,-67.6363"/>
</g>
</g>
</svg>
