<?xml version="1.0" encoding="UTF-8" standalone="no"?>
<!DOCTYPE svg PUBLIC "-//W3C//DTD SVG 1.1//EN"
 "http://www.w3.org/Graphics/SVG/1.1/DTD/svg11.dtd">
<!-- Generated by graphviz version 2.36.0 (20140111.2315)
 -->
<!-- Title: csCommunication::Warning::MergePartialFromCodedStream Pages: 1 -->
<svg width="516pt" height="136pt"
 viewBox="0.00 0.00 516.00 136.00" xmlns="http://www.w3.org/2000/svg" xmlns:xlink="http://www.w3.org/1999/xlink">
<g id="graph0" class="graph" transform="scale(1 1) rotate(0) translate(4 132)">
<title>csCommunication::Warning::MergePartialFromCodedStream</title>
<!-- Node1 -->
<g id="node1" class="node"><title>Node1</title>
<polygon fill="#bfbfbf" stroke="black" points="0,-49 0,-79 160,-79 160,-49 0,-49"/>
<text text-anchor="start" x="8" y="-67" font-family="Helvetica,sans-Serif" font-size="10.00">csCommunication::Warning</text>
<text text-anchor="middle" x="80" y="-56" font-family="Helvetica,sans-Serif" font-size="10.00">::MergePartialFromCodedStream</text>
</g>
<!-- Node2 -->
<g id="node2" class="node"><title>Node2</title>
<g id="a_node2"><a xlink:href="classcsCommunication_1_1Warning.html#a280ef0b0f388bd84c6173db8f5d0b6e4" target="_top" xlink:title="csCommunication::Warning\l::mutable_mess">
<polygon fill="none" stroke="black" points="196.5,-98 196.5,-128 333.5,-128 333.5,-98 196.5,-98"/>
<text text-anchor="start" x="204.5" y="-116" font-family="Helvetica,sans-Serif" font-size="10.00">csCommunication::Warning</text>
<text text-anchor="middle" x="265" y="-105" font-family="Helvetica,sans-Serif" font-size="10.00">::mutable_mess</text>
</a>
</g>
</g>
<!-- Node1&#45;&gt;Node2 -->
<g id="edge1" class="edge"><title>Node1&#45;&gt;Node2</title>
<path fill="none" stroke="midnightblue" d="M137.399,-79.1014C156.535,-84.2253 178.086,-89.9956 197.908,-95.3032"/>
<polygon fill="midnightblue" stroke="midnightblue" points="197.222,-98.7428 207.787,-97.9484 199.033,-91.981 197.222,-98.7428"/>
</g>
<!-- Node4 -->
<g id="node4" class="node"><title>Node4</title>
<g id="a_node4"><a xlink:href="classcsCommunication_1_1Warning.html#ae89197b403010afcc5471ba841397296" target="_top" xlink:title="csCommunication::Warning\l::mess">
<polygon fill="none" stroke="black" points="196.5,-49 196.5,-79 333.5,-79 333.5,-49 196.5,-49"/>
<text text-anchor="start" x="204.5" y="-67" font-family="Helvetica,sans-Serif" font-size="10.00">csCommunication::Warning</text>
<text text-anchor="middle" x="265" y="-56" font-family="Helvetica,sans-Serif" font-size="10.00">::mess</text>
</a>
</g>
</g>
<!-- Node1&#45;&gt;Node4 -->
<g id="edge3" class="edge"><title>Node1&#45;&gt;Node4</title>
<path fill="none" stroke="midnightblue" d="M160.202,-64C168.881,-64 177.71,-64 186.369,-64"/>
<polygon fill="midnightblue" stroke="midnightblue" points="186.437,-67.5001 196.437,-64 186.437,-60.5001 186.437,-67.5001"/>
</g>
<!-- Node5 -->
<g id="node5" class="node"><title>Node5</title>
<g id="a_node5"><a xlink:href="classcsCommunication_1_1Warning.html#a2b51b0429a3808e552b73ceb8d918003" target="_top" xlink:title="csCommunication::Warning\l::mutable_unknown_fields">
<polygon fill="none" stroke="black" points="196.5,-0 196.5,-30 333.5,-30 333.5,-0 196.5,-0"/>
<text text-anchor="start" x="204.5" y="-18" font-family="Helvetica,sans-Serif" font-size="10.00">csCommunication::Warning</text>
<text text-anchor="middle" x="265" y="-7" font-family="Helvetica,sans-Serif" font-size="10.00">::mutable_unknown_fields</text>
</a>
</g>
</g>
<!-- Node1&#45;&gt;Node5 -->
<g id="edge4" class="edge"><title>Node1&#45;&gt;Node5</title>
<path fill="none" stroke="midnightblue" d="M137.399,-48.8986C156.535,-43.7747 178.086,-38.0044 197.908,-32.6968"/>
<polygon fill="midnightblue" stroke="midnightblue" points="199.033,-36.019 207.787,-30.0516 197.222,-29.2572 199.033,-36.019"/>
</g>
<!-- Node3 -->
<g id="node3" class="node"><title>Node3</title>
<g id="a_node3"><a xlink:href="classcsCommunication_1_1Warning.html#a4173fe90c12b34ce5511fec55b400bb0" target="_top" xlink:title="csCommunication::Warning\l::set_has_mess">
<polygon fill="none" stroke="black" points="370.5,-98 370.5,-128 507.5,-128 507.5,-98 370.5,-98"/>
<text text-anchor="start" x="378.5" y="-116" font-family="Helvetica,sans-Serif" font-size="10.00">csCommunication::Warning</text>
<text text-anchor="middle" x="439" y="-105" font-family="Helvetica,sans-Serif" font-size="10.00">::set_has_mess</text>
</a>
</g>
</g>
<!-- Node2&#45;&gt;Node3 -->
<g id="edge2" class="edge"><title>Node2&#45;&gt;Node3</title>
<path fill="none" stroke="midnightblue" d="M333.979,-113C342.55,-113 351.372,-113 360.082,-113"/>
<polygon fill="midnightblue" stroke="midnightblue" points="360.233,-116.5 370.233,-113 360.233,-109.5 360.233,-116.5"/>
</g>
</g>
</svg>
