<?xml version="1.0" encoding="UTF-8" standalone="no"?>
<!DOCTYPE svg PUBLIC "-//W3C//DTD SVG 1.1//EN"
 "http://www.w3.org/Graphics/SVG/1.1/DTD/svg11.dtd">
<!-- Generated by graphviz version 2.36.0 (20140111.2315)
 -->
<!-- Title: org::libcppa::ack::ack Pages: 1 -->
<svg width="250pt" height="87pt"
 viewBox="0.00 0.00 250.00 87.00" xmlns="http://www.w3.org/2000/svg" xmlns:xlink="http://www.w3.org/1999/xlink">
<g id="graph0" class="graph" transform="scale(1 1) rotate(0) translate(4 83)">
<title>org::libcppa::ack::ack</title>
<!-- Node1 -->
<g id="node1" class="node"><title>Node1</title>
<polygon fill="#bfbfbf" stroke="black" points="0,-29.5 0,-48.5 110,-48.5 110,-29.5 0,-29.5"/>
<text text-anchor="middle" x="55" y="-36.5" font-family="Helvetica,sans-Serif" font-size="10.00">org::libcppa::ack::ack</text>
</g>
<!-- Node2 -->
<g id="node2" class="node"><title>Node2</title>
<g id="a_node2"><a xlink:href="classorg_1_1libcppa_1_1ack.html#ae278f467d462634c17cb8e44c28af4c8" target="_top" xlink:title="org::libcppa::ack::\lSharedCtor">
<polygon fill="none" stroke="black" points="146.5,-49 146.5,-79 241.5,-79 241.5,-49 146.5,-49"/>
<text text-anchor="start" x="154.5" y="-67" font-family="Helvetica,sans-Serif" font-size="10.00">org::libcppa::ack::</text>
<text text-anchor="middle" x="194" y="-56" font-family="Helvetica,sans-Serif" font-size="10.00">SharedCtor</text>
</a>
</g>
</g>
<!-- Node1&#45;&gt;Node2 -->
<g id="edge1" class="edge"><title>Node1&#45;&gt;Node2</title>
<path fill="none" stroke="midnightblue" d="M108.185,-48.5227C117.403,-50.2049 127.04,-51.9634 136.373,-53.6666"/>
<polygon fill="midnightblue" stroke="midnightblue" points="135.882,-57.1347 146.348,-55.4868 137.138,-50.2484 135.882,-57.1347"/>
</g>
<!-- Node3 -->
<g id="node3" class="node"><title>Node3</title>
<g id="a_node3"><a xlink:href="classorg_1_1libcppa_1_1ack.html#af72558fdffa369bee8163dab0c72313b" target="_top" xlink:title="org::libcppa::ack::\lMergeFrom">
<polygon fill="none" stroke="black" points="146.5,-0 146.5,-30 241.5,-30 241.5,-0 146.5,-0"/>
<text text-anchor="start" x="154.5" y="-18" font-family="Helvetica,sans-Serif" font-size="10.00">org::libcppa::ack::</text>
<text text-anchor="middle" x="194" y="-7" font-family="Helvetica,sans-Serif" font-size="10.00">MergeFrom</text>
</a>
</g>
</g>
<!-- Node1&#45;&gt;Node3 -->
<g id="edge2" class="edge"><title>Node1&#45;&gt;Node3</title>
<path fill="none" stroke="midnightblue" d="M110.146,-29.5146C118.747,-28.0078 127.664,-26.4456 136.322,-24.929"/>
<polygon fill="midnightblue" stroke="midnightblue" points="137.085,-28.3487 146.331,-23.1755 135.877,-21.4537 137.085,-28.3487"/>
</g>
</g>
</svg>
