<?xml version="1.0" encoding="UTF-8" standalone="no"?>
<!DOCTYPE svg PUBLIC "-//W3C//DTD SVG 1.1//EN"
 "http://www.w3.org/Graphics/SVG/1.1/DTD/svg11.dtd">
<!-- Generated by graphviz version 2.36.0 (20140111.2315)
 -->
<!-- Title: org::libcppa::WarnOrAck::ByteSize Pages: 1 -->
<svg width="314pt" height="224pt"
 viewBox="0.00 0.00 314.00 224.00" xmlns="http://www.w3.org/2000/svg" xmlns:xlink="http://www.w3.org/1999/xlink">
<g id="graph0" class="graph" transform="scale(1 1) rotate(0) translate(4 220)">
<title>org::libcppa::WarnOrAck::ByteSize</title>
<!-- Node1 -->
<g id="node1" class="node"><title>Node1</title>
<polygon fill="#bfbfbf" stroke="black" points="0,-88 0,-118 124,-118 124,-88 0,-88"/>
<text text-anchor="start" x="8" y="-106" font-family="Helvetica,sans-Serif" font-size="10.00">org::libcppa::WarnOrAck</text>
<text text-anchor="middle" x="62" y="-95" font-family="Helvetica,sans-Serif" font-size="10.00">::ByteSize</text>
</g>
<!-- Node2 -->
<g id="node2" class="node"><title>Node2</title>
<g id="a_node2"><a xlink:href="classorg_1_1libcppa_1_1WarnOrAck.html#ac607e8a3448c09e0d96c5930d75c2f73" target="_top" xlink:title="org::libcppa::WarnOrAck\l::has_warn">
<polygon fill="none" stroke="black" points="171,-186 171,-216 295,-216 295,-186 171,-186"/>
<text text-anchor="start" x="179" y="-204" font-family="Helvetica,sans-Serif" font-size="10.00">org::libcppa::WarnOrAck</text>
<text text-anchor="middle" x="233" y="-193" font-family="Helvetica,sans-Serif" font-size="10.00">::has_warn</text>
</a>
</g>
</g>
<!-- Node1&#45;&gt;Node2 -->
<g id="edge1" class="edge"><title>Node1&#45;&gt;Node2</title>
<path fill="none" stroke="midnightblue" d="M79.76,-118.209C98.2668,-134.356 129.497,-159.743 160,-176 163.983,-178.123 168.183,-180.124 172.471,-181.998"/>
<polygon fill="midnightblue" stroke="midnightblue" points="171.37,-185.329 181.95,-185.895 174.032,-178.855 171.37,-185.329"/>
</g>
<!-- Node3 -->
<g id="node3" class="node"><title>Node3</title>
<g id="a_node3"><a xlink:href="classorg_1_1libcppa_1_1WarnOrAck.html#ab669badf2c2a7b504ffde7d37c2b1a9f" target="_top" xlink:title="org::libcppa::WarnOrAck\l::warn">
<polygon fill="none" stroke="black" points="171,-137 171,-167 295,-167 295,-137 171,-137"/>
<text text-anchor="start" x="179" y="-155" font-family="Helvetica,sans-Serif" font-size="10.00">org::libcppa::WarnOrAck</text>
<text text-anchor="middle" x="233" y="-144" font-family="Helvetica,sans-Serif" font-size="10.00">::warn</text>
</a>
</g>
</g>
<!-- Node1&#45;&gt;Node3 -->
<g id="edge2" class="edge"><title>Node1&#45;&gt;Node3</title>
<path fill="none" stroke="midnightblue" d="M115.085,-118.101C132.595,-123.179 152.295,-128.89 170.462,-134.158"/>
<polygon fill="midnightblue" stroke="midnightblue" points="169.508,-137.525 180.087,-136.948 171.458,-130.802 169.508,-137.525"/>
</g>
<!-- Node4 -->
<g id="node4" class="node"><title>Node4</title>
<g id="a_node4"><a xlink:href="classorg_1_1libcppa_1_1WarnOrAck.html#a8eeec6df03e93704ac596a78d269eb3c" target="_top" xlink:title="org::libcppa::WarnOrAck\l::has_ack">
<polygon fill="none" stroke="black" points="171,-88 171,-118 295,-118 295,-88 171,-88"/>
<text text-anchor="start" x="179" y="-106" font-family="Helvetica,sans-Serif" font-size="10.00">org::libcppa::WarnOrAck</text>
<text text-anchor="middle" x="233" y="-95" font-family="Helvetica,sans-Serif" font-size="10.00">::has_ack</text>
</a>
</g>
</g>
<!-- Node1&#45;&gt;Node4 -->
<g id="edge3" class="edge"><title>Node1&#45;&gt;Node4</title>
<path fill="none" stroke="midnightblue" d="M124.013,-103C135.905,-103 148.472,-103 160.663,-103"/>
<polygon fill="midnightblue" stroke="midnightblue" points="160.793,-106.5 170.793,-103 160.793,-99.5001 160.793,-106.5"/>
</g>
<!-- Node5 -->
<g id="node5" class="node"><title>Node5</title>
<g id="a_node5"><a xlink:href="classorg_1_1libcppa_1_1WarnOrAck.html#adb01773cc3a768704172a72677e4641b" target="_top" xlink:title="org::libcppa::WarnOrAck::ack">
<polygon fill="none" stroke="black" points="160,-49.5 160,-68.5 306,-68.5 306,-49.5 160,-49.5"/>
<text text-anchor="middle" x="233" y="-56.5" font-family="Helvetica,sans-Serif" font-size="10.00">org::libcppa::WarnOrAck::ack</text>
</a>
</g>
</g>
<!-- Node1&#45;&gt;Node5 -->
<g id="edge4" class="edge"><title>Node1&#45;&gt;Node5</title>
<path fill="none" stroke="midnightblue" d="M120.688,-87.9808C141.874,-82.4648 165.569,-76.2956 185.634,-71.0716"/>
<polygon fill="midnightblue" stroke="midnightblue" points="186.668,-74.4191 195.464,-68.5124 184.904,-67.645 186.668,-74.4191"/>
</g>
<!-- Node6 -->
<g id="node6" class="node"><title>Node6</title>
<g id="a_node6"><a xlink:href="classorg_1_1libcppa_1_1WarnOrAck.html#a5ff85dc1f8ecb4c1de1ae3094ba96216" target="_top" xlink:title="org::libcppa::WarnOrAck\l::unknown_fields">
<polygon fill="none" stroke="black" points="171,-0 171,-30 295,-30 295,-0 171,-0"/>
<text text-anchor="start" x="179" y="-18" font-family="Helvetica,sans-Serif" font-size="10.00">org::libcppa::WarnOrAck</text>
<text text-anchor="middle" x="233" y="-7" font-family="Helvetica,sans-Serif" font-size="10.00">::unknown_fields</text>
</a>
</g>
</g>
<!-- Node1&#45;&gt;Node6 -->
<g id="edge5" class="edge"><title>Node1&#45;&gt;Node6</title>
<path fill="none" stroke="midnightblue" d="M82.9597,-87.9742C101.998,-74.1516 131.863,-53.7693 160,-40 164.375,-37.8589 168.981,-35.8166 173.661,-33.889"/>
<polygon fill="midnightblue" stroke="midnightblue" points="175.289,-37.0098 183.319,-30.0985 172.732,-30.4937 175.289,-37.0098"/>
</g>
</g>
</svg>
