<?xml version="1.0" encoding="UTF-8" standalone="no"?>
<!DOCTYPE svg PUBLIC "-//W3C//DTD SVG 1.1//EN"
 "http://www.w3.org/Graphics/SVG/1.1/DTD/svg11.dtd">
<!-- Generated by graphviz version 2.36.0 (20140111.2315)
 -->
<!-- Title: FrameSelector::ReadImage Pages: 1 -->
<svg width="352pt" height="263pt"
 viewBox="0.00 0.00 352.00 263.00" xmlns="http://www.w3.org/2000/svg" xmlns:xlink="http://www.w3.org/1999/xlink">
<g id="graph0" class="graph" transform="scale(1 1) rotate(0) translate(4 259)">
<title>FrameSelector::ReadImage</title>
<!-- Node1 -->
<g id="node1" class="node"><title>Node1</title>
<polygon fill="#bfbfbf" stroke="black" points="0.5,-117.5 0.5,-136.5 137.5,-136.5 137.5,-117.5 0.5,-117.5"/>
<text text-anchor="middle" x="69" y="-124.5" font-family="Helvetica,sans-Serif" font-size="10.00">FrameSelector::ReadImage</text>
</g>
<!-- Node2 -->
<g id="node2" class="node"><title>Node2</title>
<g id="a_node2"><a xlink:href="classHDFReader.html#a8be8f7b773c8547b5ace39960541fd33" target="_top" xlink:title="HDFReader::ReadOneProtobufFile">
<polygon fill="none" stroke="black" points="174.5,-235.5 174.5,-254.5 343.5,-254.5 343.5,-235.5 174.5,-235.5"/>
<text text-anchor="middle" x="259" y="-242.5" font-family="Helvetica,sans-Serif" font-size="10.00">HDFReader::ReadOneProtobufFile</text>
</a>
</g>
</g>
<!-- Node1&#45;&gt;Node2 -->
<g id="edge1" class="edge"><title>Node1&#45;&gt;Node2</title>
<path fill="none" stroke="midnightblue" d="M77.1718,-136.519C92.587,-156.271 130.987,-201.796 174,-225 179.156,-227.781 184.695,-230.18 190.38,-232.247"/>
<polygon fill="midnightblue" stroke="midnightblue" points="189.451,-235.626 200.044,-235.423 191.637,-228.976 189.451,-235.626"/>
</g>
<!-- Node3 -->
<g id="node3" class="node"><title>Node3</title>
<g id="a_node3"><a xlink:href="classProtobufImageWrapper.html#aba70c98783a278dd1b62771c244cf3f9" target="_top" xlink:title="ProtobufImageWrapper\l::ParseFromArray">
<polygon fill="none" stroke="black" points="200.5,-186 200.5,-216 317.5,-216 317.5,-186 200.5,-186"/>
<text text-anchor="start" x="208.5" y="-204" font-family="Helvetica,sans-Serif" font-size="10.00">ProtobufImageWrapper</text>
<text text-anchor="middle" x="259" y="-193" font-family="Helvetica,sans-Serif" font-size="10.00">::ParseFromArray</text>
</a>
</g>
</g>
<!-- Node1&#45;&gt;Node3 -->
<g id="edge2" class="edge"><title>Node1&#45;&gt;Node3</title>
<path fill="none" stroke="midnightblue" d="M88.0473,-136.528C108.508,-147.086 143.048,-164.18 174,-176 180.208,-178.371 186.742,-180.66 193.311,-182.827"/>
<polygon fill="midnightblue" stroke="midnightblue" points="192.334,-186.189 202.925,-185.909 194.471,-179.523 192.334,-186.189"/>
</g>
<!-- Node4 -->
<g id="node4" class="node"><title>Node4</title>
<g id="a_node4"><a xlink:href="classProtobufImageWrapper.html#a444790ea96785a92ab17a8be689f9872" target="_top" xlink:title="ProtobufImageWrapper\l::GetImagePayload">
<polygon fill="none" stroke="black" points="200.5,-137 200.5,-167 317.5,-167 317.5,-137 200.5,-137"/>
<text text-anchor="start" x="208.5" y="-155" font-family="Helvetica,sans-Serif" font-size="10.00">ProtobufImageWrapper</text>
<text text-anchor="middle" x="259" y="-144" font-family="Helvetica,sans-Serif" font-size="10.00">::GetImagePayload</text>
</a>
</g>
</g>
<!-- Node1&#45;&gt;Node4 -->
<g id="edge3" class="edge"><title>Node1&#45;&gt;Node4</title>
<path fill="none" stroke="midnightblue" d="M137.607,-135.99C154.766,-138.272 173.203,-140.724 190.364,-143.006"/>
<polygon fill="midnightblue" stroke="midnightblue" points="189.928,-146.479 200.302,-144.327 190.85,-139.54 189.928,-146.479"/>
</g>
<!-- Node5 -->
<g id="node5" class="node"><title>Node5</title>
<g id="a_node5"><a xlink:href="classProtobufImageWrapper.html#aabff426d3c841dad57cbd0f16f5382cd" target="_top" xlink:title="ProtobufImageWrapper\l::GetImageWidth">
<polygon fill="none" stroke="black" points="200.5,-88 200.5,-118 317.5,-118 317.5,-88 200.5,-88"/>
<text text-anchor="start" x="208.5" y="-106" font-family="Helvetica,sans-Serif" font-size="10.00">ProtobufImageWrapper</text>
<text text-anchor="middle" x="259" y="-95" font-family="Helvetica,sans-Serif" font-size="10.00">::GetImageWidth</text>
</a>
</g>
</g>
<!-- Node1&#45;&gt;Node5 -->
<g id="edge4" class="edge"><title>Node1&#45;&gt;Node5</title>
<path fill="none" stroke="midnightblue" d="M137.607,-118.369C154.766,-116.179 173.203,-113.825 190.364,-111.634"/>
<polygon fill="midnightblue" stroke="midnightblue" points="190.825,-115.104 200.302,-110.366 189.939,-108.16 190.825,-115.104"/>
</g>
<!-- Node6 -->
<g id="node6" class="node"><title>Node6</title>
<g id="a_node6"><a xlink:href="classProtobufImageWrapper.html#a7c01e9c1075bc30378996282e17d10a6" target="_top" xlink:title="ProtobufImageWrapper\l::GetImageHeight">
<polygon fill="none" stroke="black" points="200.5,-39 200.5,-69 317.5,-69 317.5,-39 200.5,-39"/>
<text text-anchor="start" x="208.5" y="-57" font-family="Helvetica,sans-Serif" font-size="10.00">ProtobufImageWrapper</text>
<text text-anchor="middle" x="259" y="-46" font-family="Helvetica,sans-Serif" font-size="10.00">::GetImageHeight</text>
</a>
</g>
</g>
<!-- Node1&#45;&gt;Node6 -->
<g id="edge5" class="edge"><title>Node1&#45;&gt;Node6</title>
<path fill="none" stroke="midnightblue" d="M88.8188,-117.319C109.387,-106.975 143.487,-90.5143 174,-79 180.313,-76.6179 186.959,-74.3109 193.633,-72.1245"/>
<polygon fill="midnightblue" stroke="midnightblue" points="194.932,-75.384 203.397,-69.0127 192.807,-68.7145 194.932,-75.384"/>
</g>
<!-- Node7 -->
<g id="node7" class="node"><title>Node7</title>
<g id="a_node7"><a xlink:href="classImage.html#adc25a467233718f37ae881cdebffa5c2" target="_top" xlink:title="Image::GetImageWidth">
<polygon fill="none" stroke="black" points="200,-0.5 200,-19.5 318,-19.5 318,-0.5 200,-0.5"/>
<text text-anchor="middle" x="259" y="-7.5" font-family="Helvetica,sans-Serif" font-size="10.00">Image::GetImageWidth</text>
</a>
</g>
</g>
<!-- Node1&#45;&gt;Node7 -->
<g id="edge6" class="edge"><title>Node1&#45;&gt;Node7</title>
<path fill="none" stroke="midnightblue" d="M77.4324,-117.281C93.0455,-97.5786 131.351,-52.8671 174,-30 179.163,-27.2318 184.707,-24.8427 190.395,-22.7814"/>
<polygon fill="midnightblue" stroke="midnightblue" points="191.651,-26.0533 200.063,-19.613 189.471,-19.4014 191.651,-26.0533"/>
</g>
</g>
</svg>
