<?xml version="1.0" encoding="UTF-8" standalone="no"?>
<!DOCTYPE svg PUBLIC "-//W3C//DTD SVG 1.1//EN"
 "http://www.w3.org/Graphics/SVG/1.1/DTD/svg11.dtd">
<!-- Generated by graphviz version 2.36.0 (20140111.2315)
 -->
<!-- Title: pb::Header::SharedCtor Pages: 1 -->
<svg width="394pt" height="28pt"
 viewBox="0.00 0.00 394.00 28.00" xmlns="http://www.w3.org/2000/svg" xmlns:xlink="http://www.w3.org/1999/xlink">
<g id="graph0" class="graph" transform="scale(1 1) rotate(0) translate(4 24)">
<title>pb::Header::SharedCtor</title>
<!-- Node1 -->
<g id="node1" class="node"><title>Node1</title>
<polygon fill="#bfbfbf" stroke="black" points="0,-0.5 0,-19.5 120,-19.5 120,-0.5 0,-0.5"/>
<text text-anchor="middle" x="60" y="-7.5" font-family="Helvetica,sans-Serif" font-size="10.00">pb::Header::SharedCtor</text>
</g>
<!-- Node2 -->
<g id="node2" class="node"><title>Node2</title>
<g id="a_node2"><a xlink:href="classpb_1_1Header.html#a92c6c1fc9b1635d2b28e0e7f4beea6fb" target="_top" xlink:title="pb::Header::Header">
<polygon fill="none" stroke="black" points="156,-0.5 156,-19.5 258,-19.5 258,-0.5 156,-0.5"/>
<text text-anchor="middle" x="207" y="-7.5" font-family="Helvetica,sans-Serif" font-size="10.00">pb::Header::Header</text>
</a>
</g>
</g>
<!-- Node1&#45;&gt;Node2 -->
<g id="edge1" class="edge"><title>Node1&#45;&gt;Node2</title>
<path fill="none" stroke="midnightblue" d="M130.657,-10C139.115,-10 147.626,-10 155.726,-10"/>
<polygon fill="midnightblue" stroke="midnightblue" points="130.395,-6.5001 120.395,-10 130.395,-13.5001 130.395,-6.5001"/>
</g>
<!-- Node3 -->
<g id="node3" class="node"><title>Node3</title>
<g id="a_node3"><a xlink:href="classpb_1_1Header.html#acd308dbc30036ddfa76c0f30368a60b2" target="_top" xlink:title="pb::Header::New">
<polygon fill="none" stroke="black" points="294.5,-0.5 294.5,-19.5 385.5,-19.5 385.5,-0.5 294.5,-0.5"/>
<text text-anchor="middle" x="340" y="-7.5" font-family="Helvetica,sans-Serif" font-size="10.00">pb::Header::New</text>
</a>
</g>
</g>
<!-- Node2&#45;&gt;Node3 -->
<g id="edge2" class="edge"><title>Node2&#45;&gt;Node3</title>
<path fill="none" stroke="midnightblue" d="M268.387,-10C277.081,-10 285.897,-10 294.215,-10"/>
<polygon fill="midnightblue" stroke="midnightblue" points="268.273,-6.5001 258.273,-10 268.273,-13.5001 268.273,-6.5001"/>
</g>
</g>
</svg>
