<?xml version="1.0" encoding="UTF-8" standalone="no"?>
<!DOCTYPE svg PUBLIC "-//W3C//DTD SVG 1.1//EN"
 "http://www.w3.org/Graphics/SVG/1.1/DTD/svg11.dtd">
<!-- Generated by graphviz version 2.36.0 (20140111.2315)
 -->
<!-- Title: pb::Header::default_instance Pages: 1 -->
<svg width="664pt" height="121pt"
 viewBox="0.00 0.00 664.00 121.00" xmlns="http://www.w3.org/2000/svg" xmlns:xlink="http://www.w3.org/1999/xlink">
<g id="graph0" class="graph" transform="scale(1 1) rotate(0) translate(4 117)">
<title>pb::Header::default_instance</title>
<!-- Node1 -->
<g id="node1" class="node"><title>Node1</title>
<polygon fill="#bfbfbf" stroke="black" points="0,-44 0,-74 100,-74 100,-44 0,-44"/>
<text text-anchor="start" x="8" y="-62" font-family="Helvetica,sans-Serif" font-size="10.00">pb::Header::default</text>
<text text-anchor="middle" x="50" y="-51" font-family="Helvetica,sans-Serif" font-size="10.00">_instance</text>
</g>
<!-- Node2 -->
<g id="node2" class="node"><title>Node2</title>
<g id="a_node2"><a xlink:href="classpb_1_1SensorNearData_1_1MFC_1_1CameraImage.html#a211a190e1a7e85d915eb1a261ff62c4c" target="_top" xlink:title="pb::SensorNearData\l::MFC::CameraImage::\lInitAsDefaultInstance">
<polygon fill="none" stroke="black" points="136,-38.5 136,-79.5 254,-79.5 254,-38.5 136,-38.5"/>
<text text-anchor="start" x="144" y="-67.5" font-family="Helvetica,sans-Serif" font-size="10.00">pb::SensorNearData</text>
<text text-anchor="start" x="144" y="-56.5" font-family="Helvetica,sans-Serif" font-size="10.00">::MFC::CameraImage::</text>
<text text-anchor="middle" x="195" y="-45.5" font-family="Helvetica,sans-Serif" font-size="10.00">InitAsDefaultInstance</text>
</a>
</g>
</g>
<!-- Node1&#45;&gt;Node2 -->
<g id="edge1" class="edge"><title>Node1&#45;&gt;Node2</title>
<path fill="none" stroke="midnightblue" d="M110.342,-59C118.767,-59 127.424,-59 135.827,-59"/>
<polygon fill="midnightblue" stroke="midnightblue" points="110.213,-55.5001 100.212,-59 110.212,-62.5001 110.213,-55.5001"/>
</g>
<!-- Node3 -->
<g id="node3" class="node"><title>Node3</title>
<g id="a_node3"><a xlink:href="namespacepb_1_1SensorNearData_1_1MFC.html#a57fa0c67da79e52e28b518b9561517b6" target="_top" xlink:title="pb::SensorNearData\l::MFC::protobuf_AddDesc\l_CameraImage_2eproto">
<polygon fill="none" stroke="black" points="290.5,-38.5 290.5,-79.5 421.5,-79.5 421.5,-38.5 290.5,-38.5"/>
<text text-anchor="start" x="298.5" y="-67.5" font-family="Helvetica,sans-Serif" font-size="10.00">pb::SensorNearData</text>
<text text-anchor="start" x="298.5" y="-56.5" font-family="Helvetica,sans-Serif" font-size="10.00">::MFC::protobuf_AddDesc</text>
<text text-anchor="middle" x="356" y="-45.5" font-family="Helvetica,sans-Serif" font-size="10.00">_CameraImage_2eproto</text>
</a>
</g>
</g>
<!-- Node2&#45;&gt;Node3 -->
<g id="edge2" class="edge"><title>Node2&#45;&gt;Node3</title>
<path fill="none" stroke="midnightblue" d="M264.306,-59C272.918,-59 281.709,-59 290.264,-59"/>
<polygon fill="midnightblue" stroke="midnightblue" points="264.303,-55.5001 254.303,-59 264.303,-62.5001 264.303,-55.5001"/>
</g>
<!-- Node4 -->
<g id="node4" class="node"><title>Node4</title>
<g id="a_node4"><a xlink:href="namespacepb_1_1SensorNearData_1_1MFC.html#ae925b28b351037f0ba789dd765a846d4" target="_top" xlink:title="pb::SensorNearData\l::MFC::protobuf_AssignDesc\l_CameraImage_2eproto">
<polygon fill="none" stroke="black" points="485,-71.5 485,-112.5 629,-112.5 629,-71.5 485,-71.5"/>
<text text-anchor="start" x="493" y="-100.5" font-family="Helvetica,sans-Serif" font-size="10.00">pb::SensorNearData</text>
<text text-anchor="start" x="493" y="-89.5" font-family="Helvetica,sans-Serif" font-size="10.00">::MFC::protobuf_AssignDesc</text>
<text text-anchor="middle" x="557" y="-78.5" font-family="Helvetica,sans-Serif" font-size="10.00">_CameraImage_2eproto</text>
</a>
</g>
</g>
<!-- Node3&#45;&gt;Node4 -->
<g id="edge3" class="edge"><title>Node3&#45;&gt;Node4</title>
<path fill="none" stroke="midnightblue" d="M431.712,-71.3895C449.112,-74.2749 467.593,-77.3395 484.835,-80.1987"/>
<polygon fill="midnightblue" stroke="midnightblue" points="432.047,-67.8973 421.61,-69.7142 430.902,-74.803 432.047,-67.8973"/>
</g>
<!-- Node5 -->
<g id="node5" class="node"><title>Node5</title>
<g id="a_node5"><a xlink:href="structpb_1_1SensorNearData_1_1MFC_1_1StaticDescriptorInitializer__CameraImage__2eproto.html#a238f1b392446f07c4b6294dc4a957a15" target="_top" xlink:title="pb::SensorNearData\l::MFC::StaticDescriptorInitializer\l_CameraImage_2eproto::StaticDescriptor\lInitializer_CameraImage_2eproto">
<polygon fill="none" stroke="black" points="458.5,-0 458.5,-52 655.5,-52 655.5,-0 458.5,-0"/>
<text text-anchor="start" x="466.5" y="-40" font-family="Helvetica,sans-Serif" font-size="10.00">pb::SensorNearData</text>
<text text-anchor="start" x="466.5" y="-29" font-family="Helvetica,sans-Serif" font-size="10.00">::MFC::StaticDescriptorInitializer</text>
<text text-anchor="start" x="466.5" y="-18" font-family="Helvetica,sans-Serif" font-size="10.00">_CameraImage_2eproto::StaticDescriptor</text>
<text text-anchor="middle" x="557" y="-7" font-family="Helvetica,sans-Serif" font-size="10.00">Initializer_CameraImage_2eproto</text>
</a>
</g>
</g>
<!-- Node3&#45;&gt;Node5 -->
<g id="edge4" class="edge"><title>Node3&#45;&gt;Node5</title>
<path fill="none" stroke="midnightblue" d="M431.729,-46.6078C440.47,-45.1582 449.484,-43.6634 458.477,-42.1722"/>
<polygon fill="midnightblue" stroke="midnightblue" points="430.902,-43.197 421.61,-48.2858 432.047,-50.1027 430.902,-43.197"/>
</g>
</g>
</svg>
