<?xml version="1.0" encoding="UTF-8" standalone="no"?>
<!DOCTYPE svg PUBLIC "-//W3C//DTD SVG 1.1//EN"
 "http://www.w3.org/Graphics/SVG/1.1/DTD/svg11.dtd">
<!-- Generated by graphviz version 2.36.0 (20140111.2315)
 -->
<!-- Title: Scenario::CenterDistance Pages: 1 -->
<svg width="286pt" height="66pt"
 viewBox="0.00 0.00 286.00 66.00" xmlns="http://www.w3.org/2000/svg" xmlns:xlink="http://www.w3.org/1999/xlink">
<g id="graph0" class="graph" transform="scale(1 1) rotate(0) translate(4 62)">
<title>Scenario::CenterDistance</title>
<!-- Node1 -->
<g id="node1" class="node"><title>Node1</title>
<polygon fill="#bfbfbf" stroke="black" points="0.5,-19.5 0.5,-38.5 129.5,-38.5 129.5,-19.5 0.5,-19.5"/>
<text text-anchor="middle" x="65" y="-26.5" font-family="Helvetica,sans-Serif" font-size="10.00">Scenario::CenterDistance</text>
</g>
<!-- Node2 -->
<g id="node2" class="node"><title>Node2</title>
<g id="a_node2"><a xlink:href="classElement.html#ad336322888d50e9fd23ea05cadb5be46" target="_top" xlink:title="Element::GetBoxSize">
<polygon fill="none" stroke="black" points="166.5,-38.5 166.5,-57.5 277.5,-57.5 277.5,-38.5 166.5,-38.5"/>
<text text-anchor="middle" x="222" y="-45.5" font-family="Helvetica,sans-Serif" font-size="10.00">Element::GetBoxSize</text>
</a>
</g>
</g>
<!-- Node1&#45;&gt;Node2 -->
<g id="edge1" class="edge"><title>Node1&#45;&gt;Node2</title>
<path fill="none" stroke="midnightblue" d="M129.939,-36.8377C138.57,-37.8957 147.433,-38.9821 156.081,-40.0422"/>
<polygon fill="midnightblue" stroke="midnightblue" points="155.756,-43.5284 166.107,-41.2712 156.608,-36.5804 155.756,-43.5284"/>
</g>
<!-- Node3 -->
<g id="node3" class="node"><title>Node3</title>
<g id="a_node3"><a xlink:href="classElement.html#a7f88fb876554262930c712a85eda5439" target="_top" xlink:title="Element::GetPosition">
<polygon fill="none" stroke="black" points="167,-0.5 167,-19.5 277,-19.5 277,-0.5 167,-0.5"/>
<text text-anchor="middle" x="222" y="-7.5" font-family="Helvetica,sans-Serif" font-size="10.00">Element::GetPosition</text>
</a>
</g>
</g>
<!-- Node1&#45;&gt;Node3 -->
<g id="edge2" class="edge"><title>Node1&#45;&gt;Node3</title>
<path fill="none" stroke="midnightblue" d="M129.939,-21.1623C138.69,-20.0896 147.679,-18.9877 156.441,-17.9137"/>
<polygon fill="midnightblue" stroke="midnightblue" points="157.095,-21.3598 166.595,-16.6691 156.243,-14.4118 157.095,-21.3598"/>
</g>
</g>
</svg>
