<?xml version="1.0" encoding="UTF-8" standalone="no"?>
<!DOCTYPE svg PUBLIC "-//W3C//DTD SVG 1.1//EN"
 "http://www.w3.org/Graphics/SVG/1.1/DTD/svg11.dtd">
<!-- Generated by graphviz version 2.36.0 (20140111.2315)
 -->
<!-- Title: org::libcppa::ack::set_has_id Pages: 1 -->
<svg width="426pt" height="87pt"
 viewBox="0.00 0.00 426.00 87.00" xmlns="http://www.w3.org/2000/svg" xmlns:xlink="http://www.w3.org/1999/xlink">
<g id="graph0" class="graph" transform="scale(1 1) rotate(0) translate(4 83)">
<title>org::libcppa::ack::set_has_id</title>
<!-- Node1 -->
<g id="node1" class="node"><title>Node1</title>
<polygon fill="#bfbfbf" stroke="black" points="0.5,-24 0.5,-54 95.5,-54 95.5,-24 0.5,-24"/>
<text text-anchor="start" x="8.5" y="-42" font-family="Helvetica,sans-Serif" font-size="10.00">org::libcppa::ack::</text>
<text text-anchor="middle" x="48" y="-31" font-family="Helvetica,sans-Serif" font-size="10.00">set_has_id</text>
</g>
<!-- Node2 -->
<g id="node2" class="node"><title>Node2</title>
<g id="a_node2"><a xlink:href="classorg_1_1libcppa_1_1ack.html#a7e2c28c7076b69335cda2bd8341520c9" target="_top" xlink:title="org::libcppa::ack::\lMergePartialFromCodedStream">
<polygon fill="none" stroke="black" points="132,-49 132,-79 286,-79 286,-49 132,-49"/>
<text text-anchor="start" x="140" y="-67" font-family="Helvetica,sans-Serif" font-size="10.00">org::libcppa::ack::</text>
<text text-anchor="middle" x="209" y="-56" font-family="Helvetica,sans-Serif" font-size="10.00">MergePartialFromCodedStream</text>
</a>
</g>
</g>
<!-- Node1&#45;&gt;Node2 -->
<g id="edge1" class="edge"><title>Node1&#45;&gt;Node2</title>
<path fill="none" stroke="midnightblue" d="M105.937,-47.9523C114.384,-49.2805 123.202,-50.667 131.964,-52.0446"/>
<polygon fill="midnightblue" stroke="midnightblue" points="106.268,-44.4614 95.8453,-46.3656 105.18,-51.3765 106.268,-44.4614"/>
</g>
<!-- Node3 -->
<g id="node3" class="node"><title>Node3</title>
<g id="a_node3"><a xlink:href="classorg_1_1libcppa_1_1ack.html#ac7becb813f0b31dce74a9617dfdbd93e" target="_top" xlink:title="org::libcppa::ack::\lset_id">
<polygon fill="none" stroke="black" points="161.5,-0 161.5,-30 256.5,-30 256.5,-0 161.5,-0"/>
<text text-anchor="start" x="169.5" y="-18" font-family="Helvetica,sans-Serif" font-size="10.00">org::libcppa::ack::</text>
<text text-anchor="middle" x="209" y="-7" font-family="Helvetica,sans-Serif" font-size="10.00">set_id</text>
</a>
</g>
</g>
<!-- Node1&#45;&gt;Node3 -->
<g id="edge2" class="edge"><title>Node1&#45;&gt;Node3</title>
<path fill="none" stroke="midnightblue" d="M105.784,-30.4288C124.046,-27.6722 144.055,-24.6521 161.49,-22.0204"/>
<polygon fill="midnightblue" stroke="midnightblue" points="105.211,-26.9756 95.8453,-31.929 106.256,-33.8972 105.211,-26.9756"/>
</g>
<!-- Node4 -->
<g id="node4" class="node"><title>Node4</title>
<g id="a_node4"><a xlink:href="classorg_1_1libcppa_1_1ack.html#a17e5c7e26869657c335ff6f79be21abb" target="_top" xlink:title="org::libcppa::ack::\lMergeFrom">
<polygon fill="none" stroke="black" points="322.5,-0 322.5,-30 417.5,-30 417.5,-0 322.5,-0"/>
<text text-anchor="start" x="330.5" y="-18" font-family="Helvetica,sans-Serif" font-size="10.00">org::libcppa::ack::</text>
<text text-anchor="middle" x="370" y="-7" font-family="Helvetica,sans-Serif" font-size="10.00">MergeFrom</text>
</a>
</g>
</g>
<!-- Node3&#45;&gt;Node4 -->
<g id="edge3" class="edge"><title>Node3&#45;&gt;Node4</title>
<path fill="none" stroke="midnightblue" d="M267.038,-15C285.232,-15 305.135,-15 322.49,-15"/>
<polygon fill="midnightblue" stroke="midnightblue" points="266.845,-11.5001 256.845,-15 266.845,-18.5001 266.845,-11.5001"/>
</g>
</g>
</svg>
