<?xml version="1.0" encoding="UTF-8" standalone="no"?>
<!DOCTYPE svg PUBLIC "-//W3C//DTD SVG 1.1//EN"
 "http://www.w3.org/Graphics/SVG/1.1/DTD/svg11.dtd">
<!-- Generated by graphviz version 2.36.0 (20140111.2315)
 -->
<!-- Title: Controller::PlayHDFAsVideo Pages: 1 -->
<svg width="716pt" height="352pt"
 viewBox="0.00 0.00 716.00 352.00" xmlns="http://www.w3.org/2000/svg" xmlns:xlink="http://www.w3.org/1999/xlink">
<g id="graph0" class="graph" transform="scale(1 1) rotate(0) translate(4 348)">
<title>Controller::PlayHDFAsVideo</title>
<!-- Node1 -->
<g id="node1" class="node"><title>Node1</title>
<polygon fill="#bfbfbf" stroke="black" points="0,-274.5 0,-293.5 142,-293.5 142,-274.5 0,-274.5"/>
<text text-anchor="middle" x="71" y="-281.5" font-family="Helvetica,sans-Serif" font-size="10.00">Controller::PlayHDFAsVideo</text>
</g>
<!-- Node2 -->
<g id="node2" class="node"><title>Node2</title>
<g id="a_node2"><a xlink:href="classFrameSelector.html#a24b62c5e5e66b40cfc72cda4c8409212" target="_top" xlink:title="FrameSelector::GetImageCount">
<polygon fill="none" stroke="black" points="178.5,-315.5 178.5,-334.5 333.5,-334.5 333.5,-315.5 178.5,-315.5"/>
<text text-anchor="middle" x="256" y="-322.5" font-family="Helvetica,sans-Serif" font-size="10.00">FrameSelector::GetImageCount</text>
</a>
</g>
</g>
<!-- Node1&#45;&gt;Node2 -->
<g id="edge1" class="edge"><title>Node1&#45;&gt;Node2</title>
<path fill="none" stroke="midnightblue" d="M114.444,-293.509C140.68,-299.387 174.557,-306.977 202.478,-313.233"/>
<polygon fill="midnightblue" stroke="midnightblue" points="201.946,-316.7 212.47,-315.471 203.477,-309.87 201.946,-316.7"/>
</g>
<!-- Node4 -->
<g id="node4" class="node"><title>Node4</title>
<g id="a_node4"><a xlink:href="classImageView.html#a837a13b1002126beb39dc9425151123c" target="_top" xlink:title="ImageView::ShowImage">
<polygon fill="none" stroke="black" points="194.5,-274.5 194.5,-293.5 317.5,-293.5 317.5,-274.5 194.5,-274.5"/>
<text text-anchor="middle" x="256" y="-281.5" font-family="Helvetica,sans-Serif" font-size="10.00">ImageView::ShowImage</text>
</a>
</g>
</g>
<!-- Node1&#45;&gt;Node4 -->
<g id="edge3" class="edge"><title>Node1&#45;&gt;Node4</title>
<path fill="none" stroke="midnightblue" d="M142.229,-284C155.884,-284 170.207,-284 183.89,-284"/>
<polygon fill="midnightblue" stroke="midnightblue" points="184.207,-287.5 194.207,-284 184.207,-280.5 184.207,-287.5"/>
</g>
<!-- Node9 -->
<g id="node9" class="node"><title>Node9</title>
<g id="a_node9"><a xlink:href="classFrameSelector.html#a1065c609443efd72a3236cc98f168caa" target="_top" xlink:title="FrameSelector::ReadImage">
<polygon fill="none" stroke="black" points="187.5,-142.5 187.5,-161.5 324.5,-161.5 324.5,-142.5 187.5,-142.5"/>
<text text-anchor="middle" x="256" y="-149.5" font-family="Helvetica,sans-Serif" font-size="10.00">FrameSelector::ReadImage</text>
</a>
</g>
</g>
<!-- Node1&#45;&gt;Node9 -->
<g id="edge8" class="edge"><title>Node1&#45;&gt;Node9</title>
<path fill="none" stroke="midnightblue" d="M85.4564,-274.294C116.787,-251.695 194.845,-195.391 233.128,-167.777"/>
<polygon fill="midnightblue" stroke="midnightblue" points="235.461,-170.409 241.524,-161.721 231.366,-164.732 235.461,-170.409"/>
</g>
<!-- Node3 -->
<g id="node3" class="node"><title>Node3</title>
<g id="a_node3"><a xlink:href="classHDFReader.html#a679c61f47dbc9077c1628aae6688f40d" target="_top" xlink:title="HDFReader::GetNumberOfProtobuf\lFiles">
<polygon fill="none" stroke="black" points="370.5,-313 370.5,-343 543.5,-343 543.5,-313 370.5,-313"/>
<text text-anchor="start" x="378.5" y="-331" font-family="Helvetica,sans-Serif" font-size="10.00">HDFReader::GetNumberOfProtobuf</text>
<text text-anchor="middle" x="457" y="-320" font-family="Helvetica,sans-Serif" font-size="10.00">Files</text>
</a>
</g>
</g>
<!-- Node2&#45;&gt;Node3 -->
<g id="edge2" class="edge"><title>Node2&#45;&gt;Node3</title>
<path fill="none" stroke="midnightblue" d="M333.654,-326.156C342.405,-326.288 351.405,-326.423 360.363,-326.558"/>
<polygon fill="midnightblue" stroke="midnightblue" points="360.392,-330.059 370.443,-326.71 360.497,-323.06 360.392,-330.059"/>
</g>
<!-- Node5 -->
<g id="node5" class="node"><title>Node5</title>
<g id="a_node5"><a xlink:href="classImage.html#a7377f0e785df116fbdb53651006fcb67" target="_top" xlink:title="Image::GetRGBImage">
<polygon fill="none" stroke="black" points="400,-274.5 400,-293.5 514,-293.5 514,-274.5 400,-274.5"/>
<text text-anchor="middle" x="457" y="-281.5" font-family="Helvetica,sans-Serif" font-size="10.00">Image::GetRGBImage</text>
</a>
</g>
</g>
<!-- Node4&#45;&gt;Node5 -->
<g id="edge4" class="edge"><title>Node4&#45;&gt;Node5</title>
<path fill="none" stroke="midnightblue" d="M317.517,-284C340.328,-284 366.385,-284 389.696,-284"/>
<polygon fill="midnightblue" stroke="midnightblue" points="389.846,-287.5 399.846,-284 389.846,-280.5 389.846,-287.5"/>
</g>
<!-- Node6 -->
<g id="node6" class="node"><title>Node6</title>
<g id="a_node6"><a xlink:href="classImage.html#adc25a467233718f37ae881cdebffa5c2" target="_top" xlink:title="Image::GetImageWidth">
<polygon fill="none" stroke="black" points="585,-211.5 585,-230.5 703,-230.5 703,-211.5 585,-211.5"/>
<text text-anchor="middle" x="644" y="-218.5" font-family="Helvetica,sans-Serif" font-size="10.00">Image::GetImageWidth</text>
</a>
</g>
</g>
<!-- Node5&#45;&gt;Node6 -->
<g id="edge5" class="edge"><title>Node5&#45;&gt;Node6</title>
<path fill="none" stroke="midnightblue" d="M508.148,-274.429C520.057,-271.585 532.608,-268.108 544,-264 560.828,-257.932 563.671,-253.306 580,-246 588.913,-242.012 598.668,-237.982 607.782,-234.357"/>
<polygon fill="midnightblue" stroke="midnightblue" points="609.319,-237.514 617.35,-230.604 606.762,-230.998 609.319,-237.514"/>
</g>
<!-- Node7 -->
<g id="node7" class="node"><title>Node7</title>
<g id="a_node7"><a xlink:href="classImage.html#a141671a32d6e069211abd2211f0d8849" target="_top" xlink:title="Image::GetImageHeight">
<polygon fill="none" stroke="black" points="583.5,-255.5 583.5,-274.5 704.5,-274.5 704.5,-255.5 583.5,-255.5"/>
<text text-anchor="middle" x="644" y="-262.5" font-family="Helvetica,sans-Serif" font-size="10.00">Image::GetImageHeight</text>
</a>
</g>
</g>
<!-- Node5&#45;&gt;Node7 -->
<g id="edge6" class="edge"><title>Node5&#45;&gt;Node7</title>
<path fill="none" stroke="midnightblue" d="M514.008,-278.248C532.664,-276.332 553.678,-274.174 573.245,-272.164"/>
<polygon fill="midnightblue" stroke="midnightblue" points="573.735,-275.632 583.325,-271.129 573.02,-268.669 573.735,-275.632"/>
</g>
<!-- Node8 -->
<g id="node8" class="node"><title>Node8</title>
<g id="a_node8"><a xlink:href="classImage.html#ad3f43e3ace90b4893eed677deb6a2631" target="_top" xlink:title="Image::GetImagePayload">
<polygon fill="none" stroke="black" points="580,-293.5 580,-312.5 708,-312.5 708,-293.5 580,-293.5"/>
<text text-anchor="middle" x="644" y="-300.5" font-family="Helvetica,sans-Serif" font-size="10.00">Image::GetImagePayload</text>
</a>
</g>
</g>
<!-- Node5&#45;&gt;Node8 -->
<g id="edge7" class="edge"><title>Node5&#45;&gt;Node8</title>
<path fill="none" stroke="midnightblue" d="M514.008,-289.752C531.506,-291.549 551.078,-293.559 569.585,-295.46"/>
<polygon fill="midnightblue" stroke="midnightblue" points="569.432,-298.963 579.737,-296.503 570.147,-291.999 569.432,-298.963"/>
</g>
<!-- Node9&#45;&gt;Node6 -->
<g id="edge14" class="edge"><title>Node9&#45;&gt;Node6</title>
<path fill="none" stroke="midnightblue" d="M299.566,-161.523C320.7,-166.128 346.645,-171.597 370,-176 439.546,-189.11 519.463,-202.035 574.781,-210.645"/>
<polygon fill="midnightblue" stroke="midnightblue" points="574.397,-214.127 584.815,-212.202 575.47,-207.21 574.397,-214.127"/>
</g>
<!-- Node10 -->
<g id="node10" class="node"><title>Node10</title>
<g id="a_node10"><a xlink:href="classHDFReader.html#a8be8f7b773c8547b5ace39960541fd33" target="_top" xlink:title="HDFReader::ReadOneProtobufFile">
<polygon fill="none" stroke="black" points="372.5,-98.5 372.5,-117.5 541.5,-117.5 541.5,-98.5 372.5,-98.5"/>
<text text-anchor="middle" x="457" y="-105.5" font-family="Helvetica,sans-Serif" font-size="10.00">HDFReader::ReadOneProtobufFile</text>
</a>
</g>
</g>
<!-- Node9&#45;&gt;Node10 -->
<g id="edge9" class="edge"><title>Node9&#45;&gt;Node10</title>
<path fill="none" stroke="midnightblue" d="M299.926,-142.5C321.033,-137.83 346.85,-132.118 370,-127 380.631,-124.65 392.001,-122.137 402.877,-119.734"/>
<polygon fill="midnightblue" stroke="midnightblue" points="403.681,-123.141 412.69,-117.566 402.171,-116.306 403.681,-123.141"/>
</g>
<!-- Node11 -->
<g id="node11" class="node"><title>Node11</title>
<g id="a_node11"><a xlink:href="classProtobufImageWrapper.html#aba70c98783a278dd1b62771c244cf3f9" target="_top" xlink:title="ProtobufImageWrapper\l::ParseFromArray">
<polygon fill="none" stroke="black" points="398.5,-49 398.5,-79 515.5,-79 515.5,-49 398.5,-49"/>
<text text-anchor="start" x="406.5" y="-67" font-family="Helvetica,sans-Serif" font-size="10.00">ProtobufImageWrapper</text>
<text text-anchor="middle" x="457" y="-56" font-family="Helvetica,sans-Serif" font-size="10.00">::ParseFromArray</text>
</a>
</g>
</g>
<!-- Node9&#45;&gt;Node11 -->
<g id="edge10" class="edge"><title>Node9&#45;&gt;Node11</title>
<path fill="none" stroke="midnightblue" d="M271.804,-142.311C292.889,-128.85 333.11,-104.413 370,-89 376.073,-86.4629 382.488,-84.0812 388.968,-81.8731"/>
<polygon fill="midnightblue" stroke="midnightblue" points="390.057,-85.1994 398.473,-78.7641 387.881,-78.5462 390.057,-85.1994"/>
</g>
<!-- Node12 -->
<g id="node12" class="node"><title>Node12</title>
<g id="a_node12"><a xlink:href="classProtobufImageWrapper.html#a444790ea96785a92ab17a8be689f9872" target="_top" xlink:title="ProtobufImageWrapper\l::GetImagePayload">
<polygon fill="none" stroke="black" points="398.5,-0 398.5,-30 515.5,-30 515.5,-0 398.5,-0"/>
<text text-anchor="start" x="406.5" y="-18" font-family="Helvetica,sans-Serif" font-size="10.00">ProtobufImageWrapper</text>
<text text-anchor="middle" x="457" y="-7" font-family="Helvetica,sans-Serif" font-size="10.00">::GetImagePayload</text>
</a>
</g>
</g>
<!-- Node9&#45;&gt;Node12 -->
<g id="edge11" class="edge"><title>Node9&#45;&gt;Node12</title>
<path fill="none" stroke="midnightblue" d="M263.739,-142.489C279.65,-120.749 321.85,-67.1323 370,-39 375.845,-35.5849 382.199,-32.6366 388.717,-30.0951"/>
<polygon fill="midnightblue" stroke="midnightblue" points="390.106,-33.3158 398.345,-26.6557 387.751,-26.7237 390.106,-33.3158"/>
</g>
<!-- Node13 -->
<g id="node13" class="node"><title>Node13</title>
<g id="a_node13"><a xlink:href="classProtobufImageWrapper.html#aabff426d3c841dad57cbd0f16f5382cd" target="_top" xlink:title="ProtobufImageWrapper\l::GetImageWidth">
<polygon fill="none" stroke="black" points="398.5,-225 398.5,-255 515.5,-255 515.5,-225 398.5,-225"/>
<text text-anchor="start" x="406.5" y="-243" font-family="Helvetica,sans-Serif" font-size="10.00">ProtobufImageWrapper</text>
<text text-anchor="middle" x="457" y="-232" font-family="Helvetica,sans-Serif" font-size="10.00">::GetImageWidth</text>
</a>
</g>
</g>
<!-- Node9&#45;&gt;Node13 -->
<g id="edge12" class="edge"><title>Node9&#45;&gt;Node13</title>
<path fill="none" stroke="midnightblue" d="M273.875,-161.598C295.658,-173.767 334.936,-194.971 370,-210 379.472,-214.06 389.695,-217.997 399.673,-221.611"/>
<polygon fill="midnightblue" stroke="midnightblue" points="398.537,-224.921 409.131,-224.97 400.879,-218.325 398.537,-224.921"/>
</g>
<!-- Node14 -->
<g id="node14" class="node"><title>Node14</title>
<g id="a_node14"><a xlink:href="classProtobufImageWrapper.html#a7c01e9c1075bc30378996282e17d10a6" target="_top" xlink:title="ProtobufImageWrapper\l::GetImageHeight">
<polygon fill="none" stroke="black" points="398.5,-137 398.5,-167 515.5,-167 515.5,-137 398.5,-137"/>
<text text-anchor="start" x="406.5" y="-155" font-family="Helvetica,sans-Serif" font-size="10.00">ProtobufImageWrapper</text>
<text text-anchor="middle" x="457" y="-144" font-family="Helvetica,sans-Serif" font-size="10.00">::GetImageHeight</text>
</a>
</g>
</g>
<!-- Node9&#45;&gt;Node14 -->
<g id="edge13" class="edge"><title>Node9&#45;&gt;Node14</title>
<path fill="none" stroke="midnightblue" d="M324.65,-152C345.181,-152 367.735,-152 388.272,-152"/>
<polygon fill="midnightblue" stroke="midnightblue" points="388.488,-155.5 398.488,-152 388.488,-148.5 388.488,-155.5"/>
</g>
</g>
</svg>
