<?xml version="1.0" encoding="UTF-8" standalone="no"?>
<!DOCTYPE svg PUBLIC "-//W3C//DTD SVG 1.1//EN"
 "http://www.w3.org/Graphics/SVG/1.1/DTD/svg11.dtd">
<!-- Generated by graphviz version 2.36.0 (20140111.2315)
 -->
<!-- Title: pb::SensorNearData::MFC::CameraImage::clear_has_image_payload Pages: 1 -->
<svg width="320pt" height="169pt"
 viewBox="0.00 0.00 320.00 169.00" xmlns="http://www.w3.org/2000/svg" xmlns:xlink="http://www.w3.org/1999/xlink">
<g id="graph0" class="graph" transform="scale(1 1) rotate(0) translate(4 165)">
<title>pb::SensorNearData::MFC::CameraImage::clear_has_image_payload</title>
<!-- Node1 -->
<g id="node1" class="node"><title>Node1</title>
<polygon fill="#bfbfbf" stroke="black" points="0.5,-59.5 0.5,-100.5 129.5,-100.5 129.5,-59.5 0.5,-59.5"/>
<text text-anchor="start" x="8.5" y="-88.5" font-family="Helvetica,sans-Serif" font-size="10.00">pb::SensorNearData</text>
<text text-anchor="start" x="8.5" y="-77.5" font-family="Helvetica,sans-Serif" font-size="10.00">::MFC::CameraImage::</text>
<text text-anchor="middle" x="65" y="-66.5" font-family="Helvetica,sans-Serif" font-size="10.00">clear_has_image_payload</text>
</g>
<!-- Node2 -->
<g id="node2" class="node"><title>Node2</title>
<g id="a_node2"><a xlink:href="classpb_1_1SensorNearData_1_1MFC_1_1CameraImage.html#a868ca3e27d3d78a75a411e8502c4d0c4" target="_top" xlink:title="pb::SensorNearData\l::MFC::CameraImage::\lclear_image_payload">
<polygon fill="none" stroke="black" points="180,-119.5 180,-160.5 298,-160.5 298,-119.5 180,-119.5"/>
<text text-anchor="start" x="188" y="-148.5" font-family="Helvetica,sans-Serif" font-size="10.00">pb::SensorNearData</text>
<text text-anchor="start" x="188" y="-137.5" font-family="Helvetica,sans-Serif" font-size="10.00">::MFC::CameraImage::</text>
<text text-anchor="middle" x="239" y="-126.5" font-family="Helvetica,sans-Serif" font-size="10.00">clear_image_payload</text>
</a>
</g>
</g>
<!-- Node1&#45;&gt;Node2 -->
<g id="edge1" class="edge"><title>Node1&#45;&gt;Node2</title>
<path fill="none" stroke="midnightblue" d="M134.869,-104.024C149.782,-109.226 165.411,-114.678 179.862,-119.719"/>
<polygon fill="midnightblue" stroke="midnightblue" points="135.787,-100.638 125.193,-100.649 133.482,-107.247 135.787,-100.638"/>
</g>
<!-- Node3 -->
<g id="node3" class="node"><title>Node3</title>
<g id="a_node3"><a xlink:href="classpb_1_1SensorNearData_1_1MFC_1_1CameraImage.html#a15e70411f6d1f9ab7245971be109f9af" target="_top" xlink:title="pb::SensorNearData\l::MFC::CameraImage::\lrelease_image_payload">
<polygon fill="none" stroke="black" points="179.5,-59.5 179.5,-100.5 298.5,-100.5 298.5,-59.5 179.5,-59.5"/>
<text text-anchor="start" x="187.5" y="-88.5" font-family="Helvetica,sans-Serif" font-size="10.00">pb::SensorNearData</text>
<text text-anchor="start" x="187.5" y="-77.5" font-family="Helvetica,sans-Serif" font-size="10.00">::MFC::CameraImage::</text>
<text text-anchor="middle" x="239" y="-66.5" font-family="Helvetica,sans-Serif" font-size="10.00">release_image_payload</text>
</a>
</g>
</g>
<!-- Node1&#45;&gt;Node3 -->
<g id="edge2" class="edge"><title>Node1&#45;&gt;Node3</title>
<path fill="none" stroke="midnightblue" d="M139.592,-80C152.845,-80 166.499,-80 179.26,-80"/>
<polygon fill="midnightblue" stroke="midnightblue" points="139.558,-76.5001 129.558,-80 139.558,-83.5001 139.558,-76.5001"/>
</g>
<!-- Node4 -->
<g id="node4" class="node"><title>Node4</title>
<g id="a_node4"><a xlink:href="classpb_1_1SensorNearData_1_1MFC_1_1CameraImage.html#a3ae8944b5899dfb20590675b5d142cae" target="_top" xlink:title="pb::SensorNearData\l::MFC::CameraImage::\lset_allocated_image_payload">
<polygon fill="none" stroke="black" points="166.5,0.5 166.5,-40.5 311.5,-40.5 311.5,0.5 166.5,0.5"/>
<text text-anchor="start" x="174.5" y="-28.5" font-family="Helvetica,sans-Serif" font-size="10.00">pb::SensorNearData</text>
<text text-anchor="start" x="174.5" y="-17.5" font-family="Helvetica,sans-Serif" font-size="10.00">::MFC::CameraImage::</text>
<text text-anchor="middle" x="239" y="-6.5" font-family="Helvetica,sans-Serif" font-size="10.00">set_allocated_image_payload</text>
</a>
</g>
</g>
<!-- Node1&#45;&gt;Node4 -->
<g id="edge3" class="edge"><title>Node1&#45;&gt;Node4</title>
<path fill="none" stroke="midnightblue" d="M134.708,-56.0322C149.369,-50.9177 164.73,-45.5592 178.99,-40.585"/>
<polygon fill="midnightblue" stroke="midnightblue" points="133.482,-52.7529 125.193,-59.3514 135.787,-59.3623 133.482,-52.7529"/>
</g>
</g>
</svg>
