<?xml version="1.0" encoding="UTF-8" standalone="no"?>
<!DOCTYPE svg PUBLIC "-//W3C//DTD SVG 1.1//EN"
 "http://www.w3.org/Graphics/SVG/1.1/DTD/svg11.dtd">
<!-- Generated by graphviz version 2.36.0 (20140111.2315)
 -->
<!-- Title: pb::SensorNearData::MFC::CameraImage::clear_has_bmp_image Pages: 1 -->
<svg width="292pt" height="169pt"
 viewBox="0.00 0.00 292.00 169.00" xmlns="http://www.w3.org/2000/svg" xmlns:xlink="http://www.w3.org/1999/xlink">
<g id="graph0" class="graph" transform="scale(1 1) rotate(0) translate(4 165)">
<title>pb::SensorNearData::MFC::CameraImage::clear_has_bmp_image</title>
<!-- Node1 -->
<g id="node1" class="node"><title>Node1</title>
<polygon fill="#bfbfbf" stroke="black" points="0,-59.5 0,-100.5 118,-100.5 118,-59.5 0,-59.5"/>
<text text-anchor="start" x="8" y="-88.5" font-family="Helvetica,sans-Serif" font-size="10.00">pb::SensorNearData</text>
<text text-anchor="start" x="8" y="-77.5" font-family="Helvetica,sans-Serif" font-size="10.00">::MFC::CameraImage::</text>
<text text-anchor="middle" x="59" y="-66.5" font-family="Helvetica,sans-Serif" font-size="10.00">clear_has_bmp_image</text>
</g>
<!-- Node2 -->
<g id="node2" class="node"><title>Node2</title>
<g id="a_node2"><a xlink:href="classpb_1_1SensorNearData_1_1MFC_1_1CameraImage.html#a4f56f9bb73b9e09ee49340d884653910" target="_top" xlink:title="pb::SensorNearData\l::MFC::CameraImage::\lclear_bmp_image">
<polygon fill="none" stroke="black" points="160,-119.5 160,-160.5 278,-160.5 278,-119.5 160,-119.5"/>
<text text-anchor="start" x="168" y="-148.5" font-family="Helvetica,sans-Serif" font-size="10.00">pb::SensorNearData</text>
<text text-anchor="start" x="168" y="-137.5" font-family="Helvetica,sans-Serif" font-size="10.00">::MFC::CameraImage::</text>
<text text-anchor="middle" x="219" y="-126.5" font-family="Helvetica,sans-Serif" font-size="10.00">clear_bmp_image</text>
</a>
</g>
</g>
<!-- Node1&#45;&gt;Node2 -->
<g id="edge1" class="edge"><title>Node1&#45;&gt;Node2</title>
<path fill="none" stroke="midnightblue" d="M123.886,-104.26C137.121,-109.286 150.944,-114.536 163.793,-119.415"/>
<polygon fill="midnightblue" stroke="midnightblue" points="124.966,-100.927 114.375,-100.649 122.481,-107.471 124.966,-100.927"/>
</g>
<!-- Node3 -->
<g id="node3" class="node"><title>Node3</title>
<g id="a_node3"><a xlink:href="classpb_1_1SensorNearData_1_1MFC_1_1CameraImage.html#a73a53185122f1c7d7b659c999f8b0345" target="_top" xlink:title="pb::SensorNearData\l::MFC::CameraImage::\lrelease_bmp_image">
<polygon fill="none" stroke="black" points="160,-59.5 160,-100.5 278,-100.5 278,-59.5 160,-59.5"/>
<text text-anchor="start" x="168" y="-88.5" font-family="Helvetica,sans-Serif" font-size="10.00">pb::SensorNearData</text>
<text text-anchor="start" x="168" y="-77.5" font-family="Helvetica,sans-Serif" font-size="10.00">::MFC::CameraImage::</text>
<text text-anchor="middle" x="219" y="-66.5" font-family="Helvetica,sans-Serif" font-size="10.00">release_bmp_image</text>
</a>
</g>
</g>
<!-- Node1&#45;&gt;Node3 -->
<g id="edge2" class="edge"><title>Node1&#45;&gt;Node3</title>
<path fill="none" stroke="midnightblue" d="M128.673,-80C139.07,-80 149.71,-80 159.856,-80"/>
<polygon fill="midnightblue" stroke="midnightblue" points="128.384,-76.5001 118.384,-80 128.384,-83.5001 128.384,-76.5001"/>
</g>
<!-- Node4 -->
<g id="node4" class="node"><title>Node4</title>
<g id="a_node4"><a xlink:href="classpb_1_1SensorNearData_1_1MFC_1_1CameraImage.html#af81ee29cf1ff983c0191bdcf50aca3c9" target="_top" xlink:title="pb::SensorNearData\l::MFC::CameraImage::\lset_allocated_bmp_image">
<polygon fill="none" stroke="black" points="154,0.5 154,-40.5 284,-40.5 284,0.5 154,0.5"/>
<text text-anchor="start" x="162" y="-28.5" font-family="Helvetica,sans-Serif" font-size="10.00">pb::SensorNearData</text>
<text text-anchor="start" x="162" y="-17.5" font-family="Helvetica,sans-Serif" font-size="10.00">::MFC::CameraImage::</text>
<text text-anchor="middle" x="219" y="-6.5" font-family="Helvetica,sans-Serif" font-size="10.00">set_allocated_bmp_image</text>
</a>
</g>
</g>
<!-- Node1&#45;&gt;Node4 -->
<g id="edge3" class="edge"><title>Node1&#45;&gt;Node4</title>
<path fill="none" stroke="midnightblue" d="M123.886,-55.7397C137.121,-50.7137 150.944,-45.4644 163.793,-40.585"/>
<polygon fill="midnightblue" stroke="midnightblue" points="122.481,-52.5292 114.375,-59.3514 124.966,-59.0733 122.481,-52.5292"/>
</g>
</g>
</svg>
