<?xml version="1.0" encoding="UTF-8" standalone="no"?>
<!DOCTYPE svg PUBLIC "-//W3C//DTD SVG 1.1//EN"
 "http://www.w3.org/Graphics/SVG/1.1/DTD/svg11.dtd">
<!-- Generated by graphviz version 2.36.0 (20140111.2315)
 -->
<!-- Title: org::libcppa::ack::New Pages: 1 -->
<svg width="402pt" height="38pt"
 viewBox="0.00 0.00 402.00 38.00" xmlns="http://www.w3.org/2000/svg" xmlns:xlink="http://www.w3.org/1999/xlink">
<g id="graph0" class="graph" transform="scale(1 1) rotate(0) translate(4 34)">
<title>org::libcppa::ack::New</title>
<!-- Node1 -->
<g id="node1" class="node"><title>Node1</title>
<polygon fill="#bfbfbf" stroke="black" points="0.5,-5.5 0.5,-24.5 115.5,-24.5 115.5,-5.5 0.5,-5.5"/>
<text text-anchor="middle" x="58" y="-12.5" font-family="Helvetica,sans-Serif" font-size="10.00">org::libcppa::ack::New</text>
</g>
<!-- Node2 -->
<g id="node2" class="node"><title>Node2</title>
<g id="a_node2"><a xlink:href="classorg_1_1libcppa_1_1ack.html#ade4b61439ecd9757e8788b9286b943d6" target="_top" xlink:title="org::libcppa::ack::ack">
<polygon fill="none" stroke="black" points="152,-5.5 152,-24.5 262,-24.5 262,-5.5 152,-5.5"/>
<text text-anchor="middle" x="207" y="-12.5" font-family="Helvetica,sans-Serif" font-size="10.00">org::libcppa::ack::ack</text>
</a>
</g>
</g>
<!-- Node1&#45;&gt;Node2 -->
<g id="edge1" class="edge"><title>Node1&#45;&gt;Node2</title>
<path fill="none" stroke="midnightblue" d="M115.834,-15C124.312,-15 133.103,-15 141.721,-15"/>
<polygon fill="midnightblue" stroke="midnightblue" points="141.731,-18.5001 151.731,-15 141.731,-11.5001 141.731,-18.5001"/>
</g>
<!-- Node3 -->
<g id="node3" class="node"><title>Node3</title>
<g id="a_node3"><a xlink:href="classorg_1_1libcppa_1_1ack.html#ae278f467d462634c17cb8e44c28af4c8" target="_top" xlink:title="org::libcppa::ack::\lSharedCtor">
<polygon fill="none" stroke="black" points="298.5,-0 298.5,-30 393.5,-30 393.5,-0 298.5,-0"/>
<text text-anchor="start" x="306.5" y="-18" font-family="Helvetica,sans-Serif" font-size="10.00">org::libcppa::ack::</text>
<text text-anchor="middle" x="346" y="-7" font-family="Helvetica,sans-Serif" font-size="10.00">SharedCtor</text>
</a>
</g>
</g>
<!-- Node2&#45;&gt;Node3 -->
<g id="edge2" class="edge"><title>Node2&#45;&gt;Node3</title>
<path fill="none" stroke="midnightblue" d="M262.146,-15C270.747,-15 279.664,-15 288.322,-15"/>
<polygon fill="midnightblue" stroke="midnightblue" points="288.331,-18.5001 298.331,-15 288.331,-11.5001 288.331,-18.5001"/>
</g>
</g>
</svg>
