<?xml version="1.0" encoding="UTF-8" standalone="no"?>
<!DOCTYPE svg PUBLIC "-//W3C//DTD SVG 1.1//EN"
 "http://www.w3.org/Graphics/SVG/1.1/DTD/svg11.dtd">
<!-- Generated by graphviz version 2.36.0 (20140111.2315)
 -->
<!-- Title: org::libcppa::warning::SharedCtor Pages: 1 -->
<svg width="430pt" height="38pt"
 viewBox="0.00 0.00 430.00 38.00" xmlns="http://www.w3.org/2000/svg" xmlns:xlink="http://www.w3.org/1999/xlink">
<g id="graph0" class="graph" transform="scale(1 1) rotate(0) translate(4 34)">
<title>org::libcppa::warning::SharedCtor</title>
<!-- Node1 -->
<g id="node1" class="node"><title>Node1</title>
<polygon fill="#bfbfbf" stroke="black" points="0.5,-0 0.5,-30 107.5,-30 107.5,-0 0.5,-0"/>
<text text-anchor="start" x="8.5" y="-18" font-family="Helvetica,sans-Serif" font-size="10.00">org::libcppa::warning</text>
<text text-anchor="middle" x="54" y="-7" font-family="Helvetica,sans-Serif" font-size="10.00">::SharedCtor</text>
</g>
<!-- Node2 -->
<g id="node2" class="node"><title>Node2</title>
<g id="a_node2"><a xlink:href="classorg_1_1libcppa_1_1warning.html#aebdf81d79191a534397b9620b7fe65a7" target="_top" xlink:title="org::libcppa::warning\l::warning">
<polygon fill="none" stroke="black" points="144.5,-0 144.5,-30 251.5,-30 251.5,-0 144.5,-0"/>
<text text-anchor="start" x="152.5" y="-18" font-family="Helvetica,sans-Serif" font-size="10.00">org::libcppa::warning</text>
<text text-anchor="middle" x="198" y="-7" font-family="Helvetica,sans-Serif" font-size="10.00">::warning</text>
</a>
</g>
</g>
<!-- Node1&#45;&gt;Node2 -->
<g id="edge1" class="edge"><title>Node1&#45;&gt;Node2</title>
<path fill="none" stroke="midnightblue" d="M117.994,-15C126.704,-15 135.578,-15 144.08,-15"/>
<polygon fill="midnightblue" stroke="midnightblue" points="117.876,-11.5001 107.876,-15 117.876,-18.5001 117.876,-11.5001"/>
</g>
<!-- Node3 -->
<g id="node3" class="node"><title>Node3</title>
<g id="a_node3"><a xlink:href="classorg_1_1libcppa_1_1warning.html#a0afec11bb733711568fe8504ab080d5b" target="_top" xlink:title="org::libcppa::warning::New">
<polygon fill="none" stroke="black" points="288.5,-5.5 288.5,-24.5 421.5,-24.5 421.5,-5.5 288.5,-5.5"/>
<text text-anchor="middle" x="355" y="-12.5" font-family="Helvetica,sans-Serif" font-size="10.00">org::libcppa::warning::New</text>
</a>
</g>
</g>
<!-- Node2&#45;&gt;Node3 -->
<g id="edge2" class="edge"><title>Node2&#45;&gt;Node3</title>
<path fill="none" stroke="midnightblue" d="M261.996,-15C270.712,-15 279.682,-15 288.443,-15"/>
<polygon fill="midnightblue" stroke="midnightblue" points="261.909,-11.5001 251.909,-15 261.909,-18.5001 261.909,-11.5001"/>
</g>
</g>
</svg>
