<?xml version="1.0" encoding="UTF-8" standalone="no"?>
<!DOCTYPE svg PUBLIC "-//W3C//DTD SVG 1.1//EN"
 "http://www.w3.org/Graphics/SVG/1.1/DTD/svg11.dtd">
<!-- Generated by graphviz version 2.36.0 (20140111.2315)
 -->
<!-- Title: pb::Header::MergeFrom Pages: 1 -->
<svg width="428pt" height="66pt"
 viewBox="0.00 0.00 428.00 66.00" xmlns="http://www.w3.org/2000/svg" xmlns:xlink="http://www.w3.org/1999/xlink">
<g id="graph0" class="graph" transform="scale(1 1) rotate(0) translate(4 62)">
<title>pb::Header::MergeFrom</title>
<!-- Node1 -->
<g id="node1" class="node"><title>Node1</title>
<polygon fill="#bfbfbf" stroke="black" points="0,-19.5 0,-38.5 120,-38.5 120,-19.5 0,-19.5"/>
<text text-anchor="middle" x="60" y="-26.5" font-family="Helvetica,sans-Serif" font-size="10.00">pb::Header::MergeFrom</text>
</g>
<!-- Node2 -->
<g id="node2" class="node"><title>Node2</title>
<g id="a_node2"><a xlink:href="classpb_1_1Header.html#a617cbe10ccbfd7562ee919f9131065c2" target="_top" xlink:title="pb::Header::Header">
<polygon fill="none" stroke="black" points="163,-38.5 163,-57.5 265,-57.5 265,-38.5 163,-38.5"/>
<text text-anchor="middle" x="214" y="-45.5" font-family="Helvetica,sans-Serif" font-size="10.00">pb::Header::Header</text>
</a>
</g>
</g>
<!-- Node1&#45;&gt;Node2 -->
<g id="edge1" class="edge"><title>Node1&#45;&gt;Node2</title>
<path fill="none" stroke="midnightblue" d="M130.155,-37.6444C141.079,-39.0098 152.193,-40.3991 162.584,-41.698"/>
<polygon fill="midnightblue" stroke="midnightblue" points="130.559,-34.1678 120.202,-36.4003 129.691,-41.1137 130.559,-34.1678"/>
</g>
<!-- Node3 -->
<g id="node3" class="node"><title>Node3</title>
<g id="a_node3"><a xlink:href="classpb_1_1Header.html#afe6059f174b3fad7ce772df32d877647" target="_top" xlink:title="pb::Header::CopyFrom">
<polygon fill="none" stroke="black" points="156,-0.5 156,-19.5 272,-19.5 272,-0.5 156,-0.5"/>
<text text-anchor="middle" x="214" y="-7.5" font-family="Helvetica,sans-Serif" font-size="10.00">pb::Header::CopyFrom</text>
</a>
</g>
</g>
<!-- Node1&#45;&gt;Node3 -->
<g id="edge2" class="edge"><title>Node1&#45;&gt;Node3</title>
<path fill="none" stroke="midnightblue" d="M130.155,-20.3556C138.701,-19.2874 147.363,-18.2046 155.705,-17.1619"/>
<polygon fill="midnightblue" stroke="midnightblue" points="129.691,-16.8863 120.202,-21.5997 130.559,-23.8322 129.691,-16.8863"/>
</g>
<!-- Node4 -->
<g id="node4" class="node"><title>Node4</title>
<g id="a_node4"><a xlink:href="classpb_1_1Header.html#a30af6b12daec382f6659bad8ccad3b1d" target="_top" xlink:title="pb::Header::operator=">
<polygon fill="none" stroke="black" points="308,-0.5 308,-19.5 420,-19.5 420,-0.5 308,-0.5"/>
<text text-anchor="middle" x="364" y="-7.5" font-family="Helvetica,sans-Serif" font-size="10.00">pb::Header::operator=</text>
</a>
</g>
</g>
<!-- Node3&#45;&gt;Node4 -->
<g id="edge3" class="edge"><title>Node3&#45;&gt;Node4</title>
<path fill="none" stroke="midnightblue" d="M282.496,-10C290.992,-10 299.603,-10 307.877,-10"/>
<polygon fill="midnightblue" stroke="midnightblue" points="282.221,-6.5001 272.221,-10 282.221,-13.5001 282.221,-6.5001"/>
</g>
</g>
</svg>
