<?xml version="1.0" encoding="UTF-8" standalone="no"?>
<!DOCTYPE svg PUBLIC "-//W3C//DTD SVG 1.1//EN"
 "http://www.w3.org/Graphics/SVG/1.1/DTD/svg11.dtd">
<!-- Generated by graphviz version 2.36.0 (20140111.2315)
 -->
<!-- Title: pb::SensorNearData::MFC::CameraImage::MergePartialFromCodedStream Pages: 1 -->
<svg width="524pt" height="1130pt"
 viewBox="0.00 0.00 524.00 1130.00" xmlns="http://www.w3.org/2000/svg" xmlns:xlink="http://www.w3.org/1999/xlink">
<g id="graph0" class="graph" transform="scale(1 1) rotate(0) translate(4 1126)">
<title>pb::SensorNearData::MFC::CameraImage::MergePartialFromCodedStream</title>
<!-- Node1 -->
<g id="node1" class="node"><title>Node1</title>
<polygon fill="#bfbfbf" stroke="black" points="0,-540.5 0,-581.5 154,-581.5 154,-540.5 0,-540.5"/>
<text text-anchor="start" x="8" y="-569.5" font-family="Helvetica,sans-Serif" font-size="10.00">pb::SensorNearData</text>
<text text-anchor="start" x="8" y="-558.5" font-family="Helvetica,sans-Serif" font-size="10.00">::MFC::CameraImage::</text>
<text text-anchor="middle" x="77" y="-547.5" font-family="Helvetica,sans-Serif" font-size="10.00">MergePartialFromCodedStream</text>
</g>
<!-- Node2 -->
<g id="node2" class="node"><title>Node2</title>
<g id="a_node2"><a xlink:href="classpb_1_1SensorNearData_1_1MFC_1_1CameraImage.html#a9d2569506f9239ef8b0785ea73a5c475" target="_top" xlink:title="pb::SensorNearData\l::MFC::CameraImage::\lmutable_header">
<polygon fill="none" stroke="black" points="215,-1080.5 215,-1121.5 333,-1121.5 333,-1080.5 215,-1080.5"/>
<text text-anchor="start" x="223" y="-1109.5" font-family="Helvetica,sans-Serif" font-size="10.00">pb::SensorNearData</text>
<text text-anchor="start" x="223" y="-1098.5" font-family="Helvetica,sans-Serif" font-size="10.00">::MFC::CameraImage::</text>
<text text-anchor="middle" x="274" y="-1087.5" font-family="Helvetica,sans-Serif" font-size="10.00">mutable_header</text>
</a>
</g>
</g>
<!-- Node1&#45;&gt;Node2 -->
<g id="edge1" class="edge"><title>Node1&#45;&gt;Node2</title>
<path fill="none" stroke="midnightblue" d="M79.9177,-581.537C88.2845,-667.08 124.156,-994.16 190,-1070 194.472,-1075.15 199.885,-1079.45 205.779,-1083.03"/>
<polygon fill="midnightblue" stroke="midnightblue" points="204.233,-1086.17 214.704,-1087.79 207.525,-1080 204.233,-1086.17"/>
</g>
<!-- Node4 -->
<g id="node4" class="node"><title>Node4</title>
<g id="a_node4"><a xlink:href="classpb_1_1SensorNearData_1_1MFC_1_1CameraImage.html#a85a505dd17896db7334f661d9ec78ab0" target="_top" xlink:title="pb::SensorNearData\l::MFC::CameraImage::\lset_has_image_counter">
<polygon fill="none" stroke="black" points="214,-1020.5 214,-1061.5 334,-1061.5 334,-1020.5 214,-1020.5"/>
<text text-anchor="start" x="222" y="-1049.5" font-family="Helvetica,sans-Serif" font-size="10.00">pb::SensorNearData</text>
<text text-anchor="start" x="222" y="-1038.5" font-family="Helvetica,sans-Serif" font-size="10.00">::MFC::CameraImage::</text>
<text text-anchor="middle" x="274" y="-1027.5" font-family="Helvetica,sans-Serif" font-size="10.00">set_has_image_counter</text>
</a>
</g>
</g>
<!-- Node1&#45;&gt;Node4 -->
<g id="edge3" class="edge"><title>Node1&#45;&gt;Node4</title>
<path fill="none" stroke="midnightblue" d="M80.5996,-581.769C90.9141,-661.153 131.272,-944.231 190,-1010 194.236,-1014.74 199.268,-1018.76 204.729,-1022.17"/>
<polygon fill="midnightblue" stroke="midnightblue" points="203.159,-1025.3 213.612,-1027.03 206.521,-1019.16 203.159,-1025.3"/>
</g>
<!-- Node5 -->
<g id="node5" class="node"><title>Node5</title>
<g id="a_node5"><a xlink:href="classpb_1_1SensorNearData_1_1MFC_1_1CameraImage.html#a2f2f6f1c6f773e62955a61dd4681b1c5" target="_top" xlink:title="pb::SensorNearData\l::MFC::CameraImage::\lset_has_image_width">
<polygon fill="none" stroke="black" points="215,-960.5 215,-1001.5 333,-1001.5 333,-960.5 215,-960.5"/>
<text text-anchor="start" x="223" y="-989.5" font-family="Helvetica,sans-Serif" font-size="10.00">pb::SensorNearData</text>
<text text-anchor="start" x="223" y="-978.5" font-family="Helvetica,sans-Serif" font-size="10.00">::MFC::CameraImage::</text>
<text text-anchor="middle" x="274" y="-967.5" font-family="Helvetica,sans-Serif" font-size="10.00">set_has_image_width</text>
</a>
</g>
</g>
<!-- Node1&#45;&gt;Node5 -->
<g id="edge4" class="edge"><title>Node1&#45;&gt;Node5</title>
<path fill="none" stroke="midnightblue" d="M77.8187,-581.835C78.3997,-645.644 88.7877,-840.666 190,-950 194.457,-954.815 199.734,-958.886 205.432,-962.327"/>
<polygon fill="midnightblue" stroke="midnightblue" points="204.204,-965.638 214.678,-967.233 207.485,-959.454 204.204,-965.638"/>
</g>
<!-- Node6 -->
<g id="node6" class="node"><title>Node6</title>
<g id="a_node6"><a xlink:href="classpb_1_1SensorNearData_1_1MFC_1_1CameraImage.html#a133b4be7ddc517a239054778e0d2aa1b" target="_top" xlink:title="pb::SensorNearData\l::MFC::CameraImage::\lset_has_image_height">
<polygon fill="none" stroke="black" points="215,-900.5 215,-941.5 333,-941.5 333,-900.5 215,-900.5"/>
<text text-anchor="start" x="223" y="-929.5" font-family="Helvetica,sans-Serif" font-size="10.00">pb::SensorNearData</text>
<text text-anchor="start" x="223" y="-918.5" font-family="Helvetica,sans-Serif" font-size="10.00">::MFC::CameraImage::</text>
<text text-anchor="middle" x="274" y="-907.5" font-family="Helvetica,sans-Serif" font-size="10.00">set_has_image_height</text>
</a>
</g>
</g>
<!-- Node1&#45;&gt;Node6 -->
<g id="edge5" class="edge"><title>Node1&#45;&gt;Node6</title>
<path fill="none" stroke="midnightblue" d="M79.1146,-581.866C83.2756,-639.046 102.568,-799.966 190,-890 194.68,-894.819 200.179,-898.896 206.08,-902.344"/>
<polygon fill="midnightblue" stroke="midnightblue" points="204.48,-905.457 214.967,-906.959 207.705,-899.244 204.48,-905.457"/>
</g>
<!-- Node7 -->
<g id="node7" class="node"><title>Node7</title>
<g id="a_node7"><a xlink:href="classpb_1_1SensorNearData_1_1MFC_1_1CameraImage.html#a20c0d2a4bd11b2dc97a6a55f2f30efbb" target="_top" xlink:title="pb::SensorNearData\l::MFC::CameraImage::\lset_has_image_shift_u">
<polygon fill="none" stroke="black" points="215,-840.5 215,-881.5 333,-881.5 333,-840.5 215,-840.5"/>
<text text-anchor="start" x="223" y="-869.5" font-family="Helvetica,sans-Serif" font-size="10.00">pb::SensorNearData</text>
<text text-anchor="start" x="223" y="-858.5" font-family="Helvetica,sans-Serif" font-size="10.00">::MFC::CameraImage::</text>
<text text-anchor="middle" x="274" y="-847.5" font-family="Helvetica,sans-Serif" font-size="10.00">set_has_image_shift_u</text>
</a>
</g>
</g>
<!-- Node1&#45;&gt;Node7 -->
<g id="edge6" class="edge"><title>Node1&#45;&gt;Node7</title>
<path fill="none" stroke="midnightblue" d="M80.9052,-581.653C88.9552,-631.348 116.052,-758.744 190,-830 194.652,-834.483 200.012,-838.329 205.722,-841.627"/>
<polygon fill="midnightblue" stroke="midnightblue" points="204.439,-844.903 214.931,-846.371 207.644,-838.68 204.439,-844.903"/>
</g>
<!-- Node8 -->
<g id="node8" class="node"><title>Node8</title>
<g id="a_node8"><a xlink:href="classpb_1_1SensorNearData_1_1MFC_1_1CameraImage.html#a7251f75c2d0d2a0ac50509949c9d1e64" target="_top" xlink:title="pb::SensorNearData\l::MFC::CameraImage::\lset_has_image_shift_v">
<polygon fill="none" stroke="black" points="215,-780.5 215,-821.5 333,-821.5 333,-780.5 215,-780.5"/>
<text text-anchor="start" x="223" y="-809.5" font-family="Helvetica,sans-Serif" font-size="10.00">pb::SensorNearData</text>
<text text-anchor="start" x="223" y="-798.5" font-family="Helvetica,sans-Serif" font-size="10.00">::MFC::CameraImage::</text>
<text text-anchor="middle" x="274" y="-787.5" font-family="Helvetica,sans-Serif" font-size="10.00">set_has_image_shift_v</text>
</a>
</g>
</g>
<!-- Node1&#45;&gt;Node8 -->
<g id="edge7" class="edge"><title>Node1&#45;&gt;Node8</title>
<path fill="none" stroke="midnightblue" d="M83.655,-581.628C96.0376,-623.083 129.397,-717.044 190,-770 194.713,-774.118 200.024,-777.71 205.625,-780.84"/>
<polygon fill="midnightblue" stroke="midnightblue" points="204.116,-783.998 214.619,-785.385 207.273,-777.751 204.116,-783.998"/>
</g>
<!-- Node9 -->
<g id="node9" class="node"><title>Node9</title>
<g id="a_node9"><a xlink:href="classpb_1_1SensorNearData_1_1MFC_1_1CameraImage.html#a2d9813039740eb5d61396557e2af24b6" target="_top" xlink:title="pb::SensorNearData\l::MFC::CameraImage::\lset_has_o_image_width">
<polygon fill="none" stroke="black" points="213,-720.5 213,-761.5 335,-761.5 335,-720.5 213,-720.5"/>
<text text-anchor="start" x="221" y="-749.5" font-family="Helvetica,sans-Serif" font-size="10.00">pb::SensorNearData</text>
<text text-anchor="start" x="221" y="-738.5" font-family="Helvetica,sans-Serif" font-size="10.00">::MFC::CameraImage::</text>
<text text-anchor="middle" x="274" y="-727.5" font-family="Helvetica,sans-Serif" font-size="10.00">set_has_o_image_width</text>
</a>
</g>
</g>
<!-- Node1&#45;&gt;Node9 -->
<g id="edge8" class="edge"><title>Node1&#45;&gt;Node9</title>
<path fill="none" stroke="midnightblue" d="M88.4158,-581.529C105.513,-613.308 142.435,-674.45 190,-710 194.205,-713.142 198.763,-715.998 203.506,-718.587"/>
<polygon fill="midnightblue" stroke="midnightblue" points="202.302,-721.898 212.811,-723.244 205.435,-715.638 202.302,-721.898"/>
</g>
<!-- Node10 -->
<g id="node10" class="node"><title>Node10</title>
<g id="a_node10"><a xlink:href="classpb_1_1SensorNearData_1_1MFC_1_1CameraImage.html#af20a41ba62b8290de102bf6efc9dba57" target="_top" xlink:title="pb::SensorNearData\l::MFC::CameraImage::\lset_has_o_image_height">
<polygon fill="none" stroke="black" points="211.5,-660.5 211.5,-701.5 336.5,-701.5 336.5,-660.5 211.5,-660.5"/>
<text text-anchor="start" x="219.5" y="-689.5" font-family="Helvetica,sans-Serif" font-size="10.00">pb::SensorNearData</text>
<text text-anchor="start" x="219.5" y="-678.5" font-family="Helvetica,sans-Serif" font-size="10.00">::MFC::CameraImage::</text>
<text text-anchor="middle" x="274" y="-667.5" font-family="Helvetica,sans-Serif" font-size="10.00">set_has_o_image_height</text>
</a>
</g>
</g>
<!-- Node1&#45;&gt;Node10 -->
<g id="edge9" class="edge"><title>Node1&#45;&gt;Node10</title>
<path fill="none" stroke="midnightblue" d="M99.6543,-581.653C121.182,-601.315 155.838,-630.691 190,-650 193.871,-652.188 197.926,-654.277 202.074,-656.262"/>
<polygon fill="midnightblue" stroke="midnightblue" points="200.716,-659.489 211.268,-660.437 203.611,-653.115 200.716,-659.489"/>
</g>
<!-- Node11 -->
<g id="node11" class="node"><title>Node11</title>
<g id="a_node11"><a xlink:href="classpb_1_1SensorNearData_1_1MFC_1_1CameraImage.html#a824b956e07f6cbbe335cda3a1e45f32c" target="_top" xlink:title="pb::SensorNearData\l::MFC::CameraImage::\lset_has_imager_size_u">
<polygon fill="none" stroke="black" points="214.5,-600.5 214.5,-641.5 333.5,-641.5 333.5,-600.5 214.5,-600.5"/>
<text text-anchor="start" x="222.5" y="-629.5" font-family="Helvetica,sans-Serif" font-size="10.00">pb::SensorNearData</text>
<text text-anchor="start" x="222.5" y="-618.5" font-family="Helvetica,sans-Serif" font-size="10.00">::MFC::CameraImage::</text>
<text text-anchor="middle" x="274" y="-607.5" font-family="Helvetica,sans-Serif" font-size="10.00">set_has_imager_size_u</text>
</a>
</g>
</g>
<!-- Node1&#45;&gt;Node11 -->
<g id="edge10" class="edge"><title>Node1&#45;&gt;Node11</title>
<path fill="none" stroke="midnightblue" d="M144.835,-581.565C164.17,-587.514 185.296,-594.014 204.718,-599.99"/>
<polygon fill="midnightblue" stroke="midnightblue" points="203.812,-603.373 214.399,-602.969 205.871,-596.683 203.812,-603.373"/>
</g>
<!-- Node12 -->
<g id="node12" class="node"><title>Node12</title>
<g id="a_node12"><a xlink:href="classpb_1_1SensorNearData_1_1MFC_1_1CameraImage.html#aa58595a3ca849be5eac457983cabcb04" target="_top" xlink:title="pb::SensorNearData\l::MFC::CameraImage::\lset_has_imager_size_v">
<polygon fill="none" stroke="black" points="214.5,-540.5 214.5,-581.5 333.5,-581.5 333.5,-540.5 214.5,-540.5"/>
<text text-anchor="start" x="222.5" y="-569.5" font-family="Helvetica,sans-Serif" font-size="10.00">pb::SensorNearData</text>
<text text-anchor="start" x="222.5" y="-558.5" font-family="Helvetica,sans-Serif" font-size="10.00">::MFC::CameraImage::</text>
<text text-anchor="middle" x="274" y="-547.5" font-family="Helvetica,sans-Serif" font-size="10.00">set_has_imager_size_v</text>
</a>
</g>
</g>
<!-- Node1&#45;&gt;Node12 -->
<g id="edge11" class="edge"><title>Node1&#45;&gt;Node12</title>
<path fill="none" stroke="midnightblue" d="M154.23,-561C170.616,-561 187.844,-561 203.94,-561"/>
<polygon fill="midnightblue" stroke="midnightblue" points="204.333,-564.5 214.333,-561 204.333,-557.5 204.333,-564.5"/>
</g>
<!-- Node13 -->
<g id="node13" class="node"><title>Node13</title>
<g id="a_node13"><a xlink:href="classpb_1_1SensorNearData_1_1MFC_1_1CameraImage.html#abc1cb534fc315e8989bfccd9e4931c37" target="_top" xlink:title="pb::SensorNearData\l::MFC::CameraImage::\lset_has_o_image_pattern">
<polygon fill="none" stroke="black" points="210,-480.5 210,-521.5 338,-521.5 338,-480.5 210,-480.5"/>
<text text-anchor="start" x="218" y="-509.5" font-family="Helvetica,sans-Serif" font-size="10.00">pb::SensorNearData</text>
<text text-anchor="start" x="218" y="-498.5" font-family="Helvetica,sans-Serif" font-size="10.00">::MFC::CameraImage::</text>
<text text-anchor="middle" x="274" y="-487.5" font-family="Helvetica,sans-Serif" font-size="10.00">set_has_o_image_pattern</text>
</a>
</g>
</g>
<!-- Node1&#45;&gt;Node13 -->
<g id="edge12" class="edge"><title>Node1&#45;&gt;Node13</title>
<path fill="none" stroke="midnightblue" d="M144.835,-540.435C162.685,-534.943 182.062,-528.981 200.214,-523.396"/>
<polygon fill="midnightblue" stroke="midnightblue" points="201.339,-526.712 209.867,-520.425 199.28,-520.021 201.339,-526.712"/>
</g>
<!-- Node14 -->
<g id="node14" class="node"><title>Node14</title>
<g id="a_node14"><a xlink:href="classpb_1_1SensorNearData_1_1MFC_1_1CameraImage.html#af40518b1bca8fecfe0c7f1591aa36e47" target="_top" xlink:title="pb::SensorNearData\l::MFC::CameraImage::\lset_has_image_compressed">
<polygon fill="none" stroke="black" points="203.5,-420.5 203.5,-461.5 344.5,-461.5 344.5,-420.5 203.5,-420.5"/>
<text text-anchor="start" x="211.5" y="-449.5" font-family="Helvetica,sans-Serif" font-size="10.00">pb::SensorNearData</text>
<text text-anchor="start" x="211.5" y="-438.5" font-family="Helvetica,sans-Serif" font-size="10.00">::MFC::CameraImage::</text>
<text text-anchor="middle" x="274" y="-427.5" font-family="Helvetica,sans-Serif" font-size="10.00">set_has_image_compressed</text>
</a>
</g>
</g>
<!-- Node1&#45;&gt;Node14 -->
<g id="edge13" class="edge"><title>Node1&#45;&gt;Node14</title>
<path fill="none" stroke="midnightblue" d="M99.1608,-540.395C120.591,-520.44 155.422,-490.427 190,-471 193.193,-469.206 196.514,-467.485 199.911,-465.84"/>
<polygon fill="midnightblue" stroke="midnightblue" points="201.406,-469.005 209.043,-461.662 198.493,-462.639 201.406,-469.005"/>
</g>
<!-- Node15 -->
<g id="node15" class="node"><title>Node15</title>
<g id="a_node15"><a xlink:href="classpb_1_1SensorNearData_1_1MFC_1_1CameraImage.html#aa0191c6542d2cb4dbaba925e166ccd76" target="_top" xlink:title="pb::SensorNearData\l::MFC::CameraImage::\lset_has_image_compression_type">
<polygon fill="none" stroke="black" points="190.5,-360.5 190.5,-401.5 357.5,-401.5 357.5,-360.5 190.5,-360.5"/>
<text text-anchor="start" x="198.5" y="-389.5" font-family="Helvetica,sans-Serif" font-size="10.00">pb::SensorNearData</text>
<text text-anchor="start" x="198.5" y="-378.5" font-family="Helvetica,sans-Serif" font-size="10.00">::MFC::CameraImage::</text>
<text text-anchor="middle" x="274" y="-367.5" font-family="Helvetica,sans-Serif" font-size="10.00">set_has_image_compression_type</text>
</a>
</g>
</g>
<!-- Node1&#45;&gt;Node15 -->
<g id="edge14" class="edge"><title>Node1&#45;&gt;Node15</title>
<path fill="none" stroke="midnightblue" d="M88.3349,-540.27C105.323,-508.192 142.099,-446.526 190,-411 192.046,-409.483 194.176,-408.036 196.371,-406.657"/>
<polygon fill="midnightblue" stroke="midnightblue" points="198.165,-409.663 205.117,-401.668 194.697,-403.582 198.165,-409.663"/>
</g>
<!-- Node16 -->
<g id="node16" class="node"><title>Node16</title>
<g id="a_node16"><a xlink:href="classpb_1_1SensorNearData_1_1MFC_1_1CameraImage.html#a591c8d38bf886dbda316beaa1d9f4dde" target="_top" xlink:title="pb::SensorNearData\l::MFC::CameraImage::\lset_has_image_type">
<polygon fill="none" stroke="black" points="215,-300.5 215,-341.5 333,-341.5 333,-300.5 215,-300.5"/>
<text text-anchor="start" x="223" y="-329.5" font-family="Helvetica,sans-Serif" font-size="10.00">pb::SensorNearData</text>
<text text-anchor="start" x="223" y="-318.5" font-family="Helvetica,sans-Serif" font-size="10.00">::MFC::CameraImage::</text>
<text text-anchor="middle" x="274" y="-307.5" font-family="Helvetica,sans-Serif" font-size="10.00">set_has_image_type</text>
</a>
</g>
</g>
<!-- Node1&#45;&gt;Node16 -->
<g id="edge15" class="edge"><title>Node1&#45;&gt;Node16</title>
<path fill="none" stroke="midnightblue" d="M83.5789,-540.219C95.8229,-498.469 128.942,-403.889 190,-351 194.712,-346.918 200.023,-343.376 205.623,-340.305"/>
<polygon fill="midnightblue" stroke="midnightblue" points="207.205,-343.428 214.618,-335.858 204.102,-337.153 207.205,-343.428"/>
</g>
<!-- Node17 -->
<g id="node17" class="node"><title>Node17</title>
<g id="a_node17"><a xlink:href="classpb_1_1SensorNearData_1_1MFC_1_1CameraImage.html#a6e6c57555d502c1a2a909ee38526f180" target="_top" xlink:title="pb::SensorNearData\l::MFC::CameraImage::\lset_has_byte_per_pixel">
<polygon fill="none" stroke="black" points="214.5,-240.5 214.5,-281.5 333.5,-281.5 333.5,-240.5 214.5,-240.5"/>
<text text-anchor="start" x="222.5" y="-269.5" font-family="Helvetica,sans-Serif" font-size="10.00">pb::SensorNearData</text>
<text text-anchor="start" x="222.5" y="-258.5" font-family="Helvetica,sans-Serif" font-size="10.00">::MFC::CameraImage::</text>
<text text-anchor="middle" x="274" y="-247.5" font-family="Helvetica,sans-Serif" font-size="10.00">set_has_byte_per_pixel</text>
</a>
</g>
</g>
<!-- Node1&#45;&gt;Node17 -->
<g id="edge16" class="edge"><title>Node1&#45;&gt;Node17</title>
<path fill="none" stroke="midnightblue" d="M80.8324,-540.221C88.7209,-490.231 115.486,-362.136 190,-291 194.402,-286.798 199.436,-283.177 204.8,-280.059"/>
<polygon fill="midnightblue" stroke="midnightblue" points="206.801,-282.965 214.085,-275.272 203.593,-276.744 206.801,-282.965"/>
</g>
<!-- Node18 -->
<g id="node18" class="node"><title>Node18</title>
<g id="a_node18"><a xlink:href="classpb_1_1SensorNearData_1_1MFC_1_1CameraImage.html#a5bffdb3f7ccd3bf7f5fcaf275d43ca65" target="_top" xlink:title="pb::SensorNearData\l::MFC::CameraImage::\lset_has_bit_per_pixel">
<polygon fill="none" stroke="black" points="215,-180.5 215,-221.5 333,-221.5 333,-180.5 215,-180.5"/>
<text text-anchor="start" x="223" y="-209.5" font-family="Helvetica,sans-Serif" font-size="10.00">pb::SensorNearData</text>
<text text-anchor="start" x="223" y="-198.5" font-family="Helvetica,sans-Serif" font-size="10.00">::MFC::CameraImage::</text>
<text text-anchor="middle" x="274" y="-187.5" font-family="Helvetica,sans-Serif" font-size="10.00">set_has_bit_per_pixel</text>
</a>
</g>
</g>
<!-- Node1&#45;&gt;Node18 -->
<g id="edge17" class="edge"><title>Node1&#45;&gt;Node18</title>
<path fill="none" stroke="midnightblue" d="M79.015,-540.435C82.9323,-483.325 101.682,-321.07 190,-231 194.576,-226.333 199.931,-222.389 205.679,-219.056"/>
<polygon fill="midnightblue" stroke="midnightblue" points="207.667,-221.971 214.98,-214.305 204.482,-215.737 207.667,-221.971"/>
</g>
<!-- Node19 -->
<g id="node19" class="node"><title>Node19</title>
<g id="a_node19"><a xlink:href="classpb_1_1SensorNearData_1_1MFC_1_1CameraImage.html#a4c138818ba73765358b515381ca4205e" target="_top" xlink:title="pb::SensorNearData\l::MFC::CameraImage::\lmutable_image_payload">
<polygon fill="none" stroke="black" points="213,-120.5 213,-161.5 335,-161.5 335,-120.5 213,-120.5"/>
<text text-anchor="start" x="221" y="-149.5" font-family="Helvetica,sans-Serif" font-size="10.00">pb::SensorNearData</text>
<text text-anchor="start" x="221" y="-138.5" font-family="Helvetica,sans-Serif" font-size="10.00">::MFC::CameraImage::</text>
<text text-anchor="middle" x="274" y="-127.5" font-family="Helvetica,sans-Serif" font-size="10.00">mutable_image_payload</text>
</a>
</g>
</g>
<!-- Node1&#45;&gt;Node19 -->
<g id="edge18" class="edge"><title>Node1&#45;&gt;Node19</title>
<path fill="none" stroke="midnightblue" d="M77.7493,-540.065C78.1304,-475.958 88.0043,-280.089 190,-171 194.022,-166.698 198.708,-163.012 203.767,-159.853"/>
<polygon fill="midnightblue" stroke="midnightblue" points="205.496,-162.896 212.582,-155.02 202.131,-156.758 205.496,-162.896"/>
</g>
<!-- Node21 -->
<g id="node21" class="node"><title>Node21</title>
<g id="a_node21"><a xlink:href="classpb_1_1SensorNearData_1_1MFC_1_1CameraImage.html#a1971c53fd613f32f04bd670fececa520" target="_top" xlink:title="pb::SensorNearData\l::MFC::CameraImage::\lmutable_bmp_image">
<polygon fill="none" stroke="black" points="215,-60.5 215,-101.5 333,-101.5 333,-60.5 215,-60.5"/>
<text text-anchor="start" x="223" y="-89.5" font-family="Helvetica,sans-Serif" font-size="10.00">pb::SensorNearData</text>
<text text-anchor="start" x="223" y="-78.5" font-family="Helvetica,sans-Serif" font-size="10.00">::MFC::CameraImage::</text>
<text text-anchor="middle" x="274" y="-67.5" font-family="Helvetica,sans-Serif" font-size="10.00">mutable_bmp_image</text>
</a>
</g>
</g>
<!-- Node1&#45;&gt;Node21 -->
<g id="edge20" class="edge"><title>Node1&#45;&gt;Node21</title>
<path fill="none" stroke="midnightblue" d="M80.5371,-540.438C90.6932,-461.183 130.75,-176.684 190,-111 194.551,-105.955 200.016,-101.757 205.941,-98.2655"/>
<polygon fill="midnightblue" stroke="midnightblue" points="207.621,-101.337 214.899,-93.6373 204.408,-95.1179 207.621,-101.337"/>
</g>
<!-- Node23 -->
<g id="node23" class="node"><title>Node23</title>
<g id="a_node23"><a xlink:href="classpb_1_1SensorNearData_1_1MFC_1_1CameraImage.html#af96b3cfe11bf7100c887c641f494bc0b" target="_top" xlink:title="pb::SensorNearData\l::MFC::CameraImage::\lmutable_unknown_fields">
<polygon fill="none" stroke="black" points="212,-0.5 212,-41.5 336,-41.5 336,-0.5 212,-0.5"/>
<text text-anchor="start" x="220" y="-29.5" font-family="Helvetica,sans-Serif" font-size="10.00">pb::SensorNearData</text>
<text text-anchor="start" x="220" y="-18.5" font-family="Helvetica,sans-Serif" font-size="10.00">::MFC::CameraImage::</text>
<text text-anchor="middle" x="274" y="-7.5" font-family="Helvetica,sans-Serif" font-size="10.00">mutable_unknown_fields</text>
</a>
</g>
</g>
<!-- Node1&#45;&gt;Node23 -->
<g id="edge22" class="edge"><title>Node1&#45;&gt;Node23</title>
<path fill="none" stroke="midnightblue" d="M79.8907,-540.405C88.149,-454.62 123.645,-126.645 190,-51 193.726,-46.7525 198.1,-43.1063 202.86,-39.9761"/>
<polygon fill="midnightblue" stroke="midnightblue" points="204.835,-42.8784 211.784,-34.8808 201.365,-36.7994 204.835,-42.8784"/>
</g>
<!-- Node3 -->
<g id="node3" class="node"><title>Node3</title>
<g id="a_node3"><a xlink:href="classpb_1_1SensorNearData_1_1MFC_1_1CameraImage.html#ade573de3b5fd2ad6b6fddc71ca3381bd" target="_top" xlink:title="pb::SensorNearData\l::MFC::CameraImage::\lset_has_header">
<polygon fill="none" stroke="black" points="396,-1080.5 396,-1121.5 514,-1121.5 514,-1080.5 396,-1080.5"/>
<text text-anchor="start" x="404" y="-1109.5" font-family="Helvetica,sans-Serif" font-size="10.00">pb::SensorNearData</text>
<text text-anchor="start" x="404" y="-1098.5" font-family="Helvetica,sans-Serif" font-size="10.00">::MFC::CameraImage::</text>
<text text-anchor="middle" x="455" y="-1087.5" font-family="Helvetica,sans-Serif" font-size="10.00">set_has_header</text>
</a>
</g>
</g>
<!-- Node2&#45;&gt;Node3 -->
<g id="edge2" class="edge"><title>Node2&#45;&gt;Node3</title>
<path fill="none" stroke="midnightblue" d="M333.116,-1101C349.927,-1101 368.43,-1101 385.797,-1101"/>
<polygon fill="midnightblue" stroke="midnightblue" points="385.869,-1104.5 395.869,-1101 385.869,-1097.5 385.869,-1104.5"/>
</g>
<!-- Node20 -->
<g id="node20" class="node"><title>Node20</title>
<g id="a_node20"><a xlink:href="classpb_1_1SensorNearData_1_1MFC_1_1CameraImage.html#a90b0cbf957629de21824c4939c2bc321" target="_top" xlink:title="pb::SensorNearData\l::MFC::CameraImage::\lset_has_image_payload">
<polygon fill="none" stroke="black" points="394,-120.5 394,-161.5 516,-161.5 516,-120.5 394,-120.5"/>
<text text-anchor="start" x="402" y="-149.5" font-family="Helvetica,sans-Serif" font-size="10.00">pb::SensorNearData</text>
<text text-anchor="start" x="402" y="-138.5" font-family="Helvetica,sans-Serif" font-size="10.00">::MFC::CameraImage::</text>
<text text-anchor="middle" x="455" y="-127.5" font-family="Helvetica,sans-Serif" font-size="10.00">set_has_image_payload</text>
</a>
</g>
</g>
<!-- Node19&#45;&gt;Node20 -->
<g id="edge19" class="edge"><title>Node19&#45;&gt;Node20</title>
<path fill="none" stroke="midnightblue" d="M335.102,-141C350.599,-141 367.418,-141 383.396,-141"/>
<polygon fill="midnightblue" stroke="midnightblue" points="383.752,-144.5 393.752,-141 383.752,-137.5 383.752,-144.5"/>
</g>
<!-- Node22 -->
<g id="node22" class="node"><title>Node22</title>
<g id="a_node22"><a xlink:href="classpb_1_1SensorNearData_1_1MFC_1_1CameraImage.html#a4218e71cafb38df97e4ff7071284ee7f" target="_top" xlink:title="pb::SensorNearData\l::MFC::CameraImage::\lset_has_bmp_image">
<polygon fill="none" stroke="black" points="396,-60.5 396,-101.5 514,-101.5 514,-60.5 396,-60.5"/>
<text text-anchor="start" x="404" y="-89.5" font-family="Helvetica,sans-Serif" font-size="10.00">pb::SensorNearData</text>
<text text-anchor="start" x="404" y="-78.5" font-family="Helvetica,sans-Serif" font-size="10.00">::MFC::CameraImage::</text>
<text text-anchor="middle" x="455" y="-67.5" font-family="Helvetica,sans-Serif" font-size="10.00">set_has_bmp_image</text>
</a>
</g>
</g>
<!-- Node21&#45;&gt;Node22 -->
<g id="edge21" class="edge"><title>Node21&#45;&gt;Node22</title>
<path fill="none" stroke="midnightblue" d="M333.116,-81C349.927,-81 368.43,-81 385.797,-81"/>
<polygon fill="midnightblue" stroke="midnightblue" points="385.869,-84.5001 395.869,-81 385.869,-77.5001 385.869,-84.5001"/>
</g>
</g>
</svg>
