<?xml version="1.0" encoding="UTF-8" standalone="no"?>
<!DOCTYPE svg PUBLIC "-//W3C//DTD SVG 1.1//EN"
 "http://www.w3.org/Graphics/SVG/1.1/DTD/svg11.dtd">
<!-- Generated by graphviz version 2.36.0 (20140111.2315)
 -->
<!-- Title: E Pages: 1 -->
<svg width="83pt" height="140pt"
 viewBox="0.00 0.00 83.00 140.00" xmlns="http://www.w3.org/2000/svg" xmlns:xlink="http://www.w3.org/1999/xlink">
<g id="graph0" class="graph" transform="scale(1 1) rotate(0) translate(4 136)">
<title>E</title>
<!-- Node1 -->
<g id="node1" class="node"><title>Node1</title>
<polygon fill="#bfbfbf" stroke="black" points="22.5,-0.5 22.5,-19.5 51.5,-19.5 51.5,-0.5 22.5,-0.5"/>
<text text-anchor="middle" x="37" y="-7.5" font-family="Helvetica,sans-Serif" font-size="10.00">E</text>
</g>
<!-- Node2 -->
<g id="node2" class="node"><title>Node2</title>
<g id="a_node2"><a xlink:href="classD.html" target="_top" xlink:title="D">
<polygon fill="none" stroke="black" points="22.5,-56.5 22.5,-75.5 51.5,-75.5 51.5,-56.5 22.5,-56.5"/>
<text text-anchor="middle" x="37" y="-63.5" font-family="Helvetica,sans-Serif" font-size="10.00">D</text>
</a>
</g>
</g>
<!-- Node2&#45;&gt;Node1 -->
<g id="edge1" class="edge"><title>Node2&#45;&gt;Node1</title>
<path fill="none" stroke="midnightblue" d="M37,-45.8045C37,-36.9102 37,-26.7798 37,-19.7511"/>
<polygon fill="midnightblue" stroke="midnightblue" points="33.5001,-46.083 37,-56.083 40.5001,-46.083 33.5001,-46.083"/>
</g>
<!-- Node3 -->
<g id="node3" class="node"><title>Node3</title>
<g id="a_node3"><a xlink:href="classA.html" target="_top" xlink:title="A">
<polygon fill="none" stroke="black" points="-0.5,-112.5 -0.5,-131.5 28.5,-131.5 28.5,-112.5 -0.5,-112.5"/>
<text text-anchor="middle" x="14" y="-119.5" font-family="Helvetica,sans-Serif" font-size="10.00">A</text>
</a>
</g>
</g>
<!-- Node3&#45;&gt;Node2 -->
<g id="edge2" class="edge"><title>Node3&#45;&gt;Node2</title>
<path fill="none" stroke="darkgreen" d="M21.7988,-102.69C25.675,-93.589 30.1792,-83.0141 33.2727,-75.7511"/>
<polygon fill="darkgreen" stroke="darkgreen" points="18.4966,-101.511 17.798,-112.083 24.9367,-104.254 18.4966,-101.511"/>
</g>
<!-- Node4 -->
<g id="node4" class="node"><title>Node4</title>
<g id="a_node4"><a xlink:href="classB.html" target="_top" xlink:title="B">
<polygon fill="none" stroke="black" points="46.5,-112.5 46.5,-131.5 75.5,-131.5 75.5,-112.5 46.5,-112.5"/>
<text text-anchor="middle" x="61" y="-119.5" font-family="Helvetica,sans-Serif" font-size="10.00">B</text>
</a>
</g>
</g>
<!-- Node4&#45;&gt;Node2 -->
<g id="edge3" class="edge"><title>Node4&#45;&gt;Node2</title>
<path fill="none" stroke="#8b1a1a" d="M52.8621,-102.69C48.8174,-93.589 44.1174,-83.0141 40.8894,-75.7511"/>
<polygon fill="#8b1a1a" stroke="#8b1a1a" points="49.7771,-104.366 57.0369,-112.083 56.1738,-101.523 49.7771,-104.366"/>
</g>
</g>
</svg>
