<?xml version="1.0" encoding="UTF-8" standalone="no"?>
<!DOCTYPE svg PUBLIC "-//W3C//DTD SVG 1.1//EN"
 "http://www.w3.org/Graphics/SVG/1.1/DTD/svg11.dtd">
<!-- Generated by graphviz version 2.36.0 (20140111.2315)
 -->
<!-- Title: ProtobufImageWrapper::GetImageWidth Pages: 1 -->
<svg width="552pt" height="115pt"
 viewBox="0.00 0.00 552.00 115.00" xmlns="http://www.w3.org/2000/svg" xmlns:xlink="http://www.w3.org/1999/xlink">
<g id="graph0" class="graph" transform="scale(1 1) rotate(0) translate(4 111)">
<title>ProtobufImageWrapper::GetImageWidth</title>
<!-- Node1 -->
<g id="node1" class="node"><title>Node1</title>
<polygon fill="#bfbfbf" stroke="black" points="0.5,-44 0.5,-74 117.5,-74 117.5,-44 0.5,-44"/>
<text text-anchor="start" x="8.5" y="-62" font-family="Helvetica,sans-Serif" font-size="10.00">ProtobufImageWrapper</text>
<text text-anchor="middle" x="59" y="-51" font-family="Helvetica,sans-Serif" font-size="10.00">::GetImageWidth</text>
</g>
<!-- Node2 -->
<g id="node2" class="node"><title>Node2</title>
<g id="a_node2"><a xlink:href="classFrameSelector.html#a1065c609443efd72a3236cc98f168caa" target="_top" xlink:title="FrameSelector::ReadImage">
<polygon fill="none" stroke="black" points="154.5,-49.5 154.5,-68.5 291.5,-68.5 291.5,-49.5 154.5,-49.5"/>
<text text-anchor="middle" x="223" y="-56.5" font-family="Helvetica,sans-Serif" font-size="10.00">FrameSelector::ReadImage</text>
</a>
</g>
</g>
<!-- Node1&#45;&gt;Node2 -->
<g id="edge1" class="edge"><title>Node1&#45;&gt;Node2</title>
<path fill="none" stroke="midnightblue" d="M127.773,-59C136.569,-59 145.58,-59 154.373,-59"/>
<polygon fill="midnightblue" stroke="midnightblue" points="127.571,-55.5001 117.571,-59 127.571,-62.5001 127.571,-55.5001"/>
</g>
<!-- Node3 -->
<g id="node3" class="node"><title>Node3</title>
<g id="a_node3"><a xlink:href="classController.html#aee012beb2309ae88b7278fa3dad06d80" target="_top" xlink:title="Controller::PlayHDFAsVideo">
<polygon fill="none" stroke="black" points="328,-87.5 328,-106.5 470,-106.5 470,-87.5 328,-87.5"/>
<text text-anchor="middle" x="399" y="-94.5" font-family="Helvetica,sans-Serif" font-size="10.00">Controller::PlayHDFAsVideo</text>
</a>
</g>
</g>
<!-- Node2&#45;&gt;Node3 -->
<g id="edge2" class="edge"><title>Node2&#45;&gt;Node3</title>
<path fill="none" stroke="midnightblue" d="M277.814,-70.7526C302.418,-76.1258 331.187,-82.4086 354.408,-87.4799"/>
<polygon fill="midnightblue" stroke="midnightblue" points="278.424,-67.3033 267.908,-68.589 276.93,-74.1421 278.424,-67.3033"/>
</g>
<!-- Node4 -->
<g id="node4" class="node"><title>Node4</title>
<g id="a_node4"><a xlink:href="StreamDecoder_2main_8cpp.html#ac0f2228420376f4db7e1274f2b41667c" target="_top" xlink:title="main">
<polygon fill="none" stroke="black" points="506,-68.5 506,-87.5 544,-87.5 544,-68.5 506,-68.5"/>
<text text-anchor="middle" x="525" y="-75.5" font-family="Helvetica,sans-Serif" font-size="10.00">main</text>
</a>
</g>
</g>
<!-- Node2&#45;&gt;Node4 -->
<g id="edge5" class="edge"><title>Node2&#45;&gt;Node4</title>
<path fill="none" stroke="midnightblue" d="M302.083,-63.9452C370.934,-68.3058 466.269,-74.3437 505.751,-76.8442"/>
<polygon fill="midnightblue" stroke="midnightblue" points="301.901,-60.4268 291.7,-63.2877 301.459,-67.4128 301.901,-60.4268"/>
</g>
<!-- Node5 -->
<g id="node5" class="node"><title>Node5</title>
<g id="a_node5"><a xlink:href="classController.html#afd6375744f4f31dd254d1e5f1316ff4b" target="_top" xlink:title="Controller::SaveAllImages\lAsJPEG">
<polygon fill="none" stroke="black" points="333.5,-0 333.5,-30 464.5,-30 464.5,-0 333.5,-0"/>
<text text-anchor="start" x="341.5" y="-18" font-family="Helvetica,sans-Serif" font-size="10.00">Controller::SaveAllImages</text>
<text text-anchor="middle" x="399" y="-7" font-family="Helvetica,sans-Serif" font-size="10.00">AsJPEG</text>
</a>
</g>
</g>
<!-- Node2&#45;&gt;Node5 -->
<g id="edge4" class="edge"><title>Node2&#45;&gt;Node5</title>
<path fill="none" stroke="midnightblue" d="M271.558,-46.9739C292.197,-41.7547 316.593,-35.5856 338.423,-30.0654"/>
<polygon fill="midnightblue" stroke="midnightblue" points="270.592,-43.6078 261.755,-49.4527 272.308,-50.3942 270.592,-43.6078"/>
</g>
<!-- Node3&#45;&gt;Node4 -->
<g id="edge3" class="edge"><title>Node3&#45;&gt;Node4</title>
<path fill="none" stroke="midnightblue" d="M472.395,-85.9072C484.8,-84.0064 496.634,-82.1932 505.832,-80.7837"/>
<polygon fill="midnightblue" stroke="midnightblue" points="471.718,-82.47 462.363,-87.4443 472.778,-89.3893 471.718,-82.47"/>
</g>
</g>
</svg>
