<?xml version="1.0" encoding="UTF-8" standalone="no"?>
<!DOCTYPE svg PUBLIC "-//W3C//DTD SVG 1.1//EN"
 "http://www.w3.org/Graphics/SVG/1.1/DTD/svg11.dtd">
<!-- Generated by graphviz version 2.36.0 (20140111.2315)
 -->
<!-- Title: org::libcppa::ack::SerializeWithCachedSizes Pages: 1 -->
<svg width="274pt" height="87pt"
 viewBox="0.00 0.00 274.00 87.00" xmlns="http://www.w3.org/2000/svg" xmlns:xlink="http://www.w3.org/1999/xlink">
<g id="graph0" class="graph" transform="scale(1 1) rotate(0) translate(4 83)">
<title>org::libcppa::ack::SerializeWithCachedSizes</title>
<!-- Node1 -->
<g id="node1" class="node"><title>Node1</title>
<polygon fill="#bfbfbf" stroke="black" points="0.5,-24 0.5,-54 133.5,-54 133.5,-24 0.5,-24"/>
<text text-anchor="start" x="8.5" y="-42" font-family="Helvetica,sans-Serif" font-size="10.00">org::libcppa::ack::</text>
<text text-anchor="middle" x="67" y="-31" font-family="Helvetica,sans-Serif" font-size="10.00">SerializeWithCachedSizes</text>
</g>
<!-- Node2 -->
<g id="node2" class="node"><title>Node2</title>
<g id="a_node2"><a xlink:href="classorg_1_1libcppa_1_1ack.html#a35bfb947a547ba04c92a09226309b7db" target="_top" xlink:title="org::libcppa::ack::\lhas_id">
<polygon fill="none" stroke="black" points="170.5,-49 170.5,-79 265.5,-79 265.5,-49 170.5,-49"/>
<text text-anchor="start" x="178.5" y="-67" font-family="Helvetica,sans-Serif" font-size="10.00">org::libcppa::ack::</text>
<text text-anchor="middle" x="218" y="-56" font-family="Helvetica,sans-Serif" font-size="10.00">has_id</text>
</a>
</g>
</g>
<!-- Node1&#45;&gt;Node2 -->
<g id="edge1" class="edge"><title>Node1&#45;&gt;Node2</title>
<path fill="none" stroke="midnightblue" d="M133.787,-50.0381C142.641,-51.5236 151.66,-53.0369 160.337,-54.4928"/>
<polygon fill="midnightblue" stroke="midnightblue" points="159.893,-57.9672 170.334,-56.1702 161.051,-51.0637 159.893,-57.9672"/>
</g>
<!-- Node3 -->
<g id="node3" class="node"><title>Node3</title>
<g id="a_node3"><a xlink:href="classorg_1_1libcppa_1_1ack.html#ac74fc52fa20a38de3fbc9977b5189630" target="_top" xlink:title="org::libcppa::ack::\lunknown_fields">
<polygon fill="none" stroke="black" points="170.5,-0 170.5,-30 265.5,-30 265.5,-0 170.5,-0"/>
<text text-anchor="start" x="178.5" y="-18" font-family="Helvetica,sans-Serif" font-size="10.00">org::libcppa::ack::</text>
<text text-anchor="middle" x="218" y="-7" font-family="Helvetica,sans-Serif" font-size="10.00">unknown_fields</text>
</a>
</g>
</g>
<!-- Node1&#45;&gt;Node3 -->
<g id="edge2" class="edge"><title>Node1&#45;&gt;Node3</title>
<path fill="none" stroke="midnightblue" d="M133.787,-28.4034C142.641,-26.9774 151.66,-25.5245 160.337,-24.127"/>
<polygon fill="midnightblue" stroke="midnightblue" points="161.018,-27.5624 170.334,-22.5166 159.905,-20.6515 161.018,-27.5624"/>
</g>
</g>
</svg>
