<?xml version="1.0" encoding="UTF-8" standalone="no"?>
<!DOCTYPE svg PUBLIC "-//W3C//DTD SVG 1.1//EN"
 "http://www.w3.org/Graphics/SVG/1.1/DTD/svg11.dtd">
<!-- Generated by graphviz version 2.36.0 (20140111.2315)
 -->
<!-- Title: pb::SensorNearData::MFC::CameraImage::SerializeWithCachedSizesToArray Pages: 1 -->
<svg width="362pt" height="2209pt"
 viewBox="0.00 0.00 362.00 2209.00" xmlns="http://www.w3.org/2000/svg" xmlns:xlink="http://www.w3.org/1999/xlink">
<g id="graph0" class="graph" transform="scale(1 1) rotate(0) translate(4 2205)">
<title>pb::SensorNearData::MFC::CameraImage::SerializeWithCachedSizesToArray</title>
<!-- Node1 -->
<g id="node1" class="node"><title>Node1</title>
<polygon fill="#bfbfbf" stroke="black" points="0.5,-1079.5 0.5,-1120.5 167.5,-1120.5 167.5,-1079.5 0.5,-1079.5"/>
<text text-anchor="start" x="8.5" y="-1108.5" font-family="Helvetica,sans-Serif" font-size="10.00">pb::SensorNearData</text>
<text text-anchor="start" x="8.5" y="-1097.5" font-family="Helvetica,sans-Serif" font-size="10.00">::MFC::CameraImage::</text>
<text text-anchor="middle" x="84" y="-1086.5" font-family="Helvetica,sans-Serif" font-size="10.00">SerializeWithCachedSizesToArray</text>
</g>
<!-- Node2 -->
<g id="node2" class="node"><title>Node2</title>
<g id="a_node2"><a xlink:href="classpb_1_1SensorNearData_1_1MFC_1_1CameraImage.html#a0d5dce7ebc7c3620d52b36c5cc20f0f7" target="_top" xlink:title="pb::SensorNearData\l::MFC::CameraImage::\lhas_header">
<polygon fill="none" stroke="black" points="220,-2159.5 220,-2200.5 338,-2200.5 338,-2159.5 220,-2159.5"/>
<text text-anchor="start" x="228" y="-2188.5" font-family="Helvetica,sans-Serif" font-size="10.00">pb::SensorNearData</text>
<text text-anchor="start" x="228" y="-2177.5" font-family="Helvetica,sans-Serif" font-size="10.00">::MFC::CameraImage::</text>
<text text-anchor="middle" x="279" y="-2166.5" font-family="Helvetica,sans-Serif" font-size="10.00">has_header</text>
</a>
</g>
</g>
<!-- Node1&#45;&gt;Node2 -->
<g id="edge1" class="edge"><title>Node1&#45;&gt;Node2</title>
<path fill="none" stroke="midnightblue" d="M86.1084,-1120.9C93.7139,-1261.25 139.802,-2063.41 204,-2149 206.264,-2152.02 208.878,-2154.75 211.743,-2157.21"/>
<polygon fill="midnightblue" stroke="midnightblue" points="209.703,-2160.05 219.84,-2163.13 213.836,-2154.4 209.703,-2160.05"/>
</g>
<!-- Node3 -->
<g id="node3" class="node"><title>Node3</title>
<g id="a_node3"><a xlink:href="classpb_1_1SensorNearData_1_1MFC_1_1CameraImage.html#aa744416e8e2a2b9e5c6c3dd24e54868e" target="_top" xlink:title="pb::SensorNearData\l::MFC::CameraImage::\lheader">
<polygon fill="none" stroke="black" points="220,-2099.5 220,-2140.5 338,-2140.5 338,-2099.5 220,-2099.5"/>
<text text-anchor="start" x="228" y="-2128.5" font-family="Helvetica,sans-Serif" font-size="10.00">pb::SensorNearData</text>
<text text-anchor="start" x="228" y="-2117.5" font-family="Helvetica,sans-Serif" font-size="10.00">::MFC::CameraImage::</text>
<text text-anchor="middle" x="279" y="-2106.5" font-family="Helvetica,sans-Serif" font-size="10.00">header</text>
</a>
</g>
</g>
<!-- Node1&#45;&gt;Node3 -->
<g id="edge2" class="edge"><title>Node1&#45;&gt;Node3</title>
<path fill="none" stroke="midnightblue" d="M84.7497,-1120.64C83.5943,-1248.2 83.2165,-1929.1 204,-2089 206.275,-2092.01 208.897,-2094.73 211.767,-2097.19"/>
<polygon fill="midnightblue" stroke="midnightblue" points="209.735,-2100.04 219.877,-2103.11 213.86,-2094.39 209.735,-2100.04"/>
</g>
<!-- Node4 -->
<g id="node4" class="node"><title>Node4</title>
<g id="a_node4"><a xlink:href="classpb_1_1SensorNearData_1_1MFC_1_1CameraImage.html#a00a22309b55d4187058a9eb1c4786dd5" target="_top" xlink:title="pb::SensorNearData\l::MFC::CameraImage::\lhas_image_counter">
<polygon fill="none" stroke="black" points="220,-2039.5 220,-2080.5 338,-2080.5 338,-2039.5 220,-2039.5"/>
<text text-anchor="start" x="228" y="-2068.5" font-family="Helvetica,sans-Serif" font-size="10.00">pb::SensorNearData</text>
<text text-anchor="start" x="228" y="-2057.5" font-family="Helvetica,sans-Serif" font-size="10.00">::MFC::CameraImage::</text>
<text text-anchor="middle" x="279" y="-2046.5" font-family="Helvetica,sans-Serif" font-size="10.00">has_image_counter</text>
</a>
</g>
</g>
<!-- Node1&#45;&gt;Node4 -->
<g id="edge3" class="edge"><title>Node1&#45;&gt;Node4</title>
<path fill="none" stroke="midnightblue" d="M84.928,-1120.57C84.8868,-1243.4 90.2312,-1879.58 204,-2029 206.286,-2032 208.917,-2034.72 211.795,-2037.17"/>
<polygon fill="midnightblue" stroke="midnightblue" points="209.772,-2040.03 219.919,-2043.07 213.887,-2034.36 209.772,-2040.03"/>
</g>
<!-- Node5 -->
<g id="node5" class="node"><title>Node5</title>
<g id="a_node5"><a xlink:href="classpb_1_1SensorNearData_1_1MFC_1_1CameraImage.html#a5b35b9651ff42a3a5eed159355c45f10" target="_top" xlink:title="pb::SensorNearData\l::MFC::CameraImage::\limage_counter">
<polygon fill="none" stroke="black" points="220,-1979.5 220,-2020.5 338,-2020.5 338,-1979.5 220,-1979.5"/>
<text text-anchor="start" x="228" y="-2008.5" font-family="Helvetica,sans-Serif" font-size="10.00">pb::SensorNearData</text>
<text text-anchor="start" x="228" y="-1997.5" font-family="Helvetica,sans-Serif" font-size="10.00">::MFC::CameraImage::</text>
<text text-anchor="middle" x="279" y="-1986.5" font-family="Helvetica,sans-Serif" font-size="10.00">image_counter</text>
</a>
</g>
</g>
<!-- Node1&#45;&gt;Node5 -->
<g id="edge4" class="edge"><title>Node1&#45;&gt;Node5</title>
<path fill="none" stroke="midnightblue" d="M85.1317,-1120.77C86.2736,-1239.34 97.3131,-1830.13 204,-1969 206.299,-1971.99 208.941,-1974.7 211.826,-1977.15"/>
<polygon fill="midnightblue" stroke="midnightblue" points="209.813,-1980.01 219.966,-1983.04 213.917,-1974.34 209.813,-1980.01"/>
</g>
<!-- Node6 -->
<g id="node6" class="node"><title>Node6</title>
<g id="a_node6"><a xlink:href="classpb_1_1SensorNearData_1_1MFC_1_1CameraImage.html#a013374a7320eaf297cb86cc491d3604b" target="_top" xlink:title="pb::SensorNearData\l::MFC::CameraImage::\lhas_image_width">
<polygon fill="none" stroke="black" points="220,-1919.5 220,-1960.5 338,-1960.5 338,-1919.5 220,-1919.5"/>
<text text-anchor="start" x="228" y="-1948.5" font-family="Helvetica,sans-Serif" font-size="10.00">pb::SensorNearData</text>
<text text-anchor="start" x="228" y="-1937.5" font-family="Helvetica,sans-Serif" font-size="10.00">::MFC::CameraImage::</text>
<text text-anchor="middle" x="279" y="-1926.5" font-family="Helvetica,sans-Serif" font-size="10.00">has_image_width</text>
</a>
</g>
</g>
<!-- Node1&#45;&gt;Node6 -->
<g id="edge5" class="edge"><title>Node1&#45;&gt;Node6</title>
<path fill="none" stroke="midnightblue" d="M85.3659,-1120.81C87.7539,-1234.56 104.331,-1780.6 204,-1909 206.202,-1911.84 208.711,-1914.42 211.443,-1916.76"/>
<polygon fill="midnightblue" stroke="midnightblue" points="209.524,-1919.7 219.662,-1922.77 213.656,-1914.04 209.524,-1919.7"/>
</g>
<!-- Node7 -->
<g id="node7" class="node"><title>Node7</title>
<g id="a_node7"><a xlink:href="classpb_1_1SensorNearData_1_1MFC_1_1CameraImage.html#a094b9c34c186698c13638d66d376e75c" target="_top" xlink:title="pb::SensorNearData\l::MFC::CameraImage::\limage_width">
<polygon fill="none" stroke="black" points="220,-1859.5 220,-1900.5 338,-1900.5 338,-1859.5 220,-1859.5"/>
<text text-anchor="start" x="228" y="-1888.5" font-family="Helvetica,sans-Serif" font-size="10.00">pb::SensorNearData</text>
<text text-anchor="start" x="228" y="-1877.5" font-family="Helvetica,sans-Serif" font-size="10.00">::MFC::CameraImage::</text>
<text text-anchor="middle" x="279" y="-1866.5" font-family="Helvetica,sans-Serif" font-size="10.00">image_width</text>
</a>
</g>
</g>
<!-- Node1&#45;&gt;Node7 -->
<g id="edge6" class="edge"><title>Node1&#45;&gt;Node7</title>
<path fill="none" stroke="midnightblue" d="M85.6318,-1120.68C89.3258,-1229.06 111.283,-1730.96 204,-1849 206.218,-1851.82 208.74,-1854.39 211.482,-1856.73"/>
<polygon fill="midnightblue" stroke="midnightblue" points="209.577,-1859.67 219.723,-1862.73 213.694,-1854.01 209.577,-1859.67"/>
</g>
<!-- Node8 -->
<g id="node8" class="node"><title>Node8</title>
<g id="a_node8"><a xlink:href="classpb_1_1SensorNearData_1_1MFC_1_1CameraImage.html#a8eb2949c4a1836b925c8d409572350ca" target="_top" xlink:title="pb::SensorNearData\l::MFC::CameraImage::\lhas_image_height">
<polygon fill="none" stroke="black" points="220,-1799.5 220,-1840.5 338,-1840.5 338,-1799.5 220,-1799.5"/>
<text text-anchor="start" x="228" y="-1828.5" font-family="Helvetica,sans-Serif" font-size="10.00">pb::SensorNearData</text>
<text text-anchor="start" x="228" y="-1817.5" font-family="Helvetica,sans-Serif" font-size="10.00">::MFC::CameraImage::</text>
<text text-anchor="middle" x="279" y="-1806.5" font-family="Helvetica,sans-Serif" font-size="10.00">has_image_height</text>
</a>
</g>
</g>
<!-- Node1&#45;&gt;Node8 -->
<g id="edge7" class="edge"><title>Node1&#45;&gt;Node8</title>
<path fill="none" stroke="midnightblue" d="M85.9477,-1120.71C91.0472,-1223.85 118.261,-1681.35 204,-1789 206.237,-1791.81 208.774,-1794.37 211.528,-1796.7"/>
<polygon fill="midnightblue" stroke="midnightblue" points="209.639,-1799.65 219.794,-1802.67 213.739,-1793.97 209.639,-1799.65"/>
</g>
<!-- Node9 -->
<g id="node9" class="node"><title>Node9</title>
<g id="a_node9"><a xlink:href="classpb_1_1SensorNearData_1_1MFC_1_1CameraImage.html#aa103619cccc6310931c87d03fcefbed6" target="_top" xlink:title="pb::SensorNearData\l::MFC::CameraImage::\limage_height">
<polygon fill="none" stroke="black" points="220,-1739.5 220,-1780.5 338,-1780.5 338,-1739.5 220,-1739.5"/>
<text text-anchor="start" x="228" y="-1768.5" font-family="Helvetica,sans-Serif" font-size="10.00">pb::SensorNearData</text>
<text text-anchor="start" x="228" y="-1757.5" font-family="Helvetica,sans-Serif" font-size="10.00">::MFC::CameraImage::</text>
<text text-anchor="middle" x="279" y="-1746.5" font-family="Helvetica,sans-Serif" font-size="10.00">image_height</text>
</a>
</g>
</g>
<!-- Node1&#45;&gt;Node9 -->
<g id="edge8" class="edge"><title>Node1&#45;&gt;Node9</title>
<path fill="none" stroke="midnightblue" d="M86.3074,-1120.51C92.879,-1217.74 125.155,-1631.61 204,-1729 206.26,-1731.79 208.814,-1734.33 211.582,-1736.65"/>
<polygon fill="midnightblue" stroke="midnightblue" points="209.712,-1739.62 219.878,-1742.6 213.792,-1733.93 209.712,-1739.62"/>
</g>
<!-- Node10 -->
<g id="node10" class="node"><title>Node10</title>
<g id="a_node10"><a xlink:href="classpb_1_1SensorNearData_1_1MFC_1_1CameraImage.html#a7752fff4312aaaeefe8aa401149fe96d" target="_top" xlink:title="pb::SensorNearData\l::MFC::CameraImage::\lhas_image_shift_u">
<polygon fill="none" stroke="black" points="220,-1679.5 220,-1720.5 338,-1720.5 338,-1679.5 220,-1679.5"/>
<text text-anchor="start" x="228" y="-1708.5" font-family="Helvetica,sans-Serif" font-size="10.00">pb::SensorNearData</text>
<text text-anchor="start" x="228" y="-1697.5" font-family="Helvetica,sans-Serif" font-size="10.00">::MFC::CameraImage::</text>
<text text-anchor="middle" x="279" y="-1686.5" font-family="Helvetica,sans-Serif" font-size="10.00">has_image_shift_u</text>
</a>
</g>
</g>
<!-- Node1&#45;&gt;Node10 -->
<g id="edge9" class="edge"><title>Node1&#45;&gt;Node10</title>
<path fill="none" stroke="midnightblue" d="M86.7676,-1120.67C94.9834,-1212.39 132.12,-1581.93 204,-1669 206.286,-1671.77 208.862,-1674.3 211.647,-1676.6"/>
<polygon fill="midnightblue" stroke="midnightblue" points="209.8,-1679.58 219.979,-1682.52 213.854,-1673.87 209.8,-1679.58"/>
</g>
<!-- Node11 -->
<g id="node11" class="node"><title>Node11</title>
<g id="a_node11"><a xlink:href="classpb_1_1SensorNearData_1_1MFC_1_1CameraImage.html#a6584c7c2223d8b9417c538dbc66667a9" target="_top" xlink:title="pb::SensorNearData\l::MFC::CameraImage::\limage_shift_u">
<polygon fill="none" stroke="black" points="220,-1619.5 220,-1660.5 338,-1660.5 338,-1619.5 220,-1619.5"/>
<text text-anchor="start" x="228" y="-1648.5" font-family="Helvetica,sans-Serif" font-size="10.00">pb::SensorNearData</text>
<text text-anchor="start" x="228" y="-1637.5" font-family="Helvetica,sans-Serif" font-size="10.00">::MFC::CameraImage::</text>
<text text-anchor="middle" x="279" y="-1626.5" font-family="Helvetica,sans-Serif" font-size="10.00">image_shift_u</text>
</a>
</g>
</g>
<!-- Node1&#45;&gt;Node11 -->
<g id="edge10" class="edge"><title>Node1&#45;&gt;Node11</title>
<path fill="none" stroke="midnightblue" d="M87.3316,-1120.77C97.3284,-1206.53 139.034,-1532.16 204,-1609 206.272,-1611.69 208.817,-1614.15 211.558,-1616.4"/>
<polygon fill="midnightblue" stroke="midnightblue" points="209.557,-1619.27 219.739,-1622.2 213.605,-1613.56 209.557,-1619.27"/>
</g>
<!-- Node12 -->
<g id="node12" class="node"><title>Node12</title>
<g id="a_node12"><a xlink:href="classpb_1_1SensorNearData_1_1MFC_1_1CameraImage.html#a773feed9504368b849db39f2c916db21" target="_top" xlink:title="pb::SensorNearData\l::MFC::CameraImage::\lhas_image_shift_v">
<polygon fill="none" stroke="black" points="220,-1559.5 220,-1600.5 338,-1600.5 338,-1559.5 220,-1559.5"/>
<text text-anchor="start" x="228" y="-1588.5" font-family="Helvetica,sans-Serif" font-size="10.00">pb::SensorNearData</text>
<text text-anchor="start" x="228" y="-1577.5" font-family="Helvetica,sans-Serif" font-size="10.00">::MFC::CameraImage::</text>
<text text-anchor="middle" x="279" y="-1566.5" font-family="Helvetica,sans-Serif" font-size="10.00">has_image_shift_v</text>
</a>
</g>
</g>
<!-- Node1&#45;&gt;Node12 -->
<g id="edge11" class="edge"><title>Node1&#45;&gt;Node12</title>
<path fill="none" stroke="midnightblue" d="M84.4163,-1120.8C83.5879,-1190.43 90.1209,-1418.26 204,-1549 206.311,-1551.65 208.887,-1554.09 211.653,-1556.31"/>
<polygon fill="midnightblue" stroke="midnightblue" points="209.686,-1559.21 219.888,-1562.07 213.696,-1553.47 209.686,-1559.21"/>
</g>
<!-- Node13 -->
<g id="node13" class="node"><title>Node13</title>
<g id="a_node13"><a xlink:href="classpb_1_1SensorNearData_1_1MFC_1_1CameraImage.html#aa64da64f1bdcc6e12132710d9bc8aab0" target="_top" xlink:title="pb::SensorNearData\l::MFC::CameraImage::\limage_shift_v">
<polygon fill="none" stroke="black" points="220,-1499.5 220,-1540.5 338,-1540.5 338,-1499.5 220,-1499.5"/>
<text text-anchor="start" x="228" y="-1528.5" font-family="Helvetica,sans-Serif" font-size="10.00">pb::SensorNearData</text>
<text text-anchor="start" x="228" y="-1517.5" font-family="Helvetica,sans-Serif" font-size="10.00">::MFC::CameraImage::</text>
<text text-anchor="middle" x="279" y="-1506.5" font-family="Helvetica,sans-Serif" font-size="10.00">image_shift_v</text>
</a>
</g>
</g>
<!-- Node1&#45;&gt;Node13 -->
<g id="edge12" class="edge"><title>Node1&#45;&gt;Node13</title>
<path fill="none" stroke="midnightblue" d="M85.435,-1120.69C87.8592,-1184.06 103.544,-1377.98 204,-1489 206.243,-1491.48 208.716,-1493.77 211.356,-1495.87"/>
<polygon fill="midnightblue" stroke="midnightblue" points="209.503,-1498.85 219.713,-1501.68 213.497,-1493.1 209.503,-1498.85"/>
</g>
<!-- Node14 -->
<g id="node14" class="node"><title>Node14</title>
<g id="a_node14"><a xlink:href="classpb_1_1SensorNearData_1_1MFC_1_1CameraImage.html#af1eb7f1934a4fb1cc45097877bb12ee9" target="_top" xlink:title="pb::SensorNearData\l::MFC::CameraImage::\lhas_o_image_width">
<polygon fill="none" stroke="black" points="220,-1439.5 220,-1480.5 338,-1480.5 338,-1439.5 220,-1439.5"/>
<text text-anchor="start" x="228" y="-1468.5" font-family="Helvetica,sans-Serif" font-size="10.00">pb::SensorNearData</text>
<text text-anchor="start" x="228" y="-1457.5" font-family="Helvetica,sans-Serif" font-size="10.00">::MFC::CameraImage::</text>
<text text-anchor="middle" x="279" y="-1446.5" font-family="Helvetica,sans-Serif" font-size="10.00">has_o_image_width</text>
</a>
</g>
</g>
<!-- Node1&#45;&gt;Node14 -->
<g id="edge13" class="edge"><title>Node1&#45;&gt;Node14</title>
<path fill="none" stroke="midnightblue" d="M86.7967,-1120.71C92.7827,-1177.49 116.91,-1337.48 204,-1429 206.304,-1431.42 208.827,-1433.66 211.507,-1435.73"/>
<polygon fill="midnightblue" stroke="midnightblue" points="209.714,-1438.75 219.957,-1441.45 213.638,-1432.95 209.714,-1438.75"/>
</g>
<!-- Node15 -->
<g id="node15" class="node"><title>Node15</title>
<g id="a_node15"><a xlink:href="classpb_1_1SensorNearData_1_1MFC_1_1CameraImage.html#acb62cc3e178142d1a553e2dee6703386" target="_top" xlink:title="pb::SensorNearData\l::MFC::CameraImage::\lo_image_width">
<polygon fill="none" stroke="black" points="220,-1379.5 220,-1420.5 338,-1420.5 338,-1379.5 220,-1379.5"/>
<text text-anchor="start" x="228" y="-1408.5" font-family="Helvetica,sans-Serif" font-size="10.00">pb::SensorNearData</text>
<text text-anchor="start" x="228" y="-1397.5" font-family="Helvetica,sans-Serif" font-size="10.00">::MFC::CameraImage::</text>
<text text-anchor="middle" x="279" y="-1386.5" font-family="Helvetica,sans-Serif" font-size="10.00">o_image_width</text>
</a>
</g>
</g>
<!-- Node1&#45;&gt;Node15 -->
<g id="edge14" class="edge"><title>Node1&#45;&gt;Node15</title>
<path fill="none" stroke="midnightblue" d="M88.7444,-1120.85C98.6772,-1170.43 130.158,-1296.6 204,-1369 206.337,-1371.29 208.869,-1373.42 211.54,-1375.41"/>
<polygon fill="midnightblue" stroke="midnightblue" points="209.636,-1378.34 219.914,-1380.92 213.484,-1372.5 209.636,-1378.34"/>
</g>
<!-- Node16 -->
<g id="node16" class="node"><title>Node16</title>
<g id="a_node16"><a xlink:href="classpb_1_1SensorNearData_1_1MFC_1_1CameraImage.html#a7a6ca73b20db747b3c42fe8fd8bcec38" target="_top" xlink:title="pb::SensorNearData\l::MFC::CameraImage::\lhas_o_image_height">
<polygon fill="none" stroke="black" points="220,-1319.5 220,-1360.5 338,-1360.5 338,-1319.5 220,-1319.5"/>
<text text-anchor="start" x="228" y="-1348.5" font-family="Helvetica,sans-Serif" font-size="10.00">pb::SensorNearData</text>
<text text-anchor="start" x="228" y="-1337.5" font-family="Helvetica,sans-Serif" font-size="10.00">::MFC::CameraImage::</text>
<text text-anchor="middle" x="279" y="-1326.5" font-family="Helvetica,sans-Serif" font-size="10.00">has_o_image_height</text>
</a>
</g>
</g>
<!-- Node1&#45;&gt;Node16 -->
<g id="edge15" class="edge"><title>Node1&#45;&gt;Node16</title>
<path fill="none" stroke="midnightblue" d="M91.6687,-1120.75C105.91,-1162.01 143.054,-1255.01 204,-1309 206.248,-1310.99 208.643,-1312.87 211.143,-1314.63"/>
<polygon fill="midnightblue" stroke="midnightblue" points="209.667,-1317.84 219.991,-1320.22 213.404,-1311.92 209.667,-1317.84"/>
</g>
<!-- Node17 -->
<g id="node17" class="node"><title>Node17</title>
<g id="a_node17"><a xlink:href="classpb_1_1SensorNearData_1_1MFC_1_1CameraImage.html#a583847832e6bac67c6994530de643673" target="_top" xlink:title="pb::SensorNearData\l::MFC::CameraImage::\lo_image_height">
<polygon fill="none" stroke="black" points="220,-1259.5 220,-1300.5 338,-1300.5 338,-1259.5 220,-1259.5"/>
<text text-anchor="start" x="228" y="-1288.5" font-family="Helvetica,sans-Serif" font-size="10.00">pb::SensorNearData</text>
<text text-anchor="start" x="228" y="-1277.5" font-family="Helvetica,sans-Serif" font-size="10.00">::MFC::CameraImage::</text>
<text text-anchor="middle" x="279" y="-1266.5" font-family="Helvetica,sans-Serif" font-size="10.00">o_image_height</text>
</a>
</g>
</g>
<!-- Node1&#45;&gt;Node17 -->
<g id="edge16" class="edge"><title>Node1&#45;&gt;Node17</title>
<path fill="none" stroke="midnightblue" d="M96.7168,-1120.53C115.618,-1152.04 155.653,-1212.49 204,-1249 206.477,-1250.87 209.083,-1252.65 211.777,-1254.34"/>
<polygon fill="midnightblue" stroke="midnightblue" points="210.219,-1257.48 220.631,-1259.44 213.711,-1251.42 210.219,-1257.48"/>
</g>
<!-- Node18 -->
<g id="node18" class="node"><title>Node18</title>
<g id="a_node18"><a xlink:href="classpb_1_1SensorNearData_1_1MFC_1_1CameraImage.html#ab7d8089509a4744a809b34ef4a5e6168" target="_top" xlink:title="pb::SensorNearData\l::MFC::CameraImage::\lhas_imager_size_u">
<polygon fill="none" stroke="black" points="220,-1199.5 220,-1240.5 338,-1240.5 338,-1199.5 220,-1199.5"/>
<text text-anchor="start" x="228" y="-1228.5" font-family="Helvetica,sans-Serif" font-size="10.00">pb::SensorNearData</text>
<text text-anchor="start" x="228" y="-1217.5" font-family="Helvetica,sans-Serif" font-size="10.00">::MFC::CameraImage::</text>
<text text-anchor="middle" x="279" y="-1206.5" font-family="Helvetica,sans-Serif" font-size="10.00">has_imager_size_u</text>
</a>
</g>
</g>
<!-- Node1&#45;&gt;Node18 -->
<g id="edge17" class="edge"><title>Node1&#45;&gt;Node18</title>
<path fill="none" stroke="midnightblue" d="M108.85,-1120.62C132.047,-1139.98 168.839,-1168.89 204,-1189 207.605,-1191.06 211.374,-1193.06 215.219,-1194.99"/>
<polygon fill="midnightblue" stroke="midnightblue" points="213.762,-1198.17 224.291,-1199.35 216.793,-1191.86 213.762,-1198.17"/>
</g>
<!-- Node19 -->
<g id="node19" class="node"><title>Node19</title>
<g id="a_node19"><a xlink:href="classpb_1_1SensorNearData_1_1MFC_1_1CameraImage.html#adcd74af7097d7e0d3e0c6252b8212eb8" target="_top" xlink:title="pb::SensorNearData\l::MFC::CameraImage::\limager_size_u">
<polygon fill="none" stroke="black" points="220,-1139.5 220,-1180.5 338,-1180.5 338,-1139.5 220,-1139.5"/>
<text text-anchor="start" x="228" y="-1168.5" font-family="Helvetica,sans-Serif" font-size="10.00">pb::SensorNearData</text>
<text text-anchor="start" x="228" y="-1157.5" font-family="Helvetica,sans-Serif" font-size="10.00">::MFC::CameraImage::</text>
<text text-anchor="middle" x="279" y="-1146.5" font-family="Helvetica,sans-Serif" font-size="10.00">imager_size_u</text>
</a>
</g>
</g>
<!-- Node1&#45;&gt;Node19 -->
<g id="edge18" class="edge"><title>Node1&#45;&gt;Node19</title>
<path fill="none" stroke="midnightblue" d="M151.15,-1120.56C170.106,-1126.46 190.802,-1132.89 209.874,-1138.82"/>
<polygon fill="midnightblue" stroke="midnightblue" points="209.094,-1142.24 219.683,-1141.87 211.172,-1135.56 209.094,-1142.24"/>
</g>
<!-- Node20 -->
<g id="node20" class="node"><title>Node20</title>
<g id="a_node20"><a xlink:href="classpb_1_1SensorNearData_1_1MFC_1_1CameraImage.html#acd15f3b5ee6ae2ab2b1bfc0f46951dc0" target="_top" xlink:title="pb::SensorNearData\l::MFC::CameraImage::\lhas_imager_size_v">
<polygon fill="none" stroke="black" points="220,-1079.5 220,-1120.5 338,-1120.5 338,-1079.5 220,-1079.5"/>
<text text-anchor="start" x="228" y="-1108.5" font-family="Helvetica,sans-Serif" font-size="10.00">pb::SensorNearData</text>
<text text-anchor="start" x="228" y="-1097.5" font-family="Helvetica,sans-Serif" font-size="10.00">::MFC::CameraImage::</text>
<text text-anchor="middle" x="279" y="-1086.5" font-family="Helvetica,sans-Serif" font-size="10.00">has_imager_size_v</text>
</a>
</g>
</g>
<!-- Node1&#45;&gt;Node20 -->
<g id="edge19" class="edge"><title>Node1&#45;&gt;Node20</title>
<path fill="none" stroke="midnightblue" d="M167.689,-1100C181.712,-1100 196.133,-1100 209.733,-1100"/>
<polygon fill="midnightblue" stroke="midnightblue" points="209.953,-1103.5 219.953,-1100 209.953,-1096.5 209.953,-1103.5"/>
</g>
<!-- Node21 -->
<g id="node21" class="node"><title>Node21</title>
<g id="a_node21"><a xlink:href="classpb_1_1SensorNearData_1_1MFC_1_1CameraImage.html#a0abb7bfa0d756392556d88b1be28c38b" target="_top" xlink:title="pb::SensorNearData\l::MFC::CameraImage::\limager_size_v">
<polygon fill="none" stroke="black" points="220,-1019.5 220,-1060.5 338,-1060.5 338,-1019.5 220,-1019.5"/>
<text text-anchor="start" x="228" y="-1048.5" font-family="Helvetica,sans-Serif" font-size="10.00">pb::SensorNearData</text>
<text text-anchor="start" x="228" y="-1037.5" font-family="Helvetica,sans-Serif" font-size="10.00">::MFC::CameraImage::</text>
<text text-anchor="middle" x="279" y="-1026.5" font-family="Helvetica,sans-Serif" font-size="10.00">imager_size_v</text>
</a>
</g>
</g>
<!-- Node1&#45;&gt;Node21 -->
<g id="edge20" class="edge"><title>Node1&#45;&gt;Node21</title>
<path fill="none" stroke="midnightblue" d="M151.15,-1079.44C170.106,-1073.54 190.802,-1067.11 209.874,-1061.18"/>
<polygon fill="midnightblue" stroke="midnightblue" points="211.172,-1064.44 219.683,-1058.13 209.094,-1057.76 211.172,-1064.44"/>
</g>
<!-- Node22 -->
<g id="node22" class="node"><title>Node22</title>
<g id="a_node22"><a xlink:href="classpb_1_1SensorNearData_1_1MFC_1_1CameraImage.html#a7ce3f4bae45b3eed14d94973d71ddf08" target="_top" xlink:title="pb::SensorNearData\l::MFC::CameraImage::\lhas_o_image_pattern">
<polygon fill="none" stroke="black" points="220,-959.5 220,-1000.5 338,-1000.5 338,-959.5 220,-959.5"/>
<text text-anchor="start" x="228" y="-988.5" font-family="Helvetica,sans-Serif" font-size="10.00">pb::SensorNearData</text>
<text text-anchor="start" x="228" y="-977.5" font-family="Helvetica,sans-Serif" font-size="10.00">::MFC::CameraImage::</text>
<text text-anchor="middle" x="279" y="-966.5" font-family="Helvetica,sans-Serif" font-size="10.00">has_o_image_pattern</text>
</a>
</g>
</g>
<!-- Node1&#45;&gt;Node22 -->
<g id="edge21" class="edge"><title>Node1&#45;&gt;Node22</title>
<path fill="none" stroke="midnightblue" d="M108.318,-1079.41C131.421,-1059.75 168.409,-1030.21 204,-1010 207.046,-1008.27 210.211,-1006.59 213.443,-1004.97"/>
<polygon fill="midnightblue" stroke="midnightblue" points="215.173,-1008.02 222.682,-1000.55 212.151,-1001.71 215.173,-1008.02"/>
</g>
<!-- Node23 -->
<g id="node23" class="node"><title>Node23</title>
<g id="a_node23"><a xlink:href="classpb_1_1SensorNearData_1_1MFC_1_1CameraImage.html#a2f8b4aafd92b4531613082b48ff2fa00" target="_top" xlink:title="pb::SensorNearData\l::MFC::CameraImage::\lo_image_pattern">
<polygon fill="none" stroke="black" points="220,-899.5 220,-940.5 338,-940.5 338,-899.5 220,-899.5"/>
<text text-anchor="start" x="228" y="-928.5" font-family="Helvetica,sans-Serif" font-size="10.00">pb::SensorNearData</text>
<text text-anchor="start" x="228" y="-917.5" font-family="Helvetica,sans-Serif" font-size="10.00">::MFC::CameraImage::</text>
<text text-anchor="middle" x="279" y="-906.5" font-family="Helvetica,sans-Serif" font-size="10.00">o_image_pattern</text>
</a>
</g>
</g>
<!-- Node1&#45;&gt;Node23 -->
<g id="edge22" class="edge"><title>Node1&#45;&gt;Node23</title>
<path fill="none" stroke="midnightblue" d="M96.6314,-1079.26C115.418,-1047.44 155.303,-986.457 204,-950 206.289,-948.286 208.689,-946.654 211.168,-945.101"/>
<polygon fill="midnightblue" stroke="midnightblue" points="212.916,-948.134 219.852,-940.125 209.436,-942.06 212.916,-948.134"/>
</g>
<!-- Node24 -->
<g id="node24" class="node"><title>Node24</title>
<g id="a_node24"><a xlink:href="classpb_1_1SensorNearData_1_1MFC_1_1CameraImage.html#a80e0379d8727f22b32daa1590998ef8f" target="_top" xlink:title="pb::SensorNearData\l::MFC::CameraImage::\lhas_image_compressed">
<polygon fill="none" stroke="black" points="218,-839.5 218,-880.5 340,-880.5 340,-839.5 218,-839.5"/>
<text text-anchor="start" x="226" y="-868.5" font-family="Helvetica,sans-Serif" font-size="10.00">pb::SensorNearData</text>
<text text-anchor="start" x="226" y="-857.5" font-family="Helvetica,sans-Serif" font-size="10.00">::MFC::CameraImage::</text>
<text text-anchor="middle" x="279" y="-846.5" font-family="Helvetica,sans-Serif" font-size="10.00">has_image_compressed</text>
</a>
</g>
</g>
<!-- Node1&#45;&gt;Node24 -->
<g id="edge23" class="edge"><title>Node1&#45;&gt;Node24</title>
<path fill="none" stroke="midnightblue" d="M91.4794,-1079.41C105.494,-1038.01 142.42,-944.032 204,-890 205.693,-888.514 207.47,-887.096 209.312,-885.743"/>
<polygon fill="midnightblue" stroke="midnightblue" points="211.304,-888.623 217.757,-880.221 207.472,-882.765 211.304,-888.623"/>
</g>
<!-- Node25 -->
<g id="node25" class="node"><title>Node25</title>
<g id="a_node25"><a xlink:href="classpb_1_1SensorNearData_1_1MFC_1_1CameraImage.html#a9823ba937034e719b52983701af1dc84" target="_top" xlink:title="pb::SensorNearData\l::MFC::CameraImage::\limage_compressed">
<polygon fill="none" stroke="black" points="220,-779.5 220,-820.5 338,-820.5 338,-779.5 220,-779.5"/>
<text text-anchor="start" x="228" y="-808.5" font-family="Helvetica,sans-Serif" font-size="10.00">pb::SensorNearData</text>
<text text-anchor="start" x="228" y="-797.5" font-family="Helvetica,sans-Serif" font-size="10.00">::MFC::CameraImage::</text>
<text text-anchor="middle" x="279" y="-786.5" font-family="Helvetica,sans-Serif" font-size="10.00">image_compressed</text>
</a>
</g>
</g>
<!-- Node1&#45;&gt;Node25 -->
<g id="edge24" class="edge"><title>Node1&#45;&gt;Node25</title>
<path fill="none" stroke="midnightblue" d="M88.5941,-1079.39C98.2736,-1029.76 129.375,-902.421 204,-830 206.192,-827.873 208.554,-825.89 211.042,-824.042"/>
<polygon fill="midnightblue" stroke="midnightblue" points="213.445,-826.654 219.916,-818.264 209.626,-820.787 213.445,-826.654"/>
</g>
<!-- Node26 -->
<g id="node26" class="node"><title>Node26</title>
<g id="a_node26"><a xlink:href="classpb_1_1SensorNearData_1_1MFC_1_1CameraImage.html#a084c333e6e949edeac5b1103ba1f00cd" target="_top" xlink:title="pb::SensorNearData\l::MFC::CameraImage::\lhas_image_compression_type">
<polygon fill="none" stroke="black" points="204.5,-719.5 204.5,-760.5 353.5,-760.5 353.5,-719.5 204.5,-719.5"/>
<text text-anchor="start" x="212.5" y="-748.5" font-family="Helvetica,sans-Serif" font-size="10.00">pb::SensorNearData</text>
<text text-anchor="start" x="212.5" y="-737.5" font-family="Helvetica,sans-Serif" font-size="10.00">::MFC::CameraImage::</text>
<text text-anchor="middle" x="279" y="-726.5" font-family="Helvetica,sans-Serif" font-size="10.00">has_image_compression_type</text>
</a>
</g>
</g>
<!-- Node1&#45;&gt;Node26 -->
<g id="edge25" class="edge"><title>Node1&#45;&gt;Node26</title>
<path fill="none" stroke="midnightblue" d="M86.7209,-1079.18C92.5133,-1022.09 116.192,-861.307 204,-770 205.051,-768.907 206.147,-767.853 207.283,-766.836"/>
<polygon fill="midnightblue" stroke="midnightblue" points="209.515,-769.534 215.291,-760.652 205.237,-763.994 209.515,-769.534"/>
</g>
<!-- Node27 -->
<g id="node27" class="node"><title>Node27</title>
<g id="a_node27"><a xlink:href="classpb_1_1SensorNearData_1_1MFC_1_1CameraImage.html#a41058a696e1b317e33e3152505317d32" target="_top" xlink:title="pb::SensorNearData\l::MFC::CameraImage::\limage_compression_type">
<polygon fill="none" stroke="black" points="215,-659.5 215,-700.5 343,-700.5 343,-659.5 215,-659.5"/>
<text text-anchor="start" x="223" y="-688.5" font-family="Helvetica,sans-Serif" font-size="10.00">pb::SensorNearData</text>
<text text-anchor="start" x="223" y="-677.5" font-family="Helvetica,sans-Serif" font-size="10.00">::MFC::CameraImage::</text>
<text text-anchor="middle" x="279" y="-666.5" font-family="Helvetica,sans-Serif" font-size="10.00">image_compression_type</text>
</a>
</g>
</g>
<!-- Node1&#45;&gt;Node27 -->
<g id="edge26" class="edge"><title>Node1&#45;&gt;Node27</title>
<path fill="none" stroke="midnightblue" d="M85.3608,-1079.21C87.5713,-1015.52 102.707,-820.735 204,-710 204.895,-709.022 205.826,-708.075 206.789,-707.158"/>
<polygon fill="midnightblue" stroke="midnightblue" points="209.183,-709.724 214.746,-700.707 204.774,-704.286 209.183,-709.724"/>
</g>
<!-- Node28 -->
<g id="node28" class="node"><title>Node28</title>
<g id="a_node28"><a xlink:href="classpb_1_1SensorNearData_1_1MFC_1_1CameraImage.html#a2788abc7cf87d6d740ab3979af7ae776" target="_top" xlink:title="pb::SensorNearData\l::MFC::CameraImage::\lhas_image_type">
<polygon fill="none" stroke="black" points="220,-599.5 220,-640.5 338,-640.5 338,-599.5 220,-599.5"/>
<text text-anchor="start" x="228" y="-628.5" font-family="Helvetica,sans-Serif" font-size="10.00">pb::SensorNearData</text>
<text text-anchor="start" x="228" y="-617.5" font-family="Helvetica,sans-Serif" font-size="10.00">::MFC::CameraImage::</text>
<text text-anchor="middle" x="279" y="-606.5" font-family="Helvetica,sans-Serif" font-size="10.00">has_image_type</text>
</a>
</g>
</g>
<!-- Node1&#45;&gt;Node28 -->
<g id="edge27" class="edge"><title>Node1&#45;&gt;Node28</title>
<path fill="none" stroke="midnightblue" d="M84.3428,-1079.1C83.2817,-1009.16 89.165,-780.382 204,-650 206.245,-647.451 208.738,-645.116 211.411,-642.976"/>
<polygon fill="midnightblue" stroke="midnightblue" points="213.653,-645.681 219.902,-637.125 209.681,-639.917 213.653,-645.681"/>
</g>
<!-- Node29 -->
<g id="node29" class="node"><title>Node29</title>
<g id="a_node29"><a xlink:href="classpb_1_1SensorNearData_1_1MFC_1_1CameraImage.html#a519e600f0c631d0abea3ae0961ad5727" target="_top" xlink:title="pb::SensorNearData\l::MFC::CameraImage::\limage_type">
<polygon fill="none" stroke="black" points="220,-539.5 220,-580.5 338,-580.5 338,-539.5 220,-539.5"/>
<text text-anchor="start" x="228" y="-568.5" font-family="Helvetica,sans-Serif" font-size="10.00">pb::SensorNearData</text>
<text text-anchor="start" x="228" y="-557.5" font-family="Helvetica,sans-Serif" font-size="10.00">::MFC::CameraImage::</text>
<text text-anchor="middle" x="279" y="-546.5" font-family="Helvetica,sans-Serif" font-size="10.00">image_type</text>
</a>
</g>
</g>
<!-- Node1&#45;&gt;Node29 -->
<g id="edge28" class="edge"><title>Node1&#45;&gt;Node29</title>
<path fill="none" stroke="midnightblue" d="M87.2689,-1079.46C97.0887,-993.902 138.413,-666.703 204,-590 206.207,-587.419 208.67,-585.057 211.319,-582.896"/>
<polygon fill="midnightblue" stroke="midnightblue" points="213.565,-585.596 219.754,-576.997 209.553,-579.859 213.565,-585.596"/>
</g>
<!-- Node30 -->
<g id="node30" class="node"><title>Node30</title>
<g id="a_node30"><a xlink:href="classpb_1_1SensorNearData_1_1MFC_1_1CameraImage.html#afbdcb6651a4e1e6cb5624082efd1a280" target="_top" xlink:title="pb::SensorNearData\l::MFC::CameraImage::\lhas_byte_per_pixel">
<polygon fill="none" stroke="black" points="220,-479.5 220,-520.5 338,-520.5 338,-479.5 220,-479.5"/>
<text text-anchor="start" x="228" y="-508.5" font-family="Helvetica,sans-Serif" font-size="10.00">pb::SensorNearData</text>
<text text-anchor="start" x="228" y="-497.5" font-family="Helvetica,sans-Serif" font-size="10.00">::MFC::CameraImage::</text>
<text text-anchor="middle" x="279" y="-486.5" font-family="Helvetica,sans-Serif" font-size="10.00">has_byte_per_pixel</text>
</a>
</g>
</g>
<!-- Node1&#45;&gt;Node30 -->
<g id="edge29" class="edge"><title>Node1&#45;&gt;Node30</title>
<path fill="none" stroke="midnightblue" d="M86.7386,-1079.27C94.8302,-987.305 131.511,-616.812 204,-530 206.291,-527.257 208.871,-524.762 211.658,-522.493"/>
<polygon fill="midnightblue" stroke="midnightblue" points="213.795,-525.269 219.996,-516.678 209.791,-519.527 213.795,-525.269"/>
</g>
<!-- Node31 -->
<g id="node31" class="node"><title>Node31</title>
<g id="a_node31"><a xlink:href="classpb_1_1SensorNearData_1_1MFC_1_1CameraImage.html#acce045e2efd5ea9de14953bdfa2c6c27" target="_top" xlink:title="pb::SensorNearData\l::MFC::CameraImage::\lbyte_per_pixel">
<polygon fill="none" stroke="black" points="220,-419.5 220,-460.5 338,-460.5 338,-419.5 220,-419.5"/>
<text text-anchor="start" x="228" y="-448.5" font-family="Helvetica,sans-Serif" font-size="10.00">pb::SensorNearData</text>
<text text-anchor="start" x="228" y="-437.5" font-family="Helvetica,sans-Serif" font-size="10.00">::MFC::CameraImage::</text>
<text text-anchor="middle" x="279" y="-426.5" font-family="Helvetica,sans-Serif" font-size="10.00">byte_per_pixel</text>
</a>
</g>
</g>
<!-- Node1&#45;&gt;Node31 -->
<g id="edge30" class="edge"><title>Node1&#45;&gt;Node31</title>
<path fill="none" stroke="midnightblue" d="M86.279,-1079.44C92.7196,-981.962 124.486,-567.098 204,-470 206.264,-467.235 208.823,-464.722 211.594,-462.44"/>
<polygon fill="midnightblue" stroke="midnightblue" points="213.734,-465.214 219.897,-456.596 209.705,-459.49 213.734,-465.214"/>
</g>
<!-- Node32 -->
<g id="node32" class="node"><title>Node32</title>
<g id="a_node32"><a xlink:href="classpb_1_1SensorNearData_1_1MFC_1_1CameraImage.html#a07c445617ccc1e69267366055ba8640f" target="_top" xlink:title="pb::SensorNearData\l::MFC::CameraImage::\lhas_bit_per_pixel">
<polygon fill="none" stroke="black" points="220,-359.5 220,-400.5 338,-400.5 338,-359.5 220,-359.5"/>
<text text-anchor="start" x="228" y="-388.5" font-family="Helvetica,sans-Serif" font-size="10.00">pb::SensorNearData</text>
<text text-anchor="start" x="228" y="-377.5" font-family="Helvetica,sans-Serif" font-size="10.00">::MFC::CameraImage::</text>
<text text-anchor="middle" x="279" y="-366.5" font-family="Helvetica,sans-Serif" font-size="10.00">has_bit_per_pixel</text>
</a>
</g>
</g>
<!-- Node1&#45;&gt;Node32 -->
<g id="edge31" class="edge"><title>Node1&#45;&gt;Node32</title>
<path fill="none" stroke="midnightblue" d="M85.9191,-1079.24C90.8806,-975.856 117.532,-517.319 204,-410 206.242,-407.217 208.784,-404.69 211.541,-402.396"/>
<polygon fill="midnightblue" stroke="midnightblue" points="213.682,-405.169 219.814,-396.529 209.632,-399.459 213.682,-405.169"/>
</g>
<!-- Node33 -->
<g id="node33" class="node"><title>Node33</title>
<g id="a_node33"><a xlink:href="classpb_1_1SensorNearData_1_1MFC_1_1CameraImage.html#ada7958847303eafbe361cc7e8a2fe7d4" target="_top" xlink:title="pb::SensorNearData\l::MFC::CameraImage::\lbit_per_pixel">
<polygon fill="none" stroke="black" points="220,-299.5 220,-340.5 338,-340.5 338,-299.5 220,-299.5"/>
<text text-anchor="start" x="228" y="-328.5" font-family="Helvetica,sans-Serif" font-size="10.00">pb::SensorNearData</text>
<text text-anchor="start" x="228" y="-317.5" font-family="Helvetica,sans-Serif" font-size="10.00">::MFC::CameraImage::</text>
<text text-anchor="middle" x="279" y="-306.5" font-family="Helvetica,sans-Serif" font-size="10.00">bit_per_pixel</text>
</a>
</g>
</g>
<!-- Node1&#45;&gt;Node33 -->
<g id="edge32" class="edge"><title>Node1&#45;&gt;Node33</title>
<path fill="none" stroke="midnightblue" d="M85.6035,-1079.27C89.153,-970.649 110.493,-467.664 204,-350 206.224,-347.202 208.75,-344.663 211.495,-342.36"/>
<polygon fill="midnightblue" stroke="midnightblue" points="213.637,-345.131 219.743,-336.472 209.571,-339.434 213.637,-345.131"/>
</g>
<!-- Node34 -->
<g id="node34" class="node"><title>Node34</title>
<g id="a_node34"><a xlink:href="classpb_1_1SensorNearData_1_1MFC_1_1CameraImage.html#a560c780e9167af2f055e5e46bb66ea83" target="_top" xlink:title="pb::SensorNearData\l::MFC::CameraImage::\lhas_image_payload">
<polygon fill="none" stroke="black" points="220,-239.5 220,-280.5 338,-280.5 338,-239.5 220,-239.5"/>
<text text-anchor="start" x="228" y="-268.5" font-family="Helvetica,sans-Serif" font-size="10.00">pb::SensorNearData</text>
<text text-anchor="start" x="228" y="-257.5" font-family="Helvetica,sans-Serif" font-size="10.00">::MFC::CameraImage::</text>
<text text-anchor="middle" x="279" y="-246.5" font-family="Helvetica,sans-Serif" font-size="10.00">has_image_payload</text>
</a>
</g>
</g>
<!-- Node1&#45;&gt;Node34 -->
<g id="edge33" class="edge"><title>Node1&#45;&gt;Node34</title>
<path fill="none" stroke="midnightblue" d="M85.3375,-1079.14C87.5746,-965.149 103.481,-417.99 204,-290 206.207,-287.189 208.721,-284.64 211.456,-282.329"/>
<polygon fill="midnightblue" stroke="midnightblue" points="213.599,-285.099 219.682,-276.424 209.518,-279.412 213.599,-285.099"/>
</g>
<!-- Node35 -->
<g id="node35" class="node"><title>Node35</title>
<g id="a_node35"><a xlink:href="classpb_1_1SensorNearData_1_1MFC_1_1CameraImage.html#a5a0eb509d1d0626ebcd7af2605cf9593" target="_top" xlink:title="pb::SensorNearData\l::MFC::CameraImage::\limage_payload">
<polygon fill="none" stroke="black" points="220,-179.5 220,-220.5 338,-220.5 338,-179.5 220,-179.5"/>
<text text-anchor="start" x="228" y="-208.5" font-family="Helvetica,sans-Serif" font-size="10.00">pb::SensorNearData</text>
<text text-anchor="start" x="228" y="-197.5" font-family="Helvetica,sans-Serif" font-size="10.00">::MFC::CameraImage::</text>
<text text-anchor="middle" x="279" y="-186.5" font-family="Helvetica,sans-Serif" font-size="10.00">image_payload</text>
</a>
</g>
</g>
<!-- Node1&#45;&gt;Node35 -->
<g id="edge34" class="edge"><title>Node1&#45;&gt;Node35</title>
<path fill="none" stroke="midnightblue" d="M85.1035,-1079.18C86.0886,-960.37 96.4021,-368.413 204,-230 206.237,-227.122 208.796,-224.518 211.586,-222.164"/>
<polygon fill="midnightblue" stroke="midnightblue" points="213.884,-224.824 219.988,-216.164 209.816,-219.127 213.884,-224.824"/>
</g>
<!-- Node36 -->
<g id="node36" class="node"><title>Node36</title>
<g id="a_node36"><a xlink:href="classpb_1_1SensorNearData_1_1MFC_1_1CameraImage.html#a9d590baab4806ea1ee3b3598c3f2d813" target="_top" xlink:title="pb::SensorNearData\l::MFC::CameraImage::\lhas_bmp_image">
<polygon fill="none" stroke="black" points="220,-119.5 220,-160.5 338,-160.5 338,-119.5 220,-119.5"/>
<text text-anchor="start" x="228" y="-148.5" font-family="Helvetica,sans-Serif" font-size="10.00">pb::SensorNearData</text>
<text text-anchor="start" x="228" y="-137.5" font-family="Helvetica,sans-Serif" font-size="10.00">::MFC::CameraImage::</text>
<text text-anchor="middle" x="279" y="-126.5" font-family="Helvetica,sans-Serif" font-size="10.00">has_bmp_image</text>
</a>
</g>
</g>
<!-- Node1&#45;&gt;Node36 -->
<g id="edge35" class="edge"><title>Node1&#45;&gt;Node36</title>
<path fill="none" stroke="midnightblue" d="M84.9002,-1079.39C84.6969,-956.317 89.2587,-318.93 204,-170 206.225,-167.112 208.774,-164.501 211.556,-162.14"/>
<polygon fill="midnightblue" stroke="midnightblue" points="213.854,-164.8 219.941,-156.128 209.775,-159.111 213.854,-164.8"/>
</g>
<!-- Node37 -->
<g id="node37" class="node"><title>Node37</title>
<g id="a_node37"><a xlink:href="classpb_1_1SensorNearData_1_1MFC_1_1CameraImage.html#a73855ae6202719e8dcee3926393b9497" target="_top" xlink:title="pb::SensorNearData\l::MFC::CameraImage::\lbmp_image">
<polygon fill="none" stroke="black" points="220,-59.5 220,-100.5 338,-100.5 338,-59.5 220,-59.5"/>
<text text-anchor="start" x="228" y="-88.5" font-family="Helvetica,sans-Serif" font-size="10.00">pb::SensorNearData</text>
<text text-anchor="start" x="228" y="-77.5" font-family="Helvetica,sans-Serif" font-size="10.00">::MFC::CameraImage::</text>
<text text-anchor="middle" x="279" y="-66.5" font-family="Helvetica,sans-Serif" font-size="10.00">bmp_image</text>
</a>
</g>
</g>
<!-- Node1&#45;&gt;Node37 -->
<g id="edge36" class="edge"><title>Node1&#45;&gt;Node37</title>
<path fill="none" stroke="midnightblue" d="M84.7219,-1079.32C83.3986,-951.518 82.1833,-269.369 204,-110 206.214,-107.104 208.754,-104.486 211.529,-102.12"/>
<polygon fill="midnightblue" stroke="midnightblue" points="213.827,-104.778 219.9,-96.0966 209.739,-99.0963 213.827,-104.778"/>
</g>
<!-- Node38 -->
<g id="node38" class="node"><title>Node38</title>
<g id="a_node38"><a xlink:href="classpb_1_1SensorNearData_1_1MFC_1_1CameraImage.html#a852004498c4e556e29fabcdddcd7db4e" target="_top" xlink:title="pb::SensorNearData\l::MFC::CameraImage::\lunknown_fields">
<polygon fill="none" stroke="black" points="220,0.5 220,-40.5 338,-40.5 338,0.5 220,0.5"/>
<text text-anchor="start" x="228" y="-28.5" font-family="Helvetica,sans-Serif" font-size="10.00">pb::SensorNearData</text>
<text text-anchor="start" x="228" y="-17.5" font-family="Helvetica,sans-Serif" font-size="10.00">::MFC::CameraImage::</text>
<text text-anchor="middle" x="279" y="-6.5" font-family="Helvetica,sans-Serif" font-size="10.00">unknown_fields</text>
</a>
</g>
</g>
<!-- Node1&#45;&gt;Node38 -->
<g id="edge37" class="edge"><title>Node1&#45;&gt;Node38</title>
<path fill="none" stroke="midnightblue" d="M86.0957,-1079.07C93.6173,-938.536 139.253,-135.305 204,-50 206.204,-47.0962 208.736,-44.4725 211.505,-42.1018"/>
<polygon fill="midnightblue" stroke="midnightblue" points="213.804,-44.7595 219.864,-36.0687 209.707,-39.0837 213.804,-44.7595"/>
</g>
</g>
</svg>
