<?xml version="1.0" encoding="UTF-8" standalone="no"?>
<!DOCTYPE svg PUBLIC "-//W3C//DTD SVG 1.1//EN"
 "http://www.w3.org/Graphics/SVG/1.1/DTD/svg11.dtd">
<!-- Generated by graphviz version 2.36.0 (20140111.2315)
 -->
<!-- Title: pb::Header::timestamp Pages: 1 -->
<svg width="288pt" height="164pt"
 viewBox="0.00 0.00 288.00 164.00" xmlns="http://www.w3.org/2000/svg" xmlns:xlink="http://www.w3.org/1999/xlink">
<g id="graph0" class="graph" transform="scale(1 1) rotate(0) translate(4 160)">
<title>pb::Header::timestamp</title>
<!-- Node1 -->
<g id="node1" class="node"><title>Node1</title>
<polygon fill="#bfbfbf" stroke="black" points="0,-60.5 0,-79.5 116,-79.5 116,-60.5 0,-60.5"/>
<text text-anchor="middle" x="58" y="-67.5" font-family="Helvetica,sans-Serif" font-size="10.00">pb::Header::timestamp</text>
</g>
<!-- Node2 -->
<g id="node2" class="node"><title>Node2</title>
<g id="a_node2"><a xlink:href="classpb_1_1Header.html#acac6cd0c5a9ff5d4414957ad64474680" target="_top" xlink:title="pb::Header::SerializeWith\lCachedSizes">
<polygon fill="none" stroke="black" points="152,-126 152,-156 280,-156 280,-126 152,-126"/>
<text text-anchor="start" x="160" y="-144" font-family="Helvetica,sans-Serif" font-size="10.00">pb::Header::SerializeWith</text>
<text text-anchor="middle" x="216" y="-133" font-family="Helvetica,sans-Serif" font-size="10.00">CachedSizes</text>
</a>
</g>
</g>
<!-- Node1&#45;&gt;Node2 -->
<g id="edge1" class="edge"><title>Node1&#45;&gt;Node2</title>
<path fill="none" stroke="midnightblue" d="M86.2907,-84.2315C104.678,-93.6377 129.576,-106.025 152,-116 159.526,-119.348 167.647,-122.734 175.474,-125.887"/>
<polygon fill="midnightblue" stroke="midnightblue" points="87.8098,-81.077 77.3166,-79.6129 84.6065,-87.3011 87.8098,-81.077"/>
</g>
<!-- Node3 -->
<g id="node3" class="node"><title>Node3</title>
<g id="a_node3"><a xlink:href="classpb_1_1Header.html#a833d0211a301a1675eb67fd806bd219c" target="_top" xlink:title="pb::Header::SerializeWith\lCachedSizesToArray">
<polygon fill="none" stroke="black" points="152,-77 152,-107 280,-107 280,-77 152,-77"/>
<text text-anchor="start" x="160" y="-95" font-family="Helvetica,sans-Serif" font-size="10.00">pb::Header::SerializeWith</text>
<text text-anchor="middle" x="216" y="-84" font-family="Helvetica,sans-Serif" font-size="10.00">CachedSizesToArray</text>
</a>
</g>
</g>
<!-- Node1&#45;&gt;Node3 -->
<g id="edge2" class="edge"><title>Node1&#45;&gt;Node3</title>
<path fill="none" stroke="midnightblue" d="M126.37,-79.5009C134.796,-80.6892 143.391,-81.9013 151.751,-83.0803"/>
<polygon fill="midnightblue" stroke="midnightblue" points="126.594,-75.9979 116.203,-78.0671 125.616,-82.9293 126.594,-75.9979"/>
</g>
<!-- Node4 -->
<g id="node4" class="node"><title>Node4</title>
<g id="a_node4"><a xlink:href="classpb_1_1Header.html#a76e62e81439c9b78c95ff60d3094bc16" target="_top" xlink:title="pb::Header::ByteSize">
<polygon fill="none" stroke="black" points="161,-38.5 161,-57.5 271,-57.5 271,-38.5 161,-38.5"/>
<text text-anchor="middle" x="216" y="-45.5" font-family="Helvetica,sans-Serif" font-size="10.00">pb::Header::ByteSize</text>
</a>
</g>
</g>
<!-- Node1&#45;&gt;Node4 -->
<g id="edge3" class="edge"><title>Node1&#45;&gt;Node4</title>
<path fill="none" stroke="midnightblue" d="M126.268,-60.5135C137.845,-58.8808 149.744,-57.2028 160.918,-55.627"/>
<polygon fill="midnightblue" stroke="midnightblue" points="125.616,-57.0707 116.203,-61.9329 126.594,-64.0021 125.616,-57.0707"/>
</g>
<!-- Node5 -->
<g id="node5" class="node"><title>Node5</title>
<g id="a_node5"><a xlink:href="classpb_1_1Header.html#a073fe3c4b73376382b2f3d422cdc13e1" target="_top" xlink:title="pb::Header::MergeFrom">
<polygon fill="none" stroke="black" points="156,-0.5 156,-19.5 276,-19.5 276,-0.5 156,-0.5"/>
<text text-anchor="middle" x="216" y="-7.5" font-family="Helvetica,sans-Serif" font-size="10.00">pb::Header::MergeFrom</text>
</a>
</g>
</g>
<!-- Node1&#45;&gt;Node5 -->
<g id="edge4" class="edge"><title>Node1&#45;&gt;Node5</title>
<path fill="none" stroke="midnightblue" d="M88.0989,-56.0729C106.247,-47.6635 130.215,-37.0527 152,-29 161.215,-25.5936 171.349,-22.3316 180.744,-19.5015"/>
<polygon fill="midnightblue" stroke="midnightblue" points="86.2396,-53.0787 78.6665,-60.4882 89.2072,-59.4185 86.2396,-53.0787"/>
</g>
</g>
</svg>
