<?xml version="1.0" encoding="UTF-8" standalone="no"?>
<!DOCTYPE svg PUBLIC "-//W3C//DTD SVG 1.1//EN"
 "http://www.w3.org/Graphics/SVG/1.1/DTD/svg11.dtd">
<!-- Generated by graphviz version 2.36.0 (20140111.2315)
 -->
<!-- Title: FrameSelector::ReadAllImages Pages: 1 -->
<svg width="554pt" height="109pt"
 viewBox="0.00 0.00 554.00 109.00" xmlns="http://www.w3.org/2000/svg" xmlns:xlink="http://www.w3.org/1999/xlink">
<g id="graph0" class="graph" transform="scale(1 1) rotate(0) translate(4 105)">
<title>FrameSelector::ReadAllImages</title>
<!-- Node1 -->
<g id="node1" class="node"><title>Node1</title>
<polygon fill="#bfbfbf" stroke="black" points="0.5,-29.5 0.5,-48.5 153.5,-48.5 153.5,-29.5 0.5,-29.5"/>
<text text-anchor="middle" x="77" y="-36.5" font-family="Helvetica,sans-Serif" font-size="10.00">FrameSelector::ReadAllImages</text>
</g>
<!-- Node2 -->
<g id="node2" class="node"><title>Node2</title>
<g id="a_node2"><a xlink:href="classHDFReader.html#a5b9e493c8ec8cf001105dd262336e10b" target="_top" xlink:title="HDFReader::ReadAllProtobuf\lFiles">
<polygon fill="none" stroke="black" points="190,-49 190,-79 336,-79 336,-49 190,-49"/>
<text text-anchor="start" x="198" y="-67" font-family="Helvetica,sans-Serif" font-size="10.00">HDFReader::ReadAllProtobuf</text>
<text text-anchor="middle" x="263" y="-56" font-family="Helvetica,sans-Serif" font-size="10.00">Files</text>
</a>
</g>
</g>
<!-- Node1&#45;&gt;Node2 -->
<g id="edge1" class="edge"><title>Node1&#45;&gt;Node2</title>
<path fill="none" stroke="midnightblue" d="M148.087,-48.5227C158.477,-49.9344 169.263,-51.3999 179.872,-52.8413"/>
<polygon fill="midnightblue" stroke="midnightblue" points="179.59,-56.3351 189.97,-54.2134 180.533,-49.3988 179.59,-56.3351"/>
</g>
<!-- Node5 -->
<g id="node5" class="node"><title>Node5</title>
<g id="a_node5"><a xlink:href="classProtobufImageWrapper.html#aba70c98783a278dd1b62771c244cf3f9" target="_top" xlink:title="ProtobufImageWrapper\l::ParseFromArray">
<polygon fill="none" stroke="black" points="204.5,-0 204.5,-30 321.5,-30 321.5,-0 204.5,-0"/>
<text text-anchor="start" x="212.5" y="-18" font-family="Helvetica,sans-Serif" font-size="10.00">ProtobufImageWrapper</text>
<text text-anchor="middle" x="263" y="-7" font-family="Helvetica,sans-Serif" font-size="10.00">::ParseFromArray</text>
</a>
</g>
</g>
<!-- Node1&#45;&gt;Node5 -->
<g id="edge4" class="edge"><title>Node1&#45;&gt;Node5</title>
<path fill="none" stroke="midnightblue" d="M150.986,-29.4801C165.277,-27.6161 180.207,-25.6686 194.316,-23.8283"/>
<polygon fill="midnightblue" stroke="midnightblue" points="194.96,-27.2741 204.423,-22.51 194.055,-20.3329 194.96,-27.2741"/>
</g>
<!-- Node3 -->
<g id="node3" class="node"><title>Node3</title>
<g id="a_node3"><a xlink:href="classHDFReader.html#a679c61f47dbc9077c1628aae6688f40d" target="_top" xlink:title="HDFReader::GetNumberOfProtobuf\lFiles">
<polygon fill="none" stroke="black" points="372.5,-71 372.5,-101 545.5,-101 545.5,-71 372.5,-71"/>
<text text-anchor="start" x="380.5" y="-89" font-family="Helvetica,sans-Serif" font-size="10.00">HDFReader::GetNumberOfProtobuf</text>
<text text-anchor="middle" x="459" y="-78" font-family="Helvetica,sans-Serif" font-size="10.00">Files</text>
</a>
</g>
</g>
<!-- Node2&#45;&gt;Node3 -->
<g id="edge2" class="edge"><title>Node2&#45;&gt;Node3</title>
<path fill="none" stroke="midnightblue" d="M336.238,-72.192C344.678,-73.1491 353.386,-74.1366 362.082,-75.1228"/>
<polygon fill="midnightblue" stroke="midnightblue" points="361.938,-78.6288 372.269,-76.2779 362.727,-71.6733 361.938,-78.6288"/>
</g>
<!-- Node4 -->
<g id="node4" class="node"><title>Node4</title>
<g id="a_node4"><a xlink:href="classHDFReader.html#a8be8f7b773c8547b5ace39960541fd33" target="_top" xlink:title="HDFReader::ReadOneProtobufFile">
<polygon fill="none" stroke="black" points="374.5,-32.5 374.5,-51.5 543.5,-51.5 543.5,-32.5 374.5,-32.5"/>
<text text-anchor="middle" x="459" y="-39.5" font-family="Helvetica,sans-Serif" font-size="10.00">HDFReader::ReadOneProtobufFile</text>
</a>
</g>
</g>
<!-- Node2&#45;&gt;Node4 -->
<g id="edge3" class="edge"><title>Node2&#45;&gt;Node4</title>
<path fill="none" stroke="midnightblue" d="M336.238,-55.808C345.336,-54.7763 354.746,-53.7092 364.117,-52.6466"/>
<polygon fill="midnightblue" stroke="midnightblue" points="364.711,-56.1017 374.253,-51.4971 363.922,-49.1463 364.711,-56.1017"/>
</g>
</g>
</svg>
