<?xml version="1.0" encoding="UTF-8" standalone="no"?>
<!DOCTYPE svg PUBLIC "-//W3C//DTD SVG 1.1//EN"
 "http://www.w3.org/Graphics/SVG/1.1/DTD/svg11.dtd">
<!-- Generated by graphviz version 2.36.0 (20140111.2315)
 -->
<!-- Title: pb::SensorNearData::MFC::CameraImage::set_has_image_shift_u Pages: 1 -->
<svg width="470pt" height="109pt"
 viewBox="0.00 0.00 470.00 109.00" xmlns="http://www.w3.org/2000/svg" xmlns:xlink="http://www.w3.org/1999/xlink">
<g id="graph0" class="graph" transform="scale(1 1) rotate(0) translate(4 105)">
<title>pb::SensorNearData::MFC::CameraImage::set_has_image_shift_u</title>
<!-- Node1 -->
<g id="node1" class="node"><title>Node1</title>
<polygon fill="#bfbfbf" stroke="black" points="0,-29.5 0,-70.5 118,-70.5 118,-29.5 0,-29.5"/>
<text text-anchor="start" x="8" y="-58.5" font-family="Helvetica,sans-Serif" font-size="10.00">pb::SensorNearData</text>
<text text-anchor="start" x="8" y="-47.5" font-family="Helvetica,sans-Serif" font-size="10.00">::MFC::CameraImage::</text>
<text text-anchor="middle" x="59" y="-36.5" font-family="Helvetica,sans-Serif" font-size="10.00">set_has_image_shift_u</text>
</g>
<!-- Node2 -->
<g id="node2" class="node"><title>Node2</title>
<g id="a_node2"><a xlink:href="classpb_1_1SensorNearData_1_1MFC_1_1CameraImage.html#ab5a9863ea1ea849627b3662d0b2d6c44" target="_top" xlink:title="pb::SensorNearData\l::MFC::CameraImage::\lMergePartialFromCodedStream">
<polygon fill="none" stroke="black" points="154,-59.5 154,-100.5 308,-100.5 308,-59.5 154,-59.5"/>
<text text-anchor="start" x="162" y="-88.5" font-family="Helvetica,sans-Serif" font-size="10.00">pb::SensorNearData</text>
<text text-anchor="start" x="162" y="-77.5" font-family="Helvetica,sans-Serif" font-size="10.00">::MFC::CameraImage::</text>
<text text-anchor="middle" x="231" y="-66.5" font-family="Helvetica,sans-Serif" font-size="10.00">MergePartialFromCodedStream</text>
</a>
</g>
</g>
<!-- Node1&#45;&gt;Node2 -->
<g id="edge1" class="edge"><title>Node1&#45;&gt;Node2</title>
<path fill="none" stroke="midnightblue" d="M127.922,-61.9862C136.461,-63.4932 145.241,-65.0425 153.896,-66.5699"/>
<polygon fill="midnightblue" stroke="midnightblue" points="128.485,-58.5316 118.029,-60.2404 127.268,-65.4251 128.485,-58.5316"/>
</g>
<!-- Node3 -->
<g id="node3" class="node"><title>Node3</title>
<g id="a_node3"><a xlink:href="classpb_1_1SensorNearData_1_1MFC_1_1CameraImage.html#a4f9b35171099e794452c44fcfcc85bfd" target="_top" xlink:title="pb::SensorNearData\l::MFC::CameraImage::\lset_image_shift_u">
<polygon fill="none" stroke="black" points="172,0.5 172,-40.5 290,-40.5 290,0.5 172,0.5"/>
<text text-anchor="start" x="180" y="-28.5" font-family="Helvetica,sans-Serif" font-size="10.00">pb::SensorNearData</text>
<text text-anchor="start" x="180" y="-17.5" font-family="Helvetica,sans-Serif" font-size="10.00">::MFC::CameraImage::</text>
<text text-anchor="middle" x="231" y="-6.5" font-family="Helvetica,sans-Serif" font-size="10.00">set_image_shift_u</text>
</a>
</g>
</g>
<!-- Node1&#45;&gt;Node3 -->
<g id="edge2" class="edge"><title>Node1&#45;&gt;Node3</title>
<path fill="none" stroke="midnightblue" d="M127.977,-38.004C142.54,-35.4342 157.797,-32.7417 171.944,-30.2451"/>
<polygon fill="midnightblue" stroke="midnightblue" points="127.268,-34.5749 118.029,-39.7596 128.485,-41.4684 127.268,-34.5749"/>
</g>
<!-- Node4 -->
<g id="node4" class="node"><title>Node4</title>
<g id="a_node4"><a xlink:href="classpb_1_1SensorNearData_1_1MFC_1_1CameraImage.html#ae45cc783bc05ce863660a29a98b65e6e" target="_top" xlink:title="pb::SensorNearData\l::MFC::CameraImage::\lMergeFrom">
<polygon fill="none" stroke="black" points="344,0.5 344,-40.5 462,-40.5 462,0.5 344,0.5"/>
<text text-anchor="start" x="352" y="-28.5" font-family="Helvetica,sans-Serif" font-size="10.00">pb::SensorNearData</text>
<text text-anchor="start" x="352" y="-17.5" font-family="Helvetica,sans-Serif" font-size="10.00">::MFC::CameraImage::</text>
<text text-anchor="middle" x="403" y="-6.5" font-family="Helvetica,sans-Serif" font-size="10.00">MergeFrom</text>
</a>
</g>
</g>
<!-- Node3&#45;&gt;Node4 -->
<g id="edge3" class="edge"><title>Node3&#45;&gt;Node4</title>
<path fill="none" stroke="midnightblue" d="M300.398,-20C314.833,-20 329.933,-20 343.944,-20"/>
<polygon fill="midnightblue" stroke="midnightblue" points="300.029,-16.5001 290.029,-20 300.029,-23.5001 300.029,-16.5001"/>
</g>
</g>
</svg>
