<?xml version="1.0" encoding="UTF-8" standalone="no"?>
<!DOCTYPE svg PUBLIC "-//W3C//DTD SVG 1.1//EN"
 "http://www.w3.org/Graphics/SVG/1.1/DTD/svg11.dtd">
<!-- Generated by graphviz version 2.36.0 (20140111.2315)
 -->
<!-- Title: pb::SensorNearData::MFC::CameraImage::set_allocated_header Pages: 1 -->
<svg width="280pt" height="169pt"
 viewBox="0.00 0.00 280.00 169.00" xmlns="http://www.w3.org/2000/svg" xmlns:xlink="http://www.w3.org/1999/xlink">
<g id="graph0" class="graph" transform="scale(1 1) rotate(0) translate(4 165)">
<title>pb::SensorNearData::MFC::CameraImage::set_allocated_header</title>
<!-- Node1 -->
<g id="node1" class="node"><title>Node1</title>
<polygon fill="#bfbfbf" stroke="black" points="0,-59.5 0,-100.5 118,-100.5 118,-59.5 0,-59.5"/>
<text text-anchor="start" x="8" y="-88.5" font-family="Helvetica,sans-Serif" font-size="10.00">pb::SensorNearData</text>
<text text-anchor="start" x="8" y="-77.5" font-family="Helvetica,sans-Serif" font-size="10.00">::MFC::CameraImage::</text>
<text text-anchor="middle" x="59" y="-66.5" font-family="Helvetica,sans-Serif" font-size="10.00">set_allocated_header</text>
</g>
<!-- Node2 -->
<g id="node2" class="node"><title>Node2</title>
<g id="a_node2"><a xlink:href="classpb_1_1SensorNearData_1_1MFC_1_1CameraImage.html#aa744416e8e2a2b9e5c6c3dd24e54868e" target="_top" xlink:title="pb::SensorNearData\l::MFC::CameraImage::\lheader">
<polygon fill="none" stroke="black" points="154,-119.5 154,-160.5 272,-160.5 272,-119.5 154,-119.5"/>
<text text-anchor="start" x="162" y="-148.5" font-family="Helvetica,sans-Serif" font-size="10.00">pb::SensorNearData</text>
<text text-anchor="start" x="162" y="-137.5" font-family="Helvetica,sans-Serif" font-size="10.00">::MFC::CameraImage::</text>
<text text-anchor="middle" x="213" y="-126.5" font-family="Helvetica,sans-Serif" font-size="10.00">header</text>
</a>
</g>
</g>
<!-- Node1&#45;&gt;Node2 -->
<g id="edge1" class="edge"><title>Node1&#45;&gt;Node2</title>
<path fill="none" stroke="midnightblue" d="M112.31,-100.649C124.559,-105.484 137.721,-110.679 150.336,-115.659"/>
<polygon fill="midnightblue" stroke="midnightblue" points="149.265,-118.999 159.851,-119.415 151.835,-112.488 149.265,-118.999"/>
</g>
<!-- Node3 -->
<g id="node3" class="node"><title>Node3</title>
<g id="a_node3"><a xlink:href="classpb_1_1SensorNearData_1_1MFC_1_1CameraImage.html#ade573de3b5fd2ad6b6fddc71ca3381bd" target="_top" xlink:title="pb::SensorNearData\l::MFC::CameraImage::\lset_has_header">
<polygon fill="none" stroke="black" points="154,-59.5 154,-100.5 272,-100.5 272,-59.5 154,-59.5"/>
<text text-anchor="start" x="162" y="-88.5" font-family="Helvetica,sans-Serif" font-size="10.00">pb::SensorNearData</text>
<text text-anchor="start" x="162" y="-77.5" font-family="Helvetica,sans-Serif" font-size="10.00">::MFC::CameraImage::</text>
<text text-anchor="middle" x="213" y="-66.5" font-family="Helvetica,sans-Serif" font-size="10.00">set_has_header</text>
</a>
</g>
</g>
<!-- Node1&#45;&gt;Node3 -->
<g id="edge2" class="edge"><title>Node1&#45;&gt;Node3</title>
<path fill="none" stroke="midnightblue" d="M118.332,-80C126.606,-80 135.175,-80 143.617,-80"/>
<polygon fill="midnightblue" stroke="midnightblue" points="143.824,-83.5001 153.824,-80 143.824,-76.5001 143.824,-83.5001"/>
</g>
<!-- Node4 -->
<g id="node4" class="node"><title>Node4</title>
<g id="a_node4"><a xlink:href="classpb_1_1SensorNearData_1_1MFC_1_1CameraImage.html#af469cb603612d175ea5a8407199a5714" target="_top" xlink:title="pb::SensorNearData\l::MFC::CameraImage::\lclear_has_header">
<polygon fill="none" stroke="black" points="154,0.5 154,-40.5 272,-40.5 272,0.5 154,0.5"/>
<text text-anchor="start" x="162" y="-28.5" font-family="Helvetica,sans-Serif" font-size="10.00">pb::SensorNearData</text>
<text text-anchor="start" x="162" y="-17.5" font-family="Helvetica,sans-Serif" font-size="10.00">::MFC::CameraImage::</text>
<text text-anchor="middle" x="213" y="-6.5" font-family="Helvetica,sans-Serif" font-size="10.00">clear_has_header</text>
</a>
</g>
</g>
<!-- Node1&#45;&gt;Node4 -->
<g id="edge3" class="edge"><title>Node1&#45;&gt;Node4</title>
<path fill="none" stroke="midnightblue" d="M112.31,-59.3514C124.559,-54.5161 137.721,-49.3208 150.336,-44.3412"/>
<polygon fill="midnightblue" stroke="midnightblue" points="151.835,-47.5122 159.851,-40.585 149.265,-41.0012 151.835,-47.5122"/>
</g>
</g>
</svg>
