<?xml version="1.0" encoding="UTF-8" standalone="no"?>
<!DOCTYPE svg PUBLIC "-//W3C//DTD SVG 1.1//EN"
 "http://www.w3.org/Graphics/SVG/1.1/DTD/svg11.dtd">
<!-- Generated by graphviz version 2.36.0 (20140111.2315)
 -->
<!-- Title: pb::Header::SerializeWithCachedSizesToArray Pages: 1 -->
<svg width="310pt" height="115pt"
 viewBox="0.00 0.00 310.00 115.00" xmlns="http://www.w3.org/2000/svg" xmlns:xlink="http://www.w3.org/1999/xlink">
<g id="graph0" class="graph" transform="scale(1 1) rotate(0) translate(4 111)">
<title>pb::Header::SerializeWithCachedSizesToArray</title>
<!-- Node1 -->
<g id="node1" class="node"><title>Node1</title>
<polygon fill="#bfbfbf" stroke="black" points="0,-44 0,-74 128,-74 128,-44 0,-44"/>
<text text-anchor="start" x="8" y="-62" font-family="Helvetica,sans-Serif" font-size="10.00">pb::Header::SerializeWith</text>
<text text-anchor="middle" x="64" y="-51" font-family="Helvetica,sans-Serif" font-size="10.00">CachedSizesToArray</text>
</g>
<!-- Node2 -->
<g id="node2" class="node"><title>Node2</title>
<g id="a_node2"><a xlink:href="classpb_1_1Header.html#aea2e4fdd310328f847c4a85fb1ad720b" target="_top" xlink:title="pb::Header::has_timestamp">
<polygon fill="none" stroke="black" points="164.5,-87.5 164.5,-106.5 301.5,-106.5 301.5,-87.5 164.5,-87.5"/>
<text text-anchor="middle" x="233" y="-94.5" font-family="Helvetica,sans-Serif" font-size="10.00">pb::Header::has_timestamp</text>
</a>
</g>
</g>
<!-- Node1&#45;&gt;Node2 -->
<g id="edge1" class="edge"><title>Node1&#45;&gt;Node2</title>
<path fill="none" stroke="midnightblue" d="M128.136,-73.3662C145.269,-77.2649 163.622,-81.4409 180.06,-85.1814"/>
<polygon fill="midnightblue" stroke="midnightblue" points="179.493,-88.6417 190.021,-87.4478 181.046,-81.8162 179.493,-88.6417"/>
</g>
<!-- Node3 -->
<g id="node3" class="node"><title>Node3</title>
<g id="a_node3"><a xlink:href="classpb_1_1Header.html#a18cfcab637f48026948d0687663feb0f" target="_top" xlink:title="pb::Header::timestamp">
<polygon fill="none" stroke="black" points="175,-49.5 175,-68.5 291,-68.5 291,-49.5 175,-49.5"/>
<text text-anchor="middle" x="233" y="-56.5" font-family="Helvetica,sans-Serif" font-size="10.00">pb::Header::timestamp</text>
</a>
</g>
</g>
<!-- Node1&#45;&gt;Node3 -->
<g id="edge2" class="edge"><title>Node1&#45;&gt;Node3</title>
<path fill="none" stroke="midnightblue" d="M128.136,-59C140.114,-59 152.689,-59 164.788,-59"/>
<polygon fill="midnightblue" stroke="midnightblue" points="164.816,-62.5001 174.816,-59 164.816,-55.5001 164.816,-62.5001"/>
</g>
<!-- Node4 -->
<g id="node4" class="node"><title>Node4</title>
<g id="a_node4"><a xlink:href="classpb_1_1Header.html#a1f5f46d1fe8eda6701a7426373d819aa" target="_top" xlink:title="pb::Header::unknown\l_fields">
<polygon fill="none" stroke="black" points="178,-0 178,-30 288,-30 288,-0 178,-0"/>
<text text-anchor="start" x="186" y="-18" font-family="Helvetica,sans-Serif" font-size="10.00">pb::Header::unknown</text>
<text text-anchor="middle" x="233" y="-7" font-family="Helvetica,sans-Serif" font-size="10.00">_fields</text>
</a>
</g>
</g>
<!-- Node1&#45;&gt;Node4 -->
<g id="edge3" class="edge"><title>Node1&#45;&gt;Node4</title>
<path fill="none" stroke="midnightblue" d="M122.005,-43.9808C136.809,-40.0802 152.854,-35.8529 167.993,-31.8643"/>
<polygon fill="midnightblue" stroke="midnightblue" points="169.01,-35.2158 177.788,-29.2834 167.226,-28.4468 169.01,-35.2158"/>
</g>
</g>
</svg>
