<?xml version="1.0" encoding="UTF-8" standalone="no"?>
<!DOCTYPE svg PUBLIC "-//W3C//DTD SVG 1.1//EN"
 "http://www.w3.org/Graphics/SVG/1.1/DTD/svg11.dtd">
<!-- Generated by graphviz version 2.36.0 (20140111.2315)
 -->
<!-- Title: pb::SensorNearData::MFC::CameraImage::SerializeWithCachedSizes Pages: 1 -->
<svg width="328pt" height="2209pt"
 viewBox="0.00 0.00 328.00 2209.00" xmlns="http://www.w3.org/2000/svg" xmlns:xlink="http://www.w3.org/1999/xlink">
<g id="graph0" class="graph" transform="scale(1 1) rotate(0) translate(4 2205)">
<title>pb::SensorNearData::MFC::CameraImage::SerializeWithCachedSizes</title>
<!-- Node1 -->
<g id="node1" class="node"><title>Node1</title>
<polygon fill="#bfbfbf" stroke="black" points="0.5,-1079.5 0.5,-1120.5 133.5,-1120.5 133.5,-1079.5 0.5,-1079.5"/>
<text text-anchor="start" x="8.5" y="-1108.5" font-family="Helvetica,sans-Serif" font-size="10.00">pb::SensorNearData</text>
<text text-anchor="start" x="8.5" y="-1097.5" font-family="Helvetica,sans-Serif" font-size="10.00">::MFC::CameraImage::</text>
<text text-anchor="middle" x="67" y="-1086.5" font-family="Helvetica,sans-Serif" font-size="10.00">SerializeWithCachedSizes</text>
</g>
<!-- Node2 -->
<g id="node2" class="node"><title>Node2</title>
<g id="a_node2"><a xlink:href="classpb_1_1SensorNearData_1_1MFC_1_1CameraImage.html#a0d5dce7ebc7c3620d52b36c5cc20f0f7" target="_top" xlink:title="pb::SensorNearData\l::MFC::CameraImage::\lhas_header">
<polygon fill="none" stroke="black" points="186,-2159.5 186,-2200.5 304,-2200.5 304,-2159.5 186,-2159.5"/>
<text text-anchor="start" x="194" y="-2188.5" font-family="Helvetica,sans-Serif" font-size="10.00">pb::SensorNearData</text>
<text text-anchor="start" x="194" y="-2177.5" font-family="Helvetica,sans-Serif" font-size="10.00">::MFC::CameraImage::</text>
<text text-anchor="middle" x="245" y="-2166.5" font-family="Helvetica,sans-Serif" font-size="10.00">has_header</text>
</a>
</g>
</g>
<!-- Node1&#45;&gt;Node2 -->
<g id="edge1" class="edge"><title>Node1&#45;&gt;Node2</title>
<path fill="none" stroke="midnightblue" d="M68.756,-1120.89C73.9967,-1261.18 106.597,-2063.04 170,-2149 172.24,-2152.04 174.835,-2154.78 177.684,-2157.25"/>
<polygon fill="midnightblue" stroke="midnightblue" points="175.626,-2160.08 185.752,-2163.2 179.779,-2154.45 175.626,-2160.08"/>
</g>
<!-- Node3 -->
<g id="node3" class="node"><title>Node3</title>
<g id="a_node3"><a xlink:href="classpb_1_1SensorNearData_1_1MFC_1_1CameraImage.html#aa744416e8e2a2b9e5c6c3dd24e54868e" target="_top" xlink:title="pb::SensorNearData\l::MFC::CameraImage::\lheader">
<polygon fill="none" stroke="black" points="186,-2099.5 186,-2140.5 304,-2140.5 304,-2099.5 186,-2099.5"/>
<text text-anchor="start" x="194" y="-2128.5" font-family="Helvetica,sans-Serif" font-size="10.00">pb::SensorNearData</text>
<text text-anchor="start" x="194" y="-2117.5" font-family="Helvetica,sans-Serif" font-size="10.00">::MFC::CameraImage::</text>
<text text-anchor="middle" x="245" y="-2106.5" font-family="Helvetica,sans-Serif" font-size="10.00">header</text>
</a>
</g>
</g>
<!-- Node1&#45;&gt;Node3 -->
<g id="edge2" class="edge"><title>Node1&#45;&gt;Node3</title>
<path fill="none" stroke="midnightblue" d="M68.8711,-1120.56C74.7381,-1255.22 110.081,-2008.26 170,-2089 172.249,-2092.03 174.851,-2094.77 177.706,-2097.24"/>
<polygon fill="midnightblue" stroke="midnightblue" points="175.654,-2100.07 185.785,-2103.17 179.8,-2094.43 175.654,-2100.07"/>
</g>
<!-- Node4 -->
<g id="node4" class="node"><title>Node4</title>
<g id="a_node4"><a xlink:href="classpb_1_1SensorNearData_1_1MFC_1_1CameraImage.html#a00a22309b55d4187058a9eb1c4786dd5" target="_top" xlink:title="pb::SensorNearData\l::MFC::CameraImage::\lhas_image_counter">
<polygon fill="none" stroke="black" points="186,-2039.5 186,-2080.5 304,-2080.5 304,-2039.5 186,-2039.5"/>
<text text-anchor="start" x="194" y="-2068.5" font-family="Helvetica,sans-Serif" font-size="10.00">pb::SensorNearData</text>
<text text-anchor="start" x="194" y="-2057.5" font-family="Helvetica,sans-Serif" font-size="10.00">::MFC::CameraImage::</text>
<text text-anchor="middle" x="245" y="-2046.5" font-family="Helvetica,sans-Serif" font-size="10.00">has_image_counter</text>
</a>
</g>
</g>
<!-- Node1&#45;&gt;Node4 -->
<g id="edge3" class="edge"><title>Node1&#45;&gt;Node4</title>
<path fill="none" stroke="midnightblue" d="M69.0148,-1120.56C75.5847,-1250.37 113.609,-1953.53 170,-2029 172.259,-2032.02 174.869,-2034.75 177.73,-2037.22"/>
<polygon fill="midnightblue" stroke="midnightblue" points="175.686,-2040.06 185.821,-2043.15 179.823,-2034.41 175.686,-2040.06"/>
</g>
<!-- Node5 -->
<g id="node5" class="node"><title>Node5</title>
<g id="a_node5"><a xlink:href="classpb_1_1SensorNearData_1_1MFC_1_1CameraImage.html#a5b35b9651ff42a3a5eed159355c45f10" target="_top" xlink:title="pb::SensorNearData\l::MFC::CameraImage::\limage_counter">
<polygon fill="none" stroke="black" points="186,-1979.5 186,-2020.5 304,-2020.5 304,-1979.5 186,-1979.5"/>
<text text-anchor="start" x="194" y="-2008.5" font-family="Helvetica,sans-Serif" font-size="10.00">pb::SensorNearData</text>
<text text-anchor="start" x="194" y="-1997.5" font-family="Helvetica,sans-Serif" font-size="10.00">::MFC::CameraImage::</text>
<text text-anchor="middle" x="245" y="-1986.5" font-family="Helvetica,sans-Serif" font-size="10.00">image_counter</text>
</a>
</g>
</g>
<!-- Node1&#45;&gt;Node5 -->
<g id="edge4" class="edge"><title>Node1&#45;&gt;Node5</title>
<path fill="none" stroke="midnightblue" d="M67.6907,-1120.75C66.3207,-1239.21 64.9122,-1829.45 170,-1969 172.27,-1972.01 174.889,-1974.74 177.757,-1977.2"/>
<polygon fill="midnightblue" stroke="midnightblue" points="175.721,-1980.05 185.862,-1983.12 179.849,-1974.39 175.721,-1980.05"/>
</g>
<!-- Node6 -->
<g id="node6" class="node"><title>Node6</title>
<g id="a_node6"><a xlink:href="classpb_1_1SensorNearData_1_1MFC_1_1CameraImage.html#a013374a7320eaf297cb86cc491d3604b" target="_top" xlink:title="pb::SensorNearData\l::MFC::CameraImage::\lhas_image_width">
<polygon fill="none" stroke="black" points="186,-1919.5 186,-1960.5 304,-1960.5 304,-1919.5 186,-1919.5"/>
<text text-anchor="start" x="194" y="-1948.5" font-family="Helvetica,sans-Serif" font-size="10.00">pb::SensorNearData</text>
<text text-anchor="start" x="194" y="-1937.5" font-family="Helvetica,sans-Serif" font-size="10.00">::MFC::CameraImage::</text>
<text text-anchor="middle" x="245" y="-1926.5" font-family="Helvetica,sans-Serif" font-size="10.00">has_image_width</text>
</a>
</g>
</g>
<!-- Node1&#45;&gt;Node6 -->
<g id="edge5" class="edge"><title>Node1&#45;&gt;Node6</title>
<path fill="none" stroke="midnightblue" d="M67.8921,-1120.79C67.6959,-1234.43 71.9371,-1779.94 170,-1909 172.283,-1912 174.912,-1914.72 177.788,-1917.18"/>
<polygon fill="midnightblue" stroke="midnightblue" points="175.762,-1920.03 185.908,-1923.08 179.88,-1914.37 175.762,-1920.03"/>
</g>
<!-- Node7 -->
<g id="node7" class="node"><title>Node7</title>
<g id="a_node7"><a xlink:href="classpb_1_1SensorNearData_1_1MFC_1_1CameraImage.html#a094b9c34c186698c13638d66d376e75c" target="_top" xlink:title="pb::SensorNearData\l::MFC::CameraImage::\limage_width">
<polygon fill="none" stroke="black" points="186,-1859.5 186,-1900.5 304,-1900.5 304,-1859.5 186,-1859.5"/>
<text text-anchor="start" x="194" y="-1888.5" font-family="Helvetica,sans-Serif" font-size="10.00">pb::SensorNearData</text>
<text text-anchor="start" x="194" y="-1877.5" font-family="Helvetica,sans-Serif" font-size="10.00">::MFC::CameraImage::</text>
<text text-anchor="middle" x="245" y="-1866.5" font-family="Helvetica,sans-Serif" font-size="10.00">image_width</text>
</a>
</g>
</g>
<!-- Node1&#45;&gt;Node7 -->
<g id="edge6" class="edge"><title>Node1&#45;&gt;Node7</title>
<path fill="none" stroke="midnightblue" d="M68.1242,-1120.66C69.1638,-1228.92 78.8984,-1730.33 170,-1849 172.298,-1851.99 174.939,-1854.7 177.823,-1857.15"/>
<polygon fill="midnightblue" stroke="midnightblue" points="175.81,-1860.01 185.962,-1863.04 179.915,-1854.34 175.81,-1860.01"/>
</g>
<!-- Node8 -->
<g id="node8" class="node"><title>Node8</title>
<g id="a_node8"><a xlink:href="classpb_1_1SensorNearData_1_1MFC_1_1CameraImage.html#a8eb2949c4a1836b925c8d409572350ca" target="_top" xlink:title="pb::SensorNearData\l::MFC::CameraImage::\lhas_image_height">
<polygon fill="none" stroke="black" points="186,-1799.5 186,-1840.5 304,-1840.5 304,-1799.5 186,-1799.5"/>
<text text-anchor="start" x="194" y="-1828.5" font-family="Helvetica,sans-Serif" font-size="10.00">pb::SensorNearData</text>
<text text-anchor="start" x="194" y="-1817.5" font-family="Helvetica,sans-Serif" font-size="10.00">::MFC::CameraImage::</text>
<text text-anchor="middle" x="245" y="-1806.5" font-family="Helvetica,sans-Serif" font-size="10.00">has_image_height</text>
</a>
</g>
</g>
<!-- Node1&#45;&gt;Node8 -->
<g id="edge7" class="edge"><title>Node1&#45;&gt;Node8</title>
<path fill="none" stroke="midnightblue" d="M68.3963,-1120.69C70.7559,-1223.71 85.8873,-1680.74 170,-1789 172.203,-1791.84 174.713,-1794.41 177.446,-1796.76"/>
<polygon fill="midnightblue" stroke="midnightblue" points="175.528,-1799.69 185.666,-1802.77 179.659,-1794.04 175.528,-1799.69"/>
</g>
<!-- Node9 -->
<g id="node9" class="node"><title>Node9</title>
<g id="a_node9"><a xlink:href="classpb_1_1SensorNearData_1_1MFC_1_1CameraImage.html#aa103619cccc6310931c87d03fcefbed6" target="_top" xlink:title="pb::SensorNearData\l::MFC::CameraImage::\limage_height">
<polygon fill="none" stroke="black" points="186,-1739.5 186,-1780.5 304,-1780.5 304,-1739.5 186,-1739.5"/>
<text text-anchor="start" x="194" y="-1768.5" font-family="Helvetica,sans-Serif" font-size="10.00">pb::SensorNearData</text>
<text text-anchor="start" x="194" y="-1757.5" font-family="Helvetica,sans-Serif" font-size="10.00">::MFC::CameraImage::</text>
<text text-anchor="middle" x="245" y="-1746.5" font-family="Helvetica,sans-Serif" font-size="10.00">image_height</text>
</a>
</g>
</g>
<!-- Node1&#45;&gt;Node9 -->
<g id="edge8" class="edge"><title>Node1&#45;&gt;Node9</title>
<path fill="none" stroke="midnightblue" d="M68.7234,-1120.81C72.5054,-1218.52 92.8802,-1631.14 170,-1729 172.223,-1731.82 174.748,-1734.39 177.493,-1736.72"/>
<polygon fill="midnightblue" stroke="midnightblue" points="175.592,-1739.67 185.74,-1742.71 179.705,-1734 175.592,-1739.67"/>
</g>
<!-- Node10 -->
<g id="node10" class="node"><title>Node10</title>
<g id="a_node10"><a xlink:href="classpb_1_1SensorNearData_1_1MFC_1_1CameraImage.html#a7752fff4312aaaeefe8aa401149fe96d" target="_top" xlink:title="pb::SensorNearData\l::MFC::CameraImage::\lhas_image_shift_u">
<polygon fill="none" stroke="black" points="186,-1679.5 186,-1720.5 304,-1720.5 304,-1679.5 186,-1679.5"/>
<text text-anchor="start" x="194" y="-1708.5" font-family="Helvetica,sans-Serif" font-size="10.00">pb::SensorNearData</text>
<text text-anchor="start" x="194" y="-1697.5" font-family="Helvetica,sans-Serif" font-size="10.00">::MFC::CameraImage::</text>
<text text-anchor="middle" x="245" y="-1686.5" font-family="Helvetica,sans-Serif" font-size="10.00">has_image_shift_u</text>
</a>
</g>
</g>
<!-- Node1&#45;&gt;Node10 -->
<g id="edge9" class="edge"><title>Node1&#45;&gt;Node10</title>
<path fill="none" stroke="midnightblue" d="M69.1049,-1120.64C74.3868,-1212.26 99.7742,-1581.4 170,-1669 172.246,-1671.8 174.79,-1674.35 177.55,-1676.68"/>
<polygon fill="midnightblue" stroke="midnightblue" points="175.668,-1679.64 185.828,-1682.64 179.76,-1673.96 175.668,-1679.64"/>
</g>
<!-- Node11 -->
<g id="node11" class="node"><title>Node11</title>
<g id="a_node11"><a xlink:href="classpb_1_1SensorNearData_1_1MFC_1_1CameraImage.html#a6584c7c2223d8b9417c538dbc66667a9" target="_top" xlink:title="pb::SensorNearData\l::MFC::CameraImage::\limage_shift_u">
<polygon fill="none" stroke="black" points="186,-1619.5 186,-1660.5 304,-1660.5 304,-1619.5 186,-1619.5"/>
<text text-anchor="start" x="194" y="-1648.5" font-family="Helvetica,sans-Serif" font-size="10.00">pb::SensorNearData</text>
<text text-anchor="start" x="194" y="-1637.5" font-family="Helvetica,sans-Serif" font-size="10.00">::MFC::CameraImage::</text>
<text text-anchor="middle" x="245" y="-1626.5" font-family="Helvetica,sans-Serif" font-size="10.00">image_shift_u</text>
</a>
</g>
</g>
<!-- Node1&#45;&gt;Node11 -->
<g id="edge10" class="edge"><title>Node1&#45;&gt;Node11</title>
<path fill="none" stroke="midnightblue" d="M69.59,-1120.74C76.5315,-1206.4 106.708,-1531.67 170,-1609 172.275,-1611.78 174.841,-1614.31 177.619,-1616.62"/>
<polygon fill="midnightblue" stroke="midnightblue" points="175.762,-1619.6 185.935,-1622.55 179.827,-1613.9 175.762,-1619.6"/>
</g>
<!-- Node12 -->
<g id="node12" class="node"><title>Node12</title>
<g id="a_node12"><a xlink:href="classpb_1_1SensorNearData_1_1MFC_1_1CameraImage.html#a773feed9504368b849db39f2c916db21" target="_top" xlink:title="pb::SensorNearData\l::MFC::CameraImage::\lhas_image_shift_v">
<polygon fill="none" stroke="black" points="186,-1559.5 186,-1600.5 304,-1600.5 304,-1559.5 186,-1559.5"/>
<text text-anchor="start" x="194" y="-1588.5" font-family="Helvetica,sans-Serif" font-size="10.00">pb::SensorNearData</text>
<text text-anchor="start" x="194" y="-1577.5" font-family="Helvetica,sans-Serif" font-size="10.00">::MFC::CameraImage::</text>
<text text-anchor="middle" x="245" y="-1566.5" font-family="Helvetica,sans-Serif" font-size="10.00">has_image_shift_v</text>
</a>
</g>
</g>
<!-- Node1&#45;&gt;Node12 -->
<g id="edge11" class="edge"><title>Node1&#45;&gt;Node12</title>
<path fill="none" stroke="midnightblue" d="M70.1876,-1120.68C78.9202,-1199.75 113.567,-1481.83 170,-1549 172.264,-1551.69 174.801,-1554.16 177.537,-1556.41"/>
<polygon fill="midnightblue" stroke="midnightblue" points="175.529,-1559.28 185.707,-1562.22 179.586,-1553.58 175.529,-1559.28"/>
</g>
<!-- Node13 -->
<g id="node13" class="node"><title>Node13</title>
<g id="a_node13"><a xlink:href="classpb_1_1SensorNearData_1_1MFC_1_1CameraImage.html#aa64da64f1bdcc6e12132710d9bc8aab0" target="_top" xlink:title="pb::SensorNearData\l::MFC::CameraImage::\limage_shift_v">
<polygon fill="none" stroke="black" points="186,-1499.5 186,-1540.5 304,-1540.5 304,-1499.5 186,-1499.5"/>
<text text-anchor="start" x="194" y="-1528.5" font-family="Helvetica,sans-Serif" font-size="10.00">pb::SensorNearData</text>
<text text-anchor="start" x="194" y="-1517.5" font-family="Helvetica,sans-Serif" font-size="10.00">::MFC::CameraImage::</text>
<text text-anchor="middle" x="245" y="-1506.5" font-family="Helvetica,sans-Serif" font-size="10.00">image_shift_v</text>
</a>
</g>
</g>
<!-- Node1&#45;&gt;Node13 -->
<g id="edge12" class="edge"><title>Node1&#45;&gt;Node13</title>
<path fill="none" stroke="midnightblue" d="M67.4012,-1120.62C66.6816,-1183.82 72.9303,-1377.26 170,-1489 172.308,-1491.66 174.881,-1494.09 177.645,-1496.32"/>
<polygon fill="midnightblue" stroke="midnightblue" points="175.675,-1499.21 185.875,-1502.08 179.688,-1493.48 175.675,-1499.21"/>
</g>
<!-- Node14 -->
<g id="node14" class="node"><title>Node14</title>
<g id="a_node14"><a xlink:href="classpb_1_1SensorNearData_1_1MFC_1_1CameraImage.html#af1eb7f1934a4fb1cc45097877bb12ee9" target="_top" xlink:title="pb::SensorNearData\l::MFC::CameraImage::\lhas_o_image_width">
<polygon fill="none" stroke="black" points="186,-1439.5 186,-1480.5 304,-1480.5 304,-1439.5 186,-1439.5"/>
<text text-anchor="start" x="194" y="-1468.5" font-family="Helvetica,sans-Serif" font-size="10.00">pb::SensorNearData</text>
<text text-anchor="start" x="194" y="-1457.5" font-family="Helvetica,sans-Serif" font-size="10.00">::MFC::CameraImage::</text>
<text text-anchor="middle" x="245" y="-1446.5" font-family="Helvetica,sans-Serif" font-size="10.00">has_o_image_width</text>
</a>
</g>
</g>
<!-- Node1&#45;&gt;Node14 -->
<g id="edge13" class="edge"><title>Node1&#45;&gt;Node14</title>
<path fill="none" stroke="midnightblue" d="M68.5929,-1120.65C71.3035,-1177.28 86.3719,-1336.93 170,-1429 172.248,-1431.47 174.724,-1433.76 177.367,-1435.86"/>
<polygon fill="midnightblue" stroke="midnightblue" points="175.519,-1438.84 185.732,-1441.66 179.508,-1433.09 175.519,-1438.84"/>
</g>
<!-- Node15 -->
<g id="node15" class="node"><title>Node15</title>
<g id="a_node15"><a xlink:href="classpb_1_1SensorNearData_1_1MFC_1_1CameraImage.html#acb62cc3e178142d1a553e2dee6703386" target="_top" xlink:title="pb::SensorNearData\l::MFC::CameraImage::\lo_image_width">
<polygon fill="none" stroke="black" points="186,-1379.5 186,-1420.5 304,-1420.5 304,-1379.5 186,-1379.5"/>
<text text-anchor="start" x="194" y="-1408.5" font-family="Helvetica,sans-Serif" font-size="10.00">pb::SensorNearData</text>
<text text-anchor="start" x="194" y="-1397.5" font-family="Helvetica,sans-Serif" font-size="10.00">::MFC::CameraImage::</text>
<text text-anchor="middle" x="245" y="-1386.5" font-family="Helvetica,sans-Serif" font-size="10.00">o_image_width</text>
</a>
</g>
</g>
<!-- Node1&#45;&gt;Node15 -->
<g id="edge14" class="edge"><title>Node1&#45;&gt;Node15</title>
<path fill="none" stroke="midnightblue" d="M70.2939,-1120.81C76.8027,-1170.29 99.7189,-1296.27 170,-1369 172.132,-1371.21 174.446,-1373.26 176.893,-1375.18"/>
<polygon fill="midnightblue" stroke="midnightblue" points="175.431,-1378.42 185.663,-1381.16 179.377,-1372.64 175.431,-1378.42"/>
</g>
<!-- Node16 -->
<g id="node16" class="node"><title>Node16</title>
<g id="a_node16"><a xlink:href="classpb_1_1SensorNearData_1_1MFC_1_1CameraImage.html#a7a6ca73b20db747b3c42fe8fd8bcec38" target="_top" xlink:title="pb::SensorNearData\l::MFC::CameraImage::\lhas_o_image_height">
<polygon fill="none" stroke="black" points="186,-1319.5 186,-1360.5 304,-1360.5 304,-1319.5 186,-1319.5"/>
<text text-anchor="start" x="194" y="-1348.5" font-family="Helvetica,sans-Serif" font-size="10.00">pb::SensorNearData</text>
<text text-anchor="start" x="194" y="-1337.5" font-family="Helvetica,sans-Serif" font-size="10.00">::MFC::CameraImage::</text>
<text text-anchor="middle" x="245" y="-1326.5" font-family="Helvetica,sans-Serif" font-size="10.00">has_o_image_height</text>
</a>
</g>
</g>
<!-- Node1&#45;&gt;Node16 -->
<g id="edge15" class="edge"><title>Node1&#45;&gt;Node16</title>
<path fill="none" stroke="midnightblue" d="M72.8635,-1120.74C83.5375,-1161.98 112.756,-1254.95 170,-1309 172.184,-1311.06 174.525,-1313 176.981,-1314.81"/>
<polygon fill="midnightblue" stroke="midnightblue" points="175.429,-1317.98 185.714,-1320.52 179.261,-1312.12 175.429,-1317.98"/>
</g>
<!-- Node17 -->
<g id="node17" class="node"><title>Node17</title>
<g id="a_node17"><a xlink:href="classpb_1_1SensorNearData_1_1MFC_1_1CameraImage.html#a583847832e6bac67c6994530de643673" target="_top" xlink:title="pb::SensorNearData\l::MFC::CameraImage::\lo_image_height">
<polygon fill="none" stroke="black" points="186,-1259.5 186,-1300.5 304,-1300.5 304,-1259.5 186,-1259.5"/>
<text text-anchor="start" x="194" y="-1288.5" font-family="Helvetica,sans-Serif" font-size="10.00">pb::SensorNearData</text>
<text text-anchor="start" x="194" y="-1277.5" font-family="Helvetica,sans-Serif" font-size="10.00">::MFC::CameraImage::</text>
<text text-anchor="middle" x="245" y="-1266.5" font-family="Helvetica,sans-Serif" font-size="10.00">o_image_height</text>
</a>
</g>
</g>
<!-- Node1&#45;&gt;Node17 -->
<g id="edge16" class="edge"><title>Node1&#45;&gt;Node17</title>
<path fill="none" stroke="midnightblue" d="M77.302,-1120.6C92.5118,-1152.2 125.523,-1212.77 170,-1249 172.278,-1250.86 174.683,-1252.62 177.178,-1254.28"/>
<polygon fill="midnightblue" stroke="midnightblue" points="175.593,-1257.42 185.96,-1259.61 179.221,-1251.43 175.593,-1257.42"/>
</g>
<!-- Node18 -->
<g id="node18" class="node"><title>Node18</title>
<g id="a_node18"><a xlink:href="classpb_1_1SensorNearData_1_1MFC_1_1CameraImage.html#ab7d8089509a4744a809b34ef4a5e6168" target="_top" xlink:title="pb::SensorNearData\l::MFC::CameraImage::\lhas_imager_size_u">
<polygon fill="none" stroke="black" points="186,-1199.5 186,-1240.5 304,-1240.5 304,-1199.5 186,-1199.5"/>
<text text-anchor="start" x="194" y="-1228.5" font-family="Helvetica,sans-Serif" font-size="10.00">pb::SensorNearData</text>
<text text-anchor="start" x="194" y="-1217.5" font-family="Helvetica,sans-Serif" font-size="10.00">::MFC::CameraImage::</text>
<text text-anchor="middle" x="245" y="-1206.5" font-family="Helvetica,sans-Serif" font-size="10.00">has_imager_size_u</text>
</a>
</g>
</g>
<!-- Node1&#45;&gt;Node18 -->
<g id="edge17" class="edge"><title>Node1&#45;&gt;Node18</title>
<path fill="none" stroke="midnightblue" d="M87.542,-1120.51C107.015,-1140.07 138.482,-1169.37 170,-1189 173.298,-1191.05 176.755,-1193.03 180.298,-1194.92"/>
<polygon fill="midnightblue" stroke="midnightblue" points="178.735,-1198.05 189.24,-1199.43 181.888,-1191.8 178.735,-1198.05"/>
</g>
<!-- Node19 -->
<g id="node19" class="node"><title>Node19</title>
<g id="a_node19"><a xlink:href="classpb_1_1SensorNearData_1_1MFC_1_1CameraImage.html#adcd74af7097d7e0d3e0c6252b8212eb8" target="_top" xlink:title="pb::SensorNearData\l::MFC::CameraImage::\limager_size_u">
<polygon fill="none" stroke="black" points="186,-1139.5 186,-1180.5 304,-1180.5 304,-1139.5 186,-1139.5"/>
<text text-anchor="start" x="194" y="-1168.5" font-family="Helvetica,sans-Serif" font-size="10.00">pb::SensorNearData</text>
<text text-anchor="start" x="194" y="-1157.5" font-family="Helvetica,sans-Serif" font-size="10.00">::MFC::CameraImage::</text>
<text text-anchor="middle" x="245" y="-1146.5" font-family="Helvetica,sans-Serif" font-size="10.00">imager_size_u</text>
</a>
</g>
</g>
<!-- Node1&#45;&gt;Node19 -->
<g id="edge18" class="edge"><title>Node1&#45;&gt;Node19</title>
<path fill="none" stroke="midnightblue" d="M128.569,-1120.65C143.968,-1125.9 160.611,-1131.57 176.338,-1136.93"/>
<polygon fill="midnightblue" stroke="midnightblue" points="175.397,-1140.31 185.992,-1140.22 177.656,-1133.68 175.397,-1140.31"/>
</g>
<!-- Node20 -->
<g id="node20" class="node"><title>Node20</title>
<g id="a_node20"><a xlink:href="classpb_1_1SensorNearData_1_1MFC_1_1CameraImage.html#acd15f3b5ee6ae2ab2b1bfc0f46951dc0" target="_top" xlink:title="pb::SensorNearData\l::MFC::CameraImage::\lhas_imager_size_v">
<polygon fill="none" stroke="black" points="186,-1079.5 186,-1120.5 304,-1120.5 304,-1079.5 186,-1079.5"/>
<text text-anchor="start" x="194" y="-1108.5" font-family="Helvetica,sans-Serif" font-size="10.00">pb::SensorNearData</text>
<text text-anchor="start" x="194" y="-1097.5" font-family="Helvetica,sans-Serif" font-size="10.00">::MFC::CameraImage::</text>
<text text-anchor="middle" x="245" y="-1086.5" font-family="Helvetica,sans-Serif" font-size="10.00">has_imager_size_v</text>
</a>
</g>
</g>
<!-- Node1&#45;&gt;Node20 -->
<g id="edge19" class="edge"><title>Node1&#45;&gt;Node20</title>
<path fill="none" stroke="midnightblue" d="M133.536,-1100C147.243,-1100 161.729,-1100 175.539,-1100"/>
<polygon fill="midnightblue" stroke="midnightblue" points="175.944,-1103.5 185.944,-1100 175.944,-1096.5 175.944,-1103.5"/>
</g>
<!-- Node21 -->
<g id="node21" class="node"><title>Node21</title>
<g id="a_node21"><a xlink:href="classpb_1_1SensorNearData_1_1MFC_1_1CameraImage.html#a0abb7bfa0d756392556d88b1be28c38b" target="_top" xlink:title="pb::SensorNearData\l::MFC::CameraImage::\limager_size_v">
<polygon fill="none" stroke="black" points="186,-1019.5 186,-1060.5 304,-1060.5 304,-1019.5 186,-1019.5"/>
<text text-anchor="start" x="194" y="-1048.5" font-family="Helvetica,sans-Serif" font-size="10.00">pb::SensorNearData</text>
<text text-anchor="start" x="194" y="-1037.5" font-family="Helvetica,sans-Serif" font-size="10.00">::MFC::CameraImage::</text>
<text text-anchor="middle" x="245" y="-1026.5" font-family="Helvetica,sans-Serif" font-size="10.00">imager_size_v</text>
</a>
</g>
</g>
<!-- Node1&#45;&gt;Node21 -->
<g id="edge20" class="edge"><title>Node1&#45;&gt;Node21</title>
<path fill="none" stroke="midnightblue" d="M128.569,-1079.35C143.968,-1074.1 160.611,-1068.43 176.338,-1063.07"/>
<polygon fill="midnightblue" stroke="midnightblue" points="177.656,-1066.32 185.992,-1059.78 175.397,-1059.69 177.656,-1066.32"/>
</g>
<!-- Node22 -->
<g id="node22" class="node"><title>Node22</title>
<g id="a_node22"><a xlink:href="classpb_1_1SensorNearData_1_1MFC_1_1CameraImage.html#a7ce3f4bae45b3eed14d94973d71ddf08" target="_top" xlink:title="pb::SensorNearData\l::MFC::CameraImage::\lhas_o_image_pattern">
<polygon fill="none" stroke="black" points="186,-959.5 186,-1000.5 304,-1000.5 304,-959.5 186,-959.5"/>
<text text-anchor="start" x="194" y="-988.5" font-family="Helvetica,sans-Serif" font-size="10.00">pb::SensorNearData</text>
<text text-anchor="start" x="194" y="-977.5" font-family="Helvetica,sans-Serif" font-size="10.00">::MFC::CameraImage::</text>
<text text-anchor="middle" x="245" y="-966.5" font-family="Helvetica,sans-Serif" font-size="10.00">has_o_image_pattern</text>
</a>
</g>
</g>
<!-- Node1&#45;&gt;Node22 -->
<g id="edge21" class="edge"><title>Node1&#45;&gt;Node22</title>
<path fill="none" stroke="midnightblue" d="M87.4484,-1079.16C106.852,-1059.31 138.269,-1029.63 170,-1010 172.627,-1008.37 175.357,-1006.81 178.152,-1005.29"/>
<polygon fill="midnightblue" stroke="midnightblue" points="179.926,-1008.32 187.257,-1000.67 176.756,-1002.08 179.926,-1008.32"/>
</g>
<!-- Node23 -->
<g id="node23" class="node"><title>Node23</title>
<g id="a_node23"><a xlink:href="classpb_1_1SensorNearData_1_1MFC_1_1CameraImage.html#a2f8b4aafd92b4531613082b48ff2fa00" target="_top" xlink:title="pb::SensorNearData\l::MFC::CameraImage::\lo_image_pattern">
<polygon fill="none" stroke="black" points="186,-899.5 186,-940.5 304,-940.5 304,-899.5 186,-899.5"/>
<text text-anchor="start" x="194" y="-928.5" font-family="Helvetica,sans-Serif" font-size="10.00">pb::SensorNearData</text>
<text text-anchor="start" x="194" y="-917.5" font-family="Helvetica,sans-Serif" font-size="10.00">::MFC::CameraImage::</text>
<text text-anchor="middle" x="245" y="-906.5" font-family="Helvetica,sans-Serif" font-size="10.00">o_image_pattern</text>
</a>
</g>
</g>
<!-- Node1&#45;&gt;Node23 -->
<g id="edge22" class="edge"><title>Node1&#45;&gt;Node23</title>
<path fill="none" stroke="midnightblue" d="M77.0917,-1079.46C92.1289,-1047.64 125.043,-986.309 170,-950 172.275,-948.163 174.677,-946.424 177.171,-944.781"/>
<polygon fill="midnightblue" stroke="midnightblue" points="179.144,-947.68 185.946,-939.557 175.563,-941.665 179.144,-947.68"/>
</g>
<!-- Node24 -->
<g id="node24" class="node"><title>Node24</title>
<g id="a_node24"><a xlink:href="classpb_1_1SensorNearData_1_1MFC_1_1CameraImage.html#a80e0379d8727f22b32daa1590998ef8f" target="_top" xlink:title="pb::SensorNearData\l::MFC::CameraImage::\lhas_image_compressed">
<polygon fill="none" stroke="black" points="184,-839.5 184,-880.5 306,-880.5 306,-839.5 184,-839.5"/>
<text text-anchor="start" x="192" y="-868.5" font-family="Helvetica,sans-Serif" font-size="10.00">pb::SensorNearData</text>
<text text-anchor="start" x="192" y="-857.5" font-family="Helvetica,sans-Serif" font-size="10.00">::MFC::CameraImage::</text>
<text text-anchor="middle" x="245" y="-846.5" font-family="Helvetica,sans-Serif" font-size="10.00">has_image_compressed</text>
</a>
</g>
</g>
<!-- Node1&#45;&gt;Node24 -->
<g id="edge23" class="edge"><title>Node1&#45;&gt;Node24</title>
<path fill="none" stroke="midnightblue" d="M72.7006,-1079.43C83.1589,-1038.05 112.125,-944.122 170,-890 171.686,-888.423 173.467,-886.924 175.322,-885.5"/>
<polygon fill="midnightblue" stroke="midnightblue" points="177.544,-888.222 183.871,-879.723 173.625,-882.422 177.544,-888.222"/>
</g>
<!-- Node25 -->
<g id="node25" class="node"><title>Node25</title>
<g id="a_node25"><a xlink:href="classpb_1_1SensorNearData_1_1MFC_1_1CameraImage.html#a9823ba937034e719b52983701af1dc84" target="_top" xlink:title="pb::SensorNearData\l::MFC::CameraImage::\limage_compressed">
<polygon fill="none" stroke="black" points="186,-779.5 186,-820.5 304,-820.5 304,-779.5 186,-779.5"/>
<text text-anchor="start" x="194" y="-808.5" font-family="Helvetica,sans-Serif" font-size="10.00">pb::SensorNearData</text>
<text text-anchor="start" x="194" y="-797.5" font-family="Helvetica,sans-Serif" font-size="10.00">::MFC::CameraImage::</text>
<text text-anchor="middle" x="245" y="-786.5" font-family="Helvetica,sans-Serif" font-size="10.00">image_compressed</text>
</a>
</g>
</g>
<!-- Node1&#45;&gt;Node25 -->
<g id="edge24" class="edge"><title>Node1&#45;&gt;Node25</title>
<path fill="none" stroke="midnightblue" d="M70.1682,-1079.43C76.439,-1029.91 98.9397,-902.783 170,-830 172.134,-827.815 174.448,-825.783 176.896,-823.896"/>
<polygon fill="midnightblue" stroke="midnightblue" points="179.311,-826.491 185.668,-818.016 175.413,-820.676 179.311,-826.491"/>
</g>
<!-- Node26 -->
<g id="node26" class="node"><title>Node26</title>
<g id="a_node26"><a xlink:href="classpb_1_1SensorNearData_1_1MFC_1_1CameraImage.html#a084c333e6e949edeac5b1103ba1f00cd" target="_top" xlink:title="pb::SensorNearData\l::MFC::CameraImage::\lhas_image_compression_type">
<polygon fill="none" stroke="black" points="170.5,-719.5 170.5,-760.5 319.5,-760.5 319.5,-719.5 170.5,-719.5"/>
<text text-anchor="start" x="178.5" y="-748.5" font-family="Helvetica,sans-Serif" font-size="10.00">pb::SensorNearData</text>
<text text-anchor="start" x="178.5" y="-737.5" font-family="Helvetica,sans-Serif" font-size="10.00">::MFC::CameraImage::</text>
<text text-anchor="middle" x="245" y="-726.5" font-family="Helvetica,sans-Serif" font-size="10.00">has_image_compression_type</text>
</a>
</g>
</g>
<!-- Node1&#45;&gt;Node26 -->
<g id="edge25" class="edge"><title>Node1&#45;&gt;Node26</title>
<path fill="none" stroke="midnightblue" d="M68.5165,-1079.24C71.0319,-1022.31 85.6475,-861.881 170,-770 170.897,-769.023 171.829,-768.078 172.794,-767.163"/>
<polygon fill="midnightblue" stroke="midnightblue" points="175.186,-769.73 180.76,-760.72 170.784,-764.287 175.186,-769.73"/>
</g>
<!-- Node27 -->
<g id="node27" class="node"><title>Node27</title>
<g id="a_node27"><a xlink:href="classpb_1_1SensorNearData_1_1MFC_1_1CameraImage.html#a41058a696e1b317e33e3152505317d32" target="_top" xlink:title="pb::SensorNearData\l::MFC::CameraImage::\limage_compression_type">
<polygon fill="none" stroke="black" points="181,-659.5 181,-700.5 309,-700.5 309,-659.5 181,-659.5"/>
<text text-anchor="start" x="189" y="-688.5" font-family="Helvetica,sans-Serif" font-size="10.00">pb::SensorNearData</text>
<text text-anchor="start" x="189" y="-677.5" font-family="Helvetica,sans-Serif" font-size="10.00">::MFC::CameraImage::</text>
<text text-anchor="middle" x="245" y="-666.5" font-family="Helvetica,sans-Serif" font-size="10.00">image_compression_type</text>
</a>
</g>
</g>
<!-- Node1&#45;&gt;Node27 -->
<g id="edge26" class="edge"><title>Node1&#45;&gt;Node27</title>
<path fill="none" stroke="midnightblue" d="M67.3264,-1079.28C66.3916,-1015.78 72.0866,-821.474 170,-710 171.001,-708.861 172.051,-707.764 173.145,-706.709"/>
<polygon fill="midnightblue" stroke="midnightblue" points="175.419,-709.37 180.93,-700.321 170.979,-703.958 175.419,-709.37"/>
</g>
<!-- Node28 -->
<g id="node28" class="node"><title>Node28</title>
<g id="a_node28"><a xlink:href="classpb_1_1SensorNearData_1_1MFC_1_1CameraImage.html#a2788abc7cf87d6d740ab3979af7ae776" target="_top" xlink:title="pb::SensorNearData\l::MFC::CameraImage::\lhas_image_type">
<polygon fill="none" stroke="black" points="186,-599.5 186,-640.5 304,-640.5 304,-599.5 186,-599.5"/>
<text text-anchor="start" x="194" y="-628.5" font-family="Helvetica,sans-Serif" font-size="10.00">pb::SensorNearData</text>
<text text-anchor="start" x="194" y="-617.5" font-family="Helvetica,sans-Serif" font-size="10.00">::MFC::CameraImage::</text>
<text text-anchor="middle" x="245" y="-606.5" font-family="Helvetica,sans-Serif" font-size="10.00">has_image_type</text>
</a>
</g>
</g>
<!-- Node1&#45;&gt;Node28 -->
<g id="edge27" class="edge"><title>Node1&#45;&gt;Node28</title>
<path fill="none" stroke="midnightblue" d="M70.1577,-1079.25C78.7801,-999.933 113.076,-717 170,-650 172.199,-647.412 174.655,-645.044 177.299,-642.878"/>
<polygon fill="midnightblue" stroke="midnightblue" points="179.545,-645.578 185.722,-636.97 175.526,-639.847 179.545,-645.578"/>
</g>
<!-- Node29 -->
<g id="node29" class="node"><title>Node29</title>
<g id="a_node29"><a xlink:href="classpb_1_1SensorNearData_1_1MFC_1_1CameraImage.html#a519e600f0c631d0abea3ae0961ad5727" target="_top" xlink:title="pb::SensorNearData\l::MFC::CameraImage::\limage_type">
<polygon fill="none" stroke="black" points="186,-539.5 186,-580.5 304,-580.5 304,-539.5 186,-539.5"/>
<text text-anchor="start" x="194" y="-568.5" font-family="Helvetica,sans-Serif" font-size="10.00">pb::SensorNearData</text>
<text text-anchor="start" x="194" y="-557.5" font-family="Helvetica,sans-Serif" font-size="10.00">::MFC::CameraImage::</text>
<text text-anchor="middle" x="245" y="-546.5" font-family="Helvetica,sans-Serif" font-size="10.00">image_type</text>
</a>
</g>
</g>
<!-- Node1&#45;&gt;Node29 -->
<g id="edge28" class="edge"><title>Node1&#45;&gt;Node29</title>
<path fill="none" stroke="midnightblue" d="M69.5374,-1079.49C76.3169,-994.034 106.084,-667.203 170,-590 172.279,-587.247 174.85,-584.744 177.63,-582.469"/>
<polygon fill="midnightblue" stroke="midnightblue" points="179.768,-585.245 185.952,-576.642 175.753,-579.511 179.768,-585.245"/>
</g>
<!-- Node30 -->
<g id="node30" class="node"><title>Node30</title>
<g id="a_node30"><a xlink:href="classpb_1_1SensorNearData_1_1MFC_1_1CameraImage.html#afbdcb6651a4e1e6cb5624082efd1a280" target="_top" xlink:title="pb::SensorNearData\l::MFC::CameraImage::\lhas_byte_per_pixel">
<polygon fill="none" stroke="black" points="186,-479.5 186,-520.5 304,-520.5 304,-479.5 186,-479.5"/>
<text text-anchor="start" x="194" y="-508.5" font-family="Helvetica,sans-Serif" font-size="10.00">pb::SensorNearData</text>
<text text-anchor="start" x="194" y="-497.5" font-family="Helvetica,sans-Serif" font-size="10.00">::MFC::CameraImage::</text>
<text text-anchor="middle" x="245" y="-486.5" font-family="Helvetica,sans-Serif" font-size="10.00">has_byte_per_pixel</text>
</a>
</g>
</g>
<!-- Node1&#45;&gt;Node30 -->
<g id="edge29" class="edge"><title>Node1&#45;&gt;Node30</title>
<path fill="none" stroke="midnightblue" d="M69.0758,-1079.3C74.2327,-987.442 99.1622,-617.356 170,-530 172.251,-527.224 174.799,-524.703 177.562,-522.413"/>
<polygon fill="midnightblue" stroke="midnightblue" points="179.702,-525.187 185.847,-516.555 175.661,-519.471 179.702,-525.187"/>
</g>
<!-- Node31 -->
<g id="node31" class="node"><title>Node31</title>
<g id="a_node31"><a xlink:href="classpb_1_1SensorNearData_1_1MFC_1_1CameraImage.html#acce045e2efd5ea9de14953bdfa2c6c27" target="_top" xlink:title="pb::SensorNearData\l::MFC::CameraImage::\lbyte_per_pixel">
<polygon fill="none" stroke="black" points="186,-419.5 186,-460.5 304,-460.5 304,-419.5 186,-419.5"/>
<text text-anchor="start" x="194" y="-448.5" font-family="Helvetica,sans-Serif" font-size="10.00">pb::SensorNearData</text>
<text text-anchor="start" x="194" y="-437.5" font-family="Helvetica,sans-Serif" font-size="10.00">::MFC::CameraImage::</text>
<text text-anchor="middle" x="245" y="-426.5" font-family="Helvetica,sans-Serif" font-size="10.00">byte_per_pixel</text>
</a>
</g>
</g>
<!-- Node1&#45;&gt;Node31 -->
<g id="edge30" class="edge"><title>Node1&#45;&gt;Node31</title>
<path fill="none" stroke="midnightblue" d="M68.6822,-1079.46C72.2999,-982.101 92.1218,-567.681 170,-470 172.228,-467.205 174.758,-464.67 177.506,-462.368"/>
<polygon fill="midnightblue" stroke="midnightblue" points="179.648,-465.14 185.76,-456.486 175.585,-459.44 179.648,-465.14"/>
</g>
<!-- Node32 -->
<g id="node32" class="node"><title>Node32</title>
<g id="a_node32"><a xlink:href="classpb_1_1SensorNearData_1_1MFC_1_1CameraImage.html#a07c445617ccc1e69267366055ba8640f" target="_top" xlink:title="pb::SensorNearData\l::MFC::CameraImage::\lhas_bit_per_pixel">
<polygon fill="none" stroke="black" points="186,-359.5 186,-400.5 304,-400.5 304,-359.5 186,-359.5"/>
<text text-anchor="start" x="194" y="-388.5" font-family="Helvetica,sans-Serif" font-size="10.00">pb::SensorNearData</text>
<text text-anchor="start" x="194" y="-377.5" font-family="Helvetica,sans-Serif" font-size="10.00">::MFC::CameraImage::</text>
<text text-anchor="middle" x="245" y="-366.5" font-family="Helvetica,sans-Serif" font-size="10.00">has_bit_per_pixel</text>
</a>
</g>
</g>
<!-- Node1&#45;&gt;Node32 -->
<g id="edge31" class="edge"><title>Node1&#45;&gt;Node32</title>
<path fill="none" stroke="midnightblue" d="M68.3676,-1079.26C70.5885,-975.997 85.1544,-517.934 170,-410 172.209,-407.19 174.723,-404.642 177.459,-402.331"/>
<polygon fill="midnightblue" stroke="midnightblue" points="179.602,-405.101 185.687,-396.428 175.522,-399.414 179.602,-405.101"/>
</g>
<!-- Node33 -->
<g id="node33" class="node"><title>Node33</title>
<g id="a_node33"><a xlink:href="classpb_1_1SensorNearData_1_1MFC_1_1CameraImage.html#ada7958847303eafbe361cc7e8a2fe7d4" target="_top" xlink:title="pb::SensorNearData\l::MFC::CameraImage::\lbit_per_pixel">
<polygon fill="none" stroke="black" points="186,-299.5 186,-340.5 304,-340.5 304,-299.5 186,-299.5"/>
<text text-anchor="start" x="194" y="-328.5" font-family="Helvetica,sans-Serif" font-size="10.00">pb::SensorNearData</text>
<text text-anchor="start" x="194" y="-317.5" font-family="Helvetica,sans-Serif" font-size="10.00">::MFC::CameraImage::</text>
<text text-anchor="middle" x="245" y="-306.5" font-family="Helvetica,sans-Serif" font-size="10.00">bit_per_pixel</text>
</a>
</g>
</g>
<!-- Node1&#45;&gt;Node33 -->
<g id="edge32" class="edge"><title>Node1&#45;&gt;Node33</title>
<path fill="none" stroke="midnightblue" d="M68.0957,-1079.29C68.9902,-970.789 78.1048,-468.307 170,-350 172.236,-347.121 174.794,-344.517 177.583,-342.162"/>
<polygon fill="midnightblue" stroke="midnightblue" points="179.881,-344.822 185.984,-336.161 175.812,-339.126 179.881,-344.822"/>
</g>
<!-- Node34 -->
<g id="node34" class="node"><title>Node34</title>
<g id="a_node34"><a xlink:href="classpb_1_1SensorNearData_1_1MFC_1_1CameraImage.html#a560c780e9167af2f055e5e46bb66ea83" target="_top" xlink:title="pb::SensorNearData\l::MFC::CameraImage::\lhas_image_payload">
<polygon fill="none" stroke="black" points="186,-239.5 186,-280.5 304,-280.5 304,-239.5 186,-239.5"/>
<text text-anchor="start" x="194" y="-268.5" font-family="Helvetica,sans-Serif" font-size="10.00">pb::SensorNearData</text>
<text text-anchor="start" x="194" y="-257.5" font-family="Helvetica,sans-Serif" font-size="10.00">::MFC::CameraImage::</text>
<text text-anchor="middle" x="245" y="-246.5" font-family="Helvetica,sans-Serif" font-size="10.00">has_image_payload</text>
</a>
</g>
</g>
<!-- Node1&#45;&gt;Node34 -->
<g id="edge33" class="edge"><title>Node1&#45;&gt;Node34</title>
<path fill="none" stroke="midnightblue" d="M67.8635,-1079.16C67.5157,-965.289 71.083,-418.657 170,-290 172.222,-287.11 174.768,-284.497 177.549,-282.135"/>
<polygon fill="midnightblue" stroke="midnightblue" points="179.847,-284.794 185.931,-276.12 175.766,-279.107 179.847,-284.794"/>
</g>
<!-- Node35 -->
<g id="node35" class="node"><title>Node35</title>
<g id="a_node35"><a xlink:href="classpb_1_1SensorNearData_1_1MFC_1_1CameraImage.html#a5a0eb509d1d0626ebcd7af2605cf9593" target="_top" xlink:title="pb::SensorNearData\l::MFC::CameraImage::\limage_payload">
<polygon fill="none" stroke="black" points="186,-179.5 186,-220.5 304,-220.5 304,-179.5 186,-179.5"/>
<text text-anchor="start" x="194" y="-208.5" font-family="Helvetica,sans-Serif" font-size="10.00">pb::SensorNearData</text>
<text text-anchor="start" x="194" y="-197.5" font-family="Helvetica,sans-Serif" font-size="10.00">::MFC::CameraImage::</text>
<text text-anchor="middle" x="245" y="-186.5" font-family="Helvetica,sans-Serif" font-size="10.00">image_payload</text>
</a>
</g>
</g>
<!-- Node1&#45;&gt;Node35 -->
<g id="edge34" class="edge"><title>Node1&#45;&gt;Node35</title>
<path fill="none" stroke="midnightblue" d="M67.6624,-1079.21C66.1348,-960.51 63.997,-369.101 170,-230 172.21,-227.1 174.746,-224.48 177.519,-222.112"/>
<polygon fill="midnightblue" stroke="midnightblue" points="179.817,-224.77 185.884,-216.085 175.725,-219.091 179.817,-224.77"/>
</g>
<!-- Node36 -->
<g id="node36" class="node"><title>Node36</title>
<g id="a_node36"><a xlink:href="classpb_1_1SensorNearData_1_1MFC_1_1CameraImage.html#a9d590baab4806ea1ee3b3598c3f2d813" target="_top" xlink:title="pb::SensorNearData\l::MFC::CameraImage::\lhas_bmp_image">
<polygon fill="none" stroke="black" points="186,-119.5 186,-160.5 304,-160.5 304,-119.5 186,-119.5"/>
<text text-anchor="start" x="194" y="-148.5" font-family="Helvetica,sans-Serif" font-size="10.00">pb::SensorNearData</text>
<text text-anchor="start" x="194" y="-137.5" font-family="Helvetica,sans-Serif" font-size="10.00">::MFC::CameraImage::</text>
<text text-anchor="middle" x="245" y="-126.5" font-family="Helvetica,sans-Serif" font-size="10.00">has_bmp_image</text>
</a>
</g>
</g>
<!-- Node1&#45;&gt;Node36 -->
<g id="edge35" class="edge"><title>Node1&#45;&gt;Node36</title>
<path fill="none" stroke="midnightblue" d="M69.0021,-1079.41C75.4936,-949.403 113.118,-245.224 170,-170 172.199,-167.092 174.727,-164.465 177.493,-162.092"/>
<polygon fill="midnightblue" stroke="midnightblue" points="179.791,-164.75 185.844,-156.054 175.69,-159.077 179.791,-164.75"/>
</g>
<!-- Node37 -->
<g id="node37" class="node"><title>Node37</title>
<g id="a_node37"><a xlink:href="classpb_1_1SensorNearData_1_1MFC_1_1CameraImage.html#a73855ae6202719e8dcee3926393b9497" target="_top" xlink:title="pb::SensorNearData\l::MFC::CameraImage::\lbmp_image">
<polygon fill="none" stroke="black" points="186,-59.5 186,-100.5 304,-100.5 304,-59.5 186,-59.5"/>
<text text-anchor="start" x="194" y="-88.5" font-family="Helvetica,sans-Serif" font-size="10.00">pb::SensorNearData</text>
<text text-anchor="start" x="194" y="-77.5" font-family="Helvetica,sans-Serif" font-size="10.00">::MFC::CameraImage::</text>
<text text-anchor="middle" x="245" y="-66.5" font-family="Helvetica,sans-Serif" font-size="10.00">bmp_image</text>
</a>
</g>
</g>
<!-- Node1&#45;&gt;Node37 -->
<g id="edge36" class="edge"><title>Node1&#45;&gt;Node37</title>
<path fill="none" stroke="midnightblue" d="M68.8584,-1079.41C74.6443,-944.562 109.559,-190.478 170,-110 172.189,-107.085 174.709,-104.452 177.47,-102.075"/>
<polygon fill="midnightblue" stroke="midnightblue" points="179.768,-104.731 185.808,-96.027 175.658,-99.0649 179.768,-104.731"/>
</g>
<!-- Node38 -->
<g id="node38" class="node"><title>Node38</title>
<g id="a_node38"><a xlink:href="classpb_1_1SensorNearData_1_1MFC_1_1CameraImage.html#a852004498c4e556e29fabcdddcd7db4e" target="_top" xlink:title="pb::SensorNearData\l::MFC::CameraImage::\lunknown_fields">
<polygon fill="none" stroke="black" points="186,0.5 186,-40.5 304,-40.5 304,0.5 186,0.5"/>
<text text-anchor="start" x="194" y="-28.5" font-family="Helvetica,sans-Serif" font-size="10.00">pb::SensorNearData</text>
<text text-anchor="start" x="194" y="-17.5" font-family="Helvetica,sans-Serif" font-size="10.00">::MFC::CameraImage::</text>
<text text-anchor="middle" x="245" y="-6.5" font-family="Helvetica,sans-Serif" font-size="10.00">unknown_fields</text>
</a>
</g>
</g>
<!-- Node1&#45;&gt;Node38 -->
<g id="edge37" class="edge"><title>Node1&#45;&gt;Node38</title>
<path fill="none" stroke="midnightblue" d="M68.7432,-1079.08C73.8998,-938.601 106.045,-135.676 170,-50 172.181,-47.0787 174.694,-44.441 177.449,-42.0594"/>
<polygon fill="midnightblue" stroke="midnightblue" points="179.748,-44.7155 185.777,-36.0032 175.631,-39.0543 179.748,-44.7155"/>
</g>
</g>
</svg>
