<?xml version="1.0" encoding="UTF-8" standalone="no"?>
<!DOCTYPE svg PUBLIC "-//W3C//DTD SVG 1.1//EN"
 "http://www.w3.org/Graphics/SVG/1.1/DTD/svg11.dtd">
<!-- Generated by graphviz version 2.36.0 (20140111.2315)
 -->
<!-- Title: pb::Header::MergePartialFromCodedStream Pages: 1 -->
<svg width="276pt" height="87pt"
 viewBox="0.00 0.00 276.00 87.00" xmlns="http://www.w3.org/2000/svg" xmlns:xlink="http://www.w3.org/1999/xlink">
<g id="graph0" class="graph" transform="scale(1 1) rotate(0) translate(4 83)">
<title>pb::Header::MergePartialFromCodedStream</title>
<!-- Node1 -->
<g id="node1" class="node"><title>Node1</title>
<polygon fill="#bfbfbf" stroke="black" points="0.5,-24 0.5,-54 125.5,-54 125.5,-24 0.5,-24"/>
<text text-anchor="start" x="8.5" y="-42" font-family="Helvetica,sans-Serif" font-size="10.00">pb::Header::MergePartial</text>
<text text-anchor="middle" x="63" y="-31" font-family="Helvetica,sans-Serif" font-size="10.00">FromCodedStream</text>
</g>
<!-- Node2 -->
<g id="node2" class="node"><title>Node2</title>
<g id="a_node2"><a xlink:href="classpb_1_1Header.html#a62fdc93ff5654004560f29a09e597eb2" target="_top" xlink:title="pb::Header::set_has\l_timestamp">
<polygon fill="none" stroke="black" points="162.5,-49 162.5,-79 267.5,-79 267.5,-49 162.5,-49"/>
<text text-anchor="start" x="170.5" y="-67" font-family="Helvetica,sans-Serif" font-size="10.00">pb::Header::set_has</text>
<text text-anchor="middle" x="215" y="-56" font-family="Helvetica,sans-Serif" font-size="10.00">_timestamp</text>
</a>
</g>
</g>
<!-- Node1&#45;&gt;Node2 -->
<g id="edge1" class="edge"><title>Node1&#45;&gt;Node2</title>
<path fill="none" stroke="midnightblue" d="M125.877,-49.3128C134.577,-50.7629 143.521,-52.2535 152.22,-53.7033"/>
<polygon fill="midnightblue" stroke="midnightblue" points="151.851,-57.19 162.29,-55.3817 153.001,-50.2852 151.851,-57.19"/>
</g>
<!-- Node3 -->
<g id="node3" class="node"><title>Node3</title>
<g id="a_node3"><a xlink:href="classpb_1_1Header.html#ac30ec316fb9d61d433e00e74fee92da1" target="_top" xlink:title="pb::Header::mutable\l_unknown_fields">
<polygon fill="none" stroke="black" points="162.5,-0 162.5,-30 267.5,-30 267.5,-0 162.5,-0"/>
<text text-anchor="start" x="170.5" y="-18" font-family="Helvetica,sans-Serif" font-size="10.00">pb::Header::mutable</text>
<text text-anchor="middle" x="215" y="-7" font-family="Helvetica,sans-Serif" font-size="10.00">_unknown_fields</text>
</a>
</g>
</g>
<!-- Node1&#45;&gt;Node3 -->
<g id="edge2" class="edge"><title>Node1&#45;&gt;Node3</title>
<path fill="none" stroke="midnightblue" d="M125.877,-29.0997C134.577,-27.7076 143.521,-26.2766 152.22,-24.8848"/>
<polygon fill="midnightblue" stroke="midnightblue" points="152.969,-28.3096 162.29,-23.2736 151.863,-21.3976 152.969,-28.3096"/>
</g>
</g>
</svg>
