<?xml version="1.0" encoding="UTF-8" standalone="no"?>
<!DOCTYPE svg PUBLIC "-//W3C//DTD SVG 1.1//EN"
 "http://www.w3.org/Graphics/SVG/1.1/DTD/svg11.dtd">
<!-- Generated by graphviz version 2.36.0 (20140111.2315)
 -->
<!-- Title: pb::SensorNearData::MFC::CameraImage::has_image_compression_type Pages: 1 -->
<svg width="362pt" height="229pt"
 viewBox="0.00 0.00 362.00 229.00" xmlns="http://www.w3.org/2000/svg" xmlns:xlink="http://www.w3.org/1999/xlink">
<g id="graph0" class="graph" transform="scale(1 1) rotate(0) translate(4 225)">
<title>pb::SensorNearData::MFC::CameraImage::has_image_compression_type</title>
<!-- Node1 -->
<g id="node1" class="node"><title>Node1</title>
<polygon fill="#bfbfbf" stroke="black" points="0.5,-89.5 0.5,-130.5 149.5,-130.5 149.5,-89.5 0.5,-89.5"/>
<text text-anchor="start" x="8.5" y="-118.5" font-family="Helvetica,sans-Serif" font-size="10.00">pb::SensorNearData</text>
<text text-anchor="start" x="8.5" y="-107.5" font-family="Helvetica,sans-Serif" font-size="10.00">::MFC::CameraImage::</text>
<text text-anchor="middle" x="75" y="-96.5" font-family="Helvetica,sans-Serif" font-size="10.00">has_image_compression_type</text>
</g>
<!-- Node2 -->
<g id="node2" class="node"><title>Node2</title>
<g id="a_node2"><a xlink:href="classpb_1_1SensorNearData_1_1MFC_1_1CameraImage.html#a68f2cde68b12b74681079603151d932a" target="_top" xlink:title="pb::SensorNearData\l::MFC::CameraImage::\lSerializeWithCachedSizes">
<polygon fill="none" stroke="black" points="203.5,-179.5 203.5,-220.5 336.5,-220.5 336.5,-179.5 203.5,-179.5"/>
<text text-anchor="start" x="211.5" y="-208.5" font-family="Helvetica,sans-Serif" font-size="10.00">pb::SensorNearData</text>
<text text-anchor="start" x="211.5" y="-197.5" font-family="Helvetica,sans-Serif" font-size="10.00">::MFC::CameraImage::</text>
<text text-anchor="middle" x="270" y="-186.5" font-family="Helvetica,sans-Serif" font-size="10.00">SerializeWithCachedSizes</text>
</a>
</g>
</g>
<!-- Node1&#45;&gt;Node2 -->
<g id="edge1" class="edge"><title>Node1&#45;&gt;Node2</title>
<path fill="none" stroke="midnightblue" d="M120.339,-135.545C140.124,-146.481 163.913,-159.007 186,-169 193.988,-172.614 202.534,-176.156 210.993,-179.478"/>
<polygon fill="midnightblue" stroke="midnightblue" points="121.989,-132.457 111.55,-130.646 118.581,-138.572 121.989,-132.457"/>
</g>
<!-- Node3 -->
<g id="node3" class="node"><title>Node3</title>
<g id="a_node3"><a xlink:href="classpb_1_1SensorNearData_1_1MFC_1_1CameraImage.html#a17e6ca2c29a49d34f990b3660db648b0" target="_top" xlink:title="pb::SensorNearData\l::MFC::CameraImage::\lSerializeWithCachedSizesToArray">
<polygon fill="none" stroke="black" points="186.5,-119.5 186.5,-160.5 353.5,-160.5 353.5,-119.5 186.5,-119.5"/>
<text text-anchor="start" x="194.5" y="-148.5" font-family="Helvetica,sans-Serif" font-size="10.00">pb::SensorNearData</text>
<text text-anchor="start" x="194.5" y="-137.5" font-family="Helvetica,sans-Serif" font-size="10.00">::MFC::CameraImage::</text>
<text text-anchor="middle" x="270" y="-126.5" font-family="Helvetica,sans-Serif" font-size="10.00">SerializeWithCachedSizesToArray</text>
</a>
</g>
</g>
<!-- Node1&#45;&gt;Node3 -->
<g id="edge2" class="edge"><title>Node1&#45;&gt;Node3</title>
<path fill="none" stroke="midnightblue" d="M159.487,-122.977C168.391,-124.361 177.444,-125.769 186.338,-127.151"/>
<polygon fill="midnightblue" stroke="midnightblue" points="159.935,-119.505 149.516,-121.427 158.859,-126.422 159.935,-119.505"/>
</g>
<!-- Node4 -->
<g id="node4" class="node"><title>Node4</title>
<g id="a_node4"><a xlink:href="classpb_1_1SensorNearData_1_1MFC_1_1CameraImage.html#a0e5f591b6faf941ca8056f413e4603f9" target="_top" xlink:title="pb::SensorNearData\l::MFC::CameraImage::\lByteSize">
<polygon fill="none" stroke="black" points="211,-59.5 211,-100.5 329,-100.5 329,-59.5 211,-59.5"/>
<text text-anchor="start" x="219" y="-88.5" font-family="Helvetica,sans-Serif" font-size="10.00">pb::SensorNearData</text>
<text text-anchor="start" x="219" y="-77.5" font-family="Helvetica,sans-Serif" font-size="10.00">::MFC::CameraImage::</text>
<text text-anchor="middle" x="270" y="-66.5" font-family="Helvetica,sans-Serif" font-size="10.00">ByteSize</text>
</a>
</g>
</g>
<!-- Node1&#45;&gt;Node4 -->
<g id="edge3" class="edge"><title>Node1&#45;&gt;Node4</title>
<path fill="none" stroke="midnightblue" d="M159.63,-97.0006C176.947,-94.3087 194.828,-91.5294 210.986,-89.0177"/>
<polygon fill="midnightblue" stroke="midnightblue" points="158.859,-93.5782 149.516,-98.5727 159.935,-100.495 158.859,-93.5782"/>
</g>
<!-- Node5 -->
<g id="node5" class="node"><title>Node5</title>
<g id="a_node5"><a xlink:href="classpb_1_1SensorNearData_1_1MFC_1_1CameraImage.html#ae45cc783bc05ce863660a29a98b65e6e" target="_top" xlink:title="pb::SensorNearData\l::MFC::CameraImage::\lMergeFrom">
<polygon fill="none" stroke="black" points="211,0.5 211,-40.5 329,-40.5 329,0.5 211,0.5"/>
<text text-anchor="start" x="219" y="-28.5" font-family="Helvetica,sans-Serif" font-size="10.00">pb::SensorNearData</text>
<text text-anchor="start" x="219" y="-17.5" font-family="Helvetica,sans-Serif" font-size="10.00">::MFC::CameraImage::</text>
<text text-anchor="middle" x="270" y="-6.5" font-family="Helvetica,sans-Serif" font-size="10.00">MergeFrom</text>
</a>
</g>
</g>
<!-- Node1&#45;&gt;Node5 -->
<g id="edge4" class="edge"><title>Node1&#45;&gt;Node5</title>
<path fill="none" stroke="midnightblue" d="M119.325,-84.3775C139.271,-73.1029 163.467,-60.1464 186,-50 193.964,-46.4142 202.496,-42.9379 210.948,-39.7001"/>
<polygon fill="midnightblue" stroke="midnightblue" points="117.433,-81.4276 110.481,-89.4232 120.902,-87.5077 117.433,-81.4276"/>
</g>
</g>
</svg>
