<?xml version="1.0" encoding="UTF-8" standalone="no"?>
<!DOCTYPE svg PUBLIC "-//W3C//DTD SVG 1.1//EN"
 "http://www.w3.org/Graphics/SVG/1.1/DTD/svg11.dtd">
<!-- Generated by graphviz version 2.36.0 (20140111.2315)
 -->
<!-- Title: Image::GetRGBImage Pages: 1 -->
<svg width="468pt" height="77pt"
 viewBox="0.00 0.00 468.00 77.00" xmlns="http://www.w3.org/2000/svg" xmlns:xlink="http://www.w3.org/1999/xlink">
<g id="graph0" class="graph" transform="scale(1 1) rotate(0) translate(4 73)">
<title>Image::GetRGBImage</title>
<!-- Node1 -->
<g id="node1" class="node"><title>Node1</title>
<polygon fill="#bfbfbf" stroke="black" points="0,-22.5 0,-41.5 114,-41.5 114,-22.5 0,-22.5"/>
<text text-anchor="middle" x="57" y="-29.5" font-family="Helvetica,sans-Serif" font-size="10.00">Image::GetRGBImage</text>
</g>
<!-- Node2 -->
<g id="node2" class="node"><title>Node2</title>
<g id="a_node2"><a xlink:href="classController.html#afd6375744f4f31dd254d1e5f1316ff4b" target="_top" xlink:title="Controller::SaveAllImages\lAsJPEG">
<polygon fill="none" stroke="black" points="150.5,-39 150.5,-69 281.5,-69 281.5,-39 150.5,-39"/>
<text text-anchor="start" x="158.5" y="-57" font-family="Helvetica,sans-Serif" font-size="10.00">Controller::SaveAllImages</text>
<text text-anchor="middle" x="216" y="-46" font-family="Helvetica,sans-Serif" font-size="10.00">AsJPEG</text>
</a>
</g>
</g>
<!-- Node1&#45;&gt;Node2 -->
<g id="edge1" class="edge"><title>Node1&#45;&gt;Node2</title>
<path fill="none" stroke="midnightblue" d="M124.256,-41.2843C132.892,-42.4944 141.73,-43.7329 150.339,-44.9393"/>
<polygon fill="midnightblue" stroke="midnightblue" points="124.626,-37.802 114.237,-39.8804 123.655,-44.7343 124.626,-37.802"/>
</g>
<!-- Node3 -->
<g id="node3" class="node"><title>Node3</title>
<g id="a_node3"><a xlink:href="classImageView.html#a837a13b1002126beb39dc9425151123c" target="_top" xlink:title="ImageView::ShowImage">
<polygon fill="none" stroke="black" points="154.5,-0.5 154.5,-19.5 277.5,-19.5 277.5,-0.5 154.5,-0.5"/>
<text text-anchor="middle" x="216" y="-7.5" font-family="Helvetica,sans-Serif" font-size="10.00">ImageView::ShowImage</text>
</a>
</g>
</g>
<!-- Node1&#45;&gt;Node3 -->
<g id="edge2" class="edge"><title>Node1&#45;&gt;Node3</title>
<path fill="none" stroke="midnightblue" d="M124.146,-22.7312C134.171,-21.3263 144.473,-19.8828 154.373,-18.4954"/>
<polygon fill="midnightblue" stroke="midnightblue" points="123.655,-19.2657 114.237,-24.1196 124.626,-26.198 123.655,-19.2657"/>
</g>
<!-- Node4 -->
<g id="node4" class="node"><title>Node4</title>
<g id="a_node4"><a xlink:href="classController.html#aee012beb2309ae88b7278fa3dad06d80" target="_top" xlink:title="Controller::PlayHDFAsVideo">
<polygon fill="none" stroke="black" points="318,-0.5 318,-19.5 460,-19.5 460,-0.5 318,-0.5"/>
<text text-anchor="middle" x="389" y="-7.5" font-family="Helvetica,sans-Serif" font-size="10.00">Controller::PlayHDFAsVideo</text>
</a>
</g>
</g>
<!-- Node3&#45;&gt;Node4 -->
<g id="edge3" class="edge"><title>Node3&#45;&gt;Node4</title>
<path fill="none" stroke="midnightblue" d="M287.936,-10C297.805,-10 307.942,-10 317.798,-10"/>
<polygon fill="midnightblue" stroke="midnightblue" points="287.77,-6.5001 277.77,-10 287.77,-13.5001 287.77,-6.5001"/>
</g>
</g>
</svg>
