<?xml version="1.0" encoding="UTF-8" standalone="no"?>
<!DOCTYPE svg PUBLIC "-//W3C//DTD SVG 1.1//EN"
 "http://www.w3.org/Graphics/SVG/1.1/DTD/svg11.dtd">
<!-- Generated by graphviz version 2.36.0 (20140111.2315)
 -->
<!-- Title: pb::SensorNearData::MFC::CameraImage::MergeFrom Pages: 1 -->
<svg width="434pt" height="109pt"
 viewBox="0.00 0.00 434.00 109.00" xmlns="http://www.w3.org/2000/svg" xmlns:xlink="http://www.w3.org/1999/xlink">
<g id="graph0" class="graph" transform="scale(1 1) rotate(0) translate(4 105)">
<title>pb::SensorNearData::MFC::CameraImage::MergeFrom</title>
<!-- Node1 -->
<g id="node1" class="node"><title>Node1</title>
<polygon fill="#bfbfbf" stroke="black" points="0,-29.5 0,-70.5 118,-70.5 118,-29.5 0,-29.5"/>
<text text-anchor="start" x="8" y="-58.5" font-family="Helvetica,sans-Serif" font-size="10.00">pb::SensorNearData</text>
<text text-anchor="start" x="8" y="-47.5" font-family="Helvetica,sans-Serif" font-size="10.00">::MFC::CameraImage::</text>
<text text-anchor="middle" x="59" y="-36.5" font-family="Helvetica,sans-Serif" font-size="10.00">MergeFrom</text>
</g>
<!-- Node2 -->
<g id="node2" class="node"><title>Node2</title>
<g id="a_node2"><a xlink:href="classpb_1_1SensorNearData_1_1MFC_1_1CameraImage.html#a189a4306d4a8234bf9a5f53efcb61998" target="_top" xlink:title="pb::SensorNearData\l::MFC::CameraImage::\lCameraImage">
<polygon fill="none" stroke="black" points="154,-59.5 154,-100.5 272,-100.5 272,-59.5 154,-59.5"/>
<text text-anchor="start" x="162" y="-88.5" font-family="Helvetica,sans-Serif" font-size="10.00">pb::SensorNearData</text>
<text text-anchor="start" x="162" y="-77.5" font-family="Helvetica,sans-Serif" font-size="10.00">::MFC::CameraImage::</text>
<text text-anchor="middle" x="213" y="-66.5" font-family="Helvetica,sans-Serif" font-size="10.00">CameraImage</text>
</a>
</g>
</g>
<!-- Node1&#45;&gt;Node2 -->
<g id="edge1" class="edge"><title>Node1&#45;&gt;Node2</title>
<path fill="none" stroke="midnightblue" d="M128.264,-63.4732C136.798,-65.1575 145.463,-66.8677 153.824,-68.5178"/>
<polygon fill="midnightblue" stroke="midnightblue" points="128.821,-60.0156 118.332,-61.513 127.465,-66.8832 128.821,-60.0156"/>
</g>
<!-- Node3 -->
<g id="node3" class="node"><title>Node3</title>
<g id="a_node3"><a xlink:href="classpb_1_1SensorNearData_1_1MFC_1_1CameraImage.html#add0ff05587656030ad17fdff5027c5c9" target="_top" xlink:title="pb::SensorNearData\l::MFC::CameraImage::\lCopyFrom">
<polygon fill="none" stroke="black" points="154,0.5 154,-40.5 272,-40.5 272,0.5 154,0.5"/>
<text text-anchor="start" x="162" y="-28.5" font-family="Helvetica,sans-Serif" font-size="10.00">pb::SensorNearData</text>
<text text-anchor="start" x="162" y="-17.5" font-family="Helvetica,sans-Serif" font-size="10.00">::MFC::CameraImage::</text>
<text text-anchor="middle" x="213" y="-6.5" font-family="Helvetica,sans-Serif" font-size="10.00">CopyFrom</text>
</a>
</g>
</g>
<!-- Node1&#45;&gt;Node3 -->
<g id="edge2" class="edge"><title>Node1&#45;&gt;Node3</title>
<path fill="none" stroke="midnightblue" d="M128.264,-36.5268C136.798,-34.8425 145.463,-33.1323 153.824,-31.4822"/>
<polygon fill="midnightblue" stroke="midnightblue" points="127.465,-33.1168 118.332,-38.487 128.821,-39.9844 127.465,-33.1168"/>
</g>
<!-- Node4 -->
<g id="node4" class="node"><title>Node4</title>
<g id="a_node4"><a xlink:href="classpb_1_1SensorNearData_1_1MFC_1_1CameraImage.html#ad8e4e46206209cef042ed288fb3de5aa" target="_top" xlink:title="pb::SensorNearData\l::MFC::CameraImage::\loperator=">
<polygon fill="none" stroke="black" points="308,0.5 308,-40.5 426,-40.5 426,0.5 308,0.5"/>
<text text-anchor="start" x="316" y="-28.5" font-family="Helvetica,sans-Serif" font-size="10.00">pb::SensorNearData</text>
<text text-anchor="start" x="316" y="-17.5" font-family="Helvetica,sans-Serif" font-size="10.00">::MFC::CameraImage::</text>
<text text-anchor="middle" x="367" y="-6.5" font-family="Helvetica,sans-Serif" font-size="10.00">operator=</text>
</a>
</g>
</g>
<!-- Node3&#45;&gt;Node4 -->
<g id="edge3" class="edge"><title>Node3&#45;&gt;Node4</title>
<path fill="none" stroke="midnightblue" d="M282.542,-20C290.986,-20 299.554,-20 307.824,-20"/>
<polygon fill="midnightblue" stroke="midnightblue" points="282.332,-16.5001 272.332,-20 282.332,-23.5001 282.332,-16.5001"/>
</g>
</g>
</svg>
