<?xml version="1.0" encoding="UTF-8" standalone="no"?>
<!DOCTYPE svg PUBLIC "-//W3C//DTD SVG 1.1//EN"
 "http://www.w3.org/Graphics/SVG/1.1/DTD/svg11.dtd">
<!-- Generated by graphviz version 2.36.0 (20140111.2315)
 -->
<!-- Title: pb::SensorNearData::MFC::CameraImage::bmp_image Pages: 1 -->
<svg width="330pt" height="289pt"
 viewBox="0.00 0.00 330.00 289.00" xmlns="http://www.w3.org/2000/svg" xmlns:xlink="http://www.w3.org/1999/xlink">
<g id="graph0" class="graph" transform="scale(1 1) rotate(0) translate(4 285)">
<title>pb::SensorNearData::MFC::CameraImage::bmp_image</title>
<!-- Node1 -->
<g id="node1" class="node"><title>Node1</title>
<polygon fill="#bfbfbf" stroke="black" points="0,-119.5 0,-160.5 118,-160.5 118,-119.5 0,-119.5"/>
<text text-anchor="start" x="8" y="-148.5" font-family="Helvetica,sans-Serif" font-size="10.00">pb::SensorNearData</text>
<text text-anchor="start" x="8" y="-137.5" font-family="Helvetica,sans-Serif" font-size="10.00">::MFC::CameraImage::</text>
<text text-anchor="middle" x="59" y="-126.5" font-family="Helvetica,sans-Serif" font-size="10.00">bmp_image</text>
</g>
<!-- Node2 -->
<g id="node2" class="node"><title>Node2</title>
<g id="a_node2"><a xlink:href="classpb_1_1SensorNearData_1_1MFC_1_1CameraImage.html#a68f2cde68b12b74681079603151d932a" target="_top" xlink:title="pb::SensorNearData\l::MFC::CameraImage::\lSerializeWithCachedSizes">
<polygon fill="none" stroke="black" points="171.5,-239.5 171.5,-280.5 304.5,-280.5 304.5,-239.5 171.5,-239.5"/>
<text text-anchor="start" x="179.5" y="-268.5" font-family="Helvetica,sans-Serif" font-size="10.00">pb::SensorNearData</text>
<text text-anchor="start" x="179.5" y="-257.5" font-family="Helvetica,sans-Serif" font-size="10.00">::MFC::CameraImage::</text>
<text text-anchor="middle" x="238" y="-246.5" font-family="Helvetica,sans-Serif" font-size="10.00">SerializeWithCachedSizes</text>
</a>
</g>
</g>
<!-- Node1&#45;&gt;Node2 -->
<g id="edge1" class="edge"><title>Node1&#45;&gt;Node2</title>
<path fill="none" stroke="midnightblue" d="M84.0635,-168.108C101.788,-187.381 127.354,-212.377 154,-229 160.134,-232.827 166.813,-236.293 173.631,-239.402"/>
<polygon fill="midnightblue" stroke="midnightblue" points="86.4996,-165.583 77.2016,-160.504 81.3028,-170.273 86.4996,-165.583"/>
</g>
<!-- Node3 -->
<g id="node3" class="node"><title>Node3</title>
<g id="a_node3"><a xlink:href="classpb_1_1SensorNearData_1_1MFC_1_1CameraImage.html#a17e6ca2c29a49d34f990b3660db648b0" target="_top" xlink:title="pb::SensorNearData\l::MFC::CameraImage::\lSerializeWithCachedSizesToArray">
<polygon fill="none" stroke="black" points="154.5,-179.5 154.5,-220.5 321.5,-220.5 321.5,-179.5 154.5,-179.5"/>
<text text-anchor="start" x="162.5" y="-208.5" font-family="Helvetica,sans-Serif" font-size="10.00">pb::SensorNearData</text>
<text text-anchor="start" x="162.5" y="-197.5" font-family="Helvetica,sans-Serif" font-size="10.00">::MFC::CameraImage::</text>
<text text-anchor="middle" x="238" y="-186.5" font-family="Helvetica,sans-Serif" font-size="10.00">SerializeWithCachedSizesToArray</text>
</a>
</g>
</g>
<!-- Node1&#45;&gt;Node3 -->
<g id="edge2" class="edge"><title>Node1&#45;&gt;Node3</title>
<path fill="none" stroke="midnightblue" d="M128.211,-163.122C144.117,-168.514 160.947,-174.219 176.492,-179.489"/>
<polygon fill="midnightblue" stroke="midnightblue" points="129.041,-159.708 118.447,-159.813 126.794,-166.338 129.041,-159.708"/>
</g>
<!-- Node4 -->
<g id="node4" class="node"><title>Node4</title>
<g id="a_node4"><a xlink:href="classpb_1_1SensorNearData_1_1MFC_1_1CameraImage.html#a0e5f591b6faf941ca8056f413e4603f9" target="_top" xlink:title="pb::SensorNearData\l::MFC::CameraImage::\lByteSize">
<polygon fill="none" stroke="black" points="179,-119.5 179,-160.5 297,-160.5 297,-119.5 179,-119.5"/>
<text text-anchor="start" x="187" y="-148.5" font-family="Helvetica,sans-Serif" font-size="10.00">pb::SensorNearData</text>
<text text-anchor="start" x="187" y="-137.5" font-family="Helvetica,sans-Serif" font-size="10.00">::MFC::CameraImage::</text>
<text text-anchor="middle" x="238" y="-126.5" font-family="Helvetica,sans-Serif" font-size="10.00">ByteSize</text>
</a>
</g>
</g>
<!-- Node1&#45;&gt;Node4 -->
<g id="edge3" class="edge"><title>Node1&#45;&gt;Node4</title>
<path fill="none" stroke="midnightblue" d="M128.64,-140C145.25,-140 162.845,-140 178.916,-140"/>
<polygon fill="midnightblue" stroke="midnightblue" points="128.447,-136.5 118.447,-140 128.447,-143.5 128.447,-136.5"/>
</g>
<!-- Node5 -->
<g id="node5" class="node"><title>Node5</title>
<g id="a_node5"><a xlink:href="classpb_1_1SensorNearData_1_1MFC_1_1CameraImage.html#ae45cc783bc05ce863660a29a98b65e6e" target="_top" xlink:title="pb::SensorNearData\l::MFC::CameraImage::\lMergeFrom">
<polygon fill="none" stroke="black" points="179,-59.5 179,-100.5 297,-100.5 297,-59.5 179,-59.5"/>
<text text-anchor="start" x="187" y="-88.5" font-family="Helvetica,sans-Serif" font-size="10.00">pb::SensorNearData</text>
<text text-anchor="start" x="187" y="-77.5" font-family="Helvetica,sans-Serif" font-size="10.00">::MFC::CameraImage::</text>
<text text-anchor="middle" x="238" y="-66.5" font-family="Helvetica,sans-Serif" font-size="10.00">MergeFrom</text>
</a>
</g>
</g>
<!-- Node1&#45;&gt;Node5 -->
<g id="edge4" class="edge"><title>Node1&#45;&gt;Node5</title>
<path fill="none" stroke="midnightblue" d="M128.17,-116.892C144.918,-111.214 162.693,-105.189 178.916,-99.6894"/>
<polygon fill="midnightblue" stroke="midnightblue" points="126.794,-113.662 118.447,-120.187 129.041,-120.292 126.794,-113.662"/>
</g>
<!-- Node6 -->
<g id="node6" class="node"><title>Node6</title>
<g id="a_node6"><a xlink:href="classpb_1_1SensorNearData_1_1MFC_1_1CameraImage.html#af81ee29cf1ff983c0191bdcf50aca3c9" target="_top" xlink:title="pb::SensorNearData\l::MFC::CameraImage::\lset_allocated_bmp_image">
<polygon fill="none" stroke="black" points="173,0.5 173,-40.5 303,-40.5 303,0.5 173,0.5"/>
<text text-anchor="start" x="181" y="-28.5" font-family="Helvetica,sans-Serif" font-size="10.00">pb::SensorNearData</text>
<text text-anchor="start" x="181" y="-17.5" font-family="Helvetica,sans-Serif" font-size="10.00">::MFC::CameraImage::</text>
<text text-anchor="middle" x="238" y="-6.5" font-family="Helvetica,sans-Serif" font-size="10.00">set_allocated_bmp_image</text>
</a>
</g>
</g>
<!-- Node1&#45;&gt;Node6 -->
<g id="edge5" class="edge"><title>Node1&#45;&gt;Node6</title>
<path fill="none" stroke="midnightblue" d="M83.9497,-111.474C101.621,-91.9357 127.17,-66.6441 154,-50 159.859,-46.3653 166.223,-43.0814 172.733,-40.1374"/>
<polygon fill="midnightblue" stroke="midnightblue" points="81.1281,-109.381 77.1114,-119.185 86.3652,-114.025 81.1281,-109.381"/>
</g>
</g>
</svg>
