<?xml version="1.0" encoding="UTF-8" standalone="no"?>
<!DOCTYPE svg PUBLIC "-//W3C//DTD SVG 1.1//EN"
 "http://www.w3.org/Graphics/SVG/1.1/DTD/svg11.dtd">
<!-- Generated by graphviz version 2.36.0 (20140111.2315)
 -->
<!-- Title: org::libcppa::WarnOrAck::SerializeWithCachedSizes Pages: 1 -->
<svg width="330pt" height="224pt"
 viewBox="0.00 0.00 330.00 224.00" xmlns="http://www.w3.org/2000/svg" xmlns:xlink="http://www.w3.org/1999/xlink">
<g id="graph0" class="graph" transform="scale(1 1) rotate(0) translate(4 220)">
<title>org::libcppa::WarnOrAck::SerializeWithCachedSizes</title>
<!-- Node1 -->
<g id="node1" class="node"><title>Node1</title>
<polygon fill="#bfbfbf" stroke="black" points="0.5,-88 0.5,-118 139.5,-118 139.5,-88 0.5,-88"/>
<text text-anchor="start" x="8.5" y="-106" font-family="Helvetica,sans-Serif" font-size="10.00">org::libcppa::WarnOrAck</text>
<text text-anchor="middle" x="70" y="-95" font-family="Helvetica,sans-Serif" font-size="10.00">::SerializeWithCachedSizes</text>
</g>
<!-- Node2 -->
<g id="node2" class="node"><title>Node2</title>
<g id="a_node2"><a xlink:href="classorg_1_1libcppa_1_1WarnOrAck.html#ac607e8a3448c09e0d96c5930d75c2f73" target="_top" xlink:title="org::libcppa::WarnOrAck\l::has_warn">
<polygon fill="none" stroke="black" points="187,-186 187,-216 311,-216 311,-186 187,-186"/>
<text text-anchor="start" x="195" y="-204" font-family="Helvetica,sans-Serif" font-size="10.00">org::libcppa::WarnOrAck</text>
<text text-anchor="middle" x="249" y="-193" font-family="Helvetica,sans-Serif" font-size="10.00">::has_warn</text>
</a>
</g>
</g>
<!-- Node1&#45;&gt;Node2 -->
<g id="edge1" class="edge"><title>Node1&#45;&gt;Node2</title>
<path fill="none" stroke="midnightblue" d="M89.3632,-118.108C109.585,-134.168 143.551,-159.482 176,-176 180.271,-178.174 184.775,-180.233 189.36,-182.167"/>
<polygon fill="midnightblue" stroke="midnightblue" points="188.252,-185.493 198.837,-185.956 190.85,-178.994 188.252,-185.493"/>
</g>
<!-- Node3 -->
<g id="node3" class="node"><title>Node3</title>
<g id="a_node3"><a xlink:href="classorg_1_1libcppa_1_1WarnOrAck.html#ab669badf2c2a7b504ffde7d37c2b1a9f" target="_top" xlink:title="org::libcppa::WarnOrAck\l::warn">
<polygon fill="none" stroke="black" points="187,-137 187,-167 311,-167 311,-137 187,-137"/>
<text text-anchor="start" x="195" y="-155" font-family="Helvetica,sans-Serif" font-size="10.00">org::libcppa::WarnOrAck</text>
<text text-anchor="middle" x="249" y="-144" font-family="Helvetica,sans-Serif" font-size="10.00">::warn</text>
</a>
</g>
</g>
<!-- Node1&#45;&gt;Node3 -->
<g id="edge2" class="edge"><title>Node1&#45;&gt;Node3</title>
<path fill="none" stroke="midnightblue" d="M125.55,-118.101C143.974,-123.202 164.712,-128.943 183.812,-134.23"/>
<polygon fill="midnightblue" stroke="midnightblue" points="183.059,-137.653 193.63,-136.948 184.926,-130.907 183.059,-137.653"/>
</g>
<!-- Node4 -->
<g id="node4" class="node"><title>Node4</title>
<g id="a_node4"><a xlink:href="classorg_1_1libcppa_1_1WarnOrAck.html#a8eeec6df03e93704ac596a78d269eb3c" target="_top" xlink:title="org::libcppa::WarnOrAck\l::has_ack">
<polygon fill="none" stroke="black" points="187,-88 187,-118 311,-118 311,-88 187,-88"/>
<text text-anchor="start" x="195" y="-106" font-family="Helvetica,sans-Serif" font-size="10.00">org::libcppa::WarnOrAck</text>
<text text-anchor="middle" x="249" y="-95" font-family="Helvetica,sans-Serif" font-size="10.00">::has_ack</text>
</a>
</g>
</g>
<!-- Node1&#45;&gt;Node4 -->
<g id="edge3" class="edge"><title>Node1&#45;&gt;Node4</title>
<path fill="none" stroke="midnightblue" d="M139.686,-103C151.833,-103 164.505,-103 176.721,-103"/>
<polygon fill="midnightblue" stroke="midnightblue" points="176.854,-106.5 186.854,-103 176.854,-99.5001 176.854,-106.5"/>
</g>
<!-- Node5 -->
<g id="node5" class="node"><title>Node5</title>
<g id="a_node5"><a xlink:href="classorg_1_1libcppa_1_1WarnOrAck.html#adb01773cc3a768704172a72677e4641b" target="_top" xlink:title="org::libcppa::WarnOrAck::ack">
<polygon fill="none" stroke="black" points="176,-49.5 176,-68.5 322,-68.5 322,-49.5 176,-49.5"/>
<text text-anchor="middle" x="249" y="-56.5" font-family="Helvetica,sans-Serif" font-size="10.00">org::libcppa::WarnOrAck::ack</text>
</a>
</g>
</g>
<!-- Node1&#45;&gt;Node5 -->
<g id="edge4" class="edge"><title>Node1&#45;&gt;Node5</title>
<path fill="none" stroke="midnightblue" d="M131.418,-87.9808C153.81,-82.4144 178.878,-76.1829 200.014,-70.9287"/>
<polygon fill="midnightblue" stroke="midnightblue" points="200.874,-74.3216 209.734,-68.5124 199.185,-67.5283 200.874,-74.3216"/>
</g>
<!-- Node6 -->
<g id="node6" class="node"><title>Node6</title>
<g id="a_node6"><a xlink:href="classorg_1_1libcppa_1_1WarnOrAck.html#a5ff85dc1f8ecb4c1de1ae3094ba96216" target="_top" xlink:title="org::libcppa::WarnOrAck\l::unknown_fields">
<polygon fill="none" stroke="black" points="187,-0 187,-30 311,-30 311,-0 187,-0"/>
<text text-anchor="start" x="195" y="-18" font-family="Helvetica,sans-Serif" font-size="10.00">org::libcppa::WarnOrAck</text>
<text text-anchor="middle" x="249" y="-7" font-family="Helvetica,sans-Serif" font-size="10.00">::unknown_fields</text>
</a>
</g>
</g>
<!-- Node1&#45;&gt;Node6 -->
<g id="edge5" class="edge"><title>Node1&#45;&gt;Node6</title>
<path fill="none" stroke="midnightblue" d="M93.1961,-87.8354C113.954,-74.1066 146.15,-53.9548 176,-40 180.675,-37.8145 185.596,-35.7147 190.581,-33.7252"/>
<polygon fill="midnightblue" stroke="midnightblue" points="192.11,-36.8876 200.196,-30.0416 189.605,-30.3509 192.11,-36.8876"/>
</g>
</g>
</svg>
