<?xml version="1.0" encoding="UTF-8" standalone="no"?>
<!DOCTYPE svg PUBLIC "-//W3C//DTD SVG 1.1//EN"
 "http://www.w3.org/Graphics/SVG/1.1/DTD/svg11.dtd">
<!-- Generated by graphviz version 2.36.0 (20140111.2315)
 -->
<!-- Title: org::libcppa::ack::default_instance Pages: 1 -->
<svg width="640pt" height="109pt"
 viewBox="0.00 0.00 640.00 109.00" xmlns="http://www.w3.org/2000/svg" xmlns:xlink="http://www.w3.org/1999/xlink">
<g id="graph0" class="graph" transform="scale(1 1) rotate(0) translate(4 105)">
<title>org::libcppa::ack::default_instance</title>
<!-- Node1 -->
<g id="node1" class="node"><title>Node1</title>
<polygon fill="#bfbfbf" stroke="black" points="0.5,-41 0.5,-71 95.5,-71 95.5,-41 0.5,-41"/>
<text text-anchor="start" x="8.5" y="-59" font-family="Helvetica,sans-Serif" font-size="10.00">org::libcppa::ack::</text>
<text text-anchor="middle" x="48" y="-48" font-family="Helvetica,sans-Serif" font-size="10.00">default_instance</text>
</g>
<!-- Node2 -->
<g id="node2" class="node"><title>Node2</title>
<g id="a_node2"><a xlink:href="classorg_1_1libcppa_1_1WarnOrAck.html#a4b758a7380351f6eb44e8e11d2e43306" target="_top" xlink:title="org::libcppa::WarnOrAck\l::InitAsDefaultInstance">
<polygon fill="none" stroke="black" points="132,-41 132,-71 256,-71 256,-41 132,-41"/>
<text text-anchor="start" x="140" y="-59" font-family="Helvetica,sans-Serif" font-size="10.00">org::libcppa::WarnOrAck</text>
<text text-anchor="middle" x="194" y="-48" font-family="Helvetica,sans-Serif" font-size="10.00">::InitAsDefaultInstance</text>
</a>
</g>
</g>
<!-- Node1&#45;&gt;Node2 -->
<g id="edge1" class="edge"><title>Node1&#45;&gt;Node2</title>
<path fill="none" stroke="midnightblue" d="M105.936,-56C114.431,-56 123.219,-56 131.797,-56"/>
<polygon fill="midnightblue" stroke="midnightblue" points="105.753,-52.5001 95.7527,-56 105.753,-59.5001 105.753,-52.5001"/>
</g>
<!-- Node3 -->
<g id="node3" class="node"><title>Node3</title>
<g id="a_node3"><a xlink:href="namespaceorg_1_1libcppa.html#a53893d1ff6bccd47afc19718d1797afb" target="_top" xlink:title="org::libcppa::protobuf\l_AddDesc_message_2eproto">
<polygon fill="none" stroke="black" points="292.5,-41 292.5,-71 437.5,-71 437.5,-41 292.5,-41"/>
<text text-anchor="start" x="300.5" y="-59" font-family="Helvetica,sans-Serif" font-size="10.00">org::libcppa::protobuf</text>
<text text-anchor="middle" x="365" y="-48" font-family="Helvetica,sans-Serif" font-size="10.00">_AddDesc_message_2eproto</text>
</a>
</g>
</g>
<!-- Node2&#45;&gt;Node3 -->
<g id="edge2" class="edge"><title>Node2&#45;&gt;Node3</title>
<path fill="none" stroke="midnightblue" d="M266.12,-56C274.825,-56 283.724,-56 292.436,-56"/>
<polygon fill="midnightblue" stroke="midnightblue" points="266.013,-52.5001 256.013,-56 266.013,-59.5001 266.013,-52.5001"/>
</g>
<!-- Node4 -->
<g id="node4" class="node"><title>Node4</title>
<g id="a_node4"><a xlink:href="namespaceorg_1_1libcppa.html#ae01764e64ed49404f326136a720b1f3a" target="_top" xlink:title="org::libcppa::protobuf\l_AssignDesc_message_2eproto">
<polygon fill="none" stroke="black" points="474,-71 474,-101 632,-101 632,-71 474,-71"/>
<text text-anchor="start" x="482" y="-89" font-family="Helvetica,sans-Serif" font-size="10.00">org::libcppa::protobuf</text>
<text text-anchor="middle" x="553" y="-78" font-family="Helvetica,sans-Serif" font-size="10.00">_AssignDesc_message_2eproto</text>
</a>
</g>
</g>
<!-- Node3&#45;&gt;Node4 -->
<g id="edge3" class="edge"><title>Node3&#45;&gt;Node4</title>
<path fill="none" stroke="midnightblue" d="M447.761,-69.1872C456.444,-70.5878 465.26,-72.0097 473.9,-73.4033"/>
<polygon fill="midnightblue" stroke="midnightblue" points="448.076,-65.6929 437.646,-67.5559 446.961,-72.6036 448.076,-65.6929"/>
</g>
<!-- Node5 -->
<g id="node5" class="node"><title>Node5</title>
<g id="a_node5"><a xlink:href="structorg_1_1libcppa_1_1StaticDescriptorInitializer__message__2eproto.html#ac6023162292154effbea9c4a223f68cd" target="_top" xlink:title="org::libcppa::StaticDescriptor\lInitializer_message_2eproto\l::StaticDescriptorInitializer\l_message_2eproto">
<polygon fill="none" stroke="black" points="481.5,-0 481.5,-52 624.5,-52 624.5,-0 481.5,-0"/>
<text text-anchor="start" x="489.5" y="-40" font-family="Helvetica,sans-Serif" font-size="10.00">org::libcppa::StaticDescriptor</text>
<text text-anchor="start" x="489.5" y="-29" font-family="Helvetica,sans-Serif" font-size="10.00">Initializer_message_2eproto</text>
<text text-anchor="start" x="489.5" y="-18" font-family="Helvetica,sans-Serif" font-size="10.00">::StaticDescriptorInitializer</text>
<text text-anchor="middle" x="553" y="-7" font-family="Helvetica,sans-Serif" font-size="10.00">_message_2eproto</text>
</a>
</g>
</g>
<!-- Node3&#45;&gt;Node5 -->
<g id="edge4" class="edge"><title>Node3&#45;&gt;Node5</title>
<path fill="none" stroke="midnightblue" d="M447.819,-42.8033C458.984,-41.0026 470.366,-39.1668 481.31,-37.4015"/>
<polygon fill="midnightblue" stroke="midnightblue" points="446.961,-39.3964 437.646,-44.4441 448.076,-46.3071 446.961,-39.3964"/>
</g>
</g>
</svg>
