<?xml version="1.0" encoding="UTF-8" standalone="no"?>
<!DOCTYPE svg PUBLIC "-//W3C//DTD SVG 1.1//EN"
 "http://www.w3.org/Graphics/SVG/1.1/DTD/svg11.dtd">
<!-- Generated by graphviz version 2.36.0 (20140111.2315)
 -->
<!-- Title: Image::Image Pages: 1 -->
<svg width="406pt" height="28pt"
 viewBox="0.00 0.00 406.00 28.00" xmlns="http://www.w3.org/2000/svg" xmlns:xlink="http://www.w3.org/1999/xlink">
<g id="graph0" class="graph" transform="scale(1 1) rotate(0) translate(4 24)">
<title>Image::Image</title>
<!-- Node1 -->
<g id="node1" class="node"><title>Node1</title>
<polygon fill="#bfbfbf" stroke="black" points="0.5,-0.5 0.5,-19.5 77.5,-19.5 77.5,-0.5 0.5,-0.5"/>
<text text-anchor="middle" x="39" y="-7.5" font-family="Helvetica,sans-Serif" font-size="10.00">Image::Image</text>
</g>
<!-- Node2 -->
<g id="node2" class="node"><title>Node2</title>
<g id="a_node2"><a xlink:href="classImage.html#abb661d7f8d27ba480e777db9aefc7b35" target="_top" xlink:title="Image::ConvertToArray">
<polygon fill="none" stroke="black" points="114.5,-0.5 114.5,-19.5 233.5,-19.5 233.5,-0.5 114.5,-0.5"/>
<text text-anchor="middle" x="174" y="-7.5" font-family="Helvetica,sans-Serif" font-size="10.00">Image::ConvertToArray</text>
</a>
</g>
</g>
<!-- Node1&#45;&gt;Node2 -->
<g id="edge1" class="edge"><title>Node1&#45;&gt;Node2</title>
<path fill="none" stroke="midnightblue" d="M77.7567,-10C86.0149,-10 95.0054,-10 104.056,-10"/>
<polygon fill="midnightblue" stroke="midnightblue" points="104.265,-13.5001 114.265,-10 104.265,-6.5001 104.265,-13.5001"/>
</g>
<!-- Node3 -->
<g id="node3" class="node"><title>Node3</title>
<g id="a_node3"><a xlink:href="classImage.html#ad3f43e3ace90b4893eed677deb6a2631" target="_top" xlink:title="Image::GetImagePayload">
<polygon fill="none" stroke="black" points="270,-0.5 270,-19.5 398,-19.5 398,-0.5 270,-0.5"/>
<text text-anchor="middle" x="334" y="-7.5" font-family="Helvetica,sans-Serif" font-size="10.00">Image::GetImagePayload</text>
</a>
</g>
</g>
<!-- Node2&#45;&gt;Node3 -->
<g id="edge2" class="edge"><title>Node2&#45;&gt;Node3</title>
<path fill="none" stroke="midnightblue" d="M233.833,-10C242.284,-10 251.064,-10 259.751,-10"/>
<polygon fill="midnightblue" stroke="midnightblue" points="259.88,-13.5001 269.88,-10 259.88,-6.5001 259.88,-13.5001"/>
</g>
</g>
</svg>
