<?xml version="1.0" encoding="UTF-8" standalone="no"?>
<!DOCTYPE svg PUBLIC "-//W3C//DTD SVG 1.1//EN"
 "http://www.w3.org/Graphics/SVG/1.1/DTD/svg11.dtd">
<!-- Generated by graphviz version 2.36.0 (20140111.2315)
 -->
<!-- Title: Element::GetBoxSize Pages: 1 -->
<svg width="472pt" height="71pt"
 viewBox="0.00 0.00 472.00 71.00" xmlns="http://www.w3.org/2000/svg" xmlns:xlink="http://www.w3.org/1999/xlink">
<g id="graph0" class="graph" transform="scale(1 1) rotate(0) translate(4 67)">
<title>Element::GetBoxSize</title>
<!-- Node1 -->
<g id="node1" class="node"><title>Node1</title>
<polygon fill="#bfbfbf" stroke="black" points="0.5,-19.5 0.5,-38.5 111.5,-38.5 111.5,-19.5 0.5,-19.5"/>
<text text-anchor="middle" x="56" y="-26.5" font-family="Helvetica,sans-Serif" font-size="10.00">Element::GetBoxSize</text>
</g>
<!-- Node2 -->
<g id="node2" class="node"><title>Node2</title>
<g id="a_node2"><a xlink:href="classScenario.html#ad8a3632b73757283754695f92f51b2f5" target="_top" xlink:title="Scenario::Overlap">
<polygon fill="none" stroke="black" points="165.5,-38.5 165.5,-57.5 260.5,-57.5 260.5,-38.5 165.5,-38.5"/>
<text text-anchor="middle" x="213" y="-45.5" font-family="Helvetica,sans-Serif" font-size="10.00">Scenario::Overlap</text>
</a>
</g>
</g>
<!-- Node1&#45;&gt;Node2 -->
<g id="edge1" class="edge"><title>Node1&#45;&gt;Node2</title>
<path fill="none" stroke="midnightblue" d="M121.655,-36.9255C136.295,-38.7201 151.564,-40.5918 165.294,-42.2747"/>
<polygon fill="midnightblue" stroke="midnightblue" points="121.999,-33.4415 111.647,-35.6987 121.147,-40.3895 121.999,-33.4415"/>
</g>
<!-- Node4 -->
<g id="node4" class="node"><title>Node4</title>
<g id="a_node4"><a xlink:href="classScenario.html#a88eae880766123713d2202bcd4ffaa7c" target="_top" xlink:title="Scenario::CenterDistance">
<polygon fill="none" stroke="black" points="148.5,-0.5 148.5,-19.5 277.5,-19.5 277.5,-0.5 148.5,-0.5"/>
<text text-anchor="middle" x="213" y="-7.5" font-family="Helvetica,sans-Serif" font-size="10.00">Scenario::CenterDistance</text>
</a>
</g>
</g>
<!-- Node1&#45;&gt;Node4 -->
<g id="edge3" class="edge"><title>Node1&#45;&gt;Node4</title>
<path fill="none" stroke="midnightblue" d="M121.807,-21.056C130.572,-19.9815 139.56,-18.8797 148.306,-17.8077"/>
<polygon fill="midnightblue" stroke="midnightblue" points="121.147,-17.6105 111.647,-22.3013 121.999,-24.5585 121.147,-17.6105"/>
</g>
<!-- Node3 -->
<g id="node3" class="node"><title>Node3</title>
<g id="a_node3"><a xlink:href="classHumansInFrontOfBusScenario.html#a3eb02befb731be6f9ef9c7e54fae6560" target="_top" xlink:title="HumansInFrontOfBusScenario\l::Detect">
<polygon fill="none" stroke="black" points="314,-33 314,-63 464,-63 464,-33 314,-33"/>
<text text-anchor="start" x="322" y="-51" font-family="Helvetica,sans-Serif" font-size="10.00">HumansInFrontOfBusScenario</text>
<text text-anchor="middle" x="389" y="-40" font-family="Helvetica,sans-Serif" font-size="10.00">::Detect</text>
</a>
</g>
</g>
<!-- Node2&#45;&gt;Node3 -->
<g id="edge2" class="edge"><title>Node2&#45;&gt;Node3</title>
<path fill="none" stroke="midnightblue" d="M270.841,-48C284.519,-48 299.332,-48 313.676,-48"/>
<polygon fill="midnightblue" stroke="midnightblue" points="270.629,-44.5001 260.629,-48 270.629,-51.5001 270.629,-44.5001"/>
</g>
</g>
</svg>
