<?xml version="1.0" encoding="UTF-8" standalone="no"?>
<!DOCTYPE svg PUBLIC "-//W3C//DTD SVG 1.1//EN"
 "http://www.w3.org/Graphics/SVG/1.1/DTD/svg11.dtd">
<!-- Generated by graphviz version 2.36.0 (20140111.2315)
 -->
<!-- Title: pb::Header::Clear Pages: 1 -->
<svg width="402pt" height="28pt"
 viewBox="0.00 0.00 402.00 28.00" xmlns="http://www.w3.org/2000/svg" xmlns:xlink="http://www.w3.org/1999/xlink">
<g id="graph0" class="graph" transform="scale(1 1) rotate(0) translate(4 24)">
<title>pb::Header::Clear</title>
<!-- Node1 -->
<g id="node1" class="node"><title>Node1</title>
<polygon fill="#bfbfbf" stroke="black" points="0,-0.5 0,-19.5 94,-19.5 94,-0.5 0,-0.5"/>
<text text-anchor="middle" x="47" y="-7.5" font-family="Helvetica,sans-Serif" font-size="10.00">pb::Header::Clear</text>
</g>
<!-- Node2 -->
<g id="node2" class="node"><title>Node2</title>
<g id="a_node2"><a xlink:href="classpb_1_1Header.html#afe6059f174b3fad7ce772df32d877647" target="_top" xlink:title="pb::Header::CopyFrom">
<polygon fill="none" stroke="black" points="130,-0.5 130,-19.5 246,-19.5 246,-0.5 130,-0.5"/>
<text text-anchor="middle" x="188" y="-7.5" font-family="Helvetica,sans-Serif" font-size="10.00">pb::Header::CopyFrom</text>
</a>
</g>
</g>
<!-- Node1&#45;&gt;Node2 -->
<g id="edge1" class="edge"><title>Node1&#45;&gt;Node2</title>
<path fill="none" stroke="midnightblue" d="M104.347,-10C112.733,-10 121.383,-10 129.786,-10"/>
<polygon fill="midnightblue" stroke="midnightblue" points="104.285,-6.5001 94.285,-10 104.285,-13.5001 104.285,-6.5001"/>
</g>
<!-- Node3 -->
<g id="node3" class="node"><title>Node3</title>
<g id="a_node3"><a xlink:href="classpb_1_1Header.html#a30af6b12daec382f6659bad8ccad3b1d" target="_top" xlink:title="pb::Header::operator=">
<polygon fill="none" stroke="black" points="282,-0.5 282,-19.5 394,-19.5 394,-0.5 282,-0.5"/>
<text text-anchor="middle" x="338" y="-7.5" font-family="Helvetica,sans-Serif" font-size="10.00">pb::Header::operator=</text>
</a>
</g>
</g>
<!-- Node2&#45;&gt;Node3 -->
<g id="edge2" class="edge"><title>Node2&#45;&gt;Node3</title>
<path fill="none" stroke="midnightblue" d="M256.496,-10C264.992,-10 273.603,-10 281.877,-10"/>
<polygon fill="midnightblue" stroke="midnightblue" points="256.221,-6.5001 246.221,-10 256.221,-13.5001 256.221,-6.5001"/>
</g>
</g>
</svg>
