<?xml version="1.0" encoding="UTF-8" standalone="no"?>
<!DOCTYPE svg PUBLIC "-//W3C//DTD SVG 1.1//EN"
 "http://www.w3.org/Graphics/SVG/1.1/DTD/svg11.dtd">
<!-- Generated by graphviz version 2.36.0 (20140111.2315)
 -->
<!-- Title: pb::SensorNearData::MFC::CameraImage::set_has_image_counter Pages: 1 -->
<svg width="472pt" height="109pt"
 viewBox="0.00 0.00 472.00 109.00" xmlns="http://www.w3.org/2000/svg" xmlns:xlink="http://www.w3.org/1999/xlink">
<g id="graph0" class="graph" transform="scale(1 1) rotate(0) translate(4 105)">
<title>pb::SensorNearData::MFC::CameraImage::set_has_image_counter</title>
<!-- Node1 -->
<g id="node1" class="node"><title>Node1</title>
<polygon fill="#bfbfbf" stroke="black" points="0,-29.5 0,-70.5 120,-70.5 120,-29.5 0,-29.5"/>
<text text-anchor="start" x="8" y="-58.5" font-family="Helvetica,sans-Serif" font-size="10.00">pb::SensorNearData</text>
<text text-anchor="start" x="8" y="-47.5" font-family="Helvetica,sans-Serif" font-size="10.00">::MFC::CameraImage::</text>
<text text-anchor="middle" x="60" y="-36.5" font-family="Helvetica,sans-Serif" font-size="10.00">set_has_image_counter</text>
</g>
<!-- Node2 -->
<g id="node2" class="node"><title>Node2</title>
<g id="a_node2"><a xlink:href="classpb_1_1SensorNearData_1_1MFC_1_1CameraImage.html#ab5a9863ea1ea849627b3662d0b2d6c44" target="_top" xlink:title="pb::SensorNearData\l::MFC::CameraImage::\lMergePartialFromCodedStream">
<polygon fill="none" stroke="black" points="156,-59.5 156,-100.5 310,-100.5 310,-59.5 156,-59.5"/>
<text text-anchor="start" x="164" y="-88.5" font-family="Helvetica,sans-Serif" font-size="10.00">pb::SensorNearData</text>
<text text-anchor="start" x="164" y="-77.5" font-family="Helvetica,sans-Serif" font-size="10.00">::MFC::CameraImage::</text>
<text text-anchor="middle" x="233" y="-66.5" font-family="Helvetica,sans-Serif" font-size="10.00">MergePartialFromCodedStream</text>
</a>
</g>
</g>
<!-- Node1&#45;&gt;Node2 -->
<g id="edge1" class="edge"><title>Node1&#45;&gt;Node2</title>
<path fill="none" stroke="midnightblue" d="M130.434,-62.1814C138.825,-63.6535 147.43,-65.1632 155.911,-66.651"/>
<polygon fill="midnightblue" stroke="midnightblue" points="130.782,-58.6891 120.328,-60.4084 129.572,-65.5838 130.782,-58.6891"/>
</g>
<!-- Node3 -->
<g id="node3" class="node"><title>Node3</title>
<g id="a_node3"><a xlink:href="classpb_1_1SensorNearData_1_1MFC_1_1CameraImage.html#a67b4fa2873534ebf51362804d343f497" target="_top" xlink:title="pb::SensorNearData\l::MFC::CameraImage::\lset_image_counter">
<polygon fill="none" stroke="black" points="174,0.5 174,-40.5 292,-40.5 292,0.5 174,0.5"/>
<text text-anchor="start" x="182" y="-28.5" font-family="Helvetica,sans-Serif" font-size="10.00">pb::SensorNearData</text>
<text text-anchor="start" x="182" y="-17.5" font-family="Helvetica,sans-Serif" font-size="10.00">::MFC::CameraImage::</text>
<text text-anchor="middle" x="233" y="-6.5" font-family="Helvetica,sans-Serif" font-size="10.00">set_image_counter</text>
</a>
</g>
</g>
<!-- Node1&#45;&gt;Node3 -->
<g id="edge2" class="edge"><title>Node1&#45;&gt;Node3</title>
<path fill="none" stroke="midnightblue" d="M130.241,-37.8525C144.741,-35.3086 159.889,-32.6511 173.932,-30.1874"/>
<polygon fill="midnightblue" stroke="midnightblue" points="129.572,-34.4162 120.328,-39.5916 130.782,-41.3109 129.572,-34.4162"/>
</g>
<!-- Node4 -->
<g id="node4" class="node"><title>Node4</title>
<g id="a_node4"><a xlink:href="classpb_1_1SensorNearData_1_1MFC_1_1CameraImage.html#ae45cc783bc05ce863660a29a98b65e6e" target="_top" xlink:title="pb::SensorNearData\l::MFC::CameraImage::\lMergeFrom">
<polygon fill="none" stroke="black" points="346,0.5 346,-40.5 464,-40.5 464,0.5 346,0.5"/>
<text text-anchor="start" x="354" y="-28.5" font-family="Helvetica,sans-Serif" font-size="10.00">pb::SensorNearData</text>
<text text-anchor="start" x="354" y="-17.5" font-family="Helvetica,sans-Serif" font-size="10.00">::MFC::CameraImage::</text>
<text text-anchor="middle" x="405" y="-6.5" font-family="Helvetica,sans-Serif" font-size="10.00">MergeFrom</text>
</a>
</g>
</g>
<!-- Node3&#45;&gt;Node4 -->
<g id="edge3" class="edge"><title>Node3&#45;&gt;Node4</title>
<path fill="none" stroke="midnightblue" d="M302.398,-20C316.833,-20 331.933,-20 345.944,-20"/>
<polygon fill="midnightblue" stroke="midnightblue" points="302.029,-16.5001 292.029,-20 302.029,-23.5001 302.029,-16.5001"/>
</g>
</g>
</svg>
