<?xml version="1.0" encoding="UTF-8" standalone="no"?>
<!DOCTYPE svg PUBLIC "-//W3C//DTD SVG 1.1//EN"
 "http://www.w3.org/Graphics/SVG/1.1/DTD/svg11.dtd">
<!-- Generated by graphviz version 2.36.0 (20140111.2315)
 -->
<!-- Title: csCommunication::Warning::MergeFrom Pages: 1 -->
<svg width="494pt" height="234pt"
 viewBox="0.00 0.00 494.00 234.00" xmlns="http://www.w3.org/2000/svg" xmlns:xlink="http://www.w3.org/1999/xlink">
<g id="graph0" class="graph" transform="scale(1 1) rotate(0) translate(4 230)">
<title>csCommunication::Warning::MergeFrom</title>
<!-- Node1 -->
<g id="node1" class="node"><title>Node1</title>
<polygon fill="#bfbfbf" stroke="black" points="0.5,-98 0.5,-128 137.5,-128 137.5,-98 0.5,-98"/>
<text text-anchor="start" x="8.5" y="-116" font-family="Helvetica,sans-Serif" font-size="10.00">csCommunication::Warning</text>
<text text-anchor="middle" x="69" y="-105" font-family="Helvetica,sans-Serif" font-size="10.00">::MergeFrom</text>
</g>
<!-- Node2 -->
<g id="node2" class="node"><title>Node2</title>
<g id="a_node2"><a xlink:href="classcsCommunication_1_1Warning.html#a8f4e300281a8b6e710d0464a53611a9c" target="_top" xlink:title="csCommunication::Warning\l::has_mess">
<polygon fill="none" stroke="black" points="174.5,-196 174.5,-226 311.5,-226 311.5,-196 174.5,-196"/>
<text text-anchor="start" x="182.5" y="-214" font-family="Helvetica,sans-Serif" font-size="10.00">csCommunication::Warning</text>
<text text-anchor="middle" x="243" y="-203" font-family="Helvetica,sans-Serif" font-size="10.00">::has_mess</text>
</a>
</g>
</g>
<!-- Node1&#45;&gt;Node2 -->
<g id="edge1" class="edge"><title>Node1&#45;&gt;Node2</title>
<path fill="none" stroke="midnightblue" d="M88.2219,-128.008C108.28,-143.983 141.947,-169.225 174,-186 177.994,-188.091 182.203,-190.086 186.489,-191.971"/>
<polygon fill="midnightblue" stroke="midnightblue" points="185.361,-195.293 195.937,-195.919 188.059,-188.834 185.361,-195.293"/>
</g>
<!-- Node3 -->
<g id="node3" class="node"><title>Node3</title>
<g id="a_node3"><a xlink:href="classcsCommunication_1_1Warning.html#a4f42b64d025008a9f137037ce0bc5e2b" target="_top" xlink:title="csCommunication::Warning\l::set_mess">
<polygon fill="none" stroke="black" points="174.5,-147 174.5,-177 311.5,-177 311.5,-147 174.5,-147"/>
<text text-anchor="start" x="182.5" y="-165" font-family="Helvetica,sans-Serif" font-size="10.00">csCommunication::Warning</text>
<text text-anchor="middle" x="243" y="-154" font-family="Helvetica,sans-Serif" font-size="10.00">::set_mess</text>
</a>
</g>
</g>
<!-- Node1&#45;&gt;Node3 -->
<g id="edge2" class="edge"><title>Node1&#45;&gt;Node3</title>
<path fill="none" stroke="midnightblue" d="M123.009,-128.101C140.831,-133.179 160.88,-138.89 179.37,-144.158"/>
<polygon fill="midnightblue" stroke="midnightblue" points="178.59,-147.575 189.166,-146.948 180.508,-140.842 178.59,-147.575"/>
</g>
<!-- Node5 -->
<g id="node5" class="node"><title>Node5</title>
<g id="a_node5"><a xlink:href="classcsCommunication_1_1Warning.html#ae89197b403010afcc5471ba841397296" target="_top" xlink:title="csCommunication::Warning\l::mess">
<polygon fill="none" stroke="black" points="174.5,-98 174.5,-128 311.5,-128 311.5,-98 174.5,-98"/>
<text text-anchor="start" x="182.5" y="-116" font-family="Helvetica,sans-Serif" font-size="10.00">csCommunication::Warning</text>
<text text-anchor="middle" x="243" y="-105" font-family="Helvetica,sans-Serif" font-size="10.00">::mess</text>
</a>
</g>
</g>
<!-- Node1&#45;&gt;Node5 -->
<g id="edge4" class="edge"><title>Node1&#45;&gt;Node5</title>
<path fill="none" stroke="midnightblue" d="M137.979,-113C146.55,-113 155.372,-113 164.082,-113"/>
<polygon fill="midnightblue" stroke="midnightblue" points="164.233,-116.5 174.233,-113 164.233,-109.5 164.233,-116.5"/>
</g>
<!-- Node6 -->
<g id="node6" class="node"><title>Node6</title>
<g id="a_node6"><a xlink:href="classcsCommunication_1_1Warning.html#a2b51b0429a3808e552b73ceb8d918003" target="_top" xlink:title="csCommunication::Warning\l::mutable_unknown_fields">
<polygon fill="none" stroke="black" points="174.5,-49 174.5,-79 311.5,-79 311.5,-49 174.5,-49"/>
<text text-anchor="start" x="182.5" y="-67" font-family="Helvetica,sans-Serif" font-size="10.00">csCommunication::Warning</text>
<text text-anchor="middle" x="243" y="-56" font-family="Helvetica,sans-Serif" font-size="10.00">::mutable_unknown_fields</text>
</a>
</g>
</g>
<!-- Node1&#45;&gt;Node6 -->
<g id="edge5" class="edge"><title>Node1&#45;&gt;Node6</title>
<path fill="none" stroke="midnightblue" d="M123.009,-97.8986C140.831,-92.8215 160.88,-87.1098 179.37,-81.8423"/>
<polygon fill="midnightblue" stroke="midnightblue" points="180.508,-85.1575 189.166,-79.0516 178.59,-78.4254 180.508,-85.1575"/>
</g>
<!-- Node7 -->
<g id="node7" class="node"><title>Node7</title>
<g id="a_node7"><a xlink:href="classcsCommunication_1_1Warning.html#ae4c33f8577043bf5ca98e4c56186ecdc" target="_top" xlink:title="csCommunication::Warning\l::unknown_fields">
<polygon fill="none" stroke="black" points="174.5,-0 174.5,-30 311.5,-30 311.5,-0 174.5,-0"/>
<text text-anchor="start" x="182.5" y="-18" font-family="Helvetica,sans-Serif" font-size="10.00">csCommunication::Warning</text>
<text text-anchor="middle" x="243" y="-7" font-family="Helvetica,sans-Serif" font-size="10.00">::unknown_fields</text>
</a>
</g>
</g>
<!-- Node1&#45;&gt;Node7 -->
<g id="edge6" class="edge"><title>Node1&#45;&gt;Node7</title>
<path fill="none" stroke="midnightblue" d="M88.2219,-97.9921C108.28,-82.0166 141.947,-56.7754 174,-40 177.994,-37.9094 182.203,-35.9142 186.489,-34.0286"/>
<polygon fill="midnightblue" stroke="midnightblue" points="188.059,-37.1656 195.937,-30.0812 185.361,-30.7065 188.059,-37.1656"/>
</g>
<!-- Node4 -->
<g id="node4" class="node"><title>Node4</title>
<g id="a_node4"><a xlink:href="classcsCommunication_1_1Warning.html#a4173fe90c12b34ce5511fec55b400bb0" target="_top" xlink:title="csCommunication::Warning\l::set_has_mess">
<polygon fill="none" stroke="black" points="348.5,-147 348.5,-177 485.5,-177 485.5,-147 348.5,-147"/>
<text text-anchor="start" x="356.5" y="-165" font-family="Helvetica,sans-Serif" font-size="10.00">csCommunication::Warning</text>
<text text-anchor="middle" x="417" y="-154" font-family="Helvetica,sans-Serif" font-size="10.00">::set_has_mess</text>
</a>
</g>
</g>
<!-- Node3&#45;&gt;Node4 -->
<g id="edge3" class="edge"><title>Node3&#45;&gt;Node4</title>
<path fill="none" stroke="midnightblue" d="M311.979,-162C320.55,-162 329.372,-162 338.082,-162"/>
<polygon fill="midnightblue" stroke="midnightblue" points="338.233,-165.5 348.233,-162 338.233,-158.5 338.233,-165.5"/>
</g>
</g>
</svg>
