<?xml version="1.0" encoding="UTF-8" standalone="no"?>
<!DOCTYPE svg PUBLIC "-//W3C//DTD SVG 1.1//EN"
 "http://www.w3.org/Graphics/SVG/1.1/DTD/svg11.dtd">
<!-- Generated by graphviz version 2.36.0 (20140111.2315)
 -->
<!-- Title: org::libcppa::WarnOrAck::unknown_fields Pages: 1 -->
<svg width="342pt" height="185pt"
 viewBox="0.00 0.00 342.00 185.00" xmlns="http://www.w3.org/2000/svg" xmlns:xlink="http://www.w3.org/1999/xlink">
<g id="graph0" class="graph" transform="scale(1 1) rotate(0) translate(4 181)">
<title>org::libcppa::WarnOrAck::unknown_fields</title>
<!-- Node1 -->
<g id="node1" class="node"><title>Node1</title>
<polygon fill="#bfbfbf" stroke="black" points="0,-73 0,-103 124,-103 124,-73 0,-73"/>
<text text-anchor="start" x="8" y="-91" font-family="Helvetica,sans-Serif" font-size="10.00">org::libcppa::WarnOrAck</text>
<text text-anchor="middle" x="62" y="-80" font-family="Helvetica,sans-Serif" font-size="10.00">::unknown_fields</text>
</g>
<!-- Node2 -->
<g id="node2" class="node"><title>Node2</title>
<g id="a_node2"><a xlink:href="classorg_1_1libcppa_1_1WarnOrAck.html#a86189dec84eb3746f08520a85150a1e8" target="_top" xlink:title="org::libcppa::WarnOrAck\l::SerializeWithCachedSizes">
<polygon fill="none" stroke="black" points="177.5,-147 177.5,-177 316.5,-177 316.5,-147 177.5,-147"/>
<text text-anchor="start" x="185.5" y="-165" font-family="Helvetica,sans-Serif" font-size="10.00">org::libcppa::WarnOrAck</text>
<text text-anchor="middle" x="247" y="-154" font-family="Helvetica,sans-Serif" font-size="10.00">::SerializeWithCachedSizes</text>
</a>
</g>
</g>
<!-- Node1&#45;&gt;Node2 -->
<g id="edge1" class="edge"><title>Node1&#45;&gt;Node2</title>
<path fill="none" stroke="midnightblue" d="M98.5603,-107.955C116.6,-117.562 139.073,-128.754 160,-137 169.114,-140.591 178.95,-143.928 188.602,-146.92"/>
<polygon fill="midnightblue" stroke="midnightblue" points="100.025,-104.769 89.5623,-103.101 96.701,-110.929 100.025,-104.769"/>
</g>
<!-- Node3 -->
<g id="node3" class="node"><title>Node3</title>
<g id="a_node3"><a xlink:href="classorg_1_1libcppa_1_1WarnOrAck.html#a3962cb0ae219a08acb9f28821b47a300" target="_top" xlink:title="org::libcppa::WarnOrAck\l::SerializeWithCachedSizesToArray">
<polygon fill="none" stroke="black" points="160.5,-98 160.5,-128 333.5,-128 333.5,-98 160.5,-98"/>
<text text-anchor="start" x="168.5" y="-116" font-family="Helvetica,sans-Serif" font-size="10.00">org::libcppa::WarnOrAck</text>
<text text-anchor="middle" x="247" y="-105" font-family="Helvetica,sans-Serif" font-size="10.00">::SerializeWithCachedSizesToArray</text>
</a>
</g>
</g>
<!-- Node1&#45;&gt;Node3 -->
<g id="edge2" class="edge"><title>Node1&#45;&gt;Node3</title>
<path fill="none" stroke="midnightblue" d="M134.165,-97.722C142.778,-98.8986 151.643,-100.11 160.436,-101.311"/>
<polygon fill="midnightblue" stroke="midnightblue" points="134.573,-94.2452 124.191,-96.3594 133.625,-101.181 134.573,-94.2452"/>
</g>
<!-- Node4 -->
<g id="node4" class="node"><title>Node4</title>
<g id="a_node4"><a xlink:href="classorg_1_1libcppa_1_1WarnOrAck.html#aeb55f2d7aef4fa3f8ba06b88d6ca17d2" target="_top" xlink:title="org::libcppa::WarnOrAck\l::ByteSize">
<polygon fill="none" stroke="black" points="185,-49 185,-79 309,-79 309,-49 185,-49"/>
<text text-anchor="start" x="193" y="-67" font-family="Helvetica,sans-Serif" font-size="10.00">org::libcppa::WarnOrAck</text>
<text text-anchor="middle" x="247" y="-56" font-family="Helvetica,sans-Serif" font-size="10.00">::ByteSize</text>
</a>
</g>
</g>
<!-- Node1&#45;&gt;Node4 -->
<g id="edge3" class="edge"><title>Node1&#45;&gt;Node4</title>
<path fill="none" stroke="midnightblue" d="M134.426,-78.6326C151.093,-76.4469 168.694,-74.1386 184.867,-72.0175"/>
<polygon fill="midnightblue" stroke="midnightblue" points="133.651,-75.2043 124.191,-79.975 134.561,-82.1448 133.651,-75.2043"/>
</g>
<!-- Node5 -->
<g id="node5" class="node"><title>Node5</title>
<g id="a_node5"><a xlink:href="classorg_1_1libcppa_1_1WarnOrAck.html#a12501cbd6672b9d2ebfc69b4b6b88f65" target="_top" xlink:title="org::libcppa::WarnOrAck\l::MergeFrom">
<polygon fill="none" stroke="black" points="185,-0 185,-30 309,-30 309,-0 185,-0"/>
<text text-anchor="start" x="193" y="-18" font-family="Helvetica,sans-Serif" font-size="10.00">org::libcppa::WarnOrAck</text>
<text text-anchor="middle" x="247" y="-7" font-family="Helvetica,sans-Serif" font-size="10.00">::MergeFrom</text>
</a>
</g>
</g>
<!-- Node1&#45;&gt;Node5 -->
<g id="edge4" class="edge"><title>Node1&#45;&gt;Node5</title>
<path fill="none" stroke="midnightblue" d="M99.3815,-68.0894C117.298,-58.7802 139.423,-48.0095 160,-40 169.273,-36.3903 179.285,-33.023 189.086,-30.0024"/>
<polygon fill="midnightblue" stroke="midnightblue" points="97.6461,-65.0475 90.4266,-72.8018 100.906,-71.2421 97.6461,-65.0475"/>
</g>
</g>
</svg>
