<?xml version="1.0" encoding="UTF-8" standalone="no"?>
<!DOCTYPE svg PUBLIC "-//W3C//DTD SVG 1.1//EN"
 "http://www.w3.org/Graphics/SVG/1.1/DTD/svg11.dtd">
<!-- Generated by graphviz version 2.36.0 (20140111.2315)
 -->
<!-- Title: csCommunication::Warning::mess Pages: 1 -->
<svg width="430pt" height="322pt"
 viewBox="0.00 0.00 430.00 322.00" xmlns="http://www.w3.org/2000/svg" xmlns:xlink="http://www.w3.org/1999/xlink">
<g id="graph0" class="graph" transform="scale(1 1) rotate(0) translate(4 318)">
<title>csCommunication::Warning::mess</title>
<!-- Node1 -->
<g id="node1" class="node"><title>Node1</title>
<polygon fill="#bfbfbf" stroke="black" points="0.5,-137 0.5,-167 137.5,-167 137.5,-137 0.5,-137"/>
<text text-anchor="start" x="8.5" y="-155" font-family="Helvetica,sans-Serif" font-size="10.00">csCommunication::Warning</text>
<text text-anchor="middle" x="69" y="-144" font-family="Helvetica,sans-Serif" font-size="10.00">::mess</text>
</g>
<!-- Node2 -->
<g id="node2" class="node"><title>Node2</title>
<g id="a_node2"><a xlink:href="classcsCommunication_1_1Warning.html#a05d6bb7c7ff75f34d43e225dc02a9239" target="_top" xlink:title="csCommunication::Warning\l::MergePartialFromCodedStream">
<polygon fill="none" stroke="black" points="181,-284 181,-314 341,-314 341,-284 181,-284"/>
<text text-anchor="start" x="189" y="-302" font-family="Helvetica,sans-Serif" font-size="10.00">csCommunication::Warning</text>
<text text-anchor="middle" x="261" y="-291" font-family="Helvetica,sans-Serif" font-size="10.00">::MergePartialFromCodedStream</text>
</a>
</g>
</g>
<!-- Node1&#45;&gt;Node2 -->
<g id="edge1" class="edge"><title>Node1&#45;&gt;Node2</title>
<path fill="none" stroke="midnightblue" d="M84.2132,-175.892C101.864,-203.525 134.521,-248.478 174,-274 180.007,-277.883 186.631,-281.178 193.458,-283.97"/>
<polygon fill="midnightblue" stroke="midnightblue" points="87.0769,-173.87 78.8143,-167.238 81.1378,-177.575 87.0769,-173.87"/>
</g>
<!-- Node3 -->
<g id="node3" class="node"><title>Node3</title>
<g id="a_node3"><a xlink:href="classcsCommunication_1_1Warning.html#a7216a898f594c8c5befd38d59e3ea8ab" target="_top" xlink:title="csCommunication::Warning\l::SerializeWithCachedSizes">
<polygon fill="none" stroke="black" points="191.5,-235 191.5,-265 330.5,-265 330.5,-235 191.5,-235"/>
<text text-anchor="start" x="199.5" y="-253" font-family="Helvetica,sans-Serif" font-size="10.00">csCommunication::Warning</text>
<text text-anchor="middle" x="261" y="-242" font-family="Helvetica,sans-Serif" font-size="10.00">::SerializeWithCachedSizes</text>
</a>
</g>
</g>
<!-- Node1&#45;&gt;Node3 -->
<g id="edge2" class="edge"><title>Node1&#45;&gt;Node3</title>
<path fill="none" stroke="midnightblue" d="M95.4288,-173.459C115.62,-189.573 145.159,-211.158 174,-225 181.85,-228.767 190.381,-232.083 198.919,-234.964"/>
<polygon fill="midnightblue" stroke="midnightblue" points="97.6136,-170.725 87.6419,-167.145 93.2048,-176.162 97.6136,-170.725"/>
</g>
<!-- Node4 -->
<g id="node4" class="node"><title>Node4</title>
<g id="a_node4"><a xlink:href="classcsCommunication_1_1Warning.html#a4caa98438e16b840fe6bacc3d7430692" target="_top" xlink:title="csCommunication::Warning\l::SerializeWithCachedSizesToArray">
<polygon fill="none" stroke="black" points="174.5,-186 174.5,-216 347.5,-216 347.5,-186 174.5,-186"/>
<text text-anchor="start" x="182.5" y="-204" font-family="Helvetica,sans-Serif" font-size="10.00">csCommunication::Warning</text>
<text text-anchor="middle" x="261" y="-193" font-family="Helvetica,sans-Serif" font-size="10.00">::SerializeWithCachedSizesToArray</text>
</a>
</g>
</g>
<!-- Node1&#45;&gt;Node4 -->
<g id="edge3" class="edge"><title>Node1&#45;&gt;Node4</title>
<path fill="none" stroke="midnightblue" d="M138.05,-169.55C158.915,-174.931 181.67,-180.799 201.813,-185.994"/>
<polygon fill="midnightblue" stroke="midnightblue" points="138.855,-166.143 128.297,-167.035 137.107,-172.921 138.855,-166.143"/>
</g>
<!-- Node5 -->
<g id="node5" class="node"><title>Node5</title>
<g id="a_node5"><a xlink:href="classcsCommunication_1_1Warning.html#a5ed92e6e526c5217ded8bd90eb3652ec" target="_top" xlink:title="csCommunication::Warning\l::ByteSize">
<polygon fill="none" stroke="black" points="192.5,-137 192.5,-167 329.5,-167 329.5,-137 192.5,-137"/>
<text text-anchor="start" x="200.5" y="-155" font-family="Helvetica,sans-Serif" font-size="10.00">csCommunication::Warning</text>
<text text-anchor="middle" x="261" y="-144" font-family="Helvetica,sans-Serif" font-size="10.00">::ByteSize</text>
</a>
</g>
</g>
<!-- Node1&#45;&gt;Node5 -->
<g id="edge4" class="edge"><title>Node1&#45;&gt;Node5</title>
<path fill="none" stroke="midnightblue" d="M147.672,-152C162.494,-152 177.898,-152 192.376,-152"/>
<polygon fill="midnightblue" stroke="midnightblue" points="147.522,-148.5 137.522,-152 147.522,-155.5 147.522,-148.5"/>
</g>
<!-- Node7 -->
<g id="node7" class="node"><title>Node7</title>
<g id="a_node7"><a xlink:href="classcsCommunication_1_1Warning.html#af1c1761ea058cbf3898652f6c5741c36" target="_top" xlink:title="csCommunication::Warning\l::MergeFrom">
<polygon fill="none" stroke="black" points="192.5,-88 192.5,-118 329.5,-118 329.5,-88 192.5,-88"/>
<text text-anchor="start" x="200.5" y="-106" font-family="Helvetica,sans-Serif" font-size="10.00">csCommunication::Warning</text>
<text text-anchor="middle" x="261" y="-95" font-family="Helvetica,sans-Serif" font-size="10.00">::MergeFrom</text>
</a>
</g>
</g>
<!-- Node1&#45;&gt;Node7 -->
<g id="edge6" class="edge"><title>Node1&#45;&gt;Node7</title>
<path fill="none" stroke="midnightblue" d="M138.05,-134.45C158.915,-129.069 181.67,-123.201 201.813,-118.006"/>
<polygon fill="midnightblue" stroke="midnightblue" points="137.107,-131.079 128.297,-136.965 138.855,-137.857 137.107,-131.079"/>
</g>
<!-- Node8 -->
<g id="node8" class="node"><title>Node8</title>
<g id="a_node8"><a xlink:href="classcsCommunication_1_1Warning.html#a19ee172b8a90a8aedb59c7334e431205" target="_top" xlink:title="csCommunication::Warning\l::set_allocated_mess">
<polygon fill="none" stroke="black" points="192.5,-39 192.5,-69 329.5,-69 329.5,-39 192.5,-39"/>
<text text-anchor="start" x="200.5" y="-57" font-family="Helvetica,sans-Serif" font-size="10.00">csCommunication::Warning</text>
<text text-anchor="middle" x="261" y="-46" font-family="Helvetica,sans-Serif" font-size="10.00">::set_allocated_mess</text>
</a>
</g>
</g>
<!-- Node1&#45;&gt;Node8 -->
<g id="edge7" class="edge"><title>Node1&#45;&gt;Node8</title>
<path fill="none" stroke="midnightblue" d="M95.4288,-130.541C115.62,-114.427 145.159,-92.8416 174,-79 181.85,-75.2326 190.381,-71.9171 198.919,-69.0362"/>
<polygon fill="midnightblue" stroke="midnightblue" points="93.2048,-127.838 87.6419,-136.855 97.6136,-133.275 93.2048,-127.838"/>
</g>
<!-- Node9 -->
<g id="node9" class="node"><title>Node9</title>
<g id="a_node9"><a xlink:href="server_8cpp.html#a43270fa52273e259dc2fa500e5898b0b" target="_top" xlink:title="task1">
<polygon fill="none" stroke="black" points="240.5,-0.5 240.5,-19.5 281.5,-19.5 281.5,-0.5 240.5,-0.5"/>
<text text-anchor="middle" x="261" y="-7.5" font-family="Helvetica,sans-Serif" font-size="10.00">task1</text>
</a>
</g>
</g>
<!-- Node1&#45;&gt;Node9 -->
<g id="edge8" class="edge"><title>Node1&#45;&gt;Node9</title>
<path fill="none" stroke="midnightblue" d="M83.6058,-127.905C100.869,-99.6429 133.35,-53.5426 174,-29 194.42,-16.6713 221.888,-12.3128 240.232,-10.7889"/>
<polygon fill="midnightblue" stroke="midnightblue" points="80.4495,-126.364 78.3446,-136.748 86.4654,-129.943 80.4495,-126.364"/>
</g>
<!-- Node6 -->
<g id="node6" class="node"><title>Node6</title>
<g id="a_node6"><a xlink:href="client_8cpp.html#a0ddf1224851353fc92bfbff6f499fa97" target="_top" xlink:title="main">
<polygon fill="none" stroke="black" points="384,-142.5 384,-161.5 422,-161.5 422,-142.5 384,-142.5"/>
<text text-anchor="middle" x="403" y="-149.5" font-family="Helvetica,sans-Serif" font-size="10.00">main</text>
</a>
</g>
</g>
<!-- Node5&#45;&gt;Node6 -->
<g id="edge5" class="edge"><title>Node5&#45;&gt;Node6</title>
<path fill="none" stroke="midnightblue" d="M339.842,-152C356.319,-152 372.209,-152 383.798,-152"/>
<polygon fill="midnightblue" stroke="midnightblue" points="339.54,-148.5 329.54,-152 339.539,-155.5 339.54,-148.5"/>
</g>
<!-- Node10 -->
<g id="node10" class="node"><title>Node10</title>
<g id="a_node10"><a xlink:href="server_8cpp.html#a0ddf1224851353fc92bfbff6f499fa97" target="_top" xlink:title="main">
<polygon fill="none" stroke="black" points="384,-0.5 384,-19.5 422,-19.5 422,-0.5 384,-0.5"/>
<text text-anchor="middle" x="403" y="-7.5" font-family="Helvetica,sans-Serif" font-size="10.00">main</text>
</a>
</g>
</g>
<!-- Node9&#45;&gt;Node10 -->
<g id="edge9" class="edge"><title>Node9&#45;&gt;Node10</title>
<path fill="none" stroke="midnightblue" d="M292.108,-10C319.942,-10 360.406,-10 383.675,-10"/>
<polygon fill="midnightblue" stroke="midnightblue" points="291.762,-6.5001 281.762,-10 291.762,-13.5001 291.762,-6.5001"/>
</g>
</g>
</svg>
