<?xml version="1.0" encoding="UTF-8" standalone="no"?>
<!DOCTYPE svg PUBLIC "-//W3C//DTD SVG 1.1//EN"
 "http://www.w3.org/Graphics/SVG/1.1/DTD/svg11.dtd">
<!-- Generated by graphviz version 2.36.0 (20140111.2315)
 -->
<!-- Title: pb::SensorNearData::MFC::CameraImage::image_payload Pages: 1 -->
<svg width="756pt" height="371pt"
 viewBox="0.00 0.00 756.00 371.00" xmlns="http://www.w3.org/2000/svg" xmlns:xlink="http://www.w3.org/1999/xlink">
<g id="graph0" class="graph" transform="scale(1 1) rotate(0) translate(4 367)">
<title>pb::SensorNearData::MFC::CameraImage::image_payload</title>
<!-- Node1 -->
<g id="node1" class="node"><title>Node1</title>
<polygon fill="#bfbfbf" stroke="black" points="0,-150.5 0,-191.5 118,-191.5 118,-150.5 0,-150.5"/>
<text text-anchor="start" x="8" y="-179.5" font-family="Helvetica,sans-Serif" font-size="10.00">pb::SensorNearData</text>
<text text-anchor="start" x="8" y="-168.5" font-family="Helvetica,sans-Serif" font-size="10.00">::MFC::CameraImage::</text>
<text text-anchor="middle" x="59" y="-157.5" font-family="Helvetica,sans-Serif" font-size="10.00">image_payload</text>
</g>
<!-- Node2 -->
<g id="node2" class="node"><title>Node2</title>
<g id="a_node2"><a xlink:href="classProtobufImageWrapper.html#a444790ea96785a92ab17a8be689f9872" target="_top" xlink:title="ProtobufImageWrapper\l::GetImagePayload">
<polygon fill="none" stroke="black" points="179.5,-300 179.5,-330 296.5,-330 296.5,-300 179.5,-300"/>
<text text-anchor="start" x="187.5" y="-318" font-family="Helvetica,sans-Serif" font-size="10.00">ProtobufImageWrapper</text>
<text text-anchor="middle" x="238" y="-307" font-family="Helvetica,sans-Serif" font-size="10.00">::GetImagePayload</text>
</a>
</g>
</g>
<!-- Node1&#45;&gt;Node2 -->
<g id="edge1" class="edge"><title>Node1&#45;&gt;Node2</title>
<path fill="none" stroke="midnightblue" d="M76.1769,-200.542C92.4492,-227.597 119.971,-266.849 154,-290 161.59,-295.164 170.276,-299.286 179.103,-302.57"/>
<polygon fill="midnightblue" stroke="midnightblue" points="79.1731,-198.732 71.0965,-191.875 73.1341,-202.272 79.1731,-198.732"/>
</g>
<!-- Node7 -->
<g id="node7" class="node"><title>Node7</title>
<g id="a_node7"><a xlink:href="classpb_1_1SensorNearData_1_1MFC_1_1CameraImage.html#a68f2cde68b12b74681079603151d932a" target="_top" xlink:title="pb::SensorNearData\l::MFC::CameraImage::\lSerializeWithCachedSizes">
<polygon fill="none" stroke="black" points="171.5,-240.5 171.5,-281.5 304.5,-281.5 304.5,-240.5 171.5,-240.5"/>
<text text-anchor="start" x="179.5" y="-269.5" font-family="Helvetica,sans-Serif" font-size="10.00">pb::SensorNearData</text>
<text text-anchor="start" x="179.5" y="-258.5" font-family="Helvetica,sans-Serif" font-size="10.00">::MFC::CameraImage::</text>
<text text-anchor="middle" x="238" y="-247.5" font-family="Helvetica,sans-Serif" font-size="10.00">SerializeWithCachedSizes</text>
</a>
</g>
</g>
<!-- Node1&#45;&gt;Node7 -->
<g id="edge7" class="edge"><title>Node1&#45;&gt;Node7</title>
<path fill="none" stroke="midnightblue" d="M97.989,-197.311C114.716,-208.24 134.878,-220.55 154,-230 161.447,-233.68 169.445,-237.187 177.43,-240.43"/>
<polygon fill="midnightblue" stroke="midnightblue" points="99.8495,-194.345 89.579,-191.744 95.9857,-200.182 99.8495,-194.345"/>
</g>
<!-- Node8 -->
<g id="node8" class="node"><title>Node8</title>
<g id="a_node8"><a xlink:href="classpb_1_1SensorNearData_1_1MFC_1_1CameraImage.html#a17e6ca2c29a49d34f990b3660db648b0" target="_top" xlink:title="pb::SensorNearData\l::MFC::CameraImage::\lSerializeWithCachedSizesToArray">
<polygon fill="none" stroke="black" points="154.5,-180.5 154.5,-221.5 321.5,-221.5 321.5,-180.5 154.5,-180.5"/>
<text text-anchor="start" x="162.5" y="-209.5" font-family="Helvetica,sans-Serif" font-size="10.00">pb::SensorNearData</text>
<text text-anchor="start" x="162.5" y="-198.5" font-family="Helvetica,sans-Serif" font-size="10.00">::MFC::CameraImage::</text>
<text text-anchor="middle" x="238" y="-187.5" font-family="Helvetica,sans-Serif" font-size="10.00">SerializeWithCachedSizesToArray</text>
</a>
</g>
</g>
<!-- Node1&#45;&gt;Node8 -->
<g id="edge8" class="edge"><title>Node1&#45;&gt;Node8</title>
<path fill="none" stroke="midnightblue" d="M128.572,-182.622C136.993,-184.05 145.669,-185.52 154.271,-186.978"/>
<polygon fill="midnightblue" stroke="midnightblue" points="128.891,-179.127 118.447,-180.906 127.721,-186.028 128.891,-179.127"/>
</g>
<!-- Node9 -->
<g id="node9" class="node"><title>Node9</title>
<g id="a_node9"><a xlink:href="classpb_1_1SensorNearData_1_1MFC_1_1CameraImage.html#a0e5f591b6faf941ca8056f413e4603f9" target="_top" xlink:title="pb::SensorNearData\l::MFC::CameraImage::\lByteSize">
<polygon fill="none" stroke="black" points="179,-120.5 179,-161.5 297,-161.5 297,-120.5 179,-120.5"/>
<text text-anchor="start" x="187" y="-149.5" font-family="Helvetica,sans-Serif" font-size="10.00">pb::SensorNearData</text>
<text text-anchor="start" x="187" y="-138.5" font-family="Helvetica,sans-Serif" font-size="10.00">::MFC::CameraImage::</text>
<text text-anchor="middle" x="238" y="-127.5" font-family="Helvetica,sans-Serif" font-size="10.00">ByteSize</text>
</a>
</g>
</g>
<!-- Node1&#45;&gt;Node9 -->
<g id="edge9" class="edge"><title>Node1&#45;&gt;Node9</title>
<path fill="none" stroke="midnightblue" d="M128.64,-159.366C145.25,-156.551 162.845,-153.569 178.916,-150.845"/>
<polygon fill="midnightblue" stroke="midnightblue" points="127.721,-155.972 118.447,-161.094 128.891,-162.873 127.721,-155.972"/>
</g>
<!-- Node10 -->
<g id="node10" class="node"><title>Node10</title>
<g id="a_node10"><a xlink:href="classpb_1_1SensorNearData_1_1MFC_1_1CameraImage.html#ae45cc783bc05ce863660a29a98b65e6e" target="_top" xlink:title="pb::SensorNearData\l::MFC::CameraImage::\lMergeFrom">
<polygon fill="none" stroke="black" points="179,-60.5 179,-101.5 297,-101.5 297,-60.5 179,-60.5"/>
<text text-anchor="start" x="187" y="-89.5" font-family="Helvetica,sans-Serif" font-size="10.00">pb::SensorNearData</text>
<text text-anchor="start" x="187" y="-78.5" font-family="Helvetica,sans-Serif" font-size="10.00">::MFC::CameraImage::</text>
<text text-anchor="middle" x="238" y="-67.5" font-family="Helvetica,sans-Serif" font-size="10.00">MergeFrom</text>
</a>
</g>
</g>
<!-- Node1&#45;&gt;Node10 -->
<g id="edge10" class="edge"><title>Node1&#45;&gt;Node10</title>
<path fill="none" stroke="midnightblue" d="M97.1175,-144.617C113.974,-133.351 134.475,-120.612 154,-111 161.836,-107.143 170.297,-103.516 178.716,-100.208"/>
<polygon fill="midnightblue" stroke="midnightblue" points="94.9733,-141.843 88.6595,-150.351 98.9009,-147.637 94.9733,-141.843"/>
</g>
<!-- Node11 -->
<g id="node11" class="node"><title>Node11</title>
<g id="a_node11"><a xlink:href="classpb_1_1SensorNearData_1_1MFC_1_1CameraImage.html#a3ae8944b5899dfb20590675b5d142cae" target="_top" xlink:title="pb::SensorNearData\l::MFC::CameraImage::\lset_allocated_image_payload">
<polygon fill="none" stroke="black" points="165.5,-0.5 165.5,-41.5 310.5,-41.5 310.5,-0.5 165.5,-0.5"/>
<text text-anchor="start" x="173.5" y="-29.5" font-family="Helvetica,sans-Serif" font-size="10.00">pb::SensorNearData</text>
<text text-anchor="start" x="173.5" y="-18.5" font-family="Helvetica,sans-Serif" font-size="10.00">::MFC::CameraImage::</text>
<text text-anchor="middle" x="238" y="-7.5" font-family="Helvetica,sans-Serif" font-size="10.00">set_allocated_image_payload</text>
</a>
</g>
</g>
<!-- Node1&#45;&gt;Node11 -->
<g id="edge11" class="edge"><title>Node1&#45;&gt;Node11</title>
<path fill="none" stroke="midnightblue" d="M76.4119,-141.625C92.8517,-114.638 120.488,-75.2586 154,-51 158.841,-47.4961 164.133,-44.3635 169.626,-41.5705"/>
<polygon fill="midnightblue" stroke="midnightblue" points="73.3784,-139.879 71.2736,-150.262 79.3943,-143.457 73.3784,-139.879"/>
</g>
<!-- Node3 -->
<g id="node3" class="node"><title>Node3</title>
<g id="a_node3"><a xlink:href="classFrameSelector.html#a1065c609443efd72a3236cc98f168caa" target="_top" xlink:title="FrameSelector::ReadImage">
<polygon fill="none" stroke="black" points="358.5,-305.5 358.5,-324.5 495.5,-324.5 495.5,-305.5 358.5,-305.5"/>
<text text-anchor="middle" x="427" y="-312.5" font-family="Helvetica,sans-Serif" font-size="10.00">FrameSelector::ReadImage</text>
</a>
</g>
</g>
<!-- Node2&#45;&gt;Node3 -->
<g id="edge2" class="edge"><title>Node2&#45;&gt;Node3</title>
<path fill="none" stroke="midnightblue" d="M306.9,-315C323.671,-315 341.634,-315 358.392,-315"/>
<polygon fill="midnightblue" stroke="midnightblue" points="306.632,-311.5 296.632,-315 306.632,-318.5 306.632,-311.5"/>
</g>
<!-- Node4 -->
<g id="node4" class="node"><title>Node4</title>
<g id="a_node4"><a xlink:href="classController.html#aee012beb2309ae88b7278fa3dad06d80" target="_top" xlink:title="Controller::PlayHDFAsVideo">
<polygon fill="none" stroke="black" points="532,-343.5 532,-362.5 674,-362.5 674,-343.5 532,-343.5"/>
<text text-anchor="middle" x="603" y="-350.5" font-family="Helvetica,sans-Serif" font-size="10.00">Controller::PlayHDFAsVideo</text>
</a>
</g>
</g>
<!-- Node3&#45;&gt;Node4 -->
<g id="edge3" class="edge"><title>Node3&#45;&gt;Node4</title>
<path fill="none" stroke="midnightblue" d="M481.814,-326.753C506.418,-332.126 535.187,-338.409 558.408,-343.48"/>
<polygon fill="midnightblue" stroke="midnightblue" points="482.424,-323.303 471.908,-324.589 480.93,-330.142 482.424,-323.303"/>
</g>
<!-- Node5 -->
<g id="node5" class="node"><title>Node5</title>
<g id="a_node5"><a xlink:href="StreamDecoder_2main_8cpp.html#ac0f2228420376f4db7e1274f2b41667c" target="_top" xlink:title="main">
<polygon fill="none" stroke="black" points="710,-324.5 710,-343.5 748,-343.5 748,-324.5 710,-324.5"/>
<text text-anchor="middle" x="729" y="-331.5" font-family="Helvetica,sans-Serif" font-size="10.00">main</text>
</a>
</g>
</g>
<!-- Node3&#45;&gt;Node5 -->
<g id="edge6" class="edge"><title>Node3&#45;&gt;Node5</title>
<path fill="none" stroke="midnightblue" d="M506.083,-319.945C574.934,-324.306 670.269,-330.344 709.751,-332.844"/>
<polygon fill="midnightblue" stroke="midnightblue" points="505.901,-316.427 495.7,-319.288 505.459,-323.413 505.901,-316.427"/>
</g>
<!-- Node6 -->
<g id="node6" class="node"><title>Node6</title>
<g id="a_node6"><a xlink:href="classController.html#afd6375744f4f31dd254d1e5f1316ff4b" target="_top" xlink:title="Controller::SaveAllImages\lAsJPEG">
<polygon fill="none" stroke="black" points="537.5,-256 537.5,-286 668.5,-286 668.5,-256 537.5,-256"/>
<text text-anchor="start" x="545.5" y="-274" font-family="Helvetica,sans-Serif" font-size="10.00">Controller::SaveAllImages</text>
<text text-anchor="middle" x="603" y="-263" font-family="Helvetica,sans-Serif" font-size="10.00">AsJPEG</text>
</a>
</g>
</g>
<!-- Node3&#45;&gt;Node6 -->
<g id="edge5" class="edge"><title>Node3&#45;&gt;Node6</title>
<path fill="none" stroke="midnightblue" d="M475.558,-302.974C496.197,-297.755 520.593,-291.586 542.423,-286.065"/>
<polygon fill="midnightblue" stroke="midnightblue" points="474.592,-299.608 465.755,-305.453 476.308,-306.394 474.592,-299.608"/>
</g>
<!-- Node4&#45;&gt;Node5 -->
<g id="edge4" class="edge"><title>Node4&#45;&gt;Node5</title>
<path fill="none" stroke="midnightblue" d="M676.395,-341.907C688.8,-340.006 700.634,-338.193 709.832,-336.784"/>
<polygon fill="midnightblue" stroke="midnightblue" points="675.718,-338.47 666.363,-343.444 676.778,-345.389 675.718,-338.47"/>
</g>
</g>
</svg>
