<?xml version="1.0" encoding="UTF-8" standalone="no"?>
<!DOCTYPE svg PUBLIC "-//W3C//DTD SVG 1.1//EN"
 "http://www.w3.org/Graphics/SVG/1.1/DTD/svg11.dtd">
<!-- Generated by graphviz version 2.36.0 (20140111.2315)
 -->
<!-- Title: pb::Header::MergeFrom Pages: 1 -->
<svg width="444pt" height="202pt"
 viewBox="0.00 0.00 444.00 202.00" xmlns="http://www.w3.org/2000/svg" xmlns:xlink="http://www.w3.org/1999/xlink">
<g id="graph0" class="graph" transform="scale(1 1) rotate(0) translate(4 198)">
<title>pb::Header::MergeFrom</title>
<!-- Node1 -->
<g id="node1" class="node"><title>Node1</title>
<polygon fill="#bfbfbf" stroke="black" points="0,-98.5 0,-117.5 120,-117.5 120,-98.5 0,-98.5"/>
<text text-anchor="middle" x="60" y="-105.5" font-family="Helvetica,sans-Serif" font-size="10.00">pb::Header::MergeFrom</text>
</g>
<!-- Node2 -->
<g id="node2" class="node"><title>Node2</title>
<g id="a_node2"><a xlink:href="classpb_1_1Header.html#aea2e4fdd310328f847c4a85fb1ad720b" target="_top" xlink:title="pb::Header::has_timestamp">
<polygon fill="none" stroke="black" points="156.5,-174.5 156.5,-193.5 293.5,-193.5 293.5,-174.5 156.5,-174.5"/>
<text text-anchor="middle" x="225" y="-181.5" font-family="Helvetica,sans-Serif" font-size="10.00">pb::Header::has_timestamp</text>
</a>
</g>
</g>
<!-- Node1&#45;&gt;Node2 -->
<g id="edge1" class="edge"><title>Node1&#45;&gt;Node2</title>
<path fill="none" stroke="midnightblue" d="M74.228,-117.512C92.0415,-129.943 125.083,-151.693 156,-165 161.482,-167.359 167.338,-169.509 173.228,-171.442"/>
<polygon fill="midnightblue" stroke="midnightblue" points="172.525,-174.888 183.112,-174.492 174.589,-168.199 172.525,-174.888"/>
</g>
<!-- Node3 -->
<g id="node3" class="node"><title>Node3</title>
<g id="a_node3"><a xlink:href="classpb_1_1Header.html#ad91d65ce16a43e766780324daa839030" target="_top" xlink:title="pb::Header::set_timestamp">
<polygon fill="none" stroke="black" points="157.5,-136.5 157.5,-155.5 292.5,-155.5 292.5,-136.5 157.5,-136.5"/>
<text text-anchor="middle" x="225" y="-143.5" font-family="Helvetica,sans-Serif" font-size="10.00">pb::Header::set_timestamp</text>
</a>
</g>
</g>
<!-- Node1&#45;&gt;Node3 -->
<g id="edge2" class="edge"><title>Node1&#45;&gt;Node3</title>
<path fill="none" stroke="midnightblue" d="M102.132,-117.589C123.738,-122.626 150.409,-128.844 173.286,-134.177"/>
<polygon fill="midnightblue" stroke="midnightblue" points="172.63,-137.618 183.164,-136.48 174.22,-130.801 172.63,-137.618"/>
</g>
<!-- Node5 -->
<g id="node5" class="node"><title>Node5</title>
<g id="a_node5"><a xlink:href="classpb_1_1Header.html#a18cfcab637f48026948d0687663feb0f" target="_top" xlink:title="pb::Header::timestamp">
<polygon fill="none" stroke="black" points="167,-98.5 167,-117.5 283,-117.5 283,-98.5 167,-98.5"/>
<text text-anchor="middle" x="225" y="-105.5" font-family="Helvetica,sans-Serif" font-size="10.00">pb::Header::timestamp</text>
</a>
</g>
</g>
<!-- Node1&#45;&gt;Node5 -->
<g id="edge4" class="edge"><title>Node1&#45;&gt;Node5</title>
<path fill="none" stroke="midnightblue" d="M120.308,-108C132.184,-108 144.741,-108 156.86,-108"/>
<polygon fill="midnightblue" stroke="midnightblue" points="156.913,-111.5 166.913,-108 156.913,-104.5 156.913,-111.5"/>
</g>
<!-- Node6 -->
<g id="node6" class="node"><title>Node6</title>
<g id="a_node6"><a xlink:href="classpb_1_1Header.html#ac30ec316fb9d61d433e00e74fee92da1" target="_top" xlink:title="pb::Header::mutable\l_unknown_fields">
<polygon fill="none" stroke="black" points="172.5,-49 172.5,-79 277.5,-79 277.5,-49 172.5,-49"/>
<text text-anchor="start" x="180.5" y="-67" font-family="Helvetica,sans-Serif" font-size="10.00">pb::Header::mutable</text>
<text text-anchor="middle" x="225" y="-56" font-family="Helvetica,sans-Serif" font-size="10.00">_unknown_fields</text>
</a>
</g>
</g>
<!-- Node1&#45;&gt;Node6 -->
<g id="edge5" class="edge"><title>Node1&#45;&gt;Node6</title>
<path fill="none" stroke="midnightblue" d="M96.3686,-98.4527C115.699,-93.2347 140.192,-86.6231 162.541,-80.5902"/>
<polygon fill="midnightblue" stroke="midnightblue" points="163.556,-83.9416 172.298,-77.9563 161.731,-77.1835 163.556,-83.9416"/>
</g>
<!-- Node7 -->
<g id="node7" class="node"><title>Node7</title>
<g id="a_node7"><a xlink:href="classpb_1_1Header.html#a1f5f46d1fe8eda6701a7426373d819aa" target="_top" xlink:title="pb::Header::unknown\l_fields">
<polygon fill="none" stroke="black" points="170,-0 170,-30 280,-30 280,-0 170,-0"/>
<text text-anchor="start" x="178" y="-18" font-family="Helvetica,sans-Serif" font-size="10.00">pb::Header::unknown</text>
<text text-anchor="middle" x="225" y="-7" font-family="Helvetica,sans-Serif" font-size="10.00">_fields</text>
</a>
</g>
</g>
<!-- Node1&#45;&gt;Node7 -->
<g id="edge6" class="edge"><title>Node1&#45;&gt;Node7</title>
<path fill="none" stroke="midnightblue" d="M72.3291,-98.3323C89.4979,-84.0551 123.552,-57.1731 156,-40 159.985,-37.891 164.187,-35.8825 168.467,-33.9877"/>
<polygon fill="midnightblue" stroke="midnightblue" points="170.041,-37.1228 177.908,-30.0263 167.333,-30.668 170.041,-37.1228"/>
</g>
<!-- Node4 -->
<g id="node4" class="node"><title>Node4</title>
<g id="a_node4"><a xlink:href="classpb_1_1Header.html#a62fdc93ff5654004560f29a09e597eb2" target="_top" xlink:title="pb::Header::set_has\l_timestamp">
<polygon fill="none" stroke="black" points="330.5,-131 330.5,-161 435.5,-161 435.5,-131 330.5,-131"/>
<text text-anchor="start" x="338.5" y="-149" font-family="Helvetica,sans-Serif" font-size="10.00">pb::Header::set_has</text>
<text text-anchor="middle" x="383" y="-138" font-family="Helvetica,sans-Serif" font-size="10.00">_timestamp</text>
</a>
</g>
</g>
<!-- Node3&#45;&gt;Node4 -->
<g id="edge3" class="edge"><title>Node3&#45;&gt;Node4</title>
<path fill="none" stroke="midnightblue" d="M292.611,-146C301.756,-146 311.115,-146 320.17,-146"/>
<polygon fill="midnightblue" stroke="midnightblue" points="320.237,-149.5 330.237,-146 320.237,-142.5 320.237,-149.5"/>
</g>
</g>
</svg>
