<?xml version="1.0" encoding="UTF-8" standalone="no"?>
<!DOCTYPE svg PUBLIC "-//W3C//DTD SVG 1.1//EN"
 "http://www.w3.org/Graphics/SVG/1.1/DTD/svg11.dtd">
<!-- Generated by graphviz version 2.36.0 (20140111.2315)
 -->
<!-- Title: org::libcppa::warning::InitAsDefaultInstance Pages: 1 -->
<svg width="502pt" height="109pt"
 viewBox="0.00 0.00 502.00 109.00" xmlns="http://www.w3.org/2000/svg" xmlns:xlink="http://www.w3.org/1999/xlink">
<g id="graph0" class="graph" transform="scale(1 1) rotate(0) translate(4 105)">
<title>org::libcppa::warning::InitAsDefaultInstance</title>
<!-- Node1 -->
<g id="node1" class="node"><title>Node1</title>
<polygon fill="#bfbfbf" stroke="black" points="0.5,-41 0.5,-71 117.5,-71 117.5,-41 0.5,-41"/>
<text text-anchor="start" x="8.5" y="-59" font-family="Helvetica,sans-Serif" font-size="10.00">org::libcppa::warning</text>
<text text-anchor="middle" x="59" y="-48" font-family="Helvetica,sans-Serif" font-size="10.00">::InitAsDefaultInstance</text>
</g>
<!-- Node2 -->
<g id="node2" class="node"><title>Node2</title>
<g id="a_node2"><a xlink:href="namespaceorg_1_1libcppa.html#a53893d1ff6bccd47afc19718d1797afb" target="_top" xlink:title="org::libcppa::protobuf\l_AddDesc_message_2eproto">
<polygon fill="none" stroke="black" points="154.5,-41 154.5,-71 299.5,-71 299.5,-41 154.5,-41"/>
<text text-anchor="start" x="162.5" y="-59" font-family="Helvetica,sans-Serif" font-size="10.00">org::libcppa::protobuf</text>
<text text-anchor="middle" x="227" y="-48" font-family="Helvetica,sans-Serif" font-size="10.00">_AddDesc_message_2eproto</text>
</a>
</g>
</g>
<!-- Node1&#45;&gt;Node2 -->
<g id="edge1" class="edge"><title>Node1&#45;&gt;Node2</title>
<path fill="none" stroke="midnightblue" d="M127.785,-56C136.581,-56 145.613,-56 154.467,-56"/>
<polygon fill="midnightblue" stroke="midnightblue" points="127.593,-52.5001 117.593,-56 127.593,-59.5001 127.593,-52.5001"/>
</g>
<!-- Node3 -->
<g id="node3" class="node"><title>Node3</title>
<g id="a_node3"><a xlink:href="namespaceorg_1_1libcppa.html#ae01764e64ed49404f326136a720b1f3a" target="_top" xlink:title="org::libcppa::protobuf\l_AssignDesc_message_2eproto">
<polygon fill="none" stroke="black" points="336,-71 336,-101 494,-101 494,-71 336,-71"/>
<text text-anchor="start" x="344" y="-89" font-family="Helvetica,sans-Serif" font-size="10.00">org::libcppa::protobuf</text>
<text text-anchor="middle" x="415" y="-78" font-family="Helvetica,sans-Serif" font-size="10.00">_AssignDesc_message_2eproto</text>
</a>
</g>
</g>
<!-- Node2&#45;&gt;Node3 -->
<g id="edge2" class="edge"><title>Node2&#45;&gt;Node3</title>
<path fill="none" stroke="midnightblue" d="M309.761,-69.1872C318.444,-70.5878 327.26,-72.0097 335.9,-73.4033"/>
<polygon fill="midnightblue" stroke="midnightblue" points="310.076,-65.6929 299.646,-67.5559 308.961,-72.6036 310.076,-65.6929"/>
</g>
<!-- Node4 -->
<g id="node4" class="node"><title>Node4</title>
<g id="a_node4"><a xlink:href="structorg_1_1libcppa_1_1StaticDescriptorInitializer__message__2eproto.html#ac6023162292154effbea9c4a223f68cd" target="_top" xlink:title="org::libcppa::StaticDescriptor\lInitializer_message_2eproto\l::StaticDescriptorInitializer\l_message_2eproto">
<polygon fill="none" stroke="black" points="343.5,-0 343.5,-52 486.5,-52 486.5,-0 343.5,-0"/>
<text text-anchor="start" x="351.5" y="-40" font-family="Helvetica,sans-Serif" font-size="10.00">org::libcppa::StaticDescriptor</text>
<text text-anchor="start" x="351.5" y="-29" font-family="Helvetica,sans-Serif" font-size="10.00">Initializer_message_2eproto</text>
<text text-anchor="start" x="351.5" y="-18" font-family="Helvetica,sans-Serif" font-size="10.00">::StaticDescriptorInitializer</text>
<text text-anchor="middle" x="415" y="-7" font-family="Helvetica,sans-Serif" font-size="10.00">_message_2eproto</text>
</a>
</g>
</g>
<!-- Node2&#45;&gt;Node4 -->
<g id="edge3" class="edge"><title>Node2&#45;&gt;Node4</title>
<path fill="none" stroke="midnightblue" d="M309.819,-42.8033C320.984,-41.0026 332.366,-39.1668 343.31,-37.4015"/>
<polygon fill="midnightblue" stroke="midnightblue" points="308.961,-39.3964 299.646,-44.4441 310.076,-46.3071 308.961,-39.3964"/>
</g>
</g>
</svg>
