<?xml version="1.0" encoding="UTF-8" standalone="no"?>
<!DOCTYPE svg PUBLIC "-//W3C//DTD SVG 1.1//EN"
 "http://www.w3.org/Graphics/SVG/1.1/DTD/svg11.dtd">
<!-- Generated by graphviz version 2.36.0 (20140111.2315)
 -->
<!-- Title: HDFReader::GetNumberOfProtobufFiles Pages: 1 -->
<svg width="564pt" height="121pt"
 viewBox="0.00 0.00 564.00 121.00" xmlns="http://www.w3.org/2000/svg" xmlns:xlink="http://www.w3.org/1999/xlink">
<g id="graph0" class="graph" transform="scale(1 1) rotate(0) translate(4 117)">
<title>HDFReader::GetNumberOfProtobufFiles</title>
<!-- Node1 -->
<g id="node1" class="node"><title>Node1</title>
<polygon fill="#bfbfbf" stroke="black" points="0.5,-22 0.5,-52 173.5,-52 173.5,-22 0.5,-22"/>
<text text-anchor="start" x="8.5" y="-40" font-family="Helvetica,sans-Serif" font-size="10.00">HDFReader::GetNumberOfProtobuf</text>
<text text-anchor="middle" x="87" y="-29" font-family="Helvetica,sans-Serif" font-size="10.00">Files</text>
</g>
<!-- Node2 -->
<g id="node2" class="node"><title>Node2</title>
<g id="a_node2"><a xlink:href="classFrameSelector.html#a24b62c5e5e66b40cfc72cda4c8409212" target="_top" xlink:title="FrameSelector::GetImageCount">
<polygon fill="none" stroke="black" points="210.5,-49.5 210.5,-68.5 365.5,-68.5 365.5,-49.5 210.5,-49.5"/>
<text text-anchor="middle" x="288" y="-56.5" font-family="Helvetica,sans-Serif" font-size="10.00">FrameSelector::GetImageCount</text>
</a>
</g>
</g>
<!-- Node1&#45;&gt;Node2 -->
<g id="edge1" class="edge"><title>Node1&#45;&gt;Node2</title>
<path fill="none" stroke="midnightblue" d="M183.622,-47.5712C192.573,-48.5608 201.566,-49.555 210.31,-50.5218"/>
<polygon fill="midnightblue" stroke="midnightblue" points="183.873,-44.0778 173.549,-46.4577 183.104,-51.0354 183.873,-44.0778"/>
</g>
<!-- Node5 -->
<g id="node5" class="node"><title>Node5</title>
<g id="a_node5"><a xlink:href="classHDFReader.html#a5b9e493c8ec8cf001105dd262336e10b" target="_top" xlink:title="HDFReader::ReadAllProtobuf\lFiles">
<polygon fill="none" stroke="black" points="215,-0 215,-30 361,-30 361,-0 215,-0"/>
<text text-anchor="start" x="223" y="-18" font-family="Helvetica,sans-Serif" font-size="10.00">HDFReader::ReadAllProtobuf</text>
<text text-anchor="middle" x="288" y="-7" font-family="Helvetica,sans-Serif" font-size="10.00">Files</text>
</a>
</g>
</g>
<!-- Node1&#45;&gt;Node5 -->
<g id="edge4" class="edge"><title>Node1&#45;&gt;Node5</title>
<path fill="none" stroke="midnightblue" d="M183.624,-26.4285C194.168,-25.2629 204.769,-24.0909 214.954,-22.9649"/>
<polygon fill="midnightblue" stroke="midnightblue" points="183.104,-22.9646 173.549,-27.5423 183.873,-29.9222 183.104,-22.9646"/>
</g>
<!-- Node3 -->
<g id="node3" class="node"><title>Node3</title>
<g id="a_node3"><a xlink:href="classController.html#aee012beb2309ae88b7278fa3dad06d80" target="_top" xlink:title="Controller::PlayHDFAsVideo">
<polygon fill="none" stroke="black" points="408,-93.5 408,-112.5 550,-112.5 550,-93.5 408,-93.5"/>
<text text-anchor="middle" x="479" y="-100.5" font-family="Helvetica,sans-Serif" font-size="10.00">Controller::PlayHDFAsVideo</text>
</a>
</g>
</g>
<!-- Node2&#45;&gt;Node3 -->
<g id="edge2" class="edge"><title>Node2&#45;&gt;Node3</title>
<path fill="none" stroke="midnightblue" d="M340.015,-70.8764C370.46,-77.9642 408.606,-86.8448 437.07,-93.4713"/>
<polygon fill="midnightblue" stroke="midnightblue" points="340.543,-67.406 330.01,-68.5473 338.956,-74.2237 340.543,-67.406"/>
</g>
<!-- Node4 -->
<g id="node4" class="node"><title>Node4</title>
<g id="a_node4"><a xlink:href="classController.html#afd6375744f4f31dd254d1e5f1316ff4b" target="_top" xlink:title="Controller::SaveAllImages\lAsJPEG">
<polygon fill="none" stroke="black" points="413.5,-44 413.5,-74 544.5,-74 544.5,-44 413.5,-44"/>
<text text-anchor="start" x="421.5" y="-62" font-family="Helvetica,sans-Serif" font-size="10.00">Controller::SaveAllImages</text>
<text text-anchor="middle" x="479" y="-51" font-family="Helvetica,sans-Serif" font-size="10.00">AsJPEG</text>
</a>
</g>
</g>
<!-- Node2&#45;&gt;Node4 -->
<g id="edge3" class="edge"><title>Node2&#45;&gt;Node4</title>
<path fill="none" stroke="midnightblue" d="M375.713,-59C388.395,-59 401.264,-59 413.4,-59"/>
<polygon fill="midnightblue" stroke="midnightblue" points="375.601,-55.5001 365.601,-59 375.601,-62.5001 375.601,-55.5001"/>
</g>
<!-- Node6 -->
<g id="node6" class="node"><title>Node6</title>
<g id="a_node6"><a xlink:href="classFrameSelector.html#af202012c3f91b5aba8ee74d116b24390" target="_top" xlink:title="FrameSelector::ReadAllImages">
<polygon fill="none" stroke="black" points="402.5,-5.5 402.5,-24.5 555.5,-24.5 555.5,-5.5 402.5,-5.5"/>
<text text-anchor="middle" x="479" y="-12.5" font-family="Helvetica,sans-Serif" font-size="10.00">FrameSelector::ReadAllImages</text>
</a>
</g>
</g>
<!-- Node5&#45;&gt;Node6 -->
<g id="edge5" class="edge"><title>Node5&#45;&gt;Node6</title>
<path fill="none" stroke="midnightblue" d="M371.445,-15C381.711,-15 392.17,-15 402.326,-15"/>
<polygon fill="midnightblue" stroke="midnightblue" points="371.262,-11.5001 361.262,-15 371.262,-18.5001 371.262,-11.5001"/>
</g>
</g>
</svg>
