<?xml version="1.0" encoding="UTF-8" standalone="no"?>
<!DOCTYPE svg PUBLIC "-//W3C//DTD SVG 1.1//EN"
 "http://www.w3.org/Graphics/SVG/1.1/DTD/svg11.dtd">
<!-- Generated by graphviz version 2.36.0 (20140111.2315)
 -->
<!-- Title: Element::GetPosition Pages: 1 -->
<svg width="470pt" height="104pt"
 viewBox="0.00 0.00 470.00 104.00" xmlns="http://www.w3.org/2000/svg" xmlns:xlink="http://www.w3.org/1999/xlink">
<g id="graph0" class="graph" transform="scale(1 1) rotate(0) translate(4 100)">
<title>Element::GetPosition</title>
<!-- Node1 -->
<g id="node1" class="node"><title>Node1</title>
<polygon fill="#bfbfbf" stroke="black" points="0,-38.5 0,-57.5 110,-57.5 110,-38.5 0,-38.5"/>
<text text-anchor="middle" x="55" y="-45.5" font-family="Helvetica,sans-Serif" font-size="10.00">Element::GetPosition</text>
</g>
<!-- Node2 -->
<g id="node2" class="node"><title>Node2</title>
<g id="a_node2"><a xlink:href="classScenario.html#a9d8ccfd2860fbbb55905e9da06ed4ac8" target="_top" xlink:title="Scenario::Distance">
<polygon fill="none" stroke="black" points="161,-76.5 161,-95.5 261,-95.5 261,-76.5 161,-76.5"/>
<text text-anchor="middle" x="211" y="-83.5" font-family="Helvetica,sans-Serif" font-size="10.00">Scenario::Distance</text>
</a>
</g>
</g>
<!-- Node1&#45;&gt;Node2 -->
<g id="edge1" class="edge"><title>Node1&#45;&gt;Node2</title>
<path fill="none" stroke="midnightblue" d="M104.794,-60.04C126.308,-65.3488 151.232,-71.4988 171.419,-76.4799"/>
<polygon fill="midnightblue" stroke="midnightblue" points="105.408,-56.5867 94.8607,-57.589 103.731,-63.3828 105.408,-56.5867"/>
</g>
<!-- Node3 -->
<g id="node3" class="node"><title>Node3</title>
<g id="a_node3"><a xlink:href="classScenario.html#ad8a3632b73757283754695f92f51b2f5" target="_top" xlink:title="Scenario::Overlap">
<polygon fill="none" stroke="black" points="163.5,-38.5 163.5,-57.5 258.5,-57.5 258.5,-38.5 163.5,-38.5"/>
<text text-anchor="middle" x="211" y="-45.5" font-family="Helvetica,sans-Serif" font-size="10.00">Scenario::Overlap</text>
</a>
</g>
</g>
<!-- Node1&#45;&gt;Node3 -->
<g id="edge2" class="edge"><title>Node1&#45;&gt;Node3</title>
<path fill="none" stroke="midnightblue" d="M120.606,-48C134.95,-48 149.884,-48 163.344,-48"/>
<polygon fill="midnightblue" stroke="midnightblue" points="120.295,-44.5001 110.295,-48 120.295,-51.5001 120.295,-44.5001"/>
</g>
<!-- Node5 -->
<g id="node5" class="node"><title>Node5</title>
<g id="a_node5"><a xlink:href="classScenario.html#a88eae880766123713d2202bcd4ffaa7c" target="_top" xlink:title="Scenario::CenterDistance">
<polygon fill="none" stroke="black" points="146.5,-0.5 146.5,-19.5 275.5,-19.5 275.5,-0.5 146.5,-0.5"/>
<text text-anchor="middle" x="211" y="-7.5" font-family="Helvetica,sans-Serif" font-size="10.00">Scenario::CenterDistance</text>
</a>
</g>
</g>
<!-- Node1&#45;&gt;Node5 -->
<g id="edge4" class="edge"><title>Node1&#45;&gt;Node5</title>
<path fill="none" stroke="midnightblue" d="M104.794,-35.96C126.308,-30.6512 151.232,-24.5012 171.419,-19.5201"/>
<polygon fill="midnightblue" stroke="midnightblue" points="103.731,-32.6172 94.8607,-38.411 105.408,-39.4133 103.731,-32.6172"/>
</g>
<!-- Node4 -->
<g id="node4" class="node"><title>Node4</title>
<g id="a_node4"><a xlink:href="classHumansInFrontOfBusScenario.html#a3eb02befb731be6f9ef9c7e54fae6560" target="_top" xlink:title="HumansInFrontOfBusScenario\l::Detect">
<polygon fill="none" stroke="black" points="312,-33 312,-63 462,-63 462,-33 312,-33"/>
<text text-anchor="start" x="320" y="-51" font-family="Helvetica,sans-Serif" font-size="10.00">HumansInFrontOfBusScenario</text>
<text text-anchor="middle" x="387" y="-40" font-family="Helvetica,sans-Serif" font-size="10.00">::Detect</text>
</a>
</g>
</g>
<!-- Node3&#45;&gt;Node4 -->
<g id="edge3" class="edge"><title>Node3&#45;&gt;Node4</title>
<path fill="none" stroke="midnightblue" d="M268.841,-48C282.519,-48 297.332,-48 311.676,-48"/>
<polygon fill="midnightblue" stroke="midnightblue" points="268.629,-44.5001 258.629,-48 268.629,-51.5001 268.629,-44.5001"/>
</g>
</g>
</svg>
