<?xml version="1.0" encoding="UTF-8" standalone="no"?>
<!DOCTYPE svg PUBLIC "-//W3C//DTD SVG 1.1//EN"
 "http://www.w3.org/Graphics/SVG/1.1/DTD/svg11.dtd">
<!-- Generated by graphviz version 2.36.0 (20140111.2315)
 -->
<!-- Title: Image::GetImageWidth Pages: 1 -->
<svg width="646pt" height="136pt"
 viewBox="0.00 0.00 646.00 136.38" xmlns="http://www.w3.org/2000/svg" xmlns:xlink="http://www.w3.org/1999/xlink">
<g id="graph0" class="graph" transform="scale(1 1) rotate(0) translate(4 132.377)">
<title>Image::GetImageWidth</title>
<!-- Node1 -->
<g id="node1" class="node"><title>Node1</title>
<polygon fill="#bfbfbf" stroke="black" points="0,-41.5 0,-60.5 118,-60.5 118,-41.5 0,-41.5"/>
<text text-anchor="middle" x="59" y="-48.5" font-family="Helvetica,sans-Serif" font-size="10.00">Image::GetImageWidth</text>
</g>
<!-- Node2 -->
<g id="node2" class="node"><title>Node2</title>
<g id="a_node2"><a xlink:href="classFrameSelector.html#a1065c609443efd72a3236cc98f168caa" target="_top" xlink:title="FrameSelector::ReadImage">
<polygon fill="none" stroke="black" points="154.5,-98.5 154.5,-117.5 291.5,-117.5 291.5,-98.5 154.5,-98.5"/>
<text text-anchor="middle" x="223" y="-105.5" font-family="Helvetica,sans-Serif" font-size="10.00">FrameSelector::ReadImage</text>
</a>
</g>
</g>
<!-- Node1&#45;&gt;Node2 -->
<g id="edge1" class="edge"><title>Node1&#45;&gt;Node2</title>
<path fill="none" stroke="midnightblue" d="M91.2574,-64.6582C109.39,-72.3229 132.771,-81.7685 154,-89 163.979,-92.3992 174.927,-95.6587 185.067,-98.4889"/>
<polygon fill="midnightblue" stroke="midnightblue" points="92.3417,-61.3155 81.7705,-60.6086 89.5935,-67.7535 92.3417,-61.3155"/>
</g>
<!-- Node5 -->
<g id="node5" class="node"><title>Node5</title>
<g id="a_node5"><a xlink:href="classImage.html#a5cd8edfc3b0fd518d7734ec8836b1896" target="_top" xlink:title="Image::GetBGGRImage">
<polygon fill="none" stroke="black" points="162,-22.5 162,-41.5 284,-41.5 284,-22.5 162,-22.5"/>
<text text-anchor="middle" x="223" y="-29.5" font-family="Helvetica,sans-Serif" font-size="10.00">Image::GetBGGRImage</text>
</a>
</g>
</g>
<!-- Node1&#45;&gt;Node5 -->
<g id="edge4" class="edge"><title>Node1&#45;&gt;Node5</title>
<path fill="none" stroke="midnightblue" d="M128.196,-43.0018C139.397,-41.688 150.934,-40.335 161.919,-39.0465"/>
<polygon fill="midnightblue" stroke="midnightblue" points="127.552,-39.5531 118.028,-44.1942 128.368,-46.5055 127.552,-39.5531"/>
</g>
<!-- Node6 -->
<g id="node6" class="node"><title>Node6</title>
<g id="a_node6"><a xlink:href="classImage.html#ab088a67c15296a3f45e72669d17eb606" target="_top" xlink:title="Image::GetBGRImage">
<polygon fill="none" stroke="black" points="337,-0.5 337,-19.5 451,-19.5 451,-0.5 337,-0.5"/>
<text text-anchor="middle" x="394" y="-7.5" font-family="Helvetica,sans-Serif" font-size="10.00">Image::GetBGRImage</text>
</a>
</g>
</g>
<!-- Node1&#45;&gt;Node6 -->
<g id="edge6" class="edge"><title>Node1&#45;&gt;Node6</title>
<path fill="none" stroke="midnightblue" d="M86.9376,-36.9797C105.293,-28.2199 130.448,-17.7339 154,-13 215.634,-0.611301 288.022,-1.83512 336.85,-4.89858"/>
<polygon fill="midnightblue" stroke="midnightblue" points="85.1818,-33.9426 77.7483,-41.4921 88.2673,-40.226 85.1818,-33.9426"/>
</g>
<!-- Node7 -->
<g id="node7" class="node"><title>Node7</title>
<g id="a_node7"><a xlink:href="classImage.html#a7377f0e785df116fbdb53651006fcb67" target="_top" xlink:title="Image::GetRGBImage">
<polygon fill="none" stroke="black" points="166,-60.5 166,-79.5 280,-79.5 280,-60.5 166,-60.5"/>
<text text-anchor="middle" x="223" y="-67.5" font-family="Helvetica,sans-Serif" font-size="10.00">Image::GetRGBImage</text>
</a>
</g>
</g>
<!-- Node1&#45;&gt;Node7 -->
<g id="edge7" class="edge"><title>Node1&#45;&gt;Node7</title>
<path fill="none" stroke="midnightblue" d="M127.992,-58.9744C140.562,-60.4486 153.56,-61.9731 165.734,-63.4009"/>
<polygon fill="midnightblue" stroke="midnightblue" points="128.368,-55.4945 118.028,-57.8058 127.552,-62.4469 128.368,-55.4945"/>
</g>
<!-- Node3 -->
<g id="node3" class="node"><title>Node3</title>
<g id="a_node3"><a xlink:href="classController.html#aee012beb2309ae88b7278fa3dad06d80" target="_top" xlink:title="Controller::PlayHDFAsVideo">
<polygon fill="none" stroke="black" points="496,-90.5 496,-109.5 638,-109.5 638,-90.5 496,-90.5"/>
<text text-anchor="middle" x="567" y="-97.5" font-family="Helvetica,sans-Serif" font-size="10.00">Controller::PlayHDFAsVideo</text>
</a>
</g>
</g>
<!-- Node2&#45;&gt;Node3 -->
<g id="edge2" class="edge"><title>Node2&#45;&gt;Node3</title>
<path fill="none" stroke="midnightblue" d="M285.611,-119.066C299.507,-121.119 314.222,-122.946 328,-124 386.496,-128.473 401.697,-130.518 460,-124 484.565,-121.254 511.746,-115.034 532.433,-109.614"/>
<polygon fill="midnightblue" stroke="midnightblue" points="286.077,-115.597 275.662,-117.54 285.015,-122.516 286.077,-115.597"/>
</g>
<!-- Node4 -->
<g id="node4" class="node"><title>Node4</title>
<g id="a_node4"><a xlink:href="classController.html#afd6375744f4f31dd254d1e5f1316ff4b" target="_top" xlink:title="Controller::SaveAllImages\lAsJPEG">
<polygon fill="none" stroke="black" points="328.5,-85 328.5,-115 459.5,-115 459.5,-85 328.5,-85"/>
<text text-anchor="start" x="336.5" y="-103" font-family="Helvetica,sans-Serif" font-size="10.00">Controller::SaveAllImages</text>
<text text-anchor="middle" x="394" y="-92" font-family="Helvetica,sans-Serif" font-size="10.00">AsJPEG</text>
</a>
</g>
</g>
<!-- Node2&#45;&gt;Node4 -->
<g id="edge3" class="edge"><title>Node2&#45;&gt;Node4</title>
<path fill="none" stroke="midnightblue" d="M302.004,-104.307C310.783,-103.892 319.655,-103.472 328.24,-103.066"/>
<polygon fill="midnightblue" stroke="midnightblue" points="301.588,-100.823 291.765,-104.792 301.919,-107.815 301.588,-100.823"/>
</g>
<!-- Node5&#45;&gt;Node6 -->
<g id="edge5" class="edge"><title>Node5&#45;&gt;Node6</title>
<path fill="none" stroke="midnightblue" d="M294.266,-22.853C308.449,-21.0066 323.184,-19.0885 336.808,-17.3149"/>
<polygon fill="midnightblue" stroke="midnightblue" points="293.523,-19.42 284.059,-24.1817 294.427,-26.3614 293.523,-19.42"/>
</g>
<!-- Node7&#45;&gt;Node4 -->
<g id="edge8" class="edge"><title>Node7&#45;&gt;Node4</title>
<path fill="none" stroke="midnightblue" d="M287.896,-81.3424C301.132,-83.692 315.086,-86.1692 328.349,-88.5235"/>
<polygon fill="midnightblue" stroke="midnightblue" points="288.395,-77.8764 277.937,-79.5747 287.172,-84.7687 288.395,-77.8764"/>
</g>
<!-- Node8 -->
<g id="node8" class="node"><title>Node8</title>
<g id="a_node8"><a xlink:href="classImageView.html#a837a13b1002126beb39dc9425151123c" target="_top" xlink:title="ImageView::ShowImage">
<polygon fill="none" stroke="black" points="332.5,-46.5 332.5,-65.5 455.5,-65.5 455.5,-46.5 332.5,-46.5"/>
<text text-anchor="middle" x="394" y="-53.5" font-family="Helvetica,sans-Serif" font-size="10.00">ImageView::ShowImage</text>
</a>
</g>
</g>
<!-- Node7&#45;&gt;Node8 -->
<g id="edge9" class="edge"><title>Node7&#45;&gt;Node8</title>
<path fill="none" stroke="midnightblue" d="M290.636,-64.4799C304.387,-63.3407 318.801,-62.1467 332.327,-61.0262"/>
<polygon fill="midnightblue" stroke="midnightblue" points="289.951,-61.0245 280.275,-65.3382 290.529,-68.0006 289.951,-61.0245"/>
</g>
<!-- Node8&#45;&gt;Node3 -->
<g id="edge10" class="edge"><title>Node8&#45;&gt;Node3</title>
<path fill="none" stroke="midnightblue" d="M441.876,-68.0617C469.301,-75.1185 503.439,-83.9024 528.968,-90.4713"/>
<polygon fill="midnightblue" stroke="midnightblue" points="442.661,-64.6498 432.104,-65.5473 440.917,-71.4289 442.661,-64.6498"/>
</g>
</g>
</svg>
