<?xml version="1.0" encoding="UTF-8" standalone="no"?>
<!DOCTYPE svg PUBLIC "-//W3C//DTD SVG 1.1//EN"
 "http://www.w3.org/Graphics/SVG/1.1/DTD/svg11.dtd">
<!-- Generated by graphviz version 2.36.0 (20140111.2315)
 -->
<!-- Title: Image::GetImageHeight Pages: 1 -->
<!--zoomable 140 -->
<svg id="main" version="1.1" xmlns="http://www.w3.org/2000/svg" xmlns:xlink="http://www.w3.org/1999/xlink" xml:space="preserve" onload="init(evt)">
<style type="text/css"><![CDATA[
.edge:hover path { stroke: red; }
.edge:hover polygon { stroke: red; fill: red; }
]]></style>
<script type="text/javascript"><![CDATA[
var edges = document.getElementsByTagName('g');
if (edges && edges.length) {
  for (var i=0;i<edges.length;i++) {
    if (edges[i].id.substr(0,4)=='edge') {
      edges[i].setAttribute('class','edge');
    }
  }
}
]]></script>
        <defs>
                <circle id="rim" cx="0" cy="0" r="7"/>
                <circle id="rim2" cx="0" cy="0" r="3.5"/>
                <g id="zoomPlus">
                        <use xlink:href="#rim" fill="#404040">
                                <set attributeName="fill" to="#808080" begin="zoomplus.mouseover" end="zoomplus.mouseout"/>
                        </use>
                        <path d="M-4,0h8M0,-4v8" fill="none" stroke="white" stroke-width="1.5" pointer-events="none"/>
                </g>
                <g id="zoomMin">
                        <use xlink:href="#rim" fill="#404040">
                                <set attributeName="fill" to="#808080" begin="zoomminus.mouseover" end="zoomminus.mouseout"/>
                        </use>
                        <path d="M-4,0h8" fill="none" stroke="white" stroke-width="1.5" pointer-events="none"/>
                </g>
                <g id="dirArrow">
                        <path fill="none" stroke="white" stroke-width="1.5" d="M0,-3.0v7 M-2.5,-0.5L0,-3.0L2.5,-0.5"/>
                </g>
               <g id="resetDef">
                       <use xlink:href="#rim2" fill="#404040">
                               <set attributeName="fill" to="#808080" begin="reset.mouseover" end="reset.mouseout"/>
                       </use>
               </g>
        </defs>

<script type="text/javascript">
var viewWidth = 634;
var viewHeight = 140;
var sectionId = 'dynsection-3';
</script>
<script xlink:href="svgpan.js"/>
<svg id="graph" class="graph">
<g id="viewport">
<title>Image::GetImageHeight</title>
<!-- Node1 -->
<g id="node1" class="node"><title>Node1</title>
<polygon fill="#bfbfbf" stroke="black" points="0.5,-74.5 0.5,-93.5 121.5,-93.5 121.5,-74.5 0.5,-74.5"/>
<text text-anchor="middle" x="61" y="-81.5" font-family="Helvetica,sans-Serif" font-size="10.00">Image::GetImageHeight</text>
</g>
<!-- Node2 -->
<g id="node2" class="node"><title>Node2</title>
<g id="a_node2"><a xlink:href="classImage.html#a5cd8edfc3b0fd518d7734ec8836b1896" target="_top" xlink:title="Image::GetBGGRImage">
<polygon fill="none" stroke="black" points="158,-112.5 158,-131.5 280,-131.5 280,-112.5 158,-112.5"/>
<text text-anchor="middle" x="219" y="-119.5" font-family="Helvetica,sans-Serif" font-size="10.00">Image::GetBGGRImage</text>
</a>
</g>
</g>
<!-- Node1&#45;&gt;Node2 -->
<g id="edge1" class="edge"><title>Node1&#45;&gt;Node2</title>
<path fill="none" stroke="midnightblue" d="M111.132,-95.968C132.993,-101.293 158.376,-107.476 178.918,-112.48"/>
<polygon fill="midnightblue" stroke="midnightblue" points="111.91,-92.5552 101.365,-93.589 110.253,-99.3563 111.91,-92.5552"/>
</g>
<!-- Node3 -->
<g id="node3" class="node"><title>Node3</title>
<g id="a_node3"><a xlink:href="classImage.html#ab088a67c15296a3f45e72669d17eb606" target="_top" xlink:title="Image::GetBGRImage">
<polygon fill="none" stroke="black" points="325,-104.5 325,-123.5 439,-123.5 439,-104.5 325,-104.5"/>
<text text-anchor="middle" x="382" y="-111.5" font-family="Helvetica,sans-Serif" font-size="10.00">Image::GetBGRImage</text>
</a>
</g>
</g>
<!-- Node1&#45;&gt;Node3 -->
<g id="edge3" class="edge"><title>Node1&#45;&gt;Node3</title>
<path fill="none" stroke="midnightblue" d="M131.744,-89.6936C174.547,-93.2836 230.47,-98.145 280,-103 294.57,-104.428 310.309,-106.087 324.928,-107.676"/>
<polygon fill="midnightblue" stroke="midnightblue" points="131.969,-86.2003 121.712,-88.8554 131.386,-93.176 131.969,-86.2003"/>
</g>
<!-- Node4 -->
<g id="node4" class="node"><title>Node4</title>
<g id="a_node4"><a xlink:href="classImage.html#a7377f0e785df116fbdb53651006fcb67" target="_top" xlink:title="Image::GetRGBImage">
<polygon fill="none" stroke="black" points="162,-36.5 162,-55.5 276,-55.5 276,-36.5 162,-36.5"/>
<text text-anchor="middle" x="219" y="-43.5" font-family="Helvetica,sans-Serif" font-size="10.00">Image::GetRGBImage</text>
</a>
</g>
</g>
<!-- Node1&#45;&gt;Node4 -->
<g id="edge4" class="edge"><title>Node1&#45;&gt;Node4</title>
<path fill="none" stroke="midnightblue" d="M111.132,-72.032C132.993,-66.7069 158.376,-60.5238 178.918,-55.5201"/>
<polygon fill="midnightblue" stroke="midnightblue" points="110.253,-68.6437 101.365,-74.411 111.91,-75.4448 110.253,-68.6437"/>
</g>
<!-- Node2&#45;&gt;Node3 -->
<g id="edge2" class="edge"><title>Node2&#45;&gt;Node3</title>
<path fill="none" stroke="midnightblue" d="M290.414,-118.501C301.908,-117.93 313.681,-117.345 324.776,-116.794"/>
<polygon fill="midnightblue" stroke="midnightblue" points="290.222,-115.006 280.409,-118.998 290.57,-121.998 290.222,-115.006"/>
</g>
<!-- Node5 -->
<g id="node5" class="node"><title>Node5</title>
<g id="a_node5"><a xlink:href="classController.html#afd6375744f4f31dd254d1e5f1316ff4b" target="_top" xlink:title="Controller::SaveAllImages\lAsJPEG">
<polygon fill="none" stroke="black" points="316.5,-39 316.5,-69 447.5,-69 447.5,-39 316.5,-39"/>
<text text-anchor="start" x="324.5" y="-57" font-family="Helvetica,sans-Serif" font-size="10.00">Controller::SaveAllImages</text>
<text text-anchor="middle" x="382" y="-46" font-family="Helvetica,sans-Serif" font-size="10.00">AsJPEG</text>
</a>
</g>
</g>
<!-- Node4&#45;&gt;Node5 -->
<g id="edge5" class="edge"><title>Node4&#45;&gt;Node5</title>
<path fill="none" stroke="midnightblue" d="M286.497,-49.3042C296.399,-49.7962 306.593,-50.3027 316.454,-50.7927"/>
<polygon fill="midnightblue" stroke="midnightblue" points="286.471,-45.7987 276.31,-48.798 286.124,-52.7901 286.471,-45.7987"/>
</g>
<!-- Node6 -->
<g id="node6" class="node"><title>Node6</title>
<g id="a_node6"><a xlink:href="classImageView.html#a837a13b1002126beb39dc9425151123c" target="_top" xlink:title="ImageView::ShowImage">
<polygon fill="none" stroke="black" points="320.5,-0.5 320.5,-19.5 443.5,-19.5 443.5,-0.5 320.5,-0.5"/>
<text text-anchor="middle" x="382" y="-7.5" font-family="Helvetica,sans-Serif" font-size="10.00">ImageView::ShowImage</text>
</a>
</g>
</g>
<!-- Node4&#45;&gt;Node6 -->
<g id="edge6" class="edge"><title>Node4&#45;&gt;Node6</title>
<path fill="none" stroke="midnightblue" d="M272.593,-34.24C293.9,-29.4759 318.183,-24.0461 338.358,-19.5349"/>
<polygon fill="midnightblue" stroke="midnightblue" points="271.718,-30.8493 262.722,-36.4472 273.245,-37.6806 271.718,-30.8493"/>
</g>
<!-- Node7 -->
<g id="node7" class="node"><title>Node7</title>
<g id="a_node7"><a xlink:href="classController.html#aee012beb2309ae88b7278fa3dad06d80" target="_top" xlink:title="Controller::PlayHDFAsVideo">
<polygon fill="none" stroke="black" points="484,-0.5 484,-19.5 626,-19.5 626,-0.5 484,-0.5"/>
<text text-anchor="middle" x="555" y="-7.5" font-family="Helvetica,sans-Serif" font-size="10.00">Controller::PlayHDFAsVideo</text>
</a>
</g>
</g>
<!-- Node6&#45;&gt;Node7 -->
<g id="edge7" class="edge"><title>Node6&#45;&gt;Node7</title>
<path fill="none" stroke="midnightblue" d="M453.936,-10C463.805,-10 473.942,-10 483.798,-10"/>
<polygon fill="midnightblue" stroke="midnightblue" points="453.77,-6.5001 443.77,-10 453.77,-13.5001 453.77,-6.5001"/>
</g>
</g>
</svg>
        <g id="navigator" transform="translate(0 0)" fill="#404254">
                <rect fill="#f2f5e9" fill-opacity="0.5" stroke="#606060" stroke-width=".5" x="0" y="0" width="60" height="60"/>
                <use id="zoomplus" xlink:href="#zoomPlus" x="17" y="9" onmousedown="handleZoom(evt,'in')"/>
                <use id="zoomminus" xlink:href="#zoomMin" x="42" y="9" onmousedown="handleZoom(evt,'out')"/>
                <use id="reset" xlink:href="#resetDef" x="30" y="36" onmousedown="handleReset()"/>
                <g id="arrowUp" xlink:href="#dirArrow" transform="translate(30 24)" onmousedown="handlePan(0,-1)">
                  <use xlink:href="#rim" fill="#404040">
                        <set attributeName="fill" to="#808080" begin="arrowUp.mouseover" end="arrowUp.mouseout"/>
                  </use>
                  <path fill="none" stroke="white" stroke-width="1.5" d="M0,-3.0v7 M-2.5,-0.5L0,-3.0L2.5,-0.5"/>
                </g>
                <g id="arrowRight" xlink:href="#dirArrow" transform="rotate(90) translate(36 -43)" onmousedown="handlePan(1,0)">
                  <use xlink:href="#rim" fill="#404040">
                        <set attributeName="fill" to="#808080" begin="arrowRight.mouseover" end="arrowRight.mouseout"/>
                  </use>
                  <path fill="none" stroke="white" stroke-width="1.5" d="M0,-3.0v7 M-2.5,-0.5L0,-3.0L2.5,-0.5"/>
                </g>
                <g id="arrowDown" xlink:href="#dirArrow" transform="rotate(180) translate(-30 -48)" onmousedown="handlePan(0,1)">
                  <use xlink:href="#rim" fill="#404040">
                        <set attributeName="fill" to="#808080" begin="arrowDown.mouseover" end="arrowDown.mouseout"/>
                  </use>
                  <path fill="none" stroke="white" stroke-width="1.5" d="M0,-3.0v7 M-2.5,-0.5L0,-3.0L2.5,-0.5"/>
                </g>
                <g id="arrowLeft" xlink:href="#dirArrow" transform="rotate(270) translate(-36 17)" onmousedown="handlePan(-1,0)">
                  <use xlink:href="#rim" fill="#404040">
                        <set attributeName="fill" to="#808080" begin="arrowLeft.mouseover" end="arrowLeft.mouseout"/>
                  </use>
                  <path fill="none" stroke="white" stroke-width="1.5" d="M0,-3.0v7 M-2.5,-0.5L0,-3.0L2.5,-0.5"/>
                </g>
        </g>
        <svg viewBox="0 0 15 15" width="100%" height="30px" preserveAspectRatio="xMaxYMin meet">
         <g id="arrow_out" transform="scale(0.3 0.3)">
          <a xlink:href="classImage_a141671a32d6e069211abd2211f0d8849_icgraph_org.svg" target="_base">
           <rect id="button" ry="5" rx="5" y="6" x="6" height="38" width="38"
                fill="#f2f5e9" fill-opacity="0.5" stroke="#606060" stroke-width="1.0"/>
           <path id="arrow"
             d="M 11.500037,31.436501 C 11.940474,20.09759 22.043105,11.32322 32.158766,21.979434 L 37.068811,17.246167 C 37.068811,17.246167 37.088388,32 37.088388,32 L 22.160133,31.978069 C 22.160133,31.978069 26.997745,27.140456 26.997745,27.140456 C 18.528582,18.264221 13.291696,25.230495 11.500037,31.436501 z"
             style="fill:#404040;"/>
          </a>
         </g>
        </svg>
</svg>
