<?xml version="1.0" encoding="UTF-8" standalone="no"?>
<!DOCTYPE svg PUBLIC "-//W3C//DTD SVG 1.1//EN"
 "http://www.w3.org/Graphics/SVG/1.1/DTD/svg11.dtd">
<!-- Generated by graphviz version 2.36.0 (20140111.2315)
 -->
<!-- Title: org::libcppa::WarnOrAck::ack Pages: 1 -->
<svg width="518pt" height="322pt"
 viewBox="0.00 0.00 518.00 322.00" xmlns="http://www.w3.org/2000/svg" xmlns:xlink="http://www.w3.org/1999/xlink">
<g id="graph0" class="graph" transform="scale(1 1) rotate(0) translate(4 318)">
<title>org::libcppa::WarnOrAck::ack</title>
<!-- Node1 -->
<g id="node1" class="node"><title>Node1</title>
<polygon fill="#bfbfbf" stroke="black" points="0,-142.5 0,-161.5 146,-161.5 146,-142.5 0,-142.5"/>
<text text-anchor="middle" x="73" y="-149.5" font-family="Helvetica,sans-Serif" font-size="10.00">org::libcppa::WarnOrAck::ack</text>
</g>
<!-- Node2 -->
<g id="node2" class="node"><title>Node2</title>
<g id="a_node2"><a xlink:href="classorg_1_1libcppa_1_1WarnOrAck.html#a86189dec84eb3746f08520a85150a1e8" target="_top" xlink:title="org::libcppa::WarnOrAck\l::SerializeWithCachedSizes">
<polygon fill="none" stroke="black" points="199.5,-284 199.5,-314 338.5,-314 338.5,-284 199.5,-284"/>
<text text-anchor="start" x="207.5" y="-302" font-family="Helvetica,sans-Serif" font-size="10.00">org::libcppa::WarnOrAck</text>
<text text-anchor="middle" x="269" y="-291" font-family="Helvetica,sans-Serif" font-size="10.00">::SerializeWithCachedSizes</text>
</a>
</g>
</g>
<!-- Node1&#45;&gt;Node2 -->
<g id="edge1" class="edge"><title>Node1&#45;&gt;Node2</title>
<path fill="none" stroke="midnightblue" d="M85.2984,-170.315C102.747,-197.073 138.793,-246.637 182,-274 188.043,-277.827 194.69,-281.085 201.531,-283.857"/>
<polygon fill="midnightblue" stroke="midnightblue" points="88.0552,-168.128 79.7324,-161.572 82.1502,-171.887 88.0552,-168.128"/>
</g>
<!-- Node3 -->
<g id="node3" class="node"><title>Node3</title>
<g id="a_node3"><a xlink:href="classorg_1_1libcppa_1_1WarnOrAck.html#a3962cb0ae219a08acb9f28821b47a300" target="_top" xlink:title="org::libcppa::WarnOrAck\l::SerializeWithCachedSizesToArray">
<polygon fill="none" stroke="black" points="182.5,-235 182.5,-265 355.5,-265 355.5,-235 182.5,-235"/>
<text text-anchor="start" x="190.5" y="-253" font-family="Helvetica,sans-Serif" font-size="10.00">org::libcppa::WarnOrAck</text>
<text text-anchor="middle" x="269" y="-242" font-family="Helvetica,sans-Serif" font-size="10.00">::SerializeWithCachedSizesToArray</text>
</a>
</g>
</g>
<!-- Node1&#45;&gt;Node3 -->
<g id="edge2" class="edge"><title>Node1&#45;&gt;Node3</title>
<path fill="none" stroke="midnightblue" d="M93.6131,-168.039C114.429,-184.371 148.834,-209.441 182,-225 190.024,-228.764 198.738,-232.091 207.437,-234.99"/>
<polygon fill="midnightblue" stroke="midnightblue" points="95.5691,-165.122 85.5672,-161.627 91.2068,-170.597 95.5691,-165.122"/>
</g>
<!-- Node4 -->
<g id="node4" class="node"><title>Node4</title>
<g id="a_node4"><a xlink:href="classorg_1_1libcppa_1_1WarnOrAck.html#aeb55f2d7aef4fa3f8ba06b88d6ca17d2" target="_top" xlink:title="org::libcppa::WarnOrAck\l::ByteSize">
<polygon fill="none" stroke="black" points="207,-186 207,-216 331,-216 331,-186 207,-186"/>
<text text-anchor="start" x="215" y="-204" font-family="Helvetica,sans-Serif" font-size="10.00">org::libcppa::WarnOrAck</text>
<text text-anchor="middle" x="269" y="-193" font-family="Helvetica,sans-Serif" font-size="10.00">::ByteSize</text>
</a>
</g>
</g>
<!-- Node1&#45;&gt;Node4 -->
<g id="edge3" class="edge"><title>Node1&#45;&gt;Node4</title>
<path fill="none" stroke="midnightblue" d="M121.566,-164.014C147.779,-170.635 180.566,-178.916 208.466,-185.963"/>
<polygon fill="midnightblue" stroke="midnightblue" points="122.418,-160.62 111.866,-161.564 120.704,-167.406 122.418,-160.62"/>
</g>
<!-- Node5 -->
<g id="node5" class="node"><title>Node5</title>
<g id="a_node5"><a xlink:href="classorg_1_1libcppa_1_1WarnOrAck.html#a12501cbd6672b9d2ebfc69b4b6b88f65" target="_top" xlink:title="org::libcppa::WarnOrAck\l::MergeFrom">
<polygon fill="none" stroke="black" points="207,-137 207,-167 331,-167 331,-137 207,-137"/>
<text text-anchor="start" x="215" y="-155" font-family="Helvetica,sans-Serif" font-size="10.00">org::libcppa::WarnOrAck</text>
<text text-anchor="middle" x="269" y="-144" font-family="Helvetica,sans-Serif" font-size="10.00">::MergeFrom</text>
</a>
</g>
</g>
<!-- Node1&#45;&gt;Node5 -->
<g id="edge4" class="edge"><title>Node1&#45;&gt;Node5</title>
<path fill="none" stroke="midnightblue" d="M156.628,-152C173.468,-152 190.899,-152 206.829,-152"/>
<polygon fill="midnightblue" stroke="midnightblue" points="156.238,-148.5 146.238,-152 156.238,-155.5 156.238,-148.5"/>
</g>
<!-- Node6 -->
<g id="node6" class="node"><title>Node6</title>
<g id="a_node6"><a xlink:href="classorg_1_1libcppa_1_1WarnOrAck.html#a9c2a6a4a891b6a3ead4f7208e86c3d43" target="_top" xlink:title="org::libcppa::WarnOrAck\l::IsInitialized">
<polygon fill="none" stroke="black" points="207,-88 207,-118 331,-118 331,-88 207,-88"/>
<text text-anchor="start" x="215" y="-106" font-family="Helvetica,sans-Serif" font-size="10.00">org::libcppa::WarnOrAck</text>
<text text-anchor="middle" x="269" y="-95" font-family="Helvetica,sans-Serif" font-size="10.00">::IsInitialized</text>
</a>
</g>
</g>
<!-- Node1&#45;&gt;Node6 -->
<g id="edge5" class="edge"><title>Node1&#45;&gt;Node6</title>
<path fill="none" stroke="midnightblue" d="M121.566,-139.986C147.779,-133.365 180.566,-125.084 208.466,-118.037"/>
<polygon fill="midnightblue" stroke="midnightblue" points="120.704,-136.594 111.866,-142.436 122.418,-143.38 120.704,-136.594"/>
</g>
<!-- Node7 -->
<g id="node7" class="node"><title>Node7</title>
<g id="a_node7"><a xlink:href="classorg_1_1libcppa_1_1WarnOrAck.html#a70e921d08dc767609f5a99784b1e9c59" target="_top" xlink:title="org::libcppa::WarnOrAck\l::set_allocated_ack">
<polygon fill="none" stroke="black" points="207,-39 207,-69 331,-69 331,-39 207,-39"/>
<text text-anchor="start" x="215" y="-57" font-family="Helvetica,sans-Serif" font-size="10.00">org::libcppa::WarnOrAck</text>
<text text-anchor="middle" x="269" y="-46" font-family="Helvetica,sans-Serif" font-size="10.00">::set_allocated_ack</text>
</a>
</g>
</g>
<!-- Node1&#45;&gt;Node7 -->
<g id="edge6" class="edge"><title>Node1&#45;&gt;Node7</title>
<path fill="none" stroke="midnightblue" d="M93.6131,-135.961C114.429,-119.629 148.834,-94.5592 182,-79 190.024,-75.2359 198.738,-71.9086 207.437,-69.0102"/>
<polygon fill="midnightblue" stroke="midnightblue" points="91.2068,-133.403 85.5672,-142.373 95.5691,-138.878 91.2068,-133.403"/>
</g>
<!-- Node8 -->
<g id="node8" class="node"><title>Node8</title>
<g id="a_node8"><a xlink:href="protobuf__broker_8cpp.html#ae10b5d14d3ad78f811d25de1d8429746" target="_top" xlink:title="protobuf_io">
<polygon fill="none" stroke="black" points="236.5,-0.5 236.5,-19.5 301.5,-19.5 301.5,-0.5 236.5,-0.5"/>
<text text-anchor="middle" x="269" y="-7.5" font-family="Helvetica,sans-Serif" font-size="10.00">protobuf_io</text>
</a>
</g>
</g>
<!-- Node1&#45;&gt;Node8 -->
<g id="edge7" class="edge"><title>Node1&#45;&gt;Node8</title>
<path fill="none" stroke="midnightblue" d="M84.8845,-133.734C102.006,-106.67 137.872,-56.2926 182,-30 198.461,-20.1922 219.351,-15.194 236.42,-12.6468"/>
<polygon fill="midnightblue" stroke="midnightblue" points="81.8983,-131.909 79.6273,-142.257 87.8561,-135.584 81.8983,-131.909"/>
</g>
<!-- Node9 -->
<g id="node9" class="node"><title>Node9</title>
<g id="a_node9"><a xlink:href="protobuf__broker_8cpp.html#ab3afbb104c5cd2d77878dca0def53691" target="_top" xlink:title="server">
<polygon fill="none" stroke="black" points="392,-19.5 392,-38.5 436,-38.5 436,-19.5 392,-19.5"/>
<text text-anchor="middle" x="414" y="-26.5" font-family="Helvetica,sans-Serif" font-size="10.00">server</text>
</a>
</g>
</g>
<!-- Node8&#45;&gt;Node9 -->
<g id="edge8" class="edge"><title>Node8&#45;&gt;Node9</title>
<path fill="none" stroke="midnightblue" d="M311.829,-15.5577C338.145,-19.0542 370.98,-23.417 391.972,-26.2061"/>
<polygon fill="midnightblue" stroke="midnightblue" points="312.11,-12.0644 301.736,-14.2167 311.188,-19.0034 312.11,-12.0644"/>
</g>
<!-- Node10 -->
<g id="node10" class="node"><title>Node10</title>
<g id="a_node10"><a xlink:href="protobuf__broker_8cpp.html#a3c04138a5bfe5d72780bb7e82a18e627" target="_top" xlink:title="main">
<polygon fill="none" stroke="black" points="472,-0.5 472,-19.5 510,-19.5 510,-0.5 472,-0.5"/>
<text text-anchor="middle" x="491" y="-7.5" font-family="Helvetica,sans-Serif" font-size="10.00">main</text>
</a>
</g>
</g>
<!-- Node8&#45;&gt;Node10 -->
<g id="edge10" class="edge"><title>Node8&#45;&gt;Node10</title>
<path fill="none" stroke="midnightblue" d="M311.62,-10C359.753,-10 436.836,-10 471.755,-10"/>
<polygon fill="midnightblue" stroke="midnightblue" points="311.521,-6.5001 301.521,-10 311.521,-13.5001 311.521,-6.5001"/>
</g>
<!-- Node9&#45;&gt;Node10 -->
<g id="edge9" class="edge"><title>Node9&#45;&gt;Node10</title>
<path fill="none" stroke="midnightblue" d="M446.246,-21.0844C455.01,-18.8641 464.244,-16.5249 471.958,-14.5706"/>
<polygon fill="midnightblue" stroke="midnightblue" points="445.126,-17.7575 436.291,-23.6062 446.845,-24.5432 445.126,-17.7575"/>
</g>
</g>
</svg>
