<?xml version="1.0" encoding="UTF-8" standalone="no"?>
<!DOCTYPE svg PUBLIC "-//W3C//DTD SVG 1.1//EN"
 "http://www.w3.org/Graphics/SVG/1.1/DTD/svg11.dtd">
<!-- Generated by graphviz version 2.36.0 (20140111.2315)
 -->
<!-- Title: org::libcppa::warning::SerializeWithCachedSizes Pages: 1 -->
<svg width="292pt" height="87pt"
 viewBox="0.00 0.00 292.00 87.00" xmlns="http://www.w3.org/2000/svg" xmlns:xlink="http://www.w3.org/1999/xlink">
<g id="graph0" class="graph" transform="scale(1 1) rotate(0) translate(4 83)">
<title>org::libcppa::warning::SerializeWithCachedSizes</title>
<!-- Node1 -->
<g id="node1" class="node"><title>Node1</title>
<polygon fill="#bfbfbf" stroke="black" points="0.5,-24 0.5,-54 139.5,-54 139.5,-24 0.5,-24"/>
<text text-anchor="start" x="8.5" y="-42" font-family="Helvetica,sans-Serif" font-size="10.00">org::libcppa::warning</text>
<text text-anchor="middle" x="70" y="-31" font-family="Helvetica,sans-Serif" font-size="10.00">::SerializeWithCachedSizes</text>
</g>
<!-- Node2 -->
<g id="node2" class="node"><title>Node2</title>
<g id="a_node2"><a xlink:href="classorg_1_1libcppa_1_1warning.html#a2be6277565759fee3d17238d3b6ed27e" target="_top" xlink:title="org::libcppa::warning\l::has_id">
<polygon fill="none" stroke="black" points="176.5,-49 176.5,-79 283.5,-79 283.5,-49 176.5,-49"/>
<text text-anchor="start" x="184.5" y="-67" font-family="Helvetica,sans-Serif" font-size="10.00">org::libcppa::warning</text>
<text text-anchor="middle" x="230" y="-56" font-family="Helvetica,sans-Serif" font-size="10.00">::has_id</text>
</a>
</g>
</g>
<!-- Node1&#45;&gt;Node2 -->
<g id="edge1" class="edge"><title>Node1&#45;&gt;Node2</title>
<path fill="none" stroke="midnightblue" d="M139.841,-49.8926C148.568,-51.2734 157.463,-52.6808 166.09,-54.0459"/>
<polygon fill="midnightblue" stroke="midnightblue" points="165.645,-57.5189 176.069,-55.6248 166.739,-50.6049 165.645,-57.5189"/>
</g>
<!-- Node3 -->
<g id="node3" class="node"><title>Node3</title>
<g id="a_node3"><a xlink:href="classorg_1_1libcppa_1_1warning.html#ab37f72c0bd01c8dc4d419818c83a7e1d" target="_top" xlink:title="org::libcppa::warning\l::unknown_fields">
<polygon fill="none" stroke="black" points="176.5,-0 176.5,-30 283.5,-30 283.5,-0 176.5,-0"/>
<text text-anchor="start" x="184.5" y="-18" font-family="Helvetica,sans-Serif" font-size="10.00">org::libcppa::warning</text>
<text text-anchor="middle" x="230" y="-7" font-family="Helvetica,sans-Serif" font-size="10.00">::unknown_fields</text>
</a>
</g>
</g>
<!-- Node1&#45;&gt;Node3 -->
<g id="edge2" class="edge"><title>Node1&#45;&gt;Node3</title>
<path fill="none" stroke="midnightblue" d="M139.841,-28.5431C148.568,-27.2175 157.463,-25.8664 166.09,-24.5559"/>
<polygon fill="midnightblue" stroke="midnightblue" points="166.708,-28.0023 176.069,-23.0401 165.657,-21.0817 166.708,-28.0023"/>
</g>
</g>
</svg>
