<?xml version="1.0" encoding="UTF-8" standalone="no"?>
<!DOCTYPE svg PUBLIC "-//W3C//DTD SVG 1.1//EN"
 "http://www.w3.org/Graphics/SVG/1.1/DTD/svg11.dtd">
<!-- Generated by graphviz version 2.36.0 (20140111.2315)
 -->
<!-- Title: pb::SensorNearData::MFC::CameraImage::has_image_width Pages: 1 -->
<svg width="330pt" height="326pt"
 viewBox="0.00 0.00 330.00 326.00" xmlns="http://www.w3.org/2000/svg" xmlns:xlink="http://www.w3.org/1999/xlink">
<g id="graph0" class="graph" transform="scale(1 1) rotate(0) translate(4 322)">
<title>pb::SensorNearData::MFC::CameraImage::has_image_width</title>
<!-- Node1 -->
<g id="node1" class="node"><title>Node1</title>
<polygon fill="#bfbfbf" stroke="black" points="0,-149.5 0,-190.5 118,-190.5 118,-149.5 0,-149.5"/>
<text text-anchor="start" x="8" y="-178.5" font-family="Helvetica,sans-Serif" font-size="10.00">pb::SensorNearData</text>
<text text-anchor="start" x="8" y="-167.5" font-family="Helvetica,sans-Serif" font-size="10.00">::MFC::CameraImage::</text>
<text text-anchor="middle" x="59" y="-156.5" font-family="Helvetica,sans-Serif" font-size="10.00">has_image_width</text>
</g>
<!-- Node2 -->
<g id="node2" class="node"><title>Node2</title>
<g id="a_node2"><a xlink:href="classProtobufImageWrapper.html#ae7270354de890a158891e56da64a6e1a" target="_top" xlink:title="ProtobufImageWrapper\l::HasImageWidth">
<polygon fill="none" stroke="black" points="179.5,-288 179.5,-318 296.5,-318 296.5,-288 179.5,-288"/>
<text text-anchor="start" x="187.5" y="-306" font-family="Helvetica,sans-Serif" font-size="10.00">ProtobufImageWrapper</text>
<text text-anchor="middle" x="238" y="-295" font-family="Helvetica,sans-Serif" font-size="10.00">::HasImageWidth</text>
</a>
</g>
</g>
<!-- Node1&#45;&gt;Node2 -->
<g id="edge1" class="edge"><title>Node1&#45;&gt;Node2</title>
<path fill="none" stroke="midnightblue" d="M78.4208,-199.126C95.2879,-223.535 122.387,-257.577 154,-278 161.711,-282.981 170.46,-287.008 179.314,-290.253"/>
<polygon fill="midnightblue" stroke="midnightblue" points="81.1728,-196.947 72.6802,-190.612 75.369,-200.86 81.1728,-196.947"/>
</g>
<!-- Node3 -->
<g id="node3" class="node"><title>Node3</title>
<g id="a_node3"><a xlink:href="classProtobufImageWrapper.html#a5cde53aa18618ec33566c83f6835180c" target="_top" xlink:title="ProtobufImageWrapper\l::HasImageHeight">
<polygon fill="none" stroke="black" points="179.5,-239 179.5,-269 296.5,-269 296.5,-239 179.5,-239"/>
<text text-anchor="start" x="187.5" y="-257" font-family="Helvetica,sans-Serif" font-size="10.00">ProtobufImageWrapper</text>
<text text-anchor="middle" x="238" y="-246" font-family="Helvetica,sans-Serif" font-size="10.00">::HasImageHeight</text>
</a>
</g>
</g>
<!-- Node1&#45;&gt;Node3 -->
<g id="edge2" class="edge"><title>Node1&#45;&gt;Node3</title>
<path fill="none" stroke="midnightblue" d="M96.9354,-196.407C113.757,-207.573 134.282,-220.04 154,-229 162.084,-232.673 170.85,-235.982 179.554,-238.898"/>
<polygon fill="midnightblue" stroke="midnightblue" points="98.7464,-193.406 88.5,-190.711 94.8294,-199.208 98.7464,-193.406"/>
</g>
<!-- Node4 -->
<g id="node4" class="node"><title>Node4</title>
<g id="a_node4"><a xlink:href="classpb_1_1SensorNearData_1_1MFC_1_1CameraImage.html#a68f2cde68b12b74681079603151d932a" target="_top" xlink:title="pb::SensorNearData\l::MFC::CameraImage::\lSerializeWithCachedSizes">
<polygon fill="none" stroke="black" points="171.5,-179.5 171.5,-220.5 304.5,-220.5 304.5,-179.5 171.5,-179.5"/>
<text text-anchor="start" x="179.5" y="-208.5" font-family="Helvetica,sans-Serif" font-size="10.00">pb::SensorNearData</text>
<text text-anchor="start" x="179.5" y="-197.5" font-family="Helvetica,sans-Serif" font-size="10.00">::MFC::CameraImage::</text>
<text text-anchor="middle" x="238" y="-186.5" font-family="Helvetica,sans-Serif" font-size="10.00">SerializeWithCachedSizes</text>
</a>
</g>
</g>
<!-- Node1&#45;&gt;Node4 -->
<g id="edge3" class="edge"><title>Node1&#45;&gt;Node4</title>
<path fill="none" stroke="midnightblue" d="M128.528,-181.615C142.574,-183.996 157.328,-186.496 171.273,-188.86"/>
<polygon fill="midnightblue" stroke="midnightblue" points="128.891,-178.127 118.447,-179.906 127.721,-185.028 128.891,-178.127"/>
</g>
<!-- Node5 -->
<g id="node5" class="node"><title>Node5</title>
<g id="a_node5"><a xlink:href="classpb_1_1SensorNearData_1_1MFC_1_1CameraImage.html#a17e6ca2c29a49d34f990b3660db648b0" target="_top" xlink:title="pb::SensorNearData\l::MFC::CameraImage::\lSerializeWithCachedSizesToArray">
<polygon fill="none" stroke="black" points="154.5,-119.5 154.5,-160.5 321.5,-160.5 321.5,-119.5 154.5,-119.5"/>
<text text-anchor="start" x="162.5" y="-148.5" font-family="Helvetica,sans-Serif" font-size="10.00">pb::SensorNearData</text>
<text text-anchor="start" x="162.5" y="-137.5" font-family="Helvetica,sans-Serif" font-size="10.00">::MFC::CameraImage::</text>
<text text-anchor="middle" x="238" y="-126.5" font-family="Helvetica,sans-Serif" font-size="10.00">SerializeWithCachedSizesToArray</text>
</a>
</g>
</g>
<!-- Node1&#45;&gt;Node5 -->
<g id="edge4" class="edge"><title>Node1&#45;&gt;Node5</title>
<path fill="none" stroke="midnightblue" d="M128.572,-158.378C136.993,-156.95 145.669,-155.48 154.271,-154.022"/>
<polygon fill="midnightblue" stroke="midnightblue" points="127.721,-154.972 118.447,-160.094 128.891,-161.873 127.721,-154.972"/>
</g>
<!-- Node6 -->
<g id="node6" class="node"><title>Node6</title>
<g id="a_node6"><a xlink:href="classpb_1_1SensorNearData_1_1MFC_1_1CameraImage.html#a0e5f591b6faf941ca8056f413e4603f9" target="_top" xlink:title="pb::SensorNearData\l::MFC::CameraImage::\lByteSize">
<polygon fill="none" stroke="black" points="179,-59.5 179,-100.5 297,-100.5 297,-59.5 179,-59.5"/>
<text text-anchor="start" x="187" y="-88.5" font-family="Helvetica,sans-Serif" font-size="10.00">pb::SensorNearData</text>
<text text-anchor="start" x="187" y="-77.5" font-family="Helvetica,sans-Serif" font-size="10.00">::MFC::CameraImage::</text>
<text text-anchor="middle" x="238" y="-66.5" font-family="Helvetica,sans-Serif" font-size="10.00">ByteSize</text>
</a>
</g>
</g>
<!-- Node1&#45;&gt;Node6 -->
<g id="edge5" class="edge"><title>Node1&#45;&gt;Node6</title>
<path fill="none" stroke="midnightblue" d="M97.1175,-143.617C113.974,-132.351 134.475,-119.612 154,-110 161.836,-106.143 170.297,-102.516 178.716,-99.2077"/>
<polygon fill="midnightblue" stroke="midnightblue" points="94.9733,-140.843 88.6595,-149.351 98.9009,-146.637 94.9733,-140.843"/>
</g>
<!-- Node7 -->
<g id="node7" class="node"><title>Node7</title>
<g id="a_node7"><a xlink:href="classpb_1_1SensorNearData_1_1MFC_1_1CameraImage.html#ae45cc783bc05ce863660a29a98b65e6e" target="_top" xlink:title="pb::SensorNearData\l::MFC::CameraImage::\lMergeFrom">
<polygon fill="none" stroke="black" points="179,0.5 179,-40.5 297,-40.5 297,0.5 179,0.5"/>
<text text-anchor="start" x="187" y="-28.5" font-family="Helvetica,sans-Serif" font-size="10.00">pb::SensorNearData</text>
<text text-anchor="start" x="187" y="-17.5" font-family="Helvetica,sans-Serif" font-size="10.00">::MFC::CameraImage::</text>
<text text-anchor="middle" x="238" y="-6.5" font-family="Helvetica,sans-Serif" font-size="10.00">MergeFrom</text>
</a>
</g>
</g>
<!-- Node1&#45;&gt;Node7 -->
<g id="edge6" class="edge"><title>Node1&#45;&gt;Node7</title>
<path fill="none" stroke="midnightblue" d="M76.4119,-140.625C92.8517,-113.638 120.488,-74.2586 154,-50 161.447,-44.6094 169.962,-40.0976 178.637,-36.349"/>
<polygon fill="midnightblue" stroke="midnightblue" points="73.3784,-138.879 71.2736,-149.262 79.3943,-142.457 73.3784,-138.879"/>
</g>
</g>
</svg>
