<?xml version="1.0" encoding="UTF-8" standalone="no"?>
<!DOCTYPE svg PUBLIC "-//W3C//DTD SVG 1.1//EN"
 "http://www.w3.org/Graphics/SVG/1.1/DTD/svg11.dtd">
<!-- Generated by graphviz version 2.36.0 (20140111.2315)
 -->
<!-- Title: Image::GetRGBImage Pages: 1 -->
<svg width="286pt" height="104pt"
 viewBox="0.00 0.00 286.00 104.00" xmlns="http://www.w3.org/2000/svg" xmlns:xlink="http://www.w3.org/1999/xlink">
<g id="graph0" class="graph" transform="scale(1 1) rotate(0) translate(4 100)">
<title>Image::GetRGBImage</title>
<!-- Node1 -->
<g id="node1" class="node"><title>Node1</title>
<polygon fill="#bfbfbf" stroke="black" points="0,-38.5 0,-57.5 114,-57.5 114,-38.5 0,-38.5"/>
<text text-anchor="middle" x="57" y="-45.5" font-family="Helvetica,sans-Serif" font-size="10.00">Image::GetRGBImage</text>
</g>
<!-- Node2 -->
<g id="node2" class="node"><title>Node2</title>
<g id="a_node2"><a xlink:href="classImage.html#adc25a467233718f37ae881cdebffa5c2" target="_top" xlink:title="Image::GetImageWidth">
<polygon fill="none" stroke="black" points="155,-76.5 155,-95.5 273,-95.5 273,-76.5 155,-76.5"/>
<text text-anchor="middle" x="214" y="-83.5" font-family="Helvetica,sans-Serif" font-size="10.00">Image::GetImageWidth</text>
</a>
</g>
</g>
<!-- Node1&#45;&gt;Node2 -->
<g id="edge1" class="edge"><title>Node1&#45;&gt;Node2</title>
<path fill="none" stroke="midnightblue" d="M97.113,-57.589C117.475,-62.5809 142.566,-68.7324 164.189,-74.0334"/>
<polygon fill="midnightblue" stroke="midnightblue" points="163.622,-77.4981 174.168,-76.4799 165.289,-70.6994 163.622,-77.4981"/>
</g>
<!-- Node3 -->
<g id="node3" class="node"><title>Node3</title>
<g id="a_node3"><a xlink:href="classImage.html#a141671a32d6e069211abd2211f0d8849" target="_top" xlink:title="Image::GetImageHeight">
<polygon fill="none" stroke="black" points="153.5,-38.5 153.5,-57.5 274.5,-57.5 274.5,-38.5 153.5,-38.5"/>
<text text-anchor="middle" x="214" y="-45.5" font-family="Helvetica,sans-Serif" font-size="10.00">Image::GetImageHeight</text>
</a>
</g>
</g>
<!-- Node1&#45;&gt;Node3 -->
<g id="edge2" class="edge"><title>Node1&#45;&gt;Node3</title>
<path fill="none" stroke="midnightblue" d="M114.397,-48C123.678,-48 133.396,-48 142.96,-48"/>
<polygon fill="midnightblue" stroke="midnightblue" points="143.251,-51.5001 153.251,-48 143.251,-44.5001 143.251,-51.5001"/>
</g>
<!-- Node4 -->
<g id="node4" class="node"><title>Node4</title>
<g id="a_node4"><a xlink:href="classImage.html#ad3f43e3ace90b4893eed677deb6a2631" target="_top" xlink:title="Image::GetImagePayload">
<polygon fill="none" stroke="black" points="150,-0.5 150,-19.5 278,-19.5 278,-0.5 150,-0.5"/>
<text text-anchor="middle" x="214" y="-7.5" font-family="Helvetica,sans-Serif" font-size="10.00">Image::GetImagePayload</text>
</a>
</g>
</g>
<!-- Node1&#45;&gt;Node4 -->
<g id="edge3" class="edge"><title>Node1&#45;&gt;Node4</title>
<path fill="none" stroke="midnightblue" d="M97.113,-38.411C117.475,-33.4191 142.566,-27.2676 164.189,-21.9666"/>
<polygon fill="midnightblue" stroke="midnightblue" points="165.289,-25.3006 174.168,-19.5201 163.622,-18.5019 165.289,-25.3006"/>
</g>
</g>
</svg>
