<?xml version="1.0" encoding="UTF-8" standalone="no"?>
<!DOCTYPE svg PUBLIC "-//W3C//DTD SVG 1.1//EN"
 "http://www.w3.org/Graphics/SVG/1.1/DTD/svg11.dtd">
<!-- Generated by graphviz version 2.36.0 (20140111.2315)
 -->
<!-- Title: pb::Header::InitAsDefaultInstance Pages: 1 -->
<!--zoomable 191 -->
<svg id="main" version="1.1" xmlns="http://www.w3.org/2000/svg" xmlns:xlink="http://www.w3.org/1999/xlink" xml:space="preserve" onload="init(evt)">
<style type="text/css"><![CDATA[
.edge:hover path { stroke: red; }
.edge:hover polygon { stroke: red; fill: red; }
]]></style>
<script type="text/javascript"><![CDATA[
var edges = document.getElementsByTagName('g');
if (edges && edges.length) {
  for (var i=0;i<edges.length;i++) {
    if (edges[i].id.substr(0,4)=='edge') {
      edges[i].setAttribute('class','edge');
    }
  }
}
]]></script>
        <defs>
                <circle id="rim" cx="0" cy="0" r="7"/>
                <circle id="rim2" cx="0" cy="0" r="3.5"/>
                <g id="zoomPlus">
                        <use xlink:href="#rim" fill="#404040">
                                <set attributeName="fill" to="#808080" begin="zoomplus.mouseover" end="zoomplus.mouseout"/>
                        </use>
                        <path d="M-4,0h8M0,-4v8" fill="none" stroke="white" stroke-width="1.5" pointer-events="none"/>
                </g>
                <g id="zoomMin">
                        <use xlink:href="#rim" fill="#404040">
                                <set attributeName="fill" to="#808080" begin="zoomminus.mouseover" end="zoomminus.mouseout"/>
                        </use>
                        <path d="M-4,0h8" fill="none" stroke="white" stroke-width="1.5" pointer-events="none"/>
                </g>
                <g id="dirArrow">
                        <path fill="none" stroke="white" stroke-width="1.5" d="M0,-3.0v7 M-2.5,-0.5L0,-3.0L2.5,-0.5"/>
                </g>
               <g id="resetDef">
                       <use xlink:href="#rim2" fill="#404040">
                               <set attributeName="fill" to="#808080" begin="reset.mouseover" end="reset.mouseout"/>
                       </use>
               </g>
        </defs>

<script type="text/javascript">
var viewWidth = 760;
var viewHeight = 191;
var sectionId = 'dynsection-16';
</script>
<script xlink:href="svgpan.js"/>
<svg id="graph" class="graph">
<g id="viewport">
<title>pb::Header::InitAsDefaultInstance</title>
<!-- Node1 -->
<g id="node1" class="node"><title>Node1</title>
<polygon fill="#bfbfbf" stroke="black" points="0,-60 0,-90 128,-90 128,-60 0,-60"/>
<text text-anchor="start" x="8" y="-78" font-family="Helvetica,sans-Serif" font-size="10.00">pb::Header::InitAsDefault</text>
<text text-anchor="middle" x="64" y="-67" font-family="Helvetica,sans-Serif" font-size="10.00">Instance</text>
</g>
<!-- Node2 -->
<g id="node2" class="node"><title>Node2</title>
<g id="a_node2"><a xlink:href="namespacepb.html#a398fcfaaf2f8651db5d294e2c0fd432c" target="_top" xlink:title="pb::protobuf_AddDesc\l_header_2eproto">
<polygon fill="none" stroke="black" points="164,-60 164,-90 278,-90 278,-60 164,-60"/>
<text text-anchor="start" x="172" y="-78" font-family="Helvetica,sans-Serif" font-size="10.00">pb::protobuf_AddDesc</text>
<text text-anchor="middle" x="221" y="-67" font-family="Helvetica,sans-Serif" font-size="10.00">_header_2eproto</text>
</a>
</g>
</g>
<!-- Node1&#45;&gt;Node2 -->
<g id="edge1" class="edge"><title>Node1&#45;&gt;Node2</title>
<path fill="none" stroke="midnightblue" d="M138.172,-75C146.85,-75 155.601,-75 163.987,-75"/>
<polygon fill="midnightblue" stroke="midnightblue" points="138.044,-71.5001 128.044,-75 138.044,-78.5001 138.044,-71.5001"/>
</g>
<!-- Node3 -->
<g id="node3" class="node"><title>Node3</title>
<g id="a_node3"><a xlink:href="namespacepb_1_1SensorNearData_1_1MFC.html#a57fa0c67da79e52e28b518b9561517b6" target="_top" xlink:title="pb::SensorNearData\l::MFC::protobuf_AddDesc\l_CameraImage_2eproto">
<polygon fill="none" stroke="black" points="350.5,-108.5 350.5,-149.5 481.5,-149.5 481.5,-108.5 350.5,-108.5"/>
<text text-anchor="start" x="358.5" y="-137.5" font-family="Helvetica,sans-Serif" font-size="10.00">pb::SensorNearData</text>
<text text-anchor="start" x="358.5" y="-126.5" font-family="Helvetica,sans-Serif" font-size="10.00">::MFC::protobuf_AddDesc</text>
<text text-anchor="middle" x="416" y="-115.5" font-family="Helvetica,sans-Serif" font-size="10.00">_CameraImage_2eproto</text>
</a>
</g>
</g>
<!-- Node2&#45;&gt;Node3 -->
<g id="edge2" class="edge"><title>Node2&#45;&gt;Node3</title>
<path fill="none" stroke="midnightblue" d="M285.442,-92.7507C306.225,-98.5656 329.335,-105.032 350.216,-110.874"/>
<polygon fill="midnightblue" stroke="midnightblue" points="286.335,-89.366 275.761,-90.042 284.448,-96.1071 286.335,-89.366"/>
</g>
<!-- Node6 -->
<g id="node6" class="node"><title>Node6</title>
<g id="a_node6"><a xlink:href="namespacepb.html#adfcaf8b661a12987f94afb55301eb291" target="_top" xlink:title="pb::protobuf_AssignDesc\l_header_2eproto">
<polygon fill="none" stroke="black" points="352.5,-60 352.5,-90 479.5,-90 479.5,-60 352.5,-60"/>
<text text-anchor="start" x="360.5" y="-78" font-family="Helvetica,sans-Serif" font-size="10.00">pb::protobuf_AssignDesc</text>
<text text-anchor="middle" x="416" y="-67" font-family="Helvetica,sans-Serif" font-size="10.00">_header_2eproto</text>
</a>
</g>
</g>
<!-- Node2&#45;&gt;Node6 -->
<g id="edge5" class="edge"><title>Node2&#45;&gt;Node6</title>
<path fill="none" stroke="midnightblue" d="M288.103,-75C308.899,-75 331.791,-75 352.34,-75"/>
<polygon fill="midnightblue" stroke="midnightblue" points="288.083,-71.5001 278.083,-75 288.083,-78.5001 288.083,-71.5001"/>
</g>
<!-- Node7 -->
<g id="node7" class="node"><title>Node7</title>
<g id="a_node7"><a xlink:href="structpb_1_1StaticDescriptorInitializer__header__2eproto.html#a776f6cdf74b67bbcfec316d201938cfd" target="_top" xlink:title="pb::StaticDescriptorInitializer\l_header_2eproto::StaticDescriptorInitializer\l_header_2eproto">
<polygon fill="none" stroke="black" points="314,-0.5 314,-41.5 518,-41.5 518,-0.5 314,-0.5"/>
<text text-anchor="start" x="322" y="-29.5" font-family="Helvetica,sans-Serif" font-size="10.00">pb::StaticDescriptorInitializer</text>
<text text-anchor="start" x="322" y="-18.5" font-family="Helvetica,sans-Serif" font-size="10.00">_header_2eproto::StaticDescriptorInitializer</text>
<text text-anchor="middle" x="416" y="-7.5" font-family="Helvetica,sans-Serif" font-size="10.00">_header_2eproto</text>
</a>
</g>
</g>
<!-- Node2&#45;&gt;Node7 -->
<g id="edge6" class="edge"><title>Node2&#45;&gt;Node7</title>
<path fill="none" stroke="midnightblue" d="M285.545,-57.2207C303.509,-52.1944 323.205,-46.6837 341.693,-41.5107"/>
<polygon fill="midnightblue" stroke="midnightblue" points="284.448,-53.8929 275.761,-59.958 286.335,-60.634 284.448,-53.8929"/>
</g>
<!-- Node4 -->
<g id="node4" class="node"><title>Node4</title>
<g id="a_node4"><a xlink:href="namespacepb_1_1SensorNearData_1_1MFC.html#ae925b28b351037f0ba789dd765a846d4" target="_top" xlink:title="pb::SensorNearData\l::MFC::protobuf_AssignDesc\l_CameraImage_2eproto">
<polygon fill="none" stroke="black" points="581,-141.5 581,-182.5 725,-182.5 725,-141.5 581,-141.5"/>
<text text-anchor="start" x="589" y="-170.5" font-family="Helvetica,sans-Serif" font-size="10.00">pb::SensorNearData</text>
<text text-anchor="start" x="589" y="-159.5" font-family="Helvetica,sans-Serif" font-size="10.00">::MFC::protobuf_AssignDesc</text>
<text text-anchor="middle" x="653" y="-148.5" font-family="Helvetica,sans-Serif" font-size="10.00">_CameraImage_2eproto</text>
</a>
</g>
</g>
<!-- Node3&#45;&gt;Node4 -->
<g id="edge3" class="edge"><title>Node3&#45;&gt;Node4</title>
<path fill="none" stroke="midnightblue" d="M491.432,-139.452C519.941,-143.456 552.375,-148.01 580.594,-151.973"/>
<polygon fill="midnightblue" stroke="midnightblue" points="491.915,-135.986 481.526,-138.061 490.942,-142.918 491.915,-135.986"/>
</g>
<!-- Node5 -->
<g id="node5" class="node"><title>Node5</title>
<g id="a_node5"><a xlink:href="structpb_1_1SensorNearData_1_1MFC_1_1StaticDescriptorInitializer__CameraImage__2eproto.html#a238f1b392446f07c4b6294dc4a957a15" target="_top" xlink:title="pb::SensorNearData\l::MFC::StaticDescriptorInitializer\l_CameraImage_2eproto::StaticDescriptor\lInitializer_CameraImage_2eproto">
<polygon fill="none" stroke="black" points="554.5,-70 554.5,-122 751.5,-122 751.5,-70 554.5,-70"/>
<text text-anchor="start" x="562.5" y="-110" font-family="Helvetica,sans-Serif" font-size="10.00">pb::SensorNearData</text>
<text text-anchor="start" x="562.5" y="-99" font-family="Helvetica,sans-Serif" font-size="10.00">::MFC::StaticDescriptorInitializer</text>
<text text-anchor="start" x="562.5" y="-88" font-family="Helvetica,sans-Serif" font-size="10.00">_CameraImage_2eproto::StaticDescriptor</text>
<text text-anchor="middle" x="653" y="-77" font-family="Helvetica,sans-Serif" font-size="10.00">Initializer_CameraImage_2eproto</text>
</a>
</g>
</g>
<!-- Node3&#45;&gt;Node5 -->
<g id="edge4" class="edge"><title>Node3&#45;&gt;Node5</title>
<path fill="none" stroke="midnightblue" d="M491.437,-118.547C511.342,-115.752 533.161,-112.688 554.122,-109.745"/>
<polygon fill="midnightblue" stroke="midnightblue" points="490.942,-115.082 481.526,-119.939 491.915,-122.014 490.942,-115.082"/>
</g>
</g>
</svg>
        <g id="navigator" transform="translate(0 0)" fill="#404254">
                <rect fill="#f2f5e9" fill-opacity="0.5" stroke="#606060" stroke-width=".5" x="0" y="0" width="60" height="60"/>
                <use id="zoomplus" xlink:href="#zoomPlus" x="17" y="9" onmousedown="handleZoom(evt,'in')"/>
                <use id="zoomminus" xlink:href="#zoomMin" x="42" y="9" onmousedown="handleZoom(evt,'out')"/>
                <use id="reset" xlink:href="#resetDef" x="30" y="36" onmousedown="handleReset()"/>
                <g id="arrowUp" xlink:href="#dirArrow" transform="translate(30 24)" onmousedown="handlePan(0,-1)">
                  <use xlink:href="#rim" fill="#404040">
                        <set attributeName="fill" to="#808080" begin="arrowUp.mouseover" end="arrowUp.mouseout"/>
                  </use>
                  <path fill="none" stroke="white" stroke-width="1.5" d="M0,-3.0v7 M-2.5,-0.5L0,-3.0L2.5,-0.5"/>
                </g>
                <g id="arrowRight" xlink:href="#dirArrow" transform="rotate(90) translate(36 -43)" onmousedown="handlePan(1,0)">
                  <use xlink:href="#rim" fill="#404040">
                        <set attributeName="fill" to="#808080" begin="arrowRight.mouseover" end="arrowRight.mouseout"/>
                  </use>
                  <path fill="none" stroke="white" stroke-width="1.5" d="M0,-3.0v7 M-2.5,-0.5L0,-3.0L2.5,-0.5"/>
                </g>
                <g id="arrowDown" xlink:href="#dirArrow" transform="rotate(180) translate(-30 -48)" onmousedown="handlePan(0,1)">
                  <use xlink:href="#rim" fill="#404040">
                        <set attributeName="fill" to="#808080" begin="arrowDown.mouseover" end="arrowDown.mouseout"/>
                  </use>
                  <path fill="none" stroke="white" stroke-width="1.5" d="M0,-3.0v7 M-2.5,-0.5L0,-3.0L2.5,-0.5"/>
                </g>
                <g id="arrowLeft" xlink:href="#dirArrow" transform="rotate(270) translate(-36 17)" onmousedown="handlePan(-1,0)">
                  <use xlink:href="#rim" fill="#404040">
                        <set attributeName="fill" to="#808080" begin="arrowLeft.mouseover" end="arrowLeft.mouseout"/>
                  </use>
                  <path fill="none" stroke="white" stroke-width="1.5" d="M0,-3.0v7 M-2.5,-0.5L0,-3.0L2.5,-0.5"/>
                </g>
        </g>
        <svg viewBox="0 0 15 15" width="100%" height="30px" preserveAspectRatio="xMaxYMin meet">
         <g id="arrow_out" transform="scale(0.3 0.3)">
          <a xlink:href="classpb_1_1Header_ac80bb9f4597d3e8a0135042092e20964_icgraph_org.svg" target="_base">
           <rect id="button" ry="5" rx="5" y="6" x="6" height="38" width="38"
                fill="#f2f5e9" fill-opacity="0.5" stroke="#606060" stroke-width="1.0"/>
           <path id="arrow"
             d="M 11.500037,31.436501 C 11.940474,20.09759 22.043105,11.32322 32.158766,21.979434 L 37.068811,17.246167 C 37.068811,17.246167 37.088388,32 37.088388,32 L 22.160133,31.978069 C 22.160133,31.978069 26.997745,27.140456 26.997745,27.140456 C 18.528582,18.264221 13.291696,25.230495 11.500037,31.436501 z"
             style="fill:#404040;"/>
          </a>
         </g>
        </svg>
</svg>
