<?xml version="1.0" encoding="UTF-8" standalone="no"?>
<!DOCTYPE svg PUBLIC "-//W3C//DTD SVG 1.1//EN"
 "http://www.w3.org/Graphics/SVG/1.1/DTD/svg11.dtd">
<!-- Generated by graphviz version 2.36.0 (20140111.2315)
 -->
<!-- Title: C Pages: 1 -->
<svg width="140pt" height="164pt"
 viewBox="0.00 0.00 140.32 164.00" xmlns="http://www.w3.org/2000/svg" xmlns:xlink="http://www.w3.org/1999/xlink">
<g id="graph0" class="graph" transform="scale(1 1) rotate(0) translate(4 160)">
<title>C</title>
<!-- Node1 -->
<g id="node1" class="node"><title>Node1</title>
<polygon fill="#bfbfbf" stroke="black" points="9.82304,-68.5 9.82304,-87.5 38.823,-87.5 38.823,-68.5 9.82304,-68.5"/>
<text text-anchor="middle" x="24.323" y="-75.5" font-family="Helvetica,sans-Serif" font-size="10.00">C</text>
</g>
<!-- Node3 -->
<g id="node3" class="node"><title>Node3</title>
<g id="a_node3"><a xlink:href="classD.html" target="_top" xlink:title="D">
<polygon fill="none" stroke="black" points="33.823,-0.5 33.823,-19.5 62.823,-19.5 62.823,-0.5 33.823,-0.5"/>
<text text-anchor="middle" x="48.323" y="-7.5" font-family="Helvetica,sans-Serif" font-size="10.00">D</text>
</a>
</g>
</g>
<!-- Node1&#45;&gt;Node3 -->
<g id="edge7" class="edge"><title>Node1&#45;&gt;Node3</title>
<path fill="none" stroke="#9a32cd" stroke-dasharray="5,2" d="M6.97219,-60.7858C1.58201,-53.7681 -1.95253,-45.4672 2.32304,-38 8.94889,-26.428 22.6753,-19.3316 33.4178,-15.3371"/>
<polygon fill="#9a32cd" stroke="#9a32cd" points="4.48432,-63.2525 13.7954,-68.3076 9.66899,-58.5494 4.48432,-63.2525"/>
<text text-anchor="middle" x="13.323" y="-41.5" font-family="Helvetica,sans-Serif" font-size="10.00"> m_c</text>
</g>
<!-- Node2 -->
<g id="node2" class="node"><title>Node2</title>
<g id="a_node2"><a xlink:href="classA.html" target="_top" xlink:title="A">
<polygon fill="none" stroke="black" points="52.823,-136.5 52.823,-155.5 81.823,-155.5 81.823,-136.5 52.823,-136.5"/>
<text text-anchor="middle" x="67.323" y="-143.5" font-family="Helvetica,sans-Serif" font-size="10.00">A</text>
</a>
</g>
</g>
<!-- Node2&#45;&gt;Node1 -->
<g id="edge1" class="edge"><title>Node2&#45;&gt;Node1</title>
<path fill="none" stroke="midnightblue" d="M56.2067,-127.938C47.8505,-115.112 36.7403,-98.0591 30.0832,-87.8411"/>
<polygon fill="midnightblue" stroke="midnightblue" points="53.3102,-129.904 61.7015,-136.372 59.1752,-126.082 53.3102,-129.904"/>
</g>
<!-- Node2&#45;&gt;Node2 -->
<g id="edge2" class="edge"><title>Node2&#45;&gt;Node2</title>
<path fill="none" stroke="#9a32cd" stroke-dasharray="5,2" d="M92.1449,-151.951C96.3852,-151.138 99.323,-149.154 99.323,-146 99.323,-140.688 90.9897,-138.695 82.1355,-140.023"/>
<polygon fill="#9a32cd" stroke="#9a32cd" points="92.1266,-148.451 82.1355,-151.977 92.1444,-155.451 92.1266,-148.451"/>
<text text-anchor="middle" x="115.823" y="-143.5" font-family="Helvetica,sans-Serif" font-size="10.00"> m_self</text>
</g>
<!-- Node2&#45;&gt;Node3 -->
<g id="edge4" class="edge"><title>Node2&#45;&gt;Node3</title>
<path fill="none" stroke="darkgreen" d="M65.1921,-126.396C62.6731,-105.017 58.2024,-68.9019 53.323,-38 52.3713,-31.9727 51.1213,-25.2227 50.1093,-19.9795"/>
<polygon fill="darkgreen" stroke="darkgreen" points="61.7212,-126.85 66.3522,-136.379 68.6744,-126.041 61.7212,-126.85"/>
</g>
<!-- Node4 -->
<g id="node4" class="node"><title>Node4</title>
<g id="a_node4"><a xlink:href="classB.html" target="_top" xlink:title="B">
<polygon fill="none" stroke="black" points="95.823,-68.5 95.823,-87.5 124.823,-87.5 124.823,-68.5 95.823,-68.5"/>
<text text-anchor="middle" x="110.323" y="-75.5" font-family="Helvetica,sans-Serif" font-size="10.00">B</text>
</a>
</g>
</g>
<!-- Node2&#45;&gt;Node4 -->
<g id="edge6" class="edge"><title>Node2&#45;&gt;Node4</title>
<path fill="none" stroke="#9a32cd" stroke-dasharray="5,2" d="M78.4394,-127.938C86.7956,-115.112 97.9057,-98.0591 104.563,-87.8411"/>
<polygon fill="#9a32cd" stroke="#9a32cd" points="75.4709,-126.082 72.9445,-136.372 81.3359,-129.904 75.4709,-126.082"/>
<text text-anchor="middle" x="104.323" y="-109.5" font-family="Helvetica,sans-Serif" font-size="10.00"> m_a</text>
</g>
<!-- Node3&#45;&gt;Node1 -->
<g id="edge3" class="edge"><title>Node3&#45;&gt;Node1</title>
<path fill="none" stroke="#9a32cd" stroke-dasharray="5,2" d="M36.1413,-28.2032C34.3073,-31.3542 32.6042,-34.6945 31.323,-38 27.4449,-48.006 25.6938,-60.2994 24.9176,-68.3768"/>
<polygon fill="#9a32cd" stroke="#9a32cd" points="39.2515,-29.839 41.7448,-19.5417 33.3742,-26.0367 39.2515,-29.839"/>
<text text-anchor="middle" x="42.323" y="-41.5" font-family="Helvetica,sans-Serif" font-size="10.00"> m_d</text>
</g>
<!-- Node4&#45;&gt;Node3 -->
<g id="edge5" class="edge"><title>Node4&#45;&gt;Node3</title>
<path fill="none" stroke="#8b1a1a" d="M99.1887,-60.176C94.1121,-53.02 87.7958,-44.7799 81.323,-38 74.8824,-31.2537 66.7876,-24.6076 60.2271,-19.5973"/>
<polygon fill="#8b1a1a" stroke="#8b1a1a" points="96.3331,-62.2006 104.875,-68.4692 102.106,-58.2423 96.3331,-62.2006"/>
</g>
</g>
</svg>
