<?xml version="1.0" encoding="UTF-8" standalone="no"?>
<!DOCTYPE svg PUBLIC "-//W3C//DTD SVG 1.1//EN"
 "http://www.w3.org/Graphics/SVG/1.1/DTD/svg11.dtd">
<!-- Generated by graphviz version 2.36.0 (20140111.2315)
 -->
<!-- Title: pb::SensorNearData::MFC::CameraImage::CameraImage Pages: 1 -->
<svg width="280pt" height="109pt"
 viewBox="0.00 0.00 280.00 109.00" xmlns="http://www.w3.org/2000/svg" xmlns:xlink="http://www.w3.org/1999/xlink">
<g id="graph0" class="graph" transform="scale(1 1) rotate(0) translate(4 105)">
<title>pb::SensorNearData::MFC::CameraImage::CameraImage</title>
<!-- Node1 -->
<g id="node1" class="node"><title>Node1</title>
<polygon fill="#bfbfbf" stroke="black" points="0,-29.5 0,-70.5 118,-70.5 118,-29.5 0,-29.5"/>
<text text-anchor="start" x="8" y="-58.5" font-family="Helvetica,sans-Serif" font-size="10.00">pb::SensorNearData</text>
<text text-anchor="start" x="8" y="-47.5" font-family="Helvetica,sans-Serif" font-size="10.00">::MFC::CameraImage::</text>
<text text-anchor="middle" x="59" y="-36.5" font-family="Helvetica,sans-Serif" font-size="10.00">CameraImage</text>
</g>
<!-- Node2 -->
<g id="node2" class="node"><title>Node2</title>
<g id="a_node2"><a xlink:href="classpb_1_1SensorNearData_1_1MFC_1_1CameraImage.html#a48bf8651d33e0a3ff26cef31c5703610" target="_top" xlink:title="pb::SensorNearData\l::MFC::CameraImage::\lSharedCtor">
<polygon fill="none" stroke="black" points="154,-59.5 154,-100.5 272,-100.5 272,-59.5 154,-59.5"/>
<text text-anchor="start" x="162" y="-88.5" font-family="Helvetica,sans-Serif" font-size="10.00">pb::SensorNearData</text>
<text text-anchor="start" x="162" y="-77.5" font-family="Helvetica,sans-Serif" font-size="10.00">::MFC::CameraImage::</text>
<text text-anchor="middle" x="213" y="-66.5" font-family="Helvetica,sans-Serif" font-size="10.00">SharedCtor</text>
</a>
</g>
</g>
<!-- Node1&#45;&gt;Node2 -->
<g id="edge1" class="edge"><title>Node1&#45;&gt;Node2</title>
<path fill="none" stroke="midnightblue" d="M118.332,-61.513C126.697,-63.1638 135.363,-64.8743 143.895,-66.5583"/>
<polygon fill="midnightblue" stroke="midnightblue" points="143.335,-70.0152 153.824,-68.5178 144.691,-63.1477 143.335,-70.0152"/>
</g>
<!-- Node3 -->
<g id="node3" class="node"><title>Node3</title>
<g id="a_node3"><a xlink:href="classpb_1_1SensorNearData_1_1MFC_1_1CameraImage.html#aae8b9de1aa65e56d68941a34fb73f202" target="_top" xlink:title="pb::SensorNearData\l::MFC::CameraImage::\lMergeFrom">
<polygon fill="none" stroke="black" points="154,0.5 154,-40.5 272,-40.5 272,0.5 154,0.5"/>
<text text-anchor="start" x="162" y="-28.5" font-family="Helvetica,sans-Serif" font-size="10.00">pb::SensorNearData</text>
<text text-anchor="start" x="162" y="-17.5" font-family="Helvetica,sans-Serif" font-size="10.00">::MFC::CameraImage::</text>
<text text-anchor="middle" x="213" y="-6.5" font-family="Helvetica,sans-Serif" font-size="10.00">MergeFrom</text>
</a>
</g>
</g>
<!-- Node1&#45;&gt;Node3 -->
<g id="edge2" class="edge"><title>Node1&#45;&gt;Node3</title>
<path fill="none" stroke="midnightblue" d="M118.332,-38.487C126.697,-36.8362 135.363,-35.1257 143.895,-33.4417"/>
<polygon fill="midnightblue" stroke="midnightblue" points="144.691,-36.8523 153.824,-31.4822 143.335,-29.9848 144.691,-36.8523"/>
</g>
</g>
</svg>
