<?xml version="1.0" encoding="UTF-8" standalone="no"?>
<!DOCTYPE svg PUBLIC "-//W3C//DTD SVG 1.1//EN"
 "http://www.w3.org/Graphics/SVG/1.1/DTD/svg11.dtd">
<!-- Generated by graphviz version 2.36.0 (20140111.2315)
 -->
<!-- Title: main Pages: 1 -->
<svg width="736pt" height="429pt"
 viewBox="0.00 0.00 736.00 429.00" xmlns="http://www.w3.org/2000/svg" xmlns:xlink="http://www.w3.org/1999/xlink">
<g id="graph0" class="graph" transform="scale(1 1) rotate(0) translate(4 425)">
<title>main</title>
<!-- Node1 -->
<g id="node1" class="node"><title>Node1</title>
<polygon fill="#bfbfbf" stroke="black" points="0,-152.5 0,-171.5 38,-171.5 38,-152.5 0,-152.5"/>
<text text-anchor="middle" x="19" y="-159.5" font-family="Helvetica,sans-Serif" font-size="10.00">main</text>
</g>
<!-- Node2 -->
<g id="node2" class="node"><title>Node2</title>
<g id="a_node2"><a xlink:href="protobuf__broker_8cpp.html#ab3afbb104c5cd2d77878dca0def53691" target="_top" xlink:title="server">
<polygon fill="none" stroke="black" points="121,-215.5 121,-234.5 165,-234.5 165,-215.5 121,-215.5"/>
<text text-anchor="middle" x="143" y="-222.5" font-family="Helvetica,sans-Serif" font-size="10.00">server</text>
</a>
</g>
</g>
<!-- Node1&#45;&gt;Node2 -->
<g id="edge1" class="edge"><title>Node1&#45;&gt;Node2</title>
<path fill="none" stroke="midnightblue" d="M38.0015,-171.296C58.158,-181.705 91.0587,-198.694 114.454,-210.775"/>
<polygon fill="midnightblue" stroke="midnightblue" points="113.033,-213.981 123.525,-215.459 116.245,-207.761 113.033,-213.981"/>
</g>
<!-- Node16 -->
<g id="node16" class="node"><title>Node16</title>
<g id="a_node16"><a xlink:href="classcsCommunication_1_1Warning.html#a4f42b64d025008a9f137037ce0bc5e2b" target="_top" xlink:title="csCommunication::Warning\l::set_mess">
<polygon fill="none" stroke="black" points="74.5,-147 74.5,-177 211.5,-177 211.5,-147 74.5,-147"/>
<text text-anchor="start" x="82.5" y="-165" font-family="Helvetica,sans-Serif" font-size="10.00">csCommunication::Warning</text>
<text text-anchor="middle" x="143" y="-154" font-family="Helvetica,sans-Serif" font-size="10.00">::set_mess</text>
</a>
</g>
</g>
<!-- Node1&#45;&gt;Node16 -->
<g id="edge16" class="edge"><title>Node1&#45;&gt;Node16</title>
<path fill="none" stroke="midnightblue" d="M38.0015,-162C45.3806,-162 54.4676,-162 64.171,-162"/>
<polygon fill="midnightblue" stroke="midnightblue" points="64.4604,-165.5 74.4603,-162 64.4603,-158.5 64.4604,-165.5"/>
</g>
<!-- Node18 -->
<g id="node18" class="node"><title>Node18</title>
<g id="a_node18"><a xlink:href="classcsCommunication_1_1Warning.html#a5ed92e6e526c5217ded8bd90eb3652ec" target="_top" xlink:title="csCommunication::Warning\l::ByteSize">
<polygon fill="none" stroke="black" points="74.5,-74 74.5,-104 211.5,-104 211.5,-74 74.5,-74"/>
<text text-anchor="start" x="82.5" y="-92" font-family="Helvetica,sans-Serif" font-size="10.00">csCommunication::Warning</text>
<text text-anchor="middle" x="143" y="-81" font-family="Helvetica,sans-Serif" font-size="10.00">::ByteSize</text>
</a>
</g>
</g>
<!-- Node1&#45;&gt;Node18 -->
<g id="edge18" class="edge"><title>Node1&#45;&gt;Node18</title>
<path fill="none" stroke="midnightblue" d="M35.9494,-152.457C54.1619,-141.559 84.4801,-123.418 108.046,-109.317"/>
<polygon fill="midnightblue" stroke="midnightblue" points="109.924,-112.272 116.708,-104.134 106.329,-106.265 109.924,-112.272"/>
</g>
<!-- Node3 -->
<g id="node3" class="node"><title>Node3</title>
<g id="a_node3"><a xlink:href="protobuf__broker_8cpp.html#ae10b5d14d3ad78f811d25de1d8429746" target="_top" xlink:title="protobuf_io">
<polygon fill="none" stroke="black" points="284.5,-234.5 284.5,-253.5 349.5,-253.5 349.5,-234.5 284.5,-234.5"/>
<text text-anchor="middle" x="317" y="-241.5" font-family="Helvetica,sans-Serif" font-size="10.00">protobuf_io</text>
</a>
</g>
</g>
<!-- Node2&#45;&gt;Node3 -->
<g id="edge2" class="edge"><title>Node2&#45;&gt;Node3</title>
<path fill="none" stroke="midnightblue" d="M165.091,-227.33C192.081,-230.311 239.463,-235.545 273.95,-239.355"/>
<polygon fill="midnightblue" stroke="midnightblue" points="273.878,-242.868 284.202,-240.487 274.647,-235.911 273.878,-242.868"/>
</g>
<!-- Node8 -->
<g id="node8" class="node"><title>Node8</title>
<g id="a_node8"><a xlink:href="namespacepatch.html#a54d2400c78aef13e3748a87cd7c86ede" target="_top" xlink:title="patch::to_string">
<polygon fill="none" stroke="black" points="453,-401.5 453,-420.5 537,-420.5 537,-401.5 453,-401.5"/>
<text text-anchor="middle" x="495" y="-408.5" font-family="Helvetica,sans-Serif" font-size="10.00">patch::to_string</text>
</a>
</g>
</g>
<!-- Node2&#45;&gt;Node8 -->
<g id="edge15" class="edge"><title>Node2&#45;&gt;Node8</title>
<path fill="none" stroke="midnightblue" d="M157.191,-234.652C195.932,-262.595 313.484,-344.528 422,-391 428.723,-393.879 435.977,-396.46 443.201,-398.735"/>
<polygon fill="midnightblue" stroke="midnightblue" points="442.399,-402.148 452.982,-401.646 444.396,-395.439 442.399,-402.148"/>
</g>
<!-- Node15 -->
<g id="node15" class="node"><title>Node15</title>
<g id="a_node15"><a xlink:href="protobuf__broker_8cpp.html#a1d613e7d0e630b09e38349b345558eb8" target="_top" xlink:title="print_on_exit">
<polygon fill="none" stroke="black" points="281,-196.5 281,-215.5 353,-215.5 353,-196.5 281,-196.5"/>
<text text-anchor="middle" x="317" y="-203.5" font-family="Helvetica,sans-Serif" font-size="10.00">print_on_exit</text>
</a>
</g>
</g>
<!-- Node2&#45;&gt;Node15 -->
<g id="edge14" class="edge"><title>Node2&#45;&gt;Node15</title>
<path fill="none" stroke="midnightblue" d="M165.091,-222.67C191.186,-219.788 236.345,-214.799 270.481,-211.028"/>
<polygon fill="midnightblue" stroke="midnightblue" points="271.132,-214.478 280.687,-209.901 270.363,-207.52 271.132,-214.478"/>
</g>
<!-- Node4 -->
<g id="node4" class="node"><title>Node4</title>
<g id="a_node4"><a xlink:href="classorg_1_1libcppa_1_1WarnOrAck.html#ab90e30d2891e4ce6a37c50b2c9e49d4b" target="_top" xlink:title="org::libcppa::WarnOrAck\l::mutable_warn">
<polygon fill="none" stroke="black" points="433,-352 433,-382 557,-382 557,-352 433,-352"/>
<text text-anchor="start" x="441" y="-370" font-family="Helvetica,sans-Serif" font-size="10.00">org::libcppa::WarnOrAck</text>
<text text-anchor="middle" x="495" y="-359" font-family="Helvetica,sans-Serif" font-size="10.00">::mutable_warn</text>
</a>
</g>
</g>
<!-- Node3&#45;&gt;Node4 -->
<g id="edge3" class="edge"><title>Node3&#45;&gt;Node4</title>
<path fill="none" stroke="midnightblue" d="M325.854,-253.769C341.942,-273.188 380.63,-316.922 422,-342 425.403,-344.063 429.001,-345.987 432.7,-347.775"/>
<polygon fill="midnightblue" stroke="midnightblue" points="431.493,-351.068 442.052,-351.943 434.343,-344.675 431.493,-351.068"/>
</g>
<!-- Node6 -->
<g id="node6" class="node"><title>Node6</title>
<g id="a_node6"><a xlink:href="classorg_1_1libcppa_1_1WarnOrAck.html#a6bb4f027211410b8dd68aad3407586fb" target="_top" xlink:title="org::libcppa::WarnOrAck\l::mutable_ack">
<polygon fill="none" stroke="black" points="433,-303 433,-333 557,-333 557,-303 433,-303"/>
<text text-anchor="start" x="441" y="-321" font-family="Helvetica,sans-Serif" font-size="10.00">org::libcppa::WarnOrAck</text>
<text text-anchor="middle" x="495" y="-310" font-family="Helvetica,sans-Serif" font-size="10.00">::mutable_ack</text>
</a>
</g>
</g>
<!-- Node3&#45;&gt;Node6 -->
<g id="edge5" class="edge"><title>Node3&#45;&gt;Node6</title>
<path fill="none" stroke="midnightblue" d="M336.898,-253.647C357.534,-264.006 391.691,-280.638 422,-293 427.416,-295.209 433.108,-297.4 438.82,-299.514"/>
<polygon fill="midnightblue" stroke="midnightblue" points="437.811,-302.871 448.405,-302.989 440.196,-296.29 437.811,-302.871"/>
</g>
<!-- Node3&#45;&gt;Node8 -->
<g id="edge7" class="edge"><title>Node3&#45;&gt;Node8</title>
<path fill="none" stroke="midnightblue" d="M324.62,-253.732C346.444,-285.767 415.128,-386.166 422,-391 428.416,-395.513 435.819,-399.01 443.383,-401.719"/>
<polygon fill="midnightblue" stroke="midnightblue" points="442.4,-405.079 452.99,-404.747 444.504,-398.403 442.4,-405.079"/>
</g>
<!-- Node9 -->
<g id="node9" class="node"><title>Node9</title>
<g id="a_node9"><a xlink:href="classorg_1_1libcppa_1_1WarnOrAck.html#ac607e8a3448c09e0d96c5930d75c2f73" target="_top" xlink:title="org::libcppa::WarnOrAck\l::has_warn">
<polygon fill="none" stroke="black" points="433,-254 433,-284 557,-284 557,-254 433,-254"/>
<text text-anchor="start" x="441" y="-272" font-family="Helvetica,sans-Serif" font-size="10.00">org::libcppa::WarnOrAck</text>
<text text-anchor="middle" x="495" y="-261" font-family="Helvetica,sans-Serif" font-size="10.00">::has_warn</text>
</a>
</g>
</g>
<!-- Node3&#45;&gt;Node9 -->
<g id="edge8" class="edge"><title>Node3&#45;&gt;Node9</title>
<path fill="none" stroke="midnightblue" d="M349.872,-248.527C370.248,-251.422 397.515,-255.295 422.846,-258.893"/>
<polygon fill="midnightblue" stroke="midnightblue" points="422.419,-262.367 432.811,-260.308 423.403,-255.437 422.419,-262.367"/>
</g>
<!-- Node10 -->
<g id="node10" class="node"><title>Node10</title>
<g id="a_node10"><a xlink:href="classorg_1_1libcppa_1_1WarnOrAck.html#ab669badf2c2a7b504ffde7d37c2b1a9f" target="_top" xlink:title="org::libcppa::WarnOrAck\l::warn">
<polygon fill="none" stroke="black" points="433,-205 433,-235 557,-235 557,-205 433,-205"/>
<text text-anchor="start" x="441" y="-223" font-family="Helvetica,sans-Serif" font-size="10.00">org::libcppa::WarnOrAck</text>
<text text-anchor="middle" x="495" y="-212" font-family="Helvetica,sans-Serif" font-size="10.00">::warn</text>
</a>
</g>
</g>
<!-- Node3&#45;&gt;Node10 -->
<g id="edge9" class="edge"><title>Node3&#45;&gt;Node10</title>
<path fill="none" stroke="midnightblue" d="M349.872,-239.654C370.248,-236.875 397.515,-233.157 422.846,-229.703"/>
<polygon fill="midnightblue" stroke="midnightblue" points="423.376,-233.163 432.811,-228.344 422.43,-226.227 423.376,-233.163"/>
</g>
<!-- Node11 -->
<g id="node11" class="node"><title>Node11</title>
<g id="a_node11"><a xlink:href="classorg_1_1libcppa_1_1warning.html#adf0bdf099abd08b438f55cbad69f9d2e" target="_top" xlink:title="org::libcppa::warning::id">
<polygon fill="none" stroke="black" points="435,-166.5 435,-185.5 555,-185.5 555,-166.5 435,-166.5"/>
<text text-anchor="middle" x="495" y="-173.5" font-family="Helvetica,sans-Serif" font-size="10.00">org::libcppa::warning::id</text>
</a>
</g>
</g>
<!-- Node3&#45;&gt;Node11 -->
<g id="edge10" class="edge"><title>Node3&#45;&gt;Node11</title>
<path fill="none" stroke="midnightblue" d="M349.514,-238.128C361.375,-235.175 374.714,-230.927 386,-225 404.439,-215.316 403.491,-204.551 422,-195 426.551,-192.652 431.417,-190.576 436.392,-188.743"/>
<polygon fill="midnightblue" stroke="midnightblue" points="437.668,-192.007 446.039,-185.512 435.445,-185.369 437.668,-192.007"/>
</g>
<!-- Node12 -->
<g id="node12" class="node"><title>Node12</title>
<g id="a_node12"><a xlink:href="classorg_1_1libcppa_1_1WarnOrAck.html#a8eeec6df03e93704ac596a78d269eb3c" target="_top" xlink:title="org::libcppa::WarnOrAck\l::has_ack">
<polygon fill="none" stroke="black" points="433,-117 433,-147 557,-147 557,-117 433,-117"/>
<text text-anchor="start" x="441" y="-135" font-family="Helvetica,sans-Serif" font-size="10.00">org::libcppa::WarnOrAck</text>
<text text-anchor="middle" x="495" y="-124" font-family="Helvetica,sans-Serif" font-size="10.00">::has_ack</text>
</a>
</g>
</g>
<!-- Node3&#45;&gt;Node12 -->
<g id="edge11" class="edge"><title>Node3&#45;&gt;Node12</title>
<path fill="none" stroke="midnightblue" d="M349.567,-240.619C361.978,-237.985 375.691,-233.305 386,-225 412.629,-203.546 396.046,-179.266 422,-157 423.977,-155.304 426.076,-153.721 428.266,-152.243"/>
<polygon fill="midnightblue" stroke="midnightblue" points="430.253,-155.136 437.102,-147.053 426.707,-149.1 430.253,-155.136"/>
</g>
<!-- Node13 -->
<g id="node13" class="node"><title>Node13</title>
<g id="a_node13"><a xlink:href="classorg_1_1libcppa_1_1WarnOrAck.html#adb01773cc3a768704172a72677e4641b" target="_top" xlink:title="org::libcppa::WarnOrAck::ack">
<polygon fill="none" stroke="black" points="422,-78.5 422,-97.5 568,-97.5 568,-78.5 422,-78.5"/>
<text text-anchor="middle" x="495" y="-85.5" font-family="Helvetica,sans-Serif" font-size="10.00">org::libcppa::WarnOrAck::ack</text>
</a>
</g>
</g>
<!-- Node3&#45;&gt;Node13 -->
<g id="edge12" class="edge"><title>Node3&#45;&gt;Node13</title>
<path fill="none" stroke="midnightblue" d="M349.712,-241.702C362.442,-239.254 376.354,-234.421 386,-225 425.227,-186.69 382.497,-145.026 422,-107 423.502,-105.554 425.1,-104.215 426.777,-102.975"/>
<polygon fill="midnightblue" stroke="midnightblue" points="428.981,-105.733 435.729,-97.5653 425.361,-99.7419 428.981,-105.733"/>
</g>
<!-- Node14 -->
<g id="node14" class="node"><title>Node14</title>
<g id="a_node14"><a xlink:href="classorg_1_1libcppa_1_1ack.html#ae85c4ba475311e2a7a6bda892fa8fed4" target="_top" xlink:title="org::libcppa::ack::id">
<polygon fill="none" stroke="black" points="444,-40.5 444,-59.5 546,-59.5 546,-40.5 444,-40.5"/>
<text text-anchor="middle" x="495" y="-47.5" font-family="Helvetica,sans-Serif" font-size="10.00">org::libcppa::ack::id</text>
</a>
</g>
</g>
<!-- Node3&#45;&gt;Node14 -->
<g id="edge13" class="edge"><title>Node3&#45;&gt;Node14</title>
<path fill="none" stroke="midnightblue" d="M349.688,-242.087C362.569,-239.717 376.601,-234.838 386,-225 435.153,-173.55 372.477,-120.094 422,-69 425.619,-65.2665 429.878,-62.2372 434.486,-59.7829"/>
<polygon fill="midnightblue" stroke="midnightblue" points="435.952,-62.9616 443.703,-55.7379 433.139,-56.5517 435.952,-62.9616"/>
</g>
<!-- Node5 -->
<g id="node5" class="node"><title>Node5</title>
<g id="a_node5"><a xlink:href="classorg_1_1libcppa_1_1WarnOrAck.html#aacbf55d28e497cd18168d32aba6b999c" target="_top" xlink:title="org::libcppa::WarnOrAck\l::set_has_warn">
<polygon fill="none" stroke="black" points="604,-352 604,-382 728,-382 728,-352 604,-352"/>
<text text-anchor="start" x="612" y="-370" font-family="Helvetica,sans-Serif" font-size="10.00">org::libcppa::WarnOrAck</text>
<text text-anchor="middle" x="666" y="-359" font-family="Helvetica,sans-Serif" font-size="10.00">::set_has_warn</text>
</a>
</g>
</g>
<!-- Node4&#45;&gt;Node5 -->
<g id="edge4" class="edge"><title>Node4&#45;&gt;Node5</title>
<path fill="none" stroke="midnightblue" d="M557.013,-367C568.905,-367 581.472,-367 593.663,-367"/>
<polygon fill="midnightblue" stroke="midnightblue" points="593.793,-370.5 603.793,-367 593.793,-363.5 593.793,-370.5"/>
</g>
<!-- Node7 -->
<g id="node7" class="node"><title>Node7</title>
<g id="a_node7"><a xlink:href="classorg_1_1libcppa_1_1WarnOrAck.html#a04e2259945cc6e97b6a600827f064f41" target="_top" xlink:title="org::libcppa::WarnOrAck\l::set_has_ack">
<polygon fill="none" stroke="black" points="604,-303 604,-333 728,-333 728,-303 604,-303"/>
<text text-anchor="start" x="612" y="-321" font-family="Helvetica,sans-Serif" font-size="10.00">org::libcppa::WarnOrAck</text>
<text text-anchor="middle" x="666" y="-310" font-family="Helvetica,sans-Serif" font-size="10.00">::set_has_ack</text>
</a>
</g>
</g>
<!-- Node6&#45;&gt;Node7 -->
<g id="edge6" class="edge"><title>Node6&#45;&gt;Node7</title>
<path fill="none" stroke="midnightblue" d="M557.013,-318C568.905,-318 581.472,-318 593.663,-318"/>
<polygon fill="midnightblue" stroke="midnightblue" points="593.793,-321.5 603.793,-318 593.793,-314.5 593.793,-321.5"/>
</g>
<!-- Node17 -->
<g id="node17" class="node"><title>Node17</title>
<g id="a_node17"><a xlink:href="classcsCommunication_1_1Warning.html#a4173fe90c12b34ce5511fec55b400bb0" target="_top" xlink:title="csCommunication::Warning\l::set_has_mess">
<polygon fill="none" stroke="black" points="248.5,-147 248.5,-177 385.5,-177 385.5,-147 248.5,-147"/>
<text text-anchor="start" x="256.5" y="-165" font-family="Helvetica,sans-Serif" font-size="10.00">csCommunication::Warning</text>
<text text-anchor="middle" x="317" y="-154" font-family="Helvetica,sans-Serif" font-size="10.00">::set_has_mess</text>
</a>
</g>
</g>
<!-- Node16&#45;&gt;Node17 -->
<g id="edge17" class="edge"><title>Node16&#45;&gt;Node17</title>
<path fill="none" stroke="midnightblue" d="M211.979,-162C220.55,-162 229.372,-162 238.082,-162"/>
<polygon fill="midnightblue" stroke="midnightblue" points="238.233,-165.5 248.233,-162 238.233,-158.5 238.233,-165.5"/>
</g>
<!-- Node19 -->
<g id="node19" class="node"><title>Node19</title>
<g id="a_node19"><a xlink:href="classcsCommunication_1_1Warning.html#a8f4e300281a8b6e710d0464a53611a9c" target="_top" xlink:title="csCommunication::Warning\l::has_mess">
<polygon fill="none" stroke="black" points="248.5,-98 248.5,-128 385.5,-128 385.5,-98 248.5,-98"/>
<text text-anchor="start" x="256.5" y="-116" font-family="Helvetica,sans-Serif" font-size="10.00">csCommunication::Warning</text>
<text text-anchor="middle" x="317" y="-105" font-family="Helvetica,sans-Serif" font-size="10.00">::has_mess</text>
</a>
</g>
</g>
<!-- Node18&#45;&gt;Node19 -->
<g id="edge19" class="edge"><title>Node18&#45;&gt;Node19</title>
<path fill="none" stroke="midnightblue" d="M211.979,-98.4854C220.55,-99.6814 229.372,-100.912 238.082,-102.128"/>
<polygon fill="midnightblue" stroke="midnightblue" points="237.845,-105.629 248.233,-103.544 238.813,-98.6957 237.845,-105.629"/>
</g>
<!-- Node20 -->
<g id="node20" class="node"><title>Node20</title>
<g id="a_node20"><a xlink:href="classcsCommunication_1_1Warning.html#ae89197b403010afcc5471ba841397296" target="_top" xlink:title="csCommunication::Warning\l::mess">
<polygon fill="none" stroke="black" points="248.5,-49 248.5,-79 385.5,-79 385.5,-49 248.5,-49"/>
<text text-anchor="start" x="256.5" y="-67" font-family="Helvetica,sans-Serif" font-size="10.00">csCommunication::Warning</text>
<text text-anchor="middle" x="317" y="-56" font-family="Helvetica,sans-Serif" font-size="10.00">::mess</text>
</a>
</g>
</g>
<!-- Node18&#45;&gt;Node20 -->
<g id="edge20" class="edge"><title>Node18&#45;&gt;Node20</title>
<path fill="none" stroke="midnightblue" d="M211.979,-79.1193C220.55,-77.8735 229.372,-76.5913 238.082,-75.3254"/>
<polygon fill="midnightblue" stroke="midnightblue" points="238.841,-78.7519 248.233,-73.8498 237.834,-71.8247 238.841,-78.7519"/>
</g>
<!-- Node21 -->
<g id="node21" class="node"><title>Node21</title>
<g id="a_node21"><a xlink:href="classcsCommunication_1_1Warning.html#ae4c33f8577043bf5ca98e4c56186ecdc" target="_top" xlink:title="csCommunication::Warning\l::unknown_fields">
<polygon fill="none" stroke="black" points="248.5,-0 248.5,-30 385.5,-30 385.5,-0 248.5,-0"/>
<text text-anchor="start" x="256.5" y="-18" font-family="Helvetica,sans-Serif" font-size="10.00">csCommunication::Warning</text>
<text text-anchor="middle" x="317" y="-7" font-family="Helvetica,sans-Serif" font-size="10.00">::unknown_fields</text>
</a>
</g>
</g>
<!-- Node18&#45;&gt;Node21 -->
<g id="edge21" class="edge"><title>Node18&#45;&gt;Node21</title>
<path fill="none" stroke="midnightblue" d="M173.199,-73.9089C193.833,-63.5055 222.284,-49.6828 248,-39 252.393,-37.175 256.981,-35.3629 261.608,-33.6003"/>
<polygon fill="midnightblue" stroke="midnightblue" points="262.96,-36.8315 271.111,-30.0631 260.519,-30.2711 262.96,-36.8315"/>
</g>
</g>
</svg>
