<?xml version="1.0" encoding="UTF-8" standalone="no"?>
<!DOCTYPE svg PUBLIC "-//W3C//DTD SVG 1.1//EN"
 "http://www.w3.org/Graphics/SVG/1.1/DTD/svg11.dtd">
<!-- Generated by graphviz version 2.36.0 (20140111.2315)
 -->
<!-- Title: src/ProcessControl/controller.h Pages: 1 -->
<!--zoomable 344 -->
<svg id="main" version="1.1" xmlns="http://www.w3.org/2000/svg" xmlns:xlink="http://www.w3.org/1999/xlink" xml:space="preserve" onload="init(evt)">
<style type="text/css"><![CDATA[
.edge:hover path { stroke: red; }
.edge:hover polygon { stroke: red; fill: red; }
]]></style>
<script type="text/javascript"><![CDATA[
var edges = document.getElementsByTagName('g');
if (edges && edges.length) {
  for (var i=0;i<edges.length;i++) {
    if (edges[i].id.substr(0,4)=='edge') {
      edges[i].setAttribute('class','edge');
    }
  }
}
]]></script>
        <defs>
                <circle id="rim" cx="0" cy="0" r="7"/>
                <circle id="rim2" cx="0" cy="0" r="3.5"/>
                <g id="zoomPlus">
                        <use xlink:href="#rim" fill="#404040">
                                <set attributeName="fill" to="#808080" begin="zoomplus.mouseover" end="zoomplus.mouseout"/>
                        </use>
                        <path d="M-4,0h8M0,-4v8" fill="none" stroke="white" stroke-width="1.5" pointer-events="none"/>
                </g>
                <g id="zoomMin">
                        <use xlink:href="#rim" fill="#404040">
                                <set attributeName="fill" to="#808080" begin="zoomminus.mouseover" end="zoomminus.mouseout"/>
                        </use>
                        <path d="M-4,0h8" fill="none" stroke="white" stroke-width="1.5" pointer-events="none"/>
                </g>
                <g id="dirArrow">
                        <path fill="none" stroke="white" stroke-width="1.5" d="M0,-3.0v7 M-2.5,-0.5L0,-3.0L2.5,-0.5"/>
                </g>
               <g id="resetDef">
                       <use xlink:href="#rim2" fill="#404040">
                               <set attributeName="fill" to="#808080" begin="reset.mouseover" end="reset.mouseout"/>
                       </use>
               </g>
        </defs>

<script type="text/javascript">
var viewWidth = 910;
var viewHeight = 344;
var sectionId = 'dynsection-0';
</script>
<script xlink:href="svgpan.js"/>
<svg id="graph" class="graph">
<g id="viewport">
<title>src/ProcessControl/controller.h</title>
<!-- Node1 -->
<g id="node1" class="node"><title>Node1</title>
<polygon fill="#bfbfbf" stroke="black" points="716.5,-305 716.5,-335 817.5,-335 817.5,-305 716.5,-305"/>
<text text-anchor="start" x="724.5" y="-323" font-family="Helvetica,sans-Serif" font-size="10.00">src/ProcessControl</text>
<text text-anchor="middle" x="767" y="-312" font-family="Helvetica,sans-Serif" font-size="10.00">/controller.h</text>
</g>
<!-- Node2 -->
<g id="node2" class="node"><title>Node2</title>
<polygon fill="none" stroke="#bfbfbf" points="860.5,-6.5 860.5,-25.5 901.5,-25.5 901.5,-6.5 860.5,-6.5"/>
<text text-anchor="middle" x="881" y="-13.5" font-family="Helvetica,sans-Serif" font-size="10.00">string</text>
</g>
<!-- Node1&#45;&gt;Node2 -->
<g id="edge1" class="edge"><title>Node1&#45;&gt;Node2</title>
<path fill="none" stroke="midnightblue" d="M794.136,-304.836C828.699,-284.618 884,-243.988 884,-191 884,-191 884,-191 884,-133 884,-98.7044 882.673,-58.7244 881.784,-35.7863"/>
<polygon fill="midnightblue" stroke="midnightblue" points="885.279,-35.5803 881.38,-25.729 878.285,-35.8616 885.279,-35.5803"/>
</g>
<!-- Node3 -->
<g id="node3" class="node"><title>Node3</title>
<g id="a_node3"><a xlink:href="frame__selector_8h.html" target="_top" xlink:title="../StreamDecoder/frame\l_selector.h">
<polygon fill="none" stroke="black" points="589,-237 589,-267 711,-267 711,-237 589,-237"/>
<text text-anchor="start" x="597" y="-255" font-family="Helvetica,sans-Serif" font-size="10.00">../StreamDecoder/frame</text>
<text text-anchor="middle" x="650" y="-244" font-family="Helvetica,sans-Serif" font-size="10.00">_selector.h</text>
</a>
</g>
</g>
<!-- Node1&#45;&gt;Node3 -->
<g id="edge2" class="edge"><title>Node1&#45;&gt;Node3</title>
<path fill="none" stroke="midnightblue" d="M741.901,-304.841C724.936,-295.272 702.335,-282.523 683.792,-272.062"/>
<polygon fill="midnightblue" stroke="midnightblue" points="685.487,-269 675.058,-267.135 682.048,-275.097 685.487,-269"/>
</g>
<!-- Node4 -->
<g id="node4" class="node"><title>Node4</title>
<g id="a_node4"><a xlink:href="hdf__reader_8h.html" target="_top" xlink:title="hdf_reader.h">
<polygon fill="none" stroke="black" points="681.5,-180.5 681.5,-199.5 752.5,-199.5 752.5,-180.5 681.5,-180.5"/>
<text text-anchor="middle" x="717" y="-187.5" font-family="Helvetica,sans-Serif" font-size="10.00">hdf_reader.h</text>
</a>
</g>
</g>
<!-- Node3&#45;&gt;Node4 -->
<g id="edge3" class="edge"><title>Node3&#45;&gt;Node4</title>
<path fill="none" stroke="midnightblue" d="M665.878,-236.781C676.015,-227.703 689.162,-215.929 699.585,-206.595"/>
<polygon fill="midnightblue" stroke="midnightblue" points="702.136,-209.009 707.251,-199.731 697.466,-203.794 702.136,-209.009"/>
</g>
<!-- Node6 -->
<g id="node6" class="node"><title>Node6</title>
<polygon fill="none" stroke="#bfbfbf" points="628,-124.5 628,-143.5 672,-143.5 672,-124.5 628,-124.5"/>
<text text-anchor="middle" x="650" y="-131.5" font-family="Helvetica,sans-Serif" font-size="10.00">vector</text>
</g>
<!-- Node3&#45;&gt;Node6 -->
<g id="edge27" class="edge"><title>Node3&#45;&gt;Node6</title>
<path fill="none" stroke="midnightblue" d="M650,-236.776C650,-215.971 650,-177.198 650,-153.981"/>
<polygon fill="midnightblue" stroke="midnightblue" points="653.5,-153.707 650,-143.707 646.5,-153.707 653.5,-153.707"/>
</g>
<!-- Node8 -->
<g id="node8" class="node"><title>Node8</title>
<g id="a_node8"><a xlink:href="protobuf__image__wrapper_8h.html" target="_top" xlink:title="protobuf_image_wrapper.h">
<polygon fill="none" stroke="black" points="481.5,-180.5 481.5,-199.5 612.5,-199.5 612.5,-180.5 481.5,-180.5"/>
<text text-anchor="middle" x="547" y="-187.5" font-family="Helvetica,sans-Serif" font-size="10.00">protobuf_image_wrapper.h</text>
</a>
</g>
</g>
<!-- Node3&#45;&gt;Node8 -->
<g id="edge8" class="edge"><title>Node3&#45;&gt;Node8</title>
<path fill="none" stroke="midnightblue" d="M625.851,-236.933C609.25,-227.262 587.306,-214.479 570.784,-204.855"/>
<polygon fill="midnightblue" stroke="midnightblue" points="572.166,-201.609 561.763,-199.6 568.642,-207.658 572.166,-201.609"/>
</g>
<!-- Node17 -->
<g id="node17" class="node"><title>Node17</title>
<g id="a_node17"><a xlink:href="image_8h.html" target="_top" xlink:title="image.h">
<polygon fill="none" stroke="black" points="386.5,-180.5 386.5,-199.5 437.5,-199.5 437.5,-180.5 386.5,-180.5"/>
<text text-anchor="middle" x="412" y="-187.5" font-family="Helvetica,sans-Serif" font-size="10.00">image.h</text>
</a>
</g>
</g>
<!-- Node3&#45;&gt;Node17 -->
<g id="edge25" class="edge"><title>Node3&#45;&gt;Node17</title>
<path fill="none" stroke="midnightblue" d="M594.2,-236.933C548.795,-225.486 486.098,-209.68 447.347,-199.911"/>
<polygon fill="midnightblue" stroke="midnightblue" points="448.114,-196.495 437.562,-197.444 446.403,-203.283 448.114,-196.495"/>
</g>
<!-- Node4&#45;&gt;Node2 -->
<g id="edge5" class="edge"><title>Node4&#45;&gt;Node2</title>
<path fill="none" stroke="midnightblue" d="M752.539,-181.685C775.97,-175.251 805.925,-163.734 826,-144 856.886,-113.639 871.545,-63.0713 877.516,-35.8035"/>
<polygon fill="midnightblue" stroke="midnightblue" points="881.013,-36.1661 879.565,-25.6707 874.152,-34.7786 881.013,-36.1661"/>
</g>
<!-- Node5 -->
<g id="node5" class="node"><title>Node5</title>
<polygon fill="none" stroke="#bfbfbf" points="690,-124.5 690,-143.5 744,-143.5 744,-124.5 690,-124.5"/>
<text text-anchor="middle" x="717" y="-131.5" font-family="Helvetica,sans-Serif" font-size="10.00">iostream</text>
</g>
<!-- Node4&#45;&gt;Node5 -->
<g id="edge4" class="edge"><title>Node4&#45;&gt;Node5</title>
<path fill="none" stroke="midnightblue" d="M717,-180.083C717,-173.006 717,-162.861 717,-153.986"/>
<polygon fill="midnightblue" stroke="midnightblue" points="720.5,-153.751 717,-143.751 713.5,-153.751 720.5,-153.751"/>
</g>
<!-- Node4&#45;&gt;Node6 -->
<g id="edge6" class="edge"><title>Node4&#45;&gt;Node6</title>
<path fill="none" stroke="midnightblue" d="M706.235,-180.324C696.234,-172.263 681.113,-160.077 669.07,-150.369"/>
<polygon fill="midnightblue" stroke="midnightblue" points="670.943,-147.384 660.961,-143.834 666.55,-152.834 670.943,-147.384"/>
</g>
<!-- Node7 -->
<g id="node7" class="node"><title>Node7</title>
<polygon fill="none" stroke="#bfbfbf" points="762,-124.5 762,-143.5 818,-143.5 818,-124.5 762,-124.5"/>
<text text-anchor="middle" x="790" y="-131.5" font-family="Helvetica,sans-Serif" font-size="10.00">H5Cpp.h</text>
</g>
<!-- Node4&#45;&gt;Node7 -->
<g id="edge7" class="edge"><title>Node4&#45;&gt;Node7</title>
<path fill="none" stroke="midnightblue" d="M728.729,-180.324C739.837,-172.107 756.742,-159.602 769.983,-149.807"/>
<polygon fill="midnightblue" stroke="midnightblue" points="772.1,-152.595 778.058,-143.834 767.937,-146.967 772.1,-152.595"/>
</g>
<!-- Node9 -->
<g id="node9" class="node"><title>Node9</title>
<g id="a_node9"><a xlink:href="CameraImage_8pb_8h.html" target="_top" xlink:title="protofiles/CameraImage.pb.h">
<polygon fill="none" stroke="black" points="466.5,-124.5 466.5,-143.5 609.5,-143.5 609.5,-124.5 466.5,-124.5"/>
<text text-anchor="middle" x="538" y="-131.5" font-family="Helvetica,sans-Serif" font-size="10.00">protofiles/CameraImage.pb.h</text>
</a>
</g>
</g>
<!-- Node8&#45;&gt;Node9 -->
<g id="edge9" class="edge"><title>Node8&#45;&gt;Node9</title>
<path fill="none" stroke="midnightblue" d="M545.514,-180.083C544.321,-172.927 542.606,-162.635 541.115,-153.691"/>
<polygon fill="midnightblue" stroke="midnightblue" points="544.555,-153.04 539.459,-143.751 537.65,-154.19 544.555,-153.04"/>
</g>
<!-- Node9&#45;&gt;Node2 -->
<g id="edge10" class="edge"><title>Node9&#45;&gt;Node2</title>
<path fill="none" stroke="midnightblue" d="M570.112,-124.38C627.454,-108.605 750.835,-72.9265 851,-32 852.594,-31.3489 854.219,-30.6481 855.848,-29.9178"/>
<polygon fill="midnightblue" stroke="midnightblue" points="857.491,-33.0122 865.015,-25.5531 854.482,-26.692 857.491,-33.0122"/>
</g>
<!-- Node10 -->
<g id="node10" class="node"><title>Node10</title>
<polygon fill="none" stroke="#bfbfbf" points="432,-1 432,-31 542,-31 542,-1 432,-1"/>
<text text-anchor="start" x="440" y="-19" font-family="Helvetica,sans-Serif" font-size="10.00">google/protobuf/stubs</text>
<text text-anchor="middle" x="487" y="-8" font-family="Helvetica,sans-Serif" font-size="10.00">/common.h</text>
</g>
<!-- Node9&#45;&gt;Node10 -->
<g id="edge11" class="edge"><title>Node9&#45;&gt;Node10</title>
<path fill="none" stroke="midnightblue" d="M528.865,-124.225C520.578,-115.735 508.669,-102.111 502,-88 495.051,-73.2955 491.296,-55.3665 489.281,-41.2043"/>
<polygon fill="midnightblue" stroke="midnightblue" points="492.748,-40.723 488.055,-31.2244 485.8,-41.5765 492.748,-40.723"/>
</g>
<!-- Node11 -->
<g id="node11" class="node"><title>Node11</title>
<polygon fill="none" stroke="#bfbfbf" points="560.5,-1 560.5,-31 689.5,-31 689.5,-1 560.5,-1"/>
<text text-anchor="start" x="568.5" y="-19" font-family="Helvetica,sans-Serif" font-size="10.00">google/protobuf/generated</text>
<text text-anchor="middle" x="625" y="-8" font-family="Helvetica,sans-Serif" font-size="10.00">_message_util.h</text>
</g>
<!-- Node9&#45;&gt;Node11 -->
<g id="edge12" class="edge"><title>Node9&#45;&gt;Node11</title>
<path fill="none" stroke="midnightblue" d="M549.82,-124.358C560.716,-115.961 576.842,-102.401 588,-88 599.275,-73.4484 608.786,-54.9508 615.342,-40.4845"/>
<polygon fill="midnightblue" stroke="midnightblue" points="618.597,-41.7764 619.393,-31.2115 612.182,-38.974 618.597,-41.7764"/>
</g>
<!-- Node12 -->
<g id="node12" class="node"><title>Node12</title>
<polygon fill="none" stroke="#bfbfbf" points="708,-6.5 708,-25.5 842,-25.5 842,-6.5 708,-6.5"/>
<text text-anchor="middle" x="775" y="-13.5" font-family="Helvetica,sans-Serif" font-size="10.00">google/protobuf/message.h</text>
</g>
<!-- Node9&#45;&gt;Node12 -->
<g id="edge13" class="edge"><title>Node9&#45;&gt;Node12</title>
<path fill="none" stroke="midnightblue" d="M555.427,-124.47C596.516,-104.359 699.663,-53.874 748.532,-29.955"/>
<polygon fill="midnightblue" stroke="midnightblue" points="750.104,-33.0821 757.547,-25.5423 747.027,-26.7948 750.104,-33.0821"/>
</g>
<!-- Node13 -->
<g id="node13" class="node"><title>Node13</title>
<polygon fill="none" stroke="#bfbfbf" points="0,-1 0,-31 124,-31 124,-1 0,-1"/>
<text text-anchor="start" x="8" y="-19" font-family="Helvetica,sans-Serif" font-size="10.00">google/protobuf/repeated</text>
<text text-anchor="middle" x="62" y="-8" font-family="Helvetica,sans-Serif" font-size="10.00">_field.h</text>
</g>
<!-- Node9&#45;&gt;Node13 -->
<g id="edge14" class="edge"><title>Node9&#45;&gt;Node13</title>
<path fill="none" stroke="midnightblue" d="M501.745,-124.467C463.681,-115.486 402.1,-100.889 349,-88 273.085,-69.5727 185.996,-47.9613 127.851,-33.4648"/>
<polygon fill="midnightblue" stroke="midnightblue" points="128.608,-30.0464 118.058,-31.0223 126.914,-36.8384 128.608,-30.0464"/>
</g>
<!-- Node14 -->
<g id="node14" class="node"><title>Node14</title>
<polygon fill="none" stroke="#bfbfbf" points="142,-1 142,-31 270,-31 270,-1 142,-1"/>
<text text-anchor="start" x="150" y="-19" font-family="Helvetica,sans-Serif" font-size="10.00">google/protobuf/extension</text>
<text text-anchor="middle" x="206" y="-8" font-family="Helvetica,sans-Serif" font-size="10.00">_set.h</text>
</g>
<!-- Node9&#45;&gt;Node14 -->
<g id="edge15" class="edge"><title>Node9&#45;&gt;Node14</title>
<path fill="none" stroke="midnightblue" d="M513.587,-124.47C459.454,-105.556 328.428,-59.7761 256.076,-34.4963"/>
<polygon fill="midnightblue" stroke="midnightblue" points="256.865,-31.0645 246.27,-31.0702 254.556,-37.6728 256.865,-31.0645"/>
</g>
<!-- Node15 -->
<g id="node15" class="node"><title>Node15</title>
<polygon fill="none" stroke="#bfbfbf" points="288.5,-1 288.5,-31 413.5,-31 413.5,-1 288.5,-1"/>
<text text-anchor="start" x="296.5" y="-19" font-family="Helvetica,sans-Serif" font-size="10.00">google/protobuf/unknown</text>
<text text-anchor="middle" x="351" y="-8" font-family="Helvetica,sans-Serif" font-size="10.00">_field_set.h</text>
</g>
<!-- Node9&#45;&gt;Node15 -->
<g id="edge16" class="edge"><title>Node9&#45;&gt;Node15</title>
<path fill="none" stroke="midnightblue" d="M524.249,-124.47C494.546,-106.045 423.741,-62.123 382.428,-36.4953"/>
<polygon fill="midnightblue" stroke="midnightblue" points="384.181,-33.4639 373.838,-31.1668 380.491,-39.4124 384.181,-33.4639"/>
</g>
<!-- Node16 -->
<g id="node16" class="node"><title>Node16</title>
<g id="a_node16"><a xlink:href="header_8pb_8h.html" target="_top" xlink:title="header.pb.h">
<polygon fill="none" stroke="black" points="511,-68.5 511,-87.5 579,-87.5 579,-68.5 511,-68.5"/>
<text text-anchor="middle" x="545" y="-75.5" font-family="Helvetica,sans-Serif" font-size="10.00">header.pb.h</text>
</a>
</g>
</g>
<!-- Node9&#45;&gt;Node16 -->
<g id="edge17" class="edge"><title>Node9&#45;&gt;Node16</title>
<path fill="none" stroke="midnightblue" d="M539.156,-124.083C540.084,-116.927 541.418,-106.635 542.577,-97.6911"/>
<polygon fill="midnightblue" stroke="midnightblue" points="546.051,-98.1181 543.866,-87.7511 539.109,-97.2181 546.051,-98.1181"/>
</g>
<!-- Node16&#45;&gt;Node2 -->
<g id="edge18" class="edge"><title>Node16&#45;&gt;Node2</title>
<path fill="none" stroke="midnightblue" d="M579.292,-75.4966C636.727,-72.2027 755.473,-62.0562 851,-32 852.916,-31.397 854.861,-30.6842 856.792,-29.902"/>
<polygon fill="midnightblue" stroke="midnightblue" points="858.512,-32.9633 866.13,-25.601 855.583,-26.6051 858.512,-32.9633"/>
</g>
<!-- Node16&#45;&gt;Node10 -->
<g id="edge19" class="edge"><title>Node16&#45;&gt;Node10</title>
<path fill="none" stroke="midnightblue" d="M536.69,-68.4035C529.128,-60.5811 517.651,-48.7077 507.631,-38.3424"/>
<polygon fill="midnightblue" stroke="midnightblue" points="510.136,-35.8981 500.669,-31.1408 505.103,-40.7633 510.136,-35.8981"/>
</g>
<!-- Node16&#45;&gt;Node11 -->
<g id="edge20" class="edge"><title>Node16&#45;&gt;Node11</title>
<path fill="none" stroke="midnightblue" d="M556.462,-68.4035C567.297,-60.2773 583.961,-47.7794 598.144,-37.1419"/>
<polygon fill="midnightblue" stroke="midnightblue" points="600.246,-39.9409 606.146,-31.1408 596.046,-34.3408 600.246,-39.9409"/>
</g>
<!-- Node16&#45;&gt;Node12 -->
<g id="edge21" class="edge"><title>Node16&#45;&gt;Node12</title>
<path fill="none" stroke="midnightblue" d="M577.953,-68.4035C618.602,-57.7995 687.787,-39.7511 732.424,-28.1067"/>
<polygon fill="midnightblue" stroke="midnightblue" points="733.315,-31.4915 742.108,-25.5806 731.548,-24.7182 733.315,-31.4915"/>
</g>
<!-- Node16&#45;&gt;Node13 -->
<g id="edge22" class="edge"><title>Node16&#45;&gt;Node13</title>
<path fill="none" stroke="midnightblue" d="M510.933,-74.4326C441.801,-68.9748 279.926,-54.9374 134.285,-32.1094"/>
<polygon fill="midnightblue" stroke="midnightblue" points="134.698,-28.6312 124.273,-30.5219 133.601,-35.5448 134.698,-28.6312"/>
</g>
<!-- Node16&#45;&gt;Node14 -->
<g id="edge23" class="edge"><title>Node16&#45;&gt;Node14</title>
<path fill="none" stroke="midnightblue" d="M510.92,-71.627C462.082,-63.8415 369.127,-48.7062 280.066,-32.1633"/>
<polygon fill="midnightblue" stroke="midnightblue" points="280.542,-28.6917 270.069,-30.2973 279.257,-35.5729 280.542,-28.6917"/>
</g>
<!-- Node16&#45;&gt;Node15 -->
<g id="edge24" class="edge"><title>Node16&#45;&gt;Node15</title>
<path fill="none" stroke="midnightblue" d="M517.205,-68.4035C488.379,-59.4882 442.539,-45.311 406.295,-34.1014"/>
<polygon fill="midnightblue" stroke="midnightblue" points="406.936,-30.6363 396.349,-31.0253 404.868,-37.3238 406.936,-30.6363"/>
</g>
<!-- Node18 -->
<g id="node18" class="node"><title>Node18</title>
<polygon fill="none" stroke="#bfbfbf" points="341.5,-124.5 341.5,-143.5 448.5,-143.5 448.5,-124.5 341.5,-124.5"/>
<text text-anchor="middle" x="395" y="-131.5" font-family="Helvetica,sans-Serif" font-size="10.00">opencv2/opencv.hpp</text>
</g>
<!-- Node17&#45;&gt;Node18 -->
<g id="edge26" class="edge"><title>Node17&#45;&gt;Node18</title>
<path fill="none" stroke="midnightblue" d="M409.193,-180.083C406.915,-172.849 403.629,-162.409 400.792,-153.397"/>
<polygon fill="midnightblue" stroke="midnightblue" points="404.096,-152.239 397.755,-143.751 397.419,-154.341 404.096,-152.239"/>
</g>
</g>
</svg>
        <g id="navigator" transform="translate(0 0)" fill="#404254">
                <rect fill="#f2f5e9" fill-opacity="0.5" stroke="#606060" stroke-width=".5" x="0" y="0" width="60" height="60"/>
                <use id="zoomplus" xlink:href="#zoomPlus" x="17" y="9" onmousedown="handleZoom(evt,'in')"/>
                <use id="zoomminus" xlink:href="#zoomMin" x="42" y="9" onmousedown="handleZoom(evt,'out')"/>
                <use id="reset" xlink:href="#resetDef" x="30" y="36" onmousedown="handleReset()"/>
                <g id="arrowUp" xlink:href="#dirArrow" transform="translate(30 24)" onmousedown="handlePan(0,-1)">
                  <use xlink:href="#rim" fill="#404040">
                        <set attributeName="fill" to="#808080" begin="arrowUp.mouseover" end="arrowUp.mouseout"/>
                  </use>
                  <path fill="none" stroke="white" stroke-width="1.5" d="M0,-3.0v7 M-2.5,-0.5L0,-3.0L2.5,-0.5"/>
                </g>
                <g id="arrowRight" xlink:href="#dirArrow" transform="rotate(90) translate(36 -43)" onmousedown="handlePan(1,0)">
                  <use xlink:href="#rim" fill="#404040">
                        <set attributeName="fill" to="#808080" begin="arrowRight.mouseover" end="arrowRight.mouseout"/>
                  </use>
                  <path fill="none" stroke="white" stroke-width="1.5" d="M0,-3.0v7 M-2.5,-0.5L0,-3.0L2.5,-0.5"/>
                </g>
                <g id="arrowDown" xlink:href="#dirArrow" transform="rotate(180) translate(-30 -48)" onmousedown="handlePan(0,1)">
                  <use xlink:href="#rim" fill="#404040">
                        <set attributeName="fill" to="#808080" begin="arrowDown.mouseover" end="arrowDown.mouseout"/>
                  </use>
                  <path fill="none" stroke="white" stroke-width="1.5" d="M0,-3.0v7 M-2.5,-0.5L0,-3.0L2.5,-0.5"/>
                </g>
                <g id="arrowLeft" xlink:href="#dirArrow" transform="rotate(270) translate(-36 17)" onmousedown="handlePan(-1,0)">
                  <use xlink:href="#rim" fill="#404040">
                        <set attributeName="fill" to="#808080" begin="arrowLeft.mouseover" end="arrowLeft.mouseout"/>
                  </use>
                  <path fill="none" stroke="white" stroke-width="1.5" d="M0,-3.0v7 M-2.5,-0.5L0,-3.0L2.5,-0.5"/>
                </g>
        </g>
        <svg viewBox="0 0 15 15" width="100%" height="30px" preserveAspectRatio="xMaxYMin meet">
         <g id="arrow_out" transform="scale(0.3 0.3)">
          <a xlink:href="controller_8h__incl_org.svg" target="_base">
           <rect id="button" ry="5" rx="5" y="6" x="6" height="38" width="38"
                fill="#f2f5e9" fill-opacity="0.5" stroke="#606060" stroke-width="1.0"/>
           <path id="arrow"
             d="M 11.500037,31.436501 C 11.940474,20.09759 22.043105,11.32322 32.158766,21.979434 L 37.068811,17.246167 C 37.068811,17.246167 37.088388,32 37.088388,32 L 22.160133,31.978069 C 22.160133,31.978069 26.997745,27.140456 26.997745,27.140456 C 18.528582,18.264221 13.291696,25.230495 11.500037,31.436501 z"
             style="fill:#404040;"/>
          </a>
         </g>
        </svg>
</svg>
