<?xml version="1.0" encoding="UTF-8" standalone="no"?>
<!DOCTYPE svg PUBLIC "-//W3C//DTD SVG 1.1//EN"
 "http://www.w3.org/Graphics/SVG/1.1/DTD/svg11.dtd">
<!-- Generated by graphviz version 2.36.0 (20140111.2315)
 -->
<!-- Title: src/ProcessControl/controller.h Pages: 1 -->
<svg width="271pt" height="108pt"
 viewBox="0.00 0.00 271.00 108.00" xmlns="http://www.w3.org/2000/svg" xmlns:xlink="http://www.w3.org/1999/xlink">
<g id="graph0" class="graph" transform="scale(1 1) rotate(0) translate(4 104)">
<title>src/ProcessControl/controller.h</title>
<!-- Node1 -->
<g id="node1" class="node"><title>Node1</title>
<polygon fill="#bfbfbf" stroke="black" points="69.5,-69 69.5,-99 170.5,-99 170.5,-69 69.5,-69"/>
<text text-anchor="start" x="77.5" y="-87" font-family="Helvetica,sans-Serif" font-size="10.00">src/ProcessControl</text>
<text text-anchor="middle" x="120" y="-76" font-family="Helvetica,sans-Serif" font-size="10.00">/controller.h</text>
</g>
<!-- Node2 -->
<g id="node2" class="node"><title>Node2</title>
<g id="a_node2"><a xlink:href="controller_8cpp.html" target="_top" xlink:title="src/ProcessControl\l/controller.cpp">
<polygon fill="none" stroke="black" points="-0.5,-1 -0.5,-31 100.5,-31 100.5,-1 -0.5,-1"/>
<text text-anchor="start" x="7.5" y="-19" font-family="Helvetica,sans-Serif" font-size="10.00">src/ProcessControl</text>
<text text-anchor="middle" x="50" y="-8" font-family="Helvetica,sans-Serif" font-size="10.00">/controller.cpp</text>
</a>
</g>
</g>
<!-- Node1&#45;&gt;Node2 -->
<g id="edge1" class="edge"><title>Node1&#45;&gt;Node2</title>
<path fill="none" stroke="midnightblue" d="M97.4899,-61.7762C86.9202,-51.8105 74.6014,-40.1956 65.1593,-31.2931"/>
<polygon fill="midnightblue" stroke="midnightblue" points="95.1341,-64.3654 104.811,-68.679 99.9362,-59.2723 95.1341,-64.3654"/>
</g>
<!-- Node3 -->
<g id="node3" class="node"><title>Node3</title>
<g id="a_node3"><a xlink:href="StreamDecoder_2main_8cpp.html" target="_top" xlink:title="src/StreamDecoder/main.cpp">
<polygon fill="none" stroke="black" points="119,-6.5 119,-25.5 263,-25.5 263,-6.5 119,-6.5"/>
<text text-anchor="middle" x="191" y="-13.5" font-family="Helvetica,sans-Serif" font-size="10.00">src/StreamDecoder/main.cpp</text>
</a>
</g>
</g>
<!-- Node1&#45;&gt;Node3 -->
<g id="edge2" class="edge"><title>Node1&#45;&gt;Node3</title>
<path fill="none" stroke="midnightblue" d="M142.75,-61.8517C155.86,-49.6656 171.644,-34.9929 181.503,-25.8283"/>
<polygon fill="midnightblue" stroke="midnightblue" points="140.347,-59.307 135.406,-68.679 145.113,-64.434 140.347,-59.307"/>
</g>
</g>
</svg>
