<?xml version="1.0" encoding="UTF-8" standalone="no"?>
<!DOCTYPE svg PUBLIC "-//W3C//DTD SVG 1.1//EN"
 "http://www.w3.org/Graphics/SVG/1.1/DTD/svg11.dtd">
<!-- Generated by graphviz version 2.36.0 (20140111.2315)
 -->
<!-- Title: src/ProcessControl/controller.cpp Pages: 1 -->
<!--zoomable 400 -->
<svg id="main" version="1.1" xmlns="http://www.w3.org/2000/svg" xmlns:xlink="http://www.w3.org/1999/xlink" xml:space="preserve" onload="init(evt)">
<style type="text/css"><![CDATA[
.edge:hover path { stroke: red; }
.edge:hover polygon { stroke: red; fill: red; }
]]></style>
<script type="text/javascript"><![CDATA[
var edges = document.getElementsByTagName('g');
if (edges && edges.length) {
  for (var i=0;i<edges.length;i++) {
    if (edges[i].id.substr(0,4)=='edge') {
      edges[i].setAttribute('class','edge');
    }
  }
}
]]></script>
        <defs>
                <circle id="rim" cx="0" cy="0" r="7"/>
                <circle id="rim2" cx="0" cy="0" r="3.5"/>
                <g id="zoomPlus">
                        <use xlink:href="#rim" fill="#404040">
                                <set attributeName="fill" to="#808080" begin="zoomplus.mouseover" end="zoomplus.mouseout"/>
                        </use>
                        <path d="M-4,0h8M0,-4v8" fill="none" stroke="white" stroke-width="1.5" pointer-events="none"/>
                </g>
                <g id="zoomMin">
                        <use xlink:href="#rim" fill="#404040">
                                <set attributeName="fill" to="#808080" begin="zoomminus.mouseover" end="zoomminus.mouseout"/>
                        </use>
                        <path d="M-4,0h8" fill="none" stroke="white" stroke-width="1.5" pointer-events="none"/>
                </g>
                <g id="dirArrow">
                        <path fill="none" stroke="white" stroke-width="1.5" d="M0,-3.0v7 M-2.5,-0.5L0,-3.0L2.5,-0.5"/>
                </g>
               <g id="resetDef">
                       <use xlink:href="#rim2" fill="#404040">
                               <set attributeName="fill" to="#808080" begin="reset.mouseover" end="reset.mouseout"/>
                       </use>
               </g>
        </defs>

<script type="text/javascript">
var viewWidth = 909;
var viewHeight = 400;
var sectionId = 'dynsection-0';
</script>
<script xlink:href="svgpan.js"/>
<svg id="graph" class="graph">
<g id="viewport">
<title>src/ProcessControl/controller.cpp</title>
<!-- Node1 -->
<g id="node1" class="node"><title>Node1</title>
<polygon fill="#bfbfbf" stroke="black" points="365.5,-361 365.5,-391 466.5,-391 466.5,-361 365.5,-361"/>
<text text-anchor="start" x="373.5" y="-379" font-family="Helvetica,sans-Serif" font-size="10.00">src/ProcessControl</text>
<text text-anchor="middle" x="416" y="-368" font-family="Helvetica,sans-Serif" font-size="10.00">/controller.cpp</text>
</g>
<!-- Node2 -->
<g id="node2" class="node"><title>Node2</title>
<g id="a_node2"><a xlink:href="controller_8h.html" target="_top" xlink:title="controller.h">
<polygon fill="none" stroke="black" points="229.5,-304.5 229.5,-323.5 294.5,-323.5 294.5,-304.5 229.5,-304.5"/>
<text text-anchor="middle" x="262" y="-311.5" font-family="Helvetica,sans-Serif" font-size="10.00">controller.h</text>
</a>
</g>
</g>
<!-- Node1&#45;&gt;Node2 -->
<g id="edge1" class="edge"><title>Node1&#45;&gt;Node2</title>
<path fill="none" stroke="midnightblue" d="M379.894,-360.933C353.68,-350.72 318.559,-337.036 293.484,-327.266"/>
<polygon fill="midnightblue" stroke="midnightblue" points="294.662,-323.969 284.073,-323.6 292.121,-330.492 294.662,-323.969"/>
</g>
<!-- Node19 -->
<g id="node19" class="node"><title>Node19</title>
<polygon fill="none" stroke="#bfbfbf" points="451.5,-124.5 451.5,-143.5 558.5,-143.5 558.5,-124.5 451.5,-124.5"/>
<text text-anchor="middle" x="505" y="-131.5" font-family="Helvetica,sans-Serif" font-size="10.00">opencv2/opencv.hpp</text>
</g>
<!-- Node1&#45;&gt;Node19 -->
<g id="edge29" class="edge"><title>Node1&#45;&gt;Node19</title>
<path fill="none" stroke="midnightblue" d="M428.197,-360.893C444.298,-341.422 472.215,-304.556 486,-268 500.625,-229.217 504.101,-180.191 504.859,-153.83"/>
<polygon fill="midnightblue" stroke="midnightblue" points="508.361,-153.785 505.045,-143.722 501.362,-153.657 508.361,-153.785"/>
</g>
<!-- Node20 -->
<g id="node20" class="node"><title>Node20</title>
<g id="a_node20"><a xlink:href="image__view_8h.html" target="_top" xlink:title="../StreamDecoder/image\l_view.h">
<polygon fill="none" stroke="black" points="354.5,-237 354.5,-267 477.5,-267 477.5,-237 354.5,-237"/>
<text text-anchor="start" x="362.5" y="-255" font-family="Helvetica,sans-Serif" font-size="10.00">../StreamDecoder/image</text>
<text text-anchor="middle" x="416" y="-244" font-family="Helvetica,sans-Serif" font-size="10.00">_view.h</text>
</a>
</g>
</g>
<!-- Node1&#45;&gt;Node20 -->
<g id="edge30" class="edge"><title>Node1&#45;&gt;Node20</title>
<path fill="none" stroke="midnightblue" d="M416,-360.526C416,-339.963 416,-302.033 416,-277.163"/>
<polygon fill="midnightblue" stroke="midnightblue" points="419.5,-277.079 416,-267.079 412.5,-277.079 419.5,-277.079"/>
</g>
<!-- Node3 -->
<g id="node3" class="node"><title>Node3</title>
<polygon fill="none" stroke="#bfbfbf" points="-0.5,-6.5 -0.5,-25.5 40.5,-25.5 40.5,-6.5 -0.5,-6.5"/>
<text text-anchor="middle" x="20" y="-13.5" font-family="Helvetica,sans-Serif" font-size="10.00">string</text>
</g>
<!-- Node2&#45;&gt;Node3 -->
<g id="edge2" class="edge"><title>Node2&#45;&gt;Node3</title>
<path fill="none" stroke="midnightblue" d="M229.333,-311.549C162.416,-306.643 16,-285.152 16,-191 16,-191 16,-191 16,-133 16,-98.6955 17.7689,-58.7185 18.954,-35.7833"/>
<polygon fill="midnightblue" stroke="midnightblue" points="22.4527,-35.9006 19.4934,-25.7275 15.4627,-35.5256 22.4527,-35.9006"/>
</g>
<!-- Node4 -->
<g id="node4" class="node"><title>Node4</title>
<g id="a_node4"><a xlink:href="frame__selector_8h.html" target="_top" xlink:title="../StreamDecoder/frame\l_selector.h">
<polygon fill="none" stroke="black" points="201,-237 201,-267 323,-267 323,-237 201,-237"/>
<text text-anchor="start" x="209" y="-255" font-family="Helvetica,sans-Serif" font-size="10.00">../StreamDecoder/frame</text>
<text text-anchor="middle" x="262" y="-244" font-family="Helvetica,sans-Serif" font-size="10.00">_selector.h</text>
</a>
</g>
</g>
<!-- Node2&#45;&gt;Node4 -->
<g id="edge3" class="edge"><title>Node2&#45;&gt;Node4</title>
<path fill="none" stroke="midnightblue" d="M262,-304.403C262,-297.341 262,-286.975 262,-277.399"/>
<polygon fill="midnightblue" stroke="midnightblue" points="265.5,-277.141 262,-267.141 258.5,-277.141 265.5,-277.141"/>
</g>
<!-- Node5 -->
<g id="node5" class="node"><title>Node5</title>
<g id="a_node5"><a xlink:href="hdf__reader_8h.html" target="_top" xlink:title="hdf_reader.h">
<polygon fill="none" stroke="black" points="146.5,-180.5 146.5,-199.5 217.5,-199.5 217.5,-180.5 146.5,-180.5"/>
<text text-anchor="middle" x="182" y="-187.5" font-family="Helvetica,sans-Serif" font-size="10.00">hdf_reader.h</text>
</a>
</g>
</g>
<!-- Node4&#45;&gt;Node5 -->
<g id="edge4" class="edge"><title>Node4&#45;&gt;Node5</title>
<path fill="none" stroke="midnightblue" d="M243.041,-236.781C230.577,-227.433 214.303,-215.227 201.693,-205.77"/>
<polygon fill="midnightblue" stroke="midnightblue" points="203.741,-202.931 193.641,-199.731 199.541,-208.531 203.741,-202.931"/>
</g>
<!-- Node7 -->
<g id="node7" class="node"><title>Node7</title>
<polygon fill="none" stroke="#bfbfbf" points="228,-124.5 228,-143.5 272,-143.5 272,-124.5 228,-124.5"/>
<text text-anchor="middle" x="250" y="-131.5" font-family="Helvetica,sans-Serif" font-size="10.00">vector</text>
</g>
<!-- Node4&#45;&gt;Node7 -->
<g id="edge28" class="edge"><title>Node4&#45;&gt;Node7</title>
<path fill="none" stroke="midnightblue" d="M260.529,-236.776C258.366,-215.876 254.329,-176.844 251.931,-153.664"/>
<polygon fill="midnightblue" stroke="midnightblue" points="255.411,-153.294 250.901,-143.707 248.448,-154.014 255.411,-153.294"/>
</g>
<!-- Node9 -->
<g id="node9" class="node"><title>Node9</title>
<g id="a_node9"><a xlink:href="protobuf__image__wrapper_8h.html" target="_top" xlink:title="protobuf_image_wrapper.h">
<polygon fill="none" stroke="black" points="277.5,-180.5 277.5,-199.5 408.5,-199.5 408.5,-180.5 277.5,-180.5"/>
<text text-anchor="middle" x="343" y="-187.5" font-family="Helvetica,sans-Serif" font-size="10.00">protobuf_image_wrapper.h</text>
</a>
</g>
</g>
<!-- Node4&#45;&gt;Node9 -->
<g id="edge9" class="edge"><title>Node4&#45;&gt;Node9</title>
<path fill="none" stroke="midnightblue" d="M281.196,-236.781C293.816,-227.433 310.293,-215.227 323.061,-205.77"/>
<polygon fill="midnightblue" stroke="midnightblue" points="325.262,-208.495 331.214,-199.731 321.095,-202.87 325.262,-208.495"/>
</g>
<!-- Node18 -->
<g id="node18" class="node"><title>Node18</title>
<g id="a_node18"><a xlink:href="image_8h.html" target="_top" xlink:title="image.h">
<polygon fill="none" stroke="black" points="426.5,-180.5 426.5,-199.5 477.5,-199.5 477.5,-180.5 426.5,-180.5"/>
<text text-anchor="middle" x="452" y="-187.5" font-family="Helvetica,sans-Serif" font-size="10.00">image.h</text>
</a>
</g>
</g>
<!-- Node4&#45;&gt;Node18 -->
<g id="edge26" class="edge"><title>Node4&#45;&gt;Node18</title>
<path fill="none" stroke="midnightblue" d="M306.547,-236.933C340.197,-226.306 385.746,-211.922 416.851,-202.1"/>
<polygon fill="midnightblue" stroke="midnightblue" points="417.928,-205.43 426.41,-199.081 415.82,-198.755 417.928,-205.43"/>
</g>
<!-- Node5&#45;&gt;Node3 -->
<g id="edge6" class="edge"><title>Node5&#45;&gt;Node3</title>
<path fill="none" stroke="midnightblue" d="M146.376,-181.771C122.908,-175.375 92.9432,-163.867 73,-144 42.4907,-113.607 28.6694,-63.0521 23.1614,-35.795"/>
<polygon fill="midnightblue" stroke="midnightblue" points="26.5481,-34.8617 21.2853,-25.6665 19.6652,-36.1367 26.5481,-34.8617"/>
</g>
<!-- Node6 -->
<g id="node6" class="node"><title>Node6</title>
<polygon fill="none" stroke="#bfbfbf" points="82,-124.5 82,-143.5 136,-143.5 136,-124.5 82,-124.5"/>
<text text-anchor="middle" x="109" y="-131.5" font-family="Helvetica,sans-Serif" font-size="10.00">iostream</text>
</g>
<!-- Node5&#45;&gt;Node6 -->
<g id="edge5" class="edge"><title>Node5&#45;&gt;Node6</title>
<path fill="none" stroke="midnightblue" d="M170.271,-180.324C159.163,-172.107 142.258,-159.602 129.017,-149.807"/>
<polygon fill="midnightblue" stroke="midnightblue" points="131.063,-146.967 120.942,-143.834 126.9,-152.595 131.063,-146.967"/>
</g>
<!-- Node5&#45;&gt;Node7 -->
<g id="edge7" class="edge"><title>Node5&#45;&gt;Node7</title>
<path fill="none" stroke="midnightblue" d="M192.925,-180.324C203.175,-172.185 218.721,-159.839 231.001,-150.087"/>
<polygon fill="midnightblue" stroke="midnightblue" points="233.221,-152.794 238.876,-143.834 228.868,-147.312 233.221,-152.794"/>
</g>
<!-- Node8 -->
<g id="node8" class="node"><title>Node8</title>
<polygon fill="none" stroke="#bfbfbf" points="154,-124.5 154,-143.5 210,-143.5 210,-124.5 154,-124.5"/>
<text text-anchor="middle" x="182" y="-131.5" font-family="Helvetica,sans-Serif" font-size="10.00">H5Cpp.h</text>
</g>
<!-- Node5&#45;&gt;Node8 -->
<g id="edge8" class="edge"><title>Node5&#45;&gt;Node8</title>
<path fill="none" stroke="midnightblue" d="M182,-180.083C182,-173.006 182,-162.861 182,-153.986"/>
<polygon fill="midnightblue" stroke="midnightblue" points="185.5,-153.751 182,-143.751 178.5,-153.751 185.5,-153.751"/>
</g>
<!-- Node10 -->
<g id="node10" class="node"><title>Node10</title>
<g id="a_node10"><a xlink:href="CameraImage_8pb_8h.html" target="_top" xlink:title="protofiles/CameraImage.pb.h">
<polygon fill="none" stroke="black" points="290.5,-124.5 290.5,-143.5 433.5,-143.5 433.5,-124.5 290.5,-124.5"/>
<text text-anchor="middle" x="362" y="-131.5" font-family="Helvetica,sans-Serif" font-size="10.00">protofiles/CameraImage.pb.h</text>
</a>
</g>
</g>
<!-- Node9&#45;&gt;Node10 -->
<g id="edge10" class="edge"><title>Node9&#45;&gt;Node10</title>
<path fill="none" stroke="midnightblue" d="M346.137,-180.083C348.683,-172.849 352.356,-162.409 355.527,-153.397"/>
<polygon fill="midnightblue" stroke="midnightblue" points="358.903,-154.346 358.921,-143.751 352.3,-152.023 358.903,-154.346"/>
</g>
<!-- Node10&#45;&gt;Node3 -->
<g id="edge11" class="edge"><title>Node10&#45;&gt;Node3</title>
<path fill="none" stroke="midnightblue" d="M330.444,-124.49C273.487,-108.756 150.119,-72.9627 50,-32 48.4067,-31.3481 46.7814,-30.6468 45.1526,-29.9161"/>
<polygon fill="midnightblue" stroke="midnightblue" points="46.5194,-26.6904 35.9861,-25.5502 43.5094,-33.0102 46.5194,-26.6904"/>
</g>
<!-- Node11 -->
<g id="node11" class="node"><title>Node11</title>
<polygon fill="none" stroke="#bfbfbf" points="491,-1 491,-31 601,-31 601,-1 491,-1"/>
<text text-anchor="start" x="499" y="-19" font-family="Helvetica,sans-Serif" font-size="10.00">google/protobuf/stubs</text>
<text text-anchor="middle" x="546" y="-8" font-family="Helvetica,sans-Serif" font-size="10.00">/common.h</text>
</g>
<!-- Node10&#45;&gt;Node11 -->
<g id="edge12" class="edge"><title>Node10&#45;&gt;Node11</title>
<path fill="none" stroke="midnightblue" d="M375.53,-124.47C404.696,-106.083 474.134,-62.3071 514.82,-36.6567"/>
<polygon fill="midnightblue" stroke="midnightblue" points="516.936,-39.4606 523.529,-31.1668 513.203,-33.5391 516.936,-39.4606"/>
</g>
<!-- Node12 -->
<g id="node12" class="node"><title>Node12</title>
<polygon fill="none" stroke="#bfbfbf" points="619.5,-1 619.5,-31 748.5,-31 748.5,-1 619.5,-1"/>
<text text-anchor="start" x="627.5" y="-19" font-family="Helvetica,sans-Serif" font-size="10.00">google/protobuf/generated</text>
<text text-anchor="middle" x="684" y="-8" font-family="Helvetica,sans-Serif" font-size="10.00">_message_util.h</text>
</g>
<!-- Node10&#45;&gt;Node12 -->
<g id="edge13" class="edge"><title>Node10&#45;&gt;Node12</title>
<path fill="none" stroke="midnightblue" d="M385.677,-124.47C438.181,-105.556 565.259,-59.7761 635.433,-34.4963"/>
<polygon fill="midnightblue" stroke="midnightblue" points="636.721,-37.7523 644.943,-31.0702 634.349,-31.1666 636.721,-37.7523"/>
</g>
<!-- Node13 -->
<g id="node13" class="node"><title>Node13</title>
<polygon fill="none" stroke="#bfbfbf" points="767,-6.5 767,-25.5 901,-25.5 901,-6.5 767,-6.5"/>
<text text-anchor="middle" x="834" y="-13.5" font-family="Helvetica,sans-Serif" font-size="10.00">google/protobuf/message.h</text>
</g>
<!-- Node10&#45;&gt;Node13 -->
<g id="edge14" class="edge"><title>Node10&#45;&gt;Node13</title>
<path fill="none" stroke="midnightblue" d="M396.707,-124.47C480.926,-103.772 696.049,-50.9032 789.521,-27.9313"/>
<polygon fill="midnightblue" stroke="midnightblue" points="790.366,-31.3278 799.242,-25.5423 788.695,-24.5301 790.366,-31.3278"/>
</g>
<!-- Node14 -->
<g id="node14" class="node"><title>Node14</title>
<polygon fill="none" stroke="#bfbfbf" points="59,-1 59,-31 183,-31 183,-1 59,-1"/>
<text text-anchor="start" x="67" y="-19" font-family="Helvetica,sans-Serif" font-size="10.00">google/protobuf/repeated</text>
<text text-anchor="middle" x="121" y="-8" font-family="Helvetica,sans-Serif" font-size="10.00">_field.h</text>
</g>
<!-- Node10&#45;&gt;Node14 -->
<g id="edge15" class="edge"><title>Node10&#45;&gt;Node14</title>
<path fill="none" stroke="midnightblue" d="M344.279,-124.47C305.516,-105.813 212.443,-61.014 159.512,-35.537"/>
<polygon fill="midnightblue" stroke="midnightblue" points="160.961,-32.3501 150.433,-31.1668 157.925,-38.6575 160.961,-32.3501"/>
</g>
<!-- Node15 -->
<g id="node15" class="node"><title>Node15</title>
<polygon fill="none" stroke="#bfbfbf" points="201,-1 201,-31 329,-31 329,-1 201,-1"/>
<text text-anchor="start" x="209" y="-19" font-family="Helvetica,sans-Serif" font-size="10.00">google/protobuf/extension</text>
<text text-anchor="middle" x="265" y="-8" font-family="Helvetica,sans-Serif" font-size="10.00">_set.h</text>
</g>
<!-- Node10&#45;&gt;Node15 -->
<g id="edge16" class="edge"><title>Node10&#45;&gt;Node15</title>
<path fill="none" stroke="midnightblue" d="M351.46,-124.278C341.3,-115.613 325.776,-101.677 314,-88 301.014,-72.9176 288.306,-54.3615 279.087,-40.0025"/>
<polygon fill="midnightblue" stroke="midnightblue" points="281.861,-37.8405 273.565,-31.2513 275.941,-41.5761 281.861,-37.8405"/>
</g>
<!-- Node16 -->
<g id="node16" class="node"><title>Node16</title>
<polygon fill="none" stroke="#bfbfbf" points="347.5,-1 347.5,-31 472.5,-31 472.5,-1 347.5,-1"/>
<text text-anchor="start" x="355.5" y="-19" font-family="Helvetica,sans-Serif" font-size="10.00">google/protobuf/unknown</text>
<text text-anchor="middle" x="410" y="-8" font-family="Helvetica,sans-Serif" font-size="10.00">_field_set.h</text>
</g>
<!-- Node10&#45;&gt;Node16 -->
<g id="edge17" class="edge"><title>Node10&#45;&gt;Node16</title>
<path fill="none" stroke="midnightblue" d="M371.884,-124.431C380.801,-116.086 393.487,-102.561 400,-88 406.497,-73.4747 408.999,-55.7528 409.876,-41.6482"/>
<polygon fill="midnightblue" stroke="midnightblue" points="413.389,-41.3694 410.276,-31.2423 406.394,-41.1005 413.389,-41.3694"/>
</g>
<!-- Node17 -->
<g id="node17" class="node"><title>Node17</title>
<g id="a_node17"><a xlink:href="header_8pb_8h.html" target="_top" xlink:title="header.pb.h">
<polygon fill="none" stroke="black" points="323,-68.5 323,-87.5 391,-87.5 391,-68.5 323,-68.5"/>
<text text-anchor="middle" x="357" y="-75.5" font-family="Helvetica,sans-Serif" font-size="10.00">header.pb.h</text>
</a>
</g>
</g>
<!-- Node10&#45;&gt;Node17 -->
<g id="edge18" class="edge"><title>Node10&#45;&gt;Node17</title>
<path fill="none" stroke="midnightblue" d="M361.174,-124.083C360.519,-117.006 359.58,-106.861 358.758,-97.9865"/>
<polygon fill="midnightblue" stroke="midnightblue" points="362.217,-97.3858 357.81,-87.7511 355.247,-98.0312 362.217,-97.3858"/>
</g>
<!-- Node17&#45;&gt;Node3 -->
<g id="edge19" class="edge"><title>Node17&#45;&gt;Node3</title>
<path fill="none" stroke="midnightblue" d="M322.596,-75.5129C264.974,-72.2427 145.84,-62.1299 50,-32 48.0835,-31.3975 46.1387,-30.685 44.2081,-29.903"/>
<polygon fill="midnightblue" stroke="midnightblue" points="45.4162,-26.6061 34.869,-25.6025 42.4883,-32.9644 45.4162,-26.6061"/>
</g>
<!-- Node17&#45;&gt;Node11 -->
<g id="edge20" class="edge"><title>Node17&#45;&gt;Node11</title>
<path fill="none" stroke="midnightblue" d="M384.079,-68.4035C412.162,-59.4882 456.82,-45.311 492.13,-34.1014"/>
<polygon fill="midnightblue" stroke="midnightblue" points="493.348,-37.3871 501.82,-31.0253 491.23,-30.7152 493.348,-37.3871"/>
</g>
<!-- Node17&#45;&gt;Node12 -->
<g id="edge21" class="edge"><title>Node17&#45;&gt;Node12</title>
<path fill="none" stroke="midnightblue" d="M391.013,-71.2168C437.779,-63.2069 524.814,-48.0919 609.41,-32.0855"/>
<polygon fill="midnightblue" stroke="midnightblue" points="610.272,-35.4843 619.444,-30.1804 608.967,-28.6072 610.272,-35.4843"/>
</g>
<!-- Node17&#45;&gt;Node13 -->
<g id="edge22" class="edge"><title>Node17&#45;&gt;Node13</title>
<path fill="none" stroke="midnightblue" d="M391.101,-74.0955C460.309,-67.9957 622.132,-52.6886 757,-32 765.515,-30.6939 774.522,-29.1175 783.259,-27.4841"/>
<polygon fill="midnightblue" stroke="midnightblue" points="784.182,-30.8711 793.346,-25.5533 782.866,-23.9959 784.182,-30.8711"/>
</g>
<!-- Node17&#45;&gt;Node14 -->
<g id="edge23" class="edge"><title>Node17&#45;&gt;Node14</title>
<path fill="none" stroke="midnightblue" d="M323.438,-68.4672C287.827,-59.4135 230.67,-44.8821 186.157,-33.5653"/>
<polygon fill="midnightblue" stroke="midnightblue" points="186.843,-30.1285 176.289,-31.0565 185.118,-36.9127 186.843,-30.1285"/>
</g>
<!-- Node17&#45;&gt;Node15 -->
<g id="edge24" class="edge"><title>Node17&#45;&gt;Node15</title>
<path fill="none" stroke="midnightblue" d="M343.819,-68.4035C331.242,-60.2014 311.836,-47.5454 295.428,-36.8441"/>
<polygon fill="midnightblue" stroke="midnightblue" points="296.971,-33.6719 286.683,-31.1408 293.147,-39.5352 296.971,-33.6719"/>
</g>
<!-- Node17&#45;&gt;Node16 -->
<g id="edge25" class="edge"><title>Node17&#45;&gt;Node16</title>
<path fill="none" stroke="midnightblue" d="M364.594,-68.4035C371.436,-60.657 381.788,-48.9379 390.881,-38.6447"/>
<polygon fill="midnightblue" stroke="midnightblue" points="393.512,-40.9527 397.509,-31.1408 388.265,-36.3184 393.512,-40.9527"/>
</g>
<!-- Node18&#45;&gt;Node19 -->
<g id="edge27" class="edge"><title>Node18&#45;&gt;Node19</title>
<path fill="none" stroke="midnightblue" d="M460.752,-180.083C468.47,-172.22 479.905,-160.569 489.217,-151.081"/>
<polygon fill="midnightblue" stroke="midnightblue" points="491.904,-153.34 496.411,-143.751 486.908,-148.436 491.904,-153.34"/>
</g>
<!-- Node20&#45;&gt;Node18 -->
<g id="edge31" class="edge"><title>Node20&#45;&gt;Node18</title>
<path fill="none" stroke="midnightblue" d="M424.531,-236.781C429.601,-228.332 436.071,-217.548 441.458,-208.569"/>
<polygon fill="midnightblue" stroke="midnightblue" points="444.618,-210.106 446.762,-199.731 438.615,-206.505 444.618,-210.106"/>
</g>
</g>
</svg>
        <g id="navigator" transform="translate(0 0)" fill="#404254">
                <rect fill="#f2f5e9" fill-opacity="0.5" stroke="#606060" stroke-width=".5" x="0" y="0" width="60" height="60"/>
                <use id="zoomplus" xlink:href="#zoomPlus" x="17" y="9" onmousedown="handleZoom(evt,'in')"/>
                <use id="zoomminus" xlink:href="#zoomMin" x="42" y="9" onmousedown="handleZoom(evt,'out')"/>
                <use id="reset" xlink:href="#resetDef" x="30" y="36" onmousedown="handleReset()"/>
                <g id="arrowUp" xlink:href="#dirArrow" transform="translate(30 24)" onmousedown="handlePan(0,-1)">
                  <use xlink:href="#rim" fill="#404040">
                        <set attributeName="fill" to="#808080" begin="arrowUp.mouseover" end="arrowUp.mouseout"/>
                  </use>
                  <path fill="none" stroke="white" stroke-width="1.5" d="M0,-3.0v7 M-2.5,-0.5L0,-3.0L2.5,-0.5"/>
                </g>
                <g id="arrowRight" xlink:href="#dirArrow" transform="rotate(90) translate(36 -43)" onmousedown="handlePan(1,0)">
                  <use xlink:href="#rim" fill="#404040">
                        <set attributeName="fill" to="#808080" begin="arrowRight.mouseover" end="arrowRight.mouseout"/>
                  </use>
                  <path fill="none" stroke="white" stroke-width="1.5" d="M0,-3.0v7 M-2.5,-0.5L0,-3.0L2.5,-0.5"/>
                </g>
                <g id="arrowDown" xlink:href="#dirArrow" transform="rotate(180) translate(-30 -48)" onmousedown="handlePan(0,1)">
                  <use xlink:href="#rim" fill="#404040">
                        <set attributeName="fill" to="#808080" begin="arrowDown.mouseover" end="arrowDown.mouseout"/>
                  </use>
                  <path fill="none" stroke="white" stroke-width="1.5" d="M0,-3.0v7 M-2.5,-0.5L0,-3.0L2.5,-0.5"/>
                </g>
                <g id="arrowLeft" xlink:href="#dirArrow" transform="rotate(270) translate(-36 17)" onmousedown="handlePan(-1,0)">
                  <use xlink:href="#rim" fill="#404040">
                        <set attributeName="fill" to="#808080" begin="arrowLeft.mouseover" end="arrowLeft.mouseout"/>
                  </use>
                  <path fill="none" stroke="white" stroke-width="1.5" d="M0,-3.0v7 M-2.5,-0.5L0,-3.0L2.5,-0.5"/>
                </g>
        </g>
        <svg viewBox="0 0 15 15" width="100%" height="30px" preserveAspectRatio="xMaxYMin meet">
         <g id="arrow_out" transform="scale(0.3 0.3)">
          <a xlink:href="controller_8cpp__incl_org.svg" target="_base">
           <rect id="button" ry="5" rx="5" y="6" x="6" height="38" width="38"
                fill="#f2f5e9" fill-opacity="0.5" stroke="#606060" stroke-width="1.0"/>
           <path id="arrow"
             d="M 11.500037,31.436501 C 11.940474,20.09759 22.043105,11.32322 32.158766,21.979434 L 37.068811,17.246167 C 37.068811,17.246167 37.088388,32 37.088388,32 L 22.160133,31.978069 C 22.160133,31.978069 26.997745,27.140456 26.997745,27.140456 C 18.528582,18.264221 13.291696,25.230495 11.500037,31.436501 z"
             style="fill:#404040;"/>
          </a>
         </g>
        </svg>
</svg>
