<?xml version="1.0" encoding="UTF-8" standalone="no"?>
<!DOCTYPE svg PUBLIC "-//W3C//DTD SVG 1.1//EN"
 "http://www.w3.org/Graphics/SVG/1.1/DTD/svg11.dtd">
<!-- Generated by graphviz version 2.36.0 (20140111.2315)
 -->
<!-- Title: src/CarCommunication/csCommunication.pb.h Pages: 1 -->
<svg width="402pt" height="108pt"
 viewBox="0.00 0.00 402.00 108.00" xmlns="http://www.w3.org/2000/svg" xmlns:xlink="http://www.w3.org/1999/xlink">
<g id="graph0" class="graph" transform="scale(1 1) rotate(0) translate(4 104)">
<title>src/CarCommunication/csCommunication.pb.h</title>
<!-- Node1 -->
<g id="node1" class="node"><title>Node1</title>
<polygon fill="#bfbfbf" stroke="black" points="137,-69 137,-99 257,-99 257,-69 137,-69"/>
<text text-anchor="start" x="145" y="-87" font-family="Helvetica,sans-Serif" font-size="10.00">src/CarCommunication</text>
<text text-anchor="middle" x="197" y="-76" font-family="Helvetica,sans-Serif" font-size="10.00">/csCommunication.pb.h</text>
</g>
<!-- Node2 -->
<g id="node2" class="node"><title>Node2</title>
<g id="a_node2"><a xlink:href="client_8cpp.html" target="_top" xlink:title="src/CarCommunication\l/client.cpp">
<polygon fill="none" stroke="black" points="-0.5,-1 -0.5,-31 116.5,-31 116.5,-1 -0.5,-1"/>
<text text-anchor="start" x="7.5" y="-19" font-family="Helvetica,sans-Serif" font-size="10.00">src/CarCommunication</text>
<text text-anchor="middle" x="58" y="-8" font-family="Helvetica,sans-Serif" font-size="10.00">/client.cpp</text>
</a>
</g>
</g>
<!-- Node1&#45;&gt;Node2 -->
<g id="edge1" class="edge"><title>Node1&#45;&gt;Node2</title>
<path fill="none" stroke="midnightblue" d="M157.997,-64.4805C135.741,-53.9128 108.28,-40.8738 87.7697,-31.1352"/>
<polygon fill="midnightblue" stroke="midnightblue" points="156.646,-67.7137 167.181,-68.8413 159.649,-61.3904 156.646,-67.7137"/>
</g>
<!-- Node3 -->
<g id="node3" class="node"><title>Node3</title>
<g id="a_node3"><a xlink:href="csCommunication_8pb_8cc.html" target="_top" xlink:title="src/CarCommunication\l/csCommunication.pb.cc">
<polygon fill="none" stroke="black" points="134.5,-1 134.5,-31 259.5,-31 259.5,-1 134.5,-1"/>
<text text-anchor="start" x="142.5" y="-19" font-family="Helvetica,sans-Serif" font-size="10.00">src/CarCommunication</text>
<text text-anchor="middle" x="197" y="-8" font-family="Helvetica,sans-Serif" font-size="10.00">/csCommunication.pb.cc</text>
</a>
</g>
</g>
<!-- Node1&#45;&gt;Node3 -->
<g id="edge2" class="edge"><title>Node1&#45;&gt;Node3</title>
<path fill="none" stroke="midnightblue" d="M197,-58.5322C197,-49.3606 197,-39.2449 197,-31.2931"/>
<polygon fill="midnightblue" stroke="midnightblue" points="193.5,-58.6789 197,-68.679 200.5,-58.679 193.5,-58.6789"/>
</g>
<!-- Node4 -->
<g id="node4" class="node"><title>Node4</title>
<g id="a_node4"><a xlink:href="server_8cpp.html" target="_top" xlink:title="src/CarCommunication\l/server.cpp">
<polygon fill="none" stroke="black" points="277.5,-1 277.5,-31 394.5,-31 394.5,-1 277.5,-1"/>
<text text-anchor="start" x="285.5" y="-19" font-family="Helvetica,sans-Serif" font-size="10.00">src/CarCommunication</text>
<text text-anchor="middle" x="336" y="-8" font-family="Helvetica,sans-Serif" font-size="10.00">/server.cpp</text>
</a>
</g>
</g>
<!-- Node1&#45;&gt;Node4 -->
<g id="edge3" class="edge"><title>Node1&#45;&gt;Node4</title>
<path fill="none" stroke="midnightblue" d="M236.003,-64.4805C258.259,-53.9128 285.72,-40.8738 306.23,-31.1352"/>
<polygon fill="midnightblue" stroke="midnightblue" points="234.351,-61.3904 226.819,-68.8413 237.354,-67.7137 234.351,-61.3904"/>
</g>
</g>
</svg>
