<?xml version="1.0" encoding="UTF-8" standalone="no"?>
<!DOCTYPE svg PUBLIC "-//W3C//DTD SVG 1.1//EN"
 "http://www.w3.org/Graphics/SVG/1.1/DTD/svg11.dtd">
<!-- Generated by graphviz version 2.36.0 (20140111.2315)
 -->
<!-- Title: src/CarCommunication/csCommunication.pb.h Pages: 1 -->
<svg width="908pt" height="108pt"
 viewBox="0.00 0.00 908.00 108.00" xmlns="http://www.w3.org/2000/svg" xmlns:xlink="http://www.w3.org/1999/xlink">
<g id="graph0" class="graph" transform="scale(1 1) rotate(0) translate(4 104)">
<title>src/CarCommunication/csCommunication.pb.h</title>
<!-- Node1 -->
<g id="node1" class="node"><title>Node1</title>
<polygon fill="#bfbfbf" stroke="black" points="342,-69 342,-99 462,-99 462,-69 342,-69"/>
<text text-anchor="start" x="350" y="-87" font-family="Helvetica,sans-Serif" font-size="10.00">src/CarCommunication</text>
<text text-anchor="middle" x="402" y="-76" font-family="Helvetica,sans-Serif" font-size="10.00">/csCommunication.pb.h</text>
</g>
<!-- Node2 -->
<g id="node2" class="node"><title>Node2</title>
<polygon fill="none" stroke="#bfbfbf" points="-0.5,-6.5 -0.5,-25.5 40.5,-25.5 40.5,-6.5 -0.5,-6.5"/>
<text text-anchor="middle" x="20" y="-13.5" font-family="Helvetica,sans-Serif" font-size="10.00">string</text>
</g>
<!-- Node1&#45;&gt;Node2 -->
<g id="edge1" class="edge"><title>Node1&#45;&gt;Node2</title>
<path fill="none" stroke="midnightblue" d="M341.857,-80.1273C270.727,-75.4061 149.431,-63.1684 50,-32 48.083,-31.3991 46.1379,-30.6877 44.2069,-29.9066"/>
<polygon fill="midnightblue" stroke="midnightblue" points="45.4148,-26.6096 34.8674,-25.6077 42.4879,-32.9683 45.4148,-26.6096"/>
</g>
<!-- Node3 -->
<g id="node3" class="node"><title>Node3</title>
<polygon fill="none" stroke="#bfbfbf" points="59,-1 59,-31 169,-31 169,-1 59,-1"/>
<text text-anchor="start" x="67" y="-19" font-family="Helvetica,sans-Serif" font-size="10.00">google/protobuf/stubs</text>
<text text-anchor="middle" x="114" y="-8" font-family="Helvetica,sans-Serif" font-size="10.00">/common.h</text>
</g>
<!-- Node1&#45;&gt;Node3 -->
<g id="edge2" class="edge"><title>Node1&#45;&gt;Node3</title>
<path fill="none" stroke="midnightblue" d="M341.605,-69.3587C298.799,-59.6649 239.742,-46.2403 178.926,-32.2069"/>
<polygon fill="midnightblue" stroke="midnightblue" points="179.684,-28.7899 169.153,-29.9499 178.109,-35.6104 179.684,-28.7899"/>
</g>
<!-- Node4 -->
<g id="node4" class="node"><title>Node4</title>
<polygon fill="none" stroke="#bfbfbf" points="187.5,-1 187.5,-31 316.5,-31 316.5,-1 187.5,-1"/>
<text text-anchor="start" x="195.5" y="-19" font-family="Helvetica,sans-Serif" font-size="10.00">google/protobuf/generated</text>
<text text-anchor="middle" x="252" y="-8" font-family="Helvetica,sans-Serif" font-size="10.00">_message_util.h</text>
</g>
<!-- Node1&#45;&gt;Node4 -->
<g id="edge3" class="edge"><title>Node1&#45;&gt;Node4</title>
<path fill="none" stroke="midnightblue" d="M369.821,-68.8413C347.402,-58.9771 317.307,-45.735 293.144,-35.1036"/>
<polygon fill="midnightblue" stroke="midnightblue" points="294.431,-31.8457 283.868,-31.0218 291.611,-38.2529 294.431,-31.8457"/>
</g>
<!-- Node5 -->
<g id="node5" class="node"><title>Node5</title>
<polygon fill="none" stroke="#bfbfbf" points="335,-6.5 335,-25.5 469,-25.5 469,-6.5 335,-6.5"/>
<text text-anchor="middle" x="402" y="-13.5" font-family="Helvetica,sans-Serif" font-size="10.00">google/protobuf/message.h</text>
</g>
<!-- Node1&#45;&gt;Node5 -->
<g id="edge4" class="edge"><title>Node1&#45;&gt;Node5</title>
<path fill="none" stroke="midnightblue" d="M402,-68.679C402,-59.1014 402,-46.3938 402,-35.9766"/>
<polygon fill="midnightblue" stroke="midnightblue" points="405.5,-35.8283 402,-25.8283 398.5,-35.8283 405.5,-35.8283"/>
</g>
<!-- Node6 -->
<g id="node6" class="node"><title>Node6</title>
<polygon fill="none" stroke="#bfbfbf" points="487,-1 487,-31 611,-31 611,-1 487,-1"/>
<text text-anchor="start" x="495" y="-19" font-family="Helvetica,sans-Serif" font-size="10.00">google/protobuf/repeated</text>
<text text-anchor="middle" x="549" y="-8" font-family="Helvetica,sans-Serif" font-size="10.00">_field.h</text>
</g>
<!-- Node1&#45;&gt;Node6 -->
<g id="edge5" class="edge"><title>Node1&#45;&gt;Node6</title>
<path fill="none" stroke="midnightblue" d="M433.535,-68.8413C455.408,-59.0207 484.738,-45.8521 508.364,-35.2449"/>
<polygon fill="midnightblue" stroke="midnightblue" points="510.08,-38.3107 517.77,-31.0218 507.213,-31.9248 510.08,-38.3107"/>
</g>
<!-- Node7 -->
<g id="node7" class="node"><title>Node7</title>
<polygon fill="none" stroke="#bfbfbf" points="629,-1 629,-31 757,-31 757,-1 629,-1"/>
<text text-anchor="start" x="637" y="-19" font-family="Helvetica,sans-Serif" font-size="10.00">google/protobuf/extension</text>
<text text-anchor="middle" x="693" y="-8" font-family="Helvetica,sans-Serif" font-size="10.00">_set.h</text>
</g>
<!-- Node1&#45;&gt;Node7 -->
<g id="edge6" class="edge"><title>Node1&#45;&gt;Node7</title>
<path fill="none" stroke="midnightblue" d="M462.295,-69.3248C508.474,-58.8512 572.333,-44.3679 621.159,-33.2937"/>
<polygon fill="midnightblue" stroke="midnightblue" points="622.048,-36.6812 631.026,-31.0559 620.5,-29.8545 622.048,-36.6812"/>
</g>
<!-- Node8 -->
<g id="node8" class="node"><title>Node8</title>
<polygon fill="none" stroke="#bfbfbf" points="775.5,-1 775.5,-31 900.5,-31 900.5,-1 775.5,-1"/>
<text text-anchor="start" x="783.5" y="-19" font-family="Helvetica,sans-Serif" font-size="10.00">google/protobuf/unknown</text>
<text text-anchor="middle" x="838" y="-8" font-family="Helvetica,sans-Serif" font-size="10.00">_field_set.h</text>
</g>
<!-- Node1&#45;&gt;Node8 -->
<g id="edge7" class="edge"><title>Node1&#45;&gt;Node8</title>
<path fill="none" stroke="midnightblue" d="M462.092,-75.8183C532.367,-67.1424 652.401,-51.4639 765.361,-32.0423"/>
<polygon fill="midnightblue" stroke="midnightblue" points="765.962,-35.4903 775.218,-30.3347 764.768,-28.5931 765.962,-35.4903"/>
</g>
</g>
</svg>
