<?xml version="1.0" encoding="UTF-8" standalone="no"?>
<!DOCTYPE svg PUBLIC "-//W3C//DTD SVG 1.1//EN"
 "http://www.w3.org/Graphics/SVG/1.1/DTD/svg11.dtd">
<!-- Generated by graphviz version 2.36.0 (20140111.2315)
 -->
<!-- Title: src/CarCommunication/csCommunication.pb.cc Pages: 1 -->
<svg width="1399pt" height="176pt"
 viewBox="0.00 0.00 1399.00 176.00" xmlns="http://www.w3.org/2000/svg" xmlns:xlink="http://www.w3.org/1999/xlink">
<g id="graph0" class="graph" transform="scale(1 1) rotate(0) translate(4 172)">
<title>src/CarCommunication/csCommunication.pb.cc</title>
<!-- Node1 -->
<g id="node1" class="node"><title>Node1</title>
<polygon fill="#bfbfbf" stroke="black" points="648.5,-137 648.5,-167 773.5,-167 773.5,-137 648.5,-137"/>
<text text-anchor="start" x="656.5" y="-155" font-family="Helvetica,sans-Serif" font-size="10.00">src/CarCommunication</text>
<text text-anchor="middle" x="711" y="-144" font-family="Helvetica,sans-Serif" font-size="10.00">/csCommunication.pb.cc</text>
</g>
<!-- Node2 -->
<g id="node2" class="node"><title>Node2</title>
<g id="a_node2"><a xlink:href="csCommunication_8pb_8h.html" target="_top" xlink:title="csCommunication.pb.h">
<polygon fill="none" stroke="black" points="268.5,-74.5 268.5,-93.5 385.5,-93.5 385.5,-74.5 268.5,-74.5"/>
<text text-anchor="middle" x="327" y="-81.5" font-family="Helvetica,sans-Serif" font-size="10.00">csCommunication.pb.h</text>
</a>
</g>
</g>
<!-- Node1&#45;&gt;Node2 -->
<g id="edge1" class="edge"><title>Node1&#45;&gt;Node2</title>
<path fill="none" stroke="midnightblue" d="M648.459,-141.983C584.576,-132.52 482.611,-116.719 395,-100 388.218,-98.7058 381.078,-97.2426 374.077,-95.7501"/>
<polygon fill="midnightblue" stroke="midnightblue" points="374.492,-92.2588 363.977,-93.5588 373.008,-99.0996 374.492,-92.2588"/>
</g>
<!-- Node4 -->
<g id="node4" class="node"><title>Node4</title>
<polygon fill="none" stroke="#bfbfbf" points="0,-1 0,-31 110,-31 110,-1 0,-1"/>
<text text-anchor="start" x="8" y="-19" font-family="Helvetica,sans-Serif" font-size="10.00">google/protobuf/stubs</text>
<text text-anchor="middle" x="55" y="-8" font-family="Helvetica,sans-Serif" font-size="10.00">/common.h</text>
</g>
<!-- Node1&#45;&gt;Node4 -->
<g id="edge10" class="edge"><title>Node1&#45;&gt;Node4</title>
<path fill="none" stroke="midnightblue" d="M648.399,-149.28C560.419,-145.659 395.755,-134.469 260,-100 199.017,-84.5159 132.111,-54.8478 91.851,-35.4979"/>
<polygon fill="midnightblue" stroke="midnightblue" points="93.2233,-32.2735 82.6987,-31.0557 90.1667,-38.5709 93.2233,-32.2735"/>
</g>
<!-- Node10 -->
<g id="node10" class="node"><title>Node10</title>
<polygon fill="none" stroke="#bfbfbf" points="404,-74.5 404,-93.5 460,-93.5 460,-74.5 404,-74.5"/>
<text text-anchor="middle" x="432" y="-81.5" font-family="Helvetica,sans-Serif" font-size="10.00">algorithm</text>
</g>
<!-- Node1&#45;&gt;Node10 -->
<g id="edge9" class="edge"><title>Node1&#45;&gt;Node10</title>
<path fill="none" stroke="midnightblue" d="M648.31,-140.942C598.994,-132.277 528.851,-118.28 469,-100 466.357,-99.1926 463.639,-98.2729 460.935,-97.2953"/>
<polygon fill="midnightblue" stroke="midnightblue" points="461.942,-93.9327 451.353,-93.5992 459.423,-100.464 461.942,-93.9327"/>
</g>
<!-- Node11 -->
<g id="node11" class="node"><title>Node11</title>
<polygon fill="none" stroke="#bfbfbf" points="478,-69 478,-99 588,-99 588,-69 478,-69"/>
<text text-anchor="start" x="486" y="-87" font-family="Helvetica,sans-Serif" font-size="10.00">google/protobuf/stubs</text>
<text text-anchor="middle" x="533" y="-76" font-family="Helvetica,sans-Serif" font-size="10.00">/once.h</text>
</g>
<!-- Node1&#45;&gt;Node11 -->
<g id="edge11" class="edge"><title>Node1&#45;&gt;Node11</title>
<path fill="none" stroke="midnightblue" d="M672.815,-136.841C645.74,-126.802 609.23,-113.265 580.309,-102.542"/>
<polygon fill="midnightblue" stroke="midnightblue" points="581.409,-99.2168 570.816,-99.0218 578.976,-105.78 581.409,-99.2168"/>
</g>
<!-- Node12 -->
<g id="node12" class="node"><title>Node12</title>
<polygon fill="none" stroke="#bfbfbf" points="606,-69 606,-99 700,-99 700,-69 606,-69"/>
<text text-anchor="start" x="614" y="-87" font-family="Helvetica,sans-Serif" font-size="10.00">google/protobuf/io</text>
<text text-anchor="middle" x="653" y="-76" font-family="Helvetica,sans-Serif" font-size="10.00">/coded_stream.h</text>
</g>
<!-- Node1&#45;&gt;Node12 -->
<g id="edge12" class="edge"><title>Node1&#45;&gt;Node12</title>
<path fill="none" stroke="midnightblue" d="M698.415,-136.679C690.814,-128.03 680.971,-116.829 672.392,-107.067"/>
<polygon fill="midnightblue" stroke="midnightblue" points="674.791,-104.494 665.561,-99.2931 669.533,-109.115 674.791,-104.494"/>
</g>
<!-- Node13 -->
<g id="node13" class="node"><title>Node13</title>
<polygon fill="none" stroke="#bfbfbf" points="718,-69 718,-99 822,-99 822,-69 718,-69"/>
<text text-anchor="start" x="726" y="-87" font-family="Helvetica,sans-Serif" font-size="10.00">google/protobuf/wire</text>
<text text-anchor="middle" x="770" y="-76" font-family="Helvetica,sans-Serif" font-size="10.00">_format_lite_inl.h</text>
</g>
<!-- Node1&#45;&gt;Node13 -->
<g id="edge13" class="edge"><title>Node1&#45;&gt;Node13</title>
<path fill="none" stroke="midnightblue" d="M723.802,-136.679C731.611,-127.944 741.747,-116.605 750.535,-106.775"/>
<polygon fill="midnightblue" stroke="midnightblue" points="753.168,-109.081 757.223,-99.2931 747.949,-104.416 753.168,-109.081"/>
</g>
<!-- Node14 -->
<g id="node14" class="node"><title>Node14</title>
<polygon fill="none" stroke="#bfbfbf" points="840.5,-74.5 840.5,-93.5 977.5,-93.5 977.5,-74.5 840.5,-74.5"/>
<text text-anchor="middle" x="909" y="-81.5" font-family="Helvetica,sans-Serif" font-size="10.00">google/protobuf/descriptor.h</text>
</g>
<!-- Node1&#45;&gt;Node14 -->
<g id="edge14" class="edge"><title>Node1&#45;&gt;Node14</title>
<path fill="none" stroke="midnightblue" d="M753.476,-136.841C789.209,-124.93 839.718,-108.094 873.371,-96.8762"/>
<polygon fill="midnightblue" stroke="midnightblue" points="874.86,-100.07 883.24,-93.5868 872.646,-93.4288 874.86,-100.07"/>
</g>
<!-- Node15 -->
<g id="node15" class="node"><title>Node15</title>
<polygon fill="none" stroke="#bfbfbf" points="995.5,-69 995.5,-99 1124.5,-99 1124.5,-69 995.5,-69"/>
<text text-anchor="start" x="1003.5" y="-87" font-family="Helvetica,sans-Serif" font-size="10.00">google/protobuf/generated</text>
<text text-anchor="middle" x="1060" y="-76" font-family="Helvetica,sans-Serif" font-size="10.00">_message_reflection.h</text>
</g>
<!-- Node1&#45;&gt;Node15 -->
<g id="edge15" class="edge"><title>Node1&#45;&gt;Node15</title>
<path fill="none" stroke="midnightblue" d="M773.584,-139.699C827.071,-129.972 906.358,-115.387 985.312,-100.115"/>
<polygon fill="midnightblue" stroke="midnightblue" points="986.287,-103.492 995.439,-98.1525 984.955,-96.6195 986.287,-103.492"/>
</g>
<!-- Node16 -->
<g id="node16" class="node"><title>Node16</title>
<polygon fill="none" stroke="#bfbfbf" points="1143,-69 1143,-99 1269,-99 1269,-69 1143,-69"/>
<text text-anchor="start" x="1151" y="-87" font-family="Helvetica,sans-Serif" font-size="10.00">google/protobuf/reflection</text>
<text text-anchor="middle" x="1206" y="-76" font-family="Helvetica,sans-Serif" font-size="10.00">_ops.h</text>
</g>
<!-- Node1&#45;&gt;Node16 -->
<g id="edge16" class="edge"><title>Node1&#45;&gt;Node16</title>
<path fill="none" stroke="midnightblue" d="M773.789,-145.044C854.409,-137.032 998.814,-121.457 1132.72,-99.954"/>
<polygon fill="midnightblue" stroke="midnightblue" points="1133.44,-103.383 1142.75,-98.3286 1132.32,-96.4731 1133.44,-103.383"/>
</g>
<!-- Node17 -->
<g id="node17" class="node"><title>Node17</title>
<polygon fill="none" stroke="#bfbfbf" points="1287,-69 1287,-99 1391,-99 1391,-69 1287,-69"/>
<text text-anchor="start" x="1295" y="-87" font-family="Helvetica,sans-Serif" font-size="10.00">google/protobuf/wire</text>
<text text-anchor="middle" x="1339" y="-76" font-family="Helvetica,sans-Serif" font-size="10.00">_format.h</text>
</g>
<!-- Node1&#45;&gt;Node17 -->
<g id="edge17" class="edge"><title>Node1&#45;&gt;Node17</title>
<path fill="none" stroke="midnightblue" d="M773.901,-148.455C877.093,-143.599 1088.82,-130.772 1276.8,-100.038"/>
<polygon fill="midnightblue" stroke="midnightblue" points="1277.57,-103.458 1286.86,-98.3707 1276.43,-96.5516 1277.57,-103.458"/>
</g>
<!-- Node3 -->
<g id="node3" class="node"><title>Node3</title>
<polygon fill="none" stroke="#bfbfbf" points="128.5,-6.5 128.5,-25.5 169.5,-25.5 169.5,-6.5 128.5,-6.5"/>
<text text-anchor="middle" x="149" y="-13.5" font-family="Helvetica,sans-Serif" font-size="10.00">string</text>
</g>
<!-- Node2&#45;&gt;Node3 -->
<g id="edge2" class="edge"><title>Node2&#45;&gt;Node3</title>
<path fill="none" stroke="midnightblue" d="M298.765,-74.4919C268.674,-65.143 219.841,-49.1589 179,-32 177.591,-31.4079 176.155,-30.7795 174.713,-30.1286"/>
<polygon fill="midnightblue" stroke="midnightblue" points="175.855,-26.7956 165.323,-25.649 172.841,-33.1135 175.855,-26.7956"/>
</g>
<!-- Node2&#45;&gt;Node4 -->
<g id="edge3" class="edge"><title>Node2&#45;&gt;Node4</title>
<path fill="none" stroke="midnightblue" d="M291.72,-74.4393C248.349,-63.9156 173.889,-45.848 120.042,-32.7823"/>
<polygon fill="midnightblue" stroke="midnightblue" points="120.783,-29.3607 110.24,-30.4038 119.133,-36.1633 120.783,-29.3607"/>
</g>
<!-- Node5 -->
<g id="node5" class="node"><title>Node5</title>
<polygon fill="none" stroke="#bfbfbf" points="187.5,-1 187.5,-31 316.5,-31 316.5,-1 187.5,-1"/>
<text text-anchor="start" x="195.5" y="-19" font-family="Helvetica,sans-Serif" font-size="10.00">google/protobuf/generated</text>
<text text-anchor="middle" x="252" y="-8" font-family="Helvetica,sans-Serif" font-size="10.00">_message_util.h</text>
</g>
<!-- Node2&#45;&gt;Node5 -->
<g id="edge4" class="edge"><title>Node2&#45;&gt;Node5</title>
<path fill="none" stroke="midnightblue" d="M317.195,-74.3717C306.773,-65.2 289.902,-50.3536 275.934,-38.0615"/>
<polygon fill="midnightblue" stroke="midnightblue" points="277.935,-35.1603 268.115,-31.1815 273.31,-40.4153 277.935,-35.1603"/>
</g>
<!-- Node6 -->
<g id="node6" class="node"><title>Node6</title>
<polygon fill="none" stroke="#bfbfbf" points="335,-6.5 335,-25.5 469,-25.5 469,-6.5 335,-6.5"/>
<text text-anchor="middle" x="402" y="-13.5" font-family="Helvetica,sans-Serif" font-size="10.00">google/protobuf/message.h</text>
</g>
<!-- Node2&#45;&gt;Node6 -->
<g id="edge5" class="edge"><title>Node2&#45;&gt;Node6</title>
<path fill="none" stroke="midnightblue" d="M336.805,-74.3717C348.866,-63.7581 369.562,-45.5453 384.403,-32.4855"/>
<polygon fill="midnightblue" stroke="midnightblue" points="386.758,-35.0749 391.953,-25.8411 382.134,-29.8199 386.758,-35.0749"/>
</g>
<!-- Node7 -->
<g id="node7" class="node"><title>Node7</title>
<polygon fill="none" stroke="#bfbfbf" points="487,-1 487,-31 611,-31 611,-1 487,-1"/>
<text text-anchor="start" x="495" y="-19" font-family="Helvetica,sans-Serif" font-size="10.00">google/protobuf/repeated</text>
<text text-anchor="middle" x="549" y="-8" font-family="Helvetica,sans-Serif" font-size="10.00">_field.h</text>
</g>
<!-- Node2&#45;&gt;Node7 -->
<g id="edge6" class="edge"><title>Node2&#45;&gt;Node7</title>
<path fill="none" stroke="midnightblue" d="M356.023,-74.3717C390.442,-64.139 448.621,-46.8425 492.119,-33.9105"/>
<polygon fill="midnightblue" stroke="midnightblue" points="493.132,-37.2609 501.72,-31.0562 491.137,-30.5511 493.132,-37.2609"/>
</g>
<!-- Node8 -->
<g id="node8" class="node"><title>Node8</title>
<polygon fill="none" stroke="#bfbfbf" points="629,-1 629,-31 757,-31 757,-1 629,-1"/>
<text text-anchor="start" x="637" y="-19" font-family="Helvetica,sans-Serif" font-size="10.00">google/protobuf/extension</text>
<text text-anchor="middle" x="693" y="-8" font-family="Helvetica,sans-Serif" font-size="10.00">_set.h</text>
</g>
<!-- Node2&#45;&gt;Node8 -->
<g id="edge7" class="edge"><title>Node2&#45;&gt;Node8</title>
<path fill="none" stroke="midnightblue" d="M363.976,-74.4367C374.018,-72.2225 384.906,-69.9229 395,-68 494.052,-49.1319 519.79,-50.0196 619,-32 619.101,-31.9817 619.202,-31.9634 619.303,-31.945"/>
<polygon fill="midnightblue" stroke="midnightblue" points="619.664,-35.4379 628.855,-30.1682 618.384,-28.5559 619.664,-35.4379"/>
</g>
<!-- Node9 -->
<g id="node9" class="node"><title>Node9</title>
<polygon fill="none" stroke="#bfbfbf" points="775.5,-1 775.5,-31 900.5,-31 900.5,-1 775.5,-1"/>
<text text-anchor="start" x="783.5" y="-19" font-family="Helvetica,sans-Serif" font-size="10.00">google/protobuf/unknown</text>
<text text-anchor="middle" x="838" y="-8" font-family="Helvetica,sans-Serif" font-size="10.00">_field_set.h</text>
</g>
<!-- Node2&#45;&gt;Node9 -->
<g id="edge8" class="edge"><title>Node2&#45;&gt;Node9</title>
<path fill="none" stroke="midnightblue" d="M361.79,-74.4813C372.401,-72.1116 384.134,-69.7193 395,-68 555.432,-42.616 600.475,-56.3673 765.252,-31.9954"/>
<polygon fill="midnightblue" stroke="midnightblue" points="765.876,-35.4412 775.244,-30.493 764.835,-28.519 765.876,-35.4412"/>
</g>
</g>
</svg>
