<?xml version="1.0" encoding="UTF-8" standalone="no"?>
<!DOCTYPE svg PUBLIC "-//W3C//DTD SVG 1.1//EN"
 "http://www.w3.org/Graphics/SVG/1.1/DTD/svg11.dtd">
<!-- Generated by graphviz version 2.36.0 (20140111.2315)
 -->
<!-- Title: src/test/d.h Pages: 1 -->
<svg width="86pt" height="84pt"
 viewBox="0.00 0.00 86.00 84.00" xmlns="http://www.w3.org/2000/svg" xmlns:xlink="http://www.w3.org/1999/xlink">
<g id="graph0" class="graph" transform="scale(1 1) rotate(0) translate(4 80)">
<title>src/test/d.h</title>
<!-- Node1 -->
<g id="node1" class="node"><title>Node1</title>
<polygon fill="#bfbfbf" stroke="black" points="6,-56.5 6,-75.5 72,-75.5 72,-56.5 6,-56.5"/>
<text text-anchor="middle" x="39" y="-63.5" font-family="Helvetica,sans-Serif" font-size="10.00">src/test/d.h</text>
</g>
<!-- Node2 -->
<g id="node2" class="node"><title>Node2</title>
<g id="a_node2"><a xlink:href="a_8h.html" target="_top" xlink:title="a.h">
<polygon fill="none" stroke="black" points="0,-0.5 0,-19.5 30,-19.5 30,-0.5 0,-0.5"/>
<text text-anchor="middle" x="15" y="-7.5" font-family="Helvetica,sans-Serif" font-size="10.00">a.h</text>
</a>
</g>
</g>
<!-- Node1&#45;&gt;Node2 -->
<g id="edge1" class="edge"><title>Node1&#45;&gt;Node2</title>
<path fill="none" stroke="midnightblue" d="M35.0369,-56.083C31.7867,-48.77 27.0806,-38.1814 23.046,-29.1034"/>
<polygon fill="midnightblue" stroke="midnightblue" points="26.1492,-27.4677 18.8894,-19.7511 19.7525,-30.3107 26.1492,-27.4677"/>
</g>
<!-- Node3 -->
<g id="node3" class="node"><title>Node3</title>
<g id="a_node3"><a xlink:href="b_8h.html" target="_top" xlink:title="b.h">
<polygon fill="none" stroke="black" points="48,-0.5 48,-19.5 78,-19.5 78,-0.5 48,-0.5"/>
<text text-anchor="middle" x="63" y="-7.5" font-family="Helvetica,sans-Serif" font-size="10.00">b.h</text>
</a>
</g>
</g>
<!-- Node1&#45;&gt;Node3 -->
<g id="edge2" class="edge"><title>Node1&#45;&gt;Node3</title>
<path fill="none" stroke="midnightblue" d="M42.9631,-56.083C46.2133,-48.77 50.9194,-38.1814 54.954,-29.1034"/>
<polygon fill="midnightblue" stroke="midnightblue" points="58.2475,-30.3107 59.1106,-19.7511 51.8508,-27.4677 58.2475,-30.3107"/>
</g>
</g>
</svg>
