<?xml version="1.0" encoding="UTF-8" standalone="no"?>
<!DOCTYPE svg PUBLIC "-//W3C//DTD SVG 1.1//EN"
 "http://www.w3.org/Graphics/SVG/1.1/DTD/svg11.dtd">
<!-- Generated by graphviz version 2.36.0 (20140111.2315)
 -->
<!-- Title: src/ObjectDetection/detectionMain.cpp Pages: 1 -->
<svg width="302pt" height="264pt"
 viewBox="0.00 0.00 302.00 264.00" xmlns="http://www.w3.org/2000/svg" xmlns:xlink="http://www.w3.org/1999/xlink">
<g id="graph0" class="graph" transform="scale(1 1) rotate(0) translate(4 260)">
<title>src/ObjectDetection/detectionMain.cpp</title>
<!-- Node1 -->
<g id="node1" class="node"><title>Node1</title>
<polygon fill="#bfbfbf" stroke="black" points="11,-225 11,-255 115,-255 115,-225 11,-225"/>
<text text-anchor="start" x="19" y="-243" font-family="Helvetica,sans-Serif" font-size="10.00">src/ObjectDetection</text>
<text text-anchor="middle" x="63" y="-232" font-family="Helvetica,sans-Serif" font-size="10.00">/detectionMain.cpp</text>
</g>
<!-- Node2 -->
<g id="node2" class="node"><title>Node2</title>
<polygon fill="none" stroke="#bfbfbf" points="-0.5,-0.5 -0.5,-19.5 106.5,-19.5 106.5,-0.5 -0.5,-0.5"/>
<text text-anchor="middle" x="53" y="-7.5" font-family="Helvetica,sans-Serif" font-size="10.00">opencv2/opencv.hpp</text>
</g>
<!-- Node1&#45;&gt;Node2 -->
<g id="edge1" class="edge"><title>Node1&#45;&gt;Node2</title>
<path fill="none" stroke="midnightblue" d="M62.0132,-224.618C60.1077,-196.223 55.9389,-130.949 54,-76 53.4521,-60.4719 53.2043,-42.8467 53.0923,-29.8708"/>
<polygon fill="midnightblue" stroke="midnightblue" points="56.592,-29.8103 53.0246,-19.8342 49.5922,-29.8576 56.592,-29.8103"/>
</g>
<!-- Node3 -->
<g id="node3" class="node"><title>Node3</title>
<g id="a_node3"><a xlink:href="detection_8h.html" target="_top" xlink:title="detection.h">
<polygon fill="none" stroke="black" points="74.5,-168.5 74.5,-187.5 139.5,-187.5 139.5,-168.5 74.5,-168.5"/>
<text text-anchor="middle" x="107" y="-175.5" font-family="Helvetica,sans-Serif" font-size="10.00">detection.h</text>
</a>
</g>
</g>
<!-- Node1&#45;&gt;Node3 -->
<g id="edge2" class="edge"><title>Node1&#45;&gt;Node3</title>
<path fill="none" stroke="midnightblue" d="M73.4274,-224.781C79.7552,-216.152 87.8686,-205.088 94.5343,-195.999"/>
<polygon fill="midnightblue" stroke="midnightblue" points="97.5064,-197.864 100.598,-187.731 91.8615,-193.725 97.5064,-197.864"/>
</g>
<!-- Node3&#45;&gt;Node2 -->
<g id="edge3" class="edge"><title>Node3&#45;&gt;Node2</title>
<path fill="none" stroke="midnightblue" d="M99.668,-168.293C92.7659,-159.639 82.6663,-145.711 77,-132 62.7357,-97.4853 56.7683,-53.847 54.4132,-29.53"/>
<polygon fill="midnightblue" stroke="midnightblue" points="57.8982,-29.2038 53.5475,-19.5434 50.9243,-29.8084 57.8982,-29.2038"/>
</g>
<!-- Node4 -->
<g id="node4" class="node"><title>Node4</title>
<g id="a_node4"><a xlink:href="people__detector_8h.html" target="_top" xlink:title="people_detector.h">
<polygon fill="none" stroke="black" points="86,-112.5 86,-131.5 180,-131.5 180,-112.5 86,-112.5"/>
<text text-anchor="middle" x="133" y="-119.5" font-family="Helvetica,sans-Serif" font-size="10.00">people_detector.h</text>
</a>
</g>
</g>
<!-- Node3&#45;&gt;Node4 -->
<g id="edge4" class="edge"><title>Node3&#45;&gt;Node4</title>
<path fill="none" stroke="midnightblue" d="M111.293,-168.083C114.852,-160.691 120.022,-149.953 124.424,-140.811"/>
<polygon fill="midnightblue" stroke="midnightblue" points="127.602,-142.279 128.787,-131.751 121.295,-139.243 127.602,-142.279"/>
</g>
<!-- Node7 -->
<g id="node7" class="node"><title>Node7</title>
<g id="a_node7"><a xlink:href="vehicle__detector_8h.html" target="_top" xlink:title="vehicle_detector.h">
<polygon fill="none" stroke="black" points="198,-112.5 198,-131.5 294,-131.5 294,-112.5 198,-112.5"/>
<text text-anchor="middle" x="246" y="-119.5" font-family="Helvetica,sans-Serif" font-size="10.00">vehicle_detector.h</text>
</a>
</g>
</g>
<!-- Node3&#45;&gt;Node7 -->
<g id="edge8" class="edge"><title>Node3&#45;&gt;Node7</title>
<path fill="none" stroke="midnightblue" d="M129.025,-168.444C152.104,-159.478 188.562,-145.314 214.641,-135.183"/>
<polygon fill="midnightblue" stroke="midnightblue" points="216.024,-138.4 224.078,-131.516 213.489,-131.875 216.024,-138.4"/>
</g>
<!-- Node5 -->
<g id="node5" class="node"><title>Node5</title>
<g id="a_node5"><a xlink:href="detector_8h.html" target="_top" xlink:title="detector.h">
<polygon fill="none" stroke="black" points="107,-56.5 107,-75.5 167,-75.5 167,-56.5 107,-56.5"/>
<text text-anchor="middle" x="137" y="-63.5" font-family="Helvetica,sans-Serif" font-size="10.00">detector.h</text>
</a>
</g>
</g>
<!-- Node4&#45;&gt;Node5 -->
<g id="edge5" class="edge"><title>Node4&#45;&gt;Node5</title>
<path fill="none" stroke="midnightblue" d="M133.661,-112.083C134.185,-105.006 134.936,-94.8611 135.594,-85.9865"/>
<polygon fill="midnightblue" stroke="midnightblue" points="139.103,-85.9823 136.352,-75.7511 132.123,-85.4652 139.103,-85.9823"/>
</g>
<!-- Node5&#45;&gt;Node2 -->
<g id="edge6" class="edge"><title>Node5&#45;&gt;Node2</title>
<path fill="none" stroke="midnightblue" d="M123.504,-56.324C110.4,-47.9002 90.2881,-34.9709 74.8931,-25.0741"/>
<polygon fill="midnightblue" stroke="midnightblue" points="76.767,-22.118 66.4626,-19.6545 72.9817,-28.0063 76.767,-22.118"/>
</g>
<!-- Node6 -->
<g id="node6" class="node"><title>Node6</title>
<polygon fill="none" stroke="#bfbfbf" points="124,-0.5 124,-19.5 168,-19.5 168,-0.5 124,-0.5"/>
<text text-anchor="middle" x="146" y="-7.5" font-family="Helvetica,sans-Serif" font-size="10.00">vector</text>
</g>
<!-- Node5&#45;&gt;Node6 -->
<g id="edge7" class="edge"><title>Node5&#45;&gt;Node6</title>
<path fill="none" stroke="midnightblue" d="M138.486,-56.083C139.679,-48.9272 141.394,-38.6353 142.885,-29.6911"/>
<polygon fill="midnightblue" stroke="midnightblue" points="146.35,-30.1904 144.541,-19.7511 139.445,-29.0396 146.35,-30.1904"/>
</g>
<!-- Node7&#45;&gt;Node5 -->
<g id="edge9" class="edge"><title>Node7&#45;&gt;Node5</title>
<path fill="none" stroke="midnightblue" d="M228.487,-112.324C210.928,-103.625 183.669,-90.1202 163.469,-80.113"/>
<polygon fill="midnightblue" stroke="midnightblue" points="164.984,-76.9575 154.469,-75.6545 161.876,-83.23 164.984,-76.9575"/>
</g>
</g>
</svg>
