<?xml version="1.0" encoding="UTF-8" standalone="no"?>
<!DOCTYPE svg PUBLIC "-//W3C//DTD SVG 1.1//EN"
 "http://www.w3.org/Graphics/SVG/1.1/DTD/svg11.dtd">
<!-- Generated by graphviz version 2.36.0 (20140111.2315)
 -->
<!-- Title: src/ObjectDetection/detection.h Pages: 1 -->
<svg width="297pt" height="208pt"
 viewBox="0.00 0.00 297.00 208.00" xmlns="http://www.w3.org/2000/svg" xmlns:xlink="http://www.w3.org/1999/xlink">
<g id="graph0" class="graph" transform="scale(1 1) rotate(0) translate(4 204)">
<title>src/ObjectDetection/detection.h</title>
<!-- Node1 -->
<g id="node1" class="node"><title>Node1</title>
<polygon fill="#bfbfbf" stroke="black" points="76,-169 76,-199 180,-199 180,-169 76,-169"/>
<text text-anchor="start" x="84" y="-187" font-family="Helvetica,sans-Serif" font-size="10.00">src/ObjectDetection</text>
<text text-anchor="middle" x="128" y="-176" font-family="Helvetica,sans-Serif" font-size="10.00">/detection.h</text>
</g>
<!-- Node2 -->
<g id="node2" class="node"><title>Node2</title>
<polygon fill="none" stroke="#bfbfbf" points="-0.5,-0.5 -0.5,-19.5 106.5,-19.5 106.5,-0.5 -0.5,-0.5"/>
<text text-anchor="middle" x="53" y="-7.5" font-family="Helvetica,sans-Serif" font-size="10.00">opencv2/opencv.hpp</text>
</g>
<!-- Node1&#45;&gt;Node2 -->
<g id="edge1" class="edge"><title>Node1&#45;&gt;Node2</title>
<path fill="none" stroke="midnightblue" d="M106.266,-168.826C94.1988,-159.769 80.042,-146.936 72,-132 54.3333,-99.189 51.9506,-54.5974 52.2052,-29.7298"/>
<polygon fill="midnightblue" stroke="midnightblue" points="55.7095,-29.6131 52.4745,-19.5242 48.7119,-29.4284 55.7095,-29.6131"/>
</g>
<!-- Node3 -->
<g id="node3" class="node"><title>Node3</title>
<g id="a_node3"><a xlink:href="people__detector_8h.html" target="_top" xlink:title="people_detector.h">
<polygon fill="none" stroke="black" points="81,-112.5 81,-131.5 175,-131.5 175,-112.5 81,-112.5"/>
<text text-anchor="middle" x="128" y="-119.5" font-family="Helvetica,sans-Serif" font-size="10.00">people_detector.h</text>
</a>
</g>
</g>
<!-- Node1&#45;&gt;Node3 -->
<g id="edge2" class="edge"><title>Node1&#45;&gt;Node3</title>
<path fill="none" stroke="midnightblue" d="M128,-168.781C128,-160.781 128,-150.689 128,-142.017"/>
<polygon fill="midnightblue" stroke="midnightblue" points="131.5,-141.73 128,-131.731 124.5,-141.731 131.5,-141.73"/>
</g>
<!-- Node6 -->
<g id="node6" class="node"><title>Node6</title>
<g id="a_node6"><a xlink:href="vehicle__detector_8h.html" target="_top" xlink:title="vehicle_detector.h">
<polygon fill="none" stroke="black" points="193,-112.5 193,-131.5 289,-131.5 289,-112.5 193,-112.5"/>
<text text-anchor="middle" x="241" y="-119.5" font-family="Helvetica,sans-Serif" font-size="10.00">vehicle_detector.h</text>
</a>
</g>
</g>
<!-- Node1&#45;&gt;Node6 -->
<g id="edge6" class="edge"><title>Node1&#45;&gt;Node6</title>
<path fill="none" stroke="midnightblue" d="M154.493,-168.933C173.047,-159.081 197.683,-146 215.917,-136.318"/>
<polygon fill="midnightblue" stroke="midnightblue" points="217.612,-139.381 224.803,-131.6 214.33,-133.198 217.612,-139.381"/>
</g>
<!-- Node4 -->
<g id="node4" class="node"><title>Node4</title>
<g id="a_node4"><a xlink:href="detector_8h.html" target="_top" xlink:title="detector.h">
<polygon fill="none" stroke="black" points="107,-56.5 107,-75.5 167,-75.5 167,-56.5 107,-56.5"/>
<text text-anchor="middle" x="137" y="-63.5" font-family="Helvetica,sans-Serif" font-size="10.00">detector.h</text>
</a>
</g>
</g>
<!-- Node3&#45;&gt;Node4 -->
<g id="edge3" class="edge"><title>Node3&#45;&gt;Node4</title>
<path fill="none" stroke="midnightblue" d="M129.486,-112.083C130.679,-104.927 132.394,-94.6353 133.885,-85.6911"/>
<polygon fill="midnightblue" stroke="midnightblue" points="137.35,-86.1904 135.541,-75.7511 130.445,-85.0396 137.35,-86.1904"/>
</g>
<!-- Node4&#45;&gt;Node2 -->
<g id="edge4" class="edge"><title>Node4&#45;&gt;Node2</title>
<path fill="none" stroke="midnightblue" d="M123.504,-56.324C110.4,-47.9002 90.2881,-34.9709 74.8931,-25.0741"/>
<polygon fill="midnightblue" stroke="midnightblue" points="76.767,-22.118 66.4626,-19.6545 72.9817,-28.0063 76.767,-22.118"/>
</g>
<!-- Node5 -->
<g id="node5" class="node"><title>Node5</title>
<polygon fill="none" stroke="#bfbfbf" points="124,-0.5 124,-19.5 168,-19.5 168,-0.5 124,-0.5"/>
<text text-anchor="middle" x="146" y="-7.5" font-family="Helvetica,sans-Serif" font-size="10.00">vector</text>
</g>
<!-- Node4&#45;&gt;Node5 -->
<g id="edge5" class="edge"><title>Node4&#45;&gt;Node5</title>
<path fill="none" stroke="midnightblue" d="M138.486,-56.083C139.679,-48.9272 141.394,-38.6353 142.885,-29.6911"/>
<polygon fill="midnightblue" stroke="midnightblue" points="146.35,-30.1904 144.541,-19.7511 139.445,-29.0396 146.35,-30.1904"/>
</g>
<!-- Node6&#45;&gt;Node4 -->
<g id="edge7" class="edge"><title>Node6&#45;&gt;Node4</title>
<path fill="none" stroke="midnightblue" d="M224.291,-112.324C207.688,-103.703 181.998,-90.3643 162.78,-80.3855"/>
<polygon fill="midnightblue" stroke="midnightblue" points="164.156,-77.1565 153.668,-75.6545 160.93,-83.3689 164.156,-77.1565"/>
</g>
</g>
</svg>
