<?xml version="1.0" encoding="UTF-8" standalone="no"?>
<!DOCTYPE svg PUBLIC "-//W3C//DTD SVG 1.1//EN"
 "http://www.w3.org/Graphics/SVG/1.1/DTD/svg11.dtd">
<!-- Generated by graphviz version 2.36.0 (20140111.2315)
 -->
<!-- Title: src/ObjectDetection/detection.cpp Pages: 1 -->
<svg width="297pt" height="264pt"
 viewBox="0.00 0.00 297.00 264.00" xmlns="http://www.w3.org/2000/svg" xmlns:xlink="http://www.w3.org/1999/xlink">
<g id="graph0" class="graph" transform="scale(1 1) rotate(0) translate(4 260)">
<title>src/ObjectDetection/detection.cpp</title>
<!-- Node1 -->
<g id="node1" class="node"><title>Node1</title>
<polygon fill="#bfbfbf" stroke="black" points="138,-225 138,-255 242,-255 242,-225 138,-225"/>
<text text-anchor="start" x="146" y="-243" font-family="Helvetica,sans-Serif" font-size="10.00">src/ObjectDetection</text>
<text text-anchor="middle" x="190" y="-232" font-family="Helvetica,sans-Serif" font-size="10.00">/detection.cpp</text>
</g>
<!-- Node2 -->
<g id="node2" class="node"><title>Node2</title>
<g id="a_node2"><a xlink:href="detection_8h.html" target="_top" xlink:title="detection.h">
<polygon fill="none" stroke="black" points="96.5,-168.5 96.5,-187.5 161.5,-187.5 161.5,-168.5 96.5,-168.5"/>
<text text-anchor="middle" x="129" y="-175.5" font-family="Helvetica,sans-Serif" font-size="10.00">detection.h</text>
</a>
</g>
</g>
<!-- Node1&#45;&gt;Node2 -->
<g id="edge1" class="edge"><title>Node1&#45;&gt;Node2</title>
<path fill="none" stroke="midnightblue" d="M175.544,-224.781C166.406,-215.792 154.581,-204.162 145.138,-194.873"/>
<polygon fill="midnightblue" stroke="midnightblue" points="147.46,-192.248 137.876,-187.731 142.551,-197.238 147.46,-192.248"/>
</g>
<!-- Node4 -->
<g id="node4" class="node"><title>Node4</title>
<g id="a_node4"><a xlink:href="people__detector_8h.html" target="_top" xlink:title="people_detector.h">
<polygon fill="none" stroke="black" points="195,-112.5 195,-131.5 289,-131.5 289,-112.5 195,-112.5"/>
<text text-anchor="middle" x="242" y="-119.5" font-family="Helvetica,sans-Serif" font-size="10.00">people_detector.h</text>
</a>
</g>
</g>
<!-- Node1&#45;&gt;Node4 -->
<g id="edge9" class="edge"><title>Node1&#45;&gt;Node4</title>
<path fill="none" stroke="midnightblue" d="M196.376,-224.776C205.831,-203.686 223.561,-164.132 233.915,-141.036"/>
<polygon fill="midnightblue" stroke="midnightblue" points="237.2,-142.264 238.097,-131.707 230.812,-139.4 237.2,-142.264"/>
</g>
<!-- Node7 -->
<g id="node7" class="node"><title>Node7</title>
<g id="a_node7"><a xlink:href="vehicle__detector_8h.html" target="_top" xlink:title="vehicle_detector.h">
<polygon fill="none" stroke="black" points="81,-112.5 81,-131.5 177,-131.5 177,-112.5 81,-112.5"/>
<text text-anchor="middle" x="129" y="-119.5" font-family="Helvetica,sans-Serif" font-size="10.00">vehicle_detector.h</text>
</a>
</g>
</g>
<!-- Node1&#45;&gt;Node7 -->
<g id="edge10" class="edge"><title>Node1&#45;&gt;Node7</title>
<path fill="none" stroke="midnightblue" d="M188.01,-224.923C185.469,-210.044 180.131,-186.251 170,-168 163.936,-157.076 154.729,-146.645 146.576,-138.581"/>
<polygon fill="midnightblue" stroke="midnightblue" points="148.892,-135.955 139.218,-131.636 144.088,-141.045 148.892,-135.955"/>
</g>
<!-- Node3 -->
<g id="node3" class="node"><title>Node3</title>
<polygon fill="none" stroke="#bfbfbf" points="-0.5,-0.5 -0.5,-19.5 106.5,-19.5 106.5,-0.5 -0.5,-0.5"/>
<text text-anchor="middle" x="53" y="-7.5" font-family="Helvetica,sans-Serif" font-size="10.00">opencv2/opencv.hpp</text>
</g>
<!-- Node2&#45;&gt;Node3 -->
<g id="edge2" class="edge"><title>Node2&#45;&gt;Node3</title>
<path fill="none" stroke="midnightblue" d="M112.421,-168.487C99.2364,-160.801 81.4828,-148.217 72,-132 53.1893,-99.8312 51.2288,-55.0025 51.8637,-29.9216"/>
<polygon fill="midnightblue" stroke="midnightblue" points="55.3737,-29.7603 52.3041,-19.6199 48.3801,-29.4613 55.3737,-29.7603"/>
</g>
<!-- Node2&#45;&gt;Node4 -->
<g id="edge3" class="edge"><title>Node2&#45;&gt;Node4</title>
<path fill="none" stroke="midnightblue" d="M146.905,-168.444C165.254,-159.675 194.005,-145.935 215.094,-135.858"/>
<polygon fill="midnightblue" stroke="midnightblue" points="216.665,-138.986 224.179,-131.516 213.647,-132.67 216.665,-138.986"/>
</g>
<!-- Node2&#45;&gt;Node7 -->
<g id="edge7" class="edge"><title>Node2&#45;&gt;Node7</title>
<path fill="none" stroke="midnightblue" d="M129,-168.083C129,-161.006 129,-150.861 129,-141.986"/>
<polygon fill="midnightblue" stroke="midnightblue" points="132.5,-141.751 129,-131.751 125.5,-141.751 132.5,-141.751"/>
</g>
<!-- Node5 -->
<g id="node5" class="node"><title>Node5</title>
<g id="a_node5"><a xlink:href="detector_8h.html" target="_top" xlink:title="detector.h">
<polygon fill="none" stroke="black" points="107,-56.5 107,-75.5 167,-75.5 167,-56.5 107,-56.5"/>
<text text-anchor="middle" x="137" y="-63.5" font-family="Helvetica,sans-Serif" font-size="10.00">detector.h</text>
</a>
</g>
</g>
<!-- Node4&#45;&gt;Node5 -->
<g id="edge4" class="edge"><title>Node4&#45;&gt;Node5</title>
<path fill="none" stroke="midnightblue" d="M225.13,-112.324C208.291,-103.664 182.193,-90.2424 162.762,-80.249"/>
<polygon fill="midnightblue" stroke="midnightblue" points="164.322,-77.1155 153.828,-75.6545 161.12,-83.3405 164.322,-77.1155"/>
</g>
<!-- Node5&#45;&gt;Node3 -->
<g id="edge5" class="edge"><title>Node5&#45;&gt;Node3</title>
<path fill="none" stroke="midnightblue" d="M123.504,-56.324C110.4,-47.9002 90.2881,-34.9709 74.8931,-25.0741"/>
<polygon fill="midnightblue" stroke="midnightblue" points="76.767,-22.118 66.4626,-19.6545 72.9817,-28.0063 76.767,-22.118"/>
</g>
<!-- Node6 -->
<g id="node6" class="node"><title>Node6</title>
<polygon fill="none" stroke="#bfbfbf" points="124,-0.5 124,-19.5 168,-19.5 168,-0.5 124,-0.5"/>
<text text-anchor="middle" x="146" y="-7.5" font-family="Helvetica,sans-Serif" font-size="10.00">vector</text>
</g>
<!-- Node5&#45;&gt;Node6 -->
<g id="edge6" class="edge"><title>Node5&#45;&gt;Node6</title>
<path fill="none" stroke="midnightblue" d="M138.486,-56.083C139.679,-48.9272 141.394,-38.6353 142.885,-29.6911"/>
<polygon fill="midnightblue" stroke="midnightblue" points="146.35,-30.1904 144.541,-19.7511 139.445,-29.0396 146.35,-30.1904"/>
</g>
<!-- Node7&#45;&gt;Node5 -->
<g id="edge8" class="edge"><title>Node7&#45;&gt;Node5</title>
<path fill="none" stroke="midnightblue" d="M130.321,-112.083C131.381,-104.927 132.906,-94.6353 134.231,-85.6911"/>
<polygon fill="midnightblue" stroke="midnightblue" points="137.7,-86.1561 135.704,-75.7511 130.776,-85.1302 137.7,-86.1561"/>
</g>
</g>
</svg>
