<?xml version="1.0" encoding="UTF-8" standalone="no"?>
<!DOCTYPE svg PUBLIC "-//W3C//DTD SVG 1.1//EN"
 "http://www.w3.org/Graphics/SVG/1.1/DTD/svg11.dtd">
<!-- Generated by graphviz version 2.36.0 (20140111.2315)
 -->
<!-- Title: src/ObjectDetection/detector.h Pages: 1 -->
<svg width="419pt" height="244pt"
 viewBox="0.00 0.00 418.79 244.00" xmlns="http://www.w3.org/2000/svg" xmlns:xlink="http://www.w3.org/1999/xlink">
<g id="graph0" class="graph" transform="scale(1 1) rotate(0) translate(4 240)">
<title>src/ObjectDetection/detector.h</title>
<!-- Node1 -->
<g id="node1" class="node"><title>Node1</title>
<polygon fill="#bfbfbf" stroke="black" points="79.7878,-205 79.7878,-235 183.788,-235 183.788,-205 79.7878,-205"/>
<text text-anchor="start" x="87.7878" y="-223" font-family="Helvetica,sans-Serif" font-size="10.00">src/ObjectDetection</text>
<text text-anchor="middle" x="131.788" y="-212" font-family="Helvetica,sans-Serif" font-size="10.00">/detector.h</text>
</g>
<!-- Node2 -->
<g id="node2" class="node"><title>Node2</title>
<g id="a_node2"><a xlink:href="people__detector_8h.html" target="_top" xlink:title="src/ObjectDetection\l/people_detector.h">
<polygon fill="none" stroke="black" points="17.7878,-137 17.7878,-167 121.788,-167 121.788,-137 17.7878,-137"/>
<text text-anchor="start" x="25.7878" y="-155" font-family="Helvetica,sans-Serif" font-size="10.00">src/ObjectDetection</text>
<text text-anchor="middle" x="69.7878" y="-144" font-family="Helvetica,sans-Serif" font-size="10.00">/people_detector.h</text>
</a>
</g>
</g>
<!-- Node1&#45;&gt;Node2 -->
<g id="edge1" class="edge"><title>Node1&#45;&gt;Node2</title>
<path fill="none" stroke="midnightblue" d="M111.303,-197.194C102.066,-187.36 91.4152,-176.023 83.2146,-167.293"/>
<polygon fill="midnightblue" stroke="midnightblue" points="108.937,-199.787 118.335,-204.679 114.039,-194.994 108.937,-199.787"/>
</g>
<!-- Node7 -->
<g id="node7" class="node"><title>Node7</title>
<g id="a_node7"><a xlink:href="vehicle__detector_8h.html" target="_top" xlink:title="src/ObjectDetection\l/vehicle_detector.h">
<polygon fill="none" stroke="black" points="180.788,-137 180.788,-167 284.788,-167 284.788,-137 180.788,-137"/>
<text text-anchor="start" x="188.788" y="-155" font-family="Helvetica,sans-Serif" font-size="10.00">src/ObjectDetection</text>
<text text-anchor="middle" x="232.788" y="-144" font-family="Helvetica,sans-Serif" font-size="10.00">/vehicle_detector.h</text>
</a>
</g>
</g>
<!-- Node1&#45;&gt;Node7 -->
<g id="edge7" class="edge"><title>Node1&#45;&gt;Node7</title>
<path fill="none" stroke="midnightblue" d="M162.124,-199.176C177.957,-188.83 196.954,-176.416 211.262,-167.066"/>
<polygon fill="midnightblue" stroke="midnightblue" points="160.16,-196.279 153.703,-204.679 163.989,-202.139 160.16,-196.279"/>
</g>
<!-- Node3 -->
<g id="node3" class="node"><title>Node3</title>
<g id="a_node3"><a xlink:href="detection_8h.html" target="_top" xlink:title="src/ObjectDetection\l/detection.h">
<polygon fill="none" stroke="black" points="140.788,-69 140.788,-99 244.788,-99 244.788,-69 140.788,-69"/>
<text text-anchor="start" x="148.788" y="-87" font-family="Helvetica,sans-Serif" font-size="10.00">src/ObjectDetection</text>
<text text-anchor="middle" x="192.788" y="-76" font-family="Helvetica,sans-Serif" font-size="10.00">/detection.h</text>
</a>
</g>
</g>
<!-- Node2&#45;&gt;Node3 -->
<g id="edge2" class="edge"><title>Node2&#45;&gt;Node3</title>
<path fill="none" stroke="midnightblue" d="M105.095,-132.055C124.646,-121.564 148.539,-108.743 166.445,-99.1352"/>
<polygon fill="midnightblue" stroke="midnightblue" points="103.331,-129.029 96.1744,-136.841 106.641,-135.197 103.331,-129.029"/>
</g>
<!-- Node4 -->
<g id="node4" class="node"><title>Node4</title>
<g id="a_node4"><a xlink:href="detection_8cpp.html" target="_top" xlink:title="src/ObjectDetection\l/detection.cpp">
<polygon fill="none" stroke="black" points="180.788,-1 180.788,-31 284.788,-31 284.788,-1 180.788,-1"/>
<text text-anchor="start" x="188.788" y="-19" font-family="Helvetica,sans-Serif" font-size="10.00">src/ObjectDetection</text>
<text text-anchor="middle" x="232.788" y="-8" font-family="Helvetica,sans-Serif" font-size="10.00">/detection.cpp</text>
</a>
</g>
</g>
<!-- Node2&#45;&gt;Node4 -->
<g id="edge5" class="edge"><title>Node2&#45;&gt;Node4</title>
<path fill="none" stroke="midnightblue" d="M36.9675,-130.895C13.4479,-113.967 -11.3024,-89.1937 5.78779,-68 53.176,-9.23332 98.2375,-49.015 171.788,-32 174.657,-31.3363 177.599,-30.6458 180.567,-29.9415"/>
<polygon fill="midnightblue" stroke="midnightblue" points="35.2731,-133.977 45.4972,-136.756 39.2372,-128.208 35.2731,-133.977"/>
</g>
<!-- Node6 -->
<g id="node6" class="node"><title>Node6</title>
<g id="a_node6"><a xlink:href="people__detector_8cpp.html" target="_top" xlink:title="src/ObjectDetection\l/people_detector.cpp">
<polygon fill="none" stroke="black" points="15.2878,-69 15.2878,-99 122.288,-99 122.288,-69 15.2878,-69"/>
<text text-anchor="start" x="23.2878" y="-87" font-family="Helvetica,sans-Serif" font-size="10.00">src/ObjectDetection</text>
<text text-anchor="middle" x="68.7878" y="-76" font-family="Helvetica,sans-Serif" font-size="10.00">/people_detector.cpp</text>
</a>
</g>
</g>
<!-- Node2&#45;&gt;Node6 -->
<g id="edge6" class="edge"><title>Node2&#45;&gt;Node6</title>
<path fill="none" stroke="midnightblue" d="M69.4171,-126.532C69.2781,-117.361 69.1248,-107.245 69.0044,-99.2931"/>
<polygon fill="midnightblue" stroke="midnightblue" points="65.9196,-126.733 69.5708,-136.679 72.9188,-126.627 65.9196,-126.733"/>
</g>
<!-- Node3&#45;&gt;Node4 -->
<g id="edge3" class="edge"><title>Node3&#45;&gt;Node4</title>
<path fill="none" stroke="midnightblue" d="M206.716,-60.0187C212.505,-50.4665 219.044,-39.677 224.125,-31.2931"/>
<polygon fill="midnightblue" stroke="midnightblue" points="203.657,-58.3129 201.467,-68.679 209.643,-61.9411 203.657,-58.3129"/>
</g>
<!-- Node5 -->
<g id="node5" class="node"><title>Node5</title>
<g id="a_node5"><a xlink:href="detectionMain_8cpp.html" target="_top" xlink:title="src/ObjectDetection\l/detectionMain.cpp">
<polygon fill="none" stroke="black" points="58.7878,-1 58.7878,-31 162.788,-31 162.788,-1 58.7878,-1"/>
<text text-anchor="start" x="66.7878" y="-19" font-family="Helvetica,sans-Serif" font-size="10.00">src/ObjectDetection</text>
<text text-anchor="middle" x="110.788" y="-8" font-family="Helvetica,sans-Serif" font-size="10.00">/detectionMain.cpp</text>
</a>
</g>
</g>
<!-- Node3&#45;&gt;Node5 -->
<g id="edge4" class="edge"><title>Node3&#45;&gt;Node5</title>
<path fill="none" stroke="midnightblue" d="M167.081,-62.3094C154.45,-52.1426 139.558,-40.1562 128.264,-31.0663"/>
<polygon fill="midnightblue" stroke="midnightblue" points="165.01,-65.1354 174.995,-68.679 169.399,-59.6823 165.01,-65.1354"/>
</g>
<!-- Node7&#45;&gt;Node3 -->
<g id="edge8" class="edge"><title>Node7&#45;&gt;Node3</title>
<path fill="none" stroke="midnightblue" d="M218.86,-128.019C213.071,-118.467 206.531,-107.677 201.45,-99.2931"/>
<polygon fill="midnightblue" stroke="midnightblue" points="215.932,-129.941 224.108,-136.679 221.919,-126.313 215.932,-129.941"/>
</g>
<!-- Node7&#45;&gt;Node4 -->
<g id="edge9" class="edge"><title>Node7&#45;&gt;Node4</title>
<path fill="none" stroke="midnightblue" d="M244.698,-127.523C248.377,-119.07 251.945,-109.317 253.788,-100 256.548,-86.0482 256.548,-81.9518 253.788,-68 251.223,-55.0372 245.321,-41.2299 240.425,-31.2554"/>
<polygon fill="midnightblue" stroke="midnightblue" points="241.454,-126.2 240.425,-136.745 247.805,-129.143 241.454,-126.2"/>
</g>
<!-- Node8 -->
<g id="node8" class="node"><title>Node8</title>
<g id="a_node8"><a xlink:href="vehicle__detector_8cpp.html" target="_top" xlink:title="src/ObjectDetection\l/vehicle_detector.cpp">
<polygon fill="none" stroke="black" points="300.788,-69 300.788,-99 410.788,-99 410.788,-69 300.788,-69"/>
<text text-anchor="start" x="308.788" y="-87" font-family="Helvetica,sans-Serif" font-size="10.00">src/ObjectDetection</text>
<text text-anchor="middle" x="355.788" y="-76" font-family="Helvetica,sans-Serif" font-size="10.00">/vehicle_detector.cpp</text>
</a>
</g>
</g>
<!-- Node7&#45;&gt;Node8 -->
<g id="edge10" class="edge"><title>Node7&#45;&gt;Node8</title>
<path fill="none" stroke="midnightblue" d="M268.095,-132.055C287.646,-121.564 311.539,-108.743 329.445,-99.1352"/>
<polygon fill="midnightblue" stroke="midnightblue" points="266.331,-129.029 259.174,-136.841 269.641,-135.197 266.331,-129.029"/>
</g>
</g>
</svg>
