<?xml version="1.0" encoding="UTF-8" standalone="no"?>
<!DOCTYPE svg PUBLIC "-//W3C//DTD SVG 1.1//EN"
 "http://www.w3.org/Graphics/SVG/1.1/DTD/svg11.dtd">
<!-- Generated by graphviz version 2.36.0 (20140111.2315)
 -->
<!-- Title: src/ObjectDetection/element.h Pages: 1 -->
<!--zoomable 400 -->
<svg id="main" version="1.1" xmlns="http://www.w3.org/2000/svg" xmlns:xlink="http://www.w3.org/1999/xlink" xml:space="preserve" onload="init(evt)">
<style type="text/css"><![CDATA[
.edge:hover path { stroke: red; }
.edge:hover polygon { stroke: red; fill: red; }
]]></style>
<script type="text/javascript"><![CDATA[
var edges = document.getElementsByTagName('g');
if (edges && edges.length) {
  for (var i=0;i<edges.length;i++) {
    if (edges[i].id.substr(0,4)=='edge') {
      edges[i].setAttribute('class','edge');
    }
  }
}
]]></script>
        <defs>
                <circle id="rim" cx="0" cy="0" r="7"/>
                <circle id="rim2" cx="0" cy="0" r="3.5"/>
                <g id="zoomPlus">
                        <use xlink:href="#rim" fill="#404040">
                                <set attributeName="fill" to="#808080" begin="zoomplus.mouseover" end="zoomplus.mouseout"/>
                        </use>
                        <path d="M-4,0h8M0,-4v8" fill="none" stroke="white" stroke-width="1.5" pointer-events="none"/>
                </g>
                <g id="zoomMin">
                        <use xlink:href="#rim" fill="#404040">
                                <set attributeName="fill" to="#808080" begin="zoomminus.mouseover" end="zoomminus.mouseout"/>
                        </use>
                        <path d="M-4,0h8" fill="none" stroke="white" stroke-width="1.5" pointer-events="none"/>
                </g>
                <g id="dirArrow">
                        <path fill="none" stroke="white" stroke-width="1.5" d="M0,-3.0v7 M-2.5,-0.5L0,-3.0L2.5,-0.5"/>
                </g>
               <g id="resetDef">
                       <use xlink:href="#rim2" fill="#404040">
                               <set attributeName="fill" to="#808080" begin="reset.mouseover" end="reset.mouseout"/>
                       </use>
               </g>
        </defs>

<script type="text/javascript">
var viewWidth = 614;
var viewHeight = 400;
var sectionId = 'dynsection-1';
</script>
<script xlink:href="svgpan.js"/>
<svg id="graph" class="graph">
<g id="viewport">
<title>src/ObjectDetection/element.h</title>
<!-- Node1 -->
<g id="node1" class="node"><title>Node1</title>
<polygon fill="#bfbfbf" stroke="black" points="207,-361 207,-391 311,-391 311,-361 207,-361"/>
<text text-anchor="start" x="215" y="-379" font-family="Helvetica,sans-Serif" font-size="10.00">src/ObjectDetection</text>
<text text-anchor="middle" x="259" y="-368" font-family="Helvetica,sans-Serif" font-size="10.00">/element.h</text>
</g>
<!-- Node2 -->
<g id="node2" class="node"><title>Node2</title>
<g id="a_node2"><a xlink:href="element_8cpp.html" target="_top" xlink:title="src/ObjectDetection\l/element.cpp">
<polygon fill="none" stroke="black" points="0,-293 0,-323 104,-323 104,-293 0,-293"/>
<text text-anchor="start" x="8" y="-311" font-family="Helvetica,sans-Serif" font-size="10.00">src/ObjectDetection</text>
<text text-anchor="middle" x="52" y="-300" font-family="Helvetica,sans-Serif" font-size="10.00">/element.cpp</text>
</a>
</g>
</g>
<!-- Node1&#45;&gt;Node2 -->
<g id="edge1" class="edge"><title>Node1&#45;&gt;Node2</title>
<path fill="none" stroke="midnightblue" d="M205.094,-357.813C171.175,-346.998 127.949,-333.216 96.0849,-323.056"/>
<polygon fill="midnightblue" stroke="midnightblue" points="204.257,-361.219 214.847,-360.922 206.383,-354.55 204.257,-361.219"/>
</g>
<!-- Node3 -->
<g id="node3" class="node"><title>Node3</title>
<g id="a_node3"><a xlink:href="frame__detection__data_8h.html" target="_top" xlink:title="src/ObjectDetection\l/frame_detection_data.h">
<polygon fill="none" stroke="black" points="287,-293 287,-323 409,-323 409,-293 287,-293"/>
<text text-anchor="start" x="295" y="-311" font-family="Helvetica,sans-Serif" font-size="10.00">src/ObjectDetection</text>
<text text-anchor="middle" x="348" y="-300" font-family="Helvetica,sans-Serif" font-size="10.00">/frame_detection_data.h</text>
</a>
</g>
</g>
<!-- Node1&#45;&gt;Node3 -->
<g id="edge2" class="edge"><title>Node1&#45;&gt;Node3</title>
<path fill="none" stroke="midnightblue" d="M286.51,-354.599C300.303,-344.371 316.657,-332.243 329.032,-323.066"/>
<polygon fill="midnightblue" stroke="midnightblue" points="284.259,-351.911 278.312,-360.679 288.429,-357.534 284.259,-351.911"/>
</g>
<!-- Node6 -->
<g id="node6" class="node"><title>Node6</title>
<g id="a_node6"><a xlink:href="analyser_8cpp.html" target="_top" xlink:title="src/ScenarioAnalysation\l/analyser.cpp">
<polygon fill="none" stroke="black" points="135,-1 135,-31 257,-31 257,-1 135,-1"/>
<text text-anchor="start" x="143" y="-19" font-family="Helvetica,sans-Serif" font-size="10.00">src/ScenarioAnalysation</text>
<text text-anchor="middle" x="196" y="-8" font-family="Helvetica,sans-Serif" font-size="10.00">/analyser.cpp</text>
</a>
</g>
</g>
<!-- Node1&#45;&gt;Node6 -->
<g id="edge17" class="edge"><title>Node1&#45;&gt;Node6</title>
<path fill="none" stroke="midnightblue" d="M221.806,-356.019C184.328,-333.935 132,-293.67 132,-241 132,-241 132,-241 132,-166 132,-112.79 166.884,-56.9341 185.143,-31.3417"/>
<polygon fill="midnightblue" stroke="midnightblue" points="220.078,-359.062 230.499,-360.976 223.546,-352.982 220.078,-359.062"/>
</g>
<!-- Node7 -->
<g id="node7" class="node"><title>Node7</title>
<g id="a_node7"><a xlink:href="ScenarioAnalysation_2main_8cpp.html" target="_top" xlink:title="src/ScenarioAnalysation\l/main.cpp">
<polygon fill="none" stroke="black" points="469,-1 469,-31 591,-31 591,-1 469,-1"/>
<text text-anchor="start" x="477" y="-19" font-family="Helvetica,sans-Serif" font-size="10.00">src/ScenarioAnalysation</text>
<text text-anchor="middle" x="530" y="-8" font-family="Helvetica,sans-Serif" font-size="10.00">/main.cpp</text>
</a>
</g>
</g>
<!-- Node1&#45;&gt;Node7 -->
<g id="edge18" class="edge"><title>Node1&#45;&gt;Node7</title>
<path fill="none" stroke="midnightblue" d="M321.303,-364.152C421.176,-344.972 606,-301.328 606,-241 606,-241 606,-241 606,-166 606,-119.75 593.581,-108.363 571,-68 563.456,-54.5163 552.357,-40.9655 543.608,-31.2243"/>
<polygon fill="midnightblue" stroke="midnightblue" points="320.499,-360.742 311.325,-366.041 321.802,-367.62 320.499,-360.742"/>
</g>
<!-- Node8 -->
<g id="node8" class="node"><title>Node8</title>
<g id="a_node8"><a xlink:href="scenario_8h.html" target="_top" xlink:title="src/ScenarioAnalysation\l/scenario.h">
<polygon fill="none" stroke="black" points="198,-225 198,-255 320,-255 320,-225 198,-225"/>
<text text-anchor="start" x="206" y="-243" font-family="Helvetica,sans-Serif" font-size="10.00">src/ScenarioAnalysation</text>
<text text-anchor="middle" x="259" y="-232" font-family="Helvetica,sans-Serif" font-size="10.00">/scenario.h</text>
</a>
</g>
</g>
<!-- Node1&#45;&gt;Node8 -->
<g id="edge16" class="edge"><title>Node1&#45;&gt;Node8</title>
<path fill="none" stroke="midnightblue" d="M259,-350.524C259,-322.619 259,-277.94 259,-255.237"/>
<polygon fill="midnightblue" stroke="midnightblue" points="255.5,-350.66 259,-360.66 262.5,-350.66 255.5,-350.66"/>
</g>
<!-- Node4 -->
<g id="node4" class="node"><title>Node4</title>
<g id="a_node4"><a xlink:href="frame__detection__data_8cpp.html" target="_top" xlink:title="src/ObjectDetection\l/frame_detection_data.cpp">
<polygon fill="none" stroke="black" points="376,-225 376,-255 508,-255 508,-225 376,-225"/>
<text text-anchor="start" x="384" y="-243" font-family="Helvetica,sans-Serif" font-size="10.00">src/ObjectDetection</text>
<text text-anchor="middle" x="442" y="-232" font-family="Helvetica,sans-Serif" font-size="10.00">/frame_detection_data.cpp</text>
</a>
</g>
</g>
<!-- Node3&#45;&gt;Node4 -->
<g id="edge3" class="edge"><title>Node3&#45;&gt;Node4</title>
<path fill="none" stroke="midnightblue" d="M376.644,-286.888C391.297,-276.6 408.773,-264.329 421.966,-255.066"/>
<polygon fill="midnightblue" stroke="midnightblue" points="374.57,-284.068 368.397,-292.679 378.592,-289.797 374.57,-284.068"/>
</g>
<!-- Node5 -->
<g id="node5" class="node"><title>Node5</title>
<g id="a_node5"><a xlink:href="analyser_8h.html" target="_top" xlink:title="src/ScenarioAnalysation\l/analyser.h">
<polygon fill="none" stroke="black" points="198,-74 198,-104 320,-104 320,-74 198,-74"/>
<text text-anchor="start" x="206" y="-92" font-family="Helvetica,sans-Serif" font-size="10.00">src/ScenarioAnalysation</text>
<text text-anchor="middle" x="259" y="-81" font-family="Helvetica,sans-Serif" font-size="10.00">/analyser.h</text>
</a>
</g>
</g>
<!-- Node3&#45;&gt;Node5 -->
<g id="edge4" class="edge"><title>Node3&#45;&gt;Node5</title>
<path fill="none" stroke="midnightblue" d="M350.633,-282.4C353.007,-249.23 353.055,-189.333 329,-146 319.029,-128.039 300.73,-113.711 285.342,-104.046"/>
<polygon fill="midnightblue" stroke="midnightblue" points="347.129,-282.302 349.77,-292.562 354.104,-282.894 347.129,-282.302"/>
</g>
<!-- Node3&#45;&gt;Node7 -->
<g id="edge15" class="edge"><title>Node3&#45;&gt;Node7</title>
<path fill="none" stroke="midnightblue" d="M419.042,-301.456C452.917,-295.239 491.512,-282.378 517,-256 576.115,-194.821 570.887,-151.172 553,-68 550.182,-54.8958 543.718,-41.0996 538.359,-31.1653"/>
<polygon fill="midnightblue" stroke="midnightblue" points="418.45,-298.006 409.165,-303.11 419.606,-304.91 418.45,-298.006"/>
</g>
<!-- Node3&#45;&gt;Node8 -->
<g id="edge7" class="edge"><title>Node3&#45;&gt;Node8</title>
<path fill="none" stroke="midnightblue" d="M320.49,-286.599C306.697,-276.371 290.343,-264.243 277.968,-255.066"/>
<polygon fill="midnightblue" stroke="midnightblue" points="318.571,-289.534 328.688,-292.679 322.741,-283.911 318.571,-289.534"/>
</g>
<!-- Node5&#45;&gt;Node6 -->
<g id="edge5" class="edge"><title>Node5&#45;&gt;Node6</title>
<path fill="none" stroke="midnightblue" d="M239.679,-66.226C229.67,-54.9457 217.721,-41.4798 208.853,-31.4856"/>
<polygon fill="midnightblue" stroke="midnightblue" points="237.298,-68.8158 246.553,-73.9727 242.534,-64.1698 237.298,-68.8158"/>
</g>
<!-- Node5&#45;&gt;Node7 -->
<g id="edge6" class="edge"><title>Node5&#45;&gt;Node7</title>
<path fill="none" stroke="midnightblue" d="M317.337,-71.1909C321.281,-70.0983 325.196,-69.0258 329,-68 377.316,-54.9711 432.422,-41.0552 472.7,-31.0566"/>
<polygon fill="midnightblue" stroke="midnightblue" points="316.214,-67.8707 307.525,-73.9333 318.098,-74.6123 316.214,-67.8707"/>
</g>
<!-- Node8&#45;&gt;Node5 -->
<g id="edge8" class="edge"><title>Node8&#45;&gt;Node5</title>
<path fill="none" stroke="midnightblue" d="M219.322,-219.552C207.353,-211.549 195.638,-201.049 189,-188 180.537,-171.362 180.914,-162.824 189,-146 197.764,-127.765 215.679,-113.609 231.19,-104.091"/>
<polygon fill="midnightblue" stroke="midnightblue" points="217.67,-222.646 228.014,-224.939 221.358,-216.696 217.67,-222.646"/>
</g>
<!-- Node8&#45;&gt;Node7 -->
<g id="edge13" class="edge"><title>Node8&#45;&gt;Node7</title>
<path fill="none" stroke="midnightblue" d="M330.384,-228.916C400.512,-218.325 498.76,-201.381 511,-188 551.523,-143.699 540.125,-63.5479 533.357,-31.1529"/>
<polygon fill="midnightblue" stroke="midnightblue" points="329.627,-225.49 320.255,-230.431 330.663,-232.413 329.627,-225.49"/>
</g>
<!-- Node9 -->
<g id="node9" class="node"><title>Node9</title>
<g id="a_node9"><a xlink:href="humans__in__front__of__bus__scenario_8h.html" target="_top" xlink:title="src/ScenarioAnalysation\l/humans_in_front_of_bus\l_scenario.h">
<polygon fill="none" stroke="black" points="376,-146.5 376,-187.5 502,-187.5 502,-146.5 376,-146.5"/>
<text text-anchor="start" x="384" y="-175.5" font-family="Helvetica,sans-Serif" font-size="10.00">src/ScenarioAnalysation</text>
<text text-anchor="start" x="384" y="-164.5" font-family="Helvetica,sans-Serif" font-size="10.00">/humans_in_front_of_bus</text>
<text text-anchor="middle" x="439" y="-153.5" font-family="Helvetica,sans-Serif" font-size="10.00">_scenario.h</text>
</a>
</g>
</g>
<!-- Node8&#45;&gt;Node9 -->
<g id="edge9" class="edge"><title>Node8&#45;&gt;Node9</title>
<path fill="none" stroke="midnightblue" d="M304.17,-221.183C330.165,-210.929 362.861,-198.033 389.544,-187.507"/>
<polygon fill="midnightblue" stroke="midnightblue" points="302.58,-218.047 294.562,-224.973 305.149,-224.559 302.58,-218.047"/>
</g>
<!-- Node11 -->
<g id="node11" class="node"><title>Node11</title>
<g id="a_node11"><a xlink:href="scenario_8cpp.html" target="_top" xlink:title="src/ScenarioAnalysation\l/scenario.cpp">
<polygon fill="none" stroke="black" points="198,-152 198,-182 320,-182 320,-152 198,-152"/>
<text text-anchor="start" x="206" y="-170" font-family="Helvetica,sans-Serif" font-size="10.00">src/ScenarioAnalysation</text>
<text text-anchor="middle" x="259" y="-159" font-family="Helvetica,sans-Serif" font-size="10.00">/scenario.cpp</text>
</a>
</g>
</g>
<!-- Node8&#45;&gt;Node11 -->
<g id="edge14" class="edge"><title>Node8&#45;&gt;Node11</title>
<path fill="none" stroke="midnightblue" d="M259,-214.898C259,-204.131 259,-191.801 259,-182.486"/>
<polygon fill="midnightblue" stroke="midnightblue" points="255.5,-214.973 259,-224.973 262.5,-214.973 255.5,-214.973"/>
</g>
<!-- Node9&#45;&gt;Node5 -->
<g id="edge10" class="edge"><title>Node9&#45;&gt;Node5</title>
<path fill="none" stroke="midnightblue" d="M383.213,-142.446C353.466,-129.886 317.859,-114.852 292.41,-104.106"/>
<polygon fill="midnightblue" stroke="midnightblue" points="382.072,-145.763 392.646,-146.428 384.794,-139.314 382.072,-145.763"/>
</g>
<!-- Node9&#45;&gt;Node7 -->
<g id="edge12" class="edge"><title>Node9&#45;&gt;Node7</title>
<path fill="none" stroke="midnightblue" d="M456.493,-137.358C475.949,-105.501 506.586,-55.3373 521.405,-31.0731"/>
<polygon fill="midnightblue" stroke="midnightblue" points="453.309,-135.855 451.084,-146.214 459.283,-139.504 453.309,-135.855"/>
</g>
<!-- Node10 -->
<g id="node10" class="node"><title>Node10</title>
<g id="a_node10"><a xlink:href="humans__in__front__of__bus__scenario_8cpp.html" target="_top" xlink:title="src/ScenarioAnalysation\l/humans_in_front_of_bus\l_scenario.cpp">
<polygon fill="none" stroke="black" points="338,-68.5 338,-109.5 464,-109.5 464,-68.5 338,-68.5"/>
<text text-anchor="start" x="346" y="-97.5" font-family="Helvetica,sans-Serif" font-size="10.00">src/ScenarioAnalysation</text>
<text text-anchor="start" x="346" y="-86.5" font-family="Helvetica,sans-Serif" font-size="10.00">/humans_in_front_of_bus</text>
<text text-anchor="middle" x="401" y="-75.5" font-family="Helvetica,sans-Serif" font-size="10.00">_scenario.cpp</text>
</a>
</g>
</g>
<!-- Node9&#45;&gt;Node10 -->
<g id="edge11" class="edge"><title>Node9&#45;&gt;Node10</title>
<path fill="none" stroke="midnightblue" d="M424.733,-137.466C420.071,-128.143 415.004,-118.007 410.753,-109.506"/>
<polygon fill="midnightblue" stroke="midnightblue" points="421.611,-139.049 429.214,-146.428 427.872,-135.919 421.611,-139.049"/>
</g>
</g>
</svg>
        <g id="navigator" transform="translate(0 0)" fill="#404254">
                <rect fill="#f2f5e9" fill-opacity="0.5" stroke="#606060" stroke-width=".5" x="0" y="0" width="60" height="60"/>
                <use id="zoomplus" xlink:href="#zoomPlus" x="17" y="9" onmousedown="handleZoom(evt,'in')"/>
                <use id="zoomminus" xlink:href="#zoomMin" x="42" y="9" onmousedown="handleZoom(evt,'out')"/>
                <use id="reset" xlink:href="#resetDef" x="30" y="36" onmousedown="handleReset()"/>
                <g id="arrowUp" xlink:href="#dirArrow" transform="translate(30 24)" onmousedown="handlePan(0,-1)">
                  <use xlink:href="#rim" fill="#404040">
                        <set attributeName="fill" to="#808080" begin="arrowUp.mouseover" end="arrowUp.mouseout"/>
                  </use>
                  <path fill="none" stroke="white" stroke-width="1.5" d="M0,-3.0v7 M-2.5,-0.5L0,-3.0L2.5,-0.5"/>
                </g>
                <g id="arrowRight" xlink:href="#dirArrow" transform="rotate(90) translate(36 -43)" onmousedown="handlePan(1,0)">
                  <use xlink:href="#rim" fill="#404040">
                        <set attributeName="fill" to="#808080" begin="arrowRight.mouseover" end="arrowRight.mouseout"/>
                  </use>
                  <path fill="none" stroke="white" stroke-width="1.5" d="M0,-3.0v7 M-2.5,-0.5L0,-3.0L2.5,-0.5"/>
                </g>
                <g id="arrowDown" xlink:href="#dirArrow" transform="rotate(180) translate(-30 -48)" onmousedown="handlePan(0,1)">
                  <use xlink:href="#rim" fill="#404040">
                        <set attributeName="fill" to="#808080" begin="arrowDown.mouseover" end="arrowDown.mouseout"/>
                  </use>
                  <path fill="none" stroke="white" stroke-width="1.5" d="M0,-3.0v7 M-2.5,-0.5L0,-3.0L2.5,-0.5"/>
                </g>
                <g id="arrowLeft" xlink:href="#dirArrow" transform="rotate(270) translate(-36 17)" onmousedown="handlePan(-1,0)">
                  <use xlink:href="#rim" fill="#404040">
                        <set attributeName="fill" to="#808080" begin="arrowLeft.mouseover" end="arrowLeft.mouseout"/>
                  </use>
                  <path fill="none" stroke="white" stroke-width="1.5" d="M0,-3.0v7 M-2.5,-0.5L0,-3.0L2.5,-0.5"/>
                </g>
        </g>
        <svg viewBox="0 0 15 15" width="100%" height="30px" preserveAspectRatio="xMaxYMin meet">
         <g id="arrow_out" transform="scale(0.3 0.3)">
          <a xlink:href="element_8h__dep__incl_org.svg" target="_base">
           <rect id="button" ry="5" rx="5" y="6" x="6" height="38" width="38"
                fill="#f2f5e9" fill-opacity="0.5" stroke="#606060" stroke-width="1.0"/>
           <path id="arrow"
             d="M 11.500037,31.436501 C 11.940474,20.09759 22.043105,11.32322 32.158766,21.979434 L 37.068811,17.246167 C 37.068811,17.246167 37.088388,32 37.088388,32 L 22.160133,31.978069 C 22.160133,31.978069 26.997745,27.140456 26.997745,27.140456 C 18.528582,18.264221 13.291696,25.230495 11.500037,31.436501 z"
             style="fill:#404040;"/>
          </a>
         </g>
        </svg>
</svg>
