<?xml version="1.0" encoding="UTF-8" standalone="no"?>
<!DOCTYPE svg PUBLIC "-//W3C//DTD SVG 1.1//EN"
 "http://www.w3.org/Graphics/SVG/1.1/DTD/svg11.dtd">
<!-- Generated by graphviz version 2.36.0 (20140111.2315)
 -->
<!-- Title: src/ObjectDetection/element.cpp Pages: 1 -->
<svg width="112pt" height="152pt"
 viewBox="0.00 0.00 112.00 152.00" xmlns="http://www.w3.org/2000/svg" xmlns:xlink="http://www.w3.org/1999/xlink">
<g id="graph0" class="graph" transform="scale(1 1) rotate(0) translate(4 148)">
<title>src/ObjectDetection/element.cpp</title>
<!-- Node1 -->
<g id="node1" class="node"><title>Node1</title>
<polygon fill="#bfbfbf" stroke="black" points="0,-113 0,-143 104,-143 104,-113 0,-113"/>
<text text-anchor="start" x="8" y="-131" font-family="Helvetica,sans-Serif" font-size="10.00">src/ObjectDetection</text>
<text text-anchor="middle" x="52" y="-120" font-family="Helvetica,sans-Serif" font-size="10.00">/element.cpp</text>
</g>
<!-- Node2 -->
<g id="node2" class="node"><title>Node2</title>
<g id="a_node2"><a xlink:href="element_8h.html" target="_top" xlink:title="element.h">
<polygon fill="none" stroke="black" points="22.5,-56.5 22.5,-75.5 81.5,-75.5 81.5,-56.5 22.5,-56.5"/>
<text text-anchor="middle" x="52" y="-63.5" font-family="Helvetica,sans-Serif" font-size="10.00">element.h</text>
</a>
</g>
</g>
<!-- Node1&#45;&gt;Node2 -->
<g id="edge1" class="edge"><title>Node1&#45;&gt;Node2</title>
<path fill="none" stroke="midnightblue" d="M52,-112.781C52,-104.781 52,-94.6887 52,-86.0168"/>
<polygon fill="midnightblue" stroke="midnightblue" points="55.5001,-85.7305 52,-75.7305 48.5001,-85.7306 55.5001,-85.7305"/>
</g>
<!-- Node3 -->
<g id="node3" class="node"><title>Node3</title>
<polygon fill="none" stroke="#bfbfbf" points="30,-0.5 30,-19.5 74,-19.5 74,-0.5 30,-0.5"/>
<text text-anchor="middle" x="52" y="-7.5" font-family="Helvetica,sans-Serif" font-size="10.00">vector</text>
</g>
<!-- Node2&#45;&gt;Node3 -->
<g id="edge2" class="edge"><title>Node2&#45;&gt;Node3</title>
<path fill="none" stroke="midnightblue" d="M52,-56.083C52,-49.0059 52,-38.8611 52,-29.9865"/>
<polygon fill="midnightblue" stroke="midnightblue" points="55.5001,-29.751 52,-19.7511 48.5001,-29.7511 55.5001,-29.751"/>
</g>
</g>
</svg>
