<?xml version="1.0" encoding="UTF-8" standalone="no"?>
<!DOCTYPE svg PUBLIC "-//W3C//DTD SVG 1.1//EN"
 "http://www.w3.org/Graphics/SVG/1.1/DTD/svg11.dtd">
<!-- Generated by graphviz version 2.36.0 (20140111.2315)
 -->
<!-- Title: src/ObjectDetection/frame_detection_data.h Pages: 1 -->
<!--zoomable 332 -->
<svg id="main" version="1.1" xmlns="http://www.w3.org/2000/svg" xmlns:xlink="http://www.w3.org/1999/xlink" xml:space="preserve" onload="init(evt)">
<style type="text/css"><![CDATA[
.edge:hover path { stroke: red; }
.edge:hover polygon { stroke: red; fill: red; }
]]></style>
<script type="text/javascript"><![CDATA[
var edges = document.getElementsByTagName('g');
if (edges && edges.length) {
  for (var i=0;i<edges.length;i++) {
    if (edges[i].id.substr(0,4)=='edge') {
      edges[i].setAttribute('class','edge');
    }
  }
}
]]></script>
        <defs>
                <circle id="rim" cx="0" cy="0" r="7"/>
                <circle id="rim2" cx="0" cy="0" r="3.5"/>
                <g id="zoomPlus">
                        <use xlink:href="#rim" fill="#404040">
                                <set attributeName="fill" to="#808080" begin="zoomplus.mouseover" end="zoomplus.mouseout"/>
                        </use>
                        <path d="M-4,0h8M0,-4v8" fill="none" stroke="white" stroke-width="1.5" pointer-events="none"/>
                </g>
                <g id="zoomMin">
                        <use xlink:href="#rim" fill="#404040">
                                <set attributeName="fill" to="#808080" begin="zoomminus.mouseover" end="zoomminus.mouseout"/>
                        </use>
                        <path d="M-4,0h8" fill="none" stroke="white" stroke-width="1.5" pointer-events="none"/>
                </g>
                <g id="dirArrow">
                        <path fill="none" stroke="white" stroke-width="1.5" d="M0,-3.0v7 M-2.5,-0.5L0,-3.0L2.5,-0.5"/>
                </g>
               <g id="resetDef">
                       <use xlink:href="#rim2" fill="#404040">
                               <set attributeName="fill" to="#808080" begin="reset.mouseover" end="reset.mouseout"/>
                       </use>
               </g>
        </defs>

<script type="text/javascript">
var viewWidth = 563;
var viewHeight = 332;
var sectionId = 'dynsection-1';
</script>
<script xlink:href="svgpan.js"/>
<svg id="graph" class="graph">
<g id="viewport">
<title>src/ObjectDetection/frame_detection_data.h</title>
<!-- Node1 -->
<g id="node1" class="node"><title>Node1</title>
<polygon fill="#bfbfbf" stroke="black" points="163,-293 163,-323 285,-323 285,-293 163,-293"/>
<text text-anchor="start" x="171" y="-311" font-family="Helvetica,sans-Serif" font-size="10.00">src/ObjectDetection</text>
<text text-anchor="middle" x="224" y="-300" font-family="Helvetica,sans-Serif" font-size="10.00">/frame_detection_data.h</text>
</g>
<!-- Node2 -->
<g id="node2" class="node"><title>Node2</title>
<g id="a_node2"><a xlink:href="frame__detection__data_8cpp.html" target="_top" xlink:title="src/ObjectDetection\l/frame_detection_data.cpp">
<polygon fill="none" stroke="black" points="0,-225 0,-255 132,-255 132,-225 0,-225"/>
<text text-anchor="start" x="8" y="-243" font-family="Helvetica,sans-Serif" font-size="10.00">src/ObjectDetection</text>
<text text-anchor="middle" x="66" y="-232" font-family="Helvetica,sans-Serif" font-size="10.00">/frame_detection_data.cpp</text>
</a>
</g>
</g>
<!-- Node1&#45;&gt;Node2 -->
<g id="edge1" class="edge"><title>Node1&#45;&gt;Node2</title>
<path fill="none" stroke="midnightblue" d="M180.645,-288.89C155.079,-278.21 123.211,-264.898 99.5674,-255.022"/>
<polygon fill="midnightblue" stroke="midnightblue" points="179.529,-292.216 190.105,-292.841 182.227,-285.757 179.529,-292.216"/>
</g>
<!-- Node3 -->
<g id="node3" class="node"><title>Node3</title>
<g id="a_node3"><a xlink:href="analyser_8h.html" target="_top" xlink:title="src/ScenarioAnalysation\l/analyser.h">
<polygon fill="none" stroke="black" points="433,-74 433,-104 555,-104 555,-74 433,-74"/>
<text text-anchor="start" x="441" y="-92" font-family="Helvetica,sans-Serif" font-size="10.00">src/ScenarioAnalysation</text>
<text text-anchor="middle" x="494" y="-81" font-family="Helvetica,sans-Serif" font-size="10.00">/analyser.h</text>
</a>
</g>
</g>
<!-- Node1&#45;&gt;Node3 -->
<g id="edge2" class="edge"><title>Node1&#45;&gt;Node3</title>
<path fill="none" stroke="midnightblue" d="M295.257,-300.763C365.937,-290.332 470.619,-262.461 520,-188 537.414,-161.741 517.764,-124.291 504.368,-104.138"/>
<polygon fill="midnightblue" stroke="midnightblue" points="294.508,-297.334 285.086,-302.179 295.473,-304.267 294.508,-297.334"/>
</g>
<!-- Node5 -->
<g id="node5" class="node"><title>Node5</title>
<g id="a_node5"><a xlink:href="ScenarioAnalysation_2main_8cpp.html" target="_top" xlink:title="src/ScenarioAnalysation\l/main.cpp">
<polygon fill="none" stroke="black" points="215,-1 215,-31 337,-31 337,-1 215,-1"/>
<text text-anchor="start" x="223" y="-19" font-family="Helvetica,sans-Serif" font-size="10.00">src/ScenarioAnalysation</text>
<text text-anchor="middle" x="276" y="-8" font-family="Helvetica,sans-Serif" font-size="10.00">/main.cpp</text>
</a>
</g>
</g>
<!-- Node1&#45;&gt;Node5 -->
<g id="edge13" class="edge"><title>Node1&#45;&gt;Node5</title>
<path fill="none" stroke="midnightblue" d="M213.199,-283.835C194.047,-239.102 159.599,-138.99 198,-68 207.007,-51.35 224.073,-39.2664 239.951,-31.053"/>
<polygon fill="midnightblue" stroke="midnightblue" points="210.004,-285.263 217.244,-292.997 216.407,-282.436 210.004,-285.263"/>
</g>
<!-- Node6 -->
<g id="node6" class="node"><title>Node6</title>
<g id="a_node6"><a xlink:href="scenario_8h.html" target="_top" xlink:title="src/ScenarioAnalysation\l/scenario.h">
<polygon fill="none" stroke="black" points="228,-225 228,-255 350,-255 350,-225 228,-225"/>
<text text-anchor="start" x="236" y="-243" font-family="Helvetica,sans-Serif" font-size="10.00">src/ScenarioAnalysation</text>
<text text-anchor="middle" x="289" y="-232" font-family="Helvetica,sans-Serif" font-size="10.00">/scenario.h</text>
</a>
</g>
</g>
<!-- Node1&#45;&gt;Node6 -->
<g id="edge5" class="edge"><title>Node1&#45;&gt;Node6</title>
<path fill="none" stroke="midnightblue" d="M245.189,-285.485C254.939,-275.585 266.241,-264.109 274.923,-255.293"/>
<polygon fill="midnightblue" stroke="midnightblue" points="242.627,-283.098 238.104,-292.679 247.615,-288.01 242.627,-283.098"/>
</g>
<!-- Node4 -->
<g id="node4" class="node"><title>Node4</title>
<g id="a_node4"><a xlink:href="analyser_8cpp.html" target="_top" xlink:title="src/ScenarioAnalysation\l/analyser.cpp">
<polygon fill="none" stroke="black" points="433,-1 433,-31 555,-31 555,-1 433,-1"/>
<text text-anchor="start" x="441" y="-19" font-family="Helvetica,sans-Serif" font-size="10.00">src/ScenarioAnalysation</text>
<text text-anchor="middle" x="494" y="-8" font-family="Helvetica,sans-Serif" font-size="10.00">/analyser.cpp</text>
</a>
</g>
</g>
<!-- Node3&#45;&gt;Node4 -->
<g id="edge3" class="edge"><title>Node3&#45;&gt;Node4</title>
<path fill="none" stroke="midnightblue" d="M494,-63.8976C494,-53.1314 494,-40.8005 494,-31.4856"/>
<polygon fill="midnightblue" stroke="midnightblue" points="490.5,-63.9727 494,-73.9727 497.5,-63.9727 490.5,-63.9727"/>
</g>
<!-- Node3&#45;&gt;Node5 -->
<g id="edge4" class="edge"><title>Node3&#45;&gt;Node5</title>
<path fill="none" stroke="midnightblue" d="M441.227,-70.8125C403.878,-58.6483 354.4,-42.534 319.353,-31.1195"/>
<polygon fill="midnightblue" stroke="midnightblue" points="440.338,-74.2038 450.93,-73.9727 442.506,-67.5479 440.338,-74.2038"/>
</g>
<!-- Node6&#45;&gt;Node3 -->
<g id="edge6" class="edge"><title>Node6&#45;&gt;Node3</title>
<path fill="none" stroke="midnightblue" d="M360.025,-231.325C414.612,-223.79 483.548,-210.149 501,-188 520.108,-163.75 508.697,-124.802 500.371,-104.061"/>
<polygon fill="midnightblue" stroke="midnightblue" points="359.464,-227.869 350.015,-232.662 360.39,-234.808 359.464,-227.869"/>
</g>
<!-- Node6&#45;&gt;Node5 -->
<g id="edge11" class="edge"><title>Node6&#45;&gt;Node5</title>
<path fill="none" stroke="midnightblue" d="M247.91,-219.583C235.707,-211.622 223.794,-201.139 217,-188 192.502,-140.626 194.815,-116.5 217,-68 224.096,-52.4862 238.5,-39.8891 251.298,-31.0958"/>
<polygon fill="midnightblue" stroke="midnightblue" points="246.408,-222.765 256.778,-224.937 250.026,-216.772 246.408,-222.765"/>
</g>
<!-- Node7 -->
<g id="node7" class="node"><title>Node7</title>
<g id="a_node7"><a xlink:href="humans__in__front__of__bus__scenario_8h.html" target="_top" xlink:title="src/ScenarioAnalysation\l/humans_in_front_of_bus\l_scenario.h">
<polygon fill="none" stroke="black" points="226,-146.5 226,-187.5 352,-187.5 352,-146.5 226,-146.5"/>
<text text-anchor="start" x="234" y="-175.5" font-family="Helvetica,sans-Serif" font-size="10.00">src/ScenarioAnalysation</text>
<text text-anchor="start" x="234" y="-164.5" font-family="Helvetica,sans-Serif" font-size="10.00">/humans_in_front_of_bus</text>
<text text-anchor="middle" x="289" y="-153.5" font-family="Helvetica,sans-Serif" font-size="10.00">_scenario.h</text>
</a>
</g>
</g>
<!-- Node6&#45;&gt;Node7 -->
<g id="edge7" class="edge"><title>Node6&#45;&gt;Node7</title>
<path fill="none" stroke="midnightblue" d="M289,-214.853C289,-205.987 289,-196.065 289,-187.642"/>
<polygon fill="midnightblue" stroke="midnightblue" points="285.5,-214.973 289,-224.973 292.5,-214.973 285.5,-214.973"/>
</g>
<!-- Node9 -->
<g id="node9" class="node"><title>Node9</title>
<g id="a_node9"><a xlink:href="scenario_8cpp.html" target="_top" xlink:title="src/ScenarioAnalysation\l/scenario.cpp">
<polygon fill="none" stroke="black" points="370,-152 370,-182 492,-182 492,-152 370,-152"/>
<text text-anchor="start" x="378" y="-170" font-family="Helvetica,sans-Serif" font-size="10.00">src/ScenarioAnalysation</text>
<text text-anchor="middle" x="431" y="-159" font-family="Helvetica,sans-Serif" font-size="10.00">/scenario.cpp</text>
</a>
</g>
</g>
<!-- Node6&#45;&gt;Node9 -->
<g id="edge12" class="edge"><title>Node6&#45;&gt;Node9</title>
<path fill="none" stroke="midnightblue" d="M326.173,-220.414C350.043,-208.478 380.571,-193.215 402.518,-182.241"/>
<polygon fill="midnightblue" stroke="midnightblue" points="324.434,-217.37 317.055,-224.973 327.564,-223.631 324.434,-217.37"/>
</g>
<!-- Node7&#45;&gt;Node3 -->
<g id="edge8" class="edge"><title>Node7&#45;&gt;Node3</title>
<path fill="none" stroke="midnightblue" d="M351.218,-142.934C385.359,-130.277 426.59,-114.991 455.95,-104.106"/>
<polygon fill="midnightblue" stroke="midnightblue" points="349.952,-139.67 341.793,-146.428 352.386,-146.234 349.952,-139.67"/>
</g>
<!-- Node7&#45;&gt;Node5 -->
<g id="edge10" class="edge"><title>Node7&#45;&gt;Node5</title>
<path fill="none" stroke="midnightblue" d="M334.741,-140.451C345.286,-132.199 355.123,-122.016 361,-110 369.201,-93.2314 370.197,-84.2437 361,-68 351.419,-51.0775 333.735,-39.1576 316.968,-31.1211"/>
<polygon fill="midnightblue" stroke="midnightblue" points="332.618,-137.668 326.594,-146.383 336.738,-143.327 332.618,-137.668"/>
</g>
<!-- Node8 -->
<g id="node8" class="node"><title>Node8</title>
<g id="a_node8"><a xlink:href="humans__in__front__of__bus__scenario_8cpp.html" target="_top" xlink:title="src/ScenarioAnalysation\l/humans_in_front_of_bus\l_scenario.cpp">
<polygon fill="none" stroke="black" points="226,-68.5 226,-109.5 352,-109.5 352,-68.5 226,-68.5"/>
<text text-anchor="start" x="234" y="-97.5" font-family="Helvetica,sans-Serif" font-size="10.00">src/ScenarioAnalysation</text>
<text text-anchor="start" x="234" y="-86.5" font-family="Helvetica,sans-Serif" font-size="10.00">/humans_in_front_of_bus</text>
<text text-anchor="middle" x="289" y="-75.5" font-family="Helvetica,sans-Serif" font-size="10.00">_scenario.cpp</text>
</a>
</g>
</g>
<!-- Node7&#45;&gt;Node8 -->
<g id="edge9" class="edge"><title>Node7&#45;&gt;Node8</title>
<path fill="none" stroke="midnightblue" d="M289,-136.297C289,-127.301 289,-117.653 289,-109.506"/>
<polygon fill="midnightblue" stroke="midnightblue" points="285.5,-136.428 289,-146.428 292.5,-136.428 285.5,-136.428"/>
</g>
</g>
</svg>
        <g id="navigator" transform="translate(0 0)" fill="#404254">
                <rect fill="#f2f5e9" fill-opacity="0.5" stroke="#606060" stroke-width=".5" x="0" y="0" width="60" height="60"/>
                <use id="zoomplus" xlink:href="#zoomPlus" x="17" y="9" onmousedown="handleZoom(evt,'in')"/>
                <use id="zoomminus" xlink:href="#zoomMin" x="42" y="9" onmousedown="handleZoom(evt,'out')"/>
                <use id="reset" xlink:href="#resetDef" x="30" y="36" onmousedown="handleReset()"/>
                <g id="arrowUp" xlink:href="#dirArrow" transform="translate(30 24)" onmousedown="handlePan(0,-1)">
                  <use xlink:href="#rim" fill="#404040">
                        <set attributeName="fill" to="#808080" begin="arrowUp.mouseover" end="arrowUp.mouseout"/>
                  </use>
                  <path fill="none" stroke="white" stroke-width="1.5" d="M0,-3.0v7 M-2.5,-0.5L0,-3.0L2.5,-0.5"/>
                </g>
                <g id="arrowRight" xlink:href="#dirArrow" transform="rotate(90) translate(36 -43)" onmousedown="handlePan(1,0)">
                  <use xlink:href="#rim" fill="#404040">
                        <set attributeName="fill" to="#808080" begin="arrowRight.mouseover" end="arrowRight.mouseout"/>
                  </use>
                  <path fill="none" stroke="white" stroke-width="1.5" d="M0,-3.0v7 M-2.5,-0.5L0,-3.0L2.5,-0.5"/>
                </g>
                <g id="arrowDown" xlink:href="#dirArrow" transform="rotate(180) translate(-30 -48)" onmousedown="handlePan(0,1)">
                  <use xlink:href="#rim" fill="#404040">
                        <set attributeName="fill" to="#808080" begin="arrowDown.mouseover" end="arrowDown.mouseout"/>
                  </use>
                  <path fill="none" stroke="white" stroke-width="1.5" d="M0,-3.0v7 M-2.5,-0.5L0,-3.0L2.5,-0.5"/>
                </g>
                <g id="arrowLeft" xlink:href="#dirArrow" transform="rotate(270) translate(-36 17)" onmousedown="handlePan(-1,0)">
                  <use xlink:href="#rim" fill="#404040">
                        <set attributeName="fill" to="#808080" begin="arrowLeft.mouseover" end="arrowLeft.mouseout"/>
                  </use>
                  <path fill="none" stroke="white" stroke-width="1.5" d="M0,-3.0v7 M-2.5,-0.5L0,-3.0L2.5,-0.5"/>
                </g>
        </g>
        <svg viewBox="0 0 15 15" width="100%" height="30px" preserveAspectRatio="xMaxYMin meet">
         <g id="arrow_out" transform="scale(0.3 0.3)">
          <a xlink:href="frame__detection__data_8h__dep__incl_org.svg" target="_base">
           <rect id="button" ry="5" rx="5" y="6" x="6" height="38" width="38"
                fill="#f2f5e9" fill-opacity="0.5" stroke="#606060" stroke-width="1.0"/>
           <path id="arrow"
             d="M 11.500037,31.436501 C 11.940474,20.09759 22.043105,11.32322 32.158766,21.979434 L 37.068811,17.246167 C 37.068811,17.246167 37.088388,32 37.088388,32 L 22.160133,31.978069 C 22.160133,31.978069 26.997745,27.140456 26.997745,27.140456 C 18.528582,18.264221 13.291696,25.230495 11.500037,31.436501 z"
             style="fill:#404040;"/>
          </a>
         </g>
        </svg>
</svg>
