<?xml version="1.0" encoding="UTF-8" standalone="no"?>
<!DOCTYPE svg PUBLIC "-//W3C//DTD SVG 1.1//EN"
 "http://www.w3.org/Graphics/SVG/1.1/DTD/svg11.dtd">
<!-- Generated by graphviz version 2.36.0 (20140111.2315)
 -->
<!-- Title: src/ObjectDetection/frame_detection_data.h Pages: 1 -->
<svg width="264pt" height="152pt"
 viewBox="0.00 0.00 264.00 152.00" xmlns="http://www.w3.org/2000/svg" xmlns:xlink="http://www.w3.org/1999/xlink">
<g id="graph0" class="graph" transform="scale(1 1) rotate(0) translate(4 148)">
<title>src/ObjectDetection/frame_detection_data.h</title>
<!-- Node1 -->
<g id="node1" class="node"><title>Node1</title>
<polygon fill="#bfbfbf" stroke="black" points="42,-113 42,-143 164,-143 164,-113 42,-113"/>
<text text-anchor="start" x="50" y="-131" font-family="Helvetica,sans-Serif" font-size="10.00">src/ObjectDetection</text>
<text text-anchor="middle" x="103" y="-120" font-family="Helvetica,sans-Serif" font-size="10.00">/frame_detection_data.h</text>
</g>
<!-- Node2 -->
<g id="node2" class="node"><title>Node2</title>
<polygon fill="none" stroke="#bfbfbf" points="-0.5,-56.5 -0.5,-75.5 28.5,-75.5 28.5,-56.5 -0.5,-56.5"/>
<text text-anchor="middle" x="14" y="-63.5" font-family="Helvetica,sans-Serif" font-size="10.00">list</text>
</g>
<!-- Node1&#45;&gt;Node2 -->
<g id="edge1" class="edge"><title>Node1&#45;&gt;Node2</title>
<path fill="none" stroke="midnightblue" d="M81.9082,-112.781C67.8245,-103.286 49.3678,-90.8434 35.2512,-81.3267"/>
<polygon fill="midnightblue" stroke="midnightblue" points="36.9392,-78.2436 26.6909,-75.5557 33.0262,-84.0478 36.9392,-78.2436"/>
</g>
<!-- Node3 -->
<g id="node3" class="node"><title>Node3</title>
<polygon fill="none" stroke="#bfbfbf" points="120,-0.5 120,-19.5 164,-19.5 164,-0.5 120,-0.5"/>
<text text-anchor="middle" x="142" y="-7.5" font-family="Helvetica,sans-Serif" font-size="10.00">vector</text>
</g>
<!-- Node1&#45;&gt;Node3 -->
<g id="edge2" class="edge"><title>Node1&#45;&gt;Node3</title>
<path fill="none" stroke="midnightblue" d="M90.7147,-112.952C79.4813,-98.3031 66.0175,-74.8882 76,-56 83.4764,-41.8536 97.6194,-31.3181 110.901,-24.0121"/>
<polygon fill="midnightblue" stroke="midnightblue" points="112.531,-27.1101 119.867,-19.4654 109.365,-20.867 112.531,-27.1101"/>
</g>
<!-- Node4 -->
<g id="node4" class="node"><title>Node4</title>
<polygon fill="none" stroke="#bfbfbf" points="85.5,-56.5 85.5,-75.5 120.5,-75.5 120.5,-56.5 85.5,-56.5"/>
<text text-anchor="middle" x="103" y="-63.5" font-family="Helvetica,sans-Serif" font-size="10.00">map</text>
</g>
<!-- Node1&#45;&gt;Node4 -->
<g id="edge3" class="edge"><title>Node1&#45;&gt;Node4</title>
<path fill="none" stroke="midnightblue" d="M103,-112.781C103,-104.781 103,-94.6887 103,-86.0168"/>
<polygon fill="midnightblue" stroke="midnightblue" points="106.5,-85.7305 103,-75.7305 99.5001,-85.7306 106.5,-85.7305"/>
</g>
<!-- Node5 -->
<g id="node5" class="node"><title>Node5</title>
<polygon fill="none" stroke="#bfbfbf" points="138.5,-56.5 138.5,-75.5 179.5,-75.5 179.5,-56.5 138.5,-56.5"/>
<text text-anchor="middle" x="159" y="-63.5" font-family="Helvetica,sans-Serif" font-size="10.00">string</text>
</g>
<!-- Node1&#45;&gt;Node5 -->
<g id="edge4" class="edge"><title>Node1&#45;&gt;Node5</title>
<path fill="none" stroke="midnightblue" d="M116.271,-112.781C124.576,-103.882 135.299,-92.3943 143.924,-83.1524"/>
<polygon fill="midnightblue" stroke="midnightblue" points="146.587,-85.4292 150.852,-75.7305 141.47,-80.653 146.587,-85.4292"/>
</g>
<!-- Node6 -->
<g id="node6" class="node"><title>Node6</title>
<g id="a_node6"><a xlink:href="element_8h.html" target="_top" xlink:title="element.h">
<polygon fill="none" stroke="black" points="197.5,-56.5 197.5,-75.5 256.5,-75.5 256.5,-56.5 197.5,-56.5"/>
<text text-anchor="middle" x="227" y="-63.5" font-family="Helvetica,sans-Serif" font-size="10.00">element.h</text>
</a>
</g>
</g>
<!-- Node1&#45;&gt;Node6 -->
<g id="edge5" class="edge"><title>Node1&#45;&gt;Node6</title>
<path fill="none" stroke="midnightblue" d="M132.072,-112.933C152.619,-102.991 179.963,-89.7601 200.025,-80.0526"/>
<polygon fill="midnightblue" stroke="midnightblue" points="201.749,-83.1063 209.227,-75.6 198.701,-76.8051 201.749,-83.1063"/>
</g>
<!-- Node6&#45;&gt;Node3 -->
<g id="edge6" class="edge"><title>Node6&#45;&gt;Node3</title>
<path fill="none" stroke="midnightblue" d="M213.343,-56.324C200.084,-47.9002 179.732,-34.9709 164.154,-25.0741"/>
<polygon fill="midnightblue" stroke="midnightblue" points="165.94,-22.0626 155.623,-19.6545 162.187,-27.9711 165.94,-22.0626"/>
</g>
</g>
</svg>
