<?xml version="1.0" encoding="UTF-8" standalone="no"?>
<!DOCTYPE svg PUBLIC "-//W3C//DTD SVG 1.1//EN"
 "http://www.w3.org/Graphics/SVG/1.1/DTD/svg11.dtd">
<!-- Generated by graphviz version 2.36.0 (20140111.2315)
 -->
<!-- Title: src/StreamDecoder/frame_selector.cpp Pages: 1 -->
<!--zoomable 332 -->
<svg id="main" version="1.1" xmlns="http://www.w3.org/2000/svg" xmlns:xlink="http://www.w3.org/1999/xlink" xml:space="preserve" onload="init(evt)">
<style type="text/css"><![CDATA[
.edge:hover path { stroke: red; }
.edge:hover polygon { stroke: red; fill: red; }
]]></style>
<script type="text/javascript"><![CDATA[
var edges = document.getElementsByTagName('g');
if (edges && edges.length) {
  for (var i=0;i<edges.length;i++) {
    if (edges[i].id.substr(0,4)=='edge') {
      edges[i].setAttribute('class','edge');
    }
  }
}
]]></script>
        <defs>
                <circle id="rim" cx="0" cy="0" r="7"/>
                <circle id="rim2" cx="0" cy="0" r="3.5"/>
                <g id="zoomPlus">
                        <use xlink:href="#rim" fill="#404040">
                                <set attributeName="fill" to="#808080" begin="zoomplus.mouseover" end="zoomplus.mouseout"/>
                        </use>
                        <path d="M-4,0h8M0,-4v8" fill="none" stroke="white" stroke-width="1.5" pointer-events="none"/>
                </g>
                <g id="zoomMin">
                        <use xlink:href="#rim" fill="#404040">
                                <set attributeName="fill" to="#808080" begin="zoomminus.mouseover" end="zoomminus.mouseout"/>
                        </use>
                        <path d="M-4,0h8" fill="none" stroke="white" stroke-width="1.5" pointer-events="none"/>
                </g>
                <g id="dirArrow">
                        <path fill="none" stroke="white" stroke-width="1.5" d="M0,-3.0v7 M-2.5,-0.5L0,-3.0L2.5,-0.5"/>
                </g>
               <g id="resetDef">
                       <use xlink:href="#rim2" fill="#404040">
                               <set attributeName="fill" to="#808080" begin="reset.mouseover" end="reset.mouseout"/>
                       </use>
               </g>
        </defs>

<script type="text/javascript">
var viewWidth = 908;
var viewHeight = 332;
var sectionId = 'dynsection-0';
</script>
<script xlink:href="svgpan.js"/>
<svg id="graph" class="graph">
<g id="viewport">
<title>src/StreamDecoder/frame_selector.cpp</title>
<!-- Node1 -->
<g id="node1" class="node"><title>Node1</title>
<polygon fill="#bfbfbf" stroke="black" points="191.5,-293 191.5,-323 320.5,-323 320.5,-293 191.5,-293"/>
<text text-anchor="start" x="199.5" y="-311" font-family="Helvetica,sans-Serif" font-size="10.00">src/StreamDecoder/frame</text>
<text text-anchor="middle" x="256" y="-300" font-family="Helvetica,sans-Serif" font-size="10.00">_selector.cpp</text>
</g>
<!-- Node2 -->
<g id="node2" class="node"><title>Node2</title>
<polygon fill="none" stroke="#bfbfbf" points="186,-236.5 186,-255.5 238,-255.5 238,-236.5 186,-236.5"/>
<text text-anchor="middle" x="212" y="-243.5" font-family="Helvetica,sans-Serif" font-size="10.00">sstream</text>
</g>
<!-- Node1&#45;&gt;Node2 -->
<g id="edge1" class="edge"><title>Node1&#45;&gt;Node2</title>
<path fill="none" stroke="midnightblue" d="M245.573,-292.781C239.245,-284.152 231.131,-273.088 224.466,-263.999"/>
<polygon fill="midnightblue" stroke="midnightblue" points="227.138,-261.725 218.402,-255.731 221.494,-265.864 227.138,-261.725"/>
</g>
<!-- Node3 -->
<g id="node3" class="node"><title>Node3</title>
<g id="a_node3"><a xlink:href="frame__selector_8h.html" target="_top" xlink:title="frame_selector.h">
<polygon fill="none" stroke="black" points="256.5,-236.5 256.5,-255.5 345.5,-255.5 345.5,-236.5 256.5,-236.5"/>
<text text-anchor="middle" x="301" y="-243.5" font-family="Helvetica,sans-Serif" font-size="10.00">frame_selector.h</text>
</a>
</g>
</g>
<!-- Node1&#45;&gt;Node3 -->
<g id="edge2" class="edge"><title>Node1&#45;&gt;Node3</title>
<path fill="none" stroke="midnightblue" d="M266.664,-292.781C273.136,-284.152 281.434,-273.088 288.251,-263.999"/>
<polygon fill="midnightblue" stroke="midnightblue" points="291.252,-265.831 294.452,-255.731 285.652,-261.631 291.252,-265.831"/>
</g>
<!-- Node4 -->
<g id="node4" class="node"><title>Node4</title>
<g id="a_node4"><a xlink:href="hdf__reader_8h.html" target="_top" xlink:title="hdf_reader.h">
<polygon fill="none" stroke="black" points="142.5,-180.5 142.5,-199.5 213.5,-199.5 213.5,-180.5 142.5,-180.5"/>
<text text-anchor="middle" x="178" y="-187.5" font-family="Helvetica,sans-Serif" font-size="10.00">hdf_reader.h</text>
</a>
</g>
</g>
<!-- Node3&#45;&gt;Node4 -->
<g id="edge3" class="edge"><title>Node3&#45;&gt;Node4</title>
<path fill="none" stroke="midnightblue" d="M281.51,-236.444C261.358,-227.596 229.677,-213.687 206.669,-203.586"/>
<polygon fill="midnightblue" stroke="midnightblue" points="207.962,-200.332 197.399,-199.516 205.148,-206.741 207.962,-200.332"/>
</g>
<!-- Node7 -->
<g id="node7" class="node"><title>Node7</title>
<polygon fill="none" stroke="#bfbfbf" points="224,-124.5 224,-143.5 268,-143.5 268,-124.5 224,-124.5"/>
<text text-anchor="middle" x="246" y="-131.5" font-family="Helvetica,sans-Serif" font-size="10.00">vector</text>
</g>
<!-- Node3&#45;&gt;Node7 -->
<g id="edge27" class="edge"><title>Node3&#45;&gt;Node7</title>
<path fill="none" stroke="midnightblue" d="M296.552,-236.393C291.891,-227.35 284.374,-212.704 278,-200 270.078,-184.209 261.217,-166.18 254.831,-153.121"/>
<polygon fill="midnightblue" stroke="midnightblue" points="257.838,-151.303 250.306,-143.852 251.548,-154.374 257.838,-151.303"/>
</g>
<!-- Node9 -->
<g id="node9" class="node"><title>Node9</title>
<g id="a_node9"><a xlink:href="protobuf__image__wrapper_8h.html" target="_top" xlink:title="protobuf_image_wrapper.h">
<polygon fill="none" stroke="black" points="287.5,-180.5 287.5,-199.5 418.5,-199.5 418.5,-180.5 287.5,-180.5"/>
<text text-anchor="middle" x="353" y="-187.5" font-family="Helvetica,sans-Serif" font-size="10.00">protobuf_image_wrapper.h</text>
</a>
</g>
</g>
<!-- Node3&#45;&gt;Node9 -->
<g id="edge8" class="edge"><title>Node3&#45;&gt;Node9</title>
<path fill="none" stroke="midnightblue" d="M309.587,-236.083C317.159,-228.22 328.378,-216.569 337.514,-207.081"/>
<polygon fill="midnightblue" stroke="midnightblue" points="340.158,-209.382 344.573,-199.751 335.115,-204.527 340.158,-209.382"/>
</g>
<!-- Node18 -->
<g id="node18" class="node"><title>Node18</title>
<g id="a_node18"><a xlink:href="image_8h.html" target="_top" xlink:title="image.h">
<polygon fill="none" stroke="black" points="462.5,-180.5 462.5,-199.5 513.5,-199.5 513.5,-180.5 462.5,-180.5"/>
<text text-anchor="middle" x="488" y="-187.5" font-family="Helvetica,sans-Serif" font-size="10.00">image.h</text>
</a>
</g>
</g>
<!-- Node3&#45;&gt;Node18 -->
<g id="edge25" class="edge"><title>Node3&#45;&gt;Node18</title>
<path fill="none" stroke="midnightblue" d="M330.631,-236.444C363.719,-226.889 417.248,-211.431 452.535,-201.241"/>
<polygon fill="midnightblue" stroke="midnightblue" points="453.778,-204.525 462.414,-198.388 451.836,-197.8 453.778,-204.525"/>
</g>
<!-- Node5 -->
<g id="node5" class="node"><title>Node5</title>
<polygon fill="none" stroke="#bfbfbf" points="40,-124.5 40,-143.5 94,-143.5 94,-124.5 40,-124.5"/>
<text text-anchor="middle" x="67" y="-131.5" font-family="Helvetica,sans-Serif" font-size="10.00">iostream</text>
</g>
<!-- Node4&#45;&gt;Node5 -->
<g id="edge4" class="edge"><title>Node4&#45;&gt;Node5</title>
<path fill="none" stroke="midnightblue" d="M160.166,-180.324C142.284,-171.625 114.525,-158.12 93.9544,-148.113"/>
<polygon fill="midnightblue" stroke="midnightblue" points="95.3133,-144.882 84.7898,-143.655 92.251,-151.177 95.3133,-144.882"/>
</g>
<!-- Node6 -->
<g id="node6" class="node"><title>Node6</title>
<polygon fill="none" stroke="#bfbfbf" points="-0.5,-6.5 -0.5,-25.5 40.5,-25.5 40.5,-6.5 -0.5,-6.5"/>
<text text-anchor="middle" x="20" y="-13.5" font-family="Helvetica,sans-Serif" font-size="10.00">string</text>
</g>
<!-- Node4&#45;&gt;Node6 -->
<g id="edge5" class="edge"><title>Node4&#45;&gt;Node6</title>
<path fill="none" stroke="midnightblue" d="M169.948,-180.234C144.797,-152.855 67.4461,-68.6501 34.7908,-33.1014"/>
<polygon fill="midnightblue" stroke="midnightblue" points="37.1913,-30.5409 27.8487,-25.5442 32.0362,-35.2764 37.1913,-30.5409"/>
</g>
<!-- Node4&#45;&gt;Node7 -->
<g id="edge6" class="edge"><title>Node4&#45;&gt;Node7</title>
<path fill="none" stroke="midnightblue" d="M188.925,-180.324C199.175,-172.185 214.721,-159.839 227.001,-150.087"/>
<polygon fill="midnightblue" stroke="midnightblue" points="229.221,-152.794 234.876,-143.834 224.868,-147.312 229.221,-152.794"/>
</g>
<!-- Node8 -->
<g id="node8" class="node"><title>Node8</title>
<polygon fill="none" stroke="#bfbfbf" points="150,-124.5 150,-143.5 206,-143.5 206,-124.5 150,-124.5"/>
<text text-anchor="middle" x="178" y="-131.5" font-family="Helvetica,sans-Serif" font-size="10.00">H5Cpp.h</text>
</g>
<!-- Node4&#45;&gt;Node8 -->
<g id="edge7" class="edge"><title>Node4&#45;&gt;Node8</title>
<path fill="none" stroke="midnightblue" d="M178,-180.083C178,-173.006 178,-162.861 178,-153.986"/>
<polygon fill="midnightblue" stroke="midnightblue" points="181.5,-153.751 178,-143.751 174.5,-153.751 181.5,-153.751"/>
</g>
<!-- Node10 -->
<g id="node10" class="node"><title>Node10</title>
<g id="a_node10"><a xlink:href="CameraImage_8pb_8h.html" target="_top" xlink:title="protofiles/CameraImage.pb.h">
<polygon fill="none" stroke="black" points="286.5,-124.5 286.5,-143.5 429.5,-143.5 429.5,-124.5 286.5,-124.5"/>
<text text-anchor="middle" x="358" y="-131.5" font-family="Helvetica,sans-Serif" font-size="10.00">protofiles/CameraImage.pb.h</text>
</a>
</g>
</g>
<!-- Node9&#45;&gt;Node10 -->
<g id="edge9" class="edge"><title>Node9&#45;&gt;Node10</title>
<path fill="none" stroke="midnightblue" d="M353.826,-180.083C354.481,-173.006 355.42,-162.861 356.242,-153.986"/>
<polygon fill="midnightblue" stroke="midnightblue" points="359.753,-154.031 357.19,-143.751 352.783,-153.386 359.753,-154.031"/>
</g>
<!-- Node10&#45;&gt;Node6 -->
<g id="edge10" class="edge"><title>Node10&#45;&gt;Node6</title>
<path fill="none" stroke="midnightblue" d="M326.25,-124.459C269.567,-108.808 147.649,-73.3167 49,-32 47.5949,-31.4115 46.1652,-30.7813 44.7316,-30.1245"/>
<polygon fill="midnightblue" stroke="midnightblue" points="45.9522,-26.825 35.4322,-25.5676 42.8719,-33.1109 45.9522,-26.825"/>
</g>
<!-- Node11 -->
<g id="node11" class="node"><title>Node11</title>
<polygon fill="none" stroke="#bfbfbf" points="790,-1 790,-31 900,-31 900,-1 790,-1"/>
<text text-anchor="start" x="798" y="-19" font-family="Helvetica,sans-Serif" font-size="10.00">google/protobuf/stubs</text>
<text text-anchor="middle" x="845" y="-8" font-family="Helvetica,sans-Serif" font-size="10.00">/common.h</text>
</g>
<!-- Node10&#45;&gt;Node11 -->
<g id="edge11" class="edge"><title>Node10&#45;&gt;Node11</title>
<path fill="none" stroke="midnightblue" d="M393.81,-124.47C475.418,-105.032 676.154,-57.218 780.167,-32.4427"/>
<polygon fill="midnightblue" stroke="midnightblue" points="781.007,-35.8407 789.924,-30.1187 779.385,-29.0312 781.007,-35.8407"/>
</g>
<!-- Node12 -->
<g id="node12" class="node"><title>Node12</title>
<polygon fill="none" stroke="#bfbfbf" points="58.5,-1 58.5,-31 187.5,-31 187.5,-1 58.5,-1"/>
<text text-anchor="start" x="66.5" y="-19" font-family="Helvetica,sans-Serif" font-size="10.00">google/protobuf/generated</text>
<text text-anchor="middle" x="123" y="-8" font-family="Helvetica,sans-Serif" font-size="10.00">_message_util.h</text>
</g>
<!-- Node10&#45;&gt;Node12 -->
<g id="edge12" class="edge"><title>Node10&#45;&gt;Node12</title>
<path fill="none" stroke="midnightblue" d="M340.72,-124.47C303.001,-105.851 212.542,-61.1994 160.874,-35.6955"/>
<polygon fill="midnightblue" stroke="midnightblue" points="162.216,-32.4546 151.7,-31.1668 159.118,-38.7316 162.216,-32.4546"/>
</g>
<!-- Node13 -->
<g id="node13" class="node"><title>Node13</title>
<polygon fill="none" stroke="#bfbfbf" points="206,-6.5 206,-25.5 340,-25.5 340,-6.5 206,-6.5"/>
<text text-anchor="middle" x="273" y="-13.5" font-family="Helvetica,sans-Serif" font-size="10.00">google/protobuf/message.h</text>
</g>
<!-- Node10&#45;&gt;Node13 -->
<g id="edge13" class="edge"><title>Node10&#45;&gt;Node13</title>
<path fill="none" stroke="midnightblue" d="M351.611,-124.281C337.513,-105.041 303.539,-58.6766 285.211,-33.6641"/>
<polygon fill="midnightblue" stroke="midnightblue" points="287.966,-31.5023 279.232,-25.5048 282.319,-35.6398 287.966,-31.5023"/>
</g>
<!-- Node14 -->
<g id="node14" class="node"><title>Node14</title>
<polygon fill="none" stroke="#bfbfbf" points="358,-1 358,-31 482,-31 482,-1 358,-1"/>
<text text-anchor="start" x="366" y="-19" font-family="Helvetica,sans-Serif" font-size="10.00">google/protobuf/repeated</text>
<text text-anchor="middle" x="420" y="-8" font-family="Helvetica,sans-Serif" font-size="10.00">_field.h</text>
</g>
<!-- Node10&#45;&gt;Node14 -->
<g id="edge14" class="edge"><title>Node10&#45;&gt;Node14</title>
<path fill="none" stroke="midnightblue" d="M359.384,-124.146C361.666,-111.207 366.995,-86.648 377,-68 382.56,-57.6369 390.475,-47.4706 398.002,-38.9756"/>
<polygon fill="midnightblue" stroke="midnightblue" points="400.794,-41.1111 405.01,-31.3911 395.653,-36.3606 400.794,-41.1111"/>
</g>
<!-- Node15 -->
<g id="node15" class="node"><title>Node15</title>
<polygon fill="none" stroke="#bfbfbf" points="500,-1 500,-31 628,-31 628,-1 500,-1"/>
<text text-anchor="start" x="508" y="-19" font-family="Helvetica,sans-Serif" font-size="10.00">google/protobuf/extension</text>
<text text-anchor="middle" x="564" y="-8" font-family="Helvetica,sans-Serif" font-size="10.00">_set.h</text>
</g>
<!-- Node10&#45;&gt;Node15 -->
<g id="edge15" class="edge"><title>Node10&#45;&gt;Node15</title>
<path fill="none" stroke="midnightblue" d="M382.02,-124.347C403.747,-116.141 436.326,-102.878 463,-88 490.025,-72.9257 518.691,-52.2721 538.552,-37.1268"/>
<polygon fill="midnightblue" stroke="midnightblue" points="540.711,-39.8823 546.495,-31.0055 536.438,-34.3379 540.711,-39.8823"/>
</g>
<!-- Node16 -->
<g id="node16" class="node"><title>Node16</title>
<polygon fill="none" stroke="#bfbfbf" points="646.5,-1 646.5,-31 771.5,-31 771.5,-1 646.5,-1"/>
<text text-anchor="start" x="654.5" y="-19" font-family="Helvetica,sans-Serif" font-size="10.00">google/protobuf/unknown</text>
<text text-anchor="middle" x="709" y="-8" font-family="Helvetica,sans-Serif" font-size="10.00">_field_set.h</text>
</g>
<!-- Node10&#45;&gt;Node16 -->
<g id="edge16" class="edge"><title>Node10&#45;&gt;Node16</title>
<path fill="none" stroke="midnightblue" d="M383.81,-124.47C441.159,-105.517 580.132,-59.5887 656.527,-34.3414"/>
<polygon fill="midnightblue" stroke="midnightblue" points="658.029,-37.5314 666.426,-31.0702 655.832,-30.8849 658.029,-37.5314"/>
</g>
<!-- Node17 -->
<g id="node17" class="node"><title>Node17</title>
<g id="a_node17"><a xlink:href="header_8pb_8h.html" target="_top" xlink:title="header.pb.h">
<polygon fill="none" stroke="black" points="386,-68.5 386,-87.5 454,-87.5 454,-68.5 386,-68.5"/>
<text text-anchor="middle" x="420" y="-75.5" font-family="Helvetica,sans-Serif" font-size="10.00">header.pb.h</text>
</a>
</g>
</g>
<!-- Node10&#45;&gt;Node17 -->
<g id="edge17" class="edge"><title>Node10&#45;&gt;Node17</title>
<path fill="none" stroke="midnightblue" d="M367.961,-124.324C377.127,-116.341 390.937,-104.313 402.028,-94.6529"/>
<polygon fill="midnightblue" stroke="midnightblue" points="404.615,-97.041 409.857,-87.8339 400.018,-91.7624 404.615,-97.041"/>
</g>
<!-- Node17&#45;&gt;Node6 -->
<g id="edge18" class="edge"><title>Node17&#45;&gt;Node6</title>
<path fill="none" stroke="midnightblue" d="M385.911,-76.8764C319.543,-75.7684 168.975,-68.9845 49,-32 47.0906,-31.4114 45.1571,-30.7005 43.2425,-29.9121"/>
<polygon fill="midnightblue" stroke="midnightblue" points="44.5588,-26.6626 34.0244,-25.5323 41.5547,-32.9852 44.5588,-26.6626"/>
</g>
<!-- Node17&#45;&gt;Node11 -->
<g id="edge19" class="edge"><title>Node17&#45;&gt;Node11</title>
<path fill="none" stroke="midnightblue" d="M454.174,-73.9059C516.643,-67.9963 653.607,-53.868 779.554,-31.9508"/>
<polygon fill="midnightblue" stroke="midnightblue" points="780.519,-35.3347 789.761,-30.153 779.305,-28.4409 780.519,-35.3347"/>
</g>
<!-- Node17&#45;&gt;Node12 -->
<g id="edge20" class="edge"><title>Node17&#45;&gt;Node12</title>
<path fill="none" stroke="midnightblue" d="M385.996,-70.1478C344.146,-61.7123 270.636,-46.8888 197.429,-32.0858"/>
<polygon fill="midnightblue" stroke="midnightblue" points="198.069,-28.6443 187.573,-30.0926 196.681,-35.5054 198.069,-28.6443"/>
</g>
<!-- Node17&#45;&gt;Node13 -->
<g id="edge21" class="edge"><title>Node17&#45;&gt;Node13</title>
<path fill="none" stroke="midnightblue" d="M398.938,-68.4035C373.941,-58.2004 332.058,-41.1055 303.513,-29.4544"/>
<polygon fill="midnightblue" stroke="midnightblue" points="304.604,-26.1192 294.022,-25.5806 301.958,-32.6001 304.604,-26.1192"/>
</g>
<!-- Node17&#45;&gt;Node14 -->
<g id="edge22" class="edge"><title>Node17&#45;&gt;Node14</title>
<path fill="none" stroke="midnightblue" d="M420,-68.4035C420,-61.3405 420,-50.975 420,-41.399"/>
<polygon fill="midnightblue" stroke="midnightblue" points="423.5,-41.1408 420,-31.1408 416.5,-41.1408 423.5,-41.1408"/>
</g>
<!-- Node17&#45;&gt;Node15 -->
<g id="edge23" class="edge"><title>Node17&#45;&gt;Node15</title>
<path fill="none" stroke="midnightblue" d="M440.632,-68.4035C461.48,-59.7168 494.317,-46.0346 520.873,-34.9694"/>
<polygon fill="midnightblue" stroke="midnightblue" points="522.455,-38.1023 530.339,-31.0253 519.762,-31.6408 522.455,-38.1023"/>
</g>
<!-- Node17&#45;&gt;Node16 -->
<g id="edge24" class="edge"><title>Node17&#45;&gt;Node16</title>
<path fill="none" stroke="midnightblue" d="M454.204,-69.9172C495.042,-61.4583 565.685,-46.819 636.223,-32.1605"/>
<polygon fill="midnightblue" stroke="midnightblue" points="637.094,-35.5544 646.172,-30.0927 635.669,-28.7009 637.094,-35.5544"/>
</g>
<!-- Node19 -->
<g id="node19" class="node"><title>Node19</title>
<polygon fill="none" stroke="#bfbfbf" points="447.5,-124.5 447.5,-143.5 554.5,-143.5 554.5,-124.5 447.5,-124.5"/>
<text text-anchor="middle" x="501" y="-131.5" font-family="Helvetica,sans-Serif" font-size="10.00">opencv2/opencv.hpp</text>
</g>
<!-- Node18&#45;&gt;Node19 -->
<g id="edge26" class="edge"><title>Node18&#45;&gt;Node19</title>
<path fill="none" stroke="midnightblue" d="M490.147,-180.083C491.869,-172.927 494.347,-162.635 496.5,-153.691"/>
<polygon fill="midnightblue" stroke="midnightblue" points="499.955,-154.293 498.893,-143.751 493.15,-152.654 499.955,-154.293"/>
</g>
</g>
</svg>
        <g id="navigator" transform="translate(0 0)" fill="#404254">
                <rect fill="#f2f5e9" fill-opacity="0.5" stroke="#606060" stroke-width=".5" x="0" y="0" width="60" height="60"/>
                <use id="zoomplus" xlink:href="#zoomPlus" x="17" y="9" onmousedown="handleZoom(evt,'in')"/>
                <use id="zoomminus" xlink:href="#zoomMin" x="42" y="9" onmousedown="handleZoom(evt,'out')"/>
                <use id="reset" xlink:href="#resetDef" x="30" y="36" onmousedown="handleReset()"/>
                <g id="arrowUp" xlink:href="#dirArrow" transform="translate(30 24)" onmousedown="handlePan(0,-1)">
                  <use xlink:href="#rim" fill="#404040">
                        <set attributeName="fill" to="#808080" begin="arrowUp.mouseover" end="arrowUp.mouseout"/>
                  </use>
                  <path fill="none" stroke="white" stroke-width="1.5" d="M0,-3.0v7 M-2.5,-0.5L0,-3.0L2.5,-0.5"/>
                </g>
                <g id="arrowRight" xlink:href="#dirArrow" transform="rotate(90) translate(36 -43)" onmousedown="handlePan(1,0)">
                  <use xlink:href="#rim" fill="#404040">
                        <set attributeName="fill" to="#808080" begin="arrowRight.mouseover" end="arrowRight.mouseout"/>
                  </use>
                  <path fill="none" stroke="white" stroke-width="1.5" d="M0,-3.0v7 M-2.5,-0.5L0,-3.0L2.5,-0.5"/>
                </g>
                <g id="arrowDown" xlink:href="#dirArrow" transform="rotate(180) translate(-30 -48)" onmousedown="handlePan(0,1)">
                  <use xlink:href="#rim" fill="#404040">
                        <set attributeName="fill" to="#808080" begin="arrowDown.mouseover" end="arrowDown.mouseout"/>
                  </use>
                  <path fill="none" stroke="white" stroke-width="1.5" d="M0,-3.0v7 M-2.5,-0.5L0,-3.0L2.5,-0.5"/>
                </g>
                <g id="arrowLeft" xlink:href="#dirArrow" transform="rotate(270) translate(-36 17)" onmousedown="handlePan(-1,0)">
                  <use xlink:href="#rim" fill="#404040">
                        <set attributeName="fill" to="#808080" begin="arrowLeft.mouseover" end="arrowLeft.mouseout"/>
                  </use>
                  <path fill="none" stroke="white" stroke-width="1.5" d="M0,-3.0v7 M-2.5,-0.5L0,-3.0L2.5,-0.5"/>
                </g>
        </g>
        <svg viewBox="0 0 15 15" width="100%" height="30px" preserveAspectRatio="xMaxYMin meet">
         <g id="arrow_out" transform="scale(0.3 0.3)">
          <a xlink:href="frame__selector_8cpp__incl_org.svg" target="_base">
           <rect id="button" ry="5" rx="5" y="6" x="6" height="38" width="38"
                fill="#f2f5e9" fill-opacity="0.5" stroke="#606060" stroke-width="1.0"/>
           <path id="arrow"
             d="M 11.500037,31.436501 C 11.940474,20.09759 22.043105,11.32322 32.158766,21.979434 L 37.068811,17.246167 C 37.068811,17.246167 37.088388,32 37.088388,32 L 22.160133,31.978069 C 22.160133,31.978069 26.997745,27.140456 26.997745,27.140456 C 18.528582,18.264221 13.291696,25.230495 11.500037,31.436501 z"
             style="fill:#404040;"/>
          </a>
         </g>
        </svg>
</svg>
