<?xml version="1.0" encoding="UTF-8" standalone="no"?>
<!DOCTYPE svg PUBLIC "-//W3C//DTD SVG 1.1//EN"
 "http://www.w3.org/Graphics/SVG/1.1/DTD/svg11.dtd">
<!-- Generated by graphviz version 2.36.0 (20140111.2315)
 -->
<!-- Title: src/StreamDecoder/frame_selector.h Pages: 1 -->
<svg width="356pt" height="176pt"
 viewBox="0.00 0.00 356.00 176.00" xmlns="http://www.w3.org/2000/svg" xmlns:xlink="http://www.w3.org/1999/xlink">
<g id="graph0" class="graph" transform="scale(1 1) rotate(0) translate(4 172)">
<title>src/StreamDecoder/frame_selector.h</title>
<!-- Node1 -->
<g id="node1" class="node"><title>Node1</title>
<polygon fill="#bfbfbf" stroke="black" points="126.5,-137 126.5,-167 255.5,-167 255.5,-137 126.5,-137"/>
<text text-anchor="start" x="134.5" y="-155" font-family="Helvetica,sans-Serif" font-size="10.00">src/StreamDecoder/frame</text>
<text text-anchor="middle" x="191" y="-144" font-family="Helvetica,sans-Serif" font-size="10.00">_selector.h</text>
</g>
<!-- Node2 -->
<g id="node2" class="node"><title>Node2</title>
<g id="a_node2"><a xlink:href="controller_8h.html" target="_top" xlink:title="src/ProcessControl\l/controller.h">
<polygon fill="none" stroke="black" points="61.5,-69 61.5,-99 162.5,-99 162.5,-69 61.5,-69"/>
<text text-anchor="start" x="69.5" y="-87" font-family="Helvetica,sans-Serif" font-size="10.00">src/ProcessControl</text>
<text text-anchor="middle" x="112" y="-76" font-family="Helvetica,sans-Serif" font-size="10.00">/controller.h</text>
</a>
</g>
</g>
<!-- Node1&#45;&gt;Node2 -->
<g id="edge1" class="edge"><title>Node1&#45;&gt;Node2</title>
<path fill="none" stroke="midnightblue" d="M165.886,-130.018C153.792,-119.915 139.614,-108.07 128.837,-99.0663"/>
<polygon fill="midnightblue" stroke="midnightblue" points="163.94,-132.954 173.858,-136.679 168.428,-127.582 163.94,-132.954"/>
</g>
<!-- Node4 -->
<g id="node4" class="node"><title>Node4</title>
<g id="a_node4"><a xlink:href="StreamDecoder_2main_8cpp.html" target="_top" xlink:title="src/StreamDecoder/main.cpp">
<polygon fill="none" stroke="black" points="119,-6.5 119,-25.5 263,-25.5 263,-6.5 119,-6.5"/>
<text text-anchor="middle" x="191" y="-13.5" font-family="Helvetica,sans-Serif" font-size="10.00">src/StreamDecoder/main.cpp</text>
</a>
</g>
</g>
<!-- Node1&#45;&gt;Node4 -->
<g id="edge5" class="edge"><title>Node1&#45;&gt;Node4</title>
<path fill="none" stroke="midnightblue" d="M191,-126.451C191,-96.0556 191,-45.8414 191,-25.7275"/>
<polygon fill="midnightblue" stroke="midnightblue" points="187.5,-126.66 191,-136.66 194.5,-126.66 187.5,-126.66"/>
</g>
<!-- Node5 -->
<g id="node5" class="node"><title>Node5</title>
<g id="a_node5"><a xlink:href="frame__selector_8cpp.html" target="_top" xlink:title="src/StreamDecoder/frame\l_selector.cpp">
<polygon fill="none" stroke="black" points="219.5,-69 219.5,-99 348.5,-99 348.5,-69 219.5,-69"/>
<text text-anchor="start" x="227.5" y="-87" font-family="Helvetica,sans-Serif" font-size="10.00">src/StreamDecoder/frame</text>
<text text-anchor="middle" x="284" y="-76" font-family="Helvetica,sans-Serif" font-size="10.00">_selector.cpp</text>
</a>
</g>
</g>
<!-- Node1&#45;&gt;Node5 -->
<g id="edge4" class="edge"><title>Node1&#45;&gt;Node5</title>
<path fill="none" stroke="midnightblue" d="M219.339,-130.888C233.836,-120.6 251.127,-108.329 264.179,-99.0663"/>
<polygon fill="midnightblue" stroke="midnightblue" points="217.309,-128.037 211.18,-136.679 221.36,-133.746 217.309,-128.037"/>
</g>
<!-- Node3 -->
<g id="node3" class="node"><title>Node3</title>
<g id="a_node3"><a xlink:href="controller_8cpp.html" target="_top" xlink:title="src/ProcessControl\l/controller.cpp">
<polygon fill="none" stroke="black" points="-0.5,-1 -0.5,-31 100.5,-31 100.5,-1 -0.5,-1"/>
<text text-anchor="start" x="7.5" y="-19" font-family="Helvetica,sans-Serif" font-size="10.00">src/ProcessControl</text>
<text text-anchor="middle" x="50" y="-8" font-family="Helvetica,sans-Serif" font-size="10.00">/controller.cpp</text>
</a>
</g>
</g>
<!-- Node2&#45;&gt;Node3 -->
<g id="edge2" class="edge"><title>Node2&#45;&gt;Node3</title>
<path fill="none" stroke="midnightblue" d="M91.5154,-61.1939C82.278,-51.3605 71.6274,-40.0228 63.4268,-31.2931"/>
<polygon fill="midnightblue" stroke="midnightblue" points="89.1492,-63.7869 98.5469,-68.679 94.2511,-58.9941 89.1492,-63.7869"/>
</g>
<!-- Node2&#45;&gt;Node4 -->
<g id="edge3" class="edge"><title>Node2&#45;&gt;Node4</title>
<path fill="none" stroke="midnightblue" d="M136.906,-62.1927C151.571,-49.9403 169.361,-35.0785 180.433,-25.8283"/>
<polygon fill="midnightblue" stroke="midnightblue" points="134.572,-59.5816 129.142,-68.679 139.06,-64.9535 134.572,-59.5816"/>
</g>
</g>
</svg>
