<?xml version="1.0" encoding="UTF-8" standalone="no"?>
<!DOCTYPE svg PUBLIC "-//W3C//DTD SVG 1.1//EN"
 "http://www.w3.org/Graphics/SVG/1.1/DTD/svg11.dtd">
<!-- Generated by graphviz version 2.36.0 (20140111.2315)
 -->
<!-- Title: src/ObjectDetection/frame_detection_data.cpp Pages: 1 -->
<svg width="264pt" height="208pt"
 viewBox="0.00 0.00 264.00 208.00" xmlns="http://www.w3.org/2000/svg" xmlns:xlink="http://www.w3.org/1999/xlink">
<g id="graph0" class="graph" transform="scale(1 1) rotate(0) translate(4 204)">
<title>src/ObjectDetection/frame_detection_data.cpp</title>
<!-- Node1 -->
<g id="node1" class="node"><title>Node1</title>
<polygon fill="#bfbfbf" stroke="black" points="37,-169 37,-199 169,-199 169,-169 37,-169"/>
<text text-anchor="start" x="45" y="-187" font-family="Helvetica,sans-Serif" font-size="10.00">src/ObjectDetection</text>
<text text-anchor="middle" x="103" y="-176" font-family="Helvetica,sans-Serif" font-size="10.00">/frame_detection_data.cpp</text>
</g>
<!-- Node2 -->
<g id="node2" class="node"><title>Node2</title>
<g id="a_node2"><a xlink:href="frame__detection__data_8h.html" target="_top" xlink:title="frame_detection_data.h">
<polygon fill="none" stroke="black" points="43.5,-112.5 43.5,-131.5 162.5,-131.5 162.5,-112.5 43.5,-112.5"/>
<text text-anchor="middle" x="103" y="-119.5" font-family="Helvetica,sans-Serif" font-size="10.00">frame_detection_data.h</text>
</a>
</g>
</g>
<!-- Node1&#45;&gt;Node2 -->
<g id="edge1" class="edge"><title>Node1&#45;&gt;Node2</title>
<path fill="none" stroke="midnightblue" d="M103,-168.781C103,-160.781 103,-150.689 103,-142.017"/>
<polygon fill="midnightblue" stroke="midnightblue" points="106.5,-141.73 103,-131.731 99.5001,-141.731 106.5,-141.73"/>
</g>
<!-- Node3 -->
<g id="node3" class="node"><title>Node3</title>
<polygon fill="none" stroke="#bfbfbf" points="-0.5,-56.5 -0.5,-75.5 28.5,-75.5 28.5,-56.5 -0.5,-56.5"/>
<text text-anchor="middle" x="14" y="-63.5" font-family="Helvetica,sans-Serif" font-size="10.00">list</text>
</g>
<!-- Node2&#45;&gt;Node3 -->
<g id="edge2" class="edge"><title>Node2&#45;&gt;Node3</title>
<path fill="none" stroke="midnightblue" d="M88.7006,-112.324C74.8171,-103.9 53.5076,-90.9709 37.1963,-81.0741"/>
<polygon fill="midnightblue" stroke="midnightblue" points="38.6289,-77.8495 28.2639,-75.6545 34.9978,-83.8341 38.6289,-77.8495"/>
</g>
<!-- Node4 -->
<g id="node4" class="node"><title>Node4</title>
<polygon fill="none" stroke="#bfbfbf" points="120,-0.5 120,-19.5 164,-19.5 164,-0.5 120,-0.5"/>
<text text-anchor="middle" x="142" y="-7.5" font-family="Helvetica,sans-Serif" font-size="10.00">vector</text>
</g>
<!-- Node2&#45;&gt;Node4 -->
<g id="edge3" class="edge"><title>Node2&#45;&gt;Node4</title>
<path fill="none" stroke="midnightblue" d="M94.5566,-112.357C83.2461,-99.6813 65.7225,-75.4464 76,-56 83.4764,-41.8536 97.6194,-31.3181 110.901,-24.0121"/>
<polygon fill="midnightblue" stroke="midnightblue" points="112.531,-27.1101 119.867,-19.4654 109.365,-20.867 112.531,-27.1101"/>
</g>
<!-- Node5 -->
<g id="node5" class="node"><title>Node5</title>
<polygon fill="none" stroke="#bfbfbf" points="85.5,-56.5 85.5,-75.5 120.5,-75.5 120.5,-56.5 85.5,-56.5"/>
<text text-anchor="middle" x="103" y="-63.5" font-family="Helvetica,sans-Serif" font-size="10.00">map</text>
</g>
<!-- Node2&#45;&gt;Node5 -->
<g id="edge4" class="edge"><title>Node2&#45;&gt;Node5</title>
<path fill="none" stroke="midnightblue" d="M103,-112.083C103,-105.006 103,-94.8611 103,-85.9865"/>
<polygon fill="midnightblue" stroke="midnightblue" points="106.5,-85.751 103,-75.7511 99.5001,-85.7511 106.5,-85.751"/>
</g>
<!-- Node6 -->
<g id="node6" class="node"><title>Node6</title>
<polygon fill="none" stroke="#bfbfbf" points="138.5,-56.5 138.5,-75.5 179.5,-75.5 179.5,-56.5 138.5,-56.5"/>
<text text-anchor="middle" x="159" y="-63.5" font-family="Helvetica,sans-Serif" font-size="10.00">string</text>
</g>
<!-- Node2&#45;&gt;Node6 -->
<g id="edge5" class="edge"><title>Node2&#45;&gt;Node6</title>
<path fill="none" stroke="midnightblue" d="M111.997,-112.324C120.194,-104.42 132.506,-92.5482 142.472,-82.9377"/>
<polygon fill="midnightblue" stroke="midnightblue" points="145.07,-85.2947 149.839,-75.8339 140.211,-80.2558 145.07,-85.2947"/>
</g>
<!-- Node7 -->
<g id="node7" class="node"><title>Node7</title>
<g id="a_node7"><a xlink:href="element_8h.html" target="_top" xlink:title="element.h">
<polygon fill="none" stroke="black" points="197.5,-56.5 197.5,-75.5 256.5,-75.5 256.5,-56.5 197.5,-56.5"/>
<text text-anchor="middle" x="227" y="-63.5" font-family="Helvetica,sans-Serif" font-size="10.00">element.h</text>
</a>
</g>
</g>
<!-- Node2&#45;&gt;Node7 -->
<g id="edge6" class="edge"><title>Node2&#45;&gt;Node7</title>
<path fill="none" stroke="midnightblue" d="M122.648,-112.444C142.965,-103.596 174.903,-89.6875 198.098,-79.5865"/>
<polygon fill="midnightblue" stroke="midnightblue" points="199.673,-82.7181 207.444,-75.5164 196.878,-76.3002 199.673,-82.7181"/>
</g>
<!-- Node7&#45;&gt;Node4 -->
<g id="edge7" class="edge"><title>Node7&#45;&gt;Node4</title>
<path fill="none" stroke="midnightblue" d="M213.343,-56.324C200.084,-47.9002 179.732,-34.9709 164.154,-25.0741"/>
<polygon fill="midnightblue" stroke="midnightblue" points="165.94,-22.0626 155.623,-19.6545 162.187,-27.9711 165.94,-22.0626"/>
</g>
</g>
</svg>
