<?xml version="1.0" encoding="UTF-8" standalone="no"?>
<!DOCTYPE svg PUBLIC "-//W3C//DTD SVG 1.1//EN"
 "http://www.w3.org/Graphics/SVG/1.1/DTD/svg11.dtd">
<!-- Generated by graphviz version 2.36.0 (20140111.2315)
 -->
<!-- Title: src/StreamDecoder/hdf_reader.cpp Pages: 1 -->
<svg width="275pt" height="152pt"
 viewBox="0.00 0.00 275.00 152.00" xmlns="http://www.w3.org/2000/svg" xmlns:xlink="http://www.w3.org/1999/xlink">
<g id="graph0" class="graph" transform="scale(1 1) rotate(0) translate(4 148)">
<title>src/StreamDecoder/hdf_reader.cpp</title>
<!-- Node1 -->
<g id="node1" class="node"><title>Node1</title>
<polygon fill="#bfbfbf" stroke="black" points="74,-113 74,-143 192,-143 192,-113 74,-113"/>
<text text-anchor="start" x="82" y="-131" font-family="Helvetica,sans-Serif" font-size="10.00">src/StreamDecoder/hdf</text>
<text text-anchor="middle" x="133" y="-120" font-family="Helvetica,sans-Serif" font-size="10.00">_reader.cpp</text>
</g>
<!-- Node2 -->
<g id="node2" class="node"><title>Node2</title>
<g id="a_node2"><a xlink:href="hdf__reader_8h.html" target="_top" xlink:title="hdf_reader.h">
<polygon fill="none" stroke="black" points="57.5,-56.5 57.5,-75.5 128.5,-75.5 128.5,-56.5 57.5,-56.5"/>
<text text-anchor="middle" x="93" y="-63.5" font-family="Helvetica,sans-Serif" font-size="10.00">hdf_reader.h</text>
</a>
</g>
</g>
<!-- Node1&#45;&gt;Node2 -->
<g id="edge1" class="edge"><title>Node1&#45;&gt;Node2</title>
<path fill="none" stroke="midnightblue" d="M123.521,-112.781C117.828,-104.242 110.546,-93.3184 104.522,-84.2834"/>
<polygon fill="midnightblue" stroke="midnightblue" points="107.28,-82.1096 98.8204,-75.7305 101.455,-85.9925 107.28,-82.1096"/>
</g>
<!-- Node3 -->
<g id="node3" class="node"><title>Node3</title>
<polygon fill="none" stroke="#bfbfbf" points="0,-0.5 0,-19.5 54,-19.5 54,-0.5 0,-0.5"/>
<text text-anchor="middle" x="27" y="-7.5" font-family="Helvetica,sans-Serif" font-size="10.00">iostream</text>
</g>
<!-- Node1&#45;&gt;Node3 -->
<g id="edge7" class="edge"><title>Node1&#45;&gt;Node3</title>
<path fill="none" stroke="midnightblue" d="M97.3984,-112.802C80.3271,-104.385 60.8474,-92.1685 48,-76 37.405,-62.6661 32.0885,-43.8372 29.4625,-29.8744"/>
<polygon fill="midnightblue" stroke="midnightblue" points="32.9067,-29.2463 27.8838,-19.9178 25.9931,-30.3425 32.9067,-29.2463"/>
</g>
<!-- Node7 -->
<g id="node7" class="node"><title>Node7</title>
<polygon fill="none" stroke="#bfbfbf" points="147,-56.5 147,-75.5 199,-75.5 199,-56.5 147,-56.5"/>
<text text-anchor="middle" x="173" y="-63.5" font-family="Helvetica,sans-Serif" font-size="10.00">sstream</text>
</g>
<!-- Node1&#45;&gt;Node7 -->
<g id="edge6" class="edge"><title>Node1&#45;&gt;Node7</title>
<path fill="none" stroke="midnightblue" d="M142.479,-112.781C148.172,-104.242 155.454,-93.3184 161.478,-84.2834"/>
<polygon fill="midnightblue" stroke="midnightblue" points="164.545,-85.9925 167.18,-75.7305 158.72,-82.1096 164.545,-85.9925"/>
</g>
<!-- Node8 -->
<g id="node8" class="node"><title>Node8</title>
<polygon fill="none" stroke="#bfbfbf" points="217,-56.5 217,-75.5 267,-75.5 267,-56.5 217,-56.5"/>
<text text-anchor="middle" x="242" y="-63.5" font-family="Helvetica,sans-Serif" font-size="10.00">fstream</text>
</g>
<!-- Node1&#45;&gt;Node8 -->
<g id="edge8" class="edge"><title>Node1&#45;&gt;Node8</title>
<path fill="none" stroke="midnightblue" d="M158.556,-112.933C176.288,-103.171 199.78,-90.2401 217.32,-80.5856"/>
<polygon fill="midnightblue" stroke="midnightblue" points="219.304,-83.4885 226.377,-75.6 215.928,-77.3562 219.304,-83.4885"/>
</g>
<!-- Node2&#45;&gt;Node3 -->
<g id="edge2" class="edge"><title>Node2&#45;&gt;Node3</title>
<path fill="none" stroke="midnightblue" d="M82.396,-56.324C72.5438,-48.2631 57.6491,-36.0765 45.7849,-26.3695"/>
<polygon fill="midnightblue" stroke="midnightblue" points="47.7529,-23.4575 37.797,-19.8339 43.3202,-28.8752 47.7529,-23.4575"/>
</g>
<!-- Node4 -->
<g id="node4" class="node"><title>Node4</title>
<polygon fill="none" stroke="#bfbfbf" points="72.5,-0.5 72.5,-19.5 113.5,-19.5 113.5,-0.5 72.5,-0.5"/>
<text text-anchor="middle" x="93" y="-7.5" font-family="Helvetica,sans-Serif" font-size="10.00">string</text>
</g>
<!-- Node2&#45;&gt;Node4 -->
<g id="edge3" class="edge"><title>Node2&#45;&gt;Node4</title>
<path fill="none" stroke="midnightblue" d="M93,-56.083C93,-49.0059 93,-38.8611 93,-29.9865"/>
<polygon fill="midnightblue" stroke="midnightblue" points="96.5001,-29.751 93,-19.7511 89.5001,-29.7511 96.5001,-29.751"/>
</g>
<!-- Node5 -->
<g id="node5" class="node"><title>Node5</title>
<polygon fill="none" stroke="#bfbfbf" points="132,-0.5 132,-19.5 176,-19.5 176,-0.5 132,-0.5"/>
<text text-anchor="middle" x="154" y="-7.5" font-family="Helvetica,sans-Serif" font-size="10.00">vector</text>
</g>
<!-- Node2&#45;&gt;Node5 -->
<g id="edge4" class="edge"><title>Node2&#45;&gt;Node5</title>
<path fill="none" stroke="midnightblue" d="M102.801,-56.324C111.818,-48.3414 125.406,-36.3128 136.318,-26.6529"/>
<polygon fill="midnightblue" stroke="midnightblue" points="138.853,-29.083 144.021,-19.8339 134.213,-23.8416 138.853,-29.083"/>
</g>
<!-- Node6 -->
<g id="node6" class="node"><title>Node6</title>
<polygon fill="none" stroke="#bfbfbf" points="194,-0.5 194,-19.5 250,-19.5 250,-0.5 194,-0.5"/>
<text text-anchor="middle" x="222" y="-7.5" font-family="Helvetica,sans-Serif" font-size="10.00">H5Cpp.h</text>
</g>
<!-- Node2&#45;&gt;Node6 -->
<g id="edge5" class="edge"><title>Node2&#45;&gt;Node6</title>
<path fill="none" stroke="midnightblue" d="M113.44,-56.4435C134.67,-47.5566 168.099,-33.5632 192.255,-23.4514"/>
<polygon fill="midnightblue" stroke="midnightblue" points="193.782,-26.6064 201.655,-19.5164 191.079,-20.1493 193.782,-26.6064"/>
</g>
</g>
</svg>
