<?xml version="1.0" encoding="UTF-8" standalone="no"?>
<!DOCTYPE svg PUBLIC "-//W3C//DTD SVG 1.1//EN"
 "http://www.w3.org/Graphics/SVG/1.1/DTD/svg11.dtd">
<!-- Generated by graphviz version 2.36.0 (20140111.2315)
 -->
<!-- Title: src/StreamDecoder/hdf_reader.h Pages: 1 -->
<svg width="258pt" height="96pt"
 viewBox="0.00 0.00 258.00 96.00" xmlns="http://www.w3.org/2000/svg" xmlns:xlink="http://www.w3.org/1999/xlink">
<g id="graph0" class="graph" transform="scale(1 1) rotate(0) translate(4 92)">
<title>src/StreamDecoder/hdf_reader.h</title>
<!-- Node1 -->
<g id="node1" class="node"><title>Node1</title>
<polygon fill="#bfbfbf" stroke="black" points="64,-57 64,-87 182,-87 182,-57 64,-57"/>
<text text-anchor="start" x="72" y="-75" font-family="Helvetica,sans-Serif" font-size="10.00">src/StreamDecoder/hdf</text>
<text text-anchor="middle" x="123" y="-64" font-family="Helvetica,sans-Serif" font-size="10.00">_reader.h</text>
</g>
<!-- Node2 -->
<g id="node2" class="node"><title>Node2</title>
<polygon fill="none" stroke="#bfbfbf" points="0,-0.5 0,-19.5 54,-19.5 54,-0.5 0,-0.5"/>
<text text-anchor="middle" x="27" y="-7.5" font-family="Helvetica,sans-Serif" font-size="10.00">iostream</text>
</g>
<!-- Node1&#45;&gt;Node2 -->
<g id="edge1" class="edge"><title>Node1&#45;&gt;Node2</title>
<path fill="none" stroke="midnightblue" d="M100.249,-56.7808C84.9132,-47.1958 64.7699,-34.6062 49.4889,-25.0555"/>
<polygon fill="midnightblue" stroke="midnightblue" points="51.0241,-21.8877 40.6891,-19.5557 47.3141,-27.8237 51.0241,-21.8877"/>
</g>
<!-- Node3 -->
<g id="node3" class="node"><title>Node3</title>
<polygon fill="none" stroke="#bfbfbf" points="72.5,-0.5 72.5,-19.5 113.5,-19.5 113.5,-0.5 72.5,-0.5"/>
<text text-anchor="middle" x="93" y="-7.5" font-family="Helvetica,sans-Serif" font-size="10.00">string</text>
</g>
<!-- Node1&#45;&gt;Node3 -->
<g id="edge2" class="edge"><title>Node1&#45;&gt;Node3</title>
<path fill="none" stroke="midnightblue" d="M115.89,-56.7808C111.711,-48.4217 106.389,-37.7773 101.928,-28.8565"/>
<polygon fill="midnightblue" stroke="midnightblue" points="104.968,-27.1095 97.3653,-19.7305 98.707,-30.2401 104.968,-27.1095"/>
</g>
<!-- Node4 -->
<g id="node4" class="node"><title>Node4</title>
<polygon fill="none" stroke="#bfbfbf" points="132,-0.5 132,-19.5 176,-19.5 176,-0.5 132,-0.5"/>
<text text-anchor="middle" x="154" y="-7.5" font-family="Helvetica,sans-Serif" font-size="10.00">vector</text>
</g>
<!-- Node1&#45;&gt;Node4 -->
<g id="edge3" class="edge"><title>Node1&#45;&gt;Node4</title>
<path fill="none" stroke="midnightblue" d="M130.347,-56.7808C134.665,-48.4217 140.165,-37.7773 144.774,-28.8565"/>
<polygon fill="midnightblue" stroke="midnightblue" points="148.008,-30.2214 149.489,-19.7305 141.789,-27.0082 148.008,-30.2214"/>
</g>
<!-- Node5 -->
<g id="node5" class="node"><title>Node5</title>
<polygon fill="none" stroke="#bfbfbf" points="194,-0.5 194,-19.5 250,-19.5 250,-0.5 194,-0.5"/>
<text text-anchor="middle" x="222" y="-7.5" font-family="Helvetica,sans-Serif" font-size="10.00">H5Cpp.h</text>
</g>
<!-- Node1&#45;&gt;Node5 -->
<g id="edge4" class="edge"><title>Node1&#45;&gt;Node5</title>
<path fill="none" stroke="midnightblue" d="M146.211,-56.9327C162.168,-47.2619 183.259,-34.4793 199.14,-24.8546"/>
<polygon fill="midnightblue" stroke="midnightblue" points="201.072,-27.7763 207.81,-19.6 197.444,-21.7899 201.072,-27.7763"/>
</g>
</g>
</svg>
