<?xml version="1.0" encoding="UTF-8" standalone="no"?>
<!DOCTYPE svg PUBLIC "-//W3C//DTD SVG 1.1//EN"
 "http://www.w3.org/Graphics/SVG/1.1/DTD/svg11.dtd">
<!-- Generated by graphviz version 2.36.0 (20140111.2315)
 -->
<!-- Title: src/StreamDecoder/protofiles/header.pb.cc Pages: 1 -->
<!--zoomable 176 -->
<svg id="main" version="1.1" xmlns="http://www.w3.org/2000/svg" xmlns:xlink="http://www.w3.org/1999/xlink" xml:space="preserve" onload="init(evt)">
<style type="text/css"><![CDATA[
.edge:hover path { stroke: red; }
.edge:hover polygon { stroke: red; fill: red; }
]]></style>
<script type="text/javascript"><![CDATA[
var edges = document.getElementsByTagName('g');
if (edges && edges.length) {
  for (var i=0;i<edges.length;i++) {
    if (edges[i].id.substr(0,4)=='edge') {
      edges[i].setAttribute('class','edge');
    }
  }
}
]]></script>
        <defs>
                <circle id="rim" cx="0" cy="0" r="7"/>
                <circle id="rim2" cx="0" cy="0" r="3.5"/>
                <g id="zoomPlus">
                        <use xlink:href="#rim" fill="#404040">
                                <set attributeName="fill" to="#808080" begin="zoomplus.mouseover" end="zoomplus.mouseout"/>
                        </use>
                        <path d="M-4,0h8M0,-4v8" fill="none" stroke="white" stroke-width="1.5" pointer-events="none"/>
                </g>
                <g id="zoomMin">
                        <use xlink:href="#rim" fill="#404040">
                                <set attributeName="fill" to="#808080" begin="zoomminus.mouseover" end="zoomminus.mouseout"/>
                        </use>
                        <path d="M-4,0h8" fill="none" stroke="white" stroke-width="1.5" pointer-events="none"/>
                </g>
                <g id="dirArrow">
                        <path fill="none" stroke="white" stroke-width="1.5" d="M0,-3.0v7 M-2.5,-0.5L0,-3.0L2.5,-0.5"/>
                </g>
               <g id="resetDef">
                       <use xlink:href="#rim2" fill="#404040">
                               <set attributeName="fill" to="#808080" begin="reset.mouseover" end="reset.mouseout"/>
                       </use>
               </g>
        </defs>

<script type="text/javascript">
var viewWidth = 1374;
var viewHeight = 176;
var sectionId = 'dynsection-0';
</script>
<script xlink:href="svgpan.js"/>
<svg id="graph" class="graph">
<g id="viewport">
<title>src/StreamDecoder/protofiles/header.pb.cc</title>
<!-- Node1 -->
<g id="node1" class="node"><title>Node1</title>
<polygon fill="#bfbfbf" stroke="black" points="614,-137 614,-167 758,-167 758,-137 614,-137"/>
<text text-anchor="start" x="622" y="-155" font-family="Helvetica,sans-Serif" font-size="10.00">src/StreamDecoder/protofiles</text>
<text text-anchor="middle" x="686" y="-144" font-family="Helvetica,sans-Serif" font-size="10.00">/header.pb.cc</text>
</g>
<!-- Node2 -->
<g id="node2" class="node"><title>Node2</title>
<g id="a_node2"><a xlink:href="header_8pb_8h.html" target="_top" xlink:title="header.pb.h">
<polygon fill="none" stroke="black" points="293,-74.5 293,-93.5 361,-93.5 361,-74.5 293,-74.5"/>
<text text-anchor="middle" x="327" y="-81.5" font-family="Helvetica,sans-Serif" font-size="10.00">header.pb.h</text>
</a>
</g>
</g>
<!-- Node1&#45;&gt;Node2 -->
<g id="edge1" class="edge"><title>Node1&#45;&gt;Node2</title>
<path fill="none" stroke="midnightblue" d="M613.73,-143.004C549.2,-134.999 452.426,-120.856 370,-100 366.335,-99.0727 362.539,-97.9686 358.789,-96.786"/>
<polygon fill="midnightblue" stroke="midnightblue" points="359.685,-93.395 349.091,-93.5399 357.463,-100.033 359.685,-93.395"/>
</g>
<!-- Node4 -->
<g id="node4" class="node"><title>Node4</title>
<polygon fill="none" stroke="#bfbfbf" points="0,-1 0,-31 110,-31 110,-1 0,-1"/>
<text text-anchor="start" x="8" y="-19" font-family="Helvetica,sans-Serif" font-size="10.00">google/protobuf/stubs</text>
<text text-anchor="middle" x="55" y="-8" font-family="Helvetica,sans-Serif" font-size="10.00">/common.h</text>
</g>
<!-- Node1&#45;&gt;Node4 -->
<g id="edge10" class="edge"><title>Node1&#45;&gt;Node4</title>
<path fill="none" stroke="midnightblue" d="M613.97,-146.687C532.848,-140.72 397.52,-127.414 284,-100 216.599,-83.7232 141.593,-54.2468 96.3752,-35.157"/>
<polygon fill="midnightblue" stroke="midnightblue" points="97.4894,-31.8275 86.9174,-31.132 94.7482,-38.2685 97.4894,-31.8275"/>
</g>
<!-- Node10 -->
<g id="node10" class="node"><title>Node10</title>
<polygon fill="none" stroke="#bfbfbf" points="379,-74.5 379,-93.5 435,-93.5 435,-74.5 379,-74.5"/>
<text text-anchor="middle" x="407" y="-81.5" font-family="Helvetica,sans-Serif" font-size="10.00">algorithm</text>
</g>
<!-- Node1&#45;&gt;Node10 -->
<g id="edge9" class="edge"><title>Node1&#45;&gt;Node10</title>
<path fill="none" stroke="midnightblue" d="M613.943,-139.276C565.371,-130.532 500.155,-117.151 444,-100 441.357,-99.1926 438.639,-98.2729 435.935,-97.2953"/>
<polygon fill="midnightblue" stroke="midnightblue" points="436.942,-93.9327 426.353,-93.5992 434.423,-100.464 436.942,-93.9327"/>
</g>
<!-- Node11 -->
<g id="node11" class="node"><title>Node11</title>
<polygon fill="none" stroke="#bfbfbf" points="453,-69 453,-99 563,-99 563,-69 453,-69"/>
<text text-anchor="start" x="461" y="-87" font-family="Helvetica,sans-Serif" font-size="10.00">google/protobuf/stubs</text>
<text text-anchor="middle" x="508" y="-76" font-family="Helvetica,sans-Serif" font-size="10.00">/once.h</text>
</g>
<!-- Node1&#45;&gt;Node11 -->
<g id="edge11" class="edge"><title>Node1&#45;&gt;Node11</title>
<path fill="none" stroke="midnightblue" d="M647.815,-136.841C620.74,-126.802 584.23,-113.265 555.309,-102.542"/>
<polygon fill="midnightblue" stroke="midnightblue" points="556.409,-99.2168 545.816,-99.0218 553.976,-105.78 556.409,-99.2168"/>
</g>
<!-- Node12 -->
<g id="node12" class="node"><title>Node12</title>
<polygon fill="none" stroke="#bfbfbf" points="581,-69 581,-99 675,-99 675,-69 581,-69"/>
<text text-anchor="start" x="589" y="-87" font-family="Helvetica,sans-Serif" font-size="10.00">google/protobuf/io</text>
<text text-anchor="middle" x="628" y="-76" font-family="Helvetica,sans-Serif" font-size="10.00">/coded_stream.h</text>
</g>
<!-- Node1&#45;&gt;Node12 -->
<g id="edge12" class="edge"><title>Node1&#45;&gt;Node12</title>
<path fill="none" stroke="midnightblue" d="M673.415,-136.679C665.814,-128.03 655.971,-116.829 647.392,-107.067"/>
<polygon fill="midnightblue" stroke="midnightblue" points="649.791,-104.494 640.561,-99.2931 644.533,-109.115 649.791,-104.494"/>
</g>
<!-- Node13 -->
<g id="node13" class="node"><title>Node13</title>
<polygon fill="none" stroke="#bfbfbf" points="693,-69 693,-99 797,-99 797,-69 693,-69"/>
<text text-anchor="start" x="701" y="-87" font-family="Helvetica,sans-Serif" font-size="10.00">google/protobuf/wire</text>
<text text-anchor="middle" x="745" y="-76" font-family="Helvetica,sans-Serif" font-size="10.00">_format_lite_inl.h</text>
</g>
<!-- Node1&#45;&gt;Node13 -->
<g id="edge13" class="edge"><title>Node1&#45;&gt;Node13</title>
<path fill="none" stroke="midnightblue" d="M698.802,-136.679C706.611,-127.944 716.747,-116.605 725.535,-106.775"/>
<polygon fill="midnightblue" stroke="midnightblue" points="728.168,-109.081 732.223,-99.2931 722.949,-104.416 728.168,-109.081"/>
</g>
<!-- Node14 -->
<g id="node14" class="node"><title>Node14</title>
<polygon fill="none" stroke="#bfbfbf" points="815.5,-74.5 815.5,-93.5 952.5,-93.5 952.5,-74.5 815.5,-74.5"/>
<text text-anchor="middle" x="884" y="-81.5" font-family="Helvetica,sans-Serif" font-size="10.00">google/protobuf/descriptor.h</text>
</g>
<!-- Node1&#45;&gt;Node14 -->
<g id="edge14" class="edge"><title>Node1&#45;&gt;Node14</title>
<path fill="none" stroke="midnightblue" d="M728.476,-136.841C764.209,-124.93 814.718,-108.094 848.371,-96.8762"/>
<polygon fill="midnightblue" stroke="midnightblue" points="849.86,-100.07 858.24,-93.5868 847.646,-93.4288 849.86,-100.07"/>
</g>
<!-- Node15 -->
<g id="node15" class="node"><title>Node15</title>
<polygon fill="none" stroke="#bfbfbf" points="970.5,-69 970.5,-99 1099.5,-99 1099.5,-69 970.5,-69"/>
<text text-anchor="start" x="978.5" y="-87" font-family="Helvetica,sans-Serif" font-size="10.00">google/protobuf/generated</text>
<text text-anchor="middle" x="1035" y="-76" font-family="Helvetica,sans-Serif" font-size="10.00">_message_reflection.h</text>
</g>
<!-- Node1&#45;&gt;Node15 -->
<g id="edge15" class="edge"><title>Node1&#45;&gt;Node15</title>
<path fill="none" stroke="midnightblue" d="M758.149,-137.958C811.269,-128.277 885.528,-114.582 960.358,-100.107"/>
<polygon fill="midnightblue" stroke="midnightblue" points="961.288,-103.492 970.439,-98.1525 959.955,-96.6196 961.288,-103.492"/>
</g>
<!-- Node16 -->
<g id="node16" class="node"><title>Node16</title>
<polygon fill="none" stroke="#bfbfbf" points="1118,-69 1118,-99 1244,-99 1244,-69 1118,-69"/>
<text text-anchor="start" x="1126" y="-87" font-family="Helvetica,sans-Serif" font-size="10.00">google/protobuf/reflection</text>
<text text-anchor="middle" x="1181" y="-76" font-family="Helvetica,sans-Serif" font-size="10.00">_ops.h</text>
</g>
<!-- Node1&#45;&gt;Node16 -->
<g id="edge16" class="edge"><title>Node1&#45;&gt;Node16</title>
<path fill="none" stroke="midnightblue" d="M758.312,-144.092C840.421,-135.835 978.579,-120.695 1107.68,-99.9605"/>
<polygon fill="midnightblue" stroke="midnightblue" points="1108.44,-103.383 1117.75,-98.3286 1107.32,-96.4734 1108.44,-103.383"/>
</g>
<!-- Node17 -->
<g id="node17" class="node"><title>Node17</title>
<polygon fill="none" stroke="#bfbfbf" points="1262,-69 1262,-99 1366,-99 1366,-69 1262,-69"/>
<text text-anchor="start" x="1270" y="-87" font-family="Helvetica,sans-Serif" font-size="10.00">google/protobuf/wire</text>
<text text-anchor="middle" x="1314" y="-76" font-family="Helvetica,sans-Serif" font-size="10.00">_format.h</text>
</g>
<!-- Node1&#45;&gt;Node17 -->
<g id="edge17" class="edge"><title>Node1&#45;&gt;Node17</title>
<path fill="none" stroke="midnightblue" d="M758.048,-148.017C864.219,-142.849 1068.98,-129.934 1251.8,-100.038"/>
<polygon fill="midnightblue" stroke="midnightblue" points="1252.57,-103.458 1261.86,-98.3707 1251.43,-96.5518 1252.57,-103.458"/>
</g>
<!-- Node3 -->
<g id="node3" class="node"><title>Node3</title>
<polygon fill="none" stroke="#bfbfbf" points="128.5,-6.5 128.5,-25.5 169.5,-25.5 169.5,-6.5 128.5,-6.5"/>
<text text-anchor="middle" x="149" y="-13.5" font-family="Helvetica,sans-Serif" font-size="10.00">string</text>
</g>
<!-- Node2&#45;&gt;Node3 -->
<g id="edge2" class="edge"><title>Node2&#45;&gt;Node3</title>
<path fill="none" stroke="midnightblue" d="M298.765,-74.4919C268.674,-65.143 219.841,-49.1589 179,-32 177.591,-31.4079 176.155,-30.7795 174.713,-30.1286"/>
<polygon fill="midnightblue" stroke="midnightblue" points="175.855,-26.7956 165.323,-25.649 172.841,-33.1135 175.855,-26.7956"/>
</g>
<!-- Node2&#45;&gt;Node4 -->
<g id="edge3" class="edge"><title>Node2&#45;&gt;Node4</title>
<path fill="none" stroke="midnightblue" d="M292.826,-74.7079C249.642,-64.2292 174.406,-45.9736 120.104,-32.7972"/>
<polygon fill="midnightblue" stroke="midnightblue" points="120.764,-29.3558 110.22,-30.399 119.113,-36.1584 120.764,-29.3558"/>
</g>
<!-- Node5 -->
<g id="node5" class="node"><title>Node5</title>
<polygon fill="none" stroke="#bfbfbf" points="187.5,-1 187.5,-31 316.5,-31 316.5,-1 187.5,-1"/>
<text text-anchor="start" x="195.5" y="-19" font-family="Helvetica,sans-Serif" font-size="10.00">google/protobuf/generated</text>
<text text-anchor="middle" x="252" y="-8" font-family="Helvetica,sans-Serif" font-size="10.00">_message_util.h</text>
</g>
<!-- Node2&#45;&gt;Node5 -->
<g id="edge4" class="edge"><title>Node2&#45;&gt;Node5</title>
<path fill="none" stroke="midnightblue" d="M317.195,-74.3717C306.773,-65.2 289.902,-50.3536 275.934,-38.0615"/>
<polygon fill="midnightblue" stroke="midnightblue" points="277.935,-35.1603 268.115,-31.1815 273.31,-40.4153 277.935,-35.1603"/>
</g>
<!-- Node6 -->
<g id="node6" class="node"><title>Node6</title>
<polygon fill="none" stroke="#bfbfbf" points="335,-6.5 335,-25.5 469,-25.5 469,-6.5 335,-6.5"/>
<text text-anchor="middle" x="402" y="-13.5" font-family="Helvetica,sans-Serif" font-size="10.00">google/protobuf/message.h</text>
</g>
<!-- Node2&#45;&gt;Node6 -->
<g id="edge5" class="edge"><title>Node2&#45;&gt;Node6</title>
<path fill="none" stroke="midnightblue" d="M336.805,-74.3717C348.866,-63.7581 369.562,-45.5453 384.403,-32.4855"/>
<polygon fill="midnightblue" stroke="midnightblue" points="386.758,-35.0749 391.953,-25.8411 382.134,-29.8199 386.758,-35.0749"/>
</g>
<!-- Node7 -->
<g id="node7" class="node"><title>Node7</title>
<polygon fill="none" stroke="#bfbfbf" points="487,-1 487,-31 611,-31 611,-1 487,-1"/>
<text text-anchor="start" x="495" y="-19" font-family="Helvetica,sans-Serif" font-size="10.00">google/protobuf/repeated</text>
<text text-anchor="middle" x="549" y="-8" font-family="Helvetica,sans-Serif" font-size="10.00">_field.h</text>
</g>
<!-- Node2&#45;&gt;Node7 -->
<g id="edge6" class="edge"><title>Node2&#45;&gt;Node7</title>
<path fill="none" stroke="midnightblue" d="M350.575,-74.4997C356.862,-72.3085 363.668,-70.0045 370,-68 408.553,-55.7948 452.189,-43.3349 486.726,-33.786"/>
<polygon fill="midnightblue" stroke="midnightblue" points="487.962,-37.0759 496.674,-31.0464 486.103,-30.3272 487.962,-37.0759"/>
</g>
<!-- Node8 -->
<g id="node8" class="node"><title>Node8</title>
<polygon fill="none" stroke="#bfbfbf" points="629,-1 629,-31 757,-31 757,-1 629,-1"/>
<text text-anchor="start" x="637" y="-19" font-family="Helvetica,sans-Serif" font-size="10.00">google/protobuf/extension</text>
<text text-anchor="middle" x="693" y="-8" font-family="Helvetica,sans-Serif" font-size="10.00">_set.h</text>
</g>
<!-- Node2&#45;&gt;Node8 -->
<g id="edge7" class="edge"><title>Node2&#45;&gt;Node8</title>
<path fill="none" stroke="midnightblue" d="M349.073,-74.3885C355.721,-72.0441 363.087,-69.6888 370,-68 478.623,-41.463 508.829,-51.1146 619,-32 619.101,-31.9825 619.202,-31.965 619.303,-31.9474"/>
<polygon fill="midnightblue" stroke="midnightblue" points="619.642,-35.4425 628.866,-30.2304 618.405,-28.5527 619.642,-35.4425"/>
</g>
<!-- Node9 -->
<g id="node9" class="node"><title>Node9</title>
<polygon fill="none" stroke="#bfbfbf" points="775.5,-1 775.5,-31 900.5,-31 900.5,-1 775.5,-1"/>
<text text-anchor="start" x="783.5" y="-19" font-family="Helvetica,sans-Serif" font-size="10.00">google/protobuf/unknown</text>
<text text-anchor="middle" x="838" y="-8" font-family="Helvetica,sans-Serif" font-size="10.00">_field_set.h</text>
</g>
<!-- Node2&#45;&gt;Node9 -->
<g id="edge8" class="edge"><title>Node2&#45;&gt;Node9</title>
<path fill="none" stroke="midnightblue" d="M348.138,-74.4707C355.009,-72.0122 362.736,-69.5722 370,-68 539.522,-31.3093 589.365,-57.0686 765.141,-31.9931"/>
<polygon fill="midnightblue" stroke="midnightblue" points="765.859,-35.4255 775.248,-30.5156 764.846,-28.4991 765.859,-35.4255"/>
</g>
</g>
</svg>
        <g id="navigator" transform="translate(0 0)" fill="#404254">
                <rect fill="#f2f5e9" fill-opacity="0.5" stroke="#606060" stroke-width=".5" x="0" y="0" width="60" height="60"/>
                <use id="zoomplus" xlink:href="#zoomPlus" x="17" y="9" onmousedown="handleZoom(evt,'in')"/>
                <use id="zoomminus" xlink:href="#zoomMin" x="42" y="9" onmousedown="handleZoom(evt,'out')"/>
                <use id="reset" xlink:href="#resetDef" x="30" y="36" onmousedown="handleReset()"/>
                <g id="arrowUp" xlink:href="#dirArrow" transform="translate(30 24)" onmousedown="handlePan(0,-1)">
                  <use xlink:href="#rim" fill="#404040">
                        <set attributeName="fill" to="#808080" begin="arrowUp.mouseover" end="arrowUp.mouseout"/>
                  </use>
                  <path fill="none" stroke="white" stroke-width="1.5" d="M0,-3.0v7 M-2.5,-0.5L0,-3.0L2.5,-0.5"/>
                </g>
                <g id="arrowRight" xlink:href="#dirArrow" transform="rotate(90) translate(36 -43)" onmousedown="handlePan(1,0)">
                  <use xlink:href="#rim" fill="#404040">
                        <set attributeName="fill" to="#808080" begin="arrowRight.mouseover" end="arrowRight.mouseout"/>
                  </use>
                  <path fill="none" stroke="white" stroke-width="1.5" d="M0,-3.0v7 M-2.5,-0.5L0,-3.0L2.5,-0.5"/>
                </g>
                <g id="arrowDown" xlink:href="#dirArrow" transform="rotate(180) translate(-30 -48)" onmousedown="handlePan(0,1)">
                  <use xlink:href="#rim" fill="#404040">
                        <set attributeName="fill" to="#808080" begin="arrowDown.mouseover" end="arrowDown.mouseout"/>
                  </use>
                  <path fill="none" stroke="white" stroke-width="1.5" d="M0,-3.0v7 M-2.5,-0.5L0,-3.0L2.5,-0.5"/>
                </g>
                <g id="arrowLeft" xlink:href="#dirArrow" transform="rotate(270) translate(-36 17)" onmousedown="handlePan(-1,0)">
                  <use xlink:href="#rim" fill="#404040">
                        <set attributeName="fill" to="#808080" begin="arrowLeft.mouseover" end="arrowLeft.mouseout"/>
                  </use>
                  <path fill="none" stroke="white" stroke-width="1.5" d="M0,-3.0v7 M-2.5,-0.5L0,-3.0L2.5,-0.5"/>
                </g>
        </g>
        <svg viewBox="0 0 15 15" width="100%" height="30px" preserveAspectRatio="xMaxYMin meet">
         <g id="arrow_out" transform="scale(0.3 0.3)">
          <a xlink:href="header_8pb_8cc__incl_org.svg" target="_base">
           <rect id="button" ry="5" rx="5" y="6" x="6" height="38" width="38"
                fill="#f2f5e9" fill-opacity="0.5" stroke="#606060" stroke-width="1.0"/>
           <path id="arrow"
             d="M 11.500037,31.436501 C 11.940474,20.09759 22.043105,11.32322 32.158766,21.979434 L 37.068811,17.246167 C 37.068811,17.246167 37.088388,32 37.088388,32 L 22.160133,31.978069 C 22.160133,31.978069 26.997745,27.140456 26.997745,27.140456 C 18.528582,18.264221 13.291696,25.230495 11.500037,31.436501 z"
             style="fill:#404040;"/>
          </a>
         </g>
        </svg>
</svg>
