<?xml version="1.0" encoding="UTF-8" standalone="no"?>
<!DOCTYPE svg PUBLIC "-//W3C//DTD SVG 1.1//EN"
 "http://www.w3.org/Graphics/SVG/1.1/DTD/svg11.dtd">
<!-- Generated by graphviz version 2.36.0 (20140111.2315)
 -->
<!-- Title: src/ScenarioAnalysation/humans_in_front_of_bus_scenario.cpp Pages: 1 -->
<svg width="264pt" height="354pt"
 viewBox="0.00 0.00 264.00 354.00" xmlns="http://www.w3.org/2000/svg" xmlns:xlink="http://www.w3.org/1999/xlink">
<g id="graph0" class="graph" transform="scale(1 1) rotate(0) translate(4 350)">
<title>src/ScenarioAnalysation/humans_in_front_of_bus_scenario.cpp</title>
<!-- Node1 -->
<g id="node1" class="node"><title>Node1</title>
<polygon fill="#bfbfbf" stroke="black" points="54,-304.5 54,-345.5 180,-345.5 180,-304.5 54,-304.5"/>
<text text-anchor="start" x="62" y="-333.5" font-family="Helvetica,sans-Serif" font-size="10.00">src/ScenarioAnalysation</text>
<text text-anchor="start" x="62" y="-322.5" font-family="Helvetica,sans-Serif" font-size="10.00">/humans_in_front_of_bus</text>
<text text-anchor="middle" x="117" y="-311.5" font-family="Helvetica,sans-Serif" font-size="10.00">_scenario.cpp</text>
</g>
<!-- Node2 -->
<g id="node2" class="node"><title>Node2</title>
<polygon fill="none" stroke="#bfbfbf" points="42,-242.5 42,-261.5 96,-261.5 96,-242.5 42,-242.5"/>
<text text-anchor="middle" x="69" y="-249.5" font-family="Helvetica,sans-Serif" font-size="10.00">iostream</text>
</g>
<!-- Node1&#45;&gt;Node2 -->
<g id="edge1" class="edge"><title>Node1&#45;&gt;Node2</title>
<path fill="none" stroke="midnightblue" d="M103.629,-304.223C96.4083,-293.541 87.5785,-280.481 80.6423,-270.221"/>
<polygon fill="midnightblue" stroke="midnightblue" points="83.4056,-268.059 74.9053,-261.735 77.6065,-271.98 83.4056,-268.059"/>
</g>
<!-- Node3 -->
<g id="node3" class="node"><title>Node3</title>
<g id="a_node3"><a xlink:href="humans__in__front__of__bus__scenario_8h.html" target="_top" xlink:title="humans_in_front_of\l_bus_scenario.h">
<polygon fill="none" stroke="black" points="114,-237 114,-267 216,-267 216,-237 114,-237"/>
<text text-anchor="start" x="122" y="-255" font-family="Helvetica,sans-Serif" font-size="10.00">humans_in_front_of</text>
<text text-anchor="middle" x="165" y="-244" font-family="Helvetica,sans-Serif" font-size="10.00">_bus_scenario.h</text>
</a>
</g>
</g>
<!-- Node1&#45;&gt;Node3 -->
<g id="edge2" class="edge"><title>Node1&#45;&gt;Node3</title>
<path fill="none" stroke="midnightblue" d="M130.371,-304.223C136.425,-295.267 143.61,-284.639 149.862,-275.392"/>
<polygon fill="midnightblue" stroke="midnightblue" points="152.801,-277.293 155.502,-267.049 147.002,-273.373 152.801,-277.293"/>
</g>
<!-- Node4 -->
<g id="node4" class="node"><title>Node4</title>
<g id="a_node4"><a xlink:href="scenario_8h.html" target="_top" xlink:title="scenario.h">
<polygon fill="none" stroke="black" points="134,-180.5 134,-199.5 196,-199.5 196,-180.5 134,-180.5"/>
<text text-anchor="middle" x="165" y="-187.5" font-family="Helvetica,sans-Serif" font-size="10.00">scenario.h</text>
</a>
</g>
</g>
<!-- Node3&#45;&gt;Node4 -->
<g id="edge3" class="edge"><title>Node3&#45;&gt;Node4</title>
<path fill="none" stroke="midnightblue" d="M165,-236.781C165,-228.781 165,-218.689 165,-210.017"/>
<polygon fill="midnightblue" stroke="midnightblue" points="168.5,-209.73 165,-199.731 161.5,-209.731 168.5,-209.73"/>
</g>
<!-- Node5 -->
<g id="node5" class="node"><title>Node5</title>
<g id="a_node5"><a xlink:href="frame__detection__data_8h.html" target="_top" xlink:title="../ObjectDetection\l/frame_detection_data.h">
<polygon fill="none" stroke="black" points="51,-113 51,-143 173,-143 173,-113 51,-113"/>
<text text-anchor="start" x="59" y="-131" font-family="Helvetica,sans-Serif" font-size="10.00">../ObjectDetection</text>
<text text-anchor="middle" x="112" y="-120" font-family="Helvetica,sans-Serif" font-size="10.00">/frame_detection_data.h</text>
</a>
</g>
</g>
<!-- Node4&#45;&gt;Node5 -->
<g id="edge4" class="edge"><title>Node4&#45;&gt;Node5</title>
<path fill="none" stroke="midnightblue" d="M157.406,-180.403C150.564,-172.657 140.212,-160.938 131.119,-150.645"/>
<polygon fill="midnightblue" stroke="midnightblue" points="133.735,-148.318 124.491,-143.141 128.488,-152.953 133.735,-148.318"/>
</g>
<!-- Node10 -->
<g id="node10" class="node"><title>Node10</title>
<g id="a_node10"><a xlink:href="element_8h.html" target="_top" xlink:title="element.h">
<polygon fill="none" stroke="black" points="197.5,-56.5 197.5,-75.5 256.5,-75.5 256.5,-56.5 197.5,-56.5"/>
<text text-anchor="middle" x="227" y="-63.5" font-family="Helvetica,sans-Serif" font-size="10.00">element.h</text>
</a>
</g>
</g>
<!-- Node4&#45;&gt;Node10 -->
<g id="edge11" class="edge"><title>Node4&#45;&gt;Node10</title>
<path fill="none" stroke="midnightblue" d="M169.459,-180.226C179.602,-160.266 204.566,-111.144 218.037,-84.6378"/>
<polygon fill="midnightblue" stroke="midnightblue" points="221.171,-86.195 222.582,-75.6944 214.931,-83.0236 221.171,-86.195"/>
</g>
<!-- Node6 -->
<g id="node6" class="node"><title>Node6</title>
<polygon fill="none" stroke="#bfbfbf" points="-0.5,-56.5 -0.5,-75.5 28.5,-75.5 28.5,-56.5 -0.5,-56.5"/>
<text text-anchor="middle" x="14" y="-63.5" font-family="Helvetica,sans-Serif" font-size="10.00">list</text>
</g>
<!-- Node5&#45;&gt;Node6 -->
<g id="edge5" class="edge"><title>Node5&#45;&gt;Node6</title>
<path fill="none" stroke="midnightblue" d="M88.7754,-112.781C72.9721,-103.105 52.1683,-90.3684 36.5172,-80.7861"/>
<polygon fill="midnightblue" stroke="midnightblue" points="38.3304,-77.7923 27.9743,-75.5557 34.6753,-83.7623 38.3304,-77.7923"/>
</g>
<!-- Node7 -->
<g id="node7" class="node"><title>Node7</title>
<polygon fill="none" stroke="#bfbfbf" points="120,-0.5 120,-19.5 164,-19.5 164,-0.5 120,-0.5"/>
<text text-anchor="middle" x="142" y="-7.5" font-family="Helvetica,sans-Serif" font-size="10.00">vector</text>
</g>
<!-- Node5&#45;&gt;Node7 -->
<g id="edge6" class="edge"><title>Node5&#45;&gt;Node7</title>
<path fill="none" stroke="midnightblue" d="M96.6206,-112.752C83.0182,-98.342 66.7951,-75.4768 77,-56 84.2787,-42.1082 98.0095,-31.6523 110.983,-24.3328"/>
<polygon fill="midnightblue" stroke="midnightblue" points="112.928,-27.2662 120.192,-19.553 109.704,-21.0532 112.928,-27.2662"/>
</g>
<!-- Node8 -->
<g id="node8" class="node"><title>Node8</title>
<polygon fill="none" stroke="#bfbfbf" points="85.5,-56.5 85.5,-75.5 120.5,-75.5 120.5,-56.5 85.5,-56.5"/>
<text text-anchor="middle" x="103" y="-63.5" font-family="Helvetica,sans-Serif" font-size="10.00">map</text>
</g>
<!-- Node5&#45;&gt;Node8 -->
<g id="edge7" class="edge"><title>Node5&#45;&gt;Node8</title>
<path fill="none" stroke="midnightblue" d="M109.867,-112.781C108.654,-104.691 107.119,-94.4617 105.809,-85.725"/>
<polygon fill="midnightblue" stroke="midnightblue" points="109.254,-85.1007 104.31,-75.7305 102.332,-86.1391 109.254,-85.1007"/>
</g>
<!-- Node9 -->
<g id="node9" class="node"><title>Node9</title>
<polygon fill="none" stroke="#bfbfbf" points="138.5,-56.5 138.5,-75.5 179.5,-75.5 179.5,-56.5 138.5,-56.5"/>
<text text-anchor="middle" x="159" y="-63.5" font-family="Helvetica,sans-Serif" font-size="10.00">string</text>
</g>
<!-- Node5&#45;&gt;Node9 -->
<g id="edge8" class="edge"><title>Node5&#45;&gt;Node9</title>
<path fill="none" stroke="midnightblue" d="M123.138,-112.781C129.968,-104.062 138.745,-92.8574 145.906,-83.7153"/>
<polygon fill="midnightblue" stroke="midnightblue" points="148.75,-85.7612 152.161,-75.7305 143.239,-81.4445 148.75,-85.7612"/>
</g>
<!-- Node5&#45;&gt;Node10 -->
<g id="edge9" class="edge"><title>Node5&#45;&gt;Node10</title>
<path fill="none" stroke="midnightblue" d="M138.962,-112.933C157.845,-103.081 182.916,-90.0004 201.473,-80.3182"/>
<polygon fill="midnightblue" stroke="midnightblue" points="203.27,-83.3288 210.517,-75.6 200.032,-77.1227 203.27,-83.3288"/>
</g>
<!-- Node10&#45;&gt;Node7 -->
<g id="edge10" class="edge"><title>Node10&#45;&gt;Node7</title>
<path fill="none" stroke="midnightblue" d="M213.343,-56.324C200.084,-47.9002 179.732,-34.9709 164.154,-25.0741"/>
<polygon fill="midnightblue" stroke="midnightblue" points="165.94,-22.0626 155.623,-19.6545 162.187,-27.9711 165.94,-22.0626"/>
</g>
</g>
</svg>
