<?xml version="1.0" encoding="UTF-8" standalone="no"?>
<!DOCTYPE svg PUBLIC "-//W3C//DTD SVG 1.1//EN"
 "http://www.w3.org/Graphics/SVG/1.1/DTD/svg11.dtd">
<!-- Generated by graphviz version 2.36.0 (20140111.2315)
 -->
<!-- Title: src/ScenarioAnalysation/humans_in_front_of_bus_scenario.h Pages: 1 -->
<svg width="363pt" height="196pt"
 viewBox="0.00 0.00 363.00 196.00" xmlns="http://www.w3.org/2000/svg" xmlns:xlink="http://www.w3.org/1999/xlink">
<g id="graph0" class="graph" transform="scale(1 1) rotate(0) translate(4 192)">
<title>src/ScenarioAnalysation/humans_in_front_of_bus_scenario.h</title>
<!-- Node1 -->
<g id="node1" class="node"><title>Node1</title>
<polygon fill="#bfbfbf" stroke="black" points="138,-146.5 138,-187.5 264,-187.5 264,-146.5 138,-146.5"/>
<text text-anchor="start" x="146" y="-175.5" font-family="Helvetica,sans-Serif" font-size="10.00">src/ScenarioAnalysation</text>
<text text-anchor="start" x="146" y="-164.5" font-family="Helvetica,sans-Serif" font-size="10.00">/humans_in_front_of_bus</text>
<text text-anchor="middle" x="201" y="-153.5" font-family="Helvetica,sans-Serif" font-size="10.00">_scenario.h</text>
</g>
<!-- Node2 -->
<g id="node2" class="node"><title>Node2</title>
<g id="a_node2"><a xlink:href="analyser_8h.html" target="_top" xlink:title="src/ScenarioAnalysation\l/analyser.h">
<polygon fill="none" stroke="black" points="51,-74 51,-104 173,-104 173,-74 51,-74"/>
<text text-anchor="start" x="59" y="-92" font-family="Helvetica,sans-Serif" font-size="10.00">src/ScenarioAnalysation</text>
<text text-anchor="middle" x="112" y="-81" font-family="Helvetica,sans-Serif" font-size="10.00">/analyser.h</text>
</a>
</g>
</g>
<!-- Node1&#45;&gt;Node2 -->
<g id="edge1" class="edge"><title>Node1&#45;&gt;Node2</title>
<path fill="none" stroke="midnightblue" d="M170.153,-139.658C156.22,-127.761 140.311,-114.176 128.659,-104.225"/>
<polygon fill="midnightblue" stroke="midnightblue" points="168.203,-142.596 178.08,-146.428 172.749,-137.273 168.203,-142.596"/>
</g>
<!-- Node4 -->
<g id="node4" class="node"><title>Node4</title>
<g id="a_node4"><a xlink:href="ScenarioAnalysation_2main_8cpp.html" target="_top" xlink:title="src/ScenarioAnalysation\l/main.cpp">
<polygon fill="none" stroke="black" points="140,-1 140,-31 262,-31 262,-1 140,-1"/>
<text text-anchor="start" x="148" y="-19" font-family="Helvetica,sans-Serif" font-size="10.00">src/ScenarioAnalysation</text>
<text text-anchor="middle" x="201" y="-8" font-family="Helvetica,sans-Serif" font-size="10.00">/main.cpp</text>
</a>
</g>
</g>
<!-- Node1&#45;&gt;Node4 -->
<g id="edge5" class="edge"><title>Node1&#45;&gt;Node4</title>
<path fill="none" stroke="midnightblue" d="M201,-136.118C201,-104.214 201,-55.0249 201,-31.0731"/>
<polygon fill="midnightblue" stroke="midnightblue" points="197.5,-136.214 201,-146.214 204.5,-136.214 197.5,-136.214"/>
</g>
<!-- Node5 -->
<g id="node5" class="node"><title>Node5</title>
<g id="a_node5"><a xlink:href="humans__in__front__of__bus__scenario_8cpp.html" target="_top" xlink:title="src/ScenarioAnalysation\l/humans_in_front_of_bus\l_scenario.cpp">
<polygon fill="none" stroke="black" points="229,-68.5 229,-109.5 355,-109.5 355,-68.5 229,-68.5"/>
<text text-anchor="start" x="237" y="-97.5" font-family="Helvetica,sans-Serif" font-size="10.00">src/ScenarioAnalysation</text>
<text text-anchor="start" x="237" y="-86.5" font-family="Helvetica,sans-Serif" font-size="10.00">/humans_in_front_of_bus</text>
<text text-anchor="middle" x="292" y="-75.5" font-family="Helvetica,sans-Serif" font-size="10.00">_scenario.cpp</text>
</a>
</g>
</g>
<!-- Node1&#45;&gt;Node5 -->
<g id="edge4" class="edge"><title>Node1&#45;&gt;Node5</title>
<path fill="none" stroke="midnightblue" d="M232.397,-139.779C244.293,-129.843 257.616,-118.716 268.645,-109.506"/>
<polygon fill="midnightblue" stroke="midnightblue" points="229.867,-137.332 224.435,-146.428 234.354,-142.704 229.867,-137.332"/>
</g>
<!-- Node3 -->
<g id="node3" class="node"><title>Node3</title>
<g id="a_node3"><a xlink:href="analyser_8cpp.html" target="_top" xlink:title="src/ScenarioAnalysation\l/analyser.cpp">
<polygon fill="none" stroke="black" points="0,-1 0,-31 122,-31 122,-1 0,-1"/>
<text text-anchor="start" x="8" y="-19" font-family="Helvetica,sans-Serif" font-size="10.00">src/ScenarioAnalysation</text>
<text text-anchor="middle" x="61" y="-8" font-family="Helvetica,sans-Serif" font-size="10.00">/analyser.cpp</text>
</a>
</g>
</g>
<!-- Node2&#45;&gt;Node3 -->
<g id="edge2" class="edge"><title>Node2&#45;&gt;Node3</title>
<path fill="none" stroke="midnightblue" d="M95.8858,-65.5665C87.8821,-54.424 78.4447,-41.2857 71.4052,-31.4856"/>
<polygon fill="midnightblue" stroke="midnightblue" points="93.2473,-67.8927 101.924,-73.9727 98.9327,-63.8089 93.2473,-67.8927"/>
</g>
<!-- Node2&#45;&gt;Node4 -->
<g id="edge3" class="edge"><title>Node2&#45;&gt;Node4</title>
<path fill="none" stroke="midnightblue" d="M137.716,-67.4853C152.276,-55.8695 170.123,-41.632 183.148,-31.2412"/>
<polygon fill="midnightblue" stroke="midnightblue" points="135.218,-65.0004 129.584,-73.9727 139.584,-70.4725 135.218,-65.0004"/>
</g>
</g>
</svg>
