<?xml version="1.0" encoding="UTF-8" standalone="no"?>
<!DOCTYPE svg PUBLIC "-//W3C//DTD SVG 1.1//EN"
 "http://www.w3.org/Graphics/SVG/1.1/DTD/svg11.dtd">
<!-- Generated by graphviz version 2.36.0 (20140111.2315)
 -->
<!-- Title: src/StreamDecoder/image.h Pages: 1 -->
<svg width="575pt" height="232pt"
 viewBox="0.00 0.00 575.00 232.00" xmlns="http://www.w3.org/2000/svg" xmlns:xlink="http://www.w3.org/1999/xlink">
<g id="graph0" class="graph" transform="scale(1 1) rotate(0) translate(4 228)">
<title>src/StreamDecoder/image.h</title>
<!-- Node1 -->
<g id="node1" class="node"><title>Node1</title>
<polygon fill="#bfbfbf" stroke="black" points="266.5,-204.5 266.5,-223.5 405.5,-223.5 405.5,-204.5 266.5,-204.5"/>
<text text-anchor="middle" x="336" y="-211.5" font-family="Helvetica,sans-Serif" font-size="10.00">src/StreamDecoder/image.h</text>
</g>
<!-- Node2 -->
<g id="node2" class="node"><title>Node2</title>
<g id="a_node2"><a xlink:href="frame__selector_8h.html" target="_top" xlink:title="src/StreamDecoder/frame\l_selector.h">
<polygon fill="none" stroke="black" points="271.5,-137 271.5,-167 400.5,-167 400.5,-137 271.5,-137"/>
<text text-anchor="start" x="279.5" y="-155" font-family="Helvetica,sans-Serif" font-size="10.00">src/StreamDecoder/frame</text>
<text text-anchor="middle" x="336" y="-144" font-family="Helvetica,sans-Serif" font-size="10.00">_selector.h</text>
</a>
</g>
</g>
<!-- Node1&#45;&gt;Node2 -->
<g id="edge1" class="edge"><title>Node1&#45;&gt;Node2</title>
<path fill="none" stroke="midnightblue" d="M336,-194.371C336,-185.585 336,-175.272 336,-167.141"/>
<polygon fill="midnightblue" stroke="midnightblue" points="332.5,-194.403 336,-204.403 339.5,-194.403 332.5,-194.403"/>
</g>
<!-- Node7 -->
<g id="node7" class="node"><title>Node7</title>
<g id="a_node7"><a xlink:href="image__view_8h.html" target="_top" xlink:title="src/StreamDecoder/image\l_view.h">
<polygon fill="none" stroke="black" points="97.5,-69 97.5,-99 228.5,-99 228.5,-69 97.5,-69"/>
<text text-anchor="start" x="105.5" y="-87" font-family="Helvetica,sans-Serif" font-size="10.00">src/StreamDecoder/image</text>
<text text-anchor="middle" x="163" y="-76" font-family="Helvetica,sans-Serif" font-size="10.00">_view.h</text>
</a>
</g>
</g>
<!-- Node1&#45;&gt;Node7 -->
<g id="edge7" class="edge"><title>Node1&#45;&gt;Node7</title>
<path fill="none" stroke="midnightblue" d="M311.279,-199.228C296.607,-190.748 277.838,-179.356 262,-168 231.013,-145.783 197.524,-116.471 178.52,-99.2853"/>
<polygon fill="midnightblue" stroke="midnightblue" points="309.838,-202.435 320.258,-204.351 313.307,-196.355 309.838,-202.435"/>
</g>
<!-- Node9 -->
<g id="node9" class="node"><title>Node9</title>
<g id="a_node9"><a xlink:href="image_8cpp.html" target="_top" xlink:title="src/StreamDecoder/image.cpp">
<polygon fill="none" stroke="black" points="418.5,-142.5 418.5,-161.5 567.5,-161.5 567.5,-142.5 418.5,-142.5"/>
<text text-anchor="middle" x="493" y="-149.5" font-family="Helvetica,sans-Serif" font-size="10.00">src/StreamDecoder/image.cpp</text>
</a>
</g>
</g>
<!-- Node1&#45;&gt;Node9 -->
<g id="edge11" class="edge"><title>Node1&#45;&gt;Node9</title>
<path fill="none" stroke="midnightblue" d="M367.841,-200.831C398.356,-189.17 443.635,-171.865 470.547,-161.581"/>
<polygon fill="midnightblue" stroke="midnightblue" points="366.586,-197.564 358.494,-204.403 369.085,-204.103 366.586,-197.564"/>
</g>
<!-- Node3 -->
<g id="node3" class="node"><title>Node3</title>
<g id="a_node3"><a xlink:href="controller_8h.html" target="_top" xlink:title="src/ProcessControl\l/controller.h">
<polygon fill="none" stroke="black" points="246.5,-69 246.5,-99 347.5,-99 347.5,-69 246.5,-69"/>
<text text-anchor="start" x="254.5" y="-87" font-family="Helvetica,sans-Serif" font-size="10.00">src/ProcessControl</text>
<text text-anchor="middle" x="297" y="-76" font-family="Helvetica,sans-Serif" font-size="10.00">/controller.h</text>
</a>
</g>
</g>
<!-- Node2&#45;&gt;Node3 -->
<g id="edge2" class="edge"><title>Node2&#45;&gt;Node3</title>
<path fill="none" stroke="midnightblue" d="M322.42,-128.019C316.776,-118.467 310.4,-107.677 305.446,-99.2931"/>
<polygon fill="midnightblue" stroke="midnightblue" points="319.437,-129.85 327.538,-136.679 325.463,-126.289 319.437,-129.85"/>
</g>
<!-- Node5 -->
<g id="node5" class="node"><title>Node5</title>
<g id="a_node5"><a xlink:href="StreamDecoder_2main_8cpp.html" target="_top" xlink:title="src/StreamDecoder/main.cpp">
<polygon fill="none" stroke="black" points="268,-6.5 268,-25.5 412,-25.5 412,-6.5 268,-6.5"/>
<text text-anchor="middle" x="340" y="-13.5" font-family="Helvetica,sans-Serif" font-size="10.00">src/StreamDecoder/main.cpp</text>
</a>
</g>
</g>
<!-- Node2&#45;&gt;Node5 -->
<g id="edge6" class="edge"><title>Node2&#45;&gt;Node5</title>
<path fill="none" stroke="midnightblue" d="M347.347,-127.469C350.851,-119.012 354.247,-109.269 356,-100 358.642,-86.0254 358.153,-82.0582 356,-68 353.668,-52.7734 347.632,-35.8497 343.677,-25.8323"/>
<polygon fill="midnightblue" stroke="midnightblue" points="344.108,-126.14 343.276,-136.702 350.513,-128.964 344.108,-126.14"/>
</g>
<!-- Node6 -->
<g id="node6" class="node"><title>Node6</title>
<g id="a_node6"><a xlink:href="frame__selector_8cpp.html" target="_top" xlink:title="src/StreamDecoder/frame\l_selector.cpp">
<polygon fill="none" stroke="black" points="404.5,-69 404.5,-99 533.5,-99 533.5,-69 404.5,-69"/>
<text text-anchor="start" x="412.5" y="-87" font-family="Helvetica,sans-Serif" font-size="10.00">src/StreamDecoder/frame</text>
<text text-anchor="middle" x="469" y="-76" font-family="Helvetica,sans-Serif" font-size="10.00">_selector.cpp</text>
</a>
</g>
</g>
<!-- Node2&#45;&gt;Node6 -->
<g id="edge5" class="edge"><title>Node2&#45;&gt;Node6</title>
<path fill="none" stroke="midnightblue" d="M373.605,-132.339C394.85,-121.796 420.978,-108.83 440.515,-99.1352"/>
<polygon fill="midnightblue" stroke="midnightblue" points="371.934,-129.261 364.532,-136.841 375.045,-135.531 371.934,-129.261"/>
</g>
<!-- Node4 -->
<g id="node4" class="node"><title>Node4</title>
<g id="a_node4"><a xlink:href="controller_8cpp.html" target="_top" xlink:title="src/ProcessControl\l/controller.cpp">
<polygon fill="none" stroke="black" points="148.5,-1 148.5,-31 249.5,-31 249.5,-1 148.5,-1"/>
<text text-anchor="start" x="156.5" y="-19" font-family="Helvetica,sans-Serif" font-size="10.00">src/ProcessControl</text>
<text text-anchor="middle" x="199" y="-8" font-family="Helvetica,sans-Serif" font-size="10.00">/controller.cpp</text>
</a>
</g>
</g>
<!-- Node3&#45;&gt;Node4 -->
<g id="edge3" class="edge"><title>Node3&#45;&gt;Node4</title>
<path fill="none" stroke="midnightblue" d="M267.137,-62.8884C251.861,-52.6003 233.641,-40.3293 219.886,-31.0663"/>
<polygon fill="midnightblue" stroke="midnightblue" points="265.486,-65.996 275.735,-68.679 269.396,-60.1899 265.486,-65.996"/>
</g>
<!-- Node3&#45;&gt;Node5 -->
<g id="edge4" class="edge"><title>Node3&#45;&gt;Node5</title>
<path fill="none" stroke="midnightblue" d="M311.902,-60.1279C319.603,-48.3063 328.556,-34.5646 334.248,-25.8283"/>
<polygon fill="midnightblue" stroke="midnightblue" points="308.857,-58.3897 306.33,-68.679 314.722,-62.2109 308.857,-58.3897"/>
</g>
<!-- Node7&#45;&gt;Node4 -->
<g id="edge8" class="edge"><title>Node7&#45;&gt;Node4</title>
<path fill="none" stroke="midnightblue" d="M175.697,-59.7229C180.867,-50.2443 186.678,-39.5906 191.204,-31.2931"/>
<polygon fill="midnightblue" stroke="midnightblue" points="172.527,-58.224 170.811,-68.679 178.673,-61.576 172.527,-58.224"/>
</g>
<!-- Node7&#45;&gt;Node5 -->
<g id="edge10" class="edge"><title>Node7&#45;&gt;Node5</title>
<path fill="none" stroke="midnightblue" d="M210.39,-65.329C244.879,-52.4687 290.077,-35.6153 316.972,-25.5868"/>
<polygon fill="midnightblue" stroke="midnightblue" points="209.118,-62.068 200.971,-68.8413 211.564,-68.6269 209.118,-62.068"/>
</g>
<!-- Node8 -->
<g id="node8" class="node"><title>Node8</title>
<g id="a_node8"><a xlink:href="image__view_8cpp.html" target="_top" xlink:title="src/StreamDecoder/image\l_view.cpp">
<polygon fill="none" stroke="black" points="-0.5,-1 -0.5,-31 130.5,-31 130.5,-1 -0.5,-1"/>
<text text-anchor="start" x="7.5" y="-19" font-family="Helvetica,sans-Serif" font-size="10.00">src/StreamDecoder/image</text>
<text text-anchor="middle" x="65" y="-8" font-family="Helvetica,sans-Serif" font-size="10.00">_view.cpp</text>
</a>
</g>
</g>
<!-- Node7&#45;&gt;Node8 -->
<g id="edge9" class="edge"><title>Node7&#45;&gt;Node8</title>
<path fill="none" stroke="midnightblue" d="M133.137,-62.8884C117.861,-52.6003 99.6405,-40.3293 85.8864,-31.0663"/>
<polygon fill="midnightblue" stroke="midnightblue" points="131.486,-65.996 141.735,-68.679 135.396,-60.1899 131.486,-65.996"/>
</g>
</g>
</svg>
