<?xml version="1.0" encoding="UTF-8" standalone="no"?>
<!DOCTYPE svg PUBLIC "-//W3C//DTD SVG 1.1//EN"
 "http://www.w3.org/Graphics/SVG/1.1/DTD/svg11.dtd">
<!-- Generated by graphviz version 2.36.0 (20140111.2315)
 -->
<!-- Title: src/StreamDecoder/image.cpp Pages: 1 -->
<svg width="170pt" height="140pt"
 viewBox="0.00 0.00 170.00 140.00" xmlns="http://www.w3.org/2000/svg" xmlns:xlink="http://www.w3.org/1999/xlink">
<g id="graph0" class="graph" transform="scale(1 1) rotate(0) translate(4 136)">
<title>src/StreamDecoder/image.cpp</title>
<!-- Node1 -->
<g id="node1" class="node"><title>Node1</title>
<polygon fill="#bfbfbf" stroke="black" points="-0.5,-112.5 -0.5,-131.5 148.5,-131.5 148.5,-112.5 -0.5,-112.5"/>
<text text-anchor="middle" x="74" y="-119.5" font-family="Helvetica,sans-Serif" font-size="10.00">src/StreamDecoder/image.cpp</text>
</g>
<!-- Node2 -->
<g id="node2" class="node"><title>Node2</title>
<polygon fill="none" stroke="#bfbfbf" points="13,-56.5 13,-75.5 65,-75.5 65,-56.5 13,-56.5"/>
<text text-anchor="middle" x="39" y="-63.5" font-family="Helvetica,sans-Serif" font-size="10.00">sstream</text>
</g>
<!-- Node1&#45;&gt;Node2 -->
<g id="edge1" class="edge"><title>Node1&#45;&gt;Node2</title>
<path fill="none" stroke="midnightblue" d="M68.2205,-112.083C63.3276,-104.534 56.1726,-93.4948 50.1674,-84.2298"/>
<polygon fill="midnightblue" stroke="midnightblue" points="53.048,-82.239 44.672,-75.7511 47.174,-86.0463 53.048,-82.239"/>
</g>
<!-- Node3 -->
<g id="node3" class="node"><title>Node3</title>
<g id="a_node3"><a xlink:href="image_8h.html" target="_top" xlink:title="image.h">
<polygon fill="none" stroke="black" points="83.5,-56.5 83.5,-75.5 134.5,-75.5 134.5,-56.5 83.5,-56.5"/>
<text text-anchor="middle" x="109" y="-63.5" font-family="Helvetica,sans-Serif" font-size="10.00">image.h</text>
</a>
</g>
</g>
<!-- Node1&#45;&gt;Node3 -->
<g id="edge2" class="edge"><title>Node1&#45;&gt;Node3</title>
<path fill="none" stroke="midnightblue" d="M79.7795,-112.083C84.6724,-104.534 91.8274,-93.4948 97.8326,-84.2298"/>
<polygon fill="midnightblue" stroke="midnightblue" points="100.826,-86.0463 103.328,-75.7511 94.952,-82.239 100.826,-86.0463"/>
</g>
<!-- Node4 -->
<g id="node4" class="node"><title>Node4</title>
<polygon fill="none" stroke="#bfbfbf" points="55.5,-0.5 55.5,-19.5 162.5,-19.5 162.5,-0.5 55.5,-0.5"/>
<text text-anchor="middle" x="109" y="-7.5" font-family="Helvetica,sans-Serif" font-size="10.00">opencv2/opencv.hpp</text>
</g>
<!-- Node3&#45;&gt;Node4 -->
<g id="edge3" class="edge"><title>Node3&#45;&gt;Node4</title>
<path fill="none" stroke="midnightblue" d="M109,-56.083C109,-49.0059 109,-38.8611 109,-29.9865"/>
<polygon fill="midnightblue" stroke="midnightblue" points="112.5,-29.751 109,-19.7511 105.5,-29.7511 112.5,-29.751"/>
</g>
</g>
</svg>
