<?xml version="1.0" encoding="UTF-8" standalone="no"?>
<!DOCTYPE svg PUBLIC "-//W3C//DTD SVG 1.1//EN"
 "http://www.w3.org/Graphics/SVG/1.1/DTD/svg11.dtd">
<!-- Generated by graphviz version 2.36.0 (20140111.2315)
 -->
<!-- Title: src/StreamDecoder/image_view.h Pages: 1 -->
<svg width="420pt" height="108pt"
 viewBox="0.00 0.00 420.00 108.00" xmlns="http://www.w3.org/2000/svg" xmlns:xlink="http://www.w3.org/1999/xlink">
<g id="graph0" class="graph" transform="scale(1 1) rotate(0) translate(4 104)">
<title>src/StreamDecoder/image_view.h</title>
<!-- Node1 -->
<g id="node1" class="node"><title>Node1</title>
<polygon fill="#bfbfbf" stroke="black" points="118.5,-69 118.5,-99 249.5,-99 249.5,-69 118.5,-69"/>
<text text-anchor="start" x="126.5" y="-87" font-family="Helvetica,sans-Serif" font-size="10.00">src/StreamDecoder/image</text>
<text text-anchor="middle" x="184" y="-76" font-family="Helvetica,sans-Serif" font-size="10.00">_view.h</text>
</g>
<!-- Node2 -->
<g id="node2" class="node"><title>Node2</title>
<g id="a_node2"><a xlink:href="controller_8cpp.html" target="_top" xlink:title="src/ProcessControl\l/controller.cpp">
<polygon fill="none" stroke="black" points="-0.5,-1 -0.5,-31 100.5,-31 100.5,-1 -0.5,-1"/>
<text text-anchor="start" x="7.5" y="-19" font-family="Helvetica,sans-Serif" font-size="10.00">src/ProcessControl</text>
<text text-anchor="middle" x="50" y="-8" font-family="Helvetica,sans-Serif" font-size="10.00">/controller.cpp</text>
</a>
</g>
</g>
<!-- Node1&#45;&gt;Node2 -->
<g id="edge1" class="edge"><title>Node1&#45;&gt;Node2</title>
<path fill="none" stroke="midnightblue" d="M146.112,-64.3388C124.708,-53.7964 98.3828,-40.8303 78.6988,-31.1352"/>
<polygon fill="midnightblue" stroke="midnightblue" points="144.736,-67.5626 155.254,-68.8413 147.829,-61.283 144.736,-67.5626"/>
</g>
<!-- Node3 -->
<g id="node3" class="node"><title>Node3</title>
<g id="a_node3"><a xlink:href="image__view_8cpp.html" target="_top" xlink:title="src/StreamDecoder/image\l_view.cpp">
<polygon fill="none" stroke="black" points="118.5,-1 118.5,-31 249.5,-31 249.5,-1 118.5,-1"/>
<text text-anchor="start" x="126.5" y="-19" font-family="Helvetica,sans-Serif" font-size="10.00">src/StreamDecoder/image</text>
<text text-anchor="middle" x="184" y="-8" font-family="Helvetica,sans-Serif" font-size="10.00">_view.cpp</text>
</a>
</g>
</g>
<!-- Node1&#45;&gt;Node3 -->
<g id="edge2" class="edge"><title>Node1&#45;&gt;Node3</title>
<path fill="none" stroke="midnightblue" d="M184,-58.5322C184,-49.3606 184,-39.2449 184,-31.2931"/>
<polygon fill="midnightblue" stroke="midnightblue" points="180.5,-58.6789 184,-68.679 187.5,-58.679 180.5,-58.6789"/>
</g>
<!-- Node4 -->
<g id="node4" class="node"><title>Node4</title>
<g id="a_node4"><a xlink:href="StreamDecoder_2main_8cpp.html" target="_top" xlink:title="src/StreamDecoder/main.cpp">
<polygon fill="none" stroke="black" points="268,-6.5 268,-25.5 412,-25.5 412,-6.5 268,-6.5"/>
<text text-anchor="middle" x="340" y="-13.5" font-family="Helvetica,sans-Serif" font-size="10.00">src/StreamDecoder/main.cpp</text>
</a>
</g>
</g>
<!-- Node1&#45;&gt;Node4 -->
<g id="edge3" class="edge"><title>Node1&#45;&gt;Node4</title>
<path fill="none" stroke="midnightblue" d="M226.913,-64.8444C257.063,-52.0889 296.047,-35.5955 319.479,-25.6819"/>
<polygon fill="midnightblue" stroke="midnightblue" points="225.312,-61.7215 217.466,-68.8413 228.039,-68.1683 225.312,-61.7215"/>
</g>
</g>
</svg>
