<?xml version="1.0" encoding="UTF-8" standalone="no"?>
<!DOCTYPE svg PUBLIC "-//W3C//DTD SVG 1.1//EN"
 "http://www.w3.org/Graphics/SVG/1.1/DTD/svg11.dtd">
<!-- Generated by graphviz version 2.36.0 (20140111.2315)
 -->
<!-- Title: src/StreamDecoder/image_view.cpp Pages: 1 -->
<svg width="144pt" height="208pt"
 viewBox="0.00 0.00 144.00 208.00" xmlns="http://www.w3.org/2000/svg" xmlns:xlink="http://www.w3.org/1999/xlink">
<g id="graph0" class="graph" transform="scale(1 1) rotate(0) translate(4 204)">
<title>src/StreamDecoder/image_view.cpp</title>
<!-- Node1 -->
<g id="node1" class="node"><title>Node1</title>
<polygon fill="#bfbfbf" stroke="black" points="5.5,-169 5.5,-199 136.5,-199 136.5,-169 5.5,-169"/>
<text text-anchor="start" x="13.5" y="-187" font-family="Helvetica,sans-Serif" font-size="10.00">src/StreamDecoder/image</text>
<text text-anchor="middle" x="71" y="-176" font-family="Helvetica,sans-Serif" font-size="10.00">_view.cpp</text>
</g>
<!-- Node2 -->
<g id="node2" class="node"><title>Node2</title>
<g id="a_node2"><a xlink:href="image__view_8h.html" target="_top" xlink:title="image_view.h">
<polygon fill="none" stroke="black" points="-0.5,-112.5 -0.5,-131.5 76.5,-131.5 76.5,-112.5 -0.5,-112.5"/>
<text text-anchor="middle" x="38" y="-119.5" font-family="Helvetica,sans-Serif" font-size="10.00">image_view.h</text>
</a>
</g>
</g>
<!-- Node1&#45;&gt;Node2 -->
<g id="edge1" class="edge"><title>Node1&#45;&gt;Node2</title>
<path fill="none" stroke="midnightblue" d="M63.1795,-168.781C58.5325,-160.332 52.6015,-149.548 47.6631,-140.569"/>
<polygon fill="midnightblue" stroke="midnightblue" points="50.6878,-138.806 42.8018,-131.731 44.5543,-142.179 50.6878,-138.806"/>
</g>
<!-- Node4 -->
<g id="node4" class="node"><title>Node4</title>
<polygon fill="none" stroke="#bfbfbf" points="20.5,-0.5 20.5,-19.5 127.5,-19.5 127.5,-0.5 20.5,-0.5"/>
<text text-anchor="middle" x="74" y="-7.5" font-family="Helvetica,sans-Serif" font-size="10.00">opencv2/opencv.hpp</text>
</g>
<!-- Node1&#45;&gt;Node4 -->
<g id="edge4" class="edge"><title>Node1&#45;&gt;Node4</title>
<path fill="none" stroke="midnightblue" d="M75.961,-168.922C79.2572,-158.798 83.2832,-144.739 85,-132 89.8662,-95.8906 83.1574,-53.4216 78.2785,-29.6151"/>
<polygon fill="midnightblue" stroke="midnightblue" points="81.6324,-28.5661 76.0891,-19.537 74.7919,-30.0521 81.6324,-28.5661"/>
</g>
<!-- Node3 -->
<g id="node3" class="node"><title>Node3</title>
<g id="a_node3"><a xlink:href="image_8h.html" target="_top" xlink:title="image.h">
<polygon fill="none" stroke="black" points="18.5,-56.5 18.5,-75.5 69.5,-75.5 69.5,-56.5 18.5,-56.5"/>
<text text-anchor="middle" x="44" y="-63.5" font-family="Helvetica,sans-Serif" font-size="10.00">image.h</text>
</a>
</g>
</g>
<!-- Node2&#45;&gt;Node3 -->
<g id="edge2" class="edge"><title>Node2&#45;&gt;Node3</title>
<path fill="none" stroke="midnightblue" d="M38.9908,-112.083C39.7859,-104.927 40.9294,-94.6353 41.9232,-85.6911"/>
<polygon fill="midnightblue" stroke="midnightblue" points="45.4018,-86.0765 43.0277,-75.7511 38.4447,-85.3034 45.4018,-86.0765"/>
</g>
<!-- Node3&#45;&gt;Node4 -->
<g id="edge3" class="edge"><title>Node3&#45;&gt;Node4</title>
<path fill="none" stroke="midnightblue" d="M48.9539,-56.083C53.1041,-48.6127 59.1531,-37.7244 64.2667,-28.5199"/>
<polygon fill="midnightblue" stroke="midnightblue" points="67.3414,-30.1924 69.1383,-19.7511 61.2223,-26.7929 67.3414,-30.1924"/>
</g>
</g>
</svg>
