<?xml version="1.0" encoding="UTF-8" standalone="no"?>
<!DOCTYPE svg PUBLIC "-//W3C//DTD SVG 1.1//EN"
 "http://www.w3.org/Graphics/SVG/1.1/DTD/svg11.dtd">
<!-- Generated by graphviz version 2.36.0 (20140111.2315)
 -->
<!-- Title: Graphical Class Hierarchy Pages: 1 -->
<svg width="170pt" height="66pt"
 viewBox="0.00 0.00 170.00 66.00" xmlns="http://www.w3.org/2000/svg" xmlns:xlink="http://www.w3.org/1999/xlink">
<g id="graph0" class="graph" transform="scale(1 1) rotate(0) translate(4 62)">
<title>Graphical Class Hierarchy</title>
<!-- Node1 -->
<g id="node1" class="node"><title>Node1</title>
<g id="a_node1"><a xlink:href="classA.html" target="_top" xlink:title="A">
<polygon fill="none" stroke="black" points="0.5,-38.5 0.5,-57.5 29.5,-57.5 29.5,-38.5 0.5,-38.5"/>
<text text-anchor="middle" x="15" y="-45.5" font-family="Helvetica,sans-Serif" font-size="10.00">A</text>
</a>
</g>
</g>
<!-- Node2 -->
<g id="node2" class="node"><title>Node2</title>
<g id="a_node2"><a xlink:href="classC.html" target="_top" xlink:title="C">
<polygon fill="none" stroke="black" points="66.5,-38.5 66.5,-57.5 95.5,-57.5 95.5,-38.5 66.5,-38.5"/>
<text text-anchor="middle" x="81" y="-45.5" font-family="Helvetica,sans-Serif" font-size="10.00">C</text>
</a>
</g>
</g>
<!-- Node1&#45;&gt;Node2 -->
<g id="edge1" class="edge"><title>Node1&#45;&gt;Node2</title>
<path fill="none" stroke="midnightblue" d="M39.8606,-48C48.8371,-48 58.729,-48 66.4468,-48"/>
<polygon fill="midnightblue" stroke="midnightblue" points="39.5728,-44.5001 29.5728,-48 39.5727,-51.5001 39.5728,-44.5001"/>
</g>
<!-- Node3 -->
<g id="node3" class="node"><title>Node3</title>
<g id="a_node3"><a xlink:href="classD.html" target="_top" xlink:title="D">
<polygon fill="none" stroke="black" points="66.5,-0.5 66.5,-19.5 95.5,-19.5 95.5,-0.5 66.5,-0.5"/>
<text text-anchor="middle" x="81" y="-7.5" font-family="Helvetica,sans-Serif" font-size="10.00">D</text>
</a>
</g>
</g>
<!-- Node1&#45;&gt;Node3 -->
<g id="edge2" class="edge"><title>Node1&#45;&gt;Node3</title>
<path fill="none" stroke="darkgreen" d="M38.3897,-34.7061C47.7435,-29.1523 58.3049,-22.8815 66.4468,-18.0472"/>
<polygon fill="darkgreen" stroke="darkgreen" points="36.3844,-31.8262 29.5728,-39.9412 39.9582,-37.8452 36.3844,-31.8262"/>
</g>
<!-- Node4 -->
<g id="node4" class="node"><title>Node4</title>
<g id="a_node4"><a xlink:href="classE.html" target="_top" xlink:title="E">
<polygon fill="none" stroke="black" points="132.5,-0.5 132.5,-19.5 161.5,-19.5 161.5,-0.5 132.5,-0.5"/>
<text text-anchor="middle" x="147" y="-7.5" font-family="Helvetica,sans-Serif" font-size="10.00">E</text>
</a>
</g>
</g>
<!-- Node3&#45;&gt;Node4 -->
<g id="edge3" class="edge"><title>Node3&#45;&gt;Node4</title>
<path fill="none" stroke="midnightblue" d="M105.861,-10C114.837,-10 124.729,-10 132.447,-10"/>
<polygon fill="midnightblue" stroke="midnightblue" points="105.573,-6.5001 95.5728,-10 105.573,-13.5001 105.573,-6.5001"/>
</g>
<!-- Node5 -->
<g id="node5" class="node"><title>Node5</title>
<g id="a_node5"><a xlink:href="classB.html" target="_top" xlink:title="B">
<polygon fill="none" stroke="black" points="0.5,-0.5 0.5,-19.5 29.5,-19.5 29.5,-0.5 0.5,-0.5"/>
<text text-anchor="middle" x="15" y="-7.5" font-family="Helvetica,sans-Serif" font-size="10.00">B</text>
</a>
</g>
</g>
<!-- Node5&#45;&gt;Node3 -->
<g id="edge4" class="edge"><title>Node5&#45;&gt;Node3</title>
<path fill="none" stroke="#8b1a1a" d="M39.8606,-10C48.8371,-10 58.729,-10 66.4468,-10"/>
<polygon fill="#8b1a1a" stroke="#8b1a1a" points="39.5728,-6.5001 29.5728,-10 39.5727,-13.5001 39.5728,-6.5001"/>
</g>
</g>
</svg>
