<?xml version="1.0" encoding="UTF-8" standalone="no"?>
<!DOCTYPE svg PUBLIC "-//W3C//DTD SVG 1.1//EN"
 "http://www.w3.org/Graphics/SVG/1.1/DTD/svg11.dtd">
<!-- Generated by graphviz version 2.36.0 (20140111.2315)
 -->
<!-- Title: Graphical Class Hierarchy Pages: 1 -->
<svg width="238pt" height="229pt"
 viewBox="0.00 0.00 238.00 229.00" xmlns="http://www.w3.org/2000/svg" xmlns:xlink="http://www.w3.org/1999/xlink">
<g id="graph0" class="graph" transform="scale(1 1) rotate(0) translate(4 225)">
<title>Graphical Class Hierarchy</title>
<!-- Node1 -->
<g id="node1" class="node"><title>Node1</title>
<polygon fill="none" stroke="#bfbfbf" points="0,-106.5 0,-125.5 56,-125.5 56,-106.5 0,-106.5"/>
<text text-anchor="middle" x="28" y="-113.5" font-family="Helvetica,sans-Serif" font-size="10.00">Message</text>
</g>
<!-- Node2 -->
<g id="node2" class="node"><title>Node2</title>
<g id="a_node2"><a xlink:href="classcsCommunication_1_1Warning.html" target="_top" xlink:title="csCommunication::Warning">
<polygon fill="none" stroke="black" points="92.5,-201.5 92.5,-220.5 229.5,-220.5 229.5,-201.5 92.5,-201.5"/>
<text text-anchor="middle" x="161" y="-208.5" font-family="Helvetica,sans-Serif" font-size="10.00">csCommunication::Warning</text>
</a>
</g>
</g>
<!-- Node1&#45;&gt;Node2 -->
<g id="edge1" class="edge"><title>Node1&#45;&gt;Node2</title>
<path fill="none" stroke="midnightblue" d="M39.512,-134.2C50.4625,-151.564 69.1942,-177.203 92,-192 97.9641,-195.87 104.716,-198.961 111.593,-201.429"/>
<polygon fill="midnightblue" stroke="midnightblue" points="42.4303,-132.262 34.2525,-125.526 36.4447,-135.892 42.4303,-132.262"/>
</g>
<!-- Node3 -->
<g id="node3" class="node"><title>Node3</title>
<g id="a_node3"><a xlink:href="classorg_1_1libcppa_1_1ack.html" target="_top" xlink:title="org::libcppa::ack">
<polygon fill="none" stroke="black" points="116.5,-163.5 116.5,-182.5 205.5,-182.5 205.5,-163.5 116.5,-163.5"/>
<text text-anchor="middle" x="161" y="-170.5" font-family="Helvetica,sans-Serif" font-size="10.00">org::libcppa::ack</text>
</a>
</g>
</g>
<!-- Node1&#45;&gt;Node3 -->
<g id="edge2" class="edge"><title>Node1&#45;&gt;Node3</title>
<path fill="none" stroke="midnightblue" d="M51.0941,-131.349C62.8338,-138.974 77.7503,-147.847 92,-154 100.44,-157.644 109.771,-160.784 118.747,-163.402"/>
<polygon fill="midnightblue" stroke="midnightblue" points="52.696,-128.21 42.4336,-125.577 48.814,-134.035 52.696,-128.21"/>
</g>
<!-- Node4 -->
<g id="node4" class="node"><title>Node4</title>
<g id="a_node4"><a xlink:href="classorg_1_1libcppa_1_1warning.html" target="_top" xlink:title="org::libcppa::warning">
<polygon fill="none" stroke="black" points="107.5,-125.5 107.5,-144.5 214.5,-144.5 214.5,-125.5 107.5,-125.5"/>
<text text-anchor="middle" x="161" y="-132.5" font-family="Helvetica,sans-Serif" font-size="10.00">org::libcppa::warning</text>
</a>
</g>
</g>
<!-- Node1&#45;&gt;Node4 -->
<g id="edge3" class="edge"><title>Node1&#45;&gt;Node4</title>
<path fill="none" stroke="midnightblue" d="M66.4072,-121.425C79.1858,-123.279 93.7243,-125.387 107.469,-127.381"/>
<polygon fill="midnightblue" stroke="midnightblue" points="66.5421,-117.908 56.1433,-119.937 65.5373,-124.836 66.5421,-117.908"/>
</g>
<!-- Node5 -->
<g id="node5" class="node"><title>Node5</title>
<g id="a_node5"><a xlink:href="classorg_1_1libcppa_1_1WarnOrAck.html" target="_top" xlink:title="org::libcppa::WarnOrAck">
<polygon fill="none" stroke="black" points="99,-87.5 99,-106.5 223,-106.5 223,-87.5 99,-87.5"/>
<text text-anchor="middle" x="161" y="-94.5" font-family="Helvetica,sans-Serif" font-size="10.00">org::libcppa::WarnOrAck</text>
</a>
</g>
</g>
<!-- Node1&#45;&gt;Node5 -->
<g id="edge4" class="edge"><title>Node1&#45;&gt;Node5</title>
<path fill="none" stroke="midnightblue" d="M66.2795,-110.593C76.4478,-109.118 87.7379,-107.481 98.8597,-105.868"/>
<polygon fill="midnightblue" stroke="midnightblue" points="65.5373,-107.164 56.1433,-112.063 66.5421,-114.091 65.5373,-107.164"/>
</g>
<!-- Node6 -->
<g id="node6" class="node"><title>Node6</title>
<g id="a_node6"><a xlink:href="classpb_1_1Header.html" target="_top" xlink:title="pb::Header">
<polygon fill="none" stroke="black" points="128.5,-49.5 128.5,-68.5 193.5,-68.5 193.5,-49.5 128.5,-49.5"/>
<text text-anchor="middle" x="161" y="-56.5" font-family="Helvetica,sans-Serif" font-size="10.00">pb::Header</text>
</a>
</g>
</g>
<!-- Node1&#45;&gt;Node6 -->
<g id="edge5" class="edge"><title>Node1&#45;&gt;Node6</title>
<path fill="none" stroke="midnightblue" d="M51.0941,-100.651C62.8338,-93.0264 77.7503,-84.1529 92,-78 103.479,-73.0437 116.605,-69.0206 128.245,-65.974"/>
<polygon fill="midnightblue" stroke="midnightblue" points="48.814,-97.9649 42.4336,-106.423 52.696,-103.79 48.814,-97.9649"/>
</g>
<!-- Node7 -->
<g id="node7" class="node"><title>Node7</title>
<g id="a_node7"><a xlink:href="classpb_1_1SensorNearData_1_1MFC_1_1CameraImage.html" target="_top" xlink:title="pb::SensorNearData\l::MFC::CameraImage">
<polygon fill="none" stroke="black" points="105,-0 105,-30 217,-30 217,-0 105,-0"/>
<text text-anchor="start" x="113" y="-18" font-family="Helvetica,sans-Serif" font-size="10.00">pb::SensorNearData</text>
<text text-anchor="middle" x="161" y="-7" font-family="Helvetica,sans-Serif" font-size="10.00">::MFC::CameraImage</text>
</a>
</g>
</g>
<!-- Node1&#45;&gt;Node7 -->
<g id="edge6" class="edge"><title>Node1&#45;&gt;Node7</title>
<path fill="none" stroke="midnightblue" d="M39.9548,-97.917C51.1265,-80.8496 69.9211,-55.6122 92,-40 97.3404,-36.2238 103.317,-32.9501 109.451,-30.1307"/>
<polygon fill="midnightblue" stroke="midnightblue" points="36.9481,-96.1231 34.5601,-106.445 42.8639,-99.8653 36.9481,-96.1231"/>
</g>
</g>
</svg>
