<?xml version="1.0" encoding="UTF-8" standalone="no"?>
<!DOCTYPE svg PUBLIC "-//W3C//DTD SVG 1.1//EN"
 "http://www.w3.org/Graphics/SVG/1.1/DTD/svg11.dtd">
<!-- Generated by graphviz version 2.36.0 (20140111.2315)
 -->
<!-- Title: Graphical Class Hierarchy Pages: 1 -->
<svg width="184pt" height="66pt"
 viewBox="0.00 0.00 184.00 66.00" xmlns="http://www.w3.org/2000/svg" xmlns:xlink="http://www.w3.org/1999/xlink">
<g id="graph0" class="graph" transform="scale(1 1) rotate(0) translate(4 62)">
<title>Graphical Class Hierarchy</title>
<!-- Node1 -->
<g id="node1" class="node"><title>Node1</title>
<g id="a_node1"><a xlink:href="classDetector.html" target="_top" xlink:title="Detector">
<polygon fill="none" stroke="black" points="0,-19.5 0,-38.5 54,-38.5 54,-19.5 0,-19.5"/>
<text text-anchor="middle" x="27" y="-26.5" font-family="Helvetica,sans-Serif" font-size="10.00">Detector</text>
</a>
</g>
</g>
<!-- Node2 -->
<g id="node2" class="node"><title>Node2</title>
<g id="a_node2"><a xlink:href="classPeopleDetector.html" target="_top" xlink:title="PeopleDetector">
<polygon fill="none" stroke="black" points="91,-38.5 91,-57.5 175,-57.5 175,-38.5 91,-38.5"/>
<text text-anchor="middle" x="133" y="-45.5" font-family="Helvetica,sans-Serif" font-size="10.00">PeopleDetector</text>
</a>
</g>
</g>
<!-- Node1&#45;&gt;Node2 -->
<g id="edge1" class="edge"><title>Node1&#45;&gt;Node2</title>
<path fill="none" stroke="midnightblue" d="M64.2969,-35.6312C72.8511,-37.194 82.031,-38.871 90.7844,-40.4702"/>
<polygon fill="midnightblue" stroke="midnightblue" points="64.7098,-32.1487 54.2436,-33.7945 63.4517,-39.0348 64.7098,-32.1487"/>
</g>
<!-- Node3 -->
<g id="node3" class="node"><title>Node3</title>
<g id="a_node3"><a xlink:href="classVehicleDetector.html" target="_top" xlink:title="VehicleDetector">
<polygon fill="none" stroke="black" points="90,-0.5 90,-19.5 176,-19.5 176,-0.5 90,-0.5"/>
<text text-anchor="middle" x="133" y="-7.5" font-family="Helvetica,sans-Serif" font-size="10.00">VehicleDetector</text>
</a>
</g>
</g>
<!-- Node1&#45;&gt;Node3 -->
<g id="edge2" class="edge"><title>Node1&#45;&gt;Node3</title>
<path fill="none" stroke="midnightblue" d="M64.3459,-22.3599C72.6245,-20.8474 81.4869,-19.2283 89.9803,-17.6767"/>
<polygon fill="midnightblue" stroke="midnightblue" points="63.4517,-18.9652 54.2436,-24.2055 64.7098,-25.8513 63.4517,-18.9652"/>
</g>
</g>
</svg>
