<?xml version="1.0" encoding="UTF-8" standalone="no"?>
<!DOCTYPE svg PUBLIC "-//W3C//DTD SVG 1.1//EN"
 "http://www.w3.org/Graphics/SVG/1.1/DTD/svg11.dtd">
<!-- Generated by graphviz version 2.36.0 (20140111.2315)
 -->
<!-- Title: src/caf/message.pb.cc Pages: 1 -->
<svg width="1379pt" height="164pt"
 viewBox="0.00 0.00 1379.00 164.00" xmlns="http://www.w3.org/2000/svg" xmlns:xlink="http://www.w3.org/1999/xlink">
<g id="graph0" class="graph" transform="scale(1 1) rotate(0) translate(4 160)">
<title>src/caf/message.pb.cc</title>
<!-- Node1 -->
<g id="node1" class="node"><title>Node1</title>
<polygon fill="#bfbfbf" stroke="black" points="633,-136.5 633,-155.5 749,-155.5 749,-136.5 633,-136.5"/>
<text text-anchor="middle" x="691" y="-143.5" font-family="Helvetica,sans-Serif" font-size="10.00">src/caf/message.pb.cc</text>
</g>
<!-- Node2 -->
<g id="node2" class="node"><title>Node2</title>
<g id="a_node2"><a xlink:href="message_8pb_8h.html" target="_top" xlink:title="message.pb.h">
<polygon fill="none" stroke="black" points="288,-74.5 288,-93.5 366,-93.5 366,-74.5 288,-74.5"/>
<text text-anchor="middle" x="327" y="-81.5" font-family="Helvetica,sans-Serif" font-size="10.00">message.pb.h</text>
</a>
</g>
</g>
<!-- Node1&#45;&gt;Node2 -->
<g id="edge1" class="edge"><title>Node1&#45;&gt;Node2</title>
<path fill="none" stroke="midnightblue" d="M632.828,-139.561C569.04,-132.939 463.917,-120.086 375,-100 370.569,-98.999 365.956,-97.7853 361.419,-96.4867"/>
<polygon fill="midnightblue" stroke="midnightblue" points="362.29,-93.0938 351.705,-93.5577 360.269,-99.7957 362.29,-93.0938"/>
</g>
<!-- Node4 -->
<g id="node4" class="node"><title>Node4</title>
<polygon fill="none" stroke="#bfbfbf" points="0,-1 0,-31 110,-31 110,-1 0,-1"/>
<text text-anchor="start" x="8" y="-19" font-family="Helvetica,sans-Serif" font-size="10.00">google/protobuf/stubs</text>
<text text-anchor="middle" x="55" y="-8" font-family="Helvetica,sans-Serif" font-size="10.00">/common.h</text>
</g>
<!-- Node1&#45;&gt;Node4 -->
<g id="edge10" class="edge"><title>Node1&#45;&gt;Node4</title>
<path fill="none" stroke="midnightblue" d="M632.922,-143.148C552.454,-139.571 402.95,-129.26 279,-100 212.441,-84.2877 138.687,-54.379 94.6238,-35.0823"/>
<polygon fill="midnightblue" stroke="midnightblue" points="95.98,-31.8551 85.4185,-31.0157 93.1514,-38.2582 95.98,-31.8551"/>
</g>
<!-- Node10 -->
<g id="node10" class="node"><title>Node10</title>
<polygon fill="none" stroke="#bfbfbf" points="384,-74.5 384,-93.5 440,-93.5 440,-74.5 384,-74.5"/>
<text text-anchor="middle" x="412" y="-81.5" font-family="Helvetica,sans-Serif" font-size="10.00">algorithm</text>
</g>
<!-- Node1&#45;&gt;Node10 -->
<g id="edge9" class="edge"><title>Node1&#45;&gt;Node10</title>
<path fill="none" stroke="midnightblue" d="M632.533,-137.498C583.034,-130.349 510.524,-117.992 449,-100 446.193,-99.1792 443.307,-98.2216 440.443,-97.1946"/>
<polygon fill="midnightblue" stroke="midnightblue" points="441.533,-93.8637 430.944,-93.533 439.016,-100.395 441.533,-93.8637"/>
</g>
<!-- Node11 -->
<g id="node11" class="node"><title>Node11</title>
<polygon fill="none" stroke="#bfbfbf" points="458,-69 458,-99 568,-99 568,-69 458,-69"/>
<text text-anchor="start" x="466" y="-87" font-family="Helvetica,sans-Serif" font-size="10.00">google/protobuf/stubs</text>
<text text-anchor="middle" x="513" y="-76" font-family="Helvetica,sans-Serif" font-size="10.00">/once.h</text>
</g>
<!-- Node1&#45;&gt;Node11 -->
<g id="edge11" class="edge"><title>Node1&#45;&gt;Node11</title>
<path fill="none" stroke="midnightblue" d="M665.497,-136.403C639.161,-127.526 597.348,-113.432 564.161,-102.245"/>
<polygon fill="midnightblue" stroke="midnightblue" points="565.203,-98.9029 554.608,-99.0253 562.967,-105.536 565.203,-98.9029"/>
</g>
<!-- Node12 -->
<g id="node12" class="node"><title>Node12</title>
<polygon fill="none" stroke="#bfbfbf" points="586,-69 586,-99 680,-99 680,-69 586,-69"/>
<text text-anchor="start" x="594" y="-87" font-family="Helvetica,sans-Serif" font-size="10.00">google/protobuf/io</text>
<text text-anchor="middle" x="633" y="-76" font-family="Helvetica,sans-Serif" font-size="10.00">/coded_stream.h</text>
</g>
<!-- Node1&#45;&gt;Node12 -->
<g id="edge12" class="edge"><title>Node1&#45;&gt;Node12</title>
<path fill="none" stroke="midnightblue" d="M682.69,-136.403C675.128,-128.581 663.651,-116.708 653.631,-106.342"/>
<polygon fill="midnightblue" stroke="midnightblue" points="656.136,-103.898 646.669,-99.1408 651.103,-108.763 656.136,-103.898"/>
</g>
<!-- Node13 -->
<g id="node13" class="node"><title>Node13</title>
<polygon fill="none" stroke="#bfbfbf" points="698,-69 698,-99 802,-99 802,-69 698,-69"/>
<text text-anchor="start" x="706" y="-87" font-family="Helvetica,sans-Serif" font-size="10.00">google/protobuf/wire</text>
<text text-anchor="middle" x="750" y="-76" font-family="Helvetica,sans-Serif" font-size="10.00">_format_lite_inl.h</text>
</g>
<!-- Node1&#45;&gt;Node13 -->
<g id="edge13" class="edge"><title>Node1&#45;&gt;Node13</title>
<path fill="none" stroke="midnightblue" d="M699.453,-136.403C707.145,-128.581 718.821,-116.708 729.013,-106.342"/>
<polygon fill="midnightblue" stroke="midnightblue" points="731.579,-108.725 736.095,-99.1408 726.588,-103.817 731.579,-108.725"/>
</g>
<!-- Node14 -->
<g id="node14" class="node"><title>Node14</title>
<polygon fill="none" stroke="#bfbfbf" points="820.5,-74.5 820.5,-93.5 957.5,-93.5 957.5,-74.5 820.5,-74.5"/>
<text text-anchor="middle" x="889" y="-81.5" font-family="Helvetica,sans-Serif" font-size="10.00">google/protobuf/descriptor.h</text>
</g>
<!-- Node1&#45;&gt;Node14 -->
<g id="edge14" class="edge"><title>Node1&#45;&gt;Node14</title>
<path fill="none" stroke="midnightblue" d="M719.369,-136.403C753.921,-125.933 812.424,-108.205 850.885,-96.5501"/>
<polygon fill="midnightblue" stroke="midnightblue" points="852.129,-99.8303 860.684,-93.5806 850.099,-93.1311 852.129,-99.8303"/>
</g>
<!-- Node15 -->
<g id="node15" class="node"><title>Node15</title>
<polygon fill="none" stroke="#bfbfbf" points="975.5,-69 975.5,-99 1104.5,-99 1104.5,-69 975.5,-69"/>
<text text-anchor="start" x="983.5" y="-87" font-family="Helvetica,sans-Serif" font-size="10.00">google/protobuf/generated</text>
<text text-anchor="middle" x="1040" y="-76" font-family="Helvetica,sans-Serif" font-size="10.00">_message_reflection.h</text>
</g>
<!-- Node1&#45;&gt;Node15 -->
<g id="edge15" class="edge"><title>Node1&#45;&gt;Node15</title>
<path fill="none" stroke="midnightblue" d="M746.937,-136.481C800.405,-128.195 883.53,-114.94 965.469,-100.056"/>
<polygon fill="midnightblue" stroke="midnightblue" points="966.245,-103.472 975.454,-98.2331 964.988,-96.5862 966.245,-103.472"/>
</g>
<!-- Node16 -->
<g id="node16" class="node"><title>Node16</title>
<polygon fill="none" stroke="#bfbfbf" points="1123,-69 1123,-99 1249,-99 1249,-69 1123,-69"/>
<text text-anchor="start" x="1131" y="-87" font-family="Helvetica,sans-Serif" font-size="10.00">google/protobuf/reflection</text>
<text text-anchor="middle" x="1186" y="-76" font-family="Helvetica,sans-Serif" font-size="10.00">_ops.h</text>
</g>
<!-- Node1&#45;&gt;Node16 -->
<g id="edge16" class="edge"><title>Node1&#45;&gt;Node16</title>
<path fill="none" stroke="midnightblue" d="M749.253,-140.576C828.881,-134.133 976.353,-120.79 1112.56,-99.9612"/>
<polygon fill="midnightblue" stroke="midnightblue" points="1113.41,-103.371 1122.76,-98.3833 1112.34,-96.4528 1113.41,-103.371"/>
</g>
<!-- Node17 -->
<g id="node17" class="node"><title>Node17</title>
<polygon fill="none" stroke="#bfbfbf" points="1267,-69 1267,-99 1371,-99 1371,-69 1267,-69"/>
<text text-anchor="start" x="1275" y="-87" font-family="Helvetica,sans-Serif" font-size="10.00">google/protobuf/wire</text>
<text text-anchor="middle" x="1319" y="-76" font-family="Helvetica,sans-Serif" font-size="10.00">_format.h</text>
</g>
<!-- Node1&#45;&gt;Node17 -->
<g id="edge17" class="edge"><title>Node1&#45;&gt;Node17</title>
<path fill="none" stroke="midnightblue" d="M749.324,-143.482C850.748,-140.164 1066.23,-130.115 1256.95,-99.9966"/>
<polygon fill="midnightblue" stroke="midnightblue" points="1257.55,-103.445 1266.87,-98.4074 1256.44,-96.5326 1257.55,-103.445"/>
</g>
<!-- Node3 -->
<g id="node3" class="node"><title>Node3</title>
<polygon fill="none" stroke="#bfbfbf" points="128.5,-6.5 128.5,-25.5 169.5,-25.5 169.5,-6.5 128.5,-6.5"/>
<text text-anchor="middle" x="149" y="-13.5" font-family="Helvetica,sans-Serif" font-size="10.00">string</text>
</g>
<!-- Node2&#45;&gt;Node3 -->
<g id="edge2" class="edge"><title>Node2&#45;&gt;Node3</title>
<path fill="none" stroke="midnightblue" d="M298.765,-74.4919C268.674,-65.143 219.841,-49.1589 179,-32 177.591,-31.4079 176.155,-30.7795 174.713,-30.1286"/>
<polygon fill="midnightblue" stroke="midnightblue" points="175.855,-26.7956 165.323,-25.649 172.841,-33.1135 175.855,-26.7956"/>
</g>
<!-- Node2&#45;&gt;Node4 -->
<g id="edge3" class="edge"><title>Node2&#45;&gt;Node4</title>
<path fill="none" stroke="midnightblue" d="M291.72,-74.4393C248.349,-63.9156 173.889,-45.848 120.042,-32.7823"/>
<polygon fill="midnightblue" stroke="midnightblue" points="120.783,-29.3607 110.24,-30.4038 119.133,-36.1633 120.783,-29.3607"/>
</g>
<!-- Node5 -->
<g id="node5" class="node"><title>Node5</title>
<polygon fill="none" stroke="#bfbfbf" points="187.5,-1 187.5,-31 316.5,-31 316.5,-1 187.5,-1"/>
<text text-anchor="start" x="195.5" y="-19" font-family="Helvetica,sans-Serif" font-size="10.00">google/protobuf/generated</text>
<text text-anchor="middle" x="252" y="-8" font-family="Helvetica,sans-Serif" font-size="10.00">_message_util.h</text>
</g>
<!-- Node2&#45;&gt;Node5 -->
<g id="edge4" class="edge"><title>Node2&#45;&gt;Node5</title>
<path fill="none" stroke="midnightblue" d="M317.195,-74.3717C306.773,-65.2 289.902,-50.3536 275.934,-38.0615"/>
<polygon fill="midnightblue" stroke="midnightblue" points="277.935,-35.1603 268.115,-31.1815 273.31,-40.4153 277.935,-35.1603"/>
</g>
<!-- Node6 -->
<g id="node6" class="node"><title>Node6</title>
<polygon fill="none" stroke="#bfbfbf" points="335,-6.5 335,-25.5 469,-25.5 469,-6.5 335,-6.5"/>
<text text-anchor="middle" x="402" y="-13.5" font-family="Helvetica,sans-Serif" font-size="10.00">google/protobuf/message.h</text>
</g>
<!-- Node2&#45;&gt;Node6 -->
<g id="edge5" class="edge"><title>Node2&#45;&gt;Node6</title>
<path fill="none" stroke="midnightblue" d="M336.805,-74.3717C348.866,-63.7581 369.562,-45.5453 384.403,-32.4855"/>
<polygon fill="midnightblue" stroke="midnightblue" points="386.758,-35.0749 391.953,-25.8411 382.134,-29.8199 386.758,-35.0749"/>
</g>
<!-- Node7 -->
<g id="node7" class="node"><title>Node7</title>
<polygon fill="none" stroke="#bfbfbf" points="487,-1 487,-31 611,-31 611,-1 487,-1"/>
<text text-anchor="start" x="495" y="-19" font-family="Helvetica,sans-Serif" font-size="10.00">google/protobuf/repeated</text>
<text text-anchor="middle" x="549" y="-8" font-family="Helvetica,sans-Serif" font-size="10.00">_field.h</text>
</g>
<!-- Node2&#45;&gt;Node7 -->
<g id="edge6" class="edge"><title>Node2&#45;&gt;Node7</title>
<path fill="none" stroke="midnightblue" d="M354.136,-74.4277C360.941,-72.3035 368.232,-70.0493 375,-68 413.39,-56.3764 456.672,-43.6888 490.464,-33.8761"/>
<polygon fill="midnightblue" stroke="midnightblue" points="491.551,-37.2052 500.18,-31.058 489.601,-30.4823 491.551,-37.2052"/>
</g>
<!-- Node8 -->
<g id="node8" class="node"><title>Node8</title>
<polygon fill="none" stroke="#bfbfbf" points="629,-1 629,-31 757,-31 757,-1 629,-1"/>
<text text-anchor="start" x="637" y="-19" font-family="Helvetica,sans-Serif" font-size="10.00">google/protobuf/extension</text>
<text text-anchor="middle" x="693" y="-8" font-family="Helvetica,sans-Serif" font-size="10.00">_set.h</text>
</g>
<!-- Node2&#45;&gt;Node8 -->
<g id="edge7" class="edge"><title>Node2&#45;&gt;Node8</title>
<path fill="none" stroke="midnightblue" d="M351.711,-74.4666C359.133,-72.1244 367.34,-69.7507 375,-68 481.863,-43.5771 511.022,-50.8953 619,-32 619.101,-31.9823 619.202,-31.9647 619.303,-31.9469"/>
<polygon fill="midnightblue" stroke="midnightblue" points="619.646,-35.4417 628.864,-30.2189 618.401,-28.5532 619.646,-35.4417"/>
</g>
<!-- Node9 -->
<g id="node9" class="node"><title>Node9</title>
<polygon fill="none" stroke="#bfbfbf" points="775.5,-1 775.5,-31 900.5,-31 900.5,-1 775.5,-1"/>
<text text-anchor="start" x="783.5" y="-19" font-family="Helvetica,sans-Serif" font-size="10.00">google/protobuf/unknown</text>
<text text-anchor="middle" x="838" y="-8" font-family="Helvetica,sans-Serif" font-size="10.00">_field_set.h</text>
</g>
<!-- Node2&#45;&gt;Node9 -->
<g id="edge8" class="edge"><title>Node2&#45;&gt;Node9</title>
<path fill="none" stroke="midnightblue" d="M351.161,-74.3584C358.709,-71.9551 367.124,-69.5749 375,-68 542.95,-34.4181 591.613,-56.9654 765.262,-31.9801"/>
<polygon fill="midnightblue" stroke="midnightblue" points="765.863,-35.4295 775.247,-30.5113 764.844,-28.5041 765.863,-35.4295"/>
</g>
</g>
</svg>
