<?xml version="1.0" encoding="UTF-8" standalone="no"?>
<!DOCTYPE svg PUBLIC "-//W3C//DTD SVG 1.1//EN"
 "http://www.w3.org/Graphics/SVG/1.1/DTD/svg11.dtd">
<!-- Generated by graphviz version 2.36.0 (20140111.2315)
 -->
<!-- Title: org::libcppa::protobuf_AddDesc_message_2eproto Pages: 1 -->
<svg width="460pt" height="196pt"
 viewBox="0.00 0.00 460.00 196.00" xmlns="http://www.w3.org/2000/svg" xmlns:xlink="http://www.w3.org/1999/xlink">
<g id="graph0" class="graph" transform="scale(1 1) rotate(0) translate(4 192)">
<title>org::libcppa::protobuf_AddDesc_message_2eproto</title>
<!-- Node1 -->
<g id="node1" class="node"><title>Node1</title>
<polygon fill="#bfbfbf" stroke="black" points="0.5,-84 0.5,-114 145.5,-114 145.5,-84 0.5,-84"/>
<text text-anchor="start" x="8.5" y="-102" font-family="Helvetica,sans-Serif" font-size="10.00">org::libcppa::protobuf</text>
<text text-anchor="middle" x="73" y="-91" font-family="Helvetica,sans-Serif" font-size="10.00">_AddDesc_message_2eproto</text>
</g>
<!-- Node2 -->
<g id="node2" class="node"><title>Node2</title>
<g id="a_node2"><a xlink:href="classorg_1_1libcppa_1_1warning.html#a4061e6d7f3ea6696fe4688cdfc182dac" target="_top" xlink:title="org::libcppa::warning\l::InitAsDefaultInstance">
<polygon fill="none" stroke="black" points="186.5,-158 186.5,-188 303.5,-188 303.5,-158 186.5,-158"/>
<text text-anchor="start" x="194.5" y="-176" font-family="Helvetica,sans-Serif" font-size="10.00">org::libcppa::warning</text>
<text text-anchor="middle" x="245" y="-165" font-family="Helvetica,sans-Serif" font-size="10.00">::InitAsDefaultInstance</text>
</a>
</g>
</g>
<!-- Node1&#45;&gt;Node2 -->
<g id="edge1" class="edge"><title>Node1&#45;&gt;Node2</title>
<path fill="none" stroke="midnightblue" d="M106.45,-114.159C127.812,-124.03 156.448,-137.058 182,-148 186.681,-150.005 191.579,-152.056 196.481,-154.08"/>
<polygon fill="midnightblue" stroke="midnightblue" points="195.279,-157.37 205.859,-157.918 197.93,-150.891 195.279,-157.37"/>
</g>
<!-- Node3 -->
<g id="node3" class="node"><title>Node3</title>
<g id="a_node3"><a xlink:href="classorg_1_1libcppa_1_1ack.html#ad41e1e019858ab758a04facdeb432c42" target="_top" xlink:title="org::libcppa::ack::\lInitAsDefaultInstance">
<polygon fill="none" stroke="black" points="189.5,-109 189.5,-139 300.5,-139 300.5,-109 189.5,-109"/>
<text text-anchor="start" x="197.5" y="-127" font-family="Helvetica,sans-Serif" font-size="10.00">org::libcppa::ack::</text>
<text text-anchor="middle" x="245" y="-116" font-family="Helvetica,sans-Serif" font-size="10.00">InitAsDefaultInstance</text>
</a>
</g>
</g>
<!-- Node1&#45;&gt;Node3 -->
<g id="edge2" class="edge"><title>Node1&#45;&gt;Node3</title>
<path fill="none" stroke="midnightblue" d="M145.603,-109.53C156.788,-111.175 168.291,-112.866 179.31,-114.487"/>
<polygon fill="midnightblue" stroke="midnightblue" points="178.868,-117.959 189.271,-115.952 179.886,-111.034 178.868,-117.959"/>
</g>
<!-- Node4 -->
<g id="node4" class="node"><title>Node4</title>
<g id="a_node4"><a xlink:href="classorg_1_1libcppa_1_1WarnOrAck.html#a4b758a7380351f6eb44e8e11d2e43306" target="_top" xlink:title="org::libcppa::WarnOrAck\l::InitAsDefaultInstance">
<polygon fill="none" stroke="black" points="183,-60 183,-90 307,-90 307,-60 183,-60"/>
<text text-anchor="start" x="191" y="-78" font-family="Helvetica,sans-Serif" font-size="10.00">org::libcppa::WarnOrAck</text>
<text text-anchor="middle" x="245" y="-67" font-family="Helvetica,sans-Serif" font-size="10.00">::InitAsDefaultInstance</text>
</a>
</g>
</g>
<!-- Node1&#45;&gt;Node4 -->
<g id="edge3" class="edge"><title>Node1&#45;&gt;Node4</title>
<path fill="none" stroke="midnightblue" d="M145.603,-88.8914C154.635,-87.6162 163.874,-86.3119 172.899,-85.0378"/>
<polygon fill="midnightblue" stroke="midnightblue" points="173.562,-88.479 182.974,-83.6154 172.583,-81.5478 173.562,-88.479"/>
</g>
<!-- Node7 -->
<g id="node7" class="node"><title>Node7</title>
<g id="a_node7"><a xlink:href="namespaceorg_1_1libcppa.html#af62b7b514fe33a8872ebd0c8fb3c9546" target="_top" xlink:title="org::libcppa::protobuf\l_ShutdownFile_message\l_2eproto">
<polygon fill="none" stroke="black" points="182,-0.5 182,-41.5 308,-41.5 308,-0.5 182,-0.5"/>
<text text-anchor="start" x="190" y="-29.5" font-family="Helvetica,sans-Serif" font-size="10.00">org::libcppa::protobuf</text>
<text text-anchor="start" x="190" y="-18.5" font-family="Helvetica,sans-Serif" font-size="10.00">_ShutdownFile_message</text>
<text text-anchor="middle" x="245" y="-7.5" font-family="Helvetica,sans-Serif" font-size="10.00">_2eproto</text>
</a>
</g>
</g>
<!-- Node1&#45;&gt;Node7 -->
<g id="edge6" class="edge"><title>Node1&#45;&gt;Node7</title>
<path fill="none" stroke="midnightblue" d="M106.778,-83.9608C130.254,-73.1895 162.406,-58.437 189.688,-45.9197"/>
<polygon fill="midnightblue" stroke="midnightblue" points="191.483,-48.947 199.112,-41.5956 188.564,-42.5848 191.483,-48.947"/>
</g>
<!-- Node5 -->
<g id="node5" class="node"><title>Node5</title>
<g id="a_node5"><a xlink:href="classorg_1_1libcppa_1_1warning.html#a520ebddd2bddd7c612e65024f09aa947" target="_top" xlink:title="org::libcppa::warning\l::default_instance">
<polygon fill="none" stroke="black" points="344.5,-84 344.5,-114 451.5,-114 451.5,-84 344.5,-84"/>
<text text-anchor="start" x="352.5" y="-102" font-family="Helvetica,sans-Serif" font-size="10.00">org::libcppa::warning</text>
<text text-anchor="middle" x="398" y="-91" font-family="Helvetica,sans-Serif" font-size="10.00">::default_instance</text>
</a>
</g>
</g>
<!-- Node4&#45;&gt;Node5 -->
<g id="edge4" class="edge"><title>Node4&#45;&gt;Node5</title>
<path fill="none" stroke="midnightblue" d="M307.417,-84.7617C316.316,-86.1761 325.485,-87.6334 334.407,-89.0514"/>
<polygon fill="midnightblue" stroke="midnightblue" points="333.921,-92.5181 344.347,-90.6312 335.02,-85.6048 333.921,-92.5181"/>
</g>
<!-- Node6 -->
<g id="node6" class="node"><title>Node6</title>
<g id="a_node6"><a xlink:href="classorg_1_1libcppa_1_1ack.html#a916412f45f069dc3462757e2d1b86e1c" target="_top" xlink:title="org::libcppa::ack::\ldefault_instance">
<polygon fill="none" stroke="black" points="350.5,-35 350.5,-65 445.5,-65 445.5,-35 350.5,-35"/>
<text text-anchor="start" x="358.5" y="-53" font-family="Helvetica,sans-Serif" font-size="10.00">org::libcppa::ack::</text>
<text text-anchor="middle" x="398" y="-42" font-family="Helvetica,sans-Serif" font-size="10.00">default_instance</text>
</a>
</g>
</g>
<!-- Node4&#45;&gt;Node6 -->
<g id="edge5" class="edge"><title>Node4&#45;&gt;Node6</title>
<path fill="none" stroke="midnightblue" d="M307.417,-64.8315C318.308,-63.0285 329.603,-61.1584 340.354,-59.3785"/>
<polygon fill="midnightblue" stroke="midnightblue" points="341.169,-62.7913 350.463,-57.7048 340.025,-55.8853 341.169,-62.7913"/>
</g>
</g>
</svg>
