<?xml version="1.0" encoding="UTF-8" standalone="no"?>
<!DOCTYPE svg PUBLIC "-//W3C//DTD SVG 1.1//EN"
 "http://www.w3.org/Graphics/SVG/1.1/DTD/svg11.dtd">
<!-- Generated by graphviz version 2.36.0 (20140111.2315)
 -->
<!-- Title: pb::protobuf_ShutdownFile_header_2eproto Pages: 1 -->
<svg width="766pt" height="191pt"
 viewBox="0.00 0.00 766.00 191.00" xmlns="http://www.w3.org/2000/svg" xmlns:xlink="http://www.w3.org/1999/xlink">
<g id="graph0" class="graph" transform="scale(1 1) rotate(0) translate(4 187)">
<title>pb::protobuf_ShutdownFile_header_2eproto</title>
<!-- Node1 -->
<g id="node1" class="node"><title>Node1</title>
<polygon fill="#bfbfbf" stroke="black" points="0.5,-60 0.5,-90 133.5,-90 133.5,-60 0.5,-60"/>
<text text-anchor="start" x="8.5" y="-78" font-family="Helvetica,sans-Serif" font-size="10.00">pb::protobuf_ShutdownFile</text>
<text text-anchor="middle" x="67" y="-67" font-family="Helvetica,sans-Serif" font-size="10.00">_header_2eproto</text>
</g>
<!-- Node2 -->
<g id="node2" class="node"><title>Node2</title>
<g id="a_node2"><a xlink:href="namespacepb.html#a398fcfaaf2f8651db5d294e2c0fd432c" target="_top" xlink:title="pb::protobuf_AddDesc\l_header_2eproto">
<polygon fill="none" stroke="black" points="170,-60 170,-90 284,-90 284,-60 170,-60"/>
<text text-anchor="start" x="178" y="-78" font-family="Helvetica,sans-Serif" font-size="10.00">pb::protobuf_AddDesc</text>
<text text-anchor="middle" x="227" y="-67" font-family="Helvetica,sans-Serif" font-size="10.00">_header_2eproto</text>
</a>
</g>
</g>
<!-- Node1&#45;&gt;Node2 -->
<g id="edge1" class="edge"><title>Node1&#45;&gt;Node2</title>
<path fill="none" stroke="midnightblue" d="M143.867,-75C152.627,-75 161.438,-75 169.869,-75"/>
<polygon fill="midnightblue" stroke="midnightblue" points="143.634,-71.5001 133.634,-75 143.634,-78.5001 143.634,-71.5001"/>
</g>
<!-- Node3 -->
<g id="node3" class="node"><title>Node3</title>
<g id="a_node3"><a xlink:href="namespacepb_1_1SensorNearData_1_1MFC.html#a57fa0c67da79e52e28b518b9561517b6" target="_top" xlink:title="pb::SensorNearData\l::MFC::protobuf_AddDesc\l_CameraImage_2eproto">
<polygon fill="none" stroke="black" points="356.5,-108.5 356.5,-149.5 487.5,-149.5 487.5,-108.5 356.5,-108.5"/>
<text text-anchor="start" x="364.5" y="-137.5" font-family="Helvetica,sans-Serif" font-size="10.00">pb::SensorNearData</text>
<text text-anchor="start" x="364.5" y="-126.5" font-family="Helvetica,sans-Serif" font-size="10.00">::MFC::protobuf_AddDesc</text>
<text text-anchor="middle" x="422" y="-115.5" font-family="Helvetica,sans-Serif" font-size="10.00">_CameraImage_2eproto</text>
</a>
</g>
</g>
<!-- Node2&#45;&gt;Node3 -->
<g id="edge2" class="edge"><title>Node2&#45;&gt;Node3</title>
<path fill="none" stroke="midnightblue" d="M291.442,-92.7507C312.225,-98.5656 335.335,-105.032 356.216,-110.874"/>
<polygon fill="midnightblue" stroke="midnightblue" points="292.335,-89.366 281.761,-90.042 290.448,-96.1071 292.335,-89.366"/>
</g>
<!-- Node6 -->
<g id="node6" class="node"><title>Node6</title>
<g id="a_node6"><a xlink:href="namespacepb.html#adfcaf8b661a12987f94afb55301eb291" target="_top" xlink:title="pb::protobuf_AssignDesc\l_header_2eproto">
<polygon fill="none" stroke="black" points="358.5,-60 358.5,-90 485.5,-90 485.5,-60 358.5,-60"/>
<text text-anchor="start" x="366.5" y="-78" font-family="Helvetica,sans-Serif" font-size="10.00">pb::protobuf_AssignDesc</text>
<text text-anchor="middle" x="422" y="-67" font-family="Helvetica,sans-Serif" font-size="10.00">_header_2eproto</text>
</a>
</g>
</g>
<!-- Node2&#45;&gt;Node6 -->
<g id="edge5" class="edge"><title>Node2&#45;&gt;Node6</title>
<path fill="none" stroke="midnightblue" d="M294.103,-75C314.899,-75 337.791,-75 358.34,-75"/>
<polygon fill="midnightblue" stroke="midnightblue" points="294.083,-71.5001 284.083,-75 294.083,-78.5001 294.083,-71.5001"/>
</g>
<!-- Node7 -->
<g id="node7" class="node"><title>Node7</title>
<g id="a_node7"><a xlink:href="structpb_1_1StaticDescriptorInitializer__header__2eproto.html#a776f6cdf74b67bbcfec316d201938cfd" target="_top" xlink:title="pb::StaticDescriptorInitializer\l_header_2eproto::StaticDescriptorInitializer\l_header_2eproto">
<polygon fill="none" stroke="black" points="320,-0.5 320,-41.5 524,-41.5 524,-0.5 320,-0.5"/>
<text text-anchor="start" x="328" y="-29.5" font-family="Helvetica,sans-Serif" font-size="10.00">pb::StaticDescriptorInitializer</text>
<text text-anchor="start" x="328" y="-18.5" font-family="Helvetica,sans-Serif" font-size="10.00">_header_2eproto::StaticDescriptorInitializer</text>
<text text-anchor="middle" x="422" y="-7.5" font-family="Helvetica,sans-Serif" font-size="10.00">_header_2eproto</text>
</a>
</g>
</g>
<!-- Node2&#45;&gt;Node7 -->
<g id="edge6" class="edge"><title>Node2&#45;&gt;Node7</title>
<path fill="none" stroke="midnightblue" d="M291.545,-57.2207C309.509,-52.1944 329.205,-46.6837 347.693,-41.5107"/>
<polygon fill="midnightblue" stroke="midnightblue" points="290.448,-53.8929 281.761,-59.958 292.335,-60.634 290.448,-53.8929"/>
</g>
<!-- Node4 -->
<g id="node4" class="node"><title>Node4</title>
<g id="a_node4"><a xlink:href="namespacepb_1_1SensorNearData_1_1MFC.html#ae925b28b351037f0ba789dd765a846d4" target="_top" xlink:title="pb::SensorNearData\l::MFC::protobuf_AssignDesc\l_CameraImage_2eproto">
<polygon fill="none" stroke="black" points="587,-141.5 587,-182.5 731,-182.5 731,-141.5 587,-141.5"/>
<text text-anchor="start" x="595" y="-170.5" font-family="Helvetica,sans-Serif" font-size="10.00">pb::SensorNearData</text>
<text text-anchor="start" x="595" y="-159.5" font-family="Helvetica,sans-Serif" font-size="10.00">::MFC::protobuf_AssignDesc</text>
<text text-anchor="middle" x="659" y="-148.5" font-family="Helvetica,sans-Serif" font-size="10.00">_CameraImage_2eproto</text>
</a>
</g>
</g>
<!-- Node3&#45;&gt;Node4 -->
<g id="edge3" class="edge"><title>Node3&#45;&gt;Node4</title>
<path fill="none" stroke="midnightblue" d="M497.432,-139.452C525.941,-143.456 558.375,-148.01 586.594,-151.973"/>
<polygon fill="midnightblue" stroke="midnightblue" points="497.915,-135.986 487.526,-138.061 496.942,-142.918 497.915,-135.986"/>
</g>
<!-- Node5 -->
<g id="node5" class="node"><title>Node5</title>
<g id="a_node5"><a xlink:href="structpb_1_1SensorNearData_1_1MFC_1_1StaticDescriptorInitializer__CameraImage__2eproto.html#a238f1b392446f07c4b6294dc4a957a15" target="_top" xlink:title="pb::SensorNearData\l::MFC::StaticDescriptorInitializer\l_CameraImage_2eproto::StaticDescriptor\lInitializer_CameraImage_2eproto">
<polygon fill="none" stroke="black" points="560.5,-70 560.5,-122 757.5,-122 757.5,-70 560.5,-70"/>
<text text-anchor="start" x="568.5" y="-110" font-family="Helvetica,sans-Serif" font-size="10.00">pb::SensorNearData</text>
<text text-anchor="start" x="568.5" y="-99" font-family="Helvetica,sans-Serif" font-size="10.00">::MFC::StaticDescriptorInitializer</text>
<text text-anchor="start" x="568.5" y="-88" font-family="Helvetica,sans-Serif" font-size="10.00">_CameraImage_2eproto::StaticDescriptor</text>
<text text-anchor="middle" x="659" y="-77" font-family="Helvetica,sans-Serif" font-size="10.00">Initializer_CameraImage_2eproto</text>
</a>
</g>
</g>
<!-- Node3&#45;&gt;Node5 -->
<g id="edge4" class="edge"><title>Node3&#45;&gt;Node5</title>
<path fill="none" stroke="midnightblue" d="M497.437,-118.547C517.342,-115.752 539.161,-112.688 560.122,-109.745"/>
<polygon fill="midnightblue" stroke="midnightblue" points="496.942,-115.082 487.526,-119.939 497.915,-122.014 496.942,-115.082"/>
</g>
</g>
</svg>
