<?xml version="1.0" encoding="UTF-8" standalone="no"?>
<!DOCTYPE svg PUBLIC "-//W3C//DTD SVG 1.1//EN"
 "http://www.w3.org/Graphics/SVG/1.1/DTD/svg11.dtd">
<!-- Generated by graphviz version 2.36.0 (20140111.2315)
 -->
<!-- Title: csCommunication::protobuf_AssignDesc_csCommunication_2eproto Pages: 1 -->
<svg width="552pt" height="97pt"
 viewBox="0.00 0.00 552.00 97.00" xmlns="http://www.w3.org/2000/svg" xmlns:xlink="http://www.w3.org/1999/xlink">
<g id="graph0" class="graph" transform="scale(1 1) rotate(0) translate(4 93)">
<title>csCommunication::protobuf_AssignDesc_csCommunication_2eproto</title>
<!-- Node1 -->
<g id="node1" class="node"><title>Node1</title>
<polygon fill="#bfbfbf" stroke="black" points="0.5,-26.5 0.5,-67.5 159.5,-67.5 159.5,-26.5 0.5,-26.5"/>
<text text-anchor="start" x="8.5" y="-55.5" font-family="Helvetica,sans-Serif" font-size="10.00">csCommunication::protobuf</text>
<text text-anchor="start" x="8.5" y="-44.5" font-family="Helvetica,sans-Serif" font-size="10.00">_AssignDesc_csCommunication</text>
<text text-anchor="middle" x="80" y="-33.5" font-family="Helvetica,sans-Serif" font-size="10.00">_2eproto</text>
</g>
<!-- Node2 -->
<g id="node2" class="node"><title>Node2</title>
<g id="a_node2"><a xlink:href="namespacecsCommunication.html#a471b86a61dea94fd37e946769fe44656" target="_top" xlink:title="csCommunication::protobuf\l_AddDesc_csCommunication\l_2eproto">
<polygon fill="none" stroke="black" points="196,-26.5 196,-67.5 342,-67.5 342,-26.5 196,-26.5"/>
<text text-anchor="start" x="204" y="-55.5" font-family="Helvetica,sans-Serif" font-size="10.00">csCommunication::protobuf</text>
<text text-anchor="start" x="204" y="-44.5" font-family="Helvetica,sans-Serif" font-size="10.00">_AddDesc_csCommunication</text>
<text text-anchor="middle" x="269" y="-33.5" font-family="Helvetica,sans-Serif" font-size="10.00">_2eproto</text>
</a>
</g>
</g>
<!-- Node1&#45;&gt;Node2 -->
<g id="edge1" class="edge"><title>Node1&#45;&gt;Node2</title>
<path fill="none" stroke="midnightblue" d="M159.763,-47C168.372,-47 177.152,-47 185.801,-47"/>
<polygon fill="midnightblue" stroke="midnightblue" points="185.877,-50.5001 195.876,-47 185.876,-43.5001 185.877,-50.5001"/>
</g>
<!-- Node3 -->
<g id="node3" class="node"><title>Node3</title>
<g id="a_node3"><a xlink:href="classcsCommunication_1_1Warning.html#a77f17cc88b9b32697910e3c52723da96" target="_top" xlink:title="csCommunication::Warning\l::InitAsDefaultInstance">
<polygon fill="none" stroke="black" points="392.5,-59 392.5,-89 529.5,-89 529.5,-59 392.5,-59"/>
<text text-anchor="start" x="400.5" y="-77" font-family="Helvetica,sans-Serif" font-size="10.00">csCommunication::Warning</text>
<text text-anchor="middle" x="461" y="-66" font-family="Helvetica,sans-Serif" font-size="10.00">::InitAsDefaultInstance</text>
</a>
</g>
</g>
<!-- Node2&#45;&gt;Node3 -->
<g id="edge2" class="edge"><title>Node2&#45;&gt;Node3</title>
<path fill="none" stroke="midnightblue" d="M342.102,-57.246C355.236,-59.1124 368.991,-61.0671 382.279,-62.9554"/>
<polygon fill="midnightblue" stroke="midnightblue" points="381.938,-66.4421 392.331,-64.3839 382.923,-59.5117 381.938,-66.4421"/>
</g>
<!-- Node4 -->
<g id="node4" class="node"><title>Node4</title>
<g id="a_node4"><a xlink:href="namespacecsCommunication.html#a3fd789d6e8ea05a4c2763b7af60f9c2f" target="_top" xlink:title="csCommunication::protobuf\l_ShutdownFile_csCommunication\l_2eproto">
<polygon fill="none" stroke="black" points="378.5,0.5 378.5,-40.5 543.5,-40.5 543.5,0.5 378.5,0.5"/>
<text text-anchor="start" x="386.5" y="-28.5" font-family="Helvetica,sans-Serif" font-size="10.00">csCommunication::protobuf</text>
<text text-anchor="start" x="386.5" y="-17.5" font-family="Helvetica,sans-Serif" font-size="10.00">_ShutdownFile_csCommunication</text>
<text text-anchor="middle" x="461" y="-6.5" font-family="Helvetica,sans-Serif" font-size="10.00">_2eproto</text>
</a>
</g>
</g>
<!-- Node2&#45;&gt;Node4 -->
<g id="edge3" class="edge"><title>Node2&#45;&gt;Node4</title>
<path fill="none" stroke="midnightblue" d="M342.102,-36.754C350.721,-35.5292 359.607,-34.2664 368.454,-33.0092"/>
<polygon fill="midnightblue" stroke="midnightblue" points="369,-36.4668 378.408,-31.5946 368.015,-29.5365 369,-36.4668"/>
</g>
</g>
</svg>
