<?xml version="1.0" encoding="UTF-8" standalone="no"?>
<!DOCTYPE svg PUBLIC "-//W3C//DTD SVG 1.1//EN"
 "http://www.w3.org/Graphics/SVG/1.1/DTD/svg11.dtd">
<!-- Generated by graphviz version 2.36.0 (20140111.2315)
 -->
<!-- Title: pb::protobuf_AssignDesc_header_2eproto Pages: 1 -->
<svg width="456pt" height="87pt"
 viewBox="0.00 0.00 456.00 87.00" xmlns="http://www.w3.org/2000/svg" xmlns:xlink="http://www.w3.org/1999/xlink">
<g id="graph0" class="graph" transform="scale(1 1) rotate(0) translate(4 83)">
<title>pb::protobuf_AssignDesc_header_2eproto</title>
<!-- Node1 -->
<g id="node1" class="node"><title>Node1</title>
<polygon fill="#bfbfbf" stroke="black" points="0.5,-24 0.5,-54 127.5,-54 127.5,-24 0.5,-24"/>
<text text-anchor="start" x="8.5" y="-42" font-family="Helvetica,sans-Serif" font-size="10.00">pb::protobuf_AssignDesc</text>
<text text-anchor="middle" x="64" y="-31" font-family="Helvetica,sans-Serif" font-size="10.00">_header_2eproto</text>
</g>
<!-- Node2 -->
<g id="node2" class="node"><title>Node2</title>
<g id="a_node2"><a xlink:href="namespacepb.html#a398fcfaaf2f8651db5d294e2c0fd432c" target="_top" xlink:title="pb::protobuf_AddDesc\l_header_2eproto">
<polygon fill="none" stroke="black" points="164,-24 164,-54 278,-54 278,-24 164,-24"/>
<text text-anchor="start" x="172" y="-42" font-family="Helvetica,sans-Serif" font-size="10.00">pb::protobuf_AddDesc</text>
<text text-anchor="middle" x="221" y="-31" font-family="Helvetica,sans-Serif" font-size="10.00">_header_2eproto</text>
</a>
</g>
</g>
<!-- Node1&#45;&gt;Node2 -->
<g id="edge1" class="edge"><title>Node1&#45;&gt;Node2</title>
<path fill="none" stroke="midnightblue" d="M127.598,-39C136.173,-39 145.001,-39 153.641,-39"/>
<polygon fill="midnightblue" stroke="midnightblue" points="153.67,-42.5001 163.67,-39 153.67,-35.5001 153.67,-42.5001"/>
</g>
<!-- Node3 -->
<g id="node3" class="node"><title>Node3</title>
<g id="a_node3"><a xlink:href="classpb_1_1Header.html#ac80bb9f4597d3e8a0135042092e20964" target="_top" xlink:title="pb::Header::InitAsDefault\lInstance">
<polygon fill="none" stroke="black" points="317,-49 317,-79 445,-79 445,-49 317,-49"/>
<text text-anchor="start" x="325" y="-67" font-family="Helvetica,sans-Serif" font-size="10.00">pb::Header::InitAsDefault</text>
<text text-anchor="middle" x="381" y="-56" font-family="Helvetica,sans-Serif" font-size="10.00">Instance</text>
</a>
</g>
</g>
<!-- Node2&#45;&gt;Node3 -->
<g id="edge2" class="edge"><title>Node2&#45;&gt;Node3</title>
<path fill="none" stroke="midnightblue" d="M278.15,-47.8845C287.432,-49.3532 297.175,-50.8947 306.802,-52.418"/>
<polygon fill="midnightblue" stroke="midnightblue" points="306.344,-55.8891 316.768,-53.995 307.438,-48.9751 306.344,-55.8891"/>
</g>
<!-- Node4 -->
<g id="node4" class="node"><title>Node4</title>
<g id="a_node4"><a xlink:href="namespacepb.html#a58b7e9ff40ba872d44217907ef3dadc5" target="_top" xlink:title="pb::protobuf_ShutdownFile\l_header_2eproto">
<polygon fill="none" stroke="black" points="314.5,-0 314.5,-30 447.5,-30 447.5,-0 314.5,-0"/>
<text text-anchor="start" x="322.5" y="-18" font-family="Helvetica,sans-Serif" font-size="10.00">pb::protobuf_ShutdownFile</text>
<text text-anchor="middle" x="381" y="-7" font-family="Helvetica,sans-Serif" font-size="10.00">_header_2eproto</text>
</a>
</g>
</g>
<!-- Node2&#45;&gt;Node4 -->
<g id="edge3" class="edge"><title>Node2&#45;&gt;Node4</title>
<path fill="none" stroke="midnightblue" d="M278.15,-30.4709C286.657,-29.1788 295.55,-27.8278 304.387,-26.4855"/>
<polygon fill="midnightblue" stroke="midnightblue" points="304.955,-29.9394 314.316,-24.9773 303.904,-23.0188 304.955,-29.9394"/>
</g>
</g>
</svg>
