<?xml version="1.0" encoding="UTF-8" standalone="no"?>
<!DOCTYPE svg PUBLIC "-//W3C//DTD SVG 1.1//EN"
 "http://www.w3.org/Graphics/SVG/1.1/DTD/svg11.dtd">
<!-- Generated by graphviz version 2.36.0 (20140111.2315)
 -->
<!-- Title: csCommunication::protobuf_AddDesc_csCommunication_2eproto Pages: 1 -->
<svg width="356pt" height="97pt"
 viewBox="0.00 0.00 356.00 97.00" xmlns="http://www.w3.org/2000/svg" xmlns:xlink="http://www.w3.org/1999/xlink">
<g id="graph0" class="graph" transform="scale(1 1) rotate(0) translate(4 93)">
<title>csCommunication::protobuf_AddDesc_csCommunication_2eproto</title>
<!-- Node1 -->
<g id="node1" class="node"><title>Node1</title>
<polygon fill="#bfbfbf" stroke="black" points="0,-26.5 0,-67.5 146,-67.5 146,-26.5 0,-26.5"/>
<text text-anchor="start" x="8" y="-55.5" font-family="Helvetica,sans-Serif" font-size="10.00">csCommunication::protobuf</text>
<text text-anchor="start" x="8" y="-44.5" font-family="Helvetica,sans-Serif" font-size="10.00">_AddDesc_csCommunication</text>
<text text-anchor="middle" x="73" y="-33.5" font-family="Helvetica,sans-Serif" font-size="10.00">_2eproto</text>
</g>
<!-- Node2 -->
<g id="node2" class="node"><title>Node2</title>
<g id="a_node2"><a xlink:href="classcsCommunication_1_1Warning.html#a77f17cc88b9b32697910e3c52723da96" target="_top" xlink:title="csCommunication::Warning\l::InitAsDefaultInstance">
<polygon fill="none" stroke="black" points="196.5,-59 196.5,-89 333.5,-89 333.5,-59 196.5,-59"/>
<text text-anchor="start" x="204.5" y="-77" font-family="Helvetica,sans-Serif" font-size="10.00">csCommunication::Warning</text>
<text text-anchor="middle" x="265" y="-66" font-family="Helvetica,sans-Serif" font-size="10.00">::InitAsDefaultInstance</text>
</a>
</g>
</g>
<!-- Node1&#45;&gt;Node2 -->
<g id="edge1" class="edge"><title>Node1&#45;&gt;Node2</title>
<path fill="none" stroke="midnightblue" d="M146.102,-57.246C159.236,-59.1124 172.991,-61.0671 186.279,-62.9554"/>
<polygon fill="midnightblue" stroke="midnightblue" points="185.938,-66.4421 196.331,-64.3839 186.923,-59.5117 185.938,-66.4421"/>
</g>
<!-- Node3 -->
<g id="node3" class="node"><title>Node3</title>
<g id="a_node3"><a xlink:href="namespacecsCommunication.html#a3fd789d6e8ea05a4c2763b7af60f9c2f" target="_top" xlink:title="csCommunication::protobuf\l_ShutdownFile_csCommunication\l_2eproto">
<polygon fill="none" stroke="black" points="182.5,0.5 182.5,-40.5 347.5,-40.5 347.5,0.5 182.5,0.5"/>
<text text-anchor="start" x="190.5" y="-28.5" font-family="Helvetica,sans-Serif" font-size="10.00">csCommunication::protobuf</text>
<text text-anchor="start" x="190.5" y="-17.5" font-family="Helvetica,sans-Serif" font-size="10.00">_ShutdownFile_csCommunication</text>
<text text-anchor="middle" x="265" y="-6.5" font-family="Helvetica,sans-Serif" font-size="10.00">_2eproto</text>
</a>
</g>
</g>
<!-- Node1&#45;&gt;Node3 -->
<g id="edge2" class="edge"><title>Node1&#45;&gt;Node3</title>
<path fill="none" stroke="midnightblue" d="M146.102,-36.754C154.721,-35.5292 163.607,-34.2664 172.454,-33.0092"/>
<polygon fill="midnightblue" stroke="midnightblue" points="173,-36.4668 182.408,-31.5946 172.015,-29.5365 173,-36.4668"/>
</g>
</g>
</svg>
