<?xml version="1.0" encoding="UTF-8" standalone="no"?>
<!DOCTYPE svg PUBLIC "-//W3C//DTD SVG 1.1//EN"
 "http://www.w3.org/Graphics/SVG/1.1/DTD/svg11.dtd">
<!-- Generated by graphviz version 2.36.0 (20140111.2315)
 -->
<!-- Title: org::libcppa::protobuf_AssignDesc_message_2eproto Pages: 1 -->
<!--zoomable 196 -->
<svg id="main" version="1.1" xmlns="http://www.w3.org/2000/svg" xmlns:xlink="http://www.w3.org/1999/xlink" xml:space="preserve" onload="init(evt)">
<style type="text/css"><![CDATA[
.edge:hover path { stroke: red; }
.edge:hover polygon { stroke: red; fill: red; }
]]></style>
<script type="text/javascript"><![CDATA[
var edges = document.getElementsByTagName('g');
if (edges && edges.length) {
  for (var i=0;i<edges.length;i++) {
    if (edges[i].id.substr(0,4)=='edge') {
      edges[i].setAttribute('class','edge');
    }
  }
}
]]></script>
        <defs>
                <circle id="rim" cx="0" cy="0" r="7"/>
                <circle id="rim2" cx="0" cy="0" r="3.5"/>
                <g id="zoomPlus">
                        <use xlink:href="#rim" fill="#404040">
                                <set attributeName="fill" to="#808080" begin="zoomplus.mouseover" end="zoomplus.mouseout"/>
                        </use>
                        <path d="M-4,0h8M0,-4v8" fill="none" stroke="white" stroke-width="1.5" pointer-events="none"/>
                </g>
                <g id="zoomMin">
                        <use xlink:href="#rim" fill="#404040">
                                <set attributeName="fill" to="#808080" begin="zoomminus.mouseover" end="zoomminus.mouseout"/>
                        </use>
                        <path d="M-4,0h8" fill="none" stroke="white" stroke-width="1.5" pointer-events="none"/>
                </g>
                <g id="dirArrow">
                        <path fill="none" stroke="white" stroke-width="1.5" d="M0,-3.0v7 M-2.5,-0.5L0,-3.0L2.5,-0.5"/>
                </g>
               <g id="resetDef">
                       <use xlink:href="#rim2" fill="#404040">
                               <set attributeName="fill" to="#808080" begin="reset.mouseover" end="reset.mouseout"/>
                       </use>
               </g>
        </defs>

<script type="text/javascript">
var viewWidth = 654;
var viewHeight = 196;
var sectionId = 'dynsection-2';
</script>
<script xlink:href="svgpan.js"/>
<svg id="graph" class="graph">
<g id="viewport">
<title>org::libcppa::protobuf_AssignDesc_message_2eproto</title>
<!-- Node1 -->
<g id="node1" class="node"><title>Node1</title>
<polygon fill="#bfbfbf" stroke="black" points="0,-84 0,-114 158,-114 158,-84 0,-84"/>
<text text-anchor="start" x="8" y="-102" font-family="Helvetica,sans-Serif" font-size="10.00">org::libcppa::protobuf</text>
<text text-anchor="middle" x="79" y="-91" font-family="Helvetica,sans-Serif" font-size="10.00">_AssignDesc_message_2eproto</text>
</g>
<!-- Node2 -->
<g id="node2" class="node"><title>Node2</title>
<g id="a_node2"><a xlink:href="namespaceorg_1_1libcppa.html#a53893d1ff6bccd47afc19718d1797afb" target="_top" xlink:title="org::libcppa::protobuf\l_AddDesc_message_2eproto">
<polygon fill="none" stroke="black" points="194.5,-84 194.5,-114 339.5,-114 339.5,-84 194.5,-84"/>
<text text-anchor="start" x="202.5" y="-102" font-family="Helvetica,sans-Serif" font-size="10.00">org::libcppa::protobuf</text>
<text text-anchor="middle" x="267" y="-91" font-family="Helvetica,sans-Serif" font-size="10.00">_AddDesc_message_2eproto</text>
</a>
</g>
</g>
<!-- Node1&#45;&gt;Node2 -->
<g id="edge1" class="edge"><title>Node1&#45;&gt;Node2</title>
<path fill="none" stroke="midnightblue" d="M158.072,-99C166.718,-99 175.541,-99 184.231,-99"/>
<polygon fill="midnightblue" stroke="midnightblue" points="184.353,-102.5 194.353,-99 184.353,-95.5001 184.353,-102.5"/>
</g>
<!-- Node3 -->
<g id="node3" class="node"><title>Node3</title>
<g id="a_node3"><a xlink:href="classorg_1_1libcppa_1_1warning.html#a4061e6d7f3ea6696fe4688cdfc182dac" target="_top" xlink:title="org::libcppa::warning\l::InitAsDefaultInstance">
<polygon fill="none" stroke="black" points="380.5,-158 380.5,-188 497.5,-188 497.5,-158 380.5,-158"/>
<text text-anchor="start" x="388.5" y="-176" font-family="Helvetica,sans-Serif" font-size="10.00">org::libcppa::warning</text>
<text text-anchor="middle" x="439" y="-165" font-family="Helvetica,sans-Serif" font-size="10.00">::InitAsDefaultInstance</text>
</a>
</g>
</g>
<!-- Node2&#45;&gt;Node3 -->
<g id="edge2" class="edge"><title>Node2&#45;&gt;Node3</title>
<path fill="none" stroke="midnightblue" d="M300.45,-114.159C321.812,-124.03 350.448,-137.058 376,-148 380.681,-150.005 385.579,-152.056 390.481,-154.08"/>
<polygon fill="midnightblue" stroke="midnightblue" points="389.279,-157.37 399.859,-157.918 391.93,-150.891 389.279,-157.37"/>
</g>
<!-- Node4 -->
<g id="node4" class="node"><title>Node4</title>
<g id="a_node4"><a xlink:href="classorg_1_1libcppa_1_1ack.html#ad41e1e019858ab758a04facdeb432c42" target="_top" xlink:title="org::libcppa::ack::\lInitAsDefaultInstance">
<polygon fill="none" stroke="black" points="383.5,-109 383.5,-139 494.5,-139 494.5,-109 383.5,-109"/>
<text text-anchor="start" x="391.5" y="-127" font-family="Helvetica,sans-Serif" font-size="10.00">org::libcppa::ack::</text>
<text text-anchor="middle" x="439" y="-116" font-family="Helvetica,sans-Serif" font-size="10.00">InitAsDefaultInstance</text>
</a>
</g>
</g>
<!-- Node2&#45;&gt;Node4 -->
<g id="edge3" class="edge"><title>Node2&#45;&gt;Node4</title>
<path fill="none" stroke="midnightblue" d="M339.603,-109.53C350.788,-111.175 362.291,-112.866 373.31,-114.487"/>
<polygon fill="midnightblue" stroke="midnightblue" points="372.868,-117.959 383.271,-115.952 373.886,-111.034 372.868,-117.959"/>
</g>
<!-- Node5 -->
<g id="node5" class="node"><title>Node5</title>
<g id="a_node5"><a xlink:href="classorg_1_1libcppa_1_1WarnOrAck.html#a4b758a7380351f6eb44e8e11d2e43306" target="_top" xlink:title="org::libcppa::WarnOrAck\l::InitAsDefaultInstance">
<polygon fill="none" stroke="black" points="377,-60 377,-90 501,-90 501,-60 377,-60"/>
<text text-anchor="start" x="385" y="-78" font-family="Helvetica,sans-Serif" font-size="10.00">org::libcppa::WarnOrAck</text>
<text text-anchor="middle" x="439" y="-67" font-family="Helvetica,sans-Serif" font-size="10.00">::InitAsDefaultInstance</text>
</a>
</g>
</g>
<!-- Node2&#45;&gt;Node5 -->
<g id="edge4" class="edge"><title>Node2&#45;&gt;Node5</title>
<path fill="none" stroke="midnightblue" d="M339.603,-88.8914C348.635,-87.6162 357.874,-86.3119 366.899,-85.0378"/>
<polygon fill="midnightblue" stroke="midnightblue" points="367.562,-88.479 376.974,-83.6154 366.583,-81.5478 367.562,-88.479"/>
</g>
<!-- Node8 -->
<g id="node8" class="node"><title>Node8</title>
<g id="a_node8"><a xlink:href="namespaceorg_1_1libcppa.html#af62b7b514fe33a8872ebd0c8fb3c9546" target="_top" xlink:title="org::libcppa::protobuf\l_ShutdownFile_message\l_2eproto">
<polygon fill="none" stroke="black" points="376,-0.5 376,-41.5 502,-41.5 502,-0.5 376,-0.5"/>
<text text-anchor="start" x="384" y="-29.5" font-family="Helvetica,sans-Serif" font-size="10.00">org::libcppa::protobuf</text>
<text text-anchor="start" x="384" y="-18.5" font-family="Helvetica,sans-Serif" font-size="10.00">_ShutdownFile_message</text>
<text text-anchor="middle" x="439" y="-7.5" font-family="Helvetica,sans-Serif" font-size="10.00">_2eproto</text>
</a>
</g>
</g>
<!-- Node2&#45;&gt;Node8 -->
<g id="edge7" class="edge"><title>Node2&#45;&gt;Node8</title>
<path fill="none" stroke="midnightblue" d="M300.778,-83.9608C324.254,-73.1895 356.406,-58.437 383.688,-45.9197"/>
<polygon fill="midnightblue" stroke="midnightblue" points="385.483,-48.947 393.112,-41.5956 382.564,-42.5848 385.483,-48.947"/>
</g>
<!-- Node6 -->
<g id="node6" class="node"><title>Node6</title>
<g id="a_node6"><a xlink:href="classorg_1_1libcppa_1_1warning.html#a520ebddd2bddd7c612e65024f09aa947" target="_top" xlink:title="org::libcppa::warning\l::default_instance">
<polygon fill="none" stroke="black" points="538.5,-84 538.5,-114 645.5,-114 645.5,-84 538.5,-84"/>
<text text-anchor="start" x="546.5" y="-102" font-family="Helvetica,sans-Serif" font-size="10.00">org::libcppa::warning</text>
<text text-anchor="middle" x="592" y="-91" font-family="Helvetica,sans-Serif" font-size="10.00">::default_instance</text>
</a>
</g>
</g>
<!-- Node5&#45;&gt;Node6 -->
<g id="edge5" class="edge"><title>Node5&#45;&gt;Node6</title>
<path fill="none" stroke="midnightblue" d="M501.417,-84.7617C510.316,-86.1761 519.485,-87.6334 528.407,-89.0514"/>
<polygon fill="midnightblue" stroke="midnightblue" points="527.921,-92.5181 538.347,-90.6312 529.02,-85.6048 527.921,-92.5181"/>
</g>
<!-- Node7 -->
<g id="node7" class="node"><title>Node7</title>
<g id="a_node7"><a xlink:href="classorg_1_1libcppa_1_1ack.html#a916412f45f069dc3462757e2d1b86e1c" target="_top" xlink:title="org::libcppa::ack::\ldefault_instance">
<polygon fill="none" stroke="black" points="544.5,-35 544.5,-65 639.5,-65 639.5,-35 544.5,-35"/>
<text text-anchor="start" x="552.5" y="-53" font-family="Helvetica,sans-Serif" font-size="10.00">org::libcppa::ack::</text>
<text text-anchor="middle" x="592" y="-42" font-family="Helvetica,sans-Serif" font-size="10.00">default_instance</text>
</a>
</g>
</g>
<!-- Node5&#45;&gt;Node7 -->
<g id="edge6" class="edge"><title>Node5&#45;&gt;Node7</title>
<path fill="none" stroke="midnightblue" d="M501.417,-64.8315C512.308,-63.0285 523.603,-61.1584 534.354,-59.3785"/>
<polygon fill="midnightblue" stroke="midnightblue" points="535.169,-62.7913 544.463,-57.7048 534.025,-55.8853 535.169,-62.7913"/>
</g>
</g>
</svg>
        <g id="navigator" transform="translate(0 0)" fill="#404254">
                <rect fill="#f2f5e9" fill-opacity="0.5" stroke="#606060" stroke-width=".5" x="0" y="0" width="60" height="60"/>
                <use id="zoomplus" xlink:href="#zoomPlus" x="17" y="9" onmousedown="handleZoom(evt,'in')"/>
                <use id="zoomminus" xlink:href="#zoomMin" x="42" y="9" onmousedown="handleZoom(evt,'out')"/>
                <use id="reset" xlink:href="#resetDef" x="30" y="36" onmousedown="handleReset()"/>
                <g id="arrowUp" xlink:href="#dirArrow" transform="translate(30 24)" onmousedown="handlePan(0,-1)">
                  <use xlink:href="#rim" fill="#404040">
                        <set attributeName="fill" to="#808080" begin="arrowUp.mouseover" end="arrowUp.mouseout"/>
                  </use>
                  <path fill="none" stroke="white" stroke-width="1.5" d="M0,-3.0v7 M-2.5,-0.5L0,-3.0L2.5,-0.5"/>
                </g>
                <g id="arrowRight" xlink:href="#dirArrow" transform="rotate(90) translate(36 -43)" onmousedown="handlePan(1,0)">
                  <use xlink:href="#rim" fill="#404040">
                        <set attributeName="fill" to="#808080" begin="arrowRight.mouseover" end="arrowRight.mouseout"/>
                  </use>
                  <path fill="none" stroke="white" stroke-width="1.5" d="M0,-3.0v7 M-2.5,-0.5L0,-3.0L2.5,-0.5"/>
                </g>
                <g id="arrowDown" xlink:href="#dirArrow" transform="rotate(180) translate(-30 -48)" onmousedown="handlePan(0,1)">
                  <use xlink:href="#rim" fill="#404040">
                        <set attributeName="fill" to="#808080" begin="arrowDown.mouseover" end="arrowDown.mouseout"/>
                  </use>
                  <path fill="none" stroke="white" stroke-width="1.5" d="M0,-3.0v7 M-2.5,-0.5L0,-3.0L2.5,-0.5"/>
                </g>
                <g id="arrowLeft" xlink:href="#dirArrow" transform="rotate(270) translate(-36 17)" onmousedown="handlePan(-1,0)">
                  <use xlink:href="#rim" fill="#404040">
                        <set attributeName="fill" to="#808080" begin="arrowLeft.mouseover" end="arrowLeft.mouseout"/>
                  </use>
                  <path fill="none" stroke="white" stroke-width="1.5" d="M0,-3.0v7 M-2.5,-0.5L0,-3.0L2.5,-0.5"/>
                </g>
        </g>
        <svg viewBox="0 0 15 15" width="100%" height="30px" preserveAspectRatio="xMaxYMin meet">
         <g id="arrow_out" transform="scale(0.3 0.3)">
          <a xlink:href="namespaceorg_1_1libcppa_ae01764e64ed49404f326136a720b1f3a_cgraph_org.svg" target="_base">
           <rect id="button" ry="5" rx="5" y="6" x="6" height="38" width="38"
                fill="#f2f5e9" fill-opacity="0.5" stroke="#606060" stroke-width="1.0"/>
           <path id="arrow"
             d="M 11.500037,31.436501 C 11.940474,20.09759 22.043105,11.32322 32.158766,21.979434 L 37.068811,17.246167 C 37.068811,17.246167 37.088388,32 37.088388,32 L 22.160133,31.978069 C 22.160133,31.978069 26.997745,27.140456 26.997745,27.140456 C 18.528582,18.264221 13.291696,25.230495 11.500037,31.436501 z"
             style="fill:#404040;"/>
          </a>
         </g>
        </svg>
</svg>
