<?xml version="1.0" encoding="UTF-8" standalone="no"?>
<!DOCTYPE svg PUBLIC "-//W3C//DTD SVG 1.1//EN"
 "http://www.w3.org/Graphics/SVG/1.1/DTD/svg11.dtd">
<!-- Generated by graphviz version 2.36.0 (20140111.2315)
 -->
<!-- Title: pb::SensorNearData::MFC::protobuf_AssignDesc_CameraImage_2eproto Pages: 1 -->
<svg width="676pt" height="204pt"
 viewBox="0.00 0.00 676.00 204.00" xmlns="http://www.w3.org/2000/svg" xmlns:xlink="http://www.w3.org/1999/xlink">
<g id="graph0" class="graph" transform="scale(1 1) rotate(0) translate(4 200)">
<title>pb::SensorNearData::MFC::protobuf_AssignDesc_CameraImage_2eproto</title>
<!-- Node1 -->
<g id="node1" class="node"><title>Node1</title>
<polygon fill="#bfbfbf" stroke="black" points="0,-60.5 0,-101.5 144,-101.5 144,-60.5 0,-60.5"/>
<text text-anchor="start" x="8" y="-89.5" font-family="Helvetica,sans-Serif" font-size="10.00">pb::SensorNearData</text>
<text text-anchor="start" x="8" y="-78.5" font-family="Helvetica,sans-Serif" font-size="10.00">::MFC::protobuf_AssignDesc</text>
<text text-anchor="middle" x="72" y="-67.5" font-family="Helvetica,sans-Serif" font-size="10.00">_CameraImage_2eproto</text>
</g>
<!-- Node2 -->
<g id="node2" class="node"><title>Node2</title>
<g id="a_node2"><a xlink:href="namespacepb_1_1SensorNearData_1_1MFC.html#a57fa0c67da79e52e28b518b9561517b6" target="_top" xlink:title="pb::SensorNearData\l::MFC::protobuf_AddDesc\l_CameraImage_2eproto">
<polygon fill="none" stroke="black" points="180.5,-60.5 180.5,-101.5 311.5,-101.5 311.5,-60.5 180.5,-60.5"/>
<text text-anchor="start" x="188.5" y="-89.5" font-family="Helvetica,sans-Serif" font-size="10.00">pb::SensorNearData</text>
<text text-anchor="start" x="188.5" y="-78.5" font-family="Helvetica,sans-Serif" font-size="10.00">::MFC::protobuf_AddDesc</text>
<text text-anchor="middle" x="246" y="-67.5" font-family="Helvetica,sans-Serif" font-size="10.00">_CameraImage_2eproto</text>
</a>
</g>
</g>
<!-- Node1&#45;&gt;Node2 -->
<g id="edge1" class="edge"><title>Node1&#45;&gt;Node2</title>
<path fill="none" stroke="midnightblue" d="M144.449,-81C153.007,-81 161.763,-81 170.364,-81"/>
<polygon fill="midnightblue" stroke="midnightblue" points="170.37,-84.5001 180.369,-81 170.369,-77.5001 170.37,-84.5001"/>
</g>
<!-- Node3 -->
<g id="node3" class="node"><title>Node3</title>
<g id="a_node3"><a xlink:href="namespacepb.html#a398fcfaaf2f8651db5d294e2c0fd432c" target="_top" xlink:title="pb::protobuf_AddDesc\l_header_2eproto">
<polygon fill="none" stroke="black" points="366,-120 366,-150 480,-150 480,-120 366,-120"/>
<text text-anchor="start" x="374" y="-138" font-family="Helvetica,sans-Serif" font-size="10.00">pb::protobuf_AddDesc</text>
<text text-anchor="middle" x="423" y="-127" font-family="Helvetica,sans-Serif" font-size="10.00">_header_2eproto</text>
</a>
</g>
</g>
<!-- Node2&#45;&gt;Node3 -->
<g id="edge2" class="edge"><title>Node2&#45;&gt;Node3</title>
<path fill="none" stroke="midnightblue" d="M311.666,-100.954C328.677,-106.203 346.926,-111.834 363.587,-116.975"/>
<polygon fill="midnightblue" stroke="midnightblue" points="362.604,-120.335 373.192,-119.939 364.668,-113.646 362.604,-120.335"/>
</g>
<!-- Node6 -->
<g id="node6" class="node"><title>Node6</title>
<g id="a_node6"><a xlink:href="classpb_1_1SensorNearData_1_1MFC_1_1CameraImage.html#a211a190e1a7e85d915eb1a261ff62c4c" target="_top" xlink:title="pb::SensorNearData\l::MFC::CameraImage::\lInitAsDefaultInstance">
<polygon fill="none" stroke="black" points="364,-60.5 364,-101.5 482,-101.5 482,-60.5 364,-60.5"/>
<text text-anchor="start" x="372" y="-89.5" font-family="Helvetica,sans-Serif" font-size="10.00">pb::SensorNearData</text>
<text text-anchor="start" x="372" y="-78.5" font-family="Helvetica,sans-Serif" font-size="10.00">::MFC::CameraImage::</text>
<text text-anchor="middle" x="423" y="-67.5" font-family="Helvetica,sans-Serif" font-size="10.00">InitAsDefaultInstance</text>
</a>
</g>
</g>
<!-- Node2&#45;&gt;Node6 -->
<g id="edge5" class="edge"><title>Node2&#45;&gt;Node6</title>
<path fill="none" stroke="midnightblue" d="M311.666,-81C325.322,-81 339.775,-81 353.564,-81"/>
<polygon fill="midnightblue" stroke="midnightblue" points="353.955,-84.5001 363.955,-81 353.955,-77.5001 353.955,-84.5001"/>
</g>
<!-- Node8 -->
<g id="node8" class="node"><title>Node8</title>
<g id="a_node8"><a xlink:href="namespacepb_1_1SensorNearData_1_1MFC.html#a4fd2cb78da6027165b93a335b66972e0" target="_top" xlink:title="pb::SensorNearData\l::MFC::protobuf_ShutdownFile\l_CameraImage_2eproto">
<polygon fill="none" stroke="black" points="348,-0.5 348,-41.5 498,-41.5 498,-0.5 348,-0.5"/>
<text text-anchor="start" x="356" y="-29.5" font-family="Helvetica,sans-Serif" font-size="10.00">pb::SensorNearData</text>
<text text-anchor="start" x="356" y="-18.5" font-family="Helvetica,sans-Serif" font-size="10.00">::MFC::protobuf_ShutdownFile</text>
<text text-anchor="middle" x="423" y="-7.5" font-family="Helvetica,sans-Serif" font-size="10.00">_CameraImage_2eproto</text>
</a>
</g>
</g>
<!-- Node2&#45;&gt;Node8 -->
<g id="edge7" class="edge"><title>Node2&#45;&gt;Node8</title>
<path fill="none" stroke="midnightblue" d="M307.225,-60.3514C321.743,-55.3739 337.373,-50.0149 352.285,-44.9025"/>
<polygon fill="midnightblue" stroke="midnightblue" points="353.636,-48.1391 361.96,-41.585 351.366,-41.5175 353.636,-48.1391"/>
</g>
<!-- Node4 -->
<g id="node4" class="node"><title>Node4</title>
<g id="a_node4"><a xlink:href="classpb_1_1Header.html#ac80bb9f4597d3e8a0135042092e20964" target="_top" xlink:title="pb::Header::InitAsDefault\lInstance">
<polygon fill="none" stroke="black" points="537,-166 537,-196 665,-196 665,-166 537,-166"/>
<text text-anchor="start" x="545" y="-184" font-family="Helvetica,sans-Serif" font-size="10.00">pb::Header::InitAsDefault</text>
<text text-anchor="middle" x="601" y="-173" font-family="Helvetica,sans-Serif" font-size="10.00">Instance</text>
</a>
</g>
</g>
<!-- Node3&#45;&gt;Node4 -->
<g id="edge3" class="edge"><title>Node3&#45;&gt;Node4</title>
<path fill="none" stroke="midnightblue" d="M480.171,-149.681C496.822,-154.033 515.23,-158.844 532.52,-163.363"/>
<polygon fill="midnightblue" stroke="midnightblue" points="531.988,-166.842 542.548,-165.984 533.758,-160.069 531.988,-166.842"/>
</g>
<!-- Node5 -->
<g id="node5" class="node"><title>Node5</title>
<g id="a_node5"><a xlink:href="namespacepb.html#a58b7e9ff40ba872d44217907ef3dadc5" target="_top" xlink:title="pb::protobuf_ShutdownFile\l_header_2eproto">
<polygon fill="none" stroke="black" points="534.5,-117 534.5,-147 667.5,-147 667.5,-117 534.5,-117"/>
<text text-anchor="start" x="542.5" y="-135" font-family="Helvetica,sans-Serif" font-size="10.00">pb::protobuf_ShutdownFile</text>
<text text-anchor="middle" x="601" y="-124" font-family="Helvetica,sans-Serif" font-size="10.00">_header_2eproto</text>
</a>
</g>
</g>
<!-- Node3&#45;&gt;Node5 -->
<g id="edge4" class="edge"><title>Node3&#45;&gt;Node5</title>
<path fill="none" stroke="midnightblue" d="M480.171,-134.043C494.149,-133.804 509.364,-133.545 524.116,-133.293"/>
<polygon fill="midnightblue" stroke="midnightblue" points="524.295,-136.791 534.234,-133.121 524.176,-129.792 524.295,-136.791"/>
</g>
<!-- Node7 -->
<g id="node7" class="node"><title>Node7</title>
<g id="a_node7"><a xlink:href="classpb_1_1Header.html#ab885144f6dc4e95e63f16d4eb2f07725" target="_top" xlink:title="pb::Header::default\l_instance">
<polygon fill="none" stroke="black" points="551,-66 551,-96 651,-96 651,-66 551,-66"/>
<text text-anchor="start" x="559" y="-84" font-family="Helvetica,sans-Serif" font-size="10.00">pb::Header::default</text>
<text text-anchor="middle" x="601" y="-73" font-family="Helvetica,sans-Serif" font-size="10.00">_instance</text>
</a>
</g>
</g>
<!-- Node6&#45;&gt;Node7 -->
<g id="edge6" class="edge"><title>Node6&#45;&gt;Node7</title>
<path fill="none" stroke="midnightblue" d="M482.117,-81C500.872,-81 521.682,-81 540.533,-81"/>
<polygon fill="midnightblue" stroke="midnightblue" points="540.779,-84.5001 550.779,-81 540.779,-77.5001 540.779,-84.5001"/>
</g>
</g>
</svg>
