<?xml version="1.0" encoding="UTF-8" standalone="no"?>
<!DOCTYPE svg PUBLIC "-//W3C//DTD SVG 1.1//EN"
 "http://www.w3.org/Graphics/SVG/1.1/DTD/svg11.dtd">
<!-- Generated by graphviz version 2.36.0 (20140111.2315)
 -->
<!-- Title: org::libcppa::protobuf_AddDesc_message_2eproto Pages: 1 -->
<svg width="348pt" height="109pt"
 viewBox="0.00 0.00 348.00 109.00" xmlns="http://www.w3.org/2000/svg" xmlns:xlink="http://www.w3.org/1999/xlink">
<g id="graph0" class="graph" transform="scale(1 1) rotate(0) translate(4 105)">
<title>org::libcppa::protobuf_AddDesc_message_2eproto</title>
<!-- Node1 -->
<g id="node1" class="node"><title>Node1</title>
<polygon fill="#bfbfbf" stroke="black" points="0.5,-41 0.5,-71 145.5,-71 145.5,-41 0.5,-41"/>
<text text-anchor="start" x="8.5" y="-59" font-family="Helvetica,sans-Serif" font-size="10.00">org::libcppa::protobuf</text>
<text text-anchor="middle" x="73" y="-48" font-family="Helvetica,sans-Serif" font-size="10.00">_AddDesc_message_2eproto</text>
</g>
<!-- Node2 -->
<g id="node2" class="node"><title>Node2</title>
<g id="a_node2"><a xlink:href="namespaceorg_1_1libcppa.html#ae01764e64ed49404f326136a720b1f3a" target="_top" xlink:title="org::libcppa::protobuf\l_AssignDesc_message_2eproto">
<polygon fill="none" stroke="black" points="182,-71 182,-101 340,-101 340,-71 182,-71"/>
<text text-anchor="start" x="190" y="-89" font-family="Helvetica,sans-Serif" font-size="10.00">org::libcppa::protobuf</text>
<text text-anchor="middle" x="261" y="-78" font-family="Helvetica,sans-Serif" font-size="10.00">_AssignDesc_message_2eproto</text>
</a>
</g>
</g>
<!-- Node1&#45;&gt;Node2 -->
<g id="edge1" class="edge"><title>Node1&#45;&gt;Node2</title>
<path fill="none" stroke="midnightblue" d="M155.761,-69.1872C164.444,-70.5878 173.26,-72.0097 181.9,-73.4033"/>
<polygon fill="midnightblue" stroke="midnightblue" points="156.076,-65.6929 145.646,-67.5559 154.961,-72.6036 156.076,-65.6929"/>
</g>
<!-- Node3 -->
<g id="node3" class="node"><title>Node3</title>
<g id="a_node3"><a xlink:href="structorg_1_1libcppa_1_1StaticDescriptorInitializer__message__2eproto.html#ac6023162292154effbea9c4a223f68cd" target="_top" xlink:title="org::libcppa::StaticDescriptor\lInitializer_message_2eproto\l::StaticDescriptorInitializer\l_message_2eproto">
<polygon fill="none" stroke="black" points="189.5,-0 189.5,-52 332.5,-52 332.5,-0 189.5,-0"/>
<text text-anchor="start" x="197.5" y="-40" font-family="Helvetica,sans-Serif" font-size="10.00">org::libcppa::StaticDescriptor</text>
<text text-anchor="start" x="197.5" y="-29" font-family="Helvetica,sans-Serif" font-size="10.00">Initializer_message_2eproto</text>
<text text-anchor="start" x="197.5" y="-18" font-family="Helvetica,sans-Serif" font-size="10.00">::StaticDescriptorInitializer</text>
<text text-anchor="middle" x="261" y="-7" font-family="Helvetica,sans-Serif" font-size="10.00">_message_2eproto</text>
</a>
</g>
</g>
<!-- Node1&#45;&gt;Node3 -->
<g id="edge2" class="edge"><title>Node1&#45;&gt;Node3</title>
<path fill="none" stroke="midnightblue" d="M155.819,-42.8033C166.984,-41.0026 178.366,-39.1668 189.31,-37.4015"/>
<polygon fill="midnightblue" stroke="midnightblue" points="154.961,-39.3964 145.646,-44.4441 156.076,-46.3071 154.961,-39.3964"/>
</g>
</g>
</svg>
