<?xml version="1.0" encoding="UTF-8" standalone="no"?>
<!DOCTYPE svg PUBLIC "-//W3C//DTD SVG 1.1//EN"
 "http://www.w3.org/Graphics/SVG/1.1/DTD/svg11.dtd">
<!-- Generated by graphviz version 2.36.0 (20140111.2315)
 -->
<!-- Title: pb::SensorNearData::MFC::protobuf_AddDesc_CameraImage_2eproto Pages: 1 -->
<svg width="496pt" height="204pt"
 viewBox="0.00 0.00 496.00 204.00" xmlns="http://www.w3.org/2000/svg" xmlns:xlink="http://www.w3.org/1999/xlink">
<g id="graph0" class="graph" transform="scale(1 1) rotate(0) translate(4 200)">
<title>pb::SensorNearData::MFC::protobuf_AddDesc_CameraImage_2eproto</title>
<!-- Node1 -->
<g id="node1" class="node"><title>Node1</title>
<polygon fill="#bfbfbf" stroke="black" points="0.5,-60.5 0.5,-101.5 131.5,-101.5 131.5,-60.5 0.5,-60.5"/>
<text text-anchor="start" x="8.5" y="-89.5" font-family="Helvetica,sans-Serif" font-size="10.00">pb::SensorNearData</text>
<text text-anchor="start" x="8.5" y="-78.5" font-family="Helvetica,sans-Serif" font-size="10.00">::MFC::protobuf_AddDesc</text>
<text text-anchor="middle" x="66" y="-67.5" font-family="Helvetica,sans-Serif" font-size="10.00">_CameraImage_2eproto</text>
</g>
<!-- Node2 -->
<g id="node2" class="node"><title>Node2</title>
<g id="a_node2"><a xlink:href="namespacepb.html#a398fcfaaf2f8651db5d294e2c0fd432c" target="_top" xlink:title="pb::protobuf_AddDesc\l_header_2eproto">
<polygon fill="none" stroke="black" points="186,-120 186,-150 300,-150 300,-120 186,-120"/>
<text text-anchor="start" x="194" y="-138" font-family="Helvetica,sans-Serif" font-size="10.00">pb::protobuf_AddDesc</text>
<text text-anchor="middle" x="243" y="-127" font-family="Helvetica,sans-Serif" font-size="10.00">_header_2eproto</text>
</a>
</g>
</g>
<!-- Node1&#45;&gt;Node2 -->
<g id="edge1" class="edge"><title>Node1&#45;&gt;Node2</title>
<path fill="none" stroke="midnightblue" d="M131.666,-100.954C148.677,-106.203 166.926,-111.834 183.587,-116.975"/>
<polygon fill="midnightblue" stroke="midnightblue" points="182.604,-120.335 193.192,-119.939 184.668,-113.646 182.604,-120.335"/>
</g>
<!-- Node5 -->
<g id="node5" class="node"><title>Node5</title>
<g id="a_node5"><a xlink:href="classpb_1_1SensorNearData_1_1MFC_1_1CameraImage.html#a211a190e1a7e85d915eb1a261ff62c4c" target="_top" xlink:title="pb::SensorNearData\l::MFC::CameraImage::\lInitAsDefaultInstance">
<polygon fill="none" stroke="black" points="184,-60.5 184,-101.5 302,-101.5 302,-60.5 184,-60.5"/>
<text text-anchor="start" x="192" y="-89.5" font-family="Helvetica,sans-Serif" font-size="10.00">pb::SensorNearData</text>
<text text-anchor="start" x="192" y="-78.5" font-family="Helvetica,sans-Serif" font-size="10.00">::MFC::CameraImage::</text>
<text text-anchor="middle" x="243" y="-67.5" font-family="Helvetica,sans-Serif" font-size="10.00">InitAsDefaultInstance</text>
</a>
</g>
</g>
<!-- Node1&#45;&gt;Node5 -->
<g id="edge4" class="edge"><title>Node1&#45;&gt;Node5</title>
<path fill="none" stroke="midnightblue" d="M131.666,-81C145.322,-81 159.775,-81 173.564,-81"/>
<polygon fill="midnightblue" stroke="midnightblue" points="173.955,-84.5001 183.955,-81 173.955,-77.5001 173.955,-84.5001"/>
</g>
<!-- Node7 -->
<g id="node7" class="node"><title>Node7</title>
<g id="a_node7"><a xlink:href="namespacepb_1_1SensorNearData_1_1MFC.html#a4fd2cb78da6027165b93a335b66972e0" target="_top" xlink:title="pb::SensorNearData\l::MFC::protobuf_ShutdownFile\l_CameraImage_2eproto">
<polygon fill="none" stroke="black" points="168,-0.5 168,-41.5 318,-41.5 318,-0.5 168,-0.5"/>
<text text-anchor="start" x="176" y="-29.5" font-family="Helvetica,sans-Serif" font-size="10.00">pb::SensorNearData</text>
<text text-anchor="start" x="176" y="-18.5" font-family="Helvetica,sans-Serif" font-size="10.00">::MFC::protobuf_ShutdownFile</text>
<text text-anchor="middle" x="243" y="-7.5" font-family="Helvetica,sans-Serif" font-size="10.00">_CameraImage_2eproto</text>
</a>
</g>
</g>
<!-- Node1&#45;&gt;Node7 -->
<g id="edge6" class="edge"><title>Node1&#45;&gt;Node7</title>
<path fill="none" stroke="midnightblue" d="M127.225,-60.3514C141.743,-55.3739 157.373,-50.0149 172.285,-44.9025"/>
<polygon fill="midnightblue" stroke="midnightblue" points="173.636,-48.1391 181.96,-41.585 171.366,-41.5175 173.636,-48.1391"/>
</g>
<!-- Node3 -->
<g id="node3" class="node"><title>Node3</title>
<g id="a_node3"><a xlink:href="classpb_1_1Header.html#ac80bb9f4597d3e8a0135042092e20964" target="_top" xlink:title="pb::Header::InitAsDefault\lInstance">
<polygon fill="none" stroke="black" points="357,-166 357,-196 485,-196 485,-166 357,-166"/>
<text text-anchor="start" x="365" y="-184" font-family="Helvetica,sans-Serif" font-size="10.00">pb::Header::InitAsDefault</text>
<text text-anchor="middle" x="421" y="-173" font-family="Helvetica,sans-Serif" font-size="10.00">Instance</text>
</a>
</g>
</g>
<!-- Node2&#45;&gt;Node3 -->
<g id="edge2" class="edge"><title>Node2&#45;&gt;Node3</title>
<path fill="none" stroke="midnightblue" d="M300.171,-149.681C316.822,-154.033 335.23,-158.844 352.52,-163.363"/>
<polygon fill="midnightblue" stroke="midnightblue" points="351.988,-166.842 362.548,-165.984 353.758,-160.069 351.988,-166.842"/>
</g>
<!-- Node4 -->
<g id="node4" class="node"><title>Node4</title>
<g id="a_node4"><a xlink:href="namespacepb.html#a58b7e9ff40ba872d44217907ef3dadc5" target="_top" xlink:title="pb::protobuf_ShutdownFile\l_header_2eproto">
<polygon fill="none" stroke="black" points="354.5,-117 354.5,-147 487.5,-147 487.5,-117 354.5,-117"/>
<text text-anchor="start" x="362.5" y="-135" font-family="Helvetica,sans-Serif" font-size="10.00">pb::protobuf_ShutdownFile</text>
<text text-anchor="middle" x="421" y="-124" font-family="Helvetica,sans-Serif" font-size="10.00">_header_2eproto</text>
</a>
</g>
</g>
<!-- Node2&#45;&gt;Node4 -->
<g id="edge3" class="edge"><title>Node2&#45;&gt;Node4</title>
<path fill="none" stroke="midnightblue" d="M300.171,-134.043C314.149,-133.804 329.364,-133.545 344.116,-133.293"/>
<polygon fill="midnightblue" stroke="midnightblue" points="344.295,-136.791 354.234,-133.121 344.176,-129.792 344.295,-136.791"/>
</g>
<!-- Node6 -->
<g id="node6" class="node"><title>Node6</title>
<g id="a_node6"><a xlink:href="classpb_1_1Header.html#ab885144f6dc4e95e63f16d4eb2f07725" target="_top" xlink:title="pb::Header::default\l_instance">
<polygon fill="none" stroke="black" points="371,-66 371,-96 471,-96 471,-66 371,-66"/>
<text text-anchor="start" x="379" y="-84" font-family="Helvetica,sans-Serif" font-size="10.00">pb::Header::default</text>
<text text-anchor="middle" x="421" y="-73" font-family="Helvetica,sans-Serif" font-size="10.00">_instance</text>
</a>
</g>
</g>
<!-- Node5&#45;&gt;Node6 -->
<g id="edge5" class="edge"><title>Node5&#45;&gt;Node6</title>
<path fill="none" stroke="midnightblue" d="M302.117,-81C320.872,-81 341.682,-81 360.533,-81"/>
<polygon fill="midnightblue" stroke="midnightblue" points="360.779,-84.5001 370.779,-81 360.779,-77.5001 360.779,-84.5001"/>
</g>
</g>
</svg>
