<?xml version="1.0" encoding="UTF-8" standalone="no"?>
<!DOCTYPE svg PUBLIC "-//W3C//DTD SVG 1.1//EN"
 "http://www.w3.org/Graphics/SVG/1.1/DTD/svg11.dtd">
<!-- Generated by graphviz version 2.36.0 (20140111.2315)
 -->
<!-- Title: pb::protobuf_AddDesc_header_2eproto Pages: 1 -->
<svg width="596pt" height="191pt"
 viewBox="0.00 0.00 596.00 191.00" xmlns="http://www.w3.org/2000/svg" xmlns:xlink="http://www.w3.org/1999/xlink">
<g id="graph0" class="graph" transform="scale(1 1) rotate(0) translate(4 187)">
<title>pb::protobuf_AddDesc_header_2eproto</title>
<!-- Node1 -->
<g id="node1" class="node"><title>Node1</title>
<polygon fill="#bfbfbf" stroke="black" points="0,-60 0,-90 114,-90 114,-60 0,-60"/>
<text text-anchor="start" x="8" y="-78" font-family="Helvetica,sans-Serif" font-size="10.00">pb::protobuf_AddDesc</text>
<text text-anchor="middle" x="57" y="-67" font-family="Helvetica,sans-Serif" font-size="10.00">_header_2eproto</text>
</g>
<!-- Node2 -->
<g id="node2" class="node"><title>Node2</title>
<g id="a_node2"><a xlink:href="namespacepb_1_1SensorNearData_1_1MFC.html#a57fa0c67da79e52e28b518b9561517b6" target="_top" xlink:title="pb::SensorNearData\l::MFC::protobuf_AddDesc\l_CameraImage_2eproto">
<polygon fill="none" stroke="black" points="186.5,-108.5 186.5,-149.5 317.5,-149.5 317.5,-108.5 186.5,-108.5"/>
<text text-anchor="start" x="194.5" y="-137.5" font-family="Helvetica,sans-Serif" font-size="10.00">pb::SensorNearData</text>
<text text-anchor="start" x="194.5" y="-126.5" font-family="Helvetica,sans-Serif" font-size="10.00">::MFC::protobuf_AddDesc</text>
<text text-anchor="middle" x="252" y="-115.5" font-family="Helvetica,sans-Serif" font-size="10.00">_CameraImage_2eproto</text>
</a>
</g>
</g>
<!-- Node1&#45;&gt;Node2 -->
<g id="edge1" class="edge"><title>Node1&#45;&gt;Node2</title>
<path fill="none" stroke="midnightblue" d="M121.442,-92.7507C142.225,-98.5656 165.335,-105.032 186.216,-110.874"/>
<polygon fill="midnightblue" stroke="midnightblue" points="122.335,-89.366 111.761,-90.042 120.448,-96.1071 122.335,-89.366"/>
</g>
<!-- Node5 -->
<g id="node5" class="node"><title>Node5</title>
<g id="a_node5"><a xlink:href="namespacepb.html#adfcaf8b661a12987f94afb55301eb291" target="_top" xlink:title="pb::protobuf_AssignDesc\l_header_2eproto">
<polygon fill="none" stroke="black" points="188.5,-60 188.5,-90 315.5,-90 315.5,-60 188.5,-60"/>
<text text-anchor="start" x="196.5" y="-78" font-family="Helvetica,sans-Serif" font-size="10.00">pb::protobuf_AssignDesc</text>
<text text-anchor="middle" x="252" y="-67" font-family="Helvetica,sans-Serif" font-size="10.00">_header_2eproto</text>
</a>
</g>
</g>
<!-- Node1&#45;&gt;Node5 -->
<g id="edge4" class="edge"><title>Node1&#45;&gt;Node5</title>
<path fill="none" stroke="midnightblue" d="M124.103,-75C144.899,-75 167.791,-75 188.34,-75"/>
<polygon fill="midnightblue" stroke="midnightblue" points="124.083,-71.5001 114.083,-75 124.083,-78.5001 124.083,-71.5001"/>
</g>
<!-- Node6 -->
<g id="node6" class="node"><title>Node6</title>
<g id="a_node6"><a xlink:href="structpb_1_1StaticDescriptorInitializer__header__2eproto.html#a776f6cdf74b67bbcfec316d201938cfd" target="_top" xlink:title="pb::StaticDescriptorInitializer\l_header_2eproto::StaticDescriptorInitializer\l_header_2eproto">
<polygon fill="none" stroke="black" points="150,-0.5 150,-41.5 354,-41.5 354,-0.5 150,-0.5"/>
<text text-anchor="start" x="158" y="-29.5" font-family="Helvetica,sans-Serif" font-size="10.00">pb::StaticDescriptorInitializer</text>
<text text-anchor="start" x="158" y="-18.5" font-family="Helvetica,sans-Serif" font-size="10.00">_header_2eproto::StaticDescriptorInitializer</text>
<text text-anchor="middle" x="252" y="-7.5" font-family="Helvetica,sans-Serif" font-size="10.00">_header_2eproto</text>
</a>
</g>
</g>
<!-- Node1&#45;&gt;Node6 -->
<g id="edge5" class="edge"><title>Node1&#45;&gt;Node6</title>
<path fill="none" stroke="midnightblue" d="M121.545,-57.2207C139.509,-52.1944 159.205,-46.6837 177.693,-41.5107"/>
<polygon fill="midnightblue" stroke="midnightblue" points="120.448,-53.8929 111.761,-59.958 122.335,-60.634 120.448,-53.8929"/>
</g>
<!-- Node3 -->
<g id="node3" class="node"><title>Node3</title>
<g id="a_node3"><a xlink:href="namespacepb_1_1SensorNearData_1_1MFC.html#ae925b28b351037f0ba789dd765a846d4" target="_top" xlink:title="pb::SensorNearData\l::MFC::protobuf_AssignDesc\l_CameraImage_2eproto">
<polygon fill="none" stroke="black" points="417,-141.5 417,-182.5 561,-182.5 561,-141.5 417,-141.5"/>
<text text-anchor="start" x="425" y="-170.5" font-family="Helvetica,sans-Serif" font-size="10.00">pb::SensorNearData</text>
<text text-anchor="start" x="425" y="-159.5" font-family="Helvetica,sans-Serif" font-size="10.00">::MFC::protobuf_AssignDesc</text>
<text text-anchor="middle" x="489" y="-148.5" font-family="Helvetica,sans-Serif" font-size="10.00">_CameraImage_2eproto</text>
</a>
</g>
</g>
<!-- Node2&#45;&gt;Node3 -->
<g id="edge2" class="edge"><title>Node2&#45;&gt;Node3</title>
<path fill="none" stroke="midnightblue" d="M327.432,-139.452C355.941,-143.456 388.375,-148.01 416.594,-151.973"/>
<polygon fill="midnightblue" stroke="midnightblue" points="327.915,-135.986 317.526,-138.061 326.942,-142.918 327.915,-135.986"/>
</g>
<!-- Node4 -->
<g id="node4" class="node"><title>Node4</title>
<g id="a_node4"><a xlink:href="structpb_1_1SensorNearData_1_1MFC_1_1StaticDescriptorInitializer__CameraImage__2eproto.html#a238f1b392446f07c4b6294dc4a957a15" target="_top" xlink:title="pb::SensorNearData\l::MFC::StaticDescriptorInitializer\l_CameraImage_2eproto::StaticDescriptor\lInitializer_CameraImage_2eproto">
<polygon fill="none" stroke="black" points="390.5,-70 390.5,-122 587.5,-122 587.5,-70 390.5,-70"/>
<text text-anchor="start" x="398.5" y="-110" font-family="Helvetica,sans-Serif" font-size="10.00">pb::SensorNearData</text>
<text text-anchor="start" x="398.5" y="-99" font-family="Helvetica,sans-Serif" font-size="10.00">::MFC::StaticDescriptorInitializer</text>
<text text-anchor="start" x="398.5" y="-88" font-family="Helvetica,sans-Serif" font-size="10.00">_CameraImage_2eproto::StaticDescriptor</text>
<text text-anchor="middle" x="489" y="-77" font-family="Helvetica,sans-Serif" font-size="10.00">Initializer_CameraImage_2eproto</text>
</a>
</g>
</g>
<!-- Node2&#45;&gt;Node4 -->
<g id="edge3" class="edge"><title>Node2&#45;&gt;Node4</title>
<path fill="none" stroke="midnightblue" d="M327.437,-118.547C347.342,-115.752 369.161,-112.688 390.122,-109.745"/>
<polygon fill="midnightblue" stroke="midnightblue" points="326.942,-115.082 317.526,-119.939 327.915,-122.014 326.942,-115.082"/>
</g>
</g>
</svg>
