<?xml version="1.0" encoding="UTF-8" standalone="no"?>
<!DOCTYPE svg PUBLIC "-//W3C//DTD SVG 1.1//EN"
 "http://www.w3.org/Graphics/SVG/1.1/DTD/svg11.dtd">
<!-- Generated by graphviz version 2.36.0 (20140111.2315)
 -->
<!-- Title: org::libcppa::protobuf_ShutdownFile_message_2eproto Pages: 1 -->
<svg width="510pt" height="109pt"
 viewBox="0.00 0.00 510.00 109.00" xmlns="http://www.w3.org/2000/svg" xmlns:xlink="http://www.w3.org/1999/xlink">
<g id="graph0" class="graph" transform="scale(1 1) rotate(0) translate(4 105)">
<title>org::libcppa::protobuf_ShutdownFile_message_2eproto</title>
<!-- Node1 -->
<g id="node1" class="node"><title>Node1</title>
<polygon fill="#bfbfbf" stroke="black" points="0,-35.5 0,-76.5 126,-76.5 126,-35.5 0,-35.5"/>
<text text-anchor="start" x="8" y="-64.5" font-family="Helvetica,sans-Serif" font-size="10.00">org::libcppa::protobuf</text>
<text text-anchor="start" x="8" y="-53.5" font-family="Helvetica,sans-Serif" font-size="10.00">_ShutdownFile_message</text>
<text text-anchor="middle" x="63" y="-42.5" font-family="Helvetica,sans-Serif" font-size="10.00">_2eproto</text>
</g>
<!-- Node2 -->
<g id="node2" class="node"><title>Node2</title>
<g id="a_node2"><a xlink:href="namespaceorg_1_1libcppa.html#a53893d1ff6bccd47afc19718d1797afb" target="_top" xlink:title="org::libcppa::protobuf\l_AddDesc_message_2eproto">
<polygon fill="none" stroke="black" points="162.5,-41 162.5,-71 307.5,-71 307.5,-41 162.5,-41"/>
<text text-anchor="start" x="170.5" y="-59" font-family="Helvetica,sans-Serif" font-size="10.00">org::libcppa::protobuf</text>
<text text-anchor="middle" x="235" y="-48" font-family="Helvetica,sans-Serif" font-size="10.00">_AddDesc_message_2eproto</text>
</a>
</g>
</g>
<!-- Node1&#45;&gt;Node2 -->
<g id="edge1" class="edge"><title>Node1&#45;&gt;Node2</title>
<path fill="none" stroke="midnightblue" d="M136.377,-56C145.018,-56 153.837,-56 162.467,-56"/>
<polygon fill="midnightblue" stroke="midnightblue" points="136.336,-52.5001 126.336,-56 136.336,-59.5001 136.336,-52.5001"/>
</g>
<!-- Node3 -->
<g id="node3" class="node"><title>Node3</title>
<g id="a_node3"><a xlink:href="namespaceorg_1_1libcppa.html#ae01764e64ed49404f326136a720b1f3a" target="_top" xlink:title="org::libcppa::protobuf\l_AssignDesc_message_2eproto">
<polygon fill="none" stroke="black" points="344,-71 344,-101 502,-101 502,-71 344,-71"/>
<text text-anchor="start" x="352" y="-89" font-family="Helvetica,sans-Serif" font-size="10.00">org::libcppa::protobuf</text>
<text text-anchor="middle" x="423" y="-78" font-family="Helvetica,sans-Serif" font-size="10.00">_AssignDesc_message_2eproto</text>
</a>
</g>
</g>
<!-- Node2&#45;&gt;Node3 -->
<g id="edge2" class="edge"><title>Node2&#45;&gt;Node3</title>
<path fill="none" stroke="midnightblue" d="M317.761,-69.1872C326.444,-70.5878 335.26,-72.0097 343.9,-73.4033"/>
<polygon fill="midnightblue" stroke="midnightblue" points="318.076,-65.6929 307.646,-67.5559 316.961,-72.6036 318.076,-65.6929"/>
</g>
<!-- Node4 -->
<g id="node4" class="node"><title>Node4</title>
<g id="a_node4"><a xlink:href="structorg_1_1libcppa_1_1StaticDescriptorInitializer__message__2eproto.html#ac6023162292154effbea9c4a223f68cd" target="_top" xlink:title="org::libcppa::StaticDescriptor\lInitializer_message_2eproto\l::StaticDescriptorInitializer\l_message_2eproto">
<polygon fill="none" stroke="black" points="351.5,-0 351.5,-52 494.5,-52 494.5,-0 351.5,-0"/>
<text text-anchor="start" x="359.5" y="-40" font-family="Helvetica,sans-Serif" font-size="10.00">org::libcppa::StaticDescriptor</text>
<text text-anchor="start" x="359.5" y="-29" font-family="Helvetica,sans-Serif" font-size="10.00">Initializer_message_2eproto</text>
<text text-anchor="start" x="359.5" y="-18" font-family="Helvetica,sans-Serif" font-size="10.00">::StaticDescriptorInitializer</text>
<text text-anchor="middle" x="423" y="-7" font-family="Helvetica,sans-Serif" font-size="10.00">_message_2eproto</text>
</a>
</g>
</g>
<!-- Node2&#45;&gt;Node4 -->
<g id="edge3" class="edge"><title>Node2&#45;&gt;Node4</title>
<path fill="none" stroke="midnightblue" d="M317.819,-42.8033C328.984,-41.0026 340.366,-39.1668 351.31,-37.4015"/>
<polygon fill="midnightblue" stroke="midnightblue" points="316.961,-39.3964 307.646,-44.4441 318.076,-46.3071 316.961,-39.3964"/>
</g>
</g>
</svg>
