<?xml version="1.0" encoding="UTF-8" standalone="no"?>
<!DOCTYPE svg PUBLIC "-//W3C//DTD SVG 1.1//EN"
 "http://www.w3.org/Graphics/SVG/1.1/DTD/svg11.dtd">
<!-- Generated by graphviz version 2.36.0 (20140111.2315)
 -->
<!-- Title: csCommunication::protobuf_ShutdownFile_csCommunication_2eproto Pages: 1 -->
<svg width="564pt" height="121pt"
 viewBox="0.00 0.00 564.00 121.00" xmlns="http://www.w3.org/2000/svg" xmlns:xlink="http://www.w3.org/1999/xlink">
<g id="graph0" class="graph" transform="scale(1 1) rotate(0) translate(4 117)">
<title>csCommunication::protobuf_ShutdownFile_csCommunication_2eproto</title>
<!-- Node1 -->
<g id="node1" class="node"><title>Node1</title>
<polygon fill="#bfbfbf" stroke="black" points="0.5,-38.5 0.5,-79.5 165.5,-79.5 165.5,-38.5 0.5,-38.5"/>
<text text-anchor="start" x="8.5" y="-67.5" font-family="Helvetica,sans-Serif" font-size="10.00">csCommunication::protobuf</text>
<text text-anchor="start" x="8.5" y="-56.5" font-family="Helvetica,sans-Serif" font-size="10.00">_ShutdownFile_csCommunication</text>
<text text-anchor="middle" x="83" y="-45.5" font-family="Helvetica,sans-Serif" font-size="10.00">_2eproto</text>
</g>
<!-- Node2 -->
<g id="node2" class="node"><title>Node2</title>
<g id="a_node2"><a xlink:href="namespacecsCommunication.html#a471b86a61dea94fd37e946769fe44656" target="_top" xlink:title="csCommunication::protobuf\l_AddDesc_csCommunication\l_2eproto">
<polygon fill="none" stroke="black" points="202,-38.5 202,-79.5 348,-79.5 348,-38.5 202,-38.5"/>
<text text-anchor="start" x="210" y="-67.5" font-family="Helvetica,sans-Serif" font-size="10.00">csCommunication::protobuf</text>
<text text-anchor="start" x="210" y="-56.5" font-family="Helvetica,sans-Serif" font-size="10.00">_AddDesc_csCommunication</text>
<text text-anchor="middle" x="275" y="-45.5" font-family="Helvetica,sans-Serif" font-size="10.00">_2eproto</text>
</a>
</g>
</g>
<!-- Node1&#45;&gt;Node2 -->
<g id="edge1" class="edge"><title>Node1&#45;&gt;Node2</title>
<path fill="none" stroke="midnightblue" d="M175.915,-59C184.663,-59 193.445,-59 201.966,-59"/>
<polygon fill="midnightblue" stroke="midnightblue" points="175.68,-55.5001 165.68,-59 175.68,-62.5001 175.68,-55.5001"/>
</g>
<!-- Node3 -->
<g id="node3" class="node"><title>Node3</title>
<g id="a_node3"><a xlink:href="namespacecsCommunication.html#ab524cfc3c7620943f3cdb034dda20b35" target="_top" xlink:title="csCommunication::protobuf\l_AssignDesc_csCommunication\l_2eproto">
<polygon fill="none" stroke="black" points="390.5,-71.5 390.5,-112.5 549.5,-112.5 549.5,-71.5 390.5,-71.5"/>
<text text-anchor="start" x="398.5" y="-100.5" font-family="Helvetica,sans-Serif" font-size="10.00">csCommunication::protobuf</text>
<text text-anchor="start" x="398.5" y="-89.5" font-family="Helvetica,sans-Serif" font-size="10.00">_AssignDesc_csCommunication</text>
<text text-anchor="middle" x="470" y="-78.5" font-family="Helvetica,sans-Serif" font-size="10.00">_2eproto</text>
</a>
</g>
</g>
<!-- Node2&#45;&gt;Node3 -->
<g id="edge2" class="edge"><title>Node2&#45;&gt;Node3</title>
<path fill="none" stroke="midnightblue" d="M358.283,-73.0692C368.957,-74.8942 379.867,-76.7597 390.477,-78.5738"/>
<polygon fill="midnightblue" stroke="midnightblue" points="358.587,-69.5704 348.141,-71.3349 357.408,-76.4703 358.587,-69.5704"/>
</g>
<!-- Node4 -->
<g id="node4" class="node"><title>Node4</title>
<g id="a_node4"><a xlink:href="structcsCommunication_1_1StaticDescriptorInitializer__csCommunication__2eproto.html#a1467f463493d9d9cafb69d302fa3f71d" target="_top" xlink:title="csCommunication::StaticDescriptor\lInitializer_csCommunication\l_2eproto::StaticDescriptorInitializer\l_csCommunication_2eproto">
<polygon fill="none" stroke="black" points="384,-0 384,-52 556,-52 556,-0 384,-0"/>
<text text-anchor="start" x="392" y="-40" font-family="Helvetica,sans-Serif" font-size="10.00">csCommunication::StaticDescriptor</text>
<text text-anchor="start" x="392" y="-29" font-family="Helvetica,sans-Serif" font-size="10.00">Initializer_csCommunication</text>
<text text-anchor="start" x="392" y="-18" font-family="Helvetica,sans-Serif" font-size="10.00">_2eproto::StaticDescriptorInitializer</text>
<text text-anchor="middle" x="470" y="-7" font-family="Helvetica,sans-Serif" font-size="10.00">_csCommunication_2eproto</text>
</a>
</g>
</g>
<!-- Node2&#45;&gt;Node4 -->
<g id="edge3" class="edge"><title>Node2&#45;&gt;Node4</title>
<path fill="none" stroke="midnightblue" d="M358.092,-44.9636C366.643,-43.5015 375.349,-42.0129 383.932,-40.5453"/>
<polygon fill="midnightblue" stroke="midnightblue" points="357.408,-41.5297 348.141,-46.6651 358.587,-48.4296 357.408,-41.5297"/>
</g>
</g>
</svg>
