<?xml version="1.0" encoding="UTF-8" standalone="no"?>
<!DOCTYPE svg PUBLIC "-//W3C//DTD SVG 1.1//EN"
 "http://www.w3.org/Graphics/SVG/1.1/DTD/svg11.dtd">
<!-- Generated by graphviz version 2.36.0 (20140111.2315)
 -->
<!-- Title: patch::to_string Pages: 1 -->
<svg width="744pt" height="306pt"
 viewBox="0.00 0.00 744.00 306.00" xmlns="http://www.w3.org/2000/svg" xmlns:xlink="http://www.w3.org/1999/xlink">
<g id="graph0" class="graph" transform="scale(1 1) rotate(0) translate(4 302)">
<title>patch::to_string</title>
<!-- Node1 -->
<g id="node1" class="node"><title>Node1</title>
<polygon fill="#bfbfbf" stroke="black" points="0,-202.5 0,-221.5 84,-221.5 84,-202.5 0,-202.5"/>
<text text-anchor="middle" x="42" y="-209.5" font-family="Helvetica,sans-Serif" font-size="10.00">patch::to_string</text>
</g>
<!-- Node2 -->
<g id="node2" class="node"><title>Node2</title>
<g id="a_node2"><a xlink:href="protobuf__broker_8cpp.html#ae10b5d14d3ad78f811d25de1d8429746" target="_top" xlink:title="protobuf_io">
<polygon fill="none" stroke="black" points="172.5,-240.5 172.5,-259.5 237.5,-259.5 237.5,-240.5 172.5,-240.5"/>
<text text-anchor="middle" x="205" y="-247.5" font-family="Helvetica,sans-Serif" font-size="10.00">protobuf_io</text>
</a>
</g>
</g>
<!-- Node1&#45;&gt;Node2 -->
<g id="edge1" class="edge"><title>Node1&#45;&gt;Node2</title>
<path fill="none" stroke="midnightblue" d="M90.814,-223.952C100.468,-226.321 110.552,-228.766 120,-231 137.315,-235.094 156.683,-239.488 172.454,-243.017"/>
<polygon fill="midnightblue" stroke="midnightblue" points="91.5014,-220.516 80.9543,-221.521 89.8259,-227.313 91.5014,-220.516"/>
</g>
<!-- Node3 -->
<g id="node3" class="node"><title>Node3</title>
<g id="a_node3"><a xlink:href="protobuf__broker_8cpp.html#ab3afbb104c5cd2d77878dca0def53691" target="_top" xlink:title="server">
<polygon fill="none" stroke="black" points="377,-278.5 377,-297.5 421,-297.5 421,-278.5 377,-278.5"/>
<text text-anchor="middle" x="399" y="-285.5" font-family="Helvetica,sans-Serif" font-size="10.00">server</text>
</a>
</g>
</g>
<!-- Node1&#45;&gt;Node3 -->
<g id="edge5" class="edge"><title>Node1&#45;&gt;Node3</title>
<path fill="none" stroke="midnightblue" d="M59.5755,-228.741C74.1198,-242.248 96.5584,-260.37 120,-269 210.796,-302.425 329.401,-295.22 376.946,-290.469"/>
<polygon fill="midnightblue" stroke="midnightblue" points="61.9877,-226.205 52.3512,-221.802 57.1385,-231.253 61.9877,-226.205"/>
</g>
<!-- Node5 -->
<g id="node5" class="node"><title>Node5</title>
<g id="a_node5"><a xlink:href="simple__broker_8cpp.html#ab83d9674f70bb5515d49512ea47cab0e" target="_top" xlink:title="ping">
<polygon fill="none" stroke="black" points="187.5,-202.5 187.5,-221.5 222.5,-221.5 222.5,-202.5 187.5,-202.5"/>
<text text-anchor="middle" x="205" y="-209.5" font-family="Helvetica,sans-Serif" font-size="10.00">ping</text>
</a>
</g>
</g>
<!-- Node1&#45;&gt;Node5 -->
<g id="edge6" class="edge"><title>Node1&#45;&gt;Node5</title>
<path fill="none" stroke="midnightblue" d="M94.1856,-212C126.299,-212 165.622,-212 187.428,-212"/>
<polygon fill="midnightblue" stroke="midnightblue" points="94.0437,-208.5 84.0437,-212 94.0436,-215.5 94.0437,-208.5"/>
</g>
<!-- Node7 -->
<g id="node7" class="node"><title>Node7</title>
<g id="a_node7"><a xlink:href="simple__broker_8cpp.html#aece465c2b927744e1d38b7a42aaaaa14" target="_top" xlink:title="broker_impl">
<polygon fill="none" stroke="black" points="171.5,-164.5 171.5,-183.5 238.5,-183.5 238.5,-164.5 171.5,-164.5"/>
<text text-anchor="middle" x="205" y="-171.5" font-family="Helvetica,sans-Serif" font-size="10.00">broker_impl</text>
</a>
</g>
</g>
<!-- Node1&#45;&gt;Node7 -->
<g id="edge8" class="edge"><title>Node1&#45;&gt;Node7</title>
<path fill="none" stroke="midnightblue" d="M90.814,-200.048C100.468,-197.679 110.552,-195.234 120,-193 136.879,-189.009 155.708,-184.734 171.255,-181.251"/>
<polygon fill="midnightblue" stroke="midnightblue" points="89.8259,-196.687 80.9543,-202.479 91.5014,-203.484 89.8259,-196.687"/>
</g>
<!-- Node9 -->
<g id="node9" class="node"><title>Node9</title>
<g id="a_node9"><a xlink:href="classHDFReader.html#a8be8f7b773c8547b5ace39960541fd33" target="_top" xlink:title="HDFReader::ReadOneProtobufFile">
<polygon fill="none" stroke="black" points="120.5,-88.5 120.5,-107.5 289.5,-107.5 289.5,-88.5 120.5,-88.5"/>
<text text-anchor="middle" x="205" y="-95.5" font-family="Helvetica,sans-Serif" font-size="10.00">HDFReader::ReadOneProtobufFile</text>
</a>
</g>
</g>
<!-- Node1&#45;&gt;Node9 -->
<g id="edge12" class="edge"><title>Node1&#45;&gt;Node9</title>
<path fill="none" stroke="midnightblue" d="M63.9836,-196.105C79.37,-184.539 100.832,-168.59 120,-155 144.154,-137.876 172.781,-118.679 189.609,-107.505"/>
<polygon fill="midnightblue" stroke="midnightblue" points="61.5679,-193.543 55.6896,-202.358 65.7817,-199.133 61.5679,-193.543"/>
</g>
<!-- Node2&#45;&gt;Node3 -->
<g id="edge2" class="edge"><title>Node2&#45;&gt;Node3</title>
<path fill="none" stroke="midnightblue" d="M247.657,-258.245C287.502,-266.131 345.972,-277.703 376.944,-283.833"/>
<polygon fill="midnightblue" stroke="midnightblue" points="248.194,-254.783 237.705,-256.275 246.835,-261.65 248.194,-254.783"/>
</g>
<!-- Node4 -->
<g id="node4" class="node"><title>Node4</title>
<g id="a_node4"><a xlink:href="protobuf__broker_8cpp.html#a3c04138a5bfe5d72780bb7e82a18e627" target="_top" xlink:title="main">
<polygon fill="none" stroke="black" points="566,-259.5 566,-278.5 604,-278.5 604,-259.5 566,-259.5"/>
<text text-anchor="middle" x="585" y="-266.5" font-family="Helvetica,sans-Serif" font-size="10.00">main</text>
</a>
</g>
</g>
<!-- Node2&#45;&gt;Node4 -->
<g id="edge4" class="edge"><title>Node2&#45;&gt;Node4</title>
<path fill="none" stroke="midnightblue" d="M247.761,-252.099C329.572,-256.211 507.994,-265.18 565.642,-268.077"/>
<polygon fill="midnightblue" stroke="midnightblue" points="247.741,-248.594 237.578,-251.587 247.39,-255.585 247.741,-248.594"/>
</g>
<!-- Node3&#45;&gt;Node4 -->
<g id="edge3" class="edge"><title>Node3&#45;&gt;Node4</title>
<path fill="none" stroke="midnightblue" d="M431.286,-284.769C469.983,-280.774 534.569,-274.104 565.88,-270.871"/>
<polygon fill="midnightblue" stroke="midnightblue" points="430.695,-281.312 421.107,-285.82 431.414,-288.275 430.695,-281.312"/>
</g>
<!-- Node6 -->
<g id="node6" class="node"><title>Node6</title>
<g id="a_node6"><a xlink:href="simple__broker_8cpp.html#a3c04138a5bfe5d72780bb7e82a18e627" target="_top" xlink:title="main">
<polygon fill="none" stroke="black" points="566,-164.5 566,-183.5 604,-183.5 604,-164.5 566,-164.5"/>
<text text-anchor="middle" x="585" y="-171.5" font-family="Helvetica,sans-Serif" font-size="10.00">main</text>
</a>
</g>
</g>
<!-- Node5&#45;&gt;Node6 -->
<g id="edge7" class="edge"><title>Node5&#45;&gt;Node6</title>
<path fill="none" stroke="midnightblue" d="M232.669,-209.899C280.615,-206.054 384.534,-197.41 472,-188 505.122,-184.437 543.643,-179.432 565.787,-176.472"/>
<polygon fill="midnightblue" stroke="midnightblue" points="232.208,-206.425 222.517,-210.708 232.764,-213.402 232.208,-206.425"/>
</g>
<!-- Node7&#45;&gt;Node6 -->
<g id="edge11" class="edge"><title>Node7&#45;&gt;Node6</title>
<path fill="none" stroke="midnightblue" d="M248.566,-174C330.796,-174 508.439,-174 565.766,-174"/>
<polygon fill="midnightblue" stroke="midnightblue" points="248.555,-170.5 238.555,-174 248.555,-177.5 248.555,-170.5"/>
</g>
<!-- Node8 -->
<g id="node8" class="node"><title>Node8</title>
<g id="a_node8"><a xlink:href="simple__broker_8cpp.html#a004fb635db33d280752e3ac41fad83ba" target="_top" xlink:title="server">
<polygon fill="none" stroke="black" points="377,-126.5 377,-145.5 421,-145.5 421,-126.5 377,-126.5"/>
<text text-anchor="middle" x="399" y="-133.5" font-family="Helvetica,sans-Serif" font-size="10.00">server</text>
</a>
</g>
</g>
<!-- Node7&#45;&gt;Node8 -->
<g id="edge9" class="edge"><title>Node7&#45;&gt;Node8</title>
<path fill="none" stroke="midnightblue" d="M248.523,-165.584C288.316,-157.708 346.111,-146.27 376.876,-140.181"/>
<polygon fill="midnightblue" stroke="midnightblue" points="247.7,-162.179 238.57,-167.554 249.059,-169.046 247.7,-162.179"/>
</g>
<!-- Node8&#45;&gt;Node6 -->
<g id="edge10" class="edge"><title>Node8&#45;&gt;Node6</title>
<path fill="none" stroke="midnightblue" d="M431.286,-142.461C469.983,-150.453 534.569,-163.791 565.88,-170.258"/>
<polygon fill="midnightblue" stroke="midnightblue" points="431.608,-138.954 421.107,-140.359 430.193,-145.809 431.608,-138.954"/>
</g>
<!-- Node10 -->
<g id="node10" class="node"><title>Node10</title>
<g id="a_node10"><a xlink:href="classFrameSelector.html#a1065c609443efd72a3236cc98f168caa" target="_top" xlink:title="FrameSelector::ReadImage">
<polygon fill="none" stroke="black" points="330.5,-88.5 330.5,-107.5 467.5,-107.5 467.5,-88.5 330.5,-88.5"/>
<text text-anchor="middle" x="399" y="-95.5" font-family="Helvetica,sans-Serif" font-size="10.00">FrameSelector::ReadImage</text>
</a>
</g>
</g>
<!-- Node9&#45;&gt;Node10 -->
<g id="edge13" class="edge"><title>Node9&#45;&gt;Node10</title>
<path fill="none" stroke="midnightblue" d="M299.933,-98C310.239,-98 320.576,-98 330.47,-98"/>
<polygon fill="midnightblue" stroke="midnightblue" points="299.655,-94.5001 289.655,-98 299.655,-101.5 299.655,-94.5001"/>
</g>
<!-- Node14 -->
<g id="node14" class="node"><title>Node14</title>
<g id="a_node14"><a xlink:href="classHDFReader.html#a5b9e493c8ec8cf001105dd262336e10b" target="_top" xlink:title="HDFReader::ReadAllProtobuf\lFiles">
<polygon fill="none" stroke="black" points="326,-17 326,-47 472,-47 472,-17 326,-17"/>
<text text-anchor="start" x="334" y="-35" font-family="Helvetica,sans-Serif" font-size="10.00">HDFReader::ReadAllProtobuf</text>
<text text-anchor="middle" x="399" y="-24" font-family="Helvetica,sans-Serif" font-size="10.00">Files</text>
</a>
</g>
</g>
<!-- Node9&#45;&gt;Node14 -->
<g id="edge18" class="edge"><title>Node9&#45;&gt;Node14</title>
<path fill="none" stroke="midnightblue" d="M243.695,-85.0422C275.385,-74.1489 320.719,-58.5653 354.052,-47.1071"/>
<polygon fill="midnightblue" stroke="midnightblue" points="242.238,-81.8423 233.918,-88.403 244.513,-88.4621 242.238,-81.8423"/>
</g>
<!-- Node11 -->
<g id="node11" class="node"><title>Node11</title>
<g id="a_node11"><a xlink:href="classController.html#aee012beb2309ae88b7278fa3dad06d80" target="_top" xlink:title="Controller::PlayHDFAsVideo">
<polygon fill="none" stroke="black" points="514,-126.5 514,-145.5 656,-145.5 656,-126.5 514,-126.5"/>
<text text-anchor="middle" x="585" y="-133.5" font-family="Helvetica,sans-Serif" font-size="10.00">Controller::PlayHDFAsVideo</text>
</a>
</g>
</g>
<!-- Node10&#45;&gt;Node11 -->
<g id="edge14" class="edge"><title>Node10&#45;&gt;Node11</title>
<path fill="none" stroke="midnightblue" d="M456.561,-109.681C482.654,-115.07 513.238,-121.386 537.903,-126.48"/>
<polygon fill="midnightblue" stroke="midnightblue" points="456.932,-106.184 446.431,-107.589 455.516,-113.039 456.932,-106.184"/>
</g>
<!-- Node12 -->
<g id="node12" class="node"><title>Node12</title>
<g id="a_node12"><a xlink:href="StreamDecoder_2main_8cpp.html#ac0f2228420376f4db7e1274f2b41667c" target="_top" xlink:title="main">
<polygon fill="none" stroke="black" points="698,-107.5 698,-126.5 736,-126.5 736,-107.5 698,-107.5"/>
<text text-anchor="middle" x="717" y="-114.5" font-family="Helvetica,sans-Serif" font-size="10.00">main</text>
</a>
</g>
</g>
<!-- Node10&#45;&gt;Node12 -->
<g id="edge17" class="edge"><title>Node10&#45;&gt;Node12</title>
<path fill="none" stroke="midnightblue" d="M477.941,-102.686C551.424,-107.105 656.31,-113.411 697.956,-115.915"/>
<polygon fill="midnightblue" stroke="midnightblue" points="477.982,-99.1826 467.79,-102.076 477.562,-106.17 477.982,-99.1826"/>
</g>
<!-- Node13 -->
<g id="node13" class="node"><title>Node13</title>
<g id="a_node13"><a xlink:href="classController.html#afd6375744f4f31dd254d1e5f1316ff4b" target="_top" xlink:title="Controller::SaveAllImages\lAsJPEG">
<polygon fill="none" stroke="black" points="519.5,-39 519.5,-69 650.5,-69 650.5,-39 519.5,-39"/>
<text text-anchor="start" x="527.5" y="-57" font-family="Helvetica,sans-Serif" font-size="10.00">Controller::SaveAllImages</text>
<text text-anchor="middle" x="585" y="-46" font-family="Helvetica,sans-Serif" font-size="10.00">AsJPEG</text>
</a>
</g>
</g>
<!-- Node10&#45;&gt;Node13 -->
<g id="edge16" class="edge"><title>Node10&#45;&gt;Node13</title>
<path fill="none" stroke="midnightblue" d="M449.697,-86.116C471.647,-80.8669 497.705,-74.6358 520.999,-69.0654"/>
<polygon fill="midnightblue" stroke="midnightblue" points="448.837,-82.7228 439.925,-88.4527 450.465,-89.5309 448.837,-82.7228"/>
</g>
<!-- Node11&#45;&gt;Node12 -->
<g id="edge15" class="edge"><title>Node11&#45;&gt;Node12</title>
<path fill="none" stroke="midnightblue" d="M661.345,-124.988C674.926,-123.003 687.889,-121.108 697.78,-119.663"/>
<polygon fill="midnightblue" stroke="midnightblue" points="660.77,-121.535 651.381,-126.444 661.782,-128.461 660.77,-121.535"/>
</g>
<!-- Node15 -->
<g id="node15" class="node"><title>Node15</title>
<g id="a_node15"><a xlink:href="classFrameSelector.html#af202012c3f91b5aba8ee74d116b24390" target="_top" xlink:title="FrameSelector::ReadAllImages">
<polygon fill="none" stroke="black" points="508.5,-0.5 508.5,-19.5 661.5,-19.5 661.5,-0.5 508.5,-0.5"/>
<text text-anchor="middle" x="585" y="-7.5" font-family="Helvetica,sans-Serif" font-size="10.00">FrameSelector::ReadAllImages</text>
</a>
</g>
</g>
<!-- Node14&#45;&gt;Node15 -->
<g id="edge19" class="edge"><title>Node14&#45;&gt;Node15</title>
<path fill="none" stroke="midnightblue" d="M482.309,-22.1588C490.987,-21.1212 499.781,-20.0697 508.378,-19.0417"/>
<polygon fill="midnightblue" stroke="midnightblue" points="481.707,-18.7056 472.194,-23.3682 482.538,-25.6561 481.707,-18.7056"/>
</g>
</g>
</svg>
