<?xml version="1.0" encoding="UTF-8" standalone="no"?>
<!DOCTYPE svg PUBLIC "-//W3C//DTD SVG 1.1//EN"
 "http://www.w3.org/Graphics/SVG/1.1/DTD/svg11.dtd">
<!-- Generated by graphviz version 2.36.0 (20140111.2315)
 -->
<!-- Title: src/ObjectDetection/people_detector.cpp Pages: 1 -->
<svg width="176pt" height="208pt"
 viewBox="0.00 0.00 176.00 208.00" xmlns="http://www.w3.org/2000/svg" xmlns:xlink="http://www.w3.org/1999/xlink">
<g id="graph0" class="graph" transform="scale(1 1) rotate(0) translate(4 204)">
<title>src/ObjectDetection/people_detector.cpp</title>
<!-- Node1 -->
<g id="node1" class="node"><title>Node1</title>
<polygon fill="#bfbfbf" stroke="black" points="45.5,-169 45.5,-199 152.5,-199 152.5,-169 45.5,-169"/>
<text text-anchor="start" x="53.5" y="-187" font-family="Helvetica,sans-Serif" font-size="10.00">src/ObjectDetection</text>
<text text-anchor="middle" x="99" y="-176" font-family="Helvetica,sans-Serif" font-size="10.00">/people_detector.cpp</text>
</g>
<!-- Node2 -->
<g id="node2" class="node"><title>Node2</title>
<g id="a_node2"><a xlink:href="people__detector_8h.html" target="_top" xlink:title="people_detector.h">
<polygon fill="none" stroke="black" points="52,-112.5 52,-131.5 146,-131.5 146,-112.5 52,-112.5"/>
<text text-anchor="middle" x="99" y="-119.5" font-family="Helvetica,sans-Serif" font-size="10.00">people_detector.h</text>
</a>
</g>
</g>
<!-- Node1&#45;&gt;Node2 -->
<g id="edge1" class="edge"><title>Node1&#45;&gt;Node2</title>
<path fill="none" stroke="midnightblue" d="M99,-168.781C99,-160.781 99,-150.689 99,-142.017"/>
<polygon fill="midnightblue" stroke="midnightblue" points="102.5,-141.73 99,-131.731 95.5001,-141.731 102.5,-141.73"/>
</g>
<!-- Node3 -->
<g id="node3" class="node"><title>Node3</title>
<g id="a_node3"><a xlink:href="detector_8h.html" target="_top" xlink:title="detector.h">
<polygon fill="none" stroke="black" points="69,-56.5 69,-75.5 129,-75.5 129,-56.5 69,-56.5"/>
<text text-anchor="middle" x="99" y="-63.5" font-family="Helvetica,sans-Serif" font-size="10.00">detector.h</text>
</a>
</g>
</g>
<!-- Node2&#45;&gt;Node3 -->
<g id="edge2" class="edge"><title>Node2&#45;&gt;Node3</title>
<path fill="none" stroke="midnightblue" d="M99,-112.083C99,-105.006 99,-94.8611 99,-85.9865"/>
<polygon fill="midnightblue" stroke="midnightblue" points="102.5,-85.751 99,-75.7511 95.5001,-85.7511 102.5,-85.751"/>
</g>
<!-- Node4 -->
<g id="node4" class="node"><title>Node4</title>
<polygon fill="none" stroke="#bfbfbf" points="-0.5,-0.5 -0.5,-19.5 106.5,-19.5 106.5,-0.5 -0.5,-0.5"/>
<text text-anchor="middle" x="53" y="-7.5" font-family="Helvetica,sans-Serif" font-size="10.00">opencv2/opencv.hpp</text>
</g>
<!-- Node3&#45;&gt;Node4 -->
<g id="edge3" class="edge"><title>Node3&#45;&gt;Node4</title>
<path fill="none" stroke="midnightblue" d="M91.404,-56.083C84.7725,-48.2982 74.979,-36.8015 66.9419,-27.3665"/>
<polygon fill="midnightblue" stroke="midnightblue" points="69.6037,-25.0939 60.4546,-19.7511 64.275,-29.6332 69.6037,-25.0939"/>
</g>
<!-- Node5 -->
<g id="node5" class="node"><title>Node5</title>
<polygon fill="none" stroke="#bfbfbf" points="124,-0.5 124,-19.5 168,-19.5 168,-0.5 124,-0.5"/>
<text text-anchor="middle" x="146" y="-7.5" font-family="Helvetica,sans-Serif" font-size="10.00">vector</text>
</g>
<!-- Node3&#45;&gt;Node5 -->
<g id="edge4" class="edge"><title>Node3&#45;&gt;Node5</title>
<path fill="none" stroke="midnightblue" d="M106.761,-56.083C113.537,-48.2982 123.543,-36.8015 131.755,-27.3665"/>
<polygon fill="midnightblue" stroke="midnightblue" points="134.458,-29.592 138.383,-19.7511 129.178,-24.9963 134.458,-29.592"/>
</g>
</g>
</svg>
