<?xml version="1.0" encoding="UTF-8" standalone="no"?>
<!DOCTYPE svg PUBLIC "-//W3C//DTD SVG 1.1//EN"
 "http://www.w3.org/Graphics/SVG/1.1/DTD/svg11.dtd">
<!-- Generated by graphviz version 2.36.0 (20140111.2315)
 -->
<!-- Title: protobuf_io Pages: 1 -->
<svg width="416pt" height="389pt"
 viewBox="0.00 0.00 416.00 389.00" xmlns="http://www.w3.org/2000/svg" xmlns:xlink="http://www.w3.org/1999/xlink">
<g id="graph0" class="graph" transform="scale(1 1) rotate(0) translate(4 385)">
<title>protobuf_io</title>
<!-- Node1 -->
<g id="node1" class="node"><title>Node1</title>
<polygon fill="#bfbfbf" stroke="black" points="0.5,-170.5 0.5,-189.5 65.5,-189.5 65.5,-170.5 0.5,-170.5"/>
<text text-anchor="middle" x="33" y="-177.5" font-family="Helvetica,sans-Serif" font-size="10.00">protobuf_io</text>
</g>
<!-- Node2 -->
<g id="node2" class="node"><title>Node2</title>
<g id="a_node2"><a xlink:href="classorg_1_1libcppa_1_1WarnOrAck.html#ab90e30d2891e4ce6a37c50b2c9e49d4b" target="_top" xlink:title="org::libcppa::WarnOrAck\l::mutable_warn">
<polygon fill="none" stroke="black" points="113,-351 113,-381 237,-381 237,-351 113,-351"/>
<text text-anchor="start" x="121" y="-369" font-family="Helvetica,sans-Serif" font-size="10.00">org::libcppa::WarnOrAck</text>
<text text-anchor="middle" x="175" y="-358" font-family="Helvetica,sans-Serif" font-size="10.00">::mutable_warn</text>
</a>
</g>
</g>
<!-- Node1&#45;&gt;Node2 -->
<g id="edge1" class="edge"><title>Node1&#45;&gt;Node2</title>
<path fill="none" stroke="midnightblue" d="M35.293,-189.508C39.529,-217.007 55.4943,-297.442 102,-341 103.687,-342.58 105.479,-344.061 107.354,-345.449"/>
<polygon fill="midnightblue" stroke="midnightblue" points="105.717,-348.555 116.036,-350.957 109.467,-342.644 105.717,-348.555"/>
</g>
<!-- Node4 -->
<g id="node4" class="node"><title>Node4</title>
<g id="a_node4"><a xlink:href="classorg_1_1libcppa_1_1WarnOrAck.html#a6bb4f027211410b8dd68aad3407586fb" target="_top" xlink:title="org::libcppa::WarnOrAck\l::mutable_ack">
<polygon fill="none" stroke="black" points="113,-302 113,-332 237,-332 237,-302 113,-302"/>
<text text-anchor="start" x="121" y="-320" font-family="Helvetica,sans-Serif" font-size="10.00">org::libcppa::WarnOrAck</text>
<text text-anchor="middle" x="175" y="-309" font-family="Helvetica,sans-Serif" font-size="10.00">::mutable_ack</text>
</a>
</g>
</g>
<!-- Node1&#45;&gt;Node4 -->
<g id="edge3" class="edge"><title>Node1&#45;&gt;Node4</title>
<path fill="none" stroke="midnightblue" d="M37.2584,-189.628C45.015,-211.13 66.6146,-263.405 102,-292 104.071,-293.674 106.262,-295.239 108.54,-296.702"/>
<polygon fill="midnightblue" stroke="midnightblue" points="107.264,-300 117.696,-301.855 110.698,-293.9 107.264,-300"/>
</g>
<!-- Node6 -->
<g id="node6" class="node"><title>Node6</title>
<g id="a_node6"><a xlink:href="namespacepatch.html#a54d2400c78aef13e3748a87cd7c86ede" target="_top" xlink:title="patch::to_string">
<polygon fill="none" stroke="black" points="133,-263.5 133,-282.5 217,-282.5 217,-263.5 133,-263.5"/>
<text text-anchor="middle" x="175" y="-270.5" font-family="Helvetica,sans-Serif" font-size="10.00">patch::to_string</text>
</a>
</g>
</g>
<!-- Node1&#45;&gt;Node6 -->
<g id="edge5" class="edge"><title>Node1&#45;&gt;Node6</title>
<path fill="none" stroke="midnightblue" d="M40.2964,-189.638C51.0459,-205.317 74.4665,-236.274 102,-253 108.403,-256.89 115.581,-260.042 122.859,-262.592"/>
<polygon fill="midnightblue" stroke="midnightblue" points="122.192,-266.052 132.782,-265.709 124.29,-259.373 122.192,-266.052"/>
</g>
<!-- Node7 -->
<g id="node7" class="node"><title>Node7</title>
<g id="a_node7"><a xlink:href="classorg_1_1libcppa_1_1WarnOrAck.html#ac607e8a3448c09e0d96c5930d75c2f73" target="_top" xlink:title="org::libcppa::WarnOrAck\l::has_warn">
<polygon fill="none" stroke="black" points="113,-214 113,-244 237,-244 237,-214 113,-214"/>
<text text-anchor="start" x="121" y="-232" font-family="Helvetica,sans-Serif" font-size="10.00">org::libcppa::WarnOrAck</text>
<text text-anchor="middle" x="175" y="-221" font-family="Helvetica,sans-Serif" font-size="10.00">::has_warn</text>
</a>
</g>
</g>
<!-- Node1&#45;&gt;Node7 -->
<g id="edge6" class="edge"><title>Node1&#45;&gt;Node7</title>
<path fill="none" stroke="midnightblue" d="M61.1222,-189.608C73.5717,-194.009 88.5296,-199.284 102,-204 108.065,-206.123 114.42,-208.341 120.736,-210.54"/>
<polygon fill="midnightblue" stroke="midnightblue" points="119.989,-213.985 130.584,-213.965 122.288,-207.374 119.989,-213.985"/>
</g>
<!-- Node8 -->
<g id="node8" class="node"><title>Node8</title>
<g id="a_node8"><a xlink:href="classorg_1_1libcppa_1_1WarnOrAck.html#ab669badf2c2a7b504ffde7d37c2b1a9f" target="_top" xlink:title="org::libcppa::WarnOrAck\l::warn">
<polygon fill="none" stroke="black" points="113,-165 113,-195 237,-195 237,-165 113,-165"/>
<text text-anchor="start" x="121" y="-183" font-family="Helvetica,sans-Serif" font-size="10.00">org::libcppa::WarnOrAck</text>
<text text-anchor="middle" x="175" y="-172" font-family="Helvetica,sans-Serif" font-size="10.00">::warn</text>
</a>
</g>
</g>
<!-- Node1&#45;&gt;Node8 -->
<g id="edge7" class="edge"><title>Node1&#45;&gt;Node8</title>
<path fill="none" stroke="midnightblue" d="M65.7682,-180C76.781,-180 89.615,-180 102.516,-180"/>
<polygon fill="midnightblue" stroke="midnightblue" points="102.844,-183.5 112.844,-180 102.844,-176.5 102.844,-183.5"/>
</g>
<!-- Node9 -->
<g id="node9" class="node"><title>Node9</title>
<g id="a_node9"><a xlink:href="classorg_1_1libcppa_1_1warning.html#adf0bdf099abd08b438f55cbad69f9d2e" target="_top" xlink:title="org::libcppa::warning::id">
<polygon fill="none" stroke="black" points="115,-126.5 115,-145.5 235,-145.5 235,-126.5 115,-126.5"/>
<text text-anchor="middle" x="175" y="-133.5" font-family="Helvetica,sans-Serif" font-size="10.00">org::libcppa::warning::id</text>
</a>
</g>
</g>
<!-- Node1&#45;&gt;Node9 -->
<g id="edge8" class="edge"><title>Node1&#45;&gt;Node9</title>
<path fill="none" stroke="midnightblue" d="M59.6927,-170.465C72.3613,-165.884 87.9096,-160.438 102,-156 110.271,-153.395 119.132,-150.787 127.71,-148.355"/>
<polygon fill="midnightblue" stroke="midnightblue" points="128.91,-151.654 137.599,-145.591 127.026,-144.912 128.91,-151.654"/>
</g>
<!-- Node10 -->
<g id="node10" class="node"><title>Node10</title>
<g id="a_node10"><a xlink:href="classorg_1_1libcppa_1_1WarnOrAck.html#a8eeec6df03e93704ac596a78d269eb3c" target="_top" xlink:title="org::libcppa::WarnOrAck\l::has_ack">
<polygon fill="none" stroke="black" points="113,-77 113,-107 237,-107 237,-77 113,-77"/>
<text text-anchor="start" x="121" y="-95" font-family="Helvetica,sans-Serif" font-size="10.00">org::libcppa::WarnOrAck</text>
<text text-anchor="middle" x="175" y="-84" font-family="Helvetica,sans-Serif" font-size="10.00">::has_ack</text>
</a>
</g>
</g>
<!-- Node1&#45;&gt;Node10 -->
<g id="edge9" class="edge"><title>Node1&#45;&gt;Node10</title>
<path fill="none" stroke="midnightblue" d="M42.2515,-170.125C54.1588,-156.444 77.4404,-131.746 102,-117 105.412,-114.951 109.016,-113.039 112.721,-111.259"/>
<polygon fill="midnightblue" stroke="midnightblue" points="114.36,-114.361 122.081,-107.106 111.521,-107.962 114.36,-114.361"/>
</g>
<!-- Node11 -->
<g id="node11" class="node"><title>Node11</title>
<g id="a_node11"><a xlink:href="classorg_1_1libcppa_1_1WarnOrAck.html#adb01773cc3a768704172a72677e4641b" target="_top" xlink:title="org::libcppa::WarnOrAck::ack">
<polygon fill="none" stroke="black" points="102,-38.5 102,-57.5 248,-57.5 248,-38.5 102,-38.5"/>
<text text-anchor="middle" x="175" y="-45.5" font-family="Helvetica,sans-Serif" font-size="10.00">org::libcppa::WarnOrAck::ack</text>
</a>
</g>
</g>
<!-- Node1&#45;&gt;Node11 -->
<g id="edge10" class="edge"><title>Node1&#45;&gt;Node11</title>
<path fill="none" stroke="midnightblue" d="M37.1311,-170.209C44.6271,-148.374 65.7281,-95.4623 102,-68 105.168,-65.6017 108.608,-63.4911 112.21,-61.6335"/>
<polygon fill="midnightblue" stroke="midnightblue" points="113.728,-64.7886 121.434,-57.5177 110.876,-58.3961 113.728,-64.7886"/>
</g>
<!-- Node12 -->
<g id="node12" class="node"><title>Node12</title>
<g id="a_node12"><a xlink:href="classorg_1_1libcppa_1_1ack.html#ae85c4ba475311e2a7a6bda892fa8fed4" target="_top" xlink:title="org::libcppa::ack::id">
<polygon fill="none" stroke="black" points="124,-0.5 124,-19.5 226,-19.5 226,-0.5 124,-0.5"/>
<text text-anchor="middle" x="175" y="-7.5" font-family="Helvetica,sans-Serif" font-size="10.00">org::libcppa::ack::id</text>
</a>
</g>
</g>
<!-- Node1&#45;&gt;Node12 -->
<g id="edge11" class="edge"><title>Node1&#45;&gt;Node12</title>
<path fill="none" stroke="midnightblue" d="M35.4629,-170.142C39.9983,-143.179 56.3706,-67.655 102,-29 105.748,-25.8246 109.97,-23.1732 114.443,-20.9603"/>
<polygon fill="midnightblue" stroke="midnightblue" points="116.026,-24.0919 123.903,-17.0063 113.327,-17.6333 116.026,-24.0919"/>
</g>
<!-- Node3 -->
<g id="node3" class="node"><title>Node3</title>
<g id="a_node3"><a xlink:href="classorg_1_1libcppa_1_1WarnOrAck.html#aacbf55d28e497cd18168d32aba6b999c" target="_top" xlink:title="org::libcppa::WarnOrAck\l::set_has_warn">
<polygon fill="none" stroke="black" points="284,-351 284,-381 408,-381 408,-351 284,-351"/>
<text text-anchor="start" x="292" y="-369" font-family="Helvetica,sans-Serif" font-size="10.00">org::libcppa::WarnOrAck</text>
<text text-anchor="middle" x="346" y="-358" font-family="Helvetica,sans-Serif" font-size="10.00">::set_has_warn</text>
</a>
</g>
</g>
<!-- Node2&#45;&gt;Node3 -->
<g id="edge2" class="edge"><title>Node2&#45;&gt;Node3</title>
<path fill="none" stroke="midnightblue" d="M237.013,-366C248.905,-366 261.472,-366 273.663,-366"/>
<polygon fill="midnightblue" stroke="midnightblue" points="273.793,-369.5 283.793,-366 273.793,-362.5 273.793,-369.5"/>
</g>
<!-- Node5 -->
<g id="node5" class="node"><title>Node5</title>
<g id="a_node5"><a xlink:href="classorg_1_1libcppa_1_1WarnOrAck.html#a04e2259945cc6e97b6a600827f064f41" target="_top" xlink:title="org::libcppa::WarnOrAck\l::set_has_ack">
<polygon fill="none" stroke="black" points="284,-302 284,-332 408,-332 408,-302 284,-302"/>
<text text-anchor="start" x="292" y="-320" font-family="Helvetica,sans-Serif" font-size="10.00">org::libcppa::WarnOrAck</text>
<text text-anchor="middle" x="346" y="-309" font-family="Helvetica,sans-Serif" font-size="10.00">::set_has_ack</text>
</a>
</g>
</g>
<!-- Node4&#45;&gt;Node5 -->
<g id="edge4" class="edge"><title>Node4&#45;&gt;Node5</title>
<path fill="none" stroke="midnightblue" d="M237.013,-317C248.905,-317 261.472,-317 273.663,-317"/>
<polygon fill="midnightblue" stroke="midnightblue" points="273.793,-320.5 283.793,-317 273.793,-313.5 273.793,-320.5"/>
</g>
</g>
</svg>
