<?xml version="1.0" encoding="UTF-8" standalone="no"?>
<!DOCTYPE svg PUBLIC "-//W3C//DTD SVG 1.1//EN"
 "http://www.w3.org/Graphics/SVG/1.1/DTD/svg11.dtd">
<!-- Generated by graphviz version 2.36.0 (20140111.2315)
 -->
<!-- Title: main Pages: 1 -->
<!--zoomable 389 -->
<svg id="main" version="1.1" xmlns="http://www.w3.org/2000/svg" xmlns:xlink="http://www.w3.org/1999/xlink" xml:space="preserve" onload="init(evt)">
<style type="text/css"><![CDATA[
.edge:hover path { stroke: red; }
.edge:hover polygon { stroke: red; fill: red; }
]]></style>
<script type="text/javascript"><![CDATA[
var edges = document.getElementsByTagName('g');
if (edges && edges.length) {
  for (var i=0;i<edges.length;i++) {
    if (edges[i].id.substr(0,4)=='edge') {
      edges[i].setAttribute('class','edge');
    }
  }
}
]]></script>
        <defs>
                <circle id="rim" cx="0" cy="0" r="7"/>
                <circle id="rim2" cx="0" cy="0" r="3.5"/>
                <g id="zoomPlus">
                        <use xlink:href="#rim" fill="#404040">
                                <set attributeName="fill" to="#808080" begin="zoomplus.mouseover" end="zoomplus.mouseout"/>
                        </use>
                        <path d="M-4,0h8M0,-4v8" fill="none" stroke="white" stroke-width="1.5" pointer-events="none"/>
                </g>
                <g id="zoomMin">
                        <use xlink:href="#rim" fill="#404040">
                                <set attributeName="fill" to="#808080" begin="zoomminus.mouseover" end="zoomminus.mouseout"/>
                        </use>
                        <path d="M-4,0h8" fill="none" stroke="white" stroke-width="1.5" pointer-events="none"/>
                </g>
                <g id="dirArrow">
                        <path fill="none" stroke="white" stroke-width="1.5" d="M0,-3.0v7 M-2.5,-0.5L0,-3.0L2.5,-0.5"/>
                </g>
               <g id="resetDef">
                       <use xlink:href="#rim2" fill="#404040">
                               <set attributeName="fill" to="#808080" begin="reset.mouseover" end="reset.mouseout"/>
                       </use>
               </g>
        </defs>

<script type="text/javascript">
var viewWidth = 606;
var viewHeight = 389;
var sectionId = 'dynsection-3';
</script>
<script xlink:href="svgpan.js"/>
<svg id="graph" class="graph">
<g id="viewport">
<title>main</title>
<!-- Node1 -->
<g id="node1" class="node"><title>Node1</title>
<polygon fill="#bfbfbf" stroke="black" points="0,-129.5 0,-148.5 38,-148.5 38,-129.5 0,-129.5"/>
<text text-anchor="middle" x="19" y="-136.5" font-family="Helvetica,sans-Serif" font-size="10.00">main</text>
</g>
<!-- Node2 -->
<g id="node2" class="node"><title>Node2</title>
<g id="a_node2"><a xlink:href="protobuf__broker_8cpp.html#acd05a3bbae0986ab85bad4e144140b95" target="_top" xlink:title="as_u16">
<polygon fill="none" stroke="black" points="87,-224.5 87,-243.5 135,-243.5 135,-224.5 87,-224.5"/>
<text text-anchor="middle" x="111" y="-231.5" font-family="Helvetica,sans-Serif" font-size="10.00">as_u16</text>
</a>
</g>
</g>
<!-- Node1&#45;&gt;Node2 -->
<g id="edge1" class="edge"><title>Node1&#45;&gt;Node2</title>
<path fill="none" stroke="midnightblue" d="M25.0953,-148.997C33.5016,-164.7 51.5965,-195.377 74,-215 75.6846,-216.475 77.5037,-217.877 79.3982,-219.2"/>
<polygon fill="midnightblue" stroke="midnightblue" points="77.6507,-222.234 88.0037,-224.484 81.3139,-216.269 77.6507,-222.234"/>
</g>
<!-- Node3 -->
<g id="node3" class="node"><title>Node3</title>
<g id="a_node3"><a xlink:href="protobuf__broker_8cpp.html#a88e53fa7d0a804d3e9fa660ba6c50e27" target="_top" xlink:title="ackMessage">
<polygon fill="none" stroke="black" points="75,-186.5 75,-205.5 147,-205.5 147,-186.5 75,-186.5"/>
<text text-anchor="middle" x="111" y="-193.5" font-family="Helvetica,sans-Serif" font-size="10.00">ackMessage</text>
</a>
</g>
</g>
<!-- Node1&#45;&gt;Node3 -->
<g id="edge2" class="edge"><title>Node1&#45;&gt;Node3</title>
<path fill="none" stroke="midnightblue" d="M35.2673,-148.669C49.1858,-157.484 69.9732,-170.65 86.0934,-180.859"/>
<polygon fill="midnightblue" stroke="midnightblue" points="84.6373,-184.08 94.9582,-186.474 88.3827,-178.166 84.6373,-184.08"/>
</g>
<!-- Node4 -->
<g id="node4" class="node"><title>Node4</title>
<g id="a_node4"><a xlink:href="protobuf__broker_8cpp.html#ab3afbb104c5cd2d77878dca0def53691" target="_top" xlink:title="server">
<polygon fill="none" stroke="black" points="89,-110.5 89,-129.5 133,-129.5 133,-110.5 89,-110.5"/>
<text text-anchor="middle" x="111" y="-117.5" font-family="Helvetica,sans-Serif" font-size="10.00">server</text>
</a>
</g>
</g>
<!-- Node1&#45;&gt;Node4 -->
<g id="edge3" class="edge"><title>Node1&#45;&gt;Node4</title>
<path fill="none" stroke="midnightblue" d="M38.2128,-135.155C49.919,-132.684 65.4275,-129.41 79.0339,-126.537"/>
<polygon fill="midnightblue" stroke="midnightblue" points="79.9122,-129.929 88.9736,-124.439 78.4662,-123.08 79.9122,-129.929"/>
</g>
<!-- Node5 -->
<g id="node5" class="node"><title>Node5</title>
<g id="a_node5"><a xlink:href="protobuf__broker_8cpp.html#ae10b5d14d3ad78f811d25de1d8429746" target="_top" xlink:title="protobuf_io">
<polygon fill="none" stroke="black" points="187.5,-148.5 187.5,-167.5 252.5,-167.5 252.5,-148.5 187.5,-148.5"/>
<text text-anchor="middle" x="220" y="-155.5" font-family="Helvetica,sans-Serif" font-size="10.00">protobuf_io</text>
</a>
</g>
</g>
<!-- Node1&#45;&gt;Node5 -->
<g id="edge21" class="edge"><title>Node1&#45;&gt;Node5</title>
<path fill="none" stroke="midnightblue" d="M38.0109,-140.72C69.2116,-143.699 134.092,-149.893 177.09,-153.999"/>
<polygon fill="midnightblue" stroke="midnightblue" points="176.961,-157.502 187.249,-154.968 177.627,-150.534 176.961,-157.502"/>
</g>
<!-- Node17 -->
<g id="node17" class="node"><title>Node17</title>
<g id="a_node17"><a xlink:href="protobuf__broker_8cpp.html#a1d613e7d0e630b09e38349b345558eb8" target="_top" xlink:title="print_on_exit">
<polygon fill="none" stroke="black" points="184,-72.5 184,-91.5 256,-91.5 256,-72.5 184,-72.5"/>
<text text-anchor="middle" x="220" y="-79.5" font-family="Helvetica,sans-Serif" font-size="10.00">print_on_exit</text>
</a>
</g>
</g>
<!-- Node1&#45;&gt;Node17 -->
<g id="edge18" class="edge"><title>Node1&#45;&gt;Node17</title>
<path fill="none" stroke="midnightblue" d="M30.2626,-129.45C40.5102,-120.512 57.1247,-107.579 74,-101 105.812,-88.5973 144.216,-83.9822 173.507,-82.3953"/>
<polygon fill="midnightblue" stroke="midnightblue" points="174.021,-85.8761 183.857,-81.9389 173.713,-78.8829 174.021,-85.8761"/>
</g>
<!-- Node18 -->
<g id="node18" class="node"><title>Node18</title>
<g id="a_node18"><a xlink:href="protobuf__broker_8cpp.html#a5aa06bb1457d01d2c75e504710becca7" target="_top" xlink:title="sendWarning">
<polygon fill="none" stroke="black" points="74,-34.5 74,-53.5 148,-53.5 148,-34.5 74,-34.5"/>
<text text-anchor="middle" x="111" y="-41.5" font-family="Helvetica,sans-Serif" font-size="10.00">sendWarning</text>
</a>
</g>
</g>
<!-- Node1&#45;&gt;Node18 -->
<g id="edge19" class="edge"><title>Node1&#45;&gt;Node18</title>
<path fill="none" stroke="midnightblue" d="M25.7788,-129.47C34.8318,-115.044 53.4596,-87.3004 74,-68 77.2024,-64.9909 80.8211,-62.1039 84.4986,-59.4401"/>
<polygon fill="midnightblue" stroke="midnightblue" points="86.6957,-62.1795 93.0179,-53.6778 82.7738,-56.3813 86.6957,-62.1795"/>
</g>
<!-- Node4&#45;&gt;Node5 -->
<g id="edge4" class="edge"><title>Node4&#45;&gt;Node5</title>
<path fill="none" stroke="midnightblue" d="M133.14,-127.508C147.161,-132.487 165.933,-139.154 182.347,-144.983"/>
<polygon fill="midnightblue" stroke="midnightblue" points="181.605,-148.434 192.2,-148.482 183.948,-141.837 181.605,-148.434"/>
</g>
<!-- Node10 -->
<g id="node10" class="node"><title>Node10</title>
<g id="a_node10"><a xlink:href="namespacepatch.html#a54d2400c78aef13e3748a87cd7c86ede" target="_top" xlink:title="patch::to_string">
<polygon fill="none" stroke="black" points="323,-0.5 323,-19.5 407,-19.5 407,-0.5 323,-0.5"/>
<text text-anchor="middle" x="365" y="-7.5" font-family="Helvetica,sans-Serif" font-size="10.00">patch::to_string</text>
</a>
</g>
</g>
<!-- Node4&#45;&gt;Node10 -->
<g id="edge17" class="edge"><title>Node4&#45;&gt;Node10</title>
<path fill="none" stroke="midnightblue" d="M133.017,-122.961C163.173,-126.041 219.139,-127.269 256,-101 285.135,-80.2365 264.239,-51.568 292,-29 298.136,-24.0115 305.451,-20.3222 313.031,-17.596"/>
<polygon fill="midnightblue" stroke="midnightblue" points="314.169,-20.9081 322.705,-14.6326 312.118,-14.2151 314.169,-20.9081"/>
</g>
<!-- Node4&#45;&gt;Node17 -->
<g id="edge16" class="edge"><title>Node4&#45;&gt;Node17</title>
<path fill="none" stroke="midnightblue" d="M133.14,-112.492C147.161,-107.513 165.933,-100.846 182.347,-95.0168"/>
<polygon fill="midnightblue" stroke="midnightblue" points="183.948,-98.1626 192.2,-91.5178 181.605,-91.5663 183.948,-98.1626"/>
</g>
<!-- Node6 -->
<g id="node6" class="node"><title>Node6</title>
<g id="a_node6"><a xlink:href="classorg_1_1libcppa_1_1WarnOrAck.html#ab90e30d2891e4ce6a37c50b2c9e49d4b" target="_top" xlink:title="org::libcppa::WarnOrAck\l::mutable_warn">
<polygon fill="none" stroke="black" points="303,-312 303,-342 427,-342 427,-312 303,-312"/>
<text text-anchor="start" x="311" y="-330" font-family="Helvetica,sans-Serif" font-size="10.00">org::libcppa::WarnOrAck</text>
<text text-anchor="middle" x="365" y="-319" font-family="Helvetica,sans-Serif" font-size="10.00">::mutable_warn</text>
</a>
</g>
</g>
<!-- Node5&#45;&gt;Node6 -->
<g id="edge5" class="edge"><title>Node5&#45;&gt;Node6</title>
<path fill="none" stroke="midnightblue" d="M223.055,-167.609C229.023,-193.228 248.754,-263.805 292,-302 293.909,-303.686 295.938,-305.26 298.059,-306.729"/>
<polygon fill="midnightblue" stroke="midnightblue" points="296.256,-309.729 306.628,-311.891 299.868,-303.733 296.256,-309.729"/>
</g>
<!-- Node8 -->
<g id="node8" class="node"><title>Node8</title>
<g id="a_node8"><a xlink:href="classorg_1_1libcppa_1_1WarnOrAck.html#a6bb4f027211410b8dd68aad3407586fb" target="_top" xlink:title="org::libcppa::WarnOrAck\l::mutable_ack">
<polygon fill="none" stroke="black" points="303,-263 303,-293 427,-293 427,-263 303,-263"/>
<text text-anchor="start" x="311" y="-281" font-family="Helvetica,sans-Serif" font-size="10.00">org::libcppa::WarnOrAck</text>
<text text-anchor="middle" x="365" y="-270" font-family="Helvetica,sans-Serif" font-size="10.00">::mutable_ack</text>
</a>
</g>
</g>
<!-- Node5&#45;&gt;Node8 -->
<g id="edge7" class="edge"><title>Node5&#45;&gt;Node8</title>
<path fill="none" stroke="midnightblue" d="M225.653,-167.573C235.361,-186.582 259.594,-229.294 292,-253 294.616,-254.914 297.392,-256.691 300.271,-258.339"/>
<polygon fill="midnightblue" stroke="midnightblue" points="298.673,-261.453 309.168,-262.906 301.87,-255.225 298.673,-261.453"/>
</g>
<!-- Node5&#45;&gt;Node10 -->
<g id="edge9" class="edge"><title>Node5&#45;&gt;Node10</title>
<path fill="none" stroke="midnightblue" d="M239.546,-148.427C245.477,-144.612 251.63,-139.748 256,-134 285.856,-94.7268 255.878,-62.6005 292,-29 297.989,-23.4287 305.416,-19.4508 313.205,-16.6188"/>
<polygon fill="midnightblue" stroke="midnightblue" points="314.259,-19.9566 322.811,-13.7029 312.226,-13.2583 314.259,-19.9566"/>
</g>
<!-- Node11 -->
<g id="node11" class="node"><title>Node11</title>
<g id="a_node11"><a xlink:href="classorg_1_1libcppa_1_1WarnOrAck.html#ac607e8a3448c09e0d96c5930d75c2f73" target="_top" xlink:title="org::libcppa::WarnOrAck\l::has_warn">
<polygon fill="none" stroke="black" points="303,-214 303,-244 427,-244 427,-214 303,-214"/>
<text text-anchor="start" x="311" y="-232" font-family="Helvetica,sans-Serif" font-size="10.00">org::libcppa::WarnOrAck</text>
<text text-anchor="middle" x="365" y="-221" font-family="Helvetica,sans-Serif" font-size="10.00">::has_warn</text>
</a>
</g>
</g>
<!-- Node5&#45;&gt;Node11 -->
<g id="edge10" class="edge"><title>Node5&#45;&gt;Node11</title>
<path fill="none" stroke="midnightblue" d="M233.786,-167.64C247.588,-177.714 270.491,-193.489 292,-204 296.376,-206.139 300.983,-208.179 305.663,-210.106"/>
<polygon fill="midnightblue" stroke="midnightblue" points="304.735,-213.501 315.323,-213.894 307.291,-206.984 304.735,-213.501"/>
</g>
<!-- Node12 -->
<g id="node12" class="node"><title>Node12</title>
<g id="a_node12"><a xlink:href="classorg_1_1libcppa_1_1WarnOrAck.html#ab669badf2c2a7b504ffde7d37c2b1a9f" target="_top" xlink:title="org::libcppa::WarnOrAck\l::warn">
<polygon fill="none" stroke="black" points="303,-165 303,-195 427,-195 427,-165 303,-165"/>
<text text-anchor="start" x="311" y="-183" font-family="Helvetica,sans-Serif" font-size="10.00">org::libcppa::WarnOrAck</text>
<text text-anchor="middle" x="365" y="-172" font-family="Helvetica,sans-Serif" font-size="10.00">::warn</text>
</a>
</g>
</g>
<!-- Node5&#45;&gt;Node12 -->
<g id="edge11" class="edge"><title>Node5&#45;&gt;Node12</title>
<path fill="none" stroke="midnightblue" d="M252.736,-162.883C264.588,-164.706 278.578,-166.858 292.564,-169.01"/>
<polygon fill="midnightblue" stroke="midnightblue" points="292.301,-172.51 302.717,-170.572 293.365,-165.592 292.301,-172.51"/>
</g>
<!-- Node13 -->
<g id="node13" class="node"><title>Node13</title>
<g id="a_node13"><a xlink:href="classorg_1_1libcppa_1_1warning.html#adf0bdf099abd08b438f55cbad69f9d2e" target="_top" xlink:title="org::libcppa::warning::id">
<polygon fill="none" stroke="black" points="305,-126.5 305,-145.5 425,-145.5 425,-126.5 305,-126.5"/>
<text text-anchor="middle" x="365" y="-133.5" font-family="Helvetica,sans-Serif" font-size="10.00">org::libcppa::warning::id</text>
</a>
</g>
</g>
<!-- Node5&#45;&gt;Node13 -->
<g id="edge12" class="edge"><title>Node5&#45;&gt;Node13</title>
<path fill="none" stroke="midnightblue" d="M252.736,-153.117C265.171,-151.204 279.959,-148.929 294.628,-146.673"/>
<polygon fill="midnightblue" stroke="midnightblue" points="295.382,-150.098 304.733,-145.118 294.317,-143.179 295.382,-150.098"/>
</g>
<!-- Node14 -->
<g id="node14" class="node"><title>Node14</title>
<g id="a_node14"><a xlink:href="classorg_1_1libcppa_1_1WarnOrAck.html#a8eeec6df03e93704ac596a78d269eb3c" target="_top" xlink:title="org::libcppa::WarnOrAck\l::has_ack">
<polygon fill="none" stroke="black" points="303,-77 303,-107 427,-107 427,-77 303,-77"/>
<text text-anchor="start" x="311" y="-95" font-family="Helvetica,sans-Serif" font-size="10.00">org::libcppa::WarnOrAck</text>
<text text-anchor="middle" x="365" y="-84" font-family="Helvetica,sans-Serif" font-size="10.00">::has_ack</text>
</a>
</g>
</g>
<!-- Node5&#45;&gt;Node14 -->
<g id="edge13" class="edge"><title>Node5&#45;&gt;Node14</title>
<path fill="none" stroke="midnightblue" d="M235.794,-148.347C249.859,-139.44 271.807,-126.235 292,-117 296.889,-114.764 302.039,-112.609 307.244,-110.564"/>
<polygon fill="midnightblue" stroke="midnightblue" points="308.518,-113.824 316.63,-107.01 306.039,-107.278 308.518,-113.824"/>
</g>
<!-- Node15 -->
<g id="node15" class="node"><title>Node15</title>
<g id="a_node15"><a xlink:href="classorg_1_1libcppa_1_1WarnOrAck.html#adb01773cc3a768704172a72677e4641b" target="_top" xlink:title="org::libcppa::WarnOrAck::ack">
<polygon fill="none" stroke="black" points="292,-38.5 292,-57.5 438,-57.5 438,-38.5 292,-38.5"/>
<text text-anchor="middle" x="365" y="-45.5" font-family="Helvetica,sans-Serif" font-size="10.00">org::libcppa::WarnOrAck::ack</text>
</a>
</g>
</g>
<!-- Node5&#45;&gt;Node15 -->
<g id="edge14" class="edge"><title>Node5&#45;&gt;Node15</title>
<path fill="none" stroke="midnightblue" d="M238.31,-148.466C244.405,-144.539 250.981,-139.593 256,-134 278.578,-108.841 265.459,-87.9355 292,-67 294.284,-65.1985 296.722,-63.567 299.271,-62.0893"/>
<polygon fill="midnightblue" stroke="midnightblue" points="300.876,-65.2003 308.294,-57.6354 297.777,-58.9234 300.876,-65.2003"/>
</g>
<!-- Node16 -->
<g id="node16" class="node"><title>Node16</title>
<g id="a_node16"><a xlink:href="classorg_1_1libcppa_1_1ack.html#ae85c4ba475311e2a7a6bda892fa8fed4" target="_top" xlink:title="org::libcppa::ack::id">
<polygon fill="none" stroke="black" points="314,-361.5 314,-380.5 416,-380.5 416,-361.5 314,-361.5"/>
<text text-anchor="middle" x="365" y="-368.5" font-family="Helvetica,sans-Serif" font-size="10.00">org::libcppa::ack::id</text>
</a>
</g>
</g>
<!-- Node5&#45;&gt;Node16 -->
<g id="edge15" class="edge"><title>Node5&#45;&gt;Node16</title>
<path fill="none" stroke="midnightblue" d="M221.569,-167.699C223.951,-199.144 235.817,-299.222 292,-351 295.779,-354.482 300.112,-357.366 304.737,-359.753"/>
<polygon fill="midnightblue" stroke="midnightblue" points="303.358,-362.969 313.923,-363.757 306.155,-356.553 303.358,-362.969"/>
</g>
<!-- Node7 -->
<g id="node7" class="node"><title>Node7</title>
<g id="a_node7"><a xlink:href="classorg_1_1libcppa_1_1WarnOrAck.html#aacbf55d28e497cd18168d32aba6b999c" target="_top" xlink:title="org::libcppa::WarnOrAck\l::set_has_warn">
<polygon fill="none" stroke="black" points="474,-312 474,-342 598,-342 598,-312 474,-312"/>
<text text-anchor="start" x="482" y="-330" font-family="Helvetica,sans-Serif" font-size="10.00">org::libcppa::WarnOrAck</text>
<text text-anchor="middle" x="536" y="-319" font-family="Helvetica,sans-Serif" font-size="10.00">::set_has_warn</text>
</a>
</g>
</g>
<!-- Node6&#45;&gt;Node7 -->
<g id="edge6" class="edge"><title>Node6&#45;&gt;Node7</title>
<path fill="none" stroke="midnightblue" d="M427.013,-327C438.905,-327 451.472,-327 463.663,-327"/>
<polygon fill="midnightblue" stroke="midnightblue" points="463.793,-330.5 473.793,-327 463.793,-323.5 463.793,-330.5"/>
</g>
<!-- Node9 -->
<g id="node9" class="node"><title>Node9</title>
<g id="a_node9"><a xlink:href="classorg_1_1libcppa_1_1WarnOrAck.html#a04e2259945cc6e97b6a600827f064f41" target="_top" xlink:title="org::libcppa::WarnOrAck\l::set_has_ack">
<polygon fill="none" stroke="black" points="474,-263 474,-293 598,-293 598,-263 474,-263"/>
<text text-anchor="start" x="482" y="-281" font-family="Helvetica,sans-Serif" font-size="10.00">org::libcppa::WarnOrAck</text>
<text text-anchor="middle" x="536" y="-270" font-family="Helvetica,sans-Serif" font-size="10.00">::set_has_ack</text>
</a>
</g>
</g>
<!-- Node8&#45;&gt;Node9 -->
<g id="edge8" class="edge"><title>Node8&#45;&gt;Node9</title>
<path fill="none" stroke="midnightblue" d="M427.013,-278C438.905,-278 451.472,-278 463.663,-278"/>
<polygon fill="midnightblue" stroke="midnightblue" points="463.793,-281.5 473.793,-278 463.793,-274.5 463.793,-281.5"/>
</g>
<!-- Node19 -->
<g id="node19" class="node"><title>Node19</title>
<g id="a_node19"><a xlink:href="simple__broker_8cpp.html#a64a252d20d43c09d3144b9b4713481e8" target="_top" xlink:title="pong">
<polygon fill="none" stroke="black" points="201,-34.5 201,-53.5 239,-53.5 239,-34.5 201,-34.5"/>
<text text-anchor="middle" x="220" y="-41.5" font-family="Helvetica,sans-Serif" font-size="10.00">pong</text>
</a>
</g>
</g>
<!-- Node18&#45;&gt;Node19 -->
<g id="edge20" class="edge"><title>Node18&#45;&gt;Node19</title>
<path fill="none" stroke="midnightblue" d="M148.225,-44C162.056,-44 177.612,-44 190.611,-44"/>
<polygon fill="midnightblue" stroke="midnightblue" points="190.834,-47.5001 200.834,-44 190.834,-40.5001 190.834,-47.5001"/>
</g>
</g>
</svg>
        <g id="navigator" transform="translate(0 0)" fill="#404254">
                <rect fill="#f2f5e9" fill-opacity="0.5" stroke="#606060" stroke-width=".5" x="0" y="0" width="60" height="60"/>
                <use id="zoomplus" xlink:href="#zoomPlus" x="17" y="9" onmousedown="handleZoom(evt,'in')"/>
                <use id="zoomminus" xlink:href="#zoomMin" x="42" y="9" onmousedown="handleZoom(evt,'out')"/>
                <use id="reset" xlink:href="#resetDef" x="30" y="36" onmousedown="handleReset()"/>
                <g id="arrowUp" xlink:href="#dirArrow" transform="translate(30 24)" onmousedown="handlePan(0,-1)">
                  <use xlink:href="#rim" fill="#404040">
                        <set attributeName="fill" to="#808080" begin="arrowUp.mouseover" end="arrowUp.mouseout"/>
                  </use>
                  <path fill="none" stroke="white" stroke-width="1.5" d="M0,-3.0v7 M-2.5,-0.5L0,-3.0L2.5,-0.5"/>
                </g>
                <g id="arrowRight" xlink:href="#dirArrow" transform="rotate(90) translate(36 -43)" onmousedown="handlePan(1,0)">
                  <use xlink:href="#rim" fill="#404040">
                        <set attributeName="fill" to="#808080" begin="arrowRight.mouseover" end="arrowRight.mouseout"/>
                  </use>
                  <path fill="none" stroke="white" stroke-width="1.5" d="M0,-3.0v7 M-2.5,-0.5L0,-3.0L2.5,-0.5"/>
                </g>
                <g id="arrowDown" xlink:href="#dirArrow" transform="rotate(180) translate(-30 -48)" onmousedown="handlePan(0,1)">
                  <use xlink:href="#rim" fill="#404040">
                        <set attributeName="fill" to="#808080" begin="arrowDown.mouseover" end="arrowDown.mouseout"/>
                  </use>
                  <path fill="none" stroke="white" stroke-width="1.5" d="M0,-3.0v7 M-2.5,-0.5L0,-3.0L2.5,-0.5"/>
                </g>
                <g id="arrowLeft" xlink:href="#dirArrow" transform="rotate(270) translate(-36 17)" onmousedown="handlePan(-1,0)">
                  <use xlink:href="#rim" fill="#404040">
                        <set attributeName="fill" to="#808080" begin="arrowLeft.mouseover" end="arrowLeft.mouseout"/>
                  </use>
                  <path fill="none" stroke="white" stroke-width="1.5" d="M0,-3.0v7 M-2.5,-0.5L0,-3.0L2.5,-0.5"/>
                </g>
        </g>
        <svg viewBox="0 0 15 15" width="100%" height="30px" preserveAspectRatio="xMaxYMin meet">
         <g id="arrow_out" transform="scale(0.3 0.3)">
          <a xlink:href="protobuf__broker_8cpp_a3c04138a5bfe5d72780bb7e82a18e627_cgraph_org.svg" target="_base">
           <rect id="button" ry="5" rx="5" y="6" x="6" height="38" width="38"
                fill="#f2f5e9" fill-opacity="0.5" stroke="#606060" stroke-width="1.0"/>
           <path id="arrow"
             d="M 11.500037,31.436501 C 11.940474,20.09759 22.043105,11.32322 32.158766,21.979434 L 37.068811,17.246167 C 37.068811,17.246167 37.088388,32 37.088388,32 L 22.160133,31.978069 C 22.160133,31.978069 26.997745,27.140456 26.997745,27.140456 C 18.528582,18.264221 13.291696,25.230495 11.500037,31.436501 z"
             style="fill:#404040;"/>
          </a>
         </g>
        </svg>
</svg>
