<?xml version="1.0" encoding="UTF-8" standalone="no"?>
<!DOCTYPE svg PUBLIC "-//W3C//DTD SVG 1.1//EN"
 "http://www.w3.org/Graphics/SVG/1.1/DTD/svg11.dtd">
<!-- Generated by graphviz version 2.36.0 (20140111.2315)
 -->
<!-- Title: server Pages: 1 -->
<!--zoomable 389 -->
<svg id="main" version="1.1" xmlns="http://www.w3.org/2000/svg" xmlns:xlink="http://www.w3.org/1999/xlink" xml:space="preserve" onload="init(evt)">
<style type="text/css"><![CDATA[
.edge:hover path { stroke: red; }
.edge:hover polygon { stroke: red; fill: red; }
]]></style>
<script type="text/javascript"><![CDATA[
var edges = document.getElementsByTagName('g');
if (edges && edges.length) {
  for (var i=0;i<edges.length;i++) {
    if (edges[i].id.substr(0,4)=='edge') {
      edges[i].setAttribute('class','edge');
    }
  }
}
]]></script>
        <defs>
                <circle id="rim" cx="0" cy="0" r="7"/>
                <circle id="rim2" cx="0" cy="0" r="3.5"/>
                <g id="zoomPlus">
                        <use xlink:href="#rim" fill="#404040">
                                <set attributeName="fill" to="#808080" begin="zoomplus.mouseover" end="zoomplus.mouseout"/>
                        </use>
                        <path d="M-4,0h8M0,-4v8" fill="none" stroke="white" stroke-width="1.5" pointer-events="none"/>
                </g>
                <g id="zoomMin">
                        <use xlink:href="#rim" fill="#404040">
                                <set attributeName="fill" to="#808080" begin="zoomminus.mouseover" end="zoomminus.mouseout"/>
                        </use>
                        <path d="M-4,0h8" fill="none" stroke="white" stroke-width="1.5" pointer-events="none"/>
                </g>
                <g id="dirArrow">
                        <path fill="none" stroke="white" stroke-width="1.5" d="M0,-3.0v7 M-2.5,-0.5L0,-3.0L2.5,-0.5"/>
                </g>
               <g id="resetDef">
                       <use xlink:href="#rim2" fill="#404040">
                               <set attributeName="fill" to="#808080" begin="reset.mouseover" end="reset.mouseout"/>
                       </use>
               </g>
        </defs>

<script type="text/javascript">
var viewWidth = 502;
var viewHeight = 389;
var sectionId = 'dynsection-9';
</script>
<script xlink:href="svgpan.js"/>
<svg id="graph" class="graph">
<g id="viewport">
<title>server</title>
<!-- Node1 -->
<g id="node1" class="node"><title>Node1</title>
<polygon fill="#bfbfbf" stroke="black" points="0,-194.5 0,-213.5 44,-213.5 44,-194.5 0,-194.5"/>
<text text-anchor="middle" x="22" y="-201.5" font-family="Helvetica,sans-Serif" font-size="10.00">server</text>
</g>
<!-- Node2 -->
<g id="node2" class="node"><title>Node2</title>
<g id="a_node2"><a xlink:href="protobuf__broker_8cpp.html#ae10b5d14d3ad78f811d25de1d8429746" target="_top" xlink:title="protobuf_io">
<polygon fill="none" stroke="black" points="83.5,-194.5 83.5,-213.5 148.5,-213.5 148.5,-194.5 83.5,-194.5"/>
<text text-anchor="middle" x="116" y="-201.5" font-family="Helvetica,sans-Serif" font-size="10.00">protobuf_io</text>
</a>
</g>
</g>
<!-- Node1&#45;&gt;Node2 -->
<g id="edge1" class="edge"><title>Node1&#45;&gt;Node2</title>
<path fill="none" stroke="midnightblue" d="M44.3379,-204C52.9263,-204 63.1432,-204 73.1016,-204"/>
<polygon fill="midnightblue" stroke="midnightblue" points="73.3067,-207.5 83.3066,-204 73.3066,-200.5 73.3067,-207.5"/>
</g>
<!-- Node7 -->
<g id="node7" class="node"><title>Node7</title>
<g id="a_node7"><a xlink:href="namespacepatch.html#a54d2400c78aef13e3748a87cd7c86ede" target="_top" xlink:title="patch::to_string">
<polygon fill="none" stroke="black" points="219,-361.5 219,-380.5 303,-380.5 303,-361.5 219,-361.5"/>
<text text-anchor="middle" x="261" y="-368.5" font-family="Helvetica,sans-Serif" font-size="10.00">patch::to_string</text>
</a>
</g>
</g>
<!-- Node1&#45;&gt;Node7 -->
<g id="edge14" class="edge"><title>Node1&#45;&gt;Node7</title>
<path fill="none" stroke="midnightblue" d="M30.8384,-213.536C52.8034,-239.627 117.945,-312.787 188,-351 194.499,-354.545 201.678,-357.503 208.911,-359.96"/>
<polygon fill="midnightblue" stroke="midnightblue" points="208.161,-363.392 218.749,-363.008 210.232,-356.706 208.161,-363.392"/>
</g>
<!-- Node14 -->
<g id="node14" class="node"><title>Node14</title>
<g id="a_node14"><a xlink:href="protobuf__broker_8cpp.html#a1d613e7d0e630b09e38349b345558eb8" target="_top" xlink:title="print_on_exit">
<polygon fill="none" stroke="black" points="80,-156.5 80,-175.5 152,-175.5 152,-156.5 80,-156.5"/>
<text text-anchor="middle" x="116" y="-163.5" font-family="Helvetica,sans-Serif" font-size="10.00">print_on_exit</text>
</a>
</g>
</g>
<!-- Node1&#45;&gt;Node14 -->
<g id="edge13" class="edge"><title>Node1&#45;&gt;Node14</title>
<path fill="none" stroke="midnightblue" d="M44.3379,-195.187C55.6741,-190.504 69.8474,-184.65 82.5187,-179.416"/>
<polygon fill="midnightblue" stroke="midnightblue" points="83.9375,-182.617 91.8439,-175.564 81.2651,-176.147 83.9375,-182.617"/>
</g>
<!-- Node3 -->
<g id="node3" class="node"><title>Node3</title>
<g id="a_node3"><a xlink:href="classorg_1_1libcppa_1_1WarnOrAck.html#ab90e30d2891e4ce6a37c50b2c9e49d4b" target="_top" xlink:title="org::libcppa::WarnOrAck\l::mutable_warn">
<polygon fill="none" stroke="black" points="199,-312 199,-342 323,-342 323,-312 199,-312"/>
<text text-anchor="start" x="207" y="-330" font-family="Helvetica,sans-Serif" font-size="10.00">org::libcppa::WarnOrAck</text>
<text text-anchor="middle" x="261" y="-319" font-family="Helvetica,sans-Serif" font-size="10.00">::mutable_warn</text>
</a>
</g>
</g>
<!-- Node2&#45;&gt;Node3 -->
<g id="edge2" class="edge"><title>Node2&#45;&gt;Node3</title>
<path fill="none" stroke="midnightblue" d="M121.425,-213.579C130.887,-233.042 154.946,-277.441 188,-302 190.521,-303.873 193.193,-305.614 195.967,-307.23"/>
<polygon fill="midnightblue" stroke="midnightblue" points="194.625,-310.477 205.112,-311.982 197.852,-304.265 194.625,-310.477"/>
</g>
<!-- Node5 -->
<g id="node5" class="node"><title>Node5</title>
<g id="a_node5"><a xlink:href="classorg_1_1libcppa_1_1WarnOrAck.html#a6bb4f027211410b8dd68aad3407586fb" target="_top" xlink:title="org::libcppa::WarnOrAck\l::mutable_ack">
<polygon fill="none" stroke="black" points="199,-263 199,-293 323,-293 323,-263 199,-263"/>
<text text-anchor="start" x="207" y="-281" font-family="Helvetica,sans-Serif" font-size="10.00">org::libcppa::WarnOrAck</text>
<text text-anchor="middle" x="261" y="-270" font-family="Helvetica,sans-Serif" font-size="10.00">::mutable_ack</text>
</a>
</g>
</g>
<!-- Node2&#45;&gt;Node5 -->
<g id="edge4" class="edge"><title>Node2&#45;&gt;Node5</title>
<path fill="none" stroke="midnightblue" d="M128.933,-213.743C142.554,-224.494 165.824,-241.76 188,-253 192.275,-255.167 196.781,-257.221 201.368,-259.151"/>
<polygon fill="midnightblue" stroke="midnightblue" points="200.263,-262.478 210.848,-262.934 202.857,-255.977 200.263,-262.478"/>
</g>
<!-- Node2&#45;&gt;Node7 -->
<g id="edge6" class="edge"><title>Node2&#45;&gt;Node7</title>
<path fill="none" stroke="midnightblue" d="M120.528,-213.828C131.383,-243.568 164.943,-331.741 188,-351 194.161,-356.146 201.55,-359.973 209.213,-362.818"/>
<polygon fill="midnightblue" stroke="midnightblue" points="208.404,-366.233 218.995,-365.921 210.521,-359.561 208.404,-366.233"/>
</g>
<!-- Node8 -->
<g id="node8" class="node"><title>Node8</title>
<g id="a_node8"><a xlink:href="classorg_1_1libcppa_1_1WarnOrAck.html#ac607e8a3448c09e0d96c5930d75c2f73" target="_top" xlink:title="org::libcppa::WarnOrAck\l::has_warn">
<polygon fill="none" stroke="black" points="199,-214 199,-244 323,-244 323,-214 199,-214"/>
<text text-anchor="start" x="207" y="-232" font-family="Helvetica,sans-Serif" font-size="10.00">org::libcppa::WarnOrAck</text>
<text text-anchor="middle" x="261" y="-221" font-family="Helvetica,sans-Serif" font-size="10.00">::has_warn</text>
</a>
</g>
</g>
<!-- Node2&#45;&gt;Node8 -->
<g id="edge7" class="edge"><title>Node2&#45;&gt;Node8</title>
<path fill="none" stroke="midnightblue" d="M148.736,-209.548C160.588,-211.62 174.578,-214.066 188.564,-216.511"/>
<polygon fill="midnightblue" stroke="midnightblue" points="188.263,-220.012 198.717,-218.286 189.469,-213.116 188.263,-220.012"/>
</g>
<!-- Node9 -->
<g id="node9" class="node"><title>Node9</title>
<g id="a_node9"><a xlink:href="classorg_1_1libcppa_1_1WarnOrAck.html#ab669badf2c2a7b504ffde7d37c2b1a9f" target="_top" xlink:title="org::libcppa::WarnOrAck\l::warn">
<polygon fill="none" stroke="black" points="199,-165 199,-195 323,-195 323,-165 199,-165"/>
<text text-anchor="start" x="207" y="-183" font-family="Helvetica,sans-Serif" font-size="10.00">org::libcppa::WarnOrAck</text>
<text text-anchor="middle" x="261" y="-172" font-family="Helvetica,sans-Serif" font-size="10.00">::warn</text>
</a>
</g>
</g>
<!-- Node2&#45;&gt;Node9 -->
<g id="edge8" class="edge"><title>Node2&#45;&gt;Node9</title>
<path fill="none" stroke="midnightblue" d="M148.736,-198.674C160.588,-196.684 174.578,-194.337 188.564,-191.989"/>
<polygon fill="midnightblue" stroke="midnightblue" points="189.434,-195.392 198.717,-190.285 188.275,-188.489 189.434,-195.392"/>
</g>
<!-- Node10 -->
<g id="node10" class="node"><title>Node10</title>
<g id="a_node10"><a xlink:href="classorg_1_1libcppa_1_1warning.html#adf0bdf099abd08b438f55cbad69f9d2e" target="_top" xlink:title="org::libcppa::warning::id">
<polygon fill="none" stroke="black" points="201,-126.5 201,-145.5 321,-145.5 321,-126.5 201,-126.5"/>
<text text-anchor="middle" x="261" y="-133.5" font-family="Helvetica,sans-Serif" font-size="10.00">org::libcppa::warning::id</text>
</a>
</g>
</g>
<!-- Node2&#45;&gt;Node10 -->
<g id="edge9" class="edge"><title>Node2&#45;&gt;Node10</title>
<path fill="none" stroke="midnightblue" d="M136.294,-194.408C141.515,-191.577 147.079,-188.338 152,-185 169.236,-173.308 169.491,-164.551 188,-155 192.551,-152.652 197.417,-150.576 202.392,-148.743"/>
<polygon fill="midnightblue" stroke="midnightblue" points="203.668,-152.007 212.039,-145.512 201.445,-145.369 203.668,-152.007"/>
</g>
<!-- Node11 -->
<g id="node11" class="node"><title>Node11</title>
<g id="a_node11"><a xlink:href="classorg_1_1libcppa_1_1WarnOrAck.html#a8eeec6df03e93704ac596a78d269eb3c" target="_top" xlink:title="org::libcppa::WarnOrAck\l::has_ack">
<polygon fill="none" stroke="black" points="199,-77 199,-107 323,-107 323,-77 199,-77"/>
<text text-anchor="start" x="207" y="-95" font-family="Helvetica,sans-Serif" font-size="10.00">org::libcppa::WarnOrAck</text>
<text text-anchor="middle" x="261" y="-84" font-family="Helvetica,sans-Serif" font-size="10.00">::has_ack</text>
</a>
</g>
</g>
<!-- Node2&#45;&gt;Node11 -->
<g id="edge10" class="edge"><title>Node2&#45;&gt;Node11</title>
<path fill="none" stroke="midnightblue" d="M139.46,-194.359C143.958,-191.758 148.401,-188.637 152,-185 176.054,-160.694 162.046,-139.266 188,-117 189.977,-115.304 192.076,-113.721 194.266,-112.243"/>
<polygon fill="midnightblue" stroke="midnightblue" points="196.253,-115.136 203.102,-107.053 192.707,-109.1 196.253,-115.136"/>
</g>
<!-- Node12 -->
<g id="node12" class="node"><title>Node12</title>
<g id="a_node12"><a xlink:href="classorg_1_1libcppa_1_1WarnOrAck.html#adb01773cc3a768704172a72677e4641b" target="_top" xlink:title="org::libcppa::WarnOrAck::ack">
<polygon fill="none" stroke="black" points="188,-38.5 188,-57.5 334,-57.5 334,-38.5 188,-38.5"/>
<text text-anchor="middle" x="261" y="-45.5" font-family="Helvetica,sans-Serif" font-size="10.00">org::libcppa::WarnOrAck::ack</text>
</a>
</g>
</g>
<!-- Node2&#45;&gt;Node12 -->
<g id="edge11" class="edge"><title>Node2&#45;&gt;Node12</title>
<path fill="none" stroke="midnightblue" d="M140.733,-194.422C144.935,-191.868 148.939,-188.749 152,-185 186.681,-142.53 148.497,-105.026 188,-67 189.502,-65.5543 191.1,-64.2153 192.777,-62.9754"/>
<polygon fill="midnightblue" stroke="midnightblue" points="194.981,-65.7329 201.729,-57.5653 191.361,-59.7419 194.981,-65.7329"/>
</g>
<!-- Node13 -->
<g id="node13" class="node"><title>Node13</title>
<g id="a_node13"><a xlink:href="classorg_1_1libcppa_1_1ack.html#ae85c4ba475311e2a7a6bda892fa8fed4" target="_top" xlink:title="org::libcppa::ack::id">
<polygon fill="none" stroke="black" points="210,-0.5 210,-19.5 312,-19.5 312,-0.5 210,-0.5"/>
<text text-anchor="middle" x="261" y="-7.5" font-family="Helvetica,sans-Serif" font-size="10.00">org::libcppa::ack::id</text>
</a>
</g>
</g>
<!-- Node2&#45;&gt;Node13 -->
<g id="edge12" class="edge"><title>Node2&#45;&gt;Node13</title>
<path fill="none" stroke="midnightblue" d="M141.299,-194.365C145.351,-191.837 149.154,-188.742 152,-185 195.07,-128.36 138.477,-80.0935 188,-29 191.619,-25.2665 195.878,-22.2372 200.486,-19.7829"/>
<polygon fill="midnightblue" stroke="midnightblue" points="201.952,-22.9616 209.703,-15.7379 199.139,-16.5517 201.952,-22.9616"/>
</g>
<!-- Node4 -->
<g id="node4" class="node"><title>Node4</title>
<g id="a_node4"><a xlink:href="classorg_1_1libcppa_1_1WarnOrAck.html#aacbf55d28e497cd18168d32aba6b999c" target="_top" xlink:title="org::libcppa::WarnOrAck\l::set_has_warn">
<polygon fill="none" stroke="black" points="370,-312 370,-342 494,-342 494,-312 370,-312"/>
<text text-anchor="start" x="378" y="-330" font-family="Helvetica,sans-Serif" font-size="10.00">org::libcppa::WarnOrAck</text>
<text text-anchor="middle" x="432" y="-319" font-family="Helvetica,sans-Serif" font-size="10.00">::set_has_warn</text>
</a>
</g>
</g>
<!-- Node3&#45;&gt;Node4 -->
<g id="edge3" class="edge"><title>Node3&#45;&gt;Node4</title>
<path fill="none" stroke="midnightblue" d="M323.013,-327C334.905,-327 347.472,-327 359.663,-327"/>
<polygon fill="midnightblue" stroke="midnightblue" points="359.793,-330.5 369.793,-327 359.793,-323.5 359.793,-330.5"/>
</g>
<!-- Node6 -->
<g id="node6" class="node"><title>Node6</title>
<g id="a_node6"><a xlink:href="classorg_1_1libcppa_1_1WarnOrAck.html#a04e2259945cc6e97b6a600827f064f41" target="_top" xlink:title="org::libcppa::WarnOrAck\l::set_has_ack">
<polygon fill="none" stroke="black" points="370,-263 370,-293 494,-293 494,-263 370,-263"/>
<text text-anchor="start" x="378" y="-281" font-family="Helvetica,sans-Serif" font-size="10.00">org::libcppa::WarnOrAck</text>
<text text-anchor="middle" x="432" y="-270" font-family="Helvetica,sans-Serif" font-size="10.00">::set_has_ack</text>
</a>
</g>
</g>
<!-- Node5&#45;&gt;Node6 -->
<g id="edge5" class="edge"><title>Node5&#45;&gt;Node6</title>
<path fill="none" stroke="midnightblue" d="M323.013,-278C334.905,-278 347.472,-278 359.663,-278"/>
<polygon fill="midnightblue" stroke="midnightblue" points="359.793,-281.5 369.793,-278 359.793,-274.5 359.793,-281.5"/>
</g>
</g>
</svg>
        <g id="navigator" transform="translate(0 0)" fill="#404254">
                <rect fill="#f2f5e9" fill-opacity="0.5" stroke="#606060" stroke-width=".5" x="0" y="0" width="60" height="60"/>
                <use id="zoomplus" xlink:href="#zoomPlus" x="17" y="9" onmousedown="handleZoom(evt,'in')"/>
                <use id="zoomminus" xlink:href="#zoomMin" x="42" y="9" onmousedown="handleZoom(evt,'out')"/>
                <use id="reset" xlink:href="#resetDef" x="30" y="36" onmousedown="handleReset()"/>
                <g id="arrowUp" xlink:href="#dirArrow" transform="translate(30 24)" onmousedown="handlePan(0,-1)">
                  <use xlink:href="#rim" fill="#404040">
                        <set attributeName="fill" to="#808080" begin="arrowUp.mouseover" end="arrowUp.mouseout"/>
                  </use>
                  <path fill="none" stroke="white" stroke-width="1.5" d="M0,-3.0v7 M-2.5,-0.5L0,-3.0L2.5,-0.5"/>
                </g>
                <g id="arrowRight" xlink:href="#dirArrow" transform="rotate(90) translate(36 -43)" onmousedown="handlePan(1,0)">
                  <use xlink:href="#rim" fill="#404040">
                        <set attributeName="fill" to="#808080" begin="arrowRight.mouseover" end="arrowRight.mouseout"/>
                  </use>
                  <path fill="none" stroke="white" stroke-width="1.5" d="M0,-3.0v7 M-2.5,-0.5L0,-3.0L2.5,-0.5"/>
                </g>
                <g id="arrowDown" xlink:href="#dirArrow" transform="rotate(180) translate(-30 -48)" onmousedown="handlePan(0,1)">
                  <use xlink:href="#rim" fill="#404040">
                        <set attributeName="fill" to="#808080" begin="arrowDown.mouseover" end="arrowDown.mouseout"/>
                  </use>
                  <path fill="none" stroke="white" stroke-width="1.5" d="M0,-3.0v7 M-2.5,-0.5L0,-3.0L2.5,-0.5"/>
                </g>
                <g id="arrowLeft" xlink:href="#dirArrow" transform="rotate(270) translate(-36 17)" onmousedown="handlePan(-1,0)">
                  <use xlink:href="#rim" fill="#404040">
                        <set attributeName="fill" to="#808080" begin="arrowLeft.mouseover" end="arrowLeft.mouseout"/>
                  </use>
                  <path fill="none" stroke="white" stroke-width="1.5" d="M0,-3.0v7 M-2.5,-0.5L0,-3.0L2.5,-0.5"/>
                </g>
        </g>
        <svg viewBox="0 0 15 15" width="100%" height="30px" preserveAspectRatio="xMaxYMin meet">
         <g id="arrow_out" transform="scale(0.3 0.3)">
          <a xlink:href="protobuf__broker_8cpp_ab3afbb104c5cd2d77878dca0def53691_cgraph_org.svg" target="_base">
           <rect id="button" ry="5" rx="5" y="6" x="6" height="38" width="38"
                fill="#f2f5e9" fill-opacity="0.5" stroke="#606060" stroke-width="1.0"/>
           <path id="arrow"
             d="M 11.500037,31.436501 C 11.940474,20.09759 22.043105,11.32322 32.158766,21.979434 L 37.068811,17.246167 C 37.068811,17.246167 37.088388,32 37.088388,32 L 22.160133,31.978069 C 22.160133,31.978069 26.997745,27.140456 26.997745,27.140456 C 18.528582,18.264221 13.291696,25.230495 11.500037,31.436501 z"
             style="fill:#404040;"/>
          </a>
         </g>
        </svg>
</svg>
