<?xml version="1.0" encoding="UTF-8" standalone="no"?>
<!DOCTYPE svg PUBLIC "-//W3C//DTD SVG 1.1//EN"
 "http://www.w3.org/Graphics/SVG/1.1/DTD/svg11.dtd">
<!-- Generated by graphviz version 2.36.0 (20140111.2315)
 -->
<!-- Title: src/StreamDecoder/protobuf_image_wrapper.h Pages: 1 -->
<svg width="908pt" height="220pt"
 viewBox="0.00 0.00 908.00 220.00" xmlns="http://www.w3.org/2000/svg" xmlns:xlink="http://www.w3.org/1999/xlink">
<g id="graph0" class="graph" transform="scale(1 1) rotate(0) translate(4 216)">
<title>src/StreamDecoder/protobuf_image_wrapper.h</title>
<!-- Node1 -->
<g id="node1" class="node"><title>Node1</title>
<polygon fill="#bfbfbf" stroke="black" points="321,-181 321,-211 461,-211 461,-181 321,-181"/>
<text text-anchor="start" x="329" y="-199" font-family="Helvetica,sans-Serif" font-size="10.00">src/StreamDecoder/protobuf</text>
<text text-anchor="middle" x="391" y="-188" font-family="Helvetica,sans-Serif" font-size="10.00">_image_wrapper.h</text>
</g>
<!-- Node2 -->
<g id="node2" class="node"><title>Node2</title>
<g id="a_node2"><a xlink:href="CameraImage_8pb_8h.html" target="_top" xlink:title="protofiles/CameraImage.pb.h">
<polygon fill="none" stroke="black" points="319.5,-124.5 319.5,-143.5 462.5,-143.5 462.5,-124.5 319.5,-124.5"/>
<text text-anchor="middle" x="391" y="-131.5" font-family="Helvetica,sans-Serif" font-size="10.00">protofiles/CameraImage.pb.h</text>
</a>
</g>
</g>
<!-- Node1&#45;&gt;Node2 -->
<g id="edge1" class="edge"><title>Node1&#45;&gt;Node2</title>
<path fill="none" stroke="midnightblue" d="M391,-180.781C391,-172.781 391,-162.689 391,-154.017"/>
<polygon fill="midnightblue" stroke="midnightblue" points="394.5,-153.73 391,-143.731 387.5,-153.731 394.5,-153.73"/>
</g>
<!-- Node3 -->
<g id="node3" class="node"><title>Node3</title>
<polygon fill="none" stroke="#bfbfbf" points="-0.5,-6.5 -0.5,-25.5 40.5,-25.5 40.5,-6.5 -0.5,-6.5"/>
<text text-anchor="middle" x="20" y="-13.5" font-family="Helvetica,sans-Serif" font-size="10.00">string</text>
</g>
<!-- Node2&#45;&gt;Node3 -->
<g id="edge2" class="edge"><title>Node2&#45;&gt;Node3</title>
<path fill="none" stroke="midnightblue" d="M354.157,-124.485C290.792,-109.314 157.608,-75.1139 50,-32 48.402,-31.3598 46.7731,-30.6674 45.1416,-29.9434"/>
<polygon fill="midnightblue" stroke="midnightblue" points="46.5034,-26.7157 35.968,-25.5949 43.505,-33.041 46.5034,-26.7157"/>
</g>
<!-- Node4 -->
<g id="node4" class="node"><title>Node4</title>
<polygon fill="none" stroke="#bfbfbf" points="59,-1 59,-31 169,-31 169,-1 59,-1"/>
<text text-anchor="start" x="67" y="-19" font-family="Helvetica,sans-Serif" font-size="10.00">google/protobuf/stubs</text>
<text text-anchor="middle" x="114" y="-8" font-family="Helvetica,sans-Serif" font-size="10.00">/common.h</text>
</g>
<!-- Node2&#45;&gt;Node4 -->
<g id="edge3" class="edge"><title>Node2&#45;&gt;Node4</title>
<path fill="none" stroke="midnightblue" d="M370.632,-124.47C325.802,-105.697 217.771,-60.4565 157.137,-35.0645"/>
<polygon fill="midnightblue" stroke="midnightblue" points="158.405,-31.8012 147.829,-31.1668 155.701,-38.2579 158.405,-31.8012"/>
</g>
<!-- Node5 -->
<g id="node5" class="node"><title>Node5</title>
<polygon fill="none" stroke="#bfbfbf" points="187.5,-1 187.5,-31 316.5,-31 316.5,-1 187.5,-1"/>
<text text-anchor="start" x="195.5" y="-19" font-family="Helvetica,sans-Serif" font-size="10.00">google/protobuf/generated</text>
<text text-anchor="middle" x="252" y="-8" font-family="Helvetica,sans-Serif" font-size="10.00">_message_util.h</text>
</g>
<!-- Node2&#45;&gt;Node5 -->
<g id="edge4" class="edge"><title>Node2&#45;&gt;Node5</title>
<path fill="none" stroke="midnightblue" d="M373.941,-124.424C358.335,-116.173 335.005,-102.798 317,-88 299.3,-73.4531 281.916,-54.1249 269.587,-39.3082"/>
<polygon fill="midnightblue" stroke="midnightblue" points="271.982,-36.7084 262.947,-31.1759 266.56,-41.1356 271.982,-36.7084"/>
</g>
<!-- Node6 -->
<g id="node6" class="node"><title>Node6</title>
<polygon fill="none" stroke="#bfbfbf" points="335,-6.5 335,-25.5 469,-25.5 469,-6.5 335,-6.5"/>
<text text-anchor="middle" x="402" y="-13.5" font-family="Helvetica,sans-Serif" font-size="10.00">google/protobuf/message.h</text>
</g>
<!-- Node2&#45;&gt;Node6 -->
<g id="edge5" class="edge"><title>Node2&#45;&gt;Node6</title>
<path fill="none" stroke="midnightblue" d="M394.088,-124.173C397.052,-115.198 401.319,-100.827 403,-88 405.3,-70.4465 404.705,-50.244 403.739,-35.8884"/>
<polygon fill="midnightblue" stroke="midnightblue" points="407.218,-35.4812 402.933,-25.7915 400.24,-36.0383 407.218,-35.4812"/>
</g>
<!-- Node7 -->
<g id="node7" class="node"><title>Node7</title>
<polygon fill="none" stroke="#bfbfbf" points="487,-1 487,-31 611,-31 611,-1 487,-1"/>
<text text-anchor="start" x="495" y="-19" font-family="Helvetica,sans-Serif" font-size="10.00">google/protobuf/repeated</text>
<text text-anchor="middle" x="549" y="-8" font-family="Helvetica,sans-Serif" font-size="10.00">_field.h</text>
</g>
<!-- Node2&#45;&gt;Node7 -->
<g id="edge6" class="edge"><title>Node2&#45;&gt;Node7</title>
<path fill="none" stroke="midnightblue" d="M402.618,-124.47C427.452,-106.238 486.289,-63.041 521.34,-37.3072"/>
<polygon fill="midnightblue" stroke="midnightblue" points="523.714,-39.9061 529.704,-31.1668 519.572,-34.2636 523.714,-39.9061"/>
</g>
<!-- Node8 -->
<g id="node8" class="node"><title>Node8</title>
<polygon fill="none" stroke="#bfbfbf" points="629,-1 629,-31 757,-31 757,-1 629,-1"/>
<text text-anchor="start" x="637" y="-19" font-family="Helvetica,sans-Serif" font-size="10.00">google/protobuf/extension</text>
<text text-anchor="middle" x="693" y="-8" font-family="Helvetica,sans-Serif" font-size="10.00">_set.h</text>
</g>
<!-- Node2&#45;&gt;Node8 -->
<g id="edge7" class="edge"><title>Node2&#45;&gt;Node8</title>
<path fill="none" stroke="midnightblue" d="M413.207,-124.47C462.247,-105.633 580.661,-60.1501 646.639,-34.8075"/>
<polygon fill="midnightblue" stroke="midnightblue" points="648.289,-37.9231 656.369,-31.0702 645.779,-31.3886 648.289,-37.9231"/>
</g>
<!-- Node9 -->
<g id="node9" class="node"><title>Node9</title>
<polygon fill="none" stroke="#bfbfbf" points="775.5,-1 775.5,-31 900.5,-31 900.5,-1 775.5,-1"/>
<text text-anchor="start" x="783.5" y="-19" font-family="Helvetica,sans-Serif" font-size="10.00">google/protobuf/unknown</text>
<text text-anchor="middle" x="838" y="-8" font-family="Helvetica,sans-Serif" font-size="10.00">_field_set.h</text>
</g>
<!-- Node2&#45;&gt;Node9 -->
<g id="edge8" class="edge"><title>Node2&#45;&gt;Node9</title>
<path fill="none" stroke="midnightblue" d="M423.869,-124.47C497.574,-105.343 677.146,-58.7429 773.836,-33.6511"/>
<polygon fill="midnightblue" stroke="midnightblue" points="774.981,-36.9699 783.781,-31.0702 773.223,-30.1943 774.981,-36.9699"/>
</g>
<!-- Node10 -->
<g id="node10" class="node"><title>Node10</title>
<g id="a_node10"><a xlink:href="header_8pb_8h.html" target="_top" xlink:title="header.pb.h">
<polygon fill="none" stroke="black" points="326,-68.5 326,-87.5 394,-87.5 394,-68.5 326,-68.5"/>
<text text-anchor="middle" x="360" y="-75.5" font-family="Helvetica,sans-Serif" font-size="10.00">header.pb.h</text>
</a>
</g>
</g>
<!-- Node2&#45;&gt;Node10 -->
<g id="edge9" class="edge"><title>Node2&#45;&gt;Node10</title>
<path fill="none" stroke="midnightblue" d="M385.881,-124.083C381.592,-116.613 375.342,-105.724 370.058,-96.5199"/>
<polygon fill="midnightblue" stroke="midnightblue" points="373.038,-94.6811 365.024,-87.7511 366.967,-98.1662 373.038,-94.6811"/>
</g>
<!-- Node10&#45;&gt;Node3 -->
<g id="edge10" class="edge"><title>Node10&#45;&gt;Node3</title>
<path fill="none" stroke="midnightblue" d="M325.727,-75.5874C267.72,-72.4162 147.037,-62.4323 50,-32 48.0831,-31.3988 46.138,-30.6873 44.2071,-29.906"/>
<polygon fill="midnightblue" stroke="midnightblue" points="45.415,-26.609 34.8677,-25.6069 42.488,-32.9677 45.415,-26.609"/>
</g>
<!-- Node10&#45;&gt;Node4 -->
<g id="edge11" class="edge"><title>Node10&#45;&gt;Node4</title>
<path fill="none" stroke="midnightblue" d="M325.795,-68.6573C287.956,-59.4283 226.112,-44.3443 178.995,-32.8525"/>
<polygon fill="midnightblue" stroke="midnightblue" points="179.723,-29.4275 169.178,-30.4582 178.064,-36.2281 179.723,-29.4275"/>
</g>
<!-- Node10&#45;&gt;Node5 -->
<g id="edge12" class="edge"><title>Node10&#45;&gt;Node5</title>
<path fill="none" stroke="midnightblue" d="M344.526,-68.4035C329.421,-60.0115 305.923,-46.9571 286.388,-36.1042"/>
<polygon fill="midnightblue" stroke="midnightblue" points="287.895,-32.9377 277.453,-31.1408 284.495,-39.0568 287.895,-32.9377"/>
</g>
<!-- Node10&#45;&gt;Node6 -->
<g id="edge13" class="edge"><title>Node10&#45;&gt;Node6</title>
<path fill="none" stroke="midnightblue" d="M366.018,-68.4035C372.318,-59.4034 382.371,-45.0408 390.252,-33.7824"/>
<polygon fill="midnightblue" stroke="midnightblue" points="393.126,-35.7801 395.994,-25.5806 387.392,-31.7658 393.126,-35.7801"/>
</g>
<!-- Node10&#45;&gt;Node7 -->
<g id="edge14" class="edge"><title>Node10&#45;&gt;Node7</title>
<path fill="none" stroke="midnightblue" d="M387.079,-68.4035C415.162,-59.4882 459.82,-45.311 495.13,-34.1014"/>
<polygon fill="midnightblue" stroke="midnightblue" points="496.348,-37.3871 504.82,-31.0253 494.23,-30.7152 496.348,-37.3871"/>
</g>
<!-- Node10&#45;&gt;Node8 -->
<g id="edge15" class="edge"><title>Node10&#45;&gt;Node8</title>
<path fill="none" stroke="midnightblue" d="M394.409,-71.3362C444.077,-63.0895 538.716,-47.1084 619,-32 619.101,-31.9811 619.201,-31.9621 619.302,-31.9431"/>
<polygon fill="midnightblue" stroke="midnightblue" points="619.681,-35.4341 628.846,-30.1184 618.367,-28.5586 619.681,-35.4341"/>
</g>
<!-- Node10&#45;&gt;Node9 -->
<g id="edge16" class="edge"><title>Node10&#45;&gt;Node9</title>
<path fill="none" stroke="midnightblue" d="M394.099,-74.3227C462.514,-68.7142 621.549,-54.4861 765.349,-32.0048"/>
<polygon fill="midnightblue" stroke="midnightblue" points="765.905,-35.4604 775.236,-30.442 764.812,-28.5463 765.905,-35.4604"/>
</g>
</g>
</svg>
