<?xml version="1.0" encoding="UTF-8" standalone="no"?>
<!DOCTYPE svg PUBLIC "-//W3C//DTD SVG 1.1//EN"
 "http://www.w3.org/Graphics/SVG/1.1/DTD/svg11.dtd">
<!-- Generated by graphviz version 2.36.0 (20140111.2315)
 -->
<!-- Title: print_on_exit Pages: 1 -->
<svg width="234pt" height="47pt"
 viewBox="0.00 0.00 234.00 47.00" xmlns="http://www.w3.org/2000/svg" xmlns:xlink="http://www.w3.org/1999/xlink">
<g id="graph0" class="graph" transform="scale(1 1) rotate(0) translate(4 43)">
<title>print_on_exit</title>
<!-- Node1 -->
<g id="node1" class="node"><title>Node1</title>
<polygon fill="#bfbfbf" stroke="black" points="0,-0.5 0,-19.5 72,-19.5 72,-0.5 0,-0.5"/>
<text text-anchor="middle" x="36" y="-7.5" font-family="Helvetica,sans-Serif" font-size="10.00">print_on_exit</text>
</g>
<!-- Node2 -->
<g id="node2" class="node"><title>Node2</title>
<g id="a_node2"><a xlink:href="protobuf__broker_8cpp.html#ab3afbb104c5cd2d77878dca0def53691" target="_top" xlink:title="server">
<polygon fill="none" stroke="black" points="108,-19.5 108,-38.5 152,-38.5 152,-19.5 108,-19.5"/>
<text text-anchor="middle" x="130" y="-26.5" font-family="Helvetica,sans-Serif" font-size="10.00">server</text>
</a>
</g>
</g>
<!-- Node1&#45;&gt;Node2 -->
<g id="edge1" class="edge"><title>Node1&#45;&gt;Node2</title>
<path fill="none" stroke="midnightblue" d="M82.1242,-19.3191C91.1348,-21.18 100.19,-23.0502 107.907,-24.6438"/>
<polygon fill="midnightblue" stroke="midnightblue" points="82.545,-15.8322 72.0437,-17.2373 81.1291,-22.6876 82.545,-15.8322"/>
</g>
<!-- Node3 -->
<g id="node3" class="node"><title>Node3</title>
<g id="a_node3"><a xlink:href="protobuf__broker_8cpp.html#a3c04138a5bfe5d72780bb7e82a18e627" target="_top" xlink:title="main">
<polygon fill="none" stroke="black" points="188,-0.5 188,-19.5 226,-19.5 226,-0.5 188,-0.5"/>
<text text-anchor="middle" x="207" y="-7.5" font-family="Helvetica,sans-Serif" font-size="10.00">main</text>
</a>
</g>
</g>
<!-- Node1&#45;&gt;Node3 -->
<g id="edge3" class="edge"><title>Node1&#45;&gt;Node3</title>
<path fill="none" stroke="midnightblue" d="M82.3455,-10C116.901,-10 162.672,-10 187.708,-10"/>
<polygon fill="midnightblue" stroke="midnightblue" points="82.0169,-6.5001 72.0169,-10 82.0169,-13.5001 82.0169,-6.5001"/>
</g>
<!-- Node2&#45;&gt;Node3 -->
<g id="edge2" class="edge"><title>Node2&#45;&gt;Node3</title>
<path fill="none" stroke="midnightblue" d="M162.246,-21.0844C171.01,-18.8641 180.244,-16.5249 187.958,-14.5706"/>
<polygon fill="midnightblue" stroke="midnightblue" points="161.126,-17.7575 152.291,-23.6062 162.845,-24.5432 161.126,-17.7575"/>
</g>
</g>
</svg>
