<?xml version="1.0" encoding="UTF-8" standalone="no"?>
<!DOCTYPE svg PUBLIC "-//W3C//DTD SVG 1.1//EN"
 "http://www.w3.org/Graphics/SVG/1.1/DTD/svg11.dtd">
<!-- Generated by graphviz version 2.36.0 (20140111.2315)
 -->
<!-- Title: src/caf/protobuf_broker.cpp Pages: 1 -->
<svg width="1061pt" height="152pt"
 viewBox="0.00 0.00 1061.00 152.00" xmlns="http://www.w3.org/2000/svg" xmlns:xlink="http://www.w3.org/1999/xlink">
<g id="graph0" class="graph" transform="scale(1 1) rotate(0) translate(4 148)">
<title>src/caf/protobuf_broker.cpp</title>
<!-- Node1 -->
<g id="node1" class="node"><title>Node1</title>
<polygon fill="#bfbfbf" stroke="black" points="187,-124.5 187,-143.5 323,-143.5 323,-124.5 187,-124.5"/>
<text text-anchor="middle" x="255" y="-131.5" font-family="Helvetica,sans-Serif" font-size="10.00">src/caf/protobuf_broker.cpp</text>
</g>
<!-- Node2 -->
<g id="node2" class="node"><title>Node2</title>
<polygon fill="none" stroke="#bfbfbf" points="0,-68.5 0,-87.5 44,-87.5 44,-68.5 0,-68.5"/>
<text text-anchor="middle" x="22" y="-75.5" font-family="Helvetica,sans-Serif" font-size="10.00">vector</text>
</g>
<!-- Node1&#45;&gt;Node2 -->
<g id="edge1" class="edge"><title>Node1&#45;&gt;Node2</title>
<path fill="none" stroke="midnightblue" d="M216.442,-124.437C176.689,-115.55 112.933,-101.139 58,-88 56.7312,-87.6965 55.4379,-87.3847 54.1319,-87.0679"/>
<polygon fill="midnightblue" stroke="midnightblue" points="54.6138,-83.5822 44.0673,-84.5924 52.9419,-90.3796 54.6138,-83.5822"/>
</g>
<!-- Node3 -->
<g id="node3" class="node"><title>Node3</title>
<polygon fill="none" stroke="#bfbfbf" points="118.5,-6.5 118.5,-25.5 159.5,-25.5 159.5,-6.5 118.5,-6.5"/>
<text text-anchor="middle" x="139" y="-13.5" font-family="Helvetica,sans-Serif" font-size="10.00">string</text>
</g>
<!-- Node1&#45;&gt;Node3 -->
<g id="edge2" class="edge"><title>Node1&#45;&gt;Node3</title>
<path fill="none" stroke="midnightblue" d="M196.129,-124.48C154.519,-117.113 103.935,-104.962 91,-88 76.6038,-69.1215 98.8012,-46.1937 117.568,-31.5985"/>
<polygon fill="midnightblue" stroke="midnightblue" points="119.835,-34.2757 125.806,-25.5234 115.68,-28.642 119.835,-34.2757"/>
</g>
<!-- Node4 -->
<g id="node4" class="node"><title>Node4</title>
<polygon fill="none" stroke="#bfbfbf" points="100,-68.5 100,-87.5 140,-87.5 140,-68.5 100,-68.5"/>
<text text-anchor="middle" x="120" y="-75.5" font-family="Helvetica,sans-Serif" font-size="10.00">limits</text>
</g>
<!-- Node1&#45;&gt;Node4 -->
<g id="edge3" class="edge"><title>Node1&#45;&gt;Node4</title>
<path fill="none" stroke="midnightblue" d="M233.609,-124.444C211.03,-115.412 175.267,-101.107 149.903,-90.9612"/>
<polygon fill="midnightblue" stroke="midnightblue" points="150.992,-87.6272 140.407,-87.1629 148.392,-94.1266 150.992,-87.6272"/>
</g>
<!-- Node5 -->
<g id="node5" class="node"><title>Node5</title>
<polygon fill="none" stroke="#bfbfbf" points="158,-68.5 158,-87.5 210,-87.5 210,-68.5 158,-68.5"/>
<text text-anchor="middle" x="184" y="-75.5" font-family="Helvetica,sans-Serif" font-size="10.00">memory</text>
</g>
<!-- Node1&#45;&gt;Node5 -->
<g id="edge4" class="edge"><title>Node1&#45;&gt;Node5</title>
<path fill="none" stroke="midnightblue" d="M243.593,-124.324C232.891,-116.185 216.659,-103.839 203.837,-94.0874"/>
<polygon fill="midnightblue" stroke="midnightblue" points="205.693,-91.1018 195.615,-87.8339 201.456,-96.6734 205.693,-91.1018"/>
</g>
<!-- Node6 -->
<g id="node6" class="node"><title>Node6</title>
<polygon fill="none" stroke="#bfbfbf" points="228,-68.5 228,-87.5 282,-87.5 282,-68.5 228,-68.5"/>
<text text-anchor="middle" x="255" y="-75.5" font-family="Helvetica,sans-Serif" font-size="10.00">iostream</text>
</g>
<!-- Node1&#45;&gt;Node6 -->
<g id="edge5" class="edge"><title>Node1&#45;&gt;Node6</title>
<path fill="none" stroke="midnightblue" d="M255,-124.083C255,-117.006 255,-106.861 255,-97.9865"/>
<polygon fill="midnightblue" stroke="midnightblue" points="258.5,-97.751 255,-87.7511 251.5,-97.7511 258.5,-97.751"/>
</g>
<!-- Node7 -->
<g id="node7" class="node"><title>Node7</title>
<polygon fill="none" stroke="#bfbfbf" points="300,-68.5 300,-87.5 362,-87.5 362,-68.5 300,-68.5"/>
<text text-anchor="middle" x="331" y="-75.5" font-family="Helvetica,sans-Serif" font-size="10.00">arpa/inet.h</text>
</g>
<!-- Node1&#45;&gt;Node7 -->
<g id="edge6" class="edge"><title>Node1&#45;&gt;Node7</title>
<path fill="none" stroke="midnightblue" d="M267.211,-124.324C278.776,-116.107 296.375,-103.602 310.161,-93.8069"/>
<polygon fill="midnightblue" stroke="midnightblue" points="312.443,-96.4791 318.567,-87.8339 308.388,-90.7729 312.443,-96.4791"/>
</g>
<!-- Node8 -->
<g id="node8" class="node"><title>Node8</title>
<polygon fill="none" stroke="#bfbfbf" points="380,-68.5 380,-87.5 442,-87.5 442,-68.5 380,-68.5"/>
<text text-anchor="middle" x="411" y="-75.5" font-family="Helvetica,sans-Serif" font-size="10.00">caf/all.hpp</text>
</g>
<!-- Node1&#45;&gt;Node8 -->
<g id="edge7" class="edge"><title>Node1&#45;&gt;Node8</title>
<path fill="none" stroke="midnightblue" d="M279.719,-124.444C305.848,-115.399 347.259,-101.064 376.576,-90.9158"/>
<polygon fill="midnightblue" stroke="midnightblue" points="378.092,-94.0951 386.397,-87.5164 375.802,-87.4801 378.092,-94.0951"/>
</g>
<!-- Node9 -->
<g id="node9" class="node"><title>Node9</title>
<polygon fill="none" stroke="#bfbfbf" points="460,-68.5 460,-87.5 532,-87.5 532,-68.5 460,-68.5"/>
<text text-anchor="middle" x="496" y="-75.5" font-family="Helvetica,sans-Serif" font-size="10.00">caf/io/all.hpp</text>
</g>
<!-- Node1&#45;&gt;Node9 -->
<g id="edge8" class="edge"><title>Node1&#45;&gt;Node9</title>
<path fill="none" stroke="midnightblue" d="M293.187,-124.444C335.758,-114.905 404.583,-99.4834 450.063,-89.293"/>
<polygon fill="midnightblue" stroke="midnightblue" points="450.967,-92.6773 459.96,-87.0755 449.436,-85.8467 450.967,-92.6773"/>
</g>
<!-- Node10 -->
<g id="node10" class="node"><title>Node10</title>
<g id="a_node10"><a xlink:href="message_8pb_8h.html" target="_top" xlink:title="message.pb.h">
<polygon fill="none" stroke="black" points="550,-68.5 550,-87.5 628,-87.5 628,-68.5 550,-68.5"/>
<text text-anchor="middle" x="589" y="-75.5" font-family="Helvetica,sans-Serif" font-size="10.00">message.pb.h</text>
</a>
</g>
</g>
<!-- Node1&#45;&gt;Node10 -->
<g id="edge9" class="edge"><title>Node1&#45;&gt;Node10</title>
<path fill="none" stroke="midnightblue" d="M312.328,-124.484C367.927,-116.112 454.932,-102.71 539.903,-88.149"/>
<polygon fill="midnightblue" stroke="midnightblue" points="540.723,-91.5595 549.984,-86.4142 539.536,-84.6608 540.723,-91.5595"/>
</g>
<!-- Node10&#45;&gt;Node3 -->
<g id="edge10" class="edge"><title>Node10&#45;&gt;Node3</title>
<path fill="none" stroke="midnightblue" d="M549.75,-69.3785C546.793,-68.8848 543.852,-68.4186 541,-68 391.529,-46.0624 351.941,-57.2853 203,-32 192.03,-30.1377 180.133,-27.5181 169.606,-24.9882"/>
<polygon fill="midnightblue" stroke="midnightblue" points="170.168,-21.522 159.62,-22.5196 168.488,-28.3174 170.168,-21.522"/>
</g>
<!-- Node11 -->
<g id="node11" class="node"><title>Node11</title>
<polygon fill="none" stroke="#bfbfbf" points="212,-1 212,-31 322,-31 322,-1 212,-1"/>
<text text-anchor="start" x="220" y="-19" font-family="Helvetica,sans-Serif" font-size="10.00">google/protobuf/stubs</text>
<text text-anchor="middle" x="267" y="-8" font-family="Helvetica,sans-Serif" font-size="10.00">/common.h</text>
</g>
<!-- Node10&#45;&gt;Node11 -->
<g id="edge11" class="edge"><title>Node10&#45;&gt;Node11</title>
<path fill="none" stroke="midnightblue" d="M549.977,-69.6306C546.94,-69.0732 543.921,-68.5242 541,-68 450.889,-51.8293 425.476,-50.8614 331.99,-32.1335"/>
<polygon fill="midnightblue" stroke="midnightblue" points="332.606,-28.6874 322.112,-30.1398 331.222,-35.5491 332.606,-28.6874"/>
</g>
<!-- Node12 -->
<g id="node12" class="node"><title>Node12</title>
<polygon fill="none" stroke="#bfbfbf" points="340.5,-1 340.5,-31 469.5,-31 469.5,-1 340.5,-1"/>
<text text-anchor="start" x="348.5" y="-19" font-family="Helvetica,sans-Serif" font-size="10.00">google/protobuf/generated</text>
<text text-anchor="middle" x="405" y="-8" font-family="Helvetica,sans-Serif" font-size="10.00">_message_util.h</text>
</g>
<!-- Node10&#45;&gt;Node12 -->
<g id="edge12" class="edge"><title>Node10&#45;&gt;Node12</title>
<path fill="none" stroke="midnightblue" d="M562.637,-68.4035C535.414,-59.5263 492.192,-45.4321 457.886,-34.2453"/>
<polygon fill="midnightblue" stroke="midnightblue" points="458.603,-30.798 448.011,-31.0253 456.433,-37.4531 458.603,-30.798"/>
</g>
<!-- Node13 -->
<g id="node13" class="node"><title>Node13</title>
<polygon fill="none" stroke="#bfbfbf" points="488,-6.5 488,-25.5 622,-25.5 622,-6.5 488,-6.5"/>
<text text-anchor="middle" x="555" y="-13.5" font-family="Helvetica,sans-Serif" font-size="10.00">google/protobuf/message.h</text>
</g>
<!-- Node10&#45;&gt;Node13 -->
<g id="edge13" class="edge"><title>Node10&#45;&gt;Node13</title>
<path fill="none" stroke="midnightblue" d="M584.129,-68.4035C579.13,-59.5816 571.211,-45.6075 564.891,-34.4548"/>
<polygon fill="midnightblue" stroke="midnightblue" points="567.838,-32.5553 559.862,-25.5806 561.747,-36.0064 567.838,-32.5553"/>
</g>
<!-- Node14 -->
<g id="node14" class="node"><title>Node14</title>
<polygon fill="none" stroke="#bfbfbf" points="640,-1 640,-31 764,-31 764,-1 640,-1"/>
<text text-anchor="start" x="648" y="-19" font-family="Helvetica,sans-Serif" font-size="10.00">google/protobuf/repeated</text>
<text text-anchor="middle" x="702" y="-8" font-family="Helvetica,sans-Serif" font-size="10.00">_field.h</text>
</g>
<!-- Node10&#45;&gt;Node14 -->
<g id="edge14" class="edge"><title>Node10&#45;&gt;Node14</title>
<path fill="none" stroke="midnightblue" d="M605.19,-68.4035C621.067,-59.9735 645.803,-46.8389 666.298,-35.957"/>
<polygon fill="midnightblue" stroke="midnightblue" points="668.177,-38.9218 675.368,-31.1408 664.895,-32.7392 668.177,-38.9218"/>
</g>
<!-- Node15 -->
<g id="node15" class="node"><title>Node15</title>
<polygon fill="none" stroke="#bfbfbf" points="782,-1 782,-31 910,-31 910,-1 782,-1"/>
<text text-anchor="start" x="790" y="-19" font-family="Helvetica,sans-Serif" font-size="10.00">google/protobuf/extension</text>
<text text-anchor="middle" x="846" y="-8" font-family="Helvetica,sans-Serif" font-size="10.00">_set.h</text>
</g>
<!-- Node10&#45;&gt;Node15 -->
<g id="edge15" class="edge"><title>Node10&#45;&gt;Node15</title>
<path fill="none" stroke="midnightblue" d="M625.549,-68.4672C664.573,-59.3565 727.357,-44.6988 775.96,-33.3517"/>
<polygon fill="midnightblue" stroke="midnightblue" points="776.849,-36.7384 785.791,-31.0565 775.257,-29.9218 776.849,-36.7384"/>
</g>
<!-- Node16 -->
<g id="node16" class="node"><title>Node16</title>
<polygon fill="none" stroke="#bfbfbf" points="928.5,-1 928.5,-31 1053.5,-31 1053.5,-1 928.5,-1"/>
<text text-anchor="start" x="936.5" y="-19" font-family="Helvetica,sans-Serif" font-size="10.00">google/protobuf/unknown</text>
<text text-anchor="middle" x="991" y="-8" font-family="Helvetica,sans-Serif" font-size="10.00">_field_set.h</text>
</g>
<!-- Node10&#45;&gt;Node16 -->
<g id="edge16" class="edge"><title>Node10&#45;&gt;Node16</title>
<path fill="none" stroke="midnightblue" d="M628.251,-72.5475C688.405,-65.5275 807.21,-50.8896 918.195,-32.0643"/>
<polygon fill="midnightblue" stroke="midnightblue" points="918.954,-35.4852 928.221,-30.3484 917.774,-28.5856 918.954,-35.4852"/>
</g>
</g>
</svg>
