<?xml version="1.0" encoding="UTF-8" standalone="no"?>
<!DOCTYPE svg PUBLIC "-//W3C//DTD SVG 1.1//EN"
 "http://www.w3.org/Graphics/SVG/1.1/DTD/svg11.dtd">
<!-- Generated by graphviz version 2.36.0 (20140111.2315)
 -->
<!-- Title: main Pages: 1 -->
<svg width="322pt" height="77pt"
 viewBox="0.00 0.00 322.00 77.00" xmlns="http://www.w3.org/2000/svg" xmlns:xlink="http://www.w3.org/1999/xlink">
<g id="graph0" class="graph" transform="scale(1 1) rotate(0) translate(4 73)">
<title>main</title>
<!-- Node1 -->
<g id="node1" class="node"><title>Node1</title>
<polygon fill="#bfbfbf" stroke="black" points="0,-22.5 0,-41.5 38,-41.5 38,-22.5 0,-22.5"/>
<text text-anchor="middle" x="19" y="-29.5" font-family="Helvetica,sans-Serif" font-size="10.00">main</text>
</g>
<!-- Node2 -->
<g id="node2" class="node"><title>Node2</title>
<g id="a_node2"><a xlink:href="classFrameDetectionData.html#a82ec4987a0e4321a2f7c7fc455efb476" target="_top" xlink:title="FrameDetectionData\l::AddElementsOfType">
<polygon fill="none" stroke="black" points="74.5,-39 74.5,-69 187.5,-69 187.5,-39 74.5,-39"/>
<text text-anchor="start" x="82.5" y="-57" font-family="Helvetica,sans-Serif" font-size="10.00">FrameDetectionData</text>
<text text-anchor="middle" x="131" y="-46" font-family="Helvetica,sans-Serif" font-size="10.00">::AddElementsOfType</text>
</a>
</g>
</g>
<!-- Node1&#45;&gt;Node2 -->
<g id="edge1" class="edge"><title>Node1&#45;&gt;Node2</title>
<path fill="none" stroke="midnightblue" d="M38.1643,-35.6329C45.5917,-37.1183 54.678,-38.9356 64.2145,-40.8429"/>
<polygon fill="midnightblue" stroke="midnightblue" points="63.7726,-44.3238 74.2649,-42.853 65.1455,-37.4597 63.7726,-44.3238"/>
</g>
<!-- Node3 -->
<g id="node3" class="node"><title>Node3</title>
<g id="a_node3"><a xlink:href="classAnalyser.html#ac90049a2162cf2a88cd92de7c5760d96" target="_top" xlink:title="Analyser::Analyse">
<polygon fill="none" stroke="black" points="83,-0.5 83,-19.5 179,-19.5 179,-0.5 83,-0.5"/>
<text text-anchor="middle" x="131" y="-7.5" font-family="Helvetica,sans-Serif" font-size="10.00">Analyser::Analyse</text>
</a>
</g>
</g>
<!-- Node1&#45;&gt;Node3 -->
<g id="edge2" class="edge"><title>Node1&#45;&gt;Node3</title>
<path fill="none" stroke="midnightblue" d="M38.1643,-28.3671C47.7942,-26.4412 60.2126,-23.9575 72.7854,-21.4429"/>
<polygon fill="midnightblue" stroke="midnightblue" points="73.7321,-24.823 82.8514,-19.4297 72.3592,-17.9589 73.7321,-24.823"/>
</g>
<!-- Node4 -->
<g id="node4" class="node"><title>Node4</title>
<g id="a_node4"><a xlink:href="classScenario.html#ae9069e102b3a61fce3bf3cd5ce8c2e4b" target="_top" xlink:title="Scenario::Detect">
<polygon fill="none" stroke="black" points="224,-0.5 224,-19.5 314,-19.5 314,-0.5 224,-0.5"/>
<text text-anchor="middle" x="269" y="-7.5" font-family="Helvetica,sans-Serif" font-size="10.00">Scenario::Detect</text>
</a>
</g>
</g>
<!-- Node3&#45;&gt;Node4 -->
<g id="edge3" class="edge"><title>Node3&#45;&gt;Node4</title>
<path fill="none" stroke="midnightblue" d="M179.185,-10C190.227,-10 202.08,-10 213.416,-10"/>
<polygon fill="midnightblue" stroke="midnightblue" points="213.642,-13.5001 223.642,-10 213.642,-6.5001 213.642,-13.5001"/>
</g>
</g>
</svg>
