<?xml version="1.0" encoding="UTF-8" standalone="no"?>
<!DOCTYPE svg PUBLIC "-//W3C//DTD SVG 1.1//EN"
 "http://www.w3.org/Graphics/SVG/1.1/DTD/svg11.dtd">
<!-- Generated by graphviz version 2.36.0 (20140111.2315)
 -->
<!-- Title: src/ScenarioAnalysation/scenario.h Pages: 1 -->
<svg width="484pt" height="264pt"
 viewBox="0.00 0.00 484.00 264.00" xmlns="http://www.w3.org/2000/svg" xmlns:xlink="http://www.w3.org/1999/xlink">
<g id="graph0" class="graph" transform="scale(1 1) rotate(0) translate(4 260)">
<title>src/ScenarioAnalysation/scenario.h</title>
<!-- Node1 -->
<g id="node1" class="node"><title>Node1</title>
<polygon fill="#bfbfbf" stroke="black" points="166,-225 166,-255 288,-255 288,-225 166,-225"/>
<text text-anchor="start" x="174" y="-243" font-family="Helvetica,sans-Serif" font-size="10.00">src/ScenarioAnalysation</text>
<text text-anchor="middle" x="227" y="-232" font-family="Helvetica,sans-Serif" font-size="10.00">/scenario.h</text>
</g>
<!-- Node2 -->
<g id="node2" class="node"><title>Node2</title>
<g id="a_node2"><a xlink:href="analyser_8h.html" target="_top" xlink:title="src/ScenarioAnalysation\l/analyser.h">
<polygon fill="none" stroke="black" points="32,-74 32,-104 154,-104 154,-74 32,-74"/>
<text text-anchor="start" x="40" y="-92" font-family="Helvetica,sans-Serif" font-size="10.00">src/ScenarioAnalysation</text>
<text text-anchor="middle" x="93" y="-81" font-family="Helvetica,sans-Serif" font-size="10.00">/analyser.h</text>
</a>
</g>
</g>
<!-- Node1&#45;&gt;Node2 -->
<g id="edge1" class="edge"><title>Node1&#45;&gt;Node2</title>
<path fill="none" stroke="midnightblue" d="M201.041,-218.532C190.357,-209.616 178.136,-198.759 168,-188 141.849,-160.243 115.805,-123.706 102.362,-104.019"/>
<polygon fill="midnightblue" stroke="midnightblue" points="198.9,-221.302 208.852,-224.937 203.339,-215.889 198.9,-221.302"/>
</g>
<!-- Node4 -->
<g id="node4" class="node"><title>Node4</title>
<g id="a_node4"><a xlink:href="ScenarioAnalysation_2main_8cpp.html" target="_top" xlink:title="src/ScenarioAnalysation\l/main.cpp">
<polygon fill="none" stroke="black" points="140,-1 140,-31 262,-31 262,-1 140,-1"/>
<text text-anchor="start" x="148" y="-19" font-family="Helvetica,sans-Serif" font-size="10.00">src/ScenarioAnalysation</text>
<text text-anchor="middle" x="201" y="-8" font-family="Helvetica,sans-Serif" font-size="10.00">/main.cpp</text>
</a>
</g>
</g>
<!-- Node1&#45;&gt;Node4 -->
<g id="edge8" class="edge"><title>Node1&#45;&gt;Node4</title>
<path fill="none" stroke="midnightblue" d="M212.425,-216.099C207.82,-207.612 203.327,-197.689 201,-188 187.341,-131.133 194.704,-60.5254 198.823,-31.0002"/>
<polygon fill="midnightblue" stroke="midnightblue" points="209.526,-218.078 217.562,-224.982 215.586,-214.573 209.526,-218.078"/>
</g>
<!-- Node5 -->
<g id="node5" class="node"><title>Node5</title>
<g id="a_node5"><a xlink:href="humans__in__front__of__bus__scenario_8h.html" target="_top" xlink:title="src/ScenarioAnalysation\l/humans_in_front_of_bus\l_scenario.h">
<polygon fill="none" stroke="black" points="210,-146.5 210,-187.5 336,-187.5 336,-146.5 210,-146.5"/>
<text text-anchor="start" x="218" y="-175.5" font-family="Helvetica,sans-Serif" font-size="10.00">src/ScenarioAnalysation</text>
<text text-anchor="start" x="218" y="-164.5" font-family="Helvetica,sans-Serif" font-size="10.00">/humans_in_front_of_bus</text>
<text text-anchor="middle" x="273" y="-153.5" font-family="Helvetica,sans-Serif" font-size="10.00">_scenario.h</text>
</a>
</g>
</g>
<!-- Node1&#45;&gt;Node5 -->
<g id="edge4" class="edge"><title>Node1&#45;&gt;Node5</title>
<path fill="none" stroke="midnightblue" d="M241.704,-216.305C247.679,-207.082 254.517,-196.528 260.274,-187.642"/>
<polygon fill="midnightblue" stroke="midnightblue" points="238.588,-214.677 236.088,-224.973 244.463,-218.483 238.588,-214.677"/>
</g>
<!-- Node7 -->
<g id="node7" class="node"><title>Node7</title>
<g id="a_node7"><a xlink:href="scenario_8cpp.html" target="_top" xlink:title="src/ScenarioAnalysation\l/scenario.cpp">
<polygon fill="none" stroke="black" points="354,-152 354,-182 476,-182 476,-152 354,-152"/>
<text text-anchor="start" x="362" y="-170" font-family="Helvetica,sans-Serif" font-size="10.00">src/ScenarioAnalysation</text>
<text text-anchor="middle" x="415" y="-159" font-family="Helvetica,sans-Serif" font-size="10.00">/scenario.cpp</text>
</a>
</g>
</g>
<!-- Node1&#45;&gt;Node7 -->
<g id="edge9" class="edge"><title>Node1&#45;&gt;Node7</title>
<path fill="none" stroke="midnightblue" d="M273.749,-221.345C305.807,-209.238 347.775,-193.388 377.613,-182.12"/>
<polygon fill="midnightblue" stroke="midnightblue" points="272.261,-218.165 264.143,-224.973 274.734,-224.714 272.261,-218.165"/>
</g>
<!-- Node3 -->
<g id="node3" class="node"><title>Node3</title>
<g id="a_node3"><a xlink:href="analyser_8cpp.html" target="_top" xlink:title="src/ScenarioAnalysation\l/analyser.cpp">
<polygon fill="none" stroke="black" points="0,-1 0,-31 122,-31 122,-1 0,-1"/>
<text text-anchor="start" x="8" y="-19" font-family="Helvetica,sans-Serif" font-size="10.00">src/ScenarioAnalysation</text>
<text text-anchor="middle" x="61" y="-8" font-family="Helvetica,sans-Serif" font-size="10.00">/analyser.cpp</text>
</a>
</g>
</g>
<!-- Node2&#45;&gt;Node3 -->
<g id="edge2" class="edge"><title>Node2&#45;&gt;Node3</title>
<path fill="none" stroke="midnightblue" d="M82.4393,-64.5684C77.5167,-53.6465 71.8145,-40.9946 67.5287,-31.4856"/>
<polygon fill="midnightblue" stroke="midnightblue" points="79.3779,-66.294 86.6778,-73.9727 85.7597,-63.4177 79.3779,-66.294"/>
</g>
<!-- Node2&#45;&gt;Node4 -->
<g id="edge3" class="edge"><title>Node2&#45;&gt;Node4</title>
<path fill="none" stroke="midnightblue" d="M122.729,-68.456C140.656,-56.6709 163.088,-41.9233 179.337,-31.2412"/>
<polygon fill="midnightblue" stroke="midnightblue" points="120.771,-65.5547 114.337,-73.9727 124.616,-71.4039 120.771,-65.5547"/>
</g>
<!-- Node5&#45;&gt;Node2 -->
<g id="edge5" class="edge"><title>Node5&#45;&gt;Node2</title>
<path fill="none" stroke="midnightblue" d="M217.213,-142.446C187.466,-129.886 151.859,-114.852 126.41,-104.106"/>
<polygon fill="midnightblue" stroke="midnightblue" points="216.072,-145.763 226.646,-146.428 218.794,-139.314 216.072,-145.763"/>
</g>
<!-- Node5&#45;&gt;Node4 -->
<g id="edge7" class="edge"><title>Node5&#45;&gt;Node4</title>
<path fill="none" stroke="midnightblue" d="M254.69,-137.8C249.336,-129.053 243.672,-119.272 239,-110 225.343,-82.8981 212.696,-49.6742 205.995,-31.1707"/>
<polygon fill="midnightblue" stroke="midnightblue" points="251.84,-139.844 260.102,-146.476 257.779,-136.139 251.84,-139.844"/>
</g>
<!-- Node6 -->
<g id="node6" class="node"><title>Node6</title>
<g id="a_node6"><a xlink:href="humans__in__front__of__bus__scenario_8cpp.html" target="_top" xlink:title="src/ScenarioAnalysation\l/humans_in_front_of_bus\l_scenario.cpp">
<polygon fill="none" stroke="black" points="248,-68.5 248,-109.5 374,-109.5 374,-68.5 248,-68.5"/>
<text text-anchor="start" x="256" y="-97.5" font-family="Helvetica,sans-Serif" font-size="10.00">src/ScenarioAnalysation</text>
<text text-anchor="start" x="256" y="-86.5" font-family="Helvetica,sans-Serif" font-size="10.00">/humans_in_front_of_bus</text>
<text text-anchor="middle" x="311" y="-75.5" font-family="Helvetica,sans-Serif" font-size="10.00">_scenario.cpp</text>
</a>
</g>
</g>
<!-- Node5&#45;&gt;Node6 -->
<g id="edge6" class="edge"><title>Node5&#45;&gt;Node6</title>
<path fill="none" stroke="midnightblue" d="M287.267,-137.466C291.929,-128.143 296.996,-118.007 301.247,-109.506"/>
<polygon fill="midnightblue" stroke="midnightblue" points="284.128,-135.919 282.786,-146.428 290.389,-139.049 284.128,-135.919"/>
</g>
</g>
</svg>
