<?xml version="1.0" encoding="UTF-8" standalone="no"?>
<!DOCTYPE svg PUBLIC "-//W3C//DTD SVG 1.1//EN"
 "http://www.w3.org/Graphics/SVG/1.1/DTD/svg11.dtd">
<!-- Generated by graphviz version 2.36.0 (20140111.2315)
 -->
<!-- Title: src/ScenarioAnalysation/scenario.h Pages: 1 -->
<svg width="264pt" height="220pt"
 viewBox="0.00 0.00 264.00 220.00" xmlns="http://www.w3.org/2000/svg" xmlns:xlink="http://www.w3.org/1999/xlink">
<g id="graph0" class="graph" transform="scale(1 1) rotate(0) translate(4 216)">
<title>src/ScenarioAnalysation/scenario.h</title>
<!-- Node1 -->
<g id="node1" class="node"><title>Node1</title>
<polygon fill="#bfbfbf" stroke="black" points="104,-181 104,-211 226,-211 226,-181 104,-181"/>
<text text-anchor="start" x="112" y="-199" font-family="Helvetica,sans-Serif" font-size="10.00">src/ScenarioAnalysation</text>
<text text-anchor="middle" x="165" y="-188" font-family="Helvetica,sans-Serif" font-size="10.00">/scenario.h</text>
</g>
<!-- Node2 -->
<g id="node2" class="node"><title>Node2</title>
<g id="a_node2"><a xlink:href="frame__detection__data_8h.html" target="_top" xlink:title="../ObjectDetection\l/frame_detection_data.h">
<polygon fill="none" stroke="black" points="51,-113 51,-143 173,-143 173,-113 51,-113"/>
<text text-anchor="start" x="59" y="-131" font-family="Helvetica,sans-Serif" font-size="10.00">../ObjectDetection</text>
<text text-anchor="middle" x="112" y="-120" font-family="Helvetica,sans-Serif" font-size="10.00">/frame_detection_data.h</text>
</a>
</g>
</g>
<!-- Node1&#45;&gt;Node2 -->
<g id="edge1" class="edge"><title>Node1&#45;&gt;Node2</title>
<path fill="none" stroke="midnightblue" d="M153.5,-180.679C146.624,-172.117 137.739,-161.053 129.956,-151.36"/>
<polygon fill="midnightblue" stroke="midnightblue" points="132.468,-148.899 123.478,-143.293 127.01,-153.282 132.468,-148.899"/>
</g>
<!-- Node7 -->
<g id="node7" class="node"><title>Node7</title>
<g id="a_node7"><a xlink:href="element_8h.html" target="_top" xlink:title="element.h">
<polygon fill="none" stroke="black" points="197.5,-56.5 197.5,-75.5 256.5,-75.5 256.5,-56.5 197.5,-56.5"/>
<text text-anchor="middle" x="227" y="-63.5" font-family="Helvetica,sans-Serif" font-size="10.00">element.h</text>
</a>
</g>
</g>
<!-- Node1&#45;&gt;Node7 -->
<g id="edge8" class="edge"><title>Node1&#45;&gt;Node7</title>
<path fill="none" stroke="midnightblue" d="M171.872,-180.813C183.233,-157.357 205.91,-110.541 218.346,-84.8659"/>
<polygon fill="midnightblue" stroke="midnightblue" points="221.638,-86.0994 222.847,-75.5738 215.338,-83.0479 221.638,-86.0994"/>
</g>
<!-- Node3 -->
<g id="node3" class="node"><title>Node3</title>
<polygon fill="none" stroke="#bfbfbf" points="-0.5,-56.5 -0.5,-75.5 28.5,-75.5 28.5,-56.5 -0.5,-56.5"/>
<text text-anchor="middle" x="14" y="-63.5" font-family="Helvetica,sans-Serif" font-size="10.00">list</text>
</g>
<!-- Node2&#45;&gt;Node3 -->
<g id="edge2" class="edge"><title>Node2&#45;&gt;Node3</title>
<path fill="none" stroke="midnightblue" d="M88.7754,-112.781C72.9721,-103.105 52.1683,-90.3684 36.5172,-80.7861"/>
<polygon fill="midnightblue" stroke="midnightblue" points="38.3304,-77.7923 27.9743,-75.5557 34.6753,-83.7623 38.3304,-77.7923"/>
</g>
<!-- Node4 -->
<g id="node4" class="node"><title>Node4</title>
<polygon fill="none" stroke="#bfbfbf" points="120,-0.5 120,-19.5 164,-19.5 164,-0.5 120,-0.5"/>
<text text-anchor="middle" x="142" y="-7.5" font-family="Helvetica,sans-Serif" font-size="10.00">vector</text>
</g>
<!-- Node2&#45;&gt;Node4 -->
<g id="edge3" class="edge"><title>Node2&#45;&gt;Node4</title>
<path fill="none" stroke="midnightblue" d="M96.2504,-112.783C82.3133,-98.397 65.6677,-75.5502 76,-56 83.4764,-41.8536 97.6194,-31.3181 110.901,-24.0121"/>
<polygon fill="midnightblue" stroke="midnightblue" points="112.531,-27.1101 119.867,-19.4654 109.365,-20.867 112.531,-27.1101"/>
</g>
<!-- Node5 -->
<g id="node5" class="node"><title>Node5</title>
<polygon fill="none" stroke="#bfbfbf" points="85.5,-56.5 85.5,-75.5 120.5,-75.5 120.5,-56.5 85.5,-56.5"/>
<text text-anchor="middle" x="103" y="-63.5" font-family="Helvetica,sans-Serif" font-size="10.00">map</text>
</g>
<!-- Node2&#45;&gt;Node5 -->
<g id="edge4" class="edge"><title>Node2&#45;&gt;Node5</title>
<path fill="none" stroke="midnightblue" d="M109.867,-112.781C108.654,-104.691 107.119,-94.4617 105.809,-85.725"/>
<polygon fill="midnightblue" stroke="midnightblue" points="109.254,-85.1007 104.31,-75.7305 102.332,-86.1391 109.254,-85.1007"/>
</g>
<!-- Node6 -->
<g id="node6" class="node"><title>Node6</title>
<polygon fill="none" stroke="#bfbfbf" points="138.5,-56.5 138.5,-75.5 179.5,-75.5 179.5,-56.5 138.5,-56.5"/>
<text text-anchor="middle" x="159" y="-63.5" font-family="Helvetica,sans-Serif" font-size="10.00">string</text>
</g>
<!-- Node2&#45;&gt;Node6 -->
<g id="edge5" class="edge"><title>Node2&#45;&gt;Node6</title>
<path fill="none" stroke="midnightblue" d="M123.138,-112.781C129.968,-104.062 138.745,-92.8574 145.906,-83.7153"/>
<polygon fill="midnightblue" stroke="midnightblue" points="148.75,-85.7612 152.161,-75.7305 143.239,-81.4445 148.75,-85.7612"/>
</g>
<!-- Node2&#45;&gt;Node7 -->
<g id="edge6" class="edge"><title>Node2&#45;&gt;Node7</title>
<path fill="none" stroke="midnightblue" d="M138.962,-112.933C157.845,-103.081 182.916,-90.0004 201.473,-80.3182"/>
<polygon fill="midnightblue" stroke="midnightblue" points="203.27,-83.3288 210.517,-75.6 200.032,-77.1227 203.27,-83.3288"/>
</g>
<!-- Node7&#45;&gt;Node4 -->
<g id="edge7" class="edge"><title>Node7&#45;&gt;Node4</title>
<path fill="none" stroke="midnightblue" d="M213.343,-56.324C200.084,-47.9002 179.732,-34.9709 164.154,-25.0741"/>
<polygon fill="midnightblue" stroke="midnightblue" points="165.94,-22.0626 155.623,-19.6545 162.187,-27.9711 165.94,-22.0626"/>
</g>
</g>
</svg>
