<?xml version="1.0" encoding="UTF-8" standalone="no"?>
<!DOCTYPE svg PUBLIC "-//W3C//DTD SVG 1.1//EN"
 "http://www.w3.org/Graphics/SVG/1.1/DTD/svg11.dtd">
<!-- Generated by graphviz version 2.36.0 (20140111.2315)
 -->
<!-- Title: src/ScenarioAnalysation/main.cpp Pages: 1 -->
<svg width="495pt" height="400pt"
 viewBox="0.00 0.00 495.00 400.00" xmlns="http://www.w3.org/2000/svg" xmlns:xlink="http://www.w3.org/1999/xlink">
<g id="graph0" class="graph" transform="scale(1 1) rotate(0) translate(4 396)">
<title>src/ScenarioAnalysation/main.cpp</title>
<!-- Node1 -->
<g id="node1" class="node"><title>Node1</title>
<polygon fill="#bfbfbf" stroke="black" points="136,-361 136,-391 258,-391 258,-361 136,-361"/>
<text text-anchor="start" x="144" y="-379" font-family="Helvetica,sans-Serif" font-size="10.00">src/ScenarioAnalysation</text>
<text text-anchor="middle" x="197" y="-368" font-family="Helvetica,sans-Serif" font-size="10.00">/main.cpp</text>
</g>
<!-- Node2 -->
<g id="node2" class="node"><title>Node2</title>
<polygon fill="none" stroke="#bfbfbf" points="0,-304.5 0,-323.5 54,-323.5 54,-304.5 0,-304.5"/>
<text text-anchor="middle" x="27" y="-311.5" font-family="Helvetica,sans-Serif" font-size="10.00">iostream</text>
</g>
<!-- Node1&#45;&gt;Node2 -->
<g id="edge1" class="edge"><title>Node1&#45;&gt;Node2</title>
<path fill="none" stroke="midnightblue" d="M157.143,-360.933C127.949,-350.629 88.7483,-336.794 61.0225,-327.008"/>
<polygon fill="midnightblue" stroke="midnightblue" points="61.9615,-323.628 51.3667,-323.6 59.6318,-330.229 61.9615,-323.628"/>
</g>
<!-- Node3 -->
<g id="node3" class="node"><title>Node3</title>
<polygon fill="none" stroke="#bfbfbf" points="228,-0.5 228,-19.5 272,-19.5 272,-0.5 228,-0.5"/>
<text text-anchor="middle" x="250" y="-7.5" font-family="Helvetica,sans-Serif" font-size="10.00">vector</text>
</g>
<!-- Node1&#45;&gt;Node3 -->
<g id="edge2" class="edge"><title>Node1&#45;&gt;Node3</title>
<path fill="none" stroke="midnightblue" d="M168.868,-360.89C134.822,-341.587 82,-303.501 82,-253 82,-253 82,-253 82,-127 82,-61.6469 169.152,-30.2586 217.914,-17.8116"/>
<polygon fill="midnightblue" stroke="midnightblue" points="218.799,-21.1983 227.691,-15.4376 217.147,-14.396 218.799,-21.1983"/>
</g>
<!-- Node4 -->
<g id="node4" class="node"><title>Node4</title>
<polygon fill="none" stroke="#bfbfbf" points="458.5,-56.5 458.5,-75.5 487.5,-75.5 487.5,-56.5 458.5,-56.5"/>
<text text-anchor="middle" x="473" y="-63.5" font-family="Helvetica,sans-Serif" font-size="10.00">list</text>
</g>
<!-- Node1&#45;&gt;Node4 -->
<g id="edge3" class="edge"><title>Node1&#45;&gt;Node4</title>
<path fill="none" stroke="midnightblue" d="M258.267,-373.614C338.756,-368.163 470,-345.146 470,-253 470,-253 470,-253 470,-189 470,-152.403 471.366,-109.649 472.254,-85.7088"/>
<polygon fill="midnightblue" stroke="midnightblue" points="475.757,-85.7043 472.644,-75.5771 468.762,-85.4351 475.757,-85.7043"/>
</g>
<!-- Node5 -->
<g id="node5" class="node"><title>Node5</title>
<g id="a_node5"><a xlink:href="analyser_8h.html" target="_top" xlink:title="analyser.h">
<polygon fill="none" stroke="black" points="285,-304.5 285,-323.5 347,-323.5 347,-304.5 285,-304.5"/>
<text text-anchor="middle" x="316" y="-311.5" font-family="Helvetica,sans-Serif" font-size="10.00">analyser.h</text>
</a>
</g>
</g>
<!-- Node1&#45;&gt;Node5 -->
<g id="edge4" class="edge"><title>Node1&#45;&gt;Node5</title>
<path fill="none" stroke="midnightblue" d="M224.9,-360.933C244.529,-351.036 270.621,-337.88 289.849,-328.185"/>
<polygon fill="midnightblue" stroke="midnightblue" points="291.59,-331.227 298.943,-323.6 288.438,-324.977 291.59,-331.227"/>
</g>
<!-- Node6 -->
<g id="node6" class="node"><title>Node6</title>
<g id="a_node6"><a xlink:href="frame__detection__data_8h.html" target="_top" xlink:title="../ObjectDetection\l/frame_detection_data.h">
<polygon fill="none" stroke="black" points="273,-113 273,-143 395,-143 395,-113 273,-113"/>
<text text-anchor="start" x="281" y="-131" font-family="Helvetica,sans-Serif" font-size="10.00">../ObjectDetection</text>
<text text-anchor="middle" x="334" y="-120" font-family="Helvetica,sans-Serif" font-size="10.00">/frame_detection_data.h</text>
</a>
</g>
</g>
<!-- Node1&#45;&gt;Node6 -->
<g id="edge20" class="edge"><title>Node1&#45;&gt;Node6</title>
<path fill="none" stroke="midnightblue" d="M258.121,-372.113C292.546,-366.972 332.946,-354.294 355,-324 392.597,-272.358 363.813,-191.685 345.748,-152.263"/>
<polygon fill="midnightblue" stroke="midnightblue" points="348.883,-150.705 341.433,-143.172 342.559,-153.707 348.883,-150.705"/>
</g>
<!-- Node9 -->
<g id="node9" class="node"><title>Node9</title>
<g id="a_node9"><a xlink:href="element_8h.html" target="_top" xlink:title="element.h">
<polygon fill="none" stroke="black" points="191.5,-56.5 191.5,-75.5 250.5,-75.5 250.5,-56.5 191.5,-56.5"/>
<text text-anchor="middle" x="221" y="-63.5" font-family="Helvetica,sans-Serif" font-size="10.00">element.h</text>
</a>
</g>
</g>
<!-- Node1&#45;&gt;Node9 -->
<g id="edge21" class="edge"><title>Node1&#45;&gt;Node9</title>
<path fill="none" stroke="midnightblue" d="M180.292,-360.696C157.646,-339.616 120,-297.833 120,-253 120,-253 120,-253 120,-189 120,-140.657 167.637,-101.173 197.479,-81.1817"/>
<polygon fill="midnightblue" stroke="midnightblue" points="199.596,-83.9809 206.097,-75.6149 195.798,-78.101 199.596,-83.9809"/>
</g>
<!-- Node10 -->
<g id="node10" class="node"><title>Node10</title>
<g id="a_node10"><a xlink:href="scenario_8h.html" target="_top" xlink:title="scenario.h">
<polygon fill="none" stroke="black" points="206,-180.5 206,-199.5 268,-199.5 268,-180.5 206,-180.5"/>
<text text-anchor="middle" x="237" y="-187.5" font-family="Helvetica,sans-Serif" font-size="10.00">scenario.h</text>
</a>
</g>
</g>
<!-- Node1&#45;&gt;Node10 -->
<g id="edge19" class="edge"><title>Node1&#45;&gt;Node10</title>
<path fill="none" stroke="midnightblue" d="M189.759,-360.723C177.558,-334.526 156.175,-277.651 177,-236 183.728,-222.543 196.606,-212.067 208.712,-204.621"/>
<polygon fill="midnightblue" stroke="midnightblue" points="210.733,-207.498 217.704,-199.52 207.279,-201.41 210.733,-207.498"/>
</g>
<!-- Node11 -->
<g id="node11" class="node"><title>Node11</title>
<g id="a_node11"><a xlink:href="humans__in__front__of__bus__scenario_8h.html" target="_top" xlink:title="humans_in_front_of\l_bus_scenario.h">
<polygon fill="none" stroke="black" points="186,-237 186,-267 288,-267 288,-237 186,-237"/>
<text text-anchor="start" x="194" y="-255" font-family="Helvetica,sans-Serif" font-size="10.00">humans_in_front_of</text>
<text text-anchor="middle" x="237" y="-244" font-family="Helvetica,sans-Serif" font-size="10.00">_bus_scenario.h</text>
</a>
</g>
</g>
<!-- Node1&#45;&gt;Node11 -->
<g id="edge18" class="edge"><title>Node1&#45;&gt;Node11</title>
<path fill="none" stroke="midnightblue" d="M201.746,-360.526C208.518,-339.87 221.035,-301.692 229.187,-276.829"/>
<polygon fill="midnightblue" stroke="midnightblue" points="232.594,-277.671 232.384,-267.079 225.943,-275.491 232.594,-277.671"/>
</g>
<!-- Node5&#45;&gt;Node3 -->
<g id="edge5" class="edge"><title>Node5&#45;&gt;Node3</title>
<path fill="none" stroke="midnightblue" d="M333.812,-304.373C365.875,-287.454 430,-246.658 430,-191 430,-191 430,-191 430,-127 430,-94.2164 433.186,-79.1768 410,-56 376.062,-22.0758 318.7,-13.2368 282.667,-11.2077"/>
<polygon fill="midnightblue" stroke="midnightblue" points="282.355,-7.69187 272.219,-10.7763 282.066,-14.6859 282.355,-7.69187"/>
</g>
<!-- Node5&#45;&gt;Node6 -->
<g id="edge6" class="edge"><title>Node5&#45;&gt;Node6</title>
<path fill="none" stroke="midnightblue" d="M316.868,-304.125C319.524,-276.975 327.604,-194.379 331.646,-153.065"/>
<polygon fill="midnightblue" stroke="midnightblue" points="335.135,-153.341 332.626,-143.047 328.169,-152.659 335.135,-153.341"/>
</g>
<!-- Node5&#45;&gt;Node10 -->
<g id="edge13" class="edge"><title>Node5&#45;&gt;Node10</title>
<path fill="none" stroke="midnightblue" d="M315.559,-304.165C314.423,-289.014 310.374,-257.624 296,-236 287.532,-223.262 274.228,-212.659 262.394,-204.952"/>
<polygon fill="midnightblue" stroke="midnightblue" points="264.089,-201.886 253.736,-199.635 260.426,-207.851 264.089,-201.886"/>
</g>
<!-- Node5&#45;&gt;Node11 -->
<g id="edge16" class="edge"><title>Node5&#45;&gt;Node11</title>
<path fill="none" stroke="midnightblue" d="M304.681,-304.403C294.082,-296.353 277.833,-284.013 263.914,-273.441"/>
<polygon fill="midnightblue" stroke="midnightblue" points="265.699,-270.402 255.619,-267.141 261.465,-275.976 265.699,-270.402"/>
</g>
<!-- Node6&#45;&gt;Node3 -->
<g id="edge8" class="edge"><title>Node6&#45;&gt;Node3</title>
<path fill="none" stroke="midnightblue" d="M323.7,-112.776C308.221,-91.4007 279.009,-51.0601 262.389,-28.1083"/>
<polygon fill="midnightblue" stroke="midnightblue" points="265.005,-25.7536 256.305,-19.707 259.335,-29.8592 265.005,-25.7536"/>
</g>
<!-- Node6&#45;&gt;Node4 -->
<g id="edge7" class="edge"><title>Node6&#45;&gt;Node4</title>
<path fill="none" stroke="midnightblue" d="M366.589,-112.933C391.893,-102.01 426.392,-87.1187 449.161,-77.2901"/>
<polygon fill="midnightblue" stroke="midnightblue" points="450.637,-80.4652 458.431,-73.2887 447.863,-74.0384 450.637,-80.4652"/>
</g>
<!-- Node7 -->
<g id="node7" class="node"><title>Node7</title>
<polygon fill="none" stroke="#bfbfbf" points="366.5,-56.5 366.5,-75.5 401.5,-75.5 401.5,-56.5 366.5,-56.5"/>
<text text-anchor="middle" x="384" y="-63.5" font-family="Helvetica,sans-Serif" font-size="10.00">map</text>
</g>
<!-- Node6&#45;&gt;Node7 -->
<g id="edge9" class="edge"><title>Node6&#45;&gt;Node7</title>
<path fill="none" stroke="midnightblue" d="M345.849,-112.781C353.19,-103.972 362.645,-92.6262 370.306,-83.4332"/>
<polygon fill="midnightblue" stroke="midnightblue" points="373.011,-85.6534 376.725,-75.7305 367.634,-81.1721 373.011,-85.6534"/>
</g>
<!-- Node8 -->
<g id="node8" class="node"><title>Node8</title>
<polygon fill="none" stroke="#bfbfbf" points="307.5,-56.5 307.5,-75.5 348.5,-75.5 348.5,-56.5 307.5,-56.5"/>
<text text-anchor="middle" x="328" y="-63.5" font-family="Helvetica,sans-Serif" font-size="10.00">string</text>
</g>
<!-- Node6&#45;&gt;Node8 -->
<g id="edge10" class="edge"><title>Node6&#45;&gt;Node8</title>
<path fill="none" stroke="midnightblue" d="M332.578,-112.781C331.769,-104.691 330.746,-94.4617 329.873,-85.725"/>
<polygon fill="midnightblue" stroke="midnightblue" points="333.351,-85.3326 328.873,-75.7305 326.386,-86.0292 333.351,-85.3326"/>
</g>
<!-- Node6&#45;&gt;Node9 -->
<g id="edge11" class="edge"><title>Node6&#45;&gt;Node9</title>
<path fill="none" stroke="midnightblue" d="M307.507,-112.933C288.953,-103.081 264.317,-90.0004 246.083,-80.3182"/>
<polygon fill="midnightblue" stroke="midnightblue" points="247.67,-77.1985 237.197,-75.6 244.388,-83.381 247.67,-77.1985"/>
</g>
<!-- Node9&#45;&gt;Node3 -->
<g id="edge12" class="edge"><title>Node9&#45;&gt;Node3</title>
<path fill="none" stroke="midnightblue" d="M225.789,-56.083C229.758,-48.6913 235.525,-37.9533 240.435,-28.8111"/>
<polygon fill="midnightblue" stroke="midnightblue" points="243.653,-30.217 245.3,-19.7511 237.486,-26.9051 243.653,-30.217"/>
</g>
<!-- Node10&#45;&gt;Node6 -->
<g id="edge14" class="edge"><title>Node10&#45;&gt;Node6</title>
<path fill="none" stroke="midnightblue" d="M250.898,-180.403C264.281,-172.125 284.998,-159.311 302.398,-148.547"/>
<polygon fill="midnightblue" stroke="midnightblue" points="304.476,-151.378 311.139,-143.141 300.793,-145.425 304.476,-151.378"/>
</g>
<!-- Node10&#45;&gt;Node9 -->
<g id="edge15" class="edge"><title>Node10&#45;&gt;Node9</title>
<path fill="none" stroke="midnightblue" d="M235.849,-180.226C233.266,-160.53 226.959,-112.437 223.453,-85.7004"/>
<polygon fill="midnightblue" stroke="midnightblue" points="226.911,-85.1544 222.14,-75.6944 219.97,-86.0647 226.911,-85.1544"/>
</g>
<!-- Node11&#45;&gt;Node10 -->
<g id="edge17" class="edge"><title>Node11&#45;&gt;Node10</title>
<path fill="none" stroke="midnightblue" d="M237,-236.781C237,-228.781 237,-218.689 237,-210.017"/>
<polygon fill="midnightblue" stroke="midnightblue" points="240.5,-209.73 237,-199.731 233.5,-209.731 240.5,-209.73"/>
</g>
</g>
</svg>
