<?xml version="1.0" encoding="UTF-8" standalone="no"?>
<!DOCTYPE svg PUBLIC "-//W3C//DTD SVG 1.1//EN"
 "http://www.w3.org/Graphics/SVG/1.1/DTD/svg11.dtd">
<!-- Generated by graphviz version 2.36.0 (20140111.2315)
 -->
<!-- Title: src/ScenarioAnalysation/scenario.cpp Pages: 1 -->
<svg width="268pt" height="276pt"
 viewBox="0.00 0.00 268.00 276.00" xmlns="http://www.w3.org/2000/svg" xmlns:xlink="http://www.w3.org/1999/xlink">
<g id="graph0" class="graph" transform="scale(1 1) rotate(0) translate(4 272)">
<title>src/ScenarioAnalysation/scenario.cpp</title>
<!-- Node1 -->
<g id="node1" class="node"><title>Node1</title>
<polygon fill="#bfbfbf" stroke="black" points="35,-237 35,-267 157,-267 157,-237 35,-237"/>
<text text-anchor="start" x="43" y="-255" font-family="Helvetica,sans-Serif" font-size="10.00">src/ScenarioAnalysation</text>
<text text-anchor="middle" x="96" y="-244" font-family="Helvetica,sans-Serif" font-size="10.00">/scenario.cpp</text>
</g>
<!-- Node2 -->
<g id="node2" class="node"><title>Node2</title>
<polygon fill="none" stroke="#bfbfbf" points="0,-180.5 0,-199.5 54,-199.5 54,-180.5 0,-180.5"/>
<text text-anchor="middle" x="27" y="-187.5" font-family="Helvetica,sans-Serif" font-size="10.00">iostream</text>
</g>
<!-- Node1&#45;&gt;Node2 -->
<g id="edge1" class="edge"><title>Node1&#45;&gt;Node2</title>
<path fill="none" stroke="midnightblue" d="M79.648,-236.781C69.1046,-227.613 55.4001,-215.696 44.6164,-206.319"/>
<polygon fill="midnightblue" stroke="midnightblue" points="46.8828,-203.651 37.0401,-199.731 42.2896,-208.933 46.8828,-203.651"/>
</g>
<!-- Node3 -->
<g id="node3" class="node"><title>Node3</title>
<polygon fill="none" stroke="#bfbfbf" points="72.5,-180.5 72.5,-199.5 119.5,-199.5 119.5,-180.5 72.5,-180.5"/>
<text text-anchor="middle" x="96" y="-187.5" font-family="Helvetica,sans-Serif" font-size="10.00">math.h</text>
</g>
<!-- Node1&#45;&gt;Node3 -->
<g id="edge2" class="edge"><title>Node1&#45;&gt;Node3</title>
<path fill="none" stroke="midnightblue" d="M96,-236.781C96,-228.781 96,-218.689 96,-210.017"/>
<polygon fill="midnightblue" stroke="midnightblue" points="99.5001,-209.73 96,-199.731 92.5001,-209.731 99.5001,-209.73"/>
</g>
<!-- Node4 -->
<g id="node4" class="node"><title>Node4</title>
<g id="a_node4"><a xlink:href="scenario_8h.html" target="_top" xlink:title="scenario.h">
<polygon fill="none" stroke="black" points="138,-180.5 138,-199.5 200,-199.5 200,-180.5 138,-180.5"/>
<text text-anchor="middle" x="169" y="-187.5" font-family="Helvetica,sans-Serif" font-size="10.00">scenario.h</text>
</a>
</g>
</g>
<!-- Node1&#45;&gt;Node4 -->
<g id="edge3" class="edge"><title>Node1&#45;&gt;Node4</title>
<path fill="none" stroke="midnightblue" d="M113.3,-236.781C124.455,-227.613 138.954,-215.696 150.362,-206.319"/>
<polygon fill="midnightblue" stroke="midnightblue" points="152.875,-208.784 158.378,-199.731 148.43,-203.376 152.875,-208.784"/>
</g>
<!-- Node5 -->
<g id="node5" class="node"><title>Node5</title>
<g id="a_node5"><a xlink:href="frame__detection__data_8h.html" target="_top" xlink:title="../ObjectDetection\l/frame_detection_data.h">
<polygon fill="none" stroke="black" points="55,-113 55,-143 177,-143 177,-113 55,-113"/>
<text text-anchor="start" x="63" y="-131" font-family="Helvetica,sans-Serif" font-size="10.00">../ObjectDetection</text>
<text text-anchor="middle" x="116" y="-120" font-family="Helvetica,sans-Serif" font-size="10.00">/frame_detection_data.h</text>
</a>
</g>
</g>
<!-- Node4&#45;&gt;Node5 -->
<g id="edge4" class="edge"><title>Node4&#45;&gt;Node5</title>
<path fill="none" stroke="midnightblue" d="M161.406,-180.403C154.564,-172.657 144.212,-160.938 135.119,-150.645"/>
<polygon fill="midnightblue" stroke="midnightblue" points="137.735,-148.318 128.491,-143.141 132.488,-152.953 137.735,-148.318"/>
</g>
<!-- Node10 -->
<g id="node10" class="node"><title>Node10</title>
<g id="a_node10"><a xlink:href="element_8h.html" target="_top" xlink:title="element.h">
<polygon fill="none" stroke="black" points="201.5,-56.5 201.5,-75.5 260.5,-75.5 260.5,-56.5 201.5,-56.5"/>
<text text-anchor="middle" x="231" y="-63.5" font-family="Helvetica,sans-Serif" font-size="10.00">element.h</text>
</a>
</g>
</g>
<!-- Node4&#45;&gt;Node10 -->
<g id="edge11" class="edge"><title>Node4&#45;&gt;Node10</title>
<path fill="none" stroke="midnightblue" d="M173.459,-180.226C183.602,-160.266 208.566,-111.144 222.037,-84.6378"/>
<polygon fill="midnightblue" stroke="midnightblue" points="225.171,-86.195 226.582,-75.6944 218.931,-83.0236 225.171,-86.195"/>
</g>
<!-- Node6 -->
<g id="node6" class="node"><title>Node6</title>
<polygon fill="none" stroke="#bfbfbf" points="3.5,-56.5 3.5,-75.5 32.5,-75.5 32.5,-56.5 3.5,-56.5"/>
<text text-anchor="middle" x="18" y="-63.5" font-family="Helvetica,sans-Serif" font-size="10.00">list</text>
</g>
<!-- Node5&#45;&gt;Node6 -->
<g id="edge5" class="edge"><title>Node5&#45;&gt;Node6</title>
<path fill="none" stroke="midnightblue" d="M92.7754,-112.781C76.9721,-103.105 56.1683,-90.3684 40.5172,-80.7861"/>
<polygon fill="midnightblue" stroke="midnightblue" points="42.3304,-77.7923 31.9743,-75.5557 38.6753,-83.7623 42.3304,-77.7923"/>
</g>
<!-- Node7 -->
<g id="node7" class="node"><title>Node7</title>
<polygon fill="none" stroke="#bfbfbf" points="124,-0.5 124,-19.5 168,-19.5 168,-0.5 124,-0.5"/>
<text text-anchor="middle" x="146" y="-7.5" font-family="Helvetica,sans-Serif" font-size="10.00">vector</text>
</g>
<!-- Node5&#45;&gt;Node7 -->
<g id="edge6" class="edge"><title>Node5&#45;&gt;Node7</title>
<path fill="none" stroke="midnightblue" d="M100.621,-112.752C87.0182,-98.342 70.7951,-75.4768 81,-56 88.2787,-42.1082 102.009,-31.6523 114.983,-24.3328"/>
<polygon fill="midnightblue" stroke="midnightblue" points="116.928,-27.2662 124.192,-19.553 113.704,-21.0532 116.928,-27.2662"/>
</g>
<!-- Node8 -->
<g id="node8" class="node"><title>Node8</title>
<polygon fill="none" stroke="#bfbfbf" points="89.5,-56.5 89.5,-75.5 124.5,-75.5 124.5,-56.5 89.5,-56.5"/>
<text text-anchor="middle" x="107" y="-63.5" font-family="Helvetica,sans-Serif" font-size="10.00">map</text>
</g>
<!-- Node5&#45;&gt;Node8 -->
<g id="edge7" class="edge"><title>Node5&#45;&gt;Node8</title>
<path fill="none" stroke="midnightblue" d="M113.867,-112.781C112.654,-104.691 111.119,-94.4617 109.809,-85.725"/>
<polygon fill="midnightblue" stroke="midnightblue" points="113.254,-85.1007 108.31,-75.7305 106.332,-86.1391 113.254,-85.1007"/>
</g>
<!-- Node9 -->
<g id="node9" class="node"><title>Node9</title>
<polygon fill="none" stroke="#bfbfbf" points="142.5,-56.5 142.5,-75.5 183.5,-75.5 183.5,-56.5 142.5,-56.5"/>
<text text-anchor="middle" x="163" y="-63.5" font-family="Helvetica,sans-Serif" font-size="10.00">string</text>
</g>
<!-- Node5&#45;&gt;Node9 -->
<g id="edge8" class="edge"><title>Node5&#45;&gt;Node9</title>
<path fill="none" stroke="midnightblue" d="M127.138,-112.781C133.968,-104.062 142.745,-92.8574 149.906,-83.7153"/>
<polygon fill="midnightblue" stroke="midnightblue" points="152.75,-85.7612 156.161,-75.7305 147.239,-81.4445 152.75,-85.7612"/>
</g>
<!-- Node5&#45;&gt;Node10 -->
<g id="edge9" class="edge"><title>Node5&#45;&gt;Node10</title>
<path fill="none" stroke="midnightblue" d="M142.962,-112.933C161.845,-103.081 186.916,-90.0004 205.473,-80.3182"/>
<polygon fill="midnightblue" stroke="midnightblue" points="207.27,-83.3288 214.517,-75.6 204.032,-77.1227 207.27,-83.3288"/>
</g>
<!-- Node10&#45;&gt;Node7 -->
<g id="edge10" class="edge"><title>Node10&#45;&gt;Node7</title>
<path fill="none" stroke="midnightblue" d="M217.343,-56.324C204.084,-47.9002 183.732,-34.9709 168.154,-25.0741"/>
<polygon fill="midnightblue" stroke="midnightblue" points="169.94,-22.0626 159.623,-19.6545 166.187,-27.9711 169.94,-22.0626"/>
</g>
</g>
</svg>
