<?xml version="1.0" encoding="UTF-8" standalone="no"?>
<!DOCTYPE svg PUBLIC "-//W3C//DTD SVG 1.1//EN"
 "http://www.w3.org/Graphics/SVG/1.1/DTD/svg11.dtd">
<!-- Generated by graphviz version 2.36.0 (20140111.2315)
 -->
<!-- Title: src/CarCommunication/server.cpp Pages: 1 -->
<svg width="1027pt" height="164pt"
 viewBox="0.00 0.00 1026.89 164.00" xmlns="http://www.w3.org/2000/svg" xmlns:xlink="http://www.w3.org/1999/xlink">
<g id="graph0" class="graph" transform="scale(1 1) rotate(0) translate(4 160)">
<title>src/CarCommunication/server.cpp</title>
<!-- Node1 -->
<g id="node1" class="node"><title>Node1</title>
<polygon fill="#bfbfbf" stroke="black" points="216.392,-125 216.392,-155 333.392,-155 333.392,-125 216.392,-125"/>
<text text-anchor="start" x="224.392" y="-143" font-family="Helvetica,sans-Serif" font-size="10.00">src/CarCommunication</text>
<text text-anchor="middle" x="274.892" y="-132" font-family="Helvetica,sans-Serif" font-size="10.00">/server.cpp</text>
</g>
<!-- Node2 -->
<g id="node2" class="node"><title>Node2</title>
<polygon fill="none" stroke="#bfbfbf" points="79.3921,-6.5 79.3921,-25.5 120.392,-25.5 120.392,-6.5 79.3921,-6.5"/>
<text text-anchor="middle" x="99.8921" y="-13.5" font-family="Helvetica,sans-Serif" font-size="10.00">string</text>
</g>
<!-- Node1&#45;&gt;Node2 -->
<g id="edge1" class="edge"><title>Node1&#45;&gt;Node2</title>
<path fill="none" stroke="midnightblue" d="M216.361,-136.359C145.417,-131.789 32.0806,-119.62 5.89212,-88 -16.6075,-60.8339 33.8778,-38.0453 69.2167,-26.0667"/>
<polygon fill="midnightblue" stroke="midnightblue" points="70.7231,-29.2576 79.1543,-22.8416 68.5623,-22.5994 70.7231,-29.2576"/>
</g>
<!-- Node3 -->
<g id="node3" class="node"><title>Node3</title>
<polygon fill="none" stroke="#bfbfbf" points="15.3921,-68.5 15.3921,-87.5 66.3921,-87.5 66.3921,-68.5 15.3921,-68.5"/>
<text text-anchor="middle" x="40.8921" y="-75.5" font-family="Helvetica,sans-Serif" font-size="10.00">unistd.h</text>
</g>
<!-- Node1&#45;&gt;Node3 -->
<g id="edge2" class="edge"><title>Node1&#45;&gt;Node3</title>
<path fill="none" stroke="midnightblue" d="M219.25,-124.956C181.378,-115.363 129.856,-102.249 76.1921,-88.3232"/>
<polygon fill="midnightblue" stroke="midnightblue" points="77.0641,-84.9337 66.5053,-85.8066 75.3039,-91.7087 77.0641,-84.9337"/>
</g>
<!-- Node4 -->
<g id="node4" class="node"><title>Node4</title>
<polygon fill="none" stroke="#bfbfbf" points="84.3921,-68.5 84.3921,-87.5 133.392,-87.5 133.392,-68.5 84.3921,-68.5"/>
<text text-anchor="middle" x="108.892" y="-75.5" font-family="Helvetica,sans-Serif" font-size="10.00">netdb.h</text>
</g>
<!-- Node1&#45;&gt;Node4 -->
<g id="edge3" class="edge"><title>Node1&#45;&gt;Node4</title>
<path fill="none" stroke="midnightblue" d="M235.972,-124.933C207.466,-114.629 169.187,-100.794 142.114,-91.0079"/>
<polygon fill="midnightblue" stroke="midnightblue" points="143.28,-87.7077 132.686,-87.6 140.9,-94.2909 143.28,-87.7077"/>
</g>
<!-- Node5 -->
<g id="node5" class="node"><title>Node5</title>
<polygon fill="none" stroke="#bfbfbf" points="151.892,-68.5 151.892,-87.5 219.892,-87.5 219.892,-68.5 151.892,-68.5"/>
<text text-anchor="middle" x="185.892" y="-75.5" font-family="Helvetica,sans-Serif" font-size="10.00">sys/types.h</text>
</g>
<!-- Node1&#45;&gt;Node5 -->
<g id="edge4" class="edge"><title>Node1&#45;&gt;Node5</title>
<path fill="none" stroke="midnightblue" d="M253.8,-124.781C239.717,-115.286 221.26,-102.843 207.143,-93.3267"/>
<polygon fill="midnightblue" stroke="midnightblue" points="208.831,-90.2436 198.583,-87.5557 204.918,-96.0478 208.831,-90.2436"/>
</g>
<!-- Node6 -->
<g id="node6" class="node"><title>Node6</title>
<polygon fill="none" stroke="#bfbfbf" points="238.392,-68.5 238.392,-87.5 311.392,-87.5 311.392,-68.5 238.392,-68.5"/>
<text text-anchor="middle" x="274.892" y="-75.5" font-family="Helvetica,sans-Serif" font-size="10.00">sys/socket.h</text>
</g>
<!-- Node1&#45;&gt;Node6 -->
<g id="edge5" class="edge"><title>Node1&#45;&gt;Node6</title>
<path fill="none" stroke="midnightblue" d="M274.892,-124.781C274.892,-116.781 274.892,-106.689 274.892,-98.0168"/>
<polygon fill="midnightblue" stroke="midnightblue" points="278.392,-97.7305 274.892,-87.7305 271.392,-97.7306 278.392,-97.7305"/>
</g>
<!-- Node7 -->
<g id="node7" class="node"><title>Node7</title>
<polygon fill="none" stroke="#bfbfbf" points="329.892,-68.5 329.892,-87.5 383.892,-87.5 383.892,-68.5 329.892,-68.5"/>
<text text-anchor="middle" x="356.892" y="-75.5" font-family="Helvetica,sans-Serif" font-size="10.00">iostream</text>
</g>
<!-- Node1&#45;&gt;Node7 -->
<g id="edge6" class="edge"><title>Node1&#45;&gt;Node7</title>
<path fill="none" stroke="midnightblue" d="M294.325,-124.781C307.1,-115.433 323.781,-103.227 336.706,-93.77"/>
<polygon fill="midnightblue" stroke="midnightblue" points="338.957,-96.4603 344.96,-87.7305 334.823,-90.8111 338.957,-96.4603"/>
</g>
<!-- Node8 -->
<g id="node8" class="node"><title>Node8</title>
<polygon fill="none" stroke="#bfbfbf" points="401.892,-68.5 401.892,-87.5 451.892,-87.5 451.892,-68.5 401.892,-68.5"/>
<text text-anchor="middle" x="426.892" y="-75.5" font-family="Helvetica,sans-Serif" font-size="10.00">iomanip</text>
</g>
<!-- Node1&#45;&gt;Node8 -->
<g id="edge7" class="edge"><title>Node1&#45;&gt;Node8</title>
<path fill="none" stroke="midnightblue" d="M310.529,-124.933C336.288,-114.765 370.761,-101.157 395.488,-91.3963"/>
<polygon fill="midnightblue" stroke="midnightblue" points="397.089,-94.5273 405.105,-87.6 394.519,-88.0162 397.089,-94.5273"/>
</g>
<!-- Node9 -->
<g id="node9" class="node"><title>Node9</title>
<polygon fill="none" stroke="#bfbfbf" points="469.892,-68.5 469.892,-87.5 517.892,-87.5 517.892,-68.5 469.892,-68.5"/>
<text text-anchor="middle" x="493.892" y="-75.5" font-family="Helvetica,sans-Serif" font-size="10.00">stdlib.h</text>
</g>
<!-- Node1&#45;&gt;Node9 -->
<g id="edge8" class="edge"><title>Node1&#45;&gt;Node9</title>
<path fill="none" stroke="midnightblue" d="M326.238,-124.933C367.432,-113.647 424.095,-98.1226 459.854,-88.3255"/>
<polygon fill="midnightblue" stroke="midnightblue" points="461.078,-91.6193 469.798,-85.6012 459.228,-84.868 461.078,-91.6193"/>
</g>
<!-- Node10 -->
<g id="node10" class="node"><title>Node10</title>
<g id="a_node10"><a xlink:href="csCommunication_8pb_8h.html" target="_top" xlink:title="csCommunication.pb.h">
<polygon fill="none" stroke="black" points="536.392,-68.5 536.392,-87.5 653.392,-87.5 653.392,-68.5 536.392,-68.5"/>
<text text-anchor="middle" x="594.892" y="-75.5" font-family="Helvetica,sans-Serif" font-size="10.00">csCommunication.pb.h</text>
</a>
</g>
</g>
<!-- Node1&#45;&gt;Node10 -->
<g id="edge9" class="edge"><title>Node1&#45;&gt;Node10</title>
<path fill="none" stroke="midnightblue" d="M333.585,-127.995C392.308,-116.984 481.961,-100.175 539.493,-89.3873"/>
<polygon fill="midnightblue" stroke="midnightblue" points="540.311,-92.795 549.495,-87.5119 539.021,-85.9149 540.311,-92.795"/>
</g>
<!-- Node10&#45;&gt;Node2 -->
<g id="edge10" class="edge"><title>Node10&#45;&gt;Node2</title>
<path fill="none" stroke="midnightblue" d="M536.301,-69.1267C533.12,-68.7362 529.968,-68.3581 526.892,-68 368.051,-49.5067 326.835,-57.0257 168.892,-32 156.25,-29.9968 142.442,-27.1324 130.522,-24.4425"/>
<polygon fill="midnightblue" stroke="midnightblue" points="131.141,-20.9934 120.61,-22.1496 129.564,-27.8133 131.141,-20.9934"/>
</g>
<!-- Node11 -->
<g id="node11" class="node"><title>Node11</title>
<polygon fill="none" stroke="#bfbfbf" points="177.892,-1 177.892,-31 287.892,-31 287.892,-1 177.892,-1"/>
<text text-anchor="start" x="185.892" y="-19" font-family="Helvetica,sans-Serif" font-size="10.00">google/protobuf/stubs</text>
<text text-anchor="middle" x="232.892" y="-8" font-family="Helvetica,sans-Serif" font-size="10.00">/common.h</text>
</g>
<!-- Node10&#45;&gt;Node11 -->
<g id="edge11" class="edge"><title>Node10&#45;&gt;Node11</title>
<path fill="none" stroke="midnightblue" d="M536.197,-68.7084C467.146,-58.8598 355.581,-42.6316 298.076,-32.1061"/>
<polygon fill="midnightblue" stroke="midnightblue" points="298.464,-28.6179 287.99,-30.2099 297.171,-35.4974 298.464,-28.6179"/>
</g>
<!-- Node12 -->
<g id="node12" class="node"><title>Node12</title>
<polygon fill="none" stroke="#bfbfbf" points="306.392,-1 306.392,-31 435.392,-31 435.392,-1 306.392,-1"/>
<text text-anchor="start" x="314.392" y="-19" font-family="Helvetica,sans-Serif" font-size="10.00">google/protobuf/generated</text>
<text text-anchor="middle" x="370.892" y="-8" font-family="Helvetica,sans-Serif" font-size="10.00">_message_util.h</text>
</g>
<!-- Node10&#45;&gt;Node12 -->
<g id="edge12" class="edge"><title>Node10&#45;&gt;Node12</title>
<path fill="none" stroke="midnightblue" d="M562.798,-68.4035C529.088,-59.3739 475.226,-44.9466 433.133,-33.6718"/>
<polygon fill="midnightblue" stroke="midnightblue" points="433.818,-30.2319 423.253,-31.0253 432.007,-36.9936 433.818,-30.2319"/>
</g>
<!-- Node13 -->
<g id="node13" class="node"><title>Node13</title>
<polygon fill="none" stroke="#bfbfbf" points="453.892,-6.5 453.892,-25.5 587.892,-25.5 587.892,-6.5 453.892,-6.5"/>
<text text-anchor="middle" x="520.892" y="-13.5" font-family="Helvetica,sans-Serif" font-size="10.00">google/protobuf/message.h</text>
</g>
<!-- Node10&#45;&gt;Node13 -->
<g id="edge13" class="edge"><title>Node10&#45;&gt;Node13</title>
<path fill="none" stroke="midnightblue" d="M584.29,-68.4035C572.64,-58.9579 553.706,-43.6056 539.558,-32.1342"/>
<polygon fill="midnightblue" stroke="midnightblue" points="541.447,-29.16 531.475,-25.5806 537.038,-34.5973 541.447,-29.16"/>
</g>
<!-- Node14 -->
<g id="node14" class="node"><title>Node14</title>
<polygon fill="none" stroke="#bfbfbf" points="605.892,-1 605.892,-31 729.892,-31 729.892,-1 605.892,-1"/>
<text text-anchor="start" x="613.892" y="-19" font-family="Helvetica,sans-Serif" font-size="10.00">google/protobuf/repeated</text>
<text text-anchor="middle" x="667.892" y="-8" font-family="Helvetica,sans-Serif" font-size="10.00">_field.h</text>
</g>
<!-- Node10&#45;&gt;Node14 -->
<g id="edge14" class="edge"><title>Node10&#45;&gt;Node14</title>
<path fill="none" stroke="midnightblue" d="M605.351,-68.4035C615.053,-60.4292 629.877,-48.2451 642.658,-37.7403"/>
<polygon fill="midnightblue" stroke="midnightblue" points="645.184,-40.1944 650.687,-31.1408 640.74,-34.7866 645.184,-40.1944"/>
</g>
<!-- Node15 -->
<g id="node15" class="node"><title>Node15</title>
<polygon fill="none" stroke="#bfbfbf" points="747.892,-1 747.892,-31 875.892,-31 875.892,-1 747.892,-1"/>
<text text-anchor="start" x="755.892" y="-19" font-family="Helvetica,sans-Serif" font-size="10.00">google/protobuf/extension</text>
<text text-anchor="middle" x="811.892" y="-8" font-family="Helvetica,sans-Serif" font-size="10.00">_set.h</text>
</g>
<!-- Node10&#45;&gt;Node15 -->
<g id="edge15" class="edge"><title>Node10&#45;&gt;Node15</title>
<path fill="none" stroke="midnightblue" d="M625.983,-68.4035C658.571,-59.393 710.598,-45.0075 751.338,-33.7432"/>
<polygon fill="midnightblue" stroke="midnightblue" points="752.462,-37.0638 761.167,-31.0253 750.596,-30.3169 752.462,-37.0638"/>
</g>
<!-- Node16 -->
<g id="node16" class="node"><title>Node16</title>
<polygon fill="none" stroke="#bfbfbf" points="894.392,-1 894.392,-31 1019.39,-31 1019.39,-1 894.392,-1"/>
<text text-anchor="start" x="902.392" y="-19" font-family="Helvetica,sans-Serif" font-size="10.00">google/protobuf/unknown</text>
<text text-anchor="middle" x="956.892" y="-8" font-family="Helvetica,sans-Serif" font-size="10.00">_field_set.h</text>
</g>
<!-- Node10&#45;&gt;Node16 -->
<g id="edge16" class="edge"><title>Node10&#45;&gt;Node16</title>
<path fill="none" stroke="midnightblue" d="M653.639,-68.789C710.151,-60.6857 798.225,-47.5218 884.175,-32.0758"/>
<polygon fill="midnightblue" stroke="midnightblue" points="884.884,-35.5045 894.101,-30.2799 883.637,-28.6163 884.884,-35.5045"/>
</g>
</g>
</svg>
