<?xml version="1.0" encoding="UTF-8" standalone="no"?>
<!DOCTYPE svg PUBLIC "-//W3C//DTD SVG 1.1//EN"
 "http://www.w3.org/Graphics/SVG/1.1/DTD/svg11.dtd">
<!-- Generated by graphviz version 2.36.0 (20140111.2315)
 -->
<!-- Title: broker_impl Pages: 1 -->
<svg width="196pt" height="104pt"
 viewBox="0.00 0.00 196.00 104.00" xmlns="http://www.w3.org/2000/svg" xmlns:xlink="http://www.w3.org/1999/xlink">
<g id="graph0" class="graph" transform="scale(1 1) rotate(0) translate(4 100)">
<title>broker_impl</title>
<!-- Node1 -->
<g id="node1" class="node"><title>Node1</title>
<polygon fill="#bfbfbf" stroke="black" points="0.5,-38.5 0.5,-57.5 67.5,-57.5 67.5,-38.5 0.5,-38.5"/>
<text text-anchor="middle" x="34" y="-45.5" font-family="Helvetica,sans-Serif" font-size="10.00">broker_impl</text>
</g>
<!-- Node2 -->
<g id="node2" class="node"><title>Node2</title>
<g id="a_node2"><a xlink:href="simple__broker_8cpp.html#a186f08a0fe38dc99460dabc1b54c91ed" target="_top" xlink:title="write_int">
<polygon fill="none" stroke="black" points="119.5,-76.5 119.5,-95.5 172.5,-95.5 172.5,-76.5 119.5,-76.5"/>
<text text-anchor="middle" x="146" y="-83.5" font-family="Helvetica,sans-Serif" font-size="10.00">write_int</text>
</a>
</g>
</g>
<!-- Node1&#45;&gt;Node2 -->
<g id="edge1" class="edge"><title>Node1&#45;&gt;Node2</title>
<path fill="none" stroke="midnightblue" d="M62.7576,-57.589C76.9586,-62.4948 94.4012,-68.5204 109.563,-73.7582"/>
<polygon fill="midnightblue" stroke="midnightblue" points="108.546,-77.1096 119.14,-77.0667 110.831,-70.4932 108.546,-77.1096"/>
</g>
<!-- Node3 -->
<g id="node3" class="node"><title>Node3</title>
<g id="a_node3"><a xlink:href="simple__broker_8cpp.html#a514f74cb010471df7bbf1042949afd3f" target="_top" xlink:title="read_int">
<polygon fill="none" stroke="black" points="120.5,-38.5 120.5,-57.5 171.5,-57.5 171.5,-38.5 120.5,-38.5"/>
<text text-anchor="middle" x="146" y="-45.5" font-family="Helvetica,sans-Serif" font-size="10.00">read_int</text>
</a>
</g>
</g>
<!-- Node1&#45;&gt;Node3 -->
<g id="edge2" class="edge"><title>Node1&#45;&gt;Node3</title>
<path fill="none" stroke="midnightblue" d="M67.7058,-48C80.9982,-48 96.3819,-48 109.908,-48"/>
<polygon fill="midnightblue" stroke="midnightblue" points="110.283,-51.5001 120.283,-48 110.283,-44.5001 110.283,-51.5001"/>
</g>
<!-- Node4 -->
<g id="node4" class="node"><title>Node4</title>
<g id="a_node4"><a xlink:href="namespacepatch.html#a54d2400c78aef13e3748a87cd7c86ede" target="_top" xlink:title="patch::to_string">
<polygon fill="none" stroke="black" points="104,-0.5 104,-19.5 188,-19.5 188,-0.5 104,-0.5"/>
<text text-anchor="middle" x="146" y="-7.5" font-family="Helvetica,sans-Serif" font-size="10.00">patch::to_string</text>
</a>
</g>
</g>
<!-- Node1&#45;&gt;Node4 -->
<g id="edge3" class="edge"><title>Node1&#45;&gt;Node4</title>
<path fill="none" stroke="midnightblue" d="M62.7576,-38.411C76.3062,-33.7306 92.8055,-28.0308 107.46,-22.9685"/>
<polygon fill="midnightblue" stroke="midnightblue" points="108.942,-26.1594 117.251,-19.5859 106.656,-19.543 108.942,-26.1594"/>
</g>
</g>
</svg>
