<?xml version="1.0" encoding="UTF-8" standalone="no"?>
<!DOCTYPE svg PUBLIC "-//W3C//DTD SVG 1.1//EN"
 "http://www.w3.org/Graphics/SVG/1.1/DTD/svg11.dtd">
<!-- Generated by graphviz version 2.36.0 (20140111.2315)
 -->
<!-- Title: broker_impl Pages: 1 -->
<svg width="230pt" height="47pt"
 viewBox="0.00 0.00 230.00 47.00" xmlns="http://www.w3.org/2000/svg" xmlns:xlink="http://www.w3.org/1999/xlink">
<g id="graph0" class="graph" transform="scale(1 1) rotate(0) translate(4 43)">
<title>broker_impl</title>
<!-- Node1 -->
<g id="node1" class="node"><title>Node1</title>
<polygon fill="#bfbfbf" stroke="black" points="0.5,-0.5 0.5,-19.5 67.5,-19.5 67.5,-0.5 0.5,-0.5"/>
<text text-anchor="middle" x="34" y="-7.5" font-family="Helvetica,sans-Serif" font-size="10.00">broker_impl</text>
</g>
<!-- Node2 -->
<g id="node2" class="node"><title>Node2</title>
<g id="a_node2"><a xlink:href="simple__broker_8cpp.html#a004fb635db33d280752e3ac41fad83ba" target="_top" xlink:title="server">
<polygon fill="none" stroke="black" points="104,-19.5 104,-38.5 148,-38.5 148,-19.5 104,-19.5"/>
<text text-anchor="middle" x="126" y="-26.5" font-family="Helvetica,sans-Serif" font-size="10.00">server</text>
</a>
</g>
</g>
<!-- Node1&#45;&gt;Node2 -->
<g id="edge1" class="edge"><title>Node1&#45;&gt;Node2</title>
<path fill="none" stroke="midnightblue" d="M77.5561,-18.9841C86.7114,-20.9168 96.002,-22.8782 103.906,-24.5468"/>
<polygon fill="midnightblue" stroke="midnightblue" points="78.254,-15.5543 67.7467,-16.9132 76.808,-22.4034 78.254,-15.5543"/>
</g>
<!-- Node3 -->
<g id="node3" class="node"><title>Node3</title>
<g id="a_node3"><a xlink:href="simple__broker_8cpp.html#a3c04138a5bfe5d72780bb7e82a18e627" target="_top" xlink:title="main">
<polygon fill="none" stroke="black" points="184,-0.5 184,-19.5 222,-19.5 222,-0.5 184,-0.5"/>
<text text-anchor="middle" x="203" y="-7.5" font-family="Helvetica,sans-Serif" font-size="10.00">main</text>
</a>
</g>
</g>
<!-- Node1&#45;&gt;Node3 -->
<g id="edge3" class="edge"><title>Node1&#45;&gt;Node3</title>
<path fill="none" stroke="midnightblue" d="M77.831,-10C112.188,-10 158.699,-10 183.921,-10"/>
<polygon fill="midnightblue" stroke="midnightblue" points="77.5958,-6.5001 67.5957,-10 77.5957,-13.5001 77.5958,-6.5001"/>
</g>
<!-- Node2&#45;&gt;Node3 -->
<g id="edge2" class="edge"><title>Node2&#45;&gt;Node3</title>
<path fill="none" stroke="midnightblue" d="M158.246,-21.0844C167.01,-18.8641 176.244,-16.5249 183.958,-14.5706"/>
<polygon fill="midnightblue" stroke="midnightblue" points="157.126,-17.7575 148.291,-23.6062 158.845,-24.5432 157.126,-17.7575"/>
</g>
</g>
</svg>
