<?xml version="1.0" encoding="UTF-8" standalone="no"?>
<!DOCTYPE svg PUBLIC "-//W3C//DTD SVG 1.1//EN"
 "http://www.w3.org/Graphics/SVG/1.1/DTD/svg11.dtd">
<!-- Generated by graphviz version 2.36.0 (20140111.2315)
 -->
<!-- Title: write_int Pages: 1 -->
<svg width="320pt" height="66pt"
 viewBox="0.00 0.00 320.00 66.00" xmlns="http://www.w3.org/2000/svg" xmlns:xlink="http://www.w3.org/1999/xlink">
<g id="graph0" class="graph" transform="scale(1 1) rotate(0) translate(4 62)">
<title>write_int</title>
<!-- Node1 -->
<g id="node1" class="node"><title>Node1</title>
<polygon fill="#bfbfbf" stroke="black" points="0.5,-19.5 0.5,-38.5 53.5,-38.5 53.5,-19.5 0.5,-19.5"/>
<text text-anchor="middle" x="27" y="-26.5" font-family="Helvetica,sans-Serif" font-size="10.00">write_int</text>
</g>
<!-- Node2 -->
<g id="node2" class="node"><title>Node2</title>
<g id="a_node2"><a xlink:href="simple__broker_8cpp.html#a26fc7b39c34d7775c1c630cd9e0c3a7f" target="_top" xlink:title="write_int">
<polygon fill="none" stroke="black" points="97.5,-38.5 97.5,-57.5 150.5,-57.5 150.5,-38.5 97.5,-38.5"/>
<text text-anchor="middle" x="124" y="-45.5" font-family="Helvetica,sans-Serif" font-size="10.00">write_int</text>
</a>
</g>
</g>
<!-- Node1&#45;&gt;Node2 -->
<g id="edge1" class="edge"><title>Node1&#45;&gt;Node2</title>
<path fill="none" stroke="midnightblue" d="M63.8713,-36.1743C75.0271,-38.4054 87.0947,-40.8189 97.4011,-42.8802"/>
<polygon fill="midnightblue" stroke="midnightblue" points="64.4514,-32.721 53.9592,-34.1918 63.0785,-39.5851 64.4514,-32.721"/>
</g>
<!-- Node3 -->
<g id="node3" class="node"><title>Node3</title>
<g id="a_node3"><a xlink:href="simple__broker_8cpp.html#aece465c2b927744e1d38b7a42aaaaa14" target="_top" xlink:title="broker_impl">
<polygon fill="none" stroke="black" points="90.5,-0.5 90.5,-19.5 157.5,-19.5 157.5,-0.5 90.5,-0.5"/>
<text text-anchor="middle" x="124" y="-7.5" font-family="Helvetica,sans-Serif" font-size="10.00">broker_impl</text>
</a>
</g>
</g>
<!-- Node1&#45;&gt;Node3 -->
<g id="edge2" class="edge"><title>Node1&#45;&gt;Node3</title>
<path fill="none" stroke="midnightblue" d="M63.8213,-21.8357C72.5039,-20.0992 81.7416,-18.2517 90.2731,-16.5454"/>
<polygon fill="midnightblue" stroke="midnightblue" points="63.0785,-18.4149 53.9592,-23.8082 64.4514,-25.279 63.0785,-18.4149"/>
</g>
<!-- Node4 -->
<g id="node4" class="node"><title>Node4</title>
<g id="a_node4"><a xlink:href="simple__broker_8cpp.html#a004fb635db33d280752e3ac41fad83ba" target="_top" xlink:title="server">
<polygon fill="none" stroke="black" points="194,-19.5 194,-38.5 238,-38.5 238,-19.5 194,-19.5"/>
<text text-anchor="middle" x="216" y="-26.5" font-family="Helvetica,sans-Serif" font-size="10.00">server</text>
</a>
</g>
</g>
<!-- Node3&#45;&gt;Node4 -->
<g id="edge3" class="edge"><title>Node3&#45;&gt;Node4</title>
<path fill="none" stroke="midnightblue" d="M167.556,-18.9841C176.711,-20.9168 186.002,-22.8782 193.906,-24.5468"/>
<polygon fill="midnightblue" stroke="midnightblue" points="168.254,-15.5543 157.747,-16.9132 166.808,-22.4034 168.254,-15.5543"/>
</g>
<!-- Node5 -->
<g id="node5" class="node"><title>Node5</title>
<g id="a_node5"><a xlink:href="simple__broker_8cpp.html#a3c04138a5bfe5d72780bb7e82a18e627" target="_top" xlink:title="main">
<polygon fill="none" stroke="black" points="274,-0.5 274,-19.5 312,-19.5 312,-0.5 274,-0.5"/>
<text text-anchor="middle" x="293" y="-7.5" font-family="Helvetica,sans-Serif" font-size="10.00">main</text>
</a>
</g>
</g>
<!-- Node3&#45;&gt;Node5 -->
<g id="edge5" class="edge"><title>Node3&#45;&gt;Node5</title>
<path fill="none" stroke="midnightblue" d="M167.831,-10C202.188,-10 248.699,-10 273.921,-10"/>
<polygon fill="midnightblue" stroke="midnightblue" points="167.596,-6.5001 157.596,-10 167.596,-13.5001 167.596,-6.5001"/>
</g>
<!-- Node4&#45;&gt;Node5 -->
<g id="edge4" class="edge"><title>Node4&#45;&gt;Node5</title>
<path fill="none" stroke="midnightblue" d="M248.246,-21.0844C257.01,-18.8641 266.244,-16.5249 273.958,-14.5706"/>
<polygon fill="midnightblue" stroke="midnightblue" points="247.126,-17.7575 238.291,-23.6062 248.845,-24.5432 247.126,-17.7575"/>
</g>
</g>
</svg>
