<?xml version="1.0" encoding="UTF-8" standalone="no"?>
<!DOCTYPE svg PUBLIC "-//W3C//DTD SVG 1.1//EN"
 "http://www.w3.org/Graphics/SVG/1.1/DTD/svg11.dtd">
<!-- Generated by graphviz version 2.36.0 (20140111.2315)
 -->
<!-- Title: read_int Pages: 1 -->
<svg width="318pt" height="66pt"
 viewBox="0.00 0.00 318.00 66.00" xmlns="http://www.w3.org/2000/svg" xmlns:xlink="http://www.w3.org/1999/xlink">
<g id="graph0" class="graph" transform="scale(1 1) rotate(0) translate(4 62)">
<title>read_int</title>
<!-- Node1 -->
<g id="node1" class="node"><title>Node1</title>
<polygon fill="#bfbfbf" stroke="black" points="0.5,-19.5 0.5,-38.5 51.5,-38.5 51.5,-19.5 0.5,-19.5"/>
<text text-anchor="middle" x="26" y="-26.5" font-family="Helvetica,sans-Serif" font-size="10.00">read_int</text>
</g>
<!-- Node2 -->
<g id="node2" class="node"><title>Node2</title>
<g id="a_node2"><a xlink:href="simple__broker_8cpp.html#a49b495edf79d448bdf67b82a084f8f6b" target="_top" xlink:title="read_int">
<polygon fill="none" stroke="black" points="96.5,-38.5 96.5,-57.5 147.5,-57.5 147.5,-38.5 96.5,-38.5"/>
<text text-anchor="middle" x="122" y="-45.5" font-family="Helvetica,sans-Serif" font-size="10.00">read_int</text>
</a>
</g>
</g>
<!-- Node1&#45;&gt;Node2 -->
<g id="edge1" class="edge"><title>Node1&#45;&gt;Node2</title>
<path fill="none" stroke="midnightblue" d="M61.5256,-35.9786C73.1181,-38.3217 85.8021,-40.8855 96.4676,-43.0413"/>
<polygon fill="midnightblue" stroke="midnightblue" points="62.1926,-32.5427 51.6974,-33.992 60.8057,-39.4039 62.1926,-32.5427"/>
</g>
<!-- Node3 -->
<g id="node3" class="node"><title>Node3</title>
<g id="a_node3"><a xlink:href="simple__broker_8cpp.html#aece465c2b927744e1d38b7a42aaaaa14" target="_top" xlink:title="broker_impl">
<polygon fill="none" stroke="black" points="88.5,-0.5 88.5,-19.5 155.5,-19.5 155.5,-0.5 88.5,-0.5"/>
<text text-anchor="middle" x="122" y="-7.5" font-family="Helvetica,sans-Serif" font-size="10.00">broker_impl</text>
</a>
</g>
</g>
<!-- Node1&#45;&gt;Node3 -->
<g id="edge2" class="edge"><title>Node1&#45;&gt;Node3</title>
<path fill="none" stroke="midnightblue" d="M61.5948,-22.0074C70.335,-20.2408 79.6918,-18.3495 88.3336,-16.6028"/>
<polygon fill="midnightblue" stroke="midnightblue" points="60.8057,-18.5961 51.6974,-24.008 62.1926,-25.4573 60.8057,-18.5961"/>
</g>
<!-- Node4 -->
<g id="node4" class="node"><title>Node4</title>
<g id="a_node4"><a xlink:href="simple__broker_8cpp.html#a004fb635db33d280752e3ac41fad83ba" target="_top" xlink:title="server">
<polygon fill="none" stroke="black" points="192,-19.5 192,-38.5 236,-38.5 236,-19.5 192,-19.5"/>
<text text-anchor="middle" x="214" y="-26.5" font-family="Helvetica,sans-Serif" font-size="10.00">server</text>
</a>
</g>
</g>
<!-- Node3&#45;&gt;Node4 -->
<g id="edge3" class="edge"><title>Node3&#45;&gt;Node4</title>
<path fill="none" stroke="midnightblue" d="M165.556,-18.9841C174.711,-20.9168 184.002,-22.8782 191.906,-24.5468"/>
<polygon fill="midnightblue" stroke="midnightblue" points="166.254,-15.5543 155.747,-16.9132 164.808,-22.4034 166.254,-15.5543"/>
</g>
<!-- Node5 -->
<g id="node5" class="node"><title>Node5</title>
<g id="a_node5"><a xlink:href="simple__broker_8cpp.html#a3c04138a5bfe5d72780bb7e82a18e627" target="_top" xlink:title="main">
<polygon fill="none" stroke="black" points="272,-0.5 272,-19.5 310,-19.5 310,-0.5 272,-0.5"/>
<text text-anchor="middle" x="291" y="-7.5" font-family="Helvetica,sans-Serif" font-size="10.00">main</text>
</a>
</g>
</g>
<!-- Node3&#45;&gt;Node5 -->
<g id="edge5" class="edge"><title>Node3&#45;&gt;Node5</title>
<path fill="none" stroke="midnightblue" d="M165.831,-10C200.188,-10 246.699,-10 271.921,-10"/>
<polygon fill="midnightblue" stroke="midnightblue" points="165.596,-6.5001 155.596,-10 165.596,-13.5001 165.596,-6.5001"/>
</g>
<!-- Node4&#45;&gt;Node5 -->
<g id="edge4" class="edge"><title>Node4&#45;&gt;Node5</title>
<path fill="none" stroke="midnightblue" d="M246.246,-21.0844C255.01,-18.8641 264.244,-16.5249 271.958,-14.5706"/>
<polygon fill="midnightblue" stroke="midnightblue" points="245.126,-17.7575 236.291,-23.6062 246.845,-24.5432 245.126,-17.7575"/>
</g>
</g>
</svg>
