<?xml version="1.0" encoding="UTF-8" standalone="no"?>
<!DOCTYPE svg PUBLIC "-//W3C//DTD SVG 1.1//EN"
 "http://www.w3.org/Graphics/SVG/1.1/DTD/svg11.dtd">
<!-- Generated by graphviz version 2.36.0 (20140111.2315)
 -->
<!-- Title: src/caf/simple_broker.cpp Pages: 1 -->
<svg width="790pt" height="84pt"
 viewBox="0.00 0.00 790.00 84.00" xmlns="http://www.w3.org/2000/svg" xmlns:xlink="http://www.w3.org/1999/xlink">
<g id="graph0" class="graph" transform="scale(1 1) rotate(0) translate(4 80)">
<title>src/caf/simple_broker.cpp</title>
<!-- Node1 -->
<g id="node1" class="node"><title>Node1</title>
<polygon fill="#bfbfbf" stroke="black" points="317.5,-56.5 317.5,-75.5 446.5,-75.5 446.5,-56.5 317.5,-56.5"/>
<text text-anchor="middle" x="382" y="-63.5" font-family="Helvetica,sans-Serif" font-size="10.00">src/caf/simple_broker.cpp</text>
</g>
<!-- Node2 -->
<g id="node2" class="node"><title>Node2</title>
<polygon fill="none" stroke="#bfbfbf" points="0,-0.5 0,-19.5 78,-19.5 78,-0.5 0,-0.5"/>
<text text-anchor="middle" x="39" y="-7.5" font-family="Helvetica,sans-Serif" font-size="10.00">caf/config.hpp</text>
</g>
<!-- Node1&#45;&gt;Node2 -->
<g id="edge1" class="edge"><title>Node1&#45;&gt;Node2</title>
<path fill="none" stroke="midnightblue" d="M322.295,-56.4999C264.85,-48.1839 175.288,-34.8594 88.083,-20.1377"/>
<polygon fill="midnightblue" stroke="midnightblue" points="88.4574,-16.6513 78.0129,-18.4296 87.2867,-23.5527 88.4574,-16.6513"/>
</g>
<!-- Node3 -->
<g id="node3" class="node"><title>Node3</title>
<polygon fill="none" stroke="#bfbfbf" points="96,-0.5 96,-19.5 158,-19.5 158,-0.5 96,-0.5"/>
<text text-anchor="middle" x="127" y="-7.5" font-family="Helvetica,sans-Serif" font-size="10.00">arpa/inet.h</text>
</g>
<!-- Node1&#45;&gt;Node3 -->
<g id="edge2" class="edge"><title>Node1&#45;&gt;Node3</title>
<path fill="none" stroke="midnightblue" d="M340.342,-56.4737C299.117,-47.993 233.941,-34.4703 168.509,-20.3051"/>
<polygon fill="midnightblue" stroke="midnightblue" points="168.948,-16.8191 158.433,-18.1191 167.464,-23.6599 168.948,-16.8191"/>
</g>
<!-- Node4 -->
<g id="node4" class="node"><title>Node4</title>
<polygon fill="none" stroke="#bfbfbf" points="176,-0.5 176,-19.5 220,-19.5 220,-0.5 176,-0.5"/>
<text text-anchor="middle" x="198" y="-7.5" font-family="Helvetica,sans-Serif" font-size="10.00">vector</text>
</g>
<!-- Node1&#45;&gt;Node4 -->
<g id="edge3" class="edge"><title>Node1&#45;&gt;Node4</title>
<path fill="none" stroke="midnightblue" d="M352.845,-56.4435C319.273,-46.591 264.315,-30.4621 229.704,-20.3044"/>
<polygon fill="midnightblue" stroke="midnightblue" points="230.67,-16.9404 220.089,-17.4826 228.699,-23.6571 230.67,-16.9404"/>
</g>
<!-- Node5 -->
<g id="node5" class="node"><title>Node5</title>
<polygon fill="none" stroke="#bfbfbf" points="238.5,-0.5 238.5,-19.5 279.5,-19.5 279.5,-0.5 238.5,-0.5"/>
<text text-anchor="middle" x="259" y="-7.5" font-family="Helvetica,sans-Serif" font-size="10.00">string</text>
</g>
<!-- Node1&#45;&gt;Node5 -->
<g id="edge4" class="edge"><title>Node1&#45;&gt;Node5</title>
<path fill="none" stroke="midnightblue" d="M362.51,-56.4435C342.358,-47.5961 310.677,-33.6875 287.669,-23.5865"/>
<polygon fill="midnightblue" stroke="midnightblue" points="288.962,-20.3316 278.399,-19.5164 286.148,-26.7411 288.962,-20.3316"/>
</g>
<!-- Node6 -->
<g id="node6" class="node"><title>Node6</title>
<polygon fill="none" stroke="#bfbfbf" points="298,-0.5 298,-19.5 338,-19.5 338,-0.5 298,-0.5"/>
<text text-anchor="middle" x="318" y="-7.5" font-family="Helvetica,sans-Serif" font-size="10.00">limits</text>
</g>
<!-- Node1&#45;&gt;Node6 -->
<g id="edge5" class="edge"><title>Node1&#45;&gt;Node6</title>
<path fill="none" stroke="midnightblue" d="M371.717,-56.324C362.164,-48.2631 347.72,-36.0765 336.216,-26.3695"/>
<polygon fill="midnightblue" stroke="midnightblue" points="338.37,-23.6076 328.47,-19.8339 333.856,-28.9577 338.37,-23.6076"/>
</g>
<!-- Node7 -->
<g id="node7" class="node"><title>Node7</title>
<polygon fill="none" stroke="#bfbfbf" points="356,-0.5 356,-19.5 408,-19.5 408,-0.5 356,-0.5"/>
<text text-anchor="middle" x="382" y="-7.5" font-family="Helvetica,sans-Serif" font-size="10.00">memory</text>
</g>
<!-- Node1&#45;&gt;Node7 -->
<g id="edge6" class="edge"><title>Node1&#45;&gt;Node7</title>
<path fill="none" stroke="midnightblue" d="M382,-56.083C382,-49.0059 382,-38.8611 382,-29.9865"/>
<polygon fill="midnightblue" stroke="midnightblue" points="385.5,-29.751 382,-19.7511 378.5,-29.7511 385.5,-29.751"/>
</g>
<!-- Node8 -->
<g id="node8" class="node"><title>Node8</title>
<polygon fill="none" stroke="#bfbfbf" points="426,-0.5 426,-19.5 472,-19.5 472,-0.5 426,-0.5"/>
<text text-anchor="middle" x="449" y="-7.5" font-family="Helvetica,sans-Serif" font-size="10.00">cstdint</text>
</g>
<!-- Node1&#45;&gt;Node8 -->
<g id="edge7" class="edge"><title>Node1&#45;&gt;Node8</title>
<path fill="none" stroke="midnightblue" d="M392.765,-56.324C402.766,-48.2631 417.887,-36.0765 429.93,-26.3695"/>
<polygon fill="midnightblue" stroke="midnightblue" points="432.45,-28.8343 438.039,-19.8339 428.057,-23.3841 432.45,-28.8343"/>
</g>
<!-- Node9 -->
<g id="node9" class="node"><title>Node9</title>
<polygon fill="none" stroke="#bfbfbf" points="490.5,-0.5 490.5,-19.5 539.5,-19.5 539.5,-0.5 490.5,-0.5"/>
<text text-anchor="middle" x="515" y="-7.5" font-family="Helvetica,sans-Serif" font-size="10.00">cassert</text>
</g>
<!-- Node1&#45;&gt;Node9 -->
<g id="edge8" class="edge"><title>Node1&#45;&gt;Node9</title>
<path fill="none" stroke="midnightblue" d="M403.074,-56.4435C425.06,-47.5171 459.734,-33.4387 484.664,-23.3168"/>
<polygon fill="midnightblue" stroke="midnightblue" points="486.076,-26.5213 494.024,-19.5164 483.442,-20.0355 486.076,-26.5213"/>
</g>
<!-- Node10 -->
<g id="node10" class="node"><title>Node10</title>
<polygon fill="none" stroke="#bfbfbf" points="558,-0.5 558,-19.5 612,-19.5 612,-0.5 558,-0.5"/>
<text text-anchor="middle" x="585" y="-7.5" font-family="Helvetica,sans-Serif" font-size="10.00">iostream</text>
</g>
<!-- Node1&#45;&gt;Node10 -->
<g id="edge9" class="edge"><title>Node1&#45;&gt;Node10</title>
<path fill="none" stroke="midnightblue" d="M414.166,-56.4435C450.599,-46.7521 509.86,-30.9879 548.131,-20.8075"/>
<polygon fill="midnightblue" stroke="midnightblue" points="549.093,-24.1735 557.857,-18.2203 547.293,-17.4087 549.093,-24.1735"/>
</g>
<!-- Node11 -->
<g id="node11" class="node"><title>Node11</title>
<polygon fill="none" stroke="#bfbfbf" points="630,-0.5 630,-19.5 692,-19.5 692,-0.5 630,-0.5"/>
<text text-anchor="middle" x="661" y="-7.5" font-family="Helvetica,sans-Serif" font-size="10.00">caf/all.hpp</text>
</g>
<!-- Node1&#45;&gt;Node11 -->
<g id="edge10" class="edge"><title>Node1&#45;&gt;Node11</title>
<path fill="none" stroke="midnightblue" d="M430.164,-56.4457C476.33,-48.1308 548.228,-34.8813 619.526,-20.2523"/>
<polygon fill="midnightblue" stroke="midnightblue" points="620.493,-23.6267 629.58,-18.1793 619.079,-16.7709 620.493,-23.6267"/>
</g>
<!-- Node12 -->
<g id="node12" class="node"><title>Node12</title>
<polygon fill="none" stroke="#bfbfbf" points="710,-0.5 710,-19.5 782,-19.5 782,-0.5 710,-0.5"/>
<text text-anchor="middle" x="746" y="-7.5" font-family="Helvetica,sans-Serif" font-size="10.00">caf/io/all.hpp</text>
</g>
<!-- Node1&#45;&gt;Node12 -->
<g id="edge11" class="edge"><title>Node1&#45;&gt;Node12</title>
<path fill="none" stroke="midnightblue" d="M446.713,-56.8573C511.078,-48.5198 612.576,-34.7275 700,-20 700.1,-19.9831 700.201,-19.9662 700.301,-19.9492"/>
<polygon fill="midnightblue" stroke="midnightblue" points="700.637,-23.4443 709.873,-18.2546 699.416,-16.5515 700.637,-23.4443"/>
</g>
</g>
</svg>
