<?xml version="1.0" encoding="UTF-8" standalone="no"?>
<!DOCTYPE svg PUBLIC "-//W3C//DTD SVG 1.1//EN"
 "http://www.w3.org/Graphics/SVG/1.1/DTD/svg11.dtd">
<!-- Generated by graphviz version 2.36.0 (20140111.2315)
 -->
<!-- Title: main Pages: 1 -->
<svg width="354pt" height="180pt"
 viewBox="0.00 0.00 354.00 180.00" xmlns="http://www.w3.org/2000/svg" xmlns:xlink="http://www.w3.org/1999/xlink">
<g id="graph0" class="graph" transform="scale(1 1) rotate(0) translate(4 176)">
<title>main</title>
<!-- Node1 -->
<g id="node1" class="node"><title>Node1</title>
<polygon fill="#bfbfbf" stroke="black" points="0,-76.5 0,-95.5 38,-95.5 38,-76.5 0,-76.5"/>
<text text-anchor="middle" x="19" y="-83.5" font-family="Helvetica,sans-Serif" font-size="10.00">main</text>
</g>
<!-- Node2 -->
<g id="node2" class="node"><title>Node2</title>
<g id="a_node2"><a xlink:href="simple__broker_8cpp.html#a64a252d20d43c09d3144b9b4713481e8" target="_top" xlink:title="pong">
<polygon fill="none" stroke="black" points="171,-152.5 171,-171.5 209,-171.5 209,-152.5 171,-152.5"/>
<text text-anchor="middle" x="190" y="-159.5" font-family="Helvetica,sans-Serif" font-size="10.00">pong</text>
</a>
</g>
</g>
<!-- Node1&#45;&gt;Node2 -->
<g id="edge1" class="edge"><title>Node1&#45;&gt;Node2</title>
<path fill="none" stroke="midnightblue" d="M26.3164,-95.9242C35.2327,-109.027 52.8099,-131.75 74,-143 101.09,-157.383 136.415,-161.395 160.727,-162.275"/>
<polygon fill="midnightblue" stroke="midnightblue" points="160.663,-165.774 170.734,-162.483 160.809,-158.775 160.663,-165.774"/>
</g>
<!-- Node3 -->
<g id="node3" class="node"><title>Node3</title>
<g id="a_node3"><a xlink:href="simple__broker_8cpp.html#a004fb635db33d280752e3ac41fad83ba" target="_top" xlink:title="server">
<polygon fill="none" stroke="black" points="74,-38.5 74,-57.5 118,-57.5 118,-38.5 74,-38.5"/>
<text text-anchor="middle" x="96" y="-45.5" font-family="Helvetica,sans-Serif" font-size="10.00">server</text>
</a>
</g>
</g>
<!-- Node1&#45;&gt;Node3 -->
<g id="edge2" class="edge"><title>Node1&#45;&gt;Node3</title>
<path fill="none" stroke="midnightblue" d="M38.1554,-76.8013C46.8943,-72.3735 57.5633,-66.9679 67.288,-62.0407"/>
<polygon fill="midnightblue" stroke="midnightblue" points="68.8901,-65.1527 76.2285,-57.5109 65.7263,-58.9084 68.8901,-65.1527"/>
</g>
<!-- Node4 -->
<g id="node4" class="node"><title>Node4</title>
<g id="a_node4"><a xlink:href="simple__broker_8cpp.html#aece465c2b927744e1d38b7a42aaaaa14" target="_top" xlink:title="broker_impl">
<polygon fill="none" stroke="black" points="156.5,-38.5 156.5,-57.5 223.5,-57.5 223.5,-38.5 156.5,-38.5"/>
<text text-anchor="middle" x="190" y="-45.5" font-family="Helvetica,sans-Serif" font-size="10.00">broker_impl</text>
</a>
</g>
</g>
<!-- Node1&#45;&gt;Node4 -->
<g id="edge13" class="edge"><title>Node1&#45;&gt;Node4</title>
<path fill="none" stroke="midnightblue" d="M38.1422,-82.875C57.8739,-79.385 90.3035,-73.3825 118,-67 127.223,-64.8747 137.061,-62.3859 146.385,-59.9228"/>
<polygon fill="midnightblue" stroke="midnightblue" points="147.494,-63.2492 156.246,-57.2785 145.681,-56.488 147.494,-63.2492"/>
</g>
<!-- Node8 -->
<g id="node8" class="node"><title>Node8</title>
<g id="a_node8"><a xlink:href="simple__broker_8cpp.html#a1d613e7d0e630b09e38349b345558eb8" target="_top" xlink:title="print_on_exit">
<polygon fill="none" stroke="black" points="154,-0.5 154,-19.5 226,-19.5 226,-0.5 154,-0.5"/>
<text text-anchor="middle" x="190" y="-7.5" font-family="Helvetica,sans-Serif" font-size="10.00">print_on_exit</text>
</a>
</g>
</g>
<!-- Node1&#45;&gt;Node8 -->
<g id="edge9" class="edge"><title>Node1&#45;&gt;Node8</title>
<path fill="none" stroke="midnightblue" d="M26.3164,-76.0758C35.2327,-62.9728 52.8099,-40.2503 74,-29 95.2927,-17.6952 121.672,-12.7974 143.793,-10.7916"/>
<polygon fill="midnightblue" stroke="midnightblue" points="144.231,-14.269 153.946,-10.0423 143.715,-7.28794 144.231,-14.269"/>
</g>
<!-- Node9 -->
<g id="node9" class="node"><title>Node9</title>
<g id="a_node9"><a xlink:href="simple__broker_8cpp.html#ab83d9674f70bb5515d49512ea47cab0e" target="_top" xlink:title="ping">
<polygon fill="none" stroke="black" points="78.5,-114.5 78.5,-133.5 113.5,-133.5 113.5,-114.5 78.5,-114.5"/>
<text text-anchor="middle" x="96" y="-121.5" font-family="Helvetica,sans-Serif" font-size="10.00">ping</text>
</a>
</g>
</g>
<!-- Node1&#45;&gt;Node9 -->
<g id="edge10" class="edge"><title>Node1&#45;&gt;Node9</title>
<path fill="none" stroke="midnightblue" d="M38.1554,-95.1987C47.5155,-99.9412 59.0897,-105.805 69.3464,-111.002"/>
<polygon fill="midnightblue" stroke="midnightblue" points="67.7917,-114.138 78.2939,-115.536 70.9555,-107.894 67.7917,-114.138"/>
</g>
<!-- Node3&#45;&gt;Node4 -->
<g id="edge3" class="edge"><title>Node3&#45;&gt;Node4</title>
<path fill="none" stroke="midnightblue" d="M118.338,-48C126.602,-48 136.374,-48 145.972,-48"/>
<polygon fill="midnightblue" stroke="midnightblue" points="146.24,-51.5001 156.24,-48 146.24,-44.5001 146.24,-51.5001"/>
</g>
<!-- Node7 -->
<g id="node7" class="node"><title>Node7</title>
<g id="a_node7"><a xlink:href="namespacepatch.html#a54d2400c78aef13e3748a87cd7c86ede" target="_top" xlink:title="patch::to_string">
<polygon fill="none" stroke="black" points="262,-76.5 262,-95.5 346,-95.5 346,-76.5 262,-76.5"/>
<text text-anchor="middle" x="304" y="-83.5" font-family="Helvetica,sans-Serif" font-size="10.00">patch::to_string</text>
</a>
</g>
</g>
<!-- Node3&#45;&gt;Node7 -->
<g id="edge8" class="edge"><title>Node3&#45;&gt;Node7</title>
<path fill="none" stroke="midnightblue" d="M118.103,-56.1282C128.73,-59.9395 141.898,-64.2391 154,-67 186.041,-74.3094 222.644,-79.0267 251.553,-81.9326"/>
<polygon fill="midnightblue" stroke="midnightblue" points="251.543,-85.4478 261.833,-82.9227 252.214,-78.4801 251.543,-85.4478"/>
</g>
<!-- Node3&#45;&gt;Node8 -->
<g id="edge7" class="edge"><title>Node3&#45;&gt;Node8</title>
<path fill="none" stroke="midnightblue" d="M118.338,-39.1865C129.674,-34.5042 143.847,-28.65 156.519,-23.4162"/>
<polygon fill="midnightblue" stroke="midnightblue" points="157.937,-26.6171 165.844,-19.5645 155.265,-20.1472 157.937,-26.6171"/>
</g>
<!-- Node5 -->
<g id="node5" class="node"><title>Node5</title>
<g id="a_node5"><a xlink:href="simple__broker_8cpp.html#a186f08a0fe38dc99460dabc1b54c91ed" target="_top" xlink:title="write_int">
<polygon fill="none" stroke="black" points="277.5,-38.5 277.5,-57.5 330.5,-57.5 330.5,-38.5 277.5,-38.5"/>
<text text-anchor="middle" x="304" y="-45.5" font-family="Helvetica,sans-Serif" font-size="10.00">write_int</text>
</a>
</g>
</g>
<!-- Node4&#45;&gt;Node5 -->
<g id="edge4" class="edge"><title>Node4&#45;&gt;Node5</title>
<path fill="none" stroke="midnightblue" d="M223.696,-48C237.279,-48 253.089,-48 267.002,-48"/>
<polygon fill="midnightblue" stroke="midnightblue" points="267.204,-51.5001 277.204,-48 267.204,-44.5001 267.204,-51.5001"/>
</g>
<!-- Node6 -->
<g id="node6" class="node"><title>Node6</title>
<g id="a_node6"><a xlink:href="simple__broker_8cpp.html#a514f74cb010471df7bbf1042949afd3f" target="_top" xlink:title="read_int">
<polygon fill="none" stroke="black" points="278.5,-0.5 278.5,-19.5 329.5,-19.5 329.5,-0.5 278.5,-0.5"/>
<text text-anchor="middle" x="304" y="-7.5" font-family="Helvetica,sans-Serif" font-size="10.00">read_int</text>
</a>
</g>
</g>
<!-- Node4&#45;&gt;Node6 -->
<g id="edge5" class="edge"><title>Node4&#45;&gt;Node6</title>
<path fill="none" stroke="midnightblue" d="M219.262,-38.411C234.147,-33.3609 252.529,-27.1242 268.275,-21.7818"/>
<polygon fill="midnightblue" stroke="midnightblue" points="269.833,-24.9491 278.178,-18.4216 267.584,-18.3202 269.833,-24.9491"/>
</g>
<!-- Node4&#45;&gt;Node7 -->
<g id="edge6" class="edge"><title>Node4&#45;&gt;Node7</title>
<path fill="none" stroke="midnightblue" d="M219.262,-57.589C233.19,-62.3144 250.18,-68.0789 265.207,-73.1774"/>
<polygon fill="midnightblue" stroke="midnightblue" points="264.152,-76.5155 274.747,-76.4141 266.401,-69.8866 264.152,-76.5155"/>
</g>
<!-- Node9&#45;&gt;Node2 -->
<g id="edge11" class="edge"><title>Node9&#45;&gt;Node2</title>
<path fill="none" stroke="midnightblue" d="M113.874,-130.97C127.151,-136.454 145.926,-144.209 161.386,-150.594"/>
<polygon fill="midnightblue" stroke="midnightblue" points="160.396,-153.972 170.975,-154.555 163.068,-147.502 160.396,-153.972"/>
</g>
<!-- Node9&#45;&gt;Node7 -->
<g id="edge12" class="edge"><title>Node9&#45;&gt;Node7</title>
<path fill="none" stroke="midnightblue" d="M113.51,-120.955C143.156,-115.486 206.54,-103.794 251.835,-95.4382"/>
<polygon fill="midnightblue" stroke="midnightblue" points="252.58,-98.8599 261.779,-93.6039 251.31,-91.9761 252.58,-98.8599"/>
</g>
</g>
</svg>
