<?xml version="1.0" encoding="UTF-8" standalone="no"?>
<!DOCTYPE svg PUBLIC "-//W3C//DTD SVG 1.1//EN"
 "http://www.w3.org/Graphics/SVG/1.1/DTD/svg11.dtd">
<!-- Generated by graphviz version 2.36.0 (20140111.2315)
 -->
<!-- Title: pong Pages: 1 -->
<svg width="230pt" height="85pt"
 viewBox="0.00 0.00 230.00 85.00" xmlns="http://www.w3.org/2000/svg" xmlns:xlink="http://www.w3.org/1999/xlink">
<g id="graph0" class="graph" transform="scale(1 1) rotate(0) translate(4 81)">
<title>pong</title>
<!-- Node1 -->
<g id="node1" class="node"><title>Node1</title>
<polygon fill="#bfbfbf" stroke="black" points="0,-19.5 0,-38.5 38,-38.5 38,-19.5 0,-19.5"/>
<text text-anchor="middle" x="19" y="-26.5" font-family="Helvetica,sans-Serif" font-size="10.00">pong</text>
</g>
<!-- Node2 -->
<g id="node2" class="node"><title>Node2</title>
<g id="a_node2"><a xlink:href="protobuf__broker_8cpp.html#a5aa06bb1457d01d2c75e504710becca7" target="_top" xlink:title="sendWarning">
<polygon fill="none" stroke="black" points="74,-57.5 74,-76.5 148,-76.5 148,-57.5 74,-57.5"/>
<text text-anchor="middle" x="111" y="-64.5" font-family="Helvetica,sans-Serif" font-size="10.00">sendWarning</text>
</a>
</g>
</g>
<!-- Node1&#45;&gt;Node2 -->
<g id="edge1" class="edge"><title>Node1&#45;&gt;Node2</title>
<path fill="none" stroke="midnightblue" d="M47.4569,-40.5929C60.226,-45.9843 75.2293,-52.319 87.34,-57.4325"/>
<polygon fill="midnightblue" stroke="midnightblue" points="48.7868,-37.3553 38.2128,-36.6899 46.0639,-43.804 48.7868,-37.3553"/>
</g>
<!-- Node4 -->
<g id="node4" class="node"><title>Node4</title>
<g id="a_node4"><a xlink:href="simple__broker_8cpp.html#ab83d9674f70bb5515d49512ea47cab0e" target="_top" xlink:title="ping">
<polygon fill="none" stroke="black" points="93.5,-19.5 93.5,-38.5 128.5,-38.5 128.5,-19.5 93.5,-19.5"/>
<text text-anchor="middle" x="111" y="-26.5" font-family="Helvetica,sans-Serif" font-size="10.00">ping</text>
</a>
</g>
</g>
<!-- Node1&#45;&gt;Node4 -->
<g id="edge3" class="edge"><title>Node1&#45;&gt;Node4</title>
<path fill="none" stroke="midnightblue" d="M48.3778,-29C63.1669,-29 80.7428,-29 93.3319,-29"/>
<polygon fill="midnightblue" stroke="midnightblue" points="48.2129,-25.5001 38.2128,-29 48.2128,-32.5001 48.2129,-25.5001"/>
</g>
<!-- Node5 -->
<g id="node5" class="node"><title>Node5</title>
<g id="a_node5"><a xlink:href="simple__broker_8cpp.html#a3c04138a5bfe5d72780bb7e82a18e627" target="_top" xlink:title="main">
<polygon fill="none" stroke="black" points="184,-0.5 184,-19.5 222,-19.5 222,-0.5 184,-0.5"/>
<text text-anchor="middle" x="203" y="-7.5" font-family="Helvetica,sans-Serif" font-size="10.00">main</text>
</a>
</g>
</g>
<!-- Node1&#45;&gt;Node5 -->
<g id="edge5" class="edge"><title>Node1&#45;&gt;Node5</title>
<path fill="none" stroke="midnightblue" d="M47.6659,-17.2513C55.9785,-14.2751 65.2245,-11.4988 74,-10 112.553,-3.4154 158.596,-5.88463 183.607,-8.07092"/>
<polygon fill="midnightblue" stroke="midnightblue" points="46.1782,-14.0727 38.0835,-20.9083 48.6742,-20.6126 46.1782,-14.0727"/>
</g>
<!-- Node3 -->
<g id="node3" class="node"><title>Node3</title>
<g id="a_node3"><a xlink:href="protobuf__broker_8cpp.html#a3c04138a5bfe5d72780bb7e82a18e627" target="_top" xlink:title="main">
<polygon fill="none" stroke="black" points="184,-57.5 184,-76.5 222,-76.5 222,-57.5 184,-57.5"/>
<text text-anchor="middle" x="203" y="-64.5" font-family="Helvetica,sans-Serif" font-size="10.00">main</text>
</a>
</g>
</g>
<!-- Node2&#45;&gt;Node3 -->
<g id="edge2" class="edge"><title>Node2&#45;&gt;Node3</title>
<path fill="none" stroke="midnightblue" d="M158.326,-67C167.437,-67 176.476,-67 183.946,-67"/>
<polygon fill="midnightblue" stroke="midnightblue" points="158.088,-63.5001 148.088,-67 158.088,-70.5001 158.088,-63.5001"/>
</g>
<!-- Node4&#45;&gt;Node5 -->
<g id="edge4" class="edge"><title>Node4&#45;&gt;Node5</title>
<path fill="none" stroke="midnightblue" d="M138.445,-23.4171C153.01,-20.3424 170.718,-16.6039 183.74,-13.8549"/>
<polygon fill="midnightblue" stroke="midnightblue" points="137.569,-20.0249 128.507,-25.5151 139.015,-26.874 137.569,-20.0249"/>
</g>
</g>
</svg>
