<?xml version="1.0" encoding="UTF-8" standalone="no"?>
<!DOCTYPE svg PUBLIC "-//W3C//DTD SVG 1.1//EN"
 "http://www.w3.org/Graphics/SVG/1.1/DTD/svg11.dtd">
<!-- Generated by graphviz version 2.36.0 (20140111.2315)
 -->
<!-- Title: server Pages: 1 -->
<svg width="280pt" height="142pt"
 viewBox="0.00 0.00 280.00 142.00" xmlns="http://www.w3.org/2000/svg" xmlns:xlink="http://www.w3.org/1999/xlink">
<g id="graph0" class="graph" transform="scale(1 1) rotate(0) translate(4 138)">
<title>server</title>
<!-- Node1 -->
<g id="node1" class="node"><title>Node1</title>
<polygon fill="#bfbfbf" stroke="black" points="0,-38.5 0,-57.5 44,-57.5 44,-38.5 0,-38.5"/>
<text text-anchor="middle" x="22" y="-45.5" font-family="Helvetica,sans-Serif" font-size="10.00">server</text>
</g>
<!-- Node2 -->
<g id="node2" class="node"><title>Node2</title>
<g id="a_node2"><a xlink:href="simple__broker_8cpp.html#aece465c2b927744e1d38b7a42aaaaa14" target="_top" xlink:title="broker_impl">
<polygon fill="none" stroke="black" points="82.5,-76.5 82.5,-95.5 149.5,-95.5 149.5,-76.5 82.5,-76.5"/>
<text text-anchor="middle" x="116" y="-83.5" font-family="Helvetica,sans-Serif" font-size="10.00">broker_impl</text>
</a>
</g>
</g>
<!-- Node1&#45;&gt;Node2 -->
<g id="edge1" class="edge"><title>Node1&#45;&gt;Node2</title>
<path fill="none" stroke="midnightblue" d="M44.3379,-56.8135C55.6741,-61.4958 69.8474,-67.35 82.5187,-72.5838"/>
<polygon fill="midnightblue" stroke="midnightblue" points="81.2651,-75.8528 91.8439,-76.4355 83.9375,-69.3829 81.2651,-75.8528"/>
</g>
<!-- Node5 -->
<g id="node5" class="node"><title>Node5</title>
<g id="a_node5"><a xlink:href="namespacepatch.html#a54d2400c78aef13e3748a87cd7c86ede" target="_top" xlink:title="patch::to_string">
<polygon fill="none" stroke="black" points="188,-38.5 188,-57.5 272,-57.5 272,-38.5 188,-38.5"/>
<text text-anchor="middle" x="230" y="-45.5" font-family="Helvetica,sans-Serif" font-size="10.00">patch::to_string</text>
</a>
</g>
</g>
<!-- Node1&#45;&gt;Node5 -->
<g id="edge6" class="edge"><title>Node1&#45;&gt;Node5</title>
<path fill="none" stroke="midnightblue" d="M44.2697,-48C75.485,-48 134.652,-48 177.635,-48"/>
<polygon fill="midnightblue" stroke="midnightblue" points="177.638,-51.5001 187.638,-48 177.638,-44.5001 177.638,-51.5001"/>
</g>
<!-- Node6 -->
<g id="node6" class="node"><title>Node6</title>
<g id="a_node6"><a xlink:href="simple__broker_8cpp.html#a1d613e7d0e630b09e38349b345558eb8" target="_top" xlink:title="print_on_exit">
<polygon fill="none" stroke="black" points="80,-0.5 80,-19.5 152,-19.5 152,-0.5 80,-0.5"/>
<text text-anchor="middle" x="116" y="-7.5" font-family="Helvetica,sans-Serif" font-size="10.00">print_on_exit</text>
</a>
</g>
</g>
<!-- Node1&#45;&gt;Node6 -->
<g id="edge5" class="edge"><title>Node1&#45;&gt;Node6</title>
<path fill="none" stroke="midnightblue" d="M44.3379,-39.1865C55.6741,-34.5042 69.8474,-28.65 82.5187,-23.4162"/>
<polygon fill="midnightblue" stroke="midnightblue" points="83.9375,-26.6171 91.8439,-19.5645 81.2651,-20.1472 83.9375,-26.6171"/>
</g>
<!-- Node3 -->
<g id="node3" class="node"><title>Node3</title>
<g id="a_node3"><a xlink:href="simple__broker_8cpp.html#a186f08a0fe38dc99460dabc1b54c91ed" target="_top" xlink:title="write_int">
<polygon fill="none" stroke="black" points="203.5,-114.5 203.5,-133.5 256.5,-133.5 256.5,-114.5 203.5,-114.5"/>
<text text-anchor="middle" x="230" y="-121.5" font-family="Helvetica,sans-Serif" font-size="10.00">write_int</text>
</a>
</g>
</g>
<!-- Node2&#45;&gt;Node3 -->
<g id="edge2" class="edge"><title>Node2&#45;&gt;Node3</title>
<path fill="none" stroke="midnightblue" d="M145.262,-95.589C159.934,-100.567 178.004,-106.698 193.598,-111.989"/>
<polygon fill="midnightblue" stroke="midnightblue" points="192.833,-115.425 203.428,-115.324 195.083,-108.796 192.833,-115.425"/>
</g>
<!-- Node4 -->
<g id="node4" class="node"><title>Node4</title>
<g id="a_node4"><a xlink:href="simple__broker_8cpp.html#a514f74cb010471df7bbf1042949afd3f" target="_top" xlink:title="read_int">
<polygon fill="none" stroke="black" points="204.5,-76.5 204.5,-95.5 255.5,-95.5 255.5,-76.5 204.5,-76.5"/>
<text text-anchor="middle" x="230" y="-83.5" font-family="Helvetica,sans-Serif" font-size="10.00">read_int</text>
</a>
</g>
</g>
<!-- Node2&#45;&gt;Node4 -->
<g id="edge3" class="edge"><title>Node2&#45;&gt;Node4</title>
<path fill="none" stroke="midnightblue" d="M149.696,-86C163.588,-86 179.809,-86 193.948,-86"/>
<polygon fill="midnightblue" stroke="midnightblue" points="194.281,-89.5001 204.281,-86 194.281,-82.5001 194.281,-89.5001"/>
</g>
<!-- Node2&#45;&gt;Node5 -->
<g id="edge4" class="edge"><title>Node2&#45;&gt;Node5</title>
<path fill="none" stroke="midnightblue" d="M145.262,-76.411C159.19,-71.6856 176.18,-65.9211 191.207,-60.8226"/>
<polygon fill="midnightblue" stroke="midnightblue" points="192.401,-64.1134 200.747,-57.5859 190.152,-57.4845 192.401,-64.1134"/>
</g>
</g>
</svg>
