<?xml version="1.0" encoding="UTF-8" standalone="no"?>
<!DOCTYPE svg PUBLIC "-//W3C//DTD SVG 1.1//EN"
 "http://www.w3.org/Graphics/SVG/1.1/DTD/svg11.dtd">
<!-- Generated by graphviz version 2.36.0 (20140111.2315)
 -->
<!-- Title: ping Pages: 1 -->
<svg width="164pt" height="66pt"
 viewBox="0.00 0.00 164.00 66.00" xmlns="http://www.w3.org/2000/svg" xmlns:xlink="http://www.w3.org/1999/xlink">
<g id="graph0" class="graph" transform="scale(1 1) rotate(0) translate(4 62)">
<title>ping</title>
<!-- Node1 -->
<g id="node1" class="node"><title>Node1</title>
<polygon fill="#bfbfbf" stroke="black" points="0.5,-19.5 0.5,-38.5 35.5,-38.5 35.5,-19.5 0.5,-19.5"/>
<text text-anchor="middle" x="18" y="-26.5" font-family="Helvetica,sans-Serif" font-size="10.00">ping</text>
</g>
<!-- Node2 -->
<g id="node2" class="node"><title>Node2</title>
<g id="a_node2"><a xlink:href="simple__broker_8cpp.html#a64a252d20d43c09d3144b9b4713481e8" target="_top" xlink:title="pong">
<polygon fill="none" stroke="black" points="95,-38.5 95,-57.5 133,-57.5 133,-38.5 95,-38.5"/>
<text text-anchor="middle" x="114" y="-45.5" font-family="Helvetica,sans-Serif" font-size="10.00">pong</text>
</a>
</g>
</g>
<!-- Node1&#45;&gt;Node2 -->
<g id="edge1" class="edge"><title>Node1&#45;&gt;Node2</title>
<path fill="none" stroke="midnightblue" d="M35.8053,-32.3968C49.4075,-35.1462 68.861,-39.0783 84.8358,-42.3072"/>
<polygon fill="midnightblue" stroke="midnightblue" points="84.2395,-45.7574 94.7348,-44.3081 85.6264,-38.8962 84.2395,-45.7574"/>
</g>
<!-- Node3 -->
<g id="node3" class="node"><title>Node3</title>
<g id="a_node3"><a xlink:href="namespacepatch.html#a54d2400c78aef13e3748a87cd7c86ede" target="_top" xlink:title="patch::to_string">
<polygon fill="none" stroke="black" points="72,-0.5 72,-19.5 156,-19.5 156,-0.5 72,-0.5"/>
<text text-anchor="middle" x="114" y="-7.5" font-family="Helvetica,sans-Serif" font-size="10.00">patch::to_string</text>
</a>
</g>
</g>
<!-- Node1&#45;&gt;Node3 -->
<g id="edge2" class="edge"><title>Node1&#45;&gt;Node3</title>
<path fill="none" stroke="midnightblue" d="M35.8053,-25.6032C43.2521,-24.098 52.4526,-22.2383 61.8759,-20.3336"/>
<polygon fill="midnightblue" stroke="midnightblue" points="62.6042,-23.7573 71.7125,-18.3453 61.2173,-16.896 62.6042,-23.7573"/>
</g>
</g>
</svg>
