<?xml version="1.0" encoding="UTF-8" standalone="no"?>
<!DOCTYPE svg PUBLIC "-//W3C//DTD SVG 1.1//EN"
 "http://www.w3.org/Graphics/SVG/1.1/DTD/svg11.dtd">
<!-- Generated by graphviz version 2.36.0 (20140111.2315)
 -->
<!-- Title: main Pages: 1 -->
<!--zoomable 435 -->
<svg id="main" version="1.1" xmlns="http://www.w3.org/2000/svg" xmlns:xlink="http://www.w3.org/1999/xlink" xml:space="preserve" onload="init(evt)">
<style type="text/css"><![CDATA[
.edge:hover path { stroke: red; }
.edge:hover polygon { stroke: red; fill: red; }
]]></style>
<script type="text/javascript"><![CDATA[
var edges = document.getElementsByTagName('g');
if (edges && edges.length) {
  for (var i=0;i<edges.length;i++) {
    if (edges[i].id.substr(0,4)=='edge') {
      edges[i].setAttribute('class','edge');
    }
  }
}
]]></script>
        <defs>
                <circle id="rim" cx="0" cy="0" r="7"/>
                <circle id="rim2" cx="0" cy="0" r="3.5"/>
                <g id="zoomPlus">
                        <use xlink:href="#rim" fill="#404040">
                                <set attributeName="fill" to="#808080" begin="zoomplus.mouseover" end="zoomplus.mouseout"/>
                        </use>
                        <path d="M-4,0h8M0,-4v8" fill="none" stroke="white" stroke-width="1.5" pointer-events="none"/>
                </g>
                <g id="zoomMin">
                        <use xlink:href="#rim" fill="#404040">
                                <set attributeName="fill" to="#808080" begin="zoomminus.mouseover" end="zoomminus.mouseout"/>
                        </use>
                        <path d="M-4,0h8" fill="none" stroke="white" stroke-width="1.5" pointer-events="none"/>
                </g>
                <g id="dirArrow">
                        <path fill="none" stroke="white" stroke-width="1.5" d="M0,-3.0v7 M-2.5,-0.5L0,-3.0L2.5,-0.5"/>
                </g>
               <g id="resetDef">
                       <use xlink:href="#rim2" fill="#404040">
                               <set attributeName="fill" to="#808080" begin="reset.mouseover" end="reset.mouseout"/>
                       </use>
               </g>
        </defs>

<script type="text/javascript">
var viewWidth = 790;
var viewHeight = 435;
var sectionId = 'dynsection-1';
</script>
<script xlink:href="svgpan.js"/>
<svg id="graph" class="graph">
<g id="viewport">
<title>main</title>
<!-- Node1 -->
<g id="node1" class="node"><title>Node1</title>
<polygon fill="#bfbfbf" stroke="black" points="0,-309.5 0,-328.5 38,-328.5 38,-309.5 0,-309.5"/>
<text text-anchor="middle" x="19" y="-316.5" font-family="Helvetica,sans-Serif" font-size="10.00">main</text>
</g>
<!-- Node2 -->
<g id="node2" class="node"><title>Node2</title>
<g id="a_node2"><a xlink:href="classController.html#aee012beb2309ae88b7278fa3dad06d80" target="_top" xlink:title="Controller::PlayHDFAsVideo">
<polygon fill="none" stroke="black" points="74,-309.5 74,-328.5 216,-328.5 216,-309.5 74,-309.5"/>
<text text-anchor="middle" x="145" y="-316.5" font-family="Helvetica,sans-Serif" font-size="10.00">Controller::PlayHDFAsVideo</text>
</a>
</g>
</g>
<!-- Node1&#45;&gt;Node2 -->
<g id="edge1" class="edge"><title>Node1&#45;&gt;Node2</title>
<path fill="none" stroke="midnightblue" d="M38.0307,-319C45.2593,-319 54.1309,-319 63.6354,-319"/>
<polygon fill="midnightblue" stroke="midnightblue" points="63.7269,-322.5 73.7268,-319 63.7268,-315.5 63.7269,-322.5"/>
</g>
<!-- Node5 -->
<g id="node5" class="node"><title>Node5</title>
<g id="a_node5"><a xlink:href="classImageView.html#a837a13b1002126beb39dc9425151123c" target="_top" xlink:title="ImageView::ShowImage">
<polygon fill="none" stroke="black" points="268.5,-347.5 268.5,-366.5 391.5,-366.5 391.5,-347.5 268.5,-347.5"/>
<text text-anchor="middle" x="330" y="-354.5" font-family="Helvetica,sans-Serif" font-size="10.00">ImageView::ShowImage</text>
</a>
</g>
</g>
<!-- Node1&#45;&gt;Node5 -->
<g id="edge22" class="edge"><title>Node1&#45;&gt;Node5</title>
<path fill="none" stroke="midnightblue" d="M38.1507,-326.738C48.4704,-330.792 61.7433,-335.434 74,-338 135.41,-350.855 206.732,-355.307 258.307,-356.716"/>
<polygon fill="midnightblue" stroke="midnightblue" points="258.268,-360.216 268.35,-356.959 258.438,-353.218 258.268,-360.216"/>
</g>
<!-- Node10 -->
<g id="node10" class="node"><title>Node10</title>
<g id="a_node10"><a xlink:href="classFrameSelector.html#a1065c609443efd72a3236cc98f168caa" target="_top" xlink:title="FrameSelector::ReadImage">
<polygon fill="none" stroke="black" points="261.5,-197.5 261.5,-216.5 398.5,-216.5 398.5,-197.5 261.5,-197.5"/>
<text text-anchor="middle" x="330" y="-204.5" font-family="Helvetica,sans-Serif" font-size="10.00">FrameSelector::ReadImage</text>
</a>
</g>
</g>
<!-- Node1&#45;&gt;Node10 -->
<g id="edge21" class="edge"><title>Node1&#45;&gt;Node10</title>
<path fill="none" stroke="midnightblue" d="M38.404,-312.329C88.331,-294.233 227.007,-243.968 293.09,-220.016"/>
<polygon fill="midnightblue" stroke="midnightblue" points="294.463,-223.241 302.672,-216.543 292.077,-216.66 294.463,-223.241"/>
</g>
<!-- Node3 -->
<g id="node3" class="node"><title>Node3</title>
<g id="a_node3"><a xlink:href="classFrameSelector.html#a24b62c5e5e66b40cfc72cda4c8409212" target="_top" xlink:title="FrameSelector::GetImageCount">
<polygon fill="none" stroke="black" points="252.5,-309.5 252.5,-328.5 407.5,-328.5 407.5,-309.5 252.5,-309.5"/>
<text text-anchor="middle" x="330" y="-316.5" font-family="Helvetica,sans-Serif" font-size="10.00">FrameSelector::GetImageCount</text>
</a>
</g>
</g>
<!-- Node2&#45;&gt;Node3 -->
<g id="edge2" class="edge"><title>Node2&#45;&gt;Node3</title>
<path fill="none" stroke="midnightblue" d="M216.229,-319C224.705,-319 233.439,-319 242.118,-319"/>
<polygon fill="midnightblue" stroke="midnightblue" points="242.261,-322.5 252.261,-319 242.261,-315.5 242.261,-322.5"/>
</g>
<!-- Node2&#45;&gt;Node5 -->
<g id="edge4" class="edge"><title>Node2&#45;&gt;Node5</title>
<path fill="none" stroke="midnightblue" d="M192.179,-328.589C216.763,-333.694 247.186,-340.011 273.097,-345.392"/>
<polygon fill="midnightblue" stroke="midnightblue" points="272.651,-348.874 283.153,-347.48 274.074,-342.02 272.651,-348.874"/>
</g>
<!-- Node2&#45;&gt;Node10 -->
<g id="edge9" class="edge"><title>Node2&#45;&gt;Node10</title>
<path fill="none" stroke="midnightblue" d="M161.602,-309.451C193.475,-289.944 266.268,-245.393 304.506,-221.991"/>
<polygon fill="midnightblue" stroke="midnightblue" points="306.735,-224.73 313.437,-216.525 303.081,-218.76 306.735,-224.73"/>
</g>
<!-- Node4 -->
<g id="node4" class="node"><title>Node4</title>
<g id="a_node4"><a xlink:href="classHDFReader.html#a679c61f47dbc9077c1628aae6688f40d" target="_top" xlink:title="HDFReader::GetNumberOfProtobuf\lFiles">
<polygon fill="none" stroke="black" points="444.5,-329 444.5,-359 617.5,-359 617.5,-329 444.5,-329"/>
<text text-anchor="start" x="452.5" y="-347" font-family="Helvetica,sans-Serif" font-size="10.00">HDFReader::GetNumberOfProtobuf</text>
<text text-anchor="middle" x="531" y="-336" font-family="Helvetica,sans-Serif" font-size="10.00">Files</text>
</a>
</g>
</g>
<!-- Node3&#45;&gt;Node4 -->
<g id="edge3" class="edge"><title>Node3&#45;&gt;Node4</title>
<path fill="none" stroke="midnightblue" d="M406.801,-328.523C415.835,-329.658 425.146,-330.827 434.412,-331.991"/>
<polygon fill="midnightblue" stroke="midnightblue" points="434.075,-335.477 444.433,-333.25 434.947,-328.531 434.075,-335.477"/>
</g>
<!-- Node6 -->
<g id="node6" class="node"><title>Node6</title>
<g id="a_node6"><a xlink:href="classImage.html#a7377f0e785df116fbdb53651006fcb67" target="_top" xlink:title="Image::GetRGBImage">
<polygon fill="none" stroke="black" points="474,-378.5 474,-397.5 588,-397.5 588,-378.5 474,-378.5"/>
<text text-anchor="middle" x="531" y="-385.5" font-family="Helvetica,sans-Serif" font-size="10.00">Image::GetRGBImage</text>
</a>
</g>
</g>
<!-- Node5&#45;&gt;Node6 -->
<g id="edge5" class="edge"><title>Node5&#45;&gt;Node6</title>
<path fill="none" stroke="midnightblue" d="M391.517,-366.427C414.328,-369.981 440.385,-374.04 463.696,-377.671"/>
<polygon fill="midnightblue" stroke="midnightblue" points="463.426,-381.171 473.846,-379.252 464.504,-374.255 463.426,-381.171"/>
</g>
<!-- Node7 -->
<g id="node7" class="node"><title>Node7</title>
<g id="a_node7"><a xlink:href="classImage.html#adc25a467233718f37ae881cdebffa5c2" target="_top" xlink:title="Image::GetImageWidth">
<polygon fill="none" stroke="black" points="659,-323.5 659,-342.5 777,-342.5 777,-323.5 659,-323.5"/>
<text text-anchor="middle" x="718" y="-330.5" font-family="Helvetica,sans-Serif" font-size="10.00">Image::GetImageWidth</text>
</a>
</g>
</g>
<!-- Node6&#45;&gt;Node7 -->
<g id="edge6" class="edge"><title>Node6&#45;&gt;Node7</title>
<path fill="none" stroke="midnightblue" d="M577.325,-378.454C590.52,-375.407 604.904,-371.825 618,-368 639.905,-361.602 664.059,-353.093 683.025,-346.066"/>
<polygon fill="midnightblue" stroke="midnightblue" points="684.292,-349.329 692.431,-342.546 681.838,-342.773 684.292,-349.329"/>
</g>
<!-- Node8 -->
<g id="node8" class="node"><title>Node8</title>
<g id="a_node8"><a xlink:href="classImage.html#a141671a32d6e069211abd2211f0d8849" target="_top" xlink:title="Image::GetImageHeight">
<polygon fill="none" stroke="black" points="657.5,-369.5 657.5,-388.5 778.5,-388.5 778.5,-369.5 657.5,-369.5"/>
<text text-anchor="middle" x="718" y="-376.5" font-family="Helvetica,sans-Serif" font-size="10.00">Image::GetImageHeight</text>
</a>
</g>
</g>
<!-- Node6&#45;&gt;Node8 -->
<g id="edge7" class="edge"><title>Node6&#45;&gt;Node8</title>
<path fill="none" stroke="midnightblue" d="M588.008,-385.275C606.664,-384.368 627.678,-383.345 647.245,-382.393"/>
<polygon fill="midnightblue" stroke="midnightblue" points="647.507,-385.885 657.325,-381.903 647.167,-378.893 647.507,-385.885"/>
</g>
<!-- Node9 -->
<g id="node9" class="node"><title>Node9</title>
<g id="a_node9"><a xlink:href="classImage.html#ad3f43e3ace90b4893eed677deb6a2631" target="_top" xlink:title="Image::GetImagePayload">
<polygon fill="none" stroke="black" points="654,-407.5 654,-426.5 782,-426.5 782,-407.5 654,-407.5"/>
<text text-anchor="middle" x="718" y="-414.5" font-family="Helvetica,sans-Serif" font-size="10.00">Image::GetImagePayload</text>
</a>
</g>
</g>
<!-- Node6&#45;&gt;Node9 -->
<g id="edge8" class="edge"><title>Node6&#45;&gt;Node9</title>
<path fill="none" stroke="midnightblue" d="M588.008,-396.78C606.392,-399.661 627.067,-402.902 646.389,-405.931"/>
<polygon fill="midnightblue" stroke="midnightblue" points="645.93,-409.402 656.351,-407.493 647.014,-402.486 645.93,-409.402"/>
</g>
<!-- Node10&#45;&gt;Node7 -->
<g id="edge20" class="edge"><title>Node10&#45;&gt;Node7</title>
<path fill="none" stroke="midnightblue" d="M342.687,-216.751C362.309,-232.593 403.7,-263.779 444,-280 480.318,-294.618 580.181,-311.985 648.503,-322.751"/>
<polygon fill="midnightblue" stroke="midnightblue" points="648.342,-326.269 658.762,-324.356 649.423,-319.353 648.342,-326.269"/>
</g>
<!-- Node11 -->
<g id="node11" class="node"><title>Node11</title>
<g id="a_node11"><a xlink:href="classHDFReader.html#a8be8f7b773c8547b5ace39960541fd33" target="_top" xlink:title="HDFReader::ReadOneProtobufFile">
<polygon fill="none" stroke="black" points="446.5,-153.5 446.5,-172.5 615.5,-172.5 615.5,-153.5 446.5,-153.5"/>
<text text-anchor="middle" x="531" y="-160.5" font-family="Helvetica,sans-Serif" font-size="10.00">HDFReader::ReadOneProtobufFile</text>
</a>
</g>
</g>
<!-- Node10&#45;&gt;Node11 -->
<g id="edge10" class="edge"><title>Node10&#45;&gt;Node11</title>
<path fill="none" stroke="midnightblue" d="M373.926,-197.5C395.033,-192.83 420.85,-187.118 444,-182 454.631,-179.65 466.001,-177.137 476.877,-174.734"/>
<polygon fill="midnightblue" stroke="midnightblue" points="477.681,-178.141 486.69,-172.566 476.171,-171.306 477.681,-178.141"/>
</g>
<!-- Node13 -->
<g id="node13" class="node"><title>Node13</title>
<g id="a_node13"><a xlink:href="classFrameSelector.html#ae72491ab70eb61111b1cebfb637a53a2" target="_top" xlink:title="FrameSelector::ConvertProtobuf\lFileToArray">
<polygon fill="none" stroke="black" points="452,-104 452,-134 610,-134 610,-104 452,-104"/>
<text text-anchor="start" x="460" y="-122" font-family="Helvetica,sans-Serif" font-size="10.00">FrameSelector::ConvertProtobuf</text>
<text text-anchor="middle" x="531" y="-111" font-family="Helvetica,sans-Serif" font-size="10.00">FileToArray</text>
</a>
</g>
</g>
<!-- Node10&#45;&gt;Node13 -->
<g id="edge12" class="edge"><title>Node10&#45;&gt;Node13</title>
<path fill="none" stroke="midnightblue" d="M345.804,-197.311C366.889,-183.85 407.11,-159.413 444,-144 449.743,-141.601 455.793,-139.34 461.913,-137.234"/>
<polygon fill="midnightblue" stroke="midnightblue" points="463.155,-140.51 471.555,-134.054 460.962,-133.863 463.155,-140.51"/>
</g>
<!-- Node14 -->
<g id="node14" class="node"><title>Node14</title>
<g id="a_node14"><a xlink:href="classProtobufImageWrapper.html#aba70c98783a278dd1b62771c244cf3f9" target="_top" xlink:title="ProtobufImageWrapper\l::ParseFromArray">
<polygon fill="none" stroke="black" points="472.5,-55 472.5,-85 589.5,-85 589.5,-55 472.5,-55"/>
<text text-anchor="start" x="480.5" y="-73" font-family="Helvetica,sans-Serif" font-size="10.00">ProtobufImageWrapper</text>
<text text-anchor="middle" x="531" y="-62" font-family="Helvetica,sans-Serif" font-size="10.00">::ParseFromArray</text>
</a>
</g>
</g>
<!-- Node10&#45;&gt;Node14 -->
<g id="edge13" class="edge"><title>Node10&#45;&gt;Node14</title>
<path fill="none" stroke="midnightblue" d="M337.739,-197.489C353.65,-175.749 395.85,-122.132 444,-94 449.845,-90.5849 456.199,-87.6366 462.717,-85.0951"/>
<polygon fill="midnightblue" stroke="midnightblue" points="464.106,-88.3158 472.345,-81.6557 461.751,-81.7237 464.106,-88.3158"/>
</g>
<!-- Node15 -->
<g id="node15" class="node"><title>Node15</title>
<g id="a_node15"><a xlink:href="classProtobufImageWrapper.html#a444790ea96785a92ab17a8be689f9872" target="_top" xlink:title="ProtobufImageWrapper\l::GetImagePayload">
<polygon fill="none" stroke="black" points="472.5,-6 472.5,-36 589.5,-36 589.5,-6 472.5,-6"/>
<text text-anchor="start" x="480.5" y="-24" font-family="Helvetica,sans-Serif" font-size="10.00">ProtobufImageWrapper</text>
<text text-anchor="middle" x="531" y="-13" font-family="Helvetica,sans-Serif" font-size="10.00">::GetImagePayload</text>
</a>
</g>
</g>
<!-- Node10&#45;&gt;Node15 -->
<g id="edge14" class="edge"><title>Node10&#45;&gt;Node15</title>
<path fill="none" stroke="midnightblue" d="M334.945,-197.223C346.852,-168.984 385.264,-86.6615 444,-45 449.692,-40.963 456.041,-37.6037 462.64,-34.8085"/>
<polygon fill="midnightblue" stroke="midnightblue" points="464.324,-37.9136 472.441,-31.1037 461.849,-31.3659 464.324,-37.9136"/>
</g>
<!-- Node17 -->
<g id="node17" class="node"><title>Node17</title>
<g id="a_node17"><a xlink:href="classProtobufImageWrapper.html#aabff426d3c841dad57cbd0f16f5382cd" target="_top" xlink:title="ProtobufImageWrapper\l::GetImageWidth">
<polygon fill="none" stroke="black" points="472.5,-241 472.5,-271 589.5,-271 589.5,-241 472.5,-241"/>
<text text-anchor="start" x="480.5" y="-259" font-family="Helvetica,sans-Serif" font-size="10.00">ProtobufImageWrapper</text>
<text text-anchor="middle" x="531" y="-248" font-family="Helvetica,sans-Serif" font-size="10.00">::GetImageWidth</text>
</a>
</g>
</g>
<!-- Node10&#45;&gt;Node17 -->
<g id="edge16" class="edge"><title>Node10&#45;&gt;Node17</title>
<path fill="none" stroke="midnightblue" d="M369.842,-216.564C396.174,-223.048 431.673,-231.789 462.558,-239.394"/>
<polygon fill="midnightblue" stroke="midnightblue" points="461.859,-242.826 472.405,-241.818 463.532,-236.029 461.859,-242.826"/>
</g>
<!-- Node19 -->
<g id="node19" class="node"><title>Node19</title>
<g id="a_node19"><a xlink:href="classProtobufImageWrapper.html#a7c01e9c1075bc30378996282e17d10a6" target="_top" xlink:title="ProtobufImageWrapper\l::GetImageHeight">
<polygon fill="none" stroke="black" points="472.5,-192 472.5,-222 589.5,-222 589.5,-192 472.5,-192"/>
<text text-anchor="start" x="480.5" y="-210" font-family="Helvetica,sans-Serif" font-size="10.00">ProtobufImageWrapper</text>
<text text-anchor="middle" x="531" y="-199" font-family="Helvetica,sans-Serif" font-size="10.00">::GetImageHeight</text>
</a>
</g>
</g>
<!-- Node10&#45;&gt;Node19 -->
<g id="edge18" class="edge"><title>Node10&#45;&gt;Node19</title>
<path fill="none" stroke="midnightblue" d="M398.65,-207C419.181,-207 441.735,-207 462.272,-207"/>
<polygon fill="midnightblue" stroke="midnightblue" points="462.488,-210.5 472.488,-207 462.488,-203.5 462.488,-210.5"/>
</g>
<!-- Node12 -->
<g id="node12" class="node"><title>Node12</title>
<g id="a_node12"><a xlink:href="namespacepatch.html#a54d2400c78aef13e3748a87cd7c86ede" target="_top" xlink:title="patch::to_string">
<polygon fill="none" stroke="black" points="676,-148.5 676,-167.5 760,-167.5 760,-148.5 676,-148.5"/>
<text text-anchor="middle" x="718" y="-155.5" font-family="Helvetica,sans-Serif" font-size="10.00">patch::to_string</text>
</a>
</g>
</g>
<!-- Node11&#45;&gt;Node12 -->
<g id="edge11" class="edge"><title>Node11&#45;&gt;Node12</title>
<path fill="none" stroke="midnightblue" d="M615.57,-160.741C632.53,-160.283 649.895,-159.814 665.354,-159.396"/>
<polygon fill="midnightblue" stroke="midnightblue" points="665.823,-162.885 675.724,-159.116 665.633,-155.887 665.823,-162.885"/>
</g>
<!-- Node16 -->
<g id="node16" class="node"><title>Node16</title>
<g id="a_node16"><a xlink:href="classpb_1_1SensorNearData_1_1MFC_1_1CameraImage.html#a5a0eb509d1d0626ebcd7af2605cf9593" target="_top" xlink:title="pb::SensorNearData\l::MFC::CameraImage::\limage_payload">
<polygon fill="none" stroke="black" points="659,-0.5 659,-41.5 777,-41.5 777,-0.5 659,-0.5"/>
<text text-anchor="start" x="667" y="-29.5" font-family="Helvetica,sans-Serif" font-size="10.00">pb::SensorNearData</text>
<text text-anchor="start" x="667" y="-18.5" font-family="Helvetica,sans-Serif" font-size="10.00">::MFC::CameraImage::</text>
<text text-anchor="middle" x="718" y="-7.5" font-family="Helvetica,sans-Serif" font-size="10.00">image_payload</text>
</a>
</g>
</g>
<!-- Node15&#45;&gt;Node16 -->
<g id="edge15" class="edge"><title>Node15&#45;&gt;Node16</title>
<path fill="none" stroke="midnightblue" d="M589.521,-21C608.308,-21 629.354,-21 648.846,-21"/>
<polygon fill="midnightblue" stroke="midnightblue" points="648.877,-24.5001 658.877,-21 648.877,-17.5001 648.877,-24.5001"/>
</g>
<!-- Node18 -->
<g id="node18" class="node"><title>Node18</title>
<g id="a_node18"><a xlink:href="classpb_1_1SensorNearData_1_1MFC_1_1CameraImage.html#a094b9c34c186698c13638d66d376e75c" target="_top" xlink:title="pb::SensorNearData\l::MFC::CameraImage::\limage_width">
<polygon fill="none" stroke="black" points="659,-246.5 659,-287.5 777,-287.5 777,-246.5 659,-246.5"/>
<text text-anchor="start" x="667" y="-275.5" font-family="Helvetica,sans-Serif" font-size="10.00">pb::SensorNearData</text>
<text text-anchor="start" x="667" y="-264.5" font-family="Helvetica,sans-Serif" font-size="10.00">::MFC::CameraImage::</text>
<text text-anchor="middle" x="718" y="-253.5" font-family="Helvetica,sans-Serif" font-size="10.00">image_width</text>
</a>
</g>
</g>
<!-- Node17&#45;&gt;Node18 -->
<g id="edge17" class="edge"><title>Node17&#45;&gt;Node18</title>
<path fill="none" stroke="midnightblue" d="M589.521,-259.42C608.308,-260.537 629.354,-261.789 648.846,-262.948"/>
<polygon fill="midnightblue" stroke="midnightblue" points="648.687,-266.444 658.877,-263.544 649.103,-259.457 648.687,-266.444"/>
</g>
<!-- Node20 -->
<g id="node20" class="node"><title>Node20</title>
<g id="a_node20"><a xlink:href="classpb_1_1SensorNearData_1_1MFC_1_1CameraImage.html#aa103619cccc6310931c87d03fcefbed6" target="_top" xlink:title="pb::SensorNearData\l::MFC::CameraImage::\limage_height">
<polygon fill="none" stroke="black" points="659,-186.5 659,-227.5 777,-227.5 777,-186.5 659,-186.5"/>
<text text-anchor="start" x="667" y="-215.5" font-family="Helvetica,sans-Serif" font-size="10.00">pb::SensorNearData</text>
<text text-anchor="start" x="667" y="-204.5" font-family="Helvetica,sans-Serif" font-size="10.00">::MFC::CameraImage::</text>
<text text-anchor="middle" x="718" y="-193.5" font-family="Helvetica,sans-Serif" font-size="10.00">image_height</text>
</a>
</g>
</g>
<!-- Node19&#45;&gt;Node20 -->
<g id="edge19" class="edge"><title>Node19&#45;&gt;Node20</title>
<path fill="none" stroke="midnightblue" d="M589.521,-207C608.308,-207 629.354,-207 648.846,-207"/>
<polygon fill="midnightblue" stroke="midnightblue" points="648.877,-210.5 658.877,-207 648.877,-203.5 648.877,-210.5"/>
</g>
</g>
</svg>
        <g id="navigator" transform="translate(0 0)" fill="#404254">
                <rect fill="#f2f5e9" fill-opacity="0.5" stroke="#606060" stroke-width=".5" x="0" y="0" width="60" height="60"/>
                <use id="zoomplus" xlink:href="#zoomPlus" x="17" y="9" onmousedown="handleZoom(evt,'in')"/>
                <use id="zoomminus" xlink:href="#zoomMin" x="42" y="9" onmousedown="handleZoom(evt,'out')"/>
                <use id="reset" xlink:href="#resetDef" x="30" y="36" onmousedown="handleReset()"/>
                <g id="arrowUp" xlink:href="#dirArrow" transform="translate(30 24)" onmousedown="handlePan(0,-1)">
                  <use xlink:href="#rim" fill="#404040">
                        <set attributeName="fill" to="#808080" begin="arrowUp.mouseover" end="arrowUp.mouseout"/>
                  </use>
                  <path fill="none" stroke="white" stroke-width="1.5" d="M0,-3.0v7 M-2.5,-0.5L0,-3.0L2.5,-0.5"/>
                </g>
                <g id="arrowRight" xlink:href="#dirArrow" transform="rotate(90) translate(36 -43)" onmousedown="handlePan(1,0)">
                  <use xlink:href="#rim" fill="#404040">
                        <set attributeName="fill" to="#808080" begin="arrowRight.mouseover" end="arrowRight.mouseout"/>
                  </use>
                  <path fill="none" stroke="white" stroke-width="1.5" d="M0,-3.0v7 M-2.5,-0.5L0,-3.0L2.5,-0.5"/>
                </g>
                <g id="arrowDown" xlink:href="#dirArrow" transform="rotate(180) translate(-30 -48)" onmousedown="handlePan(0,1)">
                  <use xlink:href="#rim" fill="#404040">
                        <set attributeName="fill" to="#808080" begin="arrowDown.mouseover" end="arrowDown.mouseout"/>
                  </use>
                  <path fill="none" stroke="white" stroke-width="1.5" d="M0,-3.0v7 M-2.5,-0.5L0,-3.0L2.5,-0.5"/>
                </g>
                <g id="arrowLeft" xlink:href="#dirArrow" transform="rotate(270) translate(-36 17)" onmousedown="handlePan(-1,0)">
                  <use xlink:href="#rim" fill="#404040">
                        <set attributeName="fill" to="#808080" begin="arrowLeft.mouseover" end="arrowLeft.mouseout"/>
                  </use>
                  <path fill="none" stroke="white" stroke-width="1.5" d="M0,-3.0v7 M-2.5,-0.5L0,-3.0L2.5,-0.5"/>
                </g>
        </g>
        <svg viewBox="0 0 15 15" width="100%" height="30px" preserveAspectRatio="xMaxYMin meet">
         <g id="arrow_out" transform="scale(0.3 0.3)">
          <a xlink:href="StreamDecoder_2main_8cpp_ac0f2228420376f4db7e1274f2b41667c_cgraph_org.svg" target="_base">
           <rect id="button" ry="5" rx="5" y="6" x="6" height="38" width="38"
                fill="#f2f5e9" fill-opacity="0.5" stroke="#606060" stroke-width="1.0"/>
           <path id="arrow"
             d="M 11.500037,31.436501 C 11.940474,20.09759 22.043105,11.32322 32.158766,21.979434 L 37.068811,17.246167 C 37.068811,17.246167 37.088388,32 37.088388,32 L 22.160133,31.978069 C 22.160133,31.978069 26.997745,27.140456 26.997745,27.140456 C 18.528582,18.264221 13.291696,25.230495 11.500037,31.436501 z"
             style="fill:#404040;"/>
          </a>
         </g>
        </svg>
</svg>
