<?xml version="1.0" encoding="UTF-8" standalone="no"?>
<!DOCTYPE svg PUBLIC "-//W3C//DTD SVG 1.1//EN"
 "http://www.w3.org/Graphics/SVG/1.1/DTD/svg11.dtd">
<!-- Generated by graphviz version 2.36.0 (20140111.2315)
 -->
<!-- Title: src/StreamDecoder/main.cpp Pages: 1 -->
<!--zoomable 376 -->
<svg id="main" version="1.1" xmlns="http://www.w3.org/2000/svg" xmlns:xlink="http://www.w3.org/1999/xlink" xml:space="preserve" onload="init(evt)">
<style type="text/css"><![CDATA[
.edge:hover path { stroke: red; }
.edge:hover polygon { stroke: red; fill: red; }
]]></style>
<script type="text/javascript"><![CDATA[
var edges = document.getElementsByTagName('g');
if (edges && edges.length) {
  for (var i=0;i<edges.length;i++) {
    if (edges[i].id.substr(0,4)=='edge') {
      edges[i].setAttribute('class','edge');
    }
  }
}
]]></script>
        <defs>
                <circle id="rim" cx="0" cy="0" r="7"/>
                <circle id="rim2" cx="0" cy="0" r="3.5"/>
                <g id="zoomPlus">
                        <use xlink:href="#rim" fill="#404040">
                                <set attributeName="fill" to="#808080" begin="zoomplus.mouseover" end="zoomplus.mouseout"/>
                        </use>
                        <path d="M-4,0h8M0,-4v8" fill="none" stroke="white" stroke-width="1.5" pointer-events="none"/>
                </g>
                <g id="zoomMin">
                        <use xlink:href="#rim" fill="#404040">
                                <set attributeName="fill" to="#808080" begin="zoomminus.mouseover" end="zoomminus.mouseout"/>
                        </use>
                        <path d="M-4,0h8" fill="none" stroke="white" stroke-width="1.5" pointer-events="none"/>
                </g>
                <g id="dirArrow">
                        <path fill="none" stroke="white" stroke-width="1.5" d="M0,-3.0v7 M-2.5,-0.5L0,-3.0L2.5,-0.5"/>
                </g>
               <g id="resetDef">
                       <use xlink:href="#rim2" fill="#404040">
                               <set attributeName="fill" to="#808080" begin="reset.mouseover" end="reset.mouseout"/>
                       </use>
               </g>
        </defs>

<script type="text/javascript">
var viewWidth = 1067;
var viewHeight = 376;
var sectionId = 'dynsection-0';
</script>
<script xlink:href="svgpan.js"/>
<svg id="graph" class="graph">
<g id="viewport">
<title>src/StreamDecoder/main.cpp</title>
<!-- Node1 -->
<g id="node1" class="node"><title>Node1</title>
<polygon fill="#bfbfbf" stroke="black" points="757,-348.5 757,-367.5 901,-367.5 901,-348.5 757,-348.5"/>
<text text-anchor="middle" x="829" y="-355.5" font-family="Helvetica,sans-Serif" font-size="10.00">src/StreamDecoder/main.cpp</text>
</g>
<!-- Node2 -->
<g id="node2" class="node"><title>Node2</title>
<polygon fill="none" stroke="#bfbfbf" points="411,-124.5 411,-143.5 465,-143.5 465,-124.5 411,-124.5"/>
<text text-anchor="middle" x="438" y="-131.5" font-family="Helvetica,sans-Serif" font-size="10.00">iostream</text>
</g>
<!-- Node1&#45;&gt;Node2 -->
<g id="edge1" class="edge"><title>Node1&#45;&gt;Node2</title>
<path fill="none" stroke="midnightblue" d="M795.314,-348.451C729.169,-330.327 580.213,-282.775 482,-200 466.572,-186.997 454.272,-167.292 446.642,-152.987"/>
<polygon fill="midnightblue" stroke="midnightblue" points="449.577,-151.035 441.934,-143.698 443.333,-154.2 449.577,-151.035"/>
</g>
<!-- Node3 -->
<g id="node3" class="node"><title>Node3</title>
<polygon fill="none" stroke="#bfbfbf" points="1007,-292.5 1007,-311.5 1059,-311.5 1059,-292.5 1007,-292.5"/>
<text text-anchor="middle" x="1033" y="-299.5" font-family="Helvetica,sans-Serif" font-size="10.00">sstream</text>
</g>
<!-- Node1&#45;&gt;Node3 -->
<g id="edge2" class="edge"><title>Node1&#45;&gt;Node3</title>
<path fill="none" stroke="midnightblue" d="M861.324,-348.444C898.349,-338.643 958.835,-322.632 997.242,-312.465"/>
<polygon fill="midnightblue" stroke="midnightblue" points="998.205,-315.831 1006.98,-309.889 996.414,-309.064 998.205,-315.831"/>
</g>
<!-- Node4 -->
<g id="node4" class="node"><title>Node4</title>
<g id="a_node4"><a xlink:href="frame__selector_8h.html" target="_top" xlink:title="frame_selector.h">
<polygon fill="none" stroke="black" points="661.5,-236.5 661.5,-255.5 750.5,-255.5 750.5,-236.5 661.5,-236.5"/>
<text text-anchor="middle" x="706" y="-243.5" font-family="Helvetica,sans-Serif" font-size="10.00">frame_selector.h</text>
</a>
</g>
</g>
<!-- Node1&#45;&gt;Node4 -->
<g id="edge3" class="edge"><title>Node1&#45;&gt;Node4</title>
<path fill="none" stroke="midnightblue" d="M814.861,-348.348C801.435,-339.841 780.986,-326.114 765,-312 747.943,-296.941 730.715,-277.339 719.316,-263.615"/>
<polygon fill="midnightblue" stroke="midnightblue" points="721.765,-261.081 712.727,-255.552 716.345,-265.51 721.765,-261.081"/>
</g>
<!-- Node7 -->
<g id="node7" class="node"><title>Node7</title>
<polygon fill="none" stroke="#bfbfbf" points="757,-124.5 757,-143.5 801,-143.5 801,-124.5 757,-124.5"/>
<text text-anchor="middle" x="779" y="-131.5" font-family="Helvetica,sans-Serif" font-size="10.00">vector</text>
</g>
<!-- Node1&#45;&gt;Node7 -->
<g id="edge31" class="edge"><title>Node1&#45;&gt;Node7</title>
<path fill="none" stroke="midnightblue" d="M821.141,-348.444C813.798,-339.902 803.211,-326.054 798,-312 777.719,-257.306 777.016,-187.046 778.046,-153.905"/>
<polygon fill="midnightblue" stroke="midnightblue" points="781.547,-153.95 778.453,-143.817 774.552,-153.667 781.547,-153.95"/>
</g>
<!-- Node20 -->
<g id="node20" class="node"><title>Node20</title>
<g id="a_node20"><a xlink:href="image__view_8h.html" target="_top" xlink:title="image_view.h">
<polygon fill="none" stroke="black" points="932.5,-236.5 932.5,-255.5 1009.5,-255.5 1009.5,-236.5 932.5,-236.5"/>
<text text-anchor="middle" x="971" y="-243.5" font-family="Helvetica,sans-Serif" font-size="10.00">image_view.h</text>
</a>
</g>
</g>
<!-- Node1&#45;&gt;Node20 -->
<g id="edge29" class="edge"><title>Node1&#45;&gt;Node20</title>
<path fill="none" stroke="midnightblue" d="M895.59,-348.412C919.162,-342.069 943.816,-331.067 960,-312 970.753,-299.331 972.847,-280.125 972.645,-265.872"/>
<polygon fill="midnightblue" stroke="midnightblue" points="976.132,-265.525 972.113,-255.723 969.142,-265.892 976.132,-265.525"/>
</g>
<!-- Node21 -->
<g id="node21" class="node"><title>Node21</title>
<g id="a_node21"><a xlink:href="controller_8h.html" target="_top" xlink:title="../ProcessControl/controller.h">
<polygon fill="none" stroke="black" points="807,-292.5 807,-311.5 951,-311.5 951,-292.5 807,-292.5"/>
<text text-anchor="middle" x="879" y="-299.5" font-family="Helvetica,sans-Serif" font-size="10.00">../ProcessControl/controller.h</text>
</a>
</g>
</g>
<!-- Node1&#45;&gt;Node21 -->
<g id="edge32" class="edge"><title>Node1&#45;&gt;Node21</title>
<path fill="none" stroke="midnightblue" d="M837.256,-348.083C844.465,-340.298 855.11,-328.801 863.846,-319.367"/>
<polygon fill="midnightblue" stroke="midnightblue" points="866.671,-321.467 870.897,-311.751 861.535,-316.711 866.671,-321.467"/>
</g>
<!-- Node5 -->
<g id="node5" class="node"><title>Node5</title>
<g id="a_node5"><a xlink:href="hdf__reader_8h.html" target="_top" xlink:title="hdf_reader.h">
<polygon fill="none" stroke="black" points="641.5,-180.5 641.5,-199.5 712.5,-199.5 712.5,-180.5 641.5,-180.5"/>
<text text-anchor="middle" x="677" y="-187.5" font-family="Helvetica,sans-Serif" font-size="10.00">hdf_reader.h</text>
</a>
</g>
</g>
<!-- Node4&#45;&gt;Node5 -->
<g id="edge4" class="edge"><title>Node4&#45;&gt;Node5</title>
<path fill="none" stroke="midnightblue" d="M701.211,-236.083C697.242,-228.691 691.475,-217.953 686.565,-208.811"/>
<polygon fill="midnightblue" stroke="midnightblue" points="689.514,-206.905 681.7,-199.751 683.347,-210.217 689.514,-206.905"/>
</g>
<!-- Node4&#45;&gt;Node7 -->
<g id="edge28" class="edge"><title>Node4&#45;&gt;Node7</title>
<path fill="none" stroke="midnightblue" d="M711.728,-236.368C723.775,-218.215 751.923,-175.802 767.725,-151.99"/>
<polygon fill="midnightblue" stroke="midnightblue" points="770.685,-153.859 773.298,-143.591 764.853,-149.988 770.685,-153.859"/>
</g>
<!-- Node9 -->
<g id="node9" class="node"><title>Node9</title>
<g id="a_node9"><a xlink:href="protobuf__image__wrapper_8h.html" target="_top" xlink:title="protobuf_image_wrapper.h">
<polygon fill="none" stroke="black" points="491.5,-180.5 491.5,-199.5 622.5,-199.5 622.5,-180.5 491.5,-180.5"/>
<text text-anchor="middle" x="557" y="-187.5" font-family="Helvetica,sans-Serif" font-size="10.00">protobuf_image_wrapper.h</text>
</a>
</g>
</g>
<!-- Node4&#45;&gt;Node9 -->
<g id="edge9" class="edge"><title>Node4&#45;&gt;Node9</title>
<path fill="none" stroke="midnightblue" d="M682.391,-236.444C657.542,-227.438 618.226,-213.189 590.246,-203.049"/>
<polygon fill="midnightblue" stroke="midnightblue" points="591.093,-199.633 580.499,-199.516 588.708,-206.214 591.093,-199.633"/>
</g>
<!-- Node18 -->
<g id="node18" class="node"><title>Node18</title>
<g id="a_node18"><a xlink:href="image_8h.html" target="_top" xlink:title="image.h">
<polygon fill="none" stroke="black" points="941.5,-180.5 941.5,-199.5 992.5,-199.5 992.5,-180.5 941.5,-180.5"/>
<text text-anchor="middle" x="967" y="-187.5" font-family="Helvetica,sans-Serif" font-size="10.00">image.h</text>
</a>
</g>
</g>
<!-- Node4&#45;&gt;Node18 -->
<g id="edge26" class="edge"><title>Node4&#45;&gt;Node18</title>
<path fill="none" stroke="midnightblue" d="M747.356,-236.444C798.11,-225.943 883.322,-208.313 931.327,-198.381"/>
<polygon fill="midnightblue" stroke="midnightblue" points="932.181,-201.778 941.265,-196.325 930.763,-194.923 932.181,-201.778"/>
</g>
<!-- Node5&#45;&gt;Node2 -->
<g id="edge5" class="edge"><title>Node5&#45;&gt;Node2</title>
<path fill="none" stroke="midnightblue" d="M641.364,-181.403C602.757,-173.106 539.101,-159.233 474.983,-144.186"/>
<polygon fill="midnightblue" stroke="midnightblue" points="475.644,-140.746 465.108,-141.86 474.039,-147.559 475.644,-140.746"/>
</g>
<!-- Node6 -->
<g id="node6" class="node"><title>Node6</title>
<polygon fill="none" stroke="#bfbfbf" points="860.5,-6.5 860.5,-25.5 901.5,-25.5 901.5,-6.5 860.5,-6.5"/>
<text text-anchor="middle" x="881" y="-13.5" font-family="Helvetica,sans-Serif" font-size="10.00">string</text>
</g>
<!-- Node5&#45;&gt;Node6 -->
<g id="edge6" class="edge"><title>Node5&#45;&gt;Node6</title>
<path fill="none" stroke="midnightblue" d="M686.022,-180.396C699.347,-167.769 725.176,-143.594 748,-124 787.596,-90.0075 835.649,-52.1515 861.789,-31.831"/>
<polygon fill="midnightblue" stroke="midnightblue" points="864.012,-34.5364 869.77,-25.6428 859.722,-29.0044 864.012,-34.5364"/>
</g>
<!-- Node5&#45;&gt;Node7 -->
<g id="edge7" class="edge"><title>Node5&#45;&gt;Node7</title>
<path fill="none" stroke="midnightblue" d="M693.388,-180.324C709.671,-171.703 734.867,-158.364 753.716,-148.386"/>
<polygon fill="midnightblue" stroke="midnightblue" points="755.452,-151.427 762.653,-143.655 752.177,-145.24 755.452,-151.427"/>
</g>
<!-- Node8 -->
<g id="node8" class="node"><title>Node8</title>
<polygon fill="none" stroke="#bfbfbf" points="645,-124.5 645,-143.5 701,-143.5 701,-124.5 645,-124.5"/>
<text text-anchor="middle" x="673" y="-131.5" font-family="Helvetica,sans-Serif" font-size="10.00">H5Cpp.h</text>
</g>
<!-- Node5&#45;&gt;Node8 -->
<g id="edge8" class="edge"><title>Node5&#45;&gt;Node8</title>
<path fill="none" stroke="midnightblue" d="M676.339,-180.083C675.815,-173.006 675.064,-162.861 674.406,-153.986"/>
<polygon fill="midnightblue" stroke="midnightblue" points="677.877,-153.465 673.648,-143.751 670.897,-153.982 677.877,-153.465"/>
</g>
<!-- Node10 -->
<g id="node10" class="node"><title>Node10</title>
<g id="a_node10"><a xlink:href="CameraImage_8pb_8h.html" target="_top" xlink:title="protofiles/CameraImage.pb.h">
<polygon fill="none" stroke="black" points="483.5,-124.5 483.5,-143.5 626.5,-143.5 626.5,-124.5 483.5,-124.5"/>
<text text-anchor="middle" x="555" y="-131.5" font-family="Helvetica,sans-Serif" font-size="10.00">protofiles/CameraImage.pb.h</text>
</a>
</g>
</g>
<!-- Node9&#45;&gt;Node10 -->
<g id="edge10" class="edge"><title>Node9&#45;&gt;Node10</title>
<path fill="none" stroke="midnightblue" d="M556.67,-180.083C556.408,-173.006 556.032,-162.861 555.703,-153.986"/>
<polygon fill="midnightblue" stroke="midnightblue" points="559.192,-153.615 555.324,-143.751 552.197,-153.874 559.192,-153.615"/>
</g>
<!-- Node10&#45;&gt;Node6 -->
<g id="edge11" class="edge"><title>Node10&#45;&gt;Node6</title>
<path fill="none" stroke="midnightblue" d="M577.372,-124.429C600.424,-115.536 637.355,-101.121 669,-88 689.593,-79.4616 693.949,-75.337 715,-68 773.637,-47.5631 791.789,-53.621 850,-32 851.85,-31.313 853.737,-30.5539 855.623,-29.7527"/>
<polygon fill="midnightblue" stroke="midnightblue" points="857.206,-32.8774 864.843,-25.5343 854.294,-26.512 857.206,-32.8774"/>
</g>
<!-- Node11 -->
<g id="node11" class="node"><title>Node11</title>
<polygon fill="none" stroke="#bfbfbf" points="290,-1 290,-31 400,-31 400,-1 290,-1"/>
<text text-anchor="start" x="298" y="-19" font-family="Helvetica,sans-Serif" font-size="10.00">google/protobuf/stubs</text>
<text text-anchor="middle" x="345" y="-8" font-family="Helvetica,sans-Serif" font-size="10.00">/common.h</text>
</g>
<!-- Node10&#45;&gt;Node11 -->
<g id="edge12" class="edge"><title>Node10&#45;&gt;Node11</title>
<path fill="none" stroke="midnightblue" d="M528.371,-124.377C505.14,-116.374 470.884,-103.397 443,-88 416.565,-73.4032 388.922,-52.8162 369.76,-37.5667"/>
<polygon fill="midnightblue" stroke="midnightblue" points="371.824,-34.7349 361.842,-31.184 367.431,-40.1848 371.824,-34.7349"/>
</g>
<!-- Node12 -->
<g id="node12" class="node"><title>Node12</title>
<polygon fill="none" stroke="#bfbfbf" points="418.5,-1 418.5,-31 547.5,-31 547.5,-1 418.5,-1"/>
<text text-anchor="start" x="426.5" y="-19" font-family="Helvetica,sans-Serif" font-size="10.00">google/protobuf/generated</text>
<text text-anchor="middle" x="483" y="-8" font-family="Helvetica,sans-Serif" font-size="10.00">_message_util.h</text>
</g>
<!-- Node10&#45;&gt;Node12 -->
<g id="edge13" class="edge"><title>Node10&#45;&gt;Node12</title>
<path fill="none" stroke="midnightblue" d="M552.545,-124.125C548.723,-111.16 540.569,-86.568 529,-68 522.434,-57.4625 513.6,-47.0597 505.428,-38.4254"/>
<polygon fill="midnightblue" stroke="midnightblue" points="507.692,-35.7347 498.194,-31.04 502.691,-40.633 507.692,-35.7347"/>
</g>
<!-- Node13 -->
<g id="node13" class="node"><title>Node13</title>
<polygon fill="none" stroke="#bfbfbf" points="566,-6.5 566,-25.5 700,-25.5 700,-6.5 566,-6.5"/>
<text text-anchor="middle" x="633" y="-13.5" font-family="Helvetica,sans-Serif" font-size="10.00">google/protobuf/message.h</text>
</g>
<!-- Node10&#45;&gt;Node13 -->
<g id="edge14" class="edge"><title>Node10&#45;&gt;Node13</title>
<path fill="none" stroke="midnightblue" d="M560.863,-124.281C573.743,-105.126 604.703,-59.0828 621.573,-33.9944"/>
<polygon fill="midnightblue" stroke="midnightblue" points="624.606,-35.7562 627.281,-25.5048 618.797,-31.8502 624.606,-35.7562"/>
</g>
<!-- Node14 -->
<g id="node14" class="node"><title>Node14</title>
<polygon fill="none" stroke="#bfbfbf" points="718,-1 718,-31 842,-31 842,-1 718,-1"/>
<text text-anchor="start" x="726" y="-19" font-family="Helvetica,sans-Serif" font-size="10.00">google/protobuf/repeated</text>
<text text-anchor="middle" x="780" y="-8" font-family="Helvetica,sans-Serif" font-size="10.00">_field.h</text>
</g>
<!-- Node10&#45;&gt;Node14 -->
<g id="edge15" class="edge"><title>Node10&#45;&gt;Node14</title>
<path fill="none" stroke="midnightblue" d="M570.121,-124.297C592.424,-111.548 635.545,-87.2214 673,-68 694.969,-56.7256 719.852,-44.8153 740.091,-35.3424"/>
<polygon fill="midnightblue" stroke="midnightblue" points="741.742,-38.4344 749.327,-31.0372 738.784,-32.0898 741.742,-38.4344"/>
</g>
<!-- Node15 -->
<g id="node15" class="node"><title>Node15</title>
<polygon fill="none" stroke="#bfbfbf" points="0,-1 0,-31 128,-31 128,-1 0,-1"/>
<text text-anchor="start" x="8" y="-19" font-family="Helvetica,sans-Serif" font-size="10.00">google/protobuf/extension</text>
<text text-anchor="middle" x="64" y="-8" font-family="Helvetica,sans-Serif" font-size="10.00">_set.h</text>
</g>
<!-- Node10&#45;&gt;Node15 -->
<g id="edge16" class="edge"><title>Node10&#45;&gt;Node15</title>
<path fill="none" stroke="midnightblue" d="M514.474,-124.445C473.067,-115.623 406.946,-101.316 350,-88 273.711,-70.1609 186.35,-48.2574 128.464,-33.5359"/>
<polygon fill="midnightblue" stroke="midnightblue" points="129.276,-30.131 118.721,-31.0552 127.548,-36.9145 129.276,-30.131"/>
</g>
<!-- Node16 -->
<g id="node16" class="node"><title>Node16</title>
<polygon fill="none" stroke="#bfbfbf" points="146.5,-1 146.5,-31 271.5,-31 271.5,-1 146.5,-1"/>
<text text-anchor="start" x="154.5" y="-19" font-family="Helvetica,sans-Serif" font-size="10.00">google/protobuf/unknown</text>
<text text-anchor="middle" x="209" y="-8" font-family="Helvetica,sans-Serif" font-size="10.00">_field_set.h</text>
</g>
<!-- Node10&#45;&gt;Node16 -->
<g id="edge17" class="edge"><title>Node10&#45;&gt;Node16</title>
<path fill="none" stroke="midnightblue" d="M525.59,-124.427C495.825,-115.65 448.537,-101.429 408,-88 355.887,-70.737 296.694,-49.3926 256.509,-34.6389"/>
<polygon fill="midnightblue" stroke="midnightblue" points="257.565,-31.298 246.971,-31.1299 255.148,-37.8675 257.565,-31.298"/>
</g>
<!-- Node17 -->
<g id="node17" class="node"><title>Node17</title>
<g id="a_node17"><a xlink:href="header_8pb_8h.html" target="_top" xlink:title="header.pb.h">
<polygon fill="none" stroke="black" points="452,-68.5 452,-87.5 520,-87.5 520,-68.5 452,-68.5"/>
<text text-anchor="middle" x="486" y="-75.5" font-family="Helvetica,sans-Serif" font-size="10.00">header.pb.h</text>
</a>
</g>
</g>
<!-- Node10&#45;&gt;Node17 -->
<g id="edge18" class="edge"><title>Node10&#45;&gt;Node17</title>
<path fill="none" stroke="midnightblue" d="M543.914,-124.324C533.514,-116.185 517.739,-103.839 505.278,-94.0874"/>
<polygon fill="midnightblue" stroke="midnightblue" points="507.32,-91.2407 497.288,-87.8339 503.006,-96.7533 507.32,-91.2407"/>
</g>
<!-- Node17&#45;&gt;Node6 -->
<g id="edge19" class="edge"><title>Node17&#45;&gt;Node6</title>
<path fill="none" stroke="midnightblue" d="M520.122,-76.4754C585.477,-74.6689 732.28,-66.7234 850,-32 852.19,-31.3541 854.416,-30.567 856.62,-29.6954"/>
<polygon fill="midnightblue" stroke="midnightblue" points="858.257,-32.797 865.945,-25.5078 855.389,-26.4113 858.257,-32.797"/>
</g>
<!-- Node17&#45;&gt;Node11 -->
<g id="edge20" class="edge"><title>Node17&#45;&gt;Node11</title>
<path fill="none" stroke="midnightblue" d="M465.798,-68.4035C445.385,-59.7168 413.231,-46.0346 387.228,-34.9694"/>
<polygon fill="midnightblue" stroke="midnightblue" points="388.532,-31.7204 377.959,-31.0253 385.791,-38.1615 388.532,-31.7204"/>
</g>
<!-- Node17&#45;&gt;Node12 -->
<g id="edge21" class="edge"><title>Node17&#45;&gt;Node12</title>
<path fill="none" stroke="midnightblue" d="M485.57,-68.4035C485.217,-61.3405 484.699,-50.975 484.22,-41.399"/>
<polygon fill="midnightblue" stroke="midnightblue" points="487.702,-40.9535 483.707,-31.1408 480.711,-41.3032 487.702,-40.9535"/>
</g>
<!-- Node17&#45;&gt;Node13 -->
<g id="edge22" class="edge"><title>Node17&#45;&gt;Node13</title>
<path fill="none" stroke="midnightblue" d="M507.062,-68.4035C532.059,-58.2004 573.942,-41.1055 602.487,-29.4544"/>
<polygon fill="midnightblue" stroke="midnightblue" points="604.042,-32.6001 611.978,-25.5806 601.396,-26.1192 604.042,-32.6001"/>
</g>
<!-- Node17&#45;&gt;Node14 -->
<g id="edge23" class="edge"><title>Node17&#45;&gt;Node14</title>
<path fill="none" stroke="midnightblue" d="M520.022,-70.2345C561.805,-61.9037 635.118,-47.2155 707.469,-32.3066"/>
<polygon fill="midnightblue" stroke="midnightblue" points="708.582,-35.6508 717.669,-30.202 707.168,-28.7952 708.582,-35.6508"/>
</g>
<!-- Node17&#45;&gt;Node15 -->
<g id="edge24" class="edge"><title>Node17&#45;&gt;Node15</title>
<path fill="none" stroke="midnightblue" d="M451.694,-73.434C390.712,-66.91 259.239,-52.0111 138.223,-32.1291"/>
<polygon fill="midnightblue" stroke="midnightblue" points="138.482,-28.6242 128.044,-30.4406 137.336,-35.5299 138.482,-28.6242"/>
</g>
<!-- Node17&#45;&gt;Node16 -->
<g id="edge25" class="edge"><title>Node17&#45;&gt;Node16</title>
<path fill="none" stroke="midnightblue" d="M451.757,-69.5826C409.514,-60.4325 336.557,-44.6298 281.625,-32.7311"/>
<polygon fill="midnightblue" stroke="midnightblue" points="282.104,-29.2536 271.589,-30.5572 280.622,-36.095 282.104,-29.2536"/>
</g>
<!-- Node19 -->
<g id="node19" class="node"><title>Node19</title>
<polygon fill="none" stroke="#bfbfbf" points="913.5,-124.5 913.5,-143.5 1020.5,-143.5 1020.5,-124.5 913.5,-124.5"/>
<text text-anchor="middle" x="967" y="-131.5" font-family="Helvetica,sans-Serif" font-size="10.00">opencv2/opencv.hpp</text>
</g>
<!-- Node18&#45;&gt;Node19 -->
<g id="edge27" class="edge"><title>Node18&#45;&gt;Node19</title>
<path fill="none" stroke="midnightblue" d="M967,-180.083C967,-173.006 967,-162.861 967,-153.986"/>
<polygon fill="midnightblue" stroke="midnightblue" points="970.5,-153.751 967,-143.751 963.5,-153.751 970.5,-153.751"/>
</g>
<!-- Node20&#45;&gt;Node18 -->
<g id="edge30" class="edge"><title>Node20&#45;&gt;Node18</title>
<path fill="none" stroke="midnightblue" d="M970.339,-236.083C969.815,-229.006 969.064,-218.861 968.406,-209.986"/>
<polygon fill="midnightblue" stroke="midnightblue" points="971.877,-209.465 967.648,-199.751 964.897,-209.982 971.877,-209.465"/>
</g>
<!-- Node21&#45;&gt;Node4 -->
<g id="edge34" class="edge"><title>Node21&#45;&gt;Node4</title>
<path fill="none" stroke="midnightblue" d="M851.588,-292.444C822.231,-283.28 775.481,-268.688 742.904,-258.519"/>
<polygon fill="midnightblue" stroke="midnightblue" points="743.873,-255.155 733.284,-255.516 741.787,-261.837 743.873,-255.155"/>
</g>
<!-- Node21&#45;&gt;Node6 -->
<g id="edge33" class="edge"><title>Node21&#45;&gt;Node6</title>
<path fill="none" stroke="midnightblue" d="M879.131,-292.442C879.402,-273.937 880,-228.814 880,-191 880,-191 880,-191 880,-133 880,-98.7146 880.442,-58.7313 880.739,-35.7897"/>
<polygon fill="midnightblue" stroke="midnightblue" points="884.239,-35.7769 880.873,-25.7308 877.24,-35.683 884.239,-35.7769"/>
</g>
</g>
</svg>
        <g id="navigator" transform="translate(0 0)" fill="#404254">
                <rect fill="#f2f5e9" fill-opacity="0.5" stroke="#606060" stroke-width=".5" x="0" y="0" width="60" height="60"/>
                <use id="zoomplus" xlink:href="#zoomPlus" x="17" y="9" onmousedown="handleZoom(evt,'in')"/>
                <use id="zoomminus" xlink:href="#zoomMin" x="42" y="9" onmousedown="handleZoom(evt,'out')"/>
                <use id="reset" xlink:href="#resetDef" x="30" y="36" onmousedown="handleReset()"/>
                <g id="arrowUp" xlink:href="#dirArrow" transform="translate(30 24)" onmousedown="handlePan(0,-1)">
                  <use xlink:href="#rim" fill="#404040">
                        <set attributeName="fill" to="#808080" begin="arrowUp.mouseover" end="arrowUp.mouseout"/>
                  </use>
                  <path fill="none" stroke="white" stroke-width="1.5" d="M0,-3.0v7 M-2.5,-0.5L0,-3.0L2.5,-0.5"/>
                </g>
                <g id="arrowRight" xlink:href="#dirArrow" transform="rotate(90) translate(36 -43)" onmousedown="handlePan(1,0)">
                  <use xlink:href="#rim" fill="#404040">
                        <set attributeName="fill" to="#808080" begin="arrowRight.mouseover" end="arrowRight.mouseout"/>
                  </use>
                  <path fill="none" stroke="white" stroke-width="1.5" d="M0,-3.0v7 M-2.5,-0.5L0,-3.0L2.5,-0.5"/>
                </g>
                <g id="arrowDown" xlink:href="#dirArrow" transform="rotate(180) translate(-30 -48)" onmousedown="handlePan(0,1)">
                  <use xlink:href="#rim" fill="#404040">
                        <set attributeName="fill" to="#808080" begin="arrowDown.mouseover" end="arrowDown.mouseout"/>
                  </use>
                  <path fill="none" stroke="white" stroke-width="1.5" d="M0,-3.0v7 M-2.5,-0.5L0,-3.0L2.5,-0.5"/>
                </g>
                <g id="arrowLeft" xlink:href="#dirArrow" transform="rotate(270) translate(-36 17)" onmousedown="handlePan(-1,0)">
                  <use xlink:href="#rim" fill="#404040">
                        <set attributeName="fill" to="#808080" begin="arrowLeft.mouseover" end="arrowLeft.mouseout"/>
                  </use>
                  <path fill="none" stroke="white" stroke-width="1.5" d="M0,-3.0v7 M-2.5,-0.5L0,-3.0L2.5,-0.5"/>
                </g>
        </g>
        <svg viewBox="0 0 15 15" width="100%" height="30px" preserveAspectRatio="xMaxYMin meet">
         <g id="arrow_out" transform="scale(0.3 0.3)">
          <a xlink:href="StreamDecoder_2main_8cpp__incl_org.svg" target="_base">
           <rect id="button" ry="5" rx="5" y="6" x="6" height="38" width="38"
                fill="#f2f5e9" fill-opacity="0.5" stroke="#606060" stroke-width="1.0"/>
           <path id="arrow"
             d="M 11.500037,31.436501 C 11.940474,20.09759 22.043105,11.32322 32.158766,21.979434 L 37.068811,17.246167 C 37.068811,17.246167 37.088388,32 37.088388,32 L 22.160133,31.978069 C 22.160133,31.978069 26.997745,27.140456 26.997745,27.140456 C 18.528582,18.264221 13.291696,25.230495 11.500037,31.436501 z"
             style="fill:#404040;"/>
          </a>
         </g>
        </svg>
</svg>
