<?xml version="1.0" encoding="UTF-8" standalone="no"?>
<!DOCTYPE svg PUBLIC "-//W3C//DTD SVG 1.1//EN"
 "http://www.w3.org/Graphics/SVG/1.1/DTD/svg11.dtd">
<!-- Generated by graphviz version 2.36.0 (20140111.2315)
 -->
<!-- Title: org::libcppa::StaticDescriptorInitializer_message_2eproto::StaticDescriptorInitializer_message_2eproto Pages: 1 -->
<svg width="640pt" height="196pt"
 viewBox="0.00 0.00 640.00 196.00" xmlns="http://www.w3.org/2000/svg" xmlns:xlink="http://www.w3.org/1999/xlink">
<g id="graph0" class="graph" transform="scale(1 1) rotate(0) translate(4 192)">
<title>org::libcppa::StaticDescriptorInitializer_message_2eproto::StaticDescriptorInitializer_message_2eproto</title>
<!-- Node1 -->
<g id="node1" class="node"><title>Node1</title>
<polygon fill="#bfbfbf" stroke="black" points="0.5,-73 0.5,-125 143.5,-125 143.5,-73 0.5,-73"/>
<text text-anchor="start" x="8.5" y="-113" font-family="Helvetica,sans-Serif" font-size="10.00">org::libcppa::StaticDescriptor</text>
<text text-anchor="start" x="8.5" y="-102" font-family="Helvetica,sans-Serif" font-size="10.00">Initializer_message_2eproto</text>
<text text-anchor="start" x="8.5" y="-91" font-family="Helvetica,sans-Serif" font-size="10.00">::StaticDescriptorInitializer</text>
<text text-anchor="middle" x="72" y="-80" font-family="Helvetica,sans-Serif" font-size="10.00">_message_2eproto</text>
</g>
<!-- Node2 -->
<g id="node2" class="node"><title>Node2</title>
<g id="a_node2"><a xlink:href="namespaceorg_1_1libcppa.html#a53893d1ff6bccd47afc19718d1797afb" target="_top" xlink:title="org::libcppa::protobuf\l_AddDesc_message_2eproto">
<polygon fill="none" stroke="black" points="180.5,-84 180.5,-114 325.5,-114 325.5,-84 180.5,-84"/>
<text text-anchor="start" x="188.5" y="-102" font-family="Helvetica,sans-Serif" font-size="10.00">org::libcppa::protobuf</text>
<text text-anchor="middle" x="253" y="-91" font-family="Helvetica,sans-Serif" font-size="10.00">_AddDesc_message_2eproto</text>
</a>
</g>
</g>
<!-- Node1&#45;&gt;Node2 -->
<g id="edge1" class="edge"><title>Node1&#45;&gt;Node2</title>
<path fill="none" stroke="midnightblue" d="M143.746,-99C152.385,-99 161.268,-99 170.054,-99"/>
<polygon fill="midnightblue" stroke="midnightblue" points="170.302,-102.5 180.302,-99 170.302,-95.5001 170.302,-102.5"/>
</g>
<!-- Node3 -->
<g id="node3" class="node"><title>Node3</title>
<g id="a_node3"><a xlink:href="classorg_1_1libcppa_1_1warning.html#a4061e6d7f3ea6696fe4688cdfc182dac" target="_top" xlink:title="org::libcppa::warning\l::InitAsDefaultInstance">
<polygon fill="none" stroke="black" points="366.5,-158 366.5,-188 483.5,-188 483.5,-158 366.5,-158"/>
<text text-anchor="start" x="374.5" y="-176" font-family="Helvetica,sans-Serif" font-size="10.00">org::libcppa::warning</text>
<text text-anchor="middle" x="425" y="-165" font-family="Helvetica,sans-Serif" font-size="10.00">::InitAsDefaultInstance</text>
</a>
</g>
</g>
<!-- Node2&#45;&gt;Node3 -->
<g id="edge2" class="edge"><title>Node2&#45;&gt;Node3</title>
<path fill="none" stroke="midnightblue" d="M286.45,-114.159C307.812,-124.03 336.448,-137.058 362,-148 366.681,-150.005 371.579,-152.056 376.481,-154.08"/>
<polygon fill="midnightblue" stroke="midnightblue" points="375.279,-157.37 385.859,-157.918 377.93,-150.891 375.279,-157.37"/>
</g>
<!-- Node4 -->
<g id="node4" class="node"><title>Node4</title>
<g id="a_node4"><a xlink:href="classorg_1_1libcppa_1_1ack.html#ad41e1e019858ab758a04facdeb432c42" target="_top" xlink:title="org::libcppa::ack::\lInitAsDefaultInstance">
<polygon fill="none" stroke="black" points="369.5,-109 369.5,-139 480.5,-139 480.5,-109 369.5,-109"/>
<text text-anchor="start" x="377.5" y="-127" font-family="Helvetica,sans-Serif" font-size="10.00">org::libcppa::ack::</text>
<text text-anchor="middle" x="425" y="-116" font-family="Helvetica,sans-Serif" font-size="10.00">InitAsDefaultInstance</text>
</a>
</g>
</g>
<!-- Node2&#45;&gt;Node4 -->
<g id="edge3" class="edge"><title>Node2&#45;&gt;Node4</title>
<path fill="none" stroke="midnightblue" d="M325.603,-109.53C336.788,-111.175 348.291,-112.866 359.31,-114.487"/>
<polygon fill="midnightblue" stroke="midnightblue" points="358.868,-117.959 369.271,-115.952 359.886,-111.034 358.868,-117.959"/>
</g>
<!-- Node5 -->
<g id="node5" class="node"><title>Node5</title>
<g id="a_node5"><a xlink:href="classorg_1_1libcppa_1_1WarnOrAck.html#a4b758a7380351f6eb44e8e11d2e43306" target="_top" xlink:title="org::libcppa::WarnOrAck\l::InitAsDefaultInstance">
<polygon fill="none" stroke="black" points="363,-60 363,-90 487,-90 487,-60 363,-60"/>
<text text-anchor="start" x="371" y="-78" font-family="Helvetica,sans-Serif" font-size="10.00">org::libcppa::WarnOrAck</text>
<text text-anchor="middle" x="425" y="-67" font-family="Helvetica,sans-Serif" font-size="10.00">::InitAsDefaultInstance</text>
</a>
</g>
</g>
<!-- Node2&#45;&gt;Node5 -->
<g id="edge4" class="edge"><title>Node2&#45;&gt;Node5</title>
<path fill="none" stroke="midnightblue" d="M325.603,-88.8914C334.635,-87.6162 343.874,-86.3119 352.899,-85.0378"/>
<polygon fill="midnightblue" stroke="midnightblue" points="353.562,-88.479 362.974,-83.6154 352.583,-81.5478 353.562,-88.479"/>
</g>
<!-- Node8 -->
<g id="node8" class="node"><title>Node8</title>
<g id="a_node8"><a xlink:href="namespaceorg_1_1libcppa.html#af62b7b514fe33a8872ebd0c8fb3c9546" target="_top" xlink:title="org::libcppa::protobuf\l_ShutdownFile_message\l_2eproto">
<polygon fill="none" stroke="black" points="362,-0.5 362,-41.5 488,-41.5 488,-0.5 362,-0.5"/>
<text text-anchor="start" x="370" y="-29.5" font-family="Helvetica,sans-Serif" font-size="10.00">org::libcppa::protobuf</text>
<text text-anchor="start" x="370" y="-18.5" font-family="Helvetica,sans-Serif" font-size="10.00">_ShutdownFile_message</text>
<text text-anchor="middle" x="425" y="-7.5" font-family="Helvetica,sans-Serif" font-size="10.00">_2eproto</text>
</a>
</g>
</g>
<!-- Node2&#45;&gt;Node8 -->
<g id="edge7" class="edge"><title>Node2&#45;&gt;Node8</title>
<path fill="none" stroke="midnightblue" d="M286.778,-83.9608C310.254,-73.1895 342.406,-58.437 369.688,-45.9197"/>
<polygon fill="midnightblue" stroke="midnightblue" points="371.483,-48.947 379.112,-41.5956 368.564,-42.5848 371.483,-48.947"/>
</g>
<!-- Node6 -->
<g id="node6" class="node"><title>Node6</title>
<g id="a_node6"><a xlink:href="classorg_1_1libcppa_1_1warning.html#a520ebddd2bddd7c612e65024f09aa947" target="_top" xlink:title="org::libcppa::warning\l::default_instance">
<polygon fill="none" stroke="black" points="524.5,-84 524.5,-114 631.5,-114 631.5,-84 524.5,-84"/>
<text text-anchor="start" x="532.5" y="-102" font-family="Helvetica,sans-Serif" font-size="10.00">org::libcppa::warning</text>
<text text-anchor="middle" x="578" y="-91" font-family="Helvetica,sans-Serif" font-size="10.00">::default_instance</text>
</a>
</g>
</g>
<!-- Node5&#45;&gt;Node6 -->
<g id="edge5" class="edge"><title>Node5&#45;&gt;Node6</title>
<path fill="none" stroke="midnightblue" d="M487.417,-84.7617C496.316,-86.1761 505.485,-87.6334 514.407,-89.0514"/>
<polygon fill="midnightblue" stroke="midnightblue" points="513.921,-92.5181 524.347,-90.6312 515.02,-85.6048 513.921,-92.5181"/>
</g>
<!-- Node7 -->
<g id="node7" class="node"><title>Node7</title>
<g id="a_node7"><a xlink:href="classorg_1_1libcppa_1_1ack.html#a916412f45f069dc3462757e2d1b86e1c" target="_top" xlink:title="org::libcppa::ack::\ldefault_instance">
<polygon fill="none" stroke="black" points="530.5,-35 530.5,-65 625.5,-65 625.5,-35 530.5,-35"/>
<text text-anchor="start" x="538.5" y="-53" font-family="Helvetica,sans-Serif" font-size="10.00">org::libcppa::ack::</text>
<text text-anchor="middle" x="578" y="-42" font-family="Helvetica,sans-Serif" font-size="10.00">default_instance</text>
</a>
</g>
</g>
<!-- Node5&#45;&gt;Node7 -->
<g id="edge6" class="edge"><title>Node5&#45;&gt;Node7</title>
<path fill="none" stroke="midnightblue" d="M487.417,-64.8315C498.308,-63.0285 509.603,-61.1584 520.354,-59.3785"/>
<polygon fill="midnightblue" stroke="midnightblue" points="521.169,-62.7913 530.463,-57.7048 520.025,-55.8853 521.169,-62.7913"/>
</g>
</g>
</svg>
