<?xml version="1.0" encoding="UTF-8" standalone="no"?>
<!DOCTYPE svg PUBLIC "-//W3C//DTD SVG 1.1//EN"
 "http://www.w3.org/Graphics/SVG/1.1/DTD/svg11.dtd">
<!-- Generated by graphviz version 2.36.0 (20140111.2315)
 -->
<!-- Title: pb::StaticDescriptorInitializer_header_2eproto::StaticDescriptorInitializer_header_2eproto Pages: 1 -->
<svg width="532pt" height="87pt"
 viewBox="0.00 0.00 532.00 87.00" xmlns="http://www.w3.org/2000/svg" xmlns:xlink="http://www.w3.org/1999/xlink">
<g id="graph0" class="graph" transform="scale(1 1) rotate(0) translate(4 83)">
<title>pb::StaticDescriptorInitializer_header_2eproto::StaticDescriptorInitializer_header_2eproto</title>
<!-- Node1 -->
<g id="node1" class="node"><title>Node1</title>
<polygon fill="#bfbfbf" stroke="black" points="0,-18.5 0,-59.5 204,-59.5 204,-18.5 0,-18.5"/>
<text text-anchor="start" x="8" y="-47.5" font-family="Helvetica,sans-Serif" font-size="10.00">pb::StaticDescriptorInitializer</text>
<text text-anchor="start" x="8" y="-36.5" font-family="Helvetica,sans-Serif" font-size="10.00">_header_2eproto::StaticDescriptorInitializer</text>
<text text-anchor="middle" x="102" y="-25.5" font-family="Helvetica,sans-Serif" font-size="10.00">_header_2eproto</text>
</g>
<!-- Node2 -->
<g id="node2" class="node"><title>Node2</title>
<g id="a_node2"><a xlink:href="namespacepb.html#a398fcfaaf2f8651db5d294e2c0fd432c" target="_top" xlink:title="pb::protobuf_AddDesc\l_header_2eproto">
<polygon fill="none" stroke="black" points="240,-24 240,-54 354,-54 354,-24 240,-24"/>
<text text-anchor="start" x="248" y="-42" font-family="Helvetica,sans-Serif" font-size="10.00">pb::protobuf_AddDesc</text>
<text text-anchor="middle" x="297" y="-31" font-family="Helvetica,sans-Serif" font-size="10.00">_header_2eproto</text>
</a>
</g>
</g>
<!-- Node1&#45;&gt;Node2 -->
<g id="edge1" class="edge"><title>Node1&#45;&gt;Node2</title>
<path fill="none" stroke="midnightblue" d="M204.022,-39C212.775,-39 221.479,-39 229.844,-39"/>
<polygon fill="midnightblue" stroke="midnightblue" points="229.86,-42.5001 239.86,-39 229.86,-35.5001 229.86,-42.5001"/>
</g>
<!-- Node3 -->
<g id="node3" class="node"><title>Node3</title>
<g id="a_node3"><a xlink:href="classpb_1_1Header.html#ac80bb9f4597d3e8a0135042092e20964" target="_top" xlink:title="pb::Header::InitAsDefault\lInstance">
<polygon fill="none" stroke="black" points="393,-49 393,-79 521,-79 521,-49 393,-49"/>
<text text-anchor="start" x="401" y="-67" font-family="Helvetica,sans-Serif" font-size="10.00">pb::Header::InitAsDefault</text>
<text text-anchor="middle" x="457" y="-56" font-family="Helvetica,sans-Serif" font-size="10.00">Instance</text>
</a>
</g>
</g>
<!-- Node2&#45;&gt;Node3 -->
<g id="edge2" class="edge"><title>Node2&#45;&gt;Node3</title>
<path fill="none" stroke="midnightblue" d="M354.15,-47.8845C363.432,-49.3532 373.175,-50.8947 382.802,-52.418"/>
<polygon fill="midnightblue" stroke="midnightblue" points="382.344,-55.8891 392.768,-53.995 383.438,-48.9751 382.344,-55.8891"/>
</g>
<!-- Node4 -->
<g id="node4" class="node"><title>Node4</title>
<g id="a_node4"><a xlink:href="namespacepb.html#a58b7e9ff40ba872d44217907ef3dadc5" target="_top" xlink:title="pb::protobuf_ShutdownFile\l_header_2eproto">
<polygon fill="none" stroke="black" points="390.5,-0 390.5,-30 523.5,-30 523.5,-0 390.5,-0"/>
<text text-anchor="start" x="398.5" y="-18" font-family="Helvetica,sans-Serif" font-size="10.00">pb::protobuf_ShutdownFile</text>
<text text-anchor="middle" x="457" y="-7" font-family="Helvetica,sans-Serif" font-size="10.00">_header_2eproto</text>
</a>
</g>
</g>
<!-- Node2&#45;&gt;Node4 -->
<g id="edge3" class="edge"><title>Node2&#45;&gt;Node4</title>
<path fill="none" stroke="midnightblue" d="M354.15,-30.4709C362.657,-29.1788 371.55,-27.8278 380.387,-26.4855"/>
<polygon fill="midnightblue" stroke="midnightblue" points="380.955,-29.9394 390.316,-24.9773 379.904,-23.0188 380.955,-29.9394"/>
</g>
</g>
</svg>
