<?xml version="1.0" encoding="UTF-8" standalone="no"?>
<!DOCTYPE svg PUBLIC "-//W3C//DTD SVG 1.1//EN"
 "http://www.w3.org/Graphics/SVG/1.1/DTD/svg11.dtd">
<!-- Generated by graphviz version 2.36.0 (20140111.2315)
 -->
<!-- Title: pb::SensorNearData::MFC::StaticDescriptorInitializer_CameraImage_2eproto::StaticDescriptorInitializer_CameraImage_2eproto Pages: 1 -->
<svg width="730pt" height="204pt"
 viewBox="0.00 0.00 730.00 204.00" xmlns="http://www.w3.org/2000/svg" xmlns:xlink="http://www.w3.org/1999/xlink">
<g id="graph0" class="graph" transform="scale(1 1) rotate(0) translate(4 200)">
<title>pb::SensorNearData::MFC::StaticDescriptorInitializer_CameraImage_2eproto::StaticDescriptorInitializer_CameraImage_2eproto</title>
<!-- Node1 -->
<g id="node1" class="node"><title>Node1</title>
<polygon fill="#bfbfbf" stroke="black" points="0.5,-55 0.5,-107 197.5,-107 197.5,-55 0.5,-55"/>
<text text-anchor="start" x="8.5" y="-95" font-family="Helvetica,sans-Serif" font-size="10.00">pb::SensorNearData</text>
<text text-anchor="start" x="8.5" y="-84" font-family="Helvetica,sans-Serif" font-size="10.00">::MFC::StaticDescriptorInitializer</text>
<text text-anchor="start" x="8.5" y="-73" font-family="Helvetica,sans-Serif" font-size="10.00">_CameraImage_2eproto::StaticDescriptor</text>
<text text-anchor="middle" x="99" y="-62" font-family="Helvetica,sans-Serif" font-size="10.00">Initializer_CameraImage_2eproto</text>
</g>
<!-- Node2 -->
<g id="node2" class="node"><title>Node2</title>
<g id="a_node2"><a xlink:href="namespacepb_1_1SensorNearData_1_1MFC.html#a57fa0c67da79e52e28b518b9561517b6" target="_top" xlink:title="pb::SensorNearData\l::MFC::protobuf_AddDesc\l_CameraImage_2eproto">
<polygon fill="none" stroke="black" points="234.5,-60.5 234.5,-101.5 365.5,-101.5 365.5,-60.5 234.5,-60.5"/>
<text text-anchor="start" x="242.5" y="-89.5" font-family="Helvetica,sans-Serif" font-size="10.00">pb::SensorNearData</text>
<text text-anchor="start" x="242.5" y="-78.5" font-family="Helvetica,sans-Serif" font-size="10.00">::MFC::protobuf_AddDesc</text>
<text text-anchor="middle" x="300" y="-67.5" font-family="Helvetica,sans-Serif" font-size="10.00">_CameraImage_2eproto</text>
</a>
</g>
</g>
<!-- Node1&#45;&gt;Node2 -->
<g id="edge1" class="edge"><title>Node1&#45;&gt;Node2</title>
<path fill="none" stroke="midnightblue" d="M197.751,-81C206.653,-81 215.573,-81 224.227,-81"/>
<polygon fill="midnightblue" stroke="midnightblue" points="224.246,-84.5001 234.246,-81 224.246,-77.5001 224.246,-84.5001"/>
</g>
<!-- Node3 -->
<g id="node3" class="node"><title>Node3</title>
<g id="a_node3"><a xlink:href="namespacepb.html#a398fcfaaf2f8651db5d294e2c0fd432c" target="_top" xlink:title="pb::protobuf_AddDesc\l_header_2eproto">
<polygon fill="none" stroke="black" points="420,-120 420,-150 534,-150 534,-120 420,-120"/>
<text text-anchor="start" x="428" y="-138" font-family="Helvetica,sans-Serif" font-size="10.00">pb::protobuf_AddDesc</text>
<text text-anchor="middle" x="477" y="-127" font-family="Helvetica,sans-Serif" font-size="10.00">_header_2eproto</text>
</a>
</g>
</g>
<!-- Node2&#45;&gt;Node3 -->
<g id="edge2" class="edge"><title>Node2&#45;&gt;Node3</title>
<path fill="none" stroke="midnightblue" d="M365.666,-100.954C382.677,-106.203 400.926,-111.834 417.587,-116.975"/>
<polygon fill="midnightblue" stroke="midnightblue" points="416.604,-120.335 427.192,-119.939 418.668,-113.646 416.604,-120.335"/>
</g>
<!-- Node6 -->
<g id="node6" class="node"><title>Node6</title>
<g id="a_node6"><a xlink:href="classpb_1_1SensorNearData_1_1MFC_1_1CameraImage.html#a211a190e1a7e85d915eb1a261ff62c4c" target="_top" xlink:title="pb::SensorNearData\l::MFC::CameraImage::\lInitAsDefaultInstance">
<polygon fill="none" stroke="black" points="418,-60.5 418,-101.5 536,-101.5 536,-60.5 418,-60.5"/>
<text text-anchor="start" x="426" y="-89.5" font-family="Helvetica,sans-Serif" font-size="10.00">pb::SensorNearData</text>
<text text-anchor="start" x="426" y="-78.5" font-family="Helvetica,sans-Serif" font-size="10.00">::MFC::CameraImage::</text>
<text text-anchor="middle" x="477" y="-67.5" font-family="Helvetica,sans-Serif" font-size="10.00">InitAsDefaultInstance</text>
</a>
</g>
</g>
<!-- Node2&#45;&gt;Node6 -->
<g id="edge5" class="edge"><title>Node2&#45;&gt;Node6</title>
<path fill="none" stroke="midnightblue" d="M365.666,-81C379.322,-81 393.775,-81 407.564,-81"/>
<polygon fill="midnightblue" stroke="midnightblue" points="407.955,-84.5001 417.955,-81 407.955,-77.5001 407.955,-84.5001"/>
</g>
<!-- Node8 -->
<g id="node8" class="node"><title>Node8</title>
<g id="a_node8"><a xlink:href="namespacepb_1_1SensorNearData_1_1MFC.html#a4fd2cb78da6027165b93a335b66972e0" target="_top" xlink:title="pb::SensorNearData\l::MFC::protobuf_ShutdownFile\l_CameraImage_2eproto">
<polygon fill="none" stroke="black" points="402,-0.5 402,-41.5 552,-41.5 552,-0.5 402,-0.5"/>
<text text-anchor="start" x="410" y="-29.5" font-family="Helvetica,sans-Serif" font-size="10.00">pb::SensorNearData</text>
<text text-anchor="start" x="410" y="-18.5" font-family="Helvetica,sans-Serif" font-size="10.00">::MFC::protobuf_ShutdownFile</text>
<text text-anchor="middle" x="477" y="-7.5" font-family="Helvetica,sans-Serif" font-size="10.00">_CameraImage_2eproto</text>
</a>
</g>
</g>
<!-- Node2&#45;&gt;Node8 -->
<g id="edge7" class="edge"><title>Node2&#45;&gt;Node8</title>
<path fill="none" stroke="midnightblue" d="M361.225,-60.3514C375.743,-55.3739 391.373,-50.0149 406.285,-44.9025"/>
<polygon fill="midnightblue" stroke="midnightblue" points="407.636,-48.1391 415.96,-41.585 405.366,-41.5175 407.636,-48.1391"/>
</g>
<!-- Node4 -->
<g id="node4" class="node"><title>Node4</title>
<g id="a_node4"><a xlink:href="classpb_1_1Header.html#ac80bb9f4597d3e8a0135042092e20964" target="_top" xlink:title="pb::Header::InitAsDefault\lInstance">
<polygon fill="none" stroke="black" points="591,-166 591,-196 719,-196 719,-166 591,-166"/>
<text text-anchor="start" x="599" y="-184" font-family="Helvetica,sans-Serif" font-size="10.00">pb::Header::InitAsDefault</text>
<text text-anchor="middle" x="655" y="-173" font-family="Helvetica,sans-Serif" font-size="10.00">Instance</text>
</a>
</g>
</g>
<!-- Node3&#45;&gt;Node4 -->
<g id="edge3" class="edge"><title>Node3&#45;&gt;Node4</title>
<path fill="none" stroke="midnightblue" d="M534.171,-149.681C550.822,-154.033 569.23,-158.844 586.52,-163.363"/>
<polygon fill="midnightblue" stroke="midnightblue" points="585.988,-166.842 596.548,-165.984 587.758,-160.069 585.988,-166.842"/>
</g>
<!-- Node5 -->
<g id="node5" class="node"><title>Node5</title>
<g id="a_node5"><a xlink:href="namespacepb.html#a58b7e9ff40ba872d44217907ef3dadc5" target="_top" xlink:title="pb::protobuf_ShutdownFile\l_header_2eproto">
<polygon fill="none" stroke="black" points="588.5,-117 588.5,-147 721.5,-147 721.5,-117 588.5,-117"/>
<text text-anchor="start" x="596.5" y="-135" font-family="Helvetica,sans-Serif" font-size="10.00">pb::protobuf_ShutdownFile</text>
<text text-anchor="middle" x="655" y="-124" font-family="Helvetica,sans-Serif" font-size="10.00">_header_2eproto</text>
</a>
</g>
</g>
<!-- Node3&#45;&gt;Node5 -->
<g id="edge4" class="edge"><title>Node3&#45;&gt;Node5</title>
<path fill="none" stroke="midnightblue" d="M534.171,-134.043C548.149,-133.804 563.364,-133.545 578.116,-133.293"/>
<polygon fill="midnightblue" stroke="midnightblue" points="578.295,-136.791 588.234,-133.121 578.176,-129.792 578.295,-136.791"/>
</g>
<!-- Node7 -->
<g id="node7" class="node"><title>Node7</title>
<g id="a_node7"><a xlink:href="classpb_1_1Header.html#ab885144f6dc4e95e63f16d4eb2f07725" target="_top" xlink:title="pb::Header::default\l_instance">
<polygon fill="none" stroke="black" points="605,-66 605,-96 705,-96 705,-66 605,-66"/>
<text text-anchor="start" x="613" y="-84" font-family="Helvetica,sans-Serif" font-size="10.00">pb::Header::default</text>
<text text-anchor="middle" x="655" y="-73" font-family="Helvetica,sans-Serif" font-size="10.00">_instance</text>
</a>
</g>
</g>
<!-- Node6&#45;&gt;Node7 -->
<g id="edge6" class="edge"><title>Node6&#45;&gt;Node7</title>
<path fill="none" stroke="midnightblue" d="M536.117,-81C554.872,-81 575.682,-81 594.533,-81"/>
<polygon fill="midnightblue" stroke="midnightblue" points="594.779,-84.5001 604.779,-81 594.779,-77.5001 594.779,-84.5001"/>
</g>
</g>
</svg>
