<?xml version="1.0" encoding="UTF-8" standalone="no"?>
<!DOCTYPE svg PUBLIC "-//W3C//DTD SVG 1.1//EN"
 "http://www.w3.org/Graphics/SVG/1.1/DTD/svg11.dtd">
<!-- Generated by graphviz version 2.36.0 (20140111.2315)
 -->
<!-- Title: src/ObjectDetection/vehicle_detector.h Pages: 1 -->
<svg width="320pt" height="176pt"
 viewBox="0.00 0.00 320.00 176.00" xmlns="http://www.w3.org/2000/svg" xmlns:xlink="http://www.w3.org/1999/xlink">
<g id="graph0" class="graph" transform="scale(1 1) rotate(0) translate(4 172)">
<title>src/ObjectDetection/vehicle_detector.h</title>
<!-- Node1 -->
<g id="node1" class="node"><title>Node1</title>
<polygon fill="#bfbfbf" stroke="black" points="80,-137 80,-167 184,-167 184,-137 80,-137"/>
<text text-anchor="start" x="88" y="-155" font-family="Helvetica,sans-Serif" font-size="10.00">src/ObjectDetection</text>
<text text-anchor="middle" x="132" y="-144" font-family="Helvetica,sans-Serif" font-size="10.00">/vehicle_detector.h</text>
</g>
<!-- Node2 -->
<g id="node2" class="node"><title>Node2</title>
<g id="a_node2"><a xlink:href="detection_8h.html" target="_top" xlink:title="src/ObjectDetection\l/detection.h">
<polygon fill="none" stroke="black" points="80,-69 80,-99 184,-99 184,-69 80,-69"/>
<text text-anchor="start" x="88" y="-87" font-family="Helvetica,sans-Serif" font-size="10.00">src/ObjectDetection</text>
<text text-anchor="middle" x="132" y="-76" font-family="Helvetica,sans-Serif" font-size="10.00">/detection.h</text>
</a>
</g>
</g>
<!-- Node1&#45;&gt;Node2 -->
<g id="edge1" class="edge"><title>Node1&#45;&gt;Node2</title>
<path fill="none" stroke="midnightblue" d="M132,-126.532C132,-117.361 132,-107.245 132,-99.2931"/>
<polygon fill="midnightblue" stroke="midnightblue" points="128.5,-126.679 132,-136.679 135.5,-126.679 128.5,-126.679"/>
</g>
<!-- Node3 -->
<g id="node3" class="node"><title>Node3</title>
<g id="a_node3"><a xlink:href="detection_8cpp.html" target="_top" xlink:title="src/ObjectDetection\l/detection.cpp">
<polygon fill="none" stroke="black" points="0,-1 0,-31 104,-31 104,-1 0,-1"/>
<text text-anchor="start" x="8" y="-19" font-family="Helvetica,sans-Serif" font-size="10.00">src/ObjectDetection</text>
<text text-anchor="middle" x="52" y="-8" font-family="Helvetica,sans-Serif" font-size="10.00">/detection.cpp</text>
</a>
</g>
</g>
<!-- Node1&#45;&gt;Node3 -->
<g id="edge4" class="edge"><title>Node1&#45;&gt;Node3</title>
<path fill="none" stroke="midnightblue" d="M100.321,-130.871C89.5346,-122.54 78.3564,-112.005 71,-100 57.7931,-78.4465 53.7523,-48.654 52.525,-31.2461"/>
<polygon fill="midnightblue" stroke="midnightblue" points="98.2865,-133.719 108.424,-136.799 102.42,-128.07 98.2865,-133.719"/>
</g>
<!-- Node5 -->
<g id="node5" class="node"><title>Node5</title>
<g id="a_node5"><a xlink:href="vehicle__detector_8cpp.html" target="_top" xlink:title="src/ObjectDetection\l/vehicle_detector.cpp">
<polygon fill="none" stroke="black" points="202,-69 202,-99 312,-99 312,-69 202,-69"/>
<text text-anchor="start" x="210" y="-87" font-family="Helvetica,sans-Serif" font-size="10.00">src/ObjectDetection</text>
<text text-anchor="middle" x="257" y="-76" font-family="Helvetica,sans-Serif" font-size="10.00">/vehicle_detector.cpp</text>
</a>
</g>
</g>
<!-- Node1&#45;&gt;Node5 -->
<g id="edge5" class="edge"><title>Node1&#45;&gt;Node5</title>
<path fill="none" stroke="midnightblue" d="M167.882,-132.055C187.75,-121.564 212.032,-108.743 230.229,-99.1352"/>
<polygon fill="midnightblue" stroke="midnightblue" points="166.024,-129.077 158.816,-136.841 169.293,-135.267 166.024,-129.077"/>
</g>
<!-- Node2&#45;&gt;Node3 -->
<g id="edge2" class="edge"><title>Node2&#45;&gt;Node3</title>
<path fill="none" stroke="midnightblue" d="M106.92,-62.3094C94.5971,-52.1426 80.0681,-40.1562 69.0501,-31.0663"/>
<polygon fill="midnightblue" stroke="midnightblue" points="104.7,-65.0149 114.641,-68.679 109.155,-59.6153 104.7,-65.0149"/>
</g>
<!-- Node4 -->
<g id="node4" class="node"><title>Node4</title>
<g id="a_node4"><a xlink:href="detectionMain_8cpp.html" target="_top" xlink:title="src/ObjectDetection\l/detectionMain.cpp">
<polygon fill="none" stroke="black" points="122,-1 122,-31 226,-31 226,-1 122,-1"/>
<text text-anchor="start" x="130" y="-19" font-family="Helvetica,sans-Serif" font-size="10.00">src/ObjectDetection</text>
<text text-anchor="middle" x="174" y="-8" font-family="Helvetica,sans-Serif" font-size="10.00">/detectionMain.cpp</text>
</a>
</g>
</g>
<!-- Node2&#45;&gt;Node4 -->
<g id="edge3" class="edge"><title>Node2&#45;&gt;Node4</title>
<path fill="none" stroke="midnightblue" d="M146.624,-60.0187C152.703,-50.4665 159.569,-39.677 164.904,-31.2931"/>
<polygon fill="midnightblue" stroke="midnightblue" points="143.529,-58.3633 141.113,-68.679 149.435,-62.1214 143.529,-58.3633"/>
</g>
</g>
</svg>
